<svg width="7" height="13" viewBox="0 0 7 13" fill="none" xmlns="http://www.w3.org/2000/svg">
<path d="M6.64054 5.7294C6.80067 5.88958 6.89062 6.1068 6.89062 6.33329C6.89062 6.55979 6.80067 6.77701 6.64054 6.93719L1.51554 12.0622C1.35444 12.2178 1.13868 12.3039 0.914716 12.3019C0.690756 12.3 0.47652 12.2102 0.318151 12.0518C0.159782 11.8934 0.0699501 11.6792 0.0680041 11.4552C0.0660577 11.2313 0.152153 11.0155 0.307746 10.8544L4.82885 6.33329L0.307747 1.81219C0.152153 1.65109 0.0660581 1.43533 0.0680046 1.21137C0.0699506 0.987408 0.159782 0.773173 0.318151 0.614804C0.476521 0.456434 0.690757 0.366602 0.914717 0.364656C1.13868 0.36271 1.35444 0.448805 1.51554 0.604399L6.64054 5.7294Z" fill="#3C3F4C"/>
</svg>
