<svg width="416" height="762" viewBox="0 0 416 762" fill="none" xmlns="http://www.w3.org/2000/svg">
<path d="M-19.4956 82.4916L308.758 260.756L240.676 628.056L-129.694 676.834L-290.496 339.61" stroke="#FBF6F3" stroke-width="2.9" stroke-miterlimit="10"/>
<path d="M-16.3181 99.2774L293.44 267.552L229.186 614.154L-120.251 660.116L-272.03 341.883" stroke="#FBF6F3" stroke-width="2.8" stroke-miterlimit="10"/>
<path d="M-13.1095 116.158L278.12 274.348L217.661 600.158L-110.904 643.431L-253.533 344.252" stroke="#FBF6F3" stroke-width="2.6" stroke-miterlimit="10"/>
<path d="M-9.93203 132.944L262.769 281.049L206.171 586.256L-101.461 626.713L-235.035 346.62" stroke="#FBF6F3" stroke-width="2.4" stroke-miterlimit="10"/>
<path d="M-6.72139 149.824L247.452 287.845L194.743 572.227L-92.0172 609.995L-216.569 348.894" stroke="#FBF6F3" stroke-width="2.3" stroke-miterlimit="10"/>
<path d="M-3.51269 166.705L232.132 294.641L183.218 558.23L-82.6701 593.309L-198.072 351.262" stroke="#FBF6F3" stroke-width="2.1" stroke-miterlimit="10"/>
<path d="M-0.335243 183.491L216.781 301.343L171.728 544.329L-73.2271 576.592L-179.606 353.536" stroke="#FBF6F3" stroke-width="1.9" stroke-miterlimit="10"/>
</svg>
