<svg width="69" height="69" viewBox="0 0 69 69" fill="none" xmlns="http://www.w3.org/2000/svg">
<path d="M19.8698 37.5331C20.7786 37.5331 21.6502 37.1721 22.2928 36.5295C22.9354 35.8868 23.2965 35.0152 23.2965 34.1064C23.2965 33.1976 22.9354 32.326 22.2928 31.6834C21.6502 31.0407 20.7786 30.6797 19.8698 30.6797C18.9609 30.6797 18.0893 31.0407 17.4467 31.6834C16.8041 32.326 16.443 33.1976 16.443 34.1064C16.443 35.0152 16.8041 35.8868 17.4467 36.5295C18.0893 37.1721 18.9609 37.5331 19.8698 37.5331ZM23.2988 45.554C23.2988 46.4628 22.9377 47.3344 22.2951 47.9771C21.6525 48.6197 20.7809 48.9807 19.872 48.9807C18.9632 48.9807 18.0916 48.6197 17.449 47.9771C16.8063 47.3344 16.4453 46.4628 16.4453 45.554C16.4453 44.6452 16.8063 43.7736 17.449 43.131C18.0916 42.4883 18.9632 42.1273 19.872 42.1273C20.7809 42.1273 21.6525 42.4883 22.2951 43.131C22.9377 43.7736 23.2988 44.6452 23.2988 45.554ZM32.4688 37.5331C33.3776 37.5331 34.2492 37.1721 34.8918 36.5295C35.5344 35.8868 35.8955 35.0152 35.8955 34.1064C35.8955 33.1976 35.5344 32.326 34.8918 31.6834C34.2492 31.0407 33.3776 30.6797 32.4688 30.6797C31.5599 30.6797 30.6883 31.0407 30.0457 31.6834C29.4031 32.326 29.042 33.1976 29.042 34.1064C29.042 35.0152 29.4031 35.8868 30.0457 36.5295C30.6883 37.1721 31.5599 37.5331 32.4688 37.5331ZM35.8978 45.554C35.8978 46.4628 35.5367 47.3344 34.8941 47.9771C34.2515 48.6197 33.3799 48.9807 32.471 48.9807C31.5622 48.9807 30.6906 48.6197 30.048 47.9771C29.4053 47.3344 29.0443 46.4628 29.0443 45.554C29.0443 44.6452 29.4053 43.7736 30.048 43.131C30.6906 42.4883 31.5622 42.1273 32.471 42.1273C33.3799 42.1273 34.2515 42.4883 34.8941 43.131C35.5367 43.7736 35.8978 44.6452 35.8978 45.554ZM45.054 37.5331C45.9628 37.5331 46.8344 37.1721 47.4771 36.5295C48.1197 35.8868 48.4807 35.0152 48.4807 34.1064C48.4807 33.1976 48.1197 32.326 47.4771 31.6834C46.8344 31.0407 45.9628 30.6797 45.054 30.6797C44.1452 30.6797 43.2736 31.0407 42.631 31.6834C41.9883 32.326 41.6273 33.1976 41.6273 34.1064C41.6273 35.0152 41.9883 35.8868 42.631 36.5295C43.2736 37.1721 44.1452 37.5331 45.054 37.5331ZM59.9375 16.9453C59.9375 13.9098 58.7317 10.9987 56.5852 8.85225C54.4388 6.70584 51.5277 5.5 48.4922 5.5H16.4453C13.4098 5.5 10.4987 6.70584 8.35225 8.85225C6.20584 10.9987 5 13.9098 5 16.9453V48.9922C5 52.0277 6.20584 54.9388 8.35225 57.0852C10.4987 59.2317 13.4098 60.4375 16.4453 60.4375H48.4922C51.5277 60.4375 54.4388 59.2317 56.5852 57.0852C58.7317 54.9388 59.9375 52.0277 59.9375 48.9922V16.9453ZM9.57812 23.8125H55.3594V48.9922C55.3594 50.8135 54.6359 52.5602 53.348 53.848C52.0602 55.1359 50.3135 55.8594 48.4922 55.8594H16.4453C14.624 55.8594 12.8773 55.1359 11.5895 53.848C10.3016 52.5602 9.57812 50.8135 9.57812 48.9922V23.8125ZM16.4453 10.0781H48.4922C50.3135 10.0781 52.0602 10.8016 53.348 12.0895C54.6359 13.3773 55.3594 15.124 55.3594 16.9453V19.2344H9.57812V16.9453C9.57812 15.124 10.3016 13.3773 11.5895 12.0895C12.8773 10.8016 14.624 10.0781 16.4453 10.0781Z" fill="#182D4C"/>
</svg>
