<svg width="58" height="58" viewBox="0 0 58 58" fill="none" xmlns="http://www.w3.org/2000/svg">
<g clip-path="url(#clip0_696_2094)">
<path d="M9.0625 6.34375V48.0312C9.0625 48.5315 9.4685 48.9375 9.96875 48.9375H21.46C22.1811 48.9375 22.8726 49.2239 23.3824 49.7338C23.8923 50.2437 24.1787 50.9352 24.1787 51.6562C24.1787 52.3773 23.8923 53.0688 23.3824 53.5787C22.8726 54.0886 22.1811 54.375 21.46 54.375H9.96875C8.28628 54.375 6.67272 53.7066 5.48304 52.517C4.29336 51.3273 3.625 49.7137 3.625 48.0312V6.34375C3.625 2.842 6.467 0 9.96875 0H40.7812C44.283 0 47.125 2.842 47.125 6.34375V34.3867C47.125 35.1078 46.8386 35.7993 46.3287 36.3092C45.8188 36.8191 45.1273 37.1055 44.4062 37.1055C43.6852 37.1055 42.9937 36.8191 42.4838 36.3092C41.9739 35.7993 41.6875 35.1078 41.6875 34.3867V6.34375C41.6875 6.1034 41.592 5.87289 41.4221 5.70293C41.2521 5.53298 41.0216 5.4375 40.7812 5.4375H9.96875C9.7284 5.4375 9.49789 5.53298 9.32793 5.70293C9.15798 5.87289 9.0625 6.1034 9.0625 6.34375ZM57.1807 40.9154L40.6616 57.0466C40.1488 57.5464 39.4595 57.8237 38.7435 57.8183C38.0274 57.8128 37.3424 57.5251 36.8372 57.0176L29.7939 49.9489C29.3146 49.4326 29.0544 48.7504 29.0681 48.0461C29.0818 47.3417 29.3684 46.6702 29.8675 46.173C30.3666 45.6758 31.0392 45.3918 31.7436 45.3807C32.448 45.3696 33.1292 45.6324 33.6436 46.1136L38.7875 51.2793L53.3817 37.0257C53.898 36.522 54.5933 36.2439 55.3146 36.2528C55.6717 36.2571 56.0245 36.3318 56.3528 36.4725C56.6811 36.6132 56.9784 36.8172 57.2279 37.0729C57.4773 37.3285 57.674 37.6308 57.8066 37.9624C57.9392 38.294 58.0052 38.6485 58.0009 39.0057C57.9965 39.3628 57.9218 39.7156 57.7811 40.0439C57.6404 40.3722 57.4364 40.6696 57.1807 40.919M17.2187 14.5H33.5312C34.2523 14.5 34.9438 14.7864 35.4537 15.2963C35.9636 15.8062 36.25 16.4977 36.25 17.2188C36.25 17.9398 35.9636 18.6313 35.4537 19.1412C34.9438 19.6511 34.2523 19.9375 33.5312 19.9375H17.2187C16.4977 19.9375 15.8062 19.6511 15.2963 19.1412C14.7864 18.6313 14.5 17.9398 14.5 17.2188C14.5 16.4977 14.7864 15.8062 15.2963 15.2963C15.8062 14.7864 16.4977 14.5 17.2187 14.5ZM14.5 28.0938C14.5 27.3727 14.7864 26.6812 15.2963 26.1713C15.8062 25.6614 16.4977 25.375 17.2187 25.375H24.4687C25.1898 25.375 25.8813 25.6614 26.3912 26.1713C26.9011 26.6812 27.1875 27.3727 27.1875 28.0938C27.1875 28.8148 26.9011 29.5063 26.3912 30.0162C25.8813 30.5261 25.1898 30.8125 24.4687 30.8125H17.2187C16.4977 30.8125 15.8062 30.5261 15.2963 30.0162C14.7864 29.5063 14.5 28.8148 14.5 28.0938Z" fill="#182D4C"/>
</g>
<defs>
<clipPath id="clip0_696_2094">
<rect width="58" height="58" fill="white"/>
</clipPath>
</defs>
</svg>
