<svg width="9" height="6" viewBox="0 0 9 6" fill="none" xmlns="http://www.w3.org/2000/svg">
<path d="M5.2054 5.44811C5.09211 5.56137 4.93846 5.625 4.77826 5.625C4.61805 5.625 4.46441 5.56137 4.35111 5.44811L0.726112 1.82311C0.616058 1.70916 0.555162 1.55655 0.556538 1.39814C0.557914 1.23973 0.621455 1.08819 0.733472 0.976177C0.845489 0.86416 0.997022 0.80062 1.15543 0.799244C1.31384 0.797867 1.46646 0.858764 1.5804 0.968818L4.77826 4.16667L7.97611 0.968817C8.09006 0.858763 8.24267 0.797867 8.40108 0.799243C8.55949 0.80062 8.71103 0.864159 8.82304 0.976177C8.93506 1.08819 8.9986 1.23973 8.99998 1.39814C9.00135 1.55655 8.94046 1.70916 8.8304 1.82311L5.2054 5.44811Z" fill="#3C3F4C"/>
</svg>
