<svg width="14" height="14" viewBox="0 0 14 14" fill="none" xmlns="http://www.w3.org/2000/svg">
<path d="M5.06943 1.04134C5.23351 0.877307 5.45603 0.785156 5.68805 0.785156C5.92007 0.785156 6.14259 0.877307 6.30668 1.04134L6.8728 1.60659C6.95495 1.68875 7.0011 1.80017 7.0011 1.91634C7.0011 2.03252 6.95495 2.14394 6.8728 2.22609C6.79065 2.30825 6.67923 2.3544 6.56305 2.3544C6.44687 2.3544 6.33545 2.30825 6.2533 2.22609L5.68805 1.65997L1.75055 5.59747V11.1038C1.75055 11.2199 1.79665 11.3312 1.87869 11.4132C1.96074 11.4953 2.07202 11.5413 2.18805 11.5413C2.30408 11.5413 2.41536 11.5874 2.49741 11.6695C2.57946 11.7515 2.62555 11.8628 2.62555 11.9788C2.62555 12.0949 2.57946 12.2062 2.49741 12.2882C2.41536 12.3703 2.30408 12.4163 2.18805 12.4163C1.83996 12.4163 1.50612 12.2781 1.25997 12.0319C1.01383 11.7858 0.875553 11.4519 0.875553 11.1038V6.47247L0.747803 6.60109C0.665652 6.68325 0.554231 6.7294 0.438053 6.7294C0.321874 6.7294 0.210453 6.68325 0.128303 6.60109C0.0461518 6.51894 1.7312e-09 6.40752 0 6.29134C-1.7312e-09 6.17517 0.0461518 6.06375 0.128303 5.98159L5.06943 1.04134ZM7.69443 1.91634C7.85851 1.75231 8.08103 1.66016 8.31305 1.66016C8.54507 1.66016 8.76759 1.75231 8.93168 1.91634L10.5006 3.48522V2.35384C10.5006 2.23781 10.5466 2.12653 10.6287 2.04449C10.7107 1.96244 10.822 1.91634 10.9381 1.91634H11.8131C11.9291 1.91634 12.0404 1.96244 12.1224 2.04449C12.2045 2.12653 12.2506 2.23781 12.2506 2.35384V5.23522L13.8728 6.85659C13.955 6.93875 14.0011 7.05017 14.0011 7.16634C14.0011 7.28252 13.955 7.39394 13.8728 7.47609C13.7907 7.55825 13.6792 7.6044 13.5631 7.6044C13.4469 7.6044 13.3355 7.55825 13.2533 7.47609L13.1256 7.34747V11.9788C13.1256 12.3269 12.9873 12.6608 12.7411 12.9069C12.495 13.1531 12.1611 13.2913 11.8131 13.2913H4.81305C4.46496 13.2913 4.13112 13.1531 3.88497 12.9069C3.63883 12.6608 3.50055 12.3269 3.50055 11.9788V7.34747L3.3728 7.47609C3.33213 7.51677 3.28384 7.54904 3.23069 7.57105C3.17754 7.59307 3.12058 7.6044 3.06305 7.6044C3.00553 7.6044 2.94856 7.59307 2.89542 7.57105C2.84227 7.54904 2.79398 7.51677 2.7533 7.47609C2.71263 7.43542 2.68036 7.38713 2.65834 7.33398C2.63633 7.28083 2.625 7.22387 2.625 7.16634C2.625 7.10882 2.63633 7.05186 2.65834 6.99871C2.68036 6.94556 2.71263 6.89727 2.7533 6.85659L7.69443 1.91634ZM8.31305 2.53497L4.37555 6.47247V11.9788C4.37555 12.0949 4.42165 12.2062 4.50369 12.2882C4.58574 12.3703 4.69702 12.4163 4.81305 12.4163H11.8131C11.9291 12.4163 12.0404 12.3703 12.1224 12.2882C12.2045 12.2062 12.2506 12.0949 12.2506 11.9788V6.47247L8.31305 2.53497Z" fill="#4969AF"/>
</svg>
