<svg width="200" height="291" viewBox="0 0 200 291" fill="none" xmlns="http://www.w3.org/2000/svg">
<mask id="mask0_696_667" style="mask-type:luminance" maskUnits="userSpaceOnUse" x="130" y="166" width="70" height="79">
<path d="M200 166.105H130.482V244.22H200V166.105Z" fill="white"/>
</mask>
<g mask="url(#mask0_696_667)">
<path d="M132.596 242.109C132.855 242.372 133.143 242.61 133.452 242.817C133.76 243.024 134.087 243.199 134.43 243.343C134.77 243.483 135.125 243.592 135.489 243.666C135.854 243.739 136.222 243.775 136.594 243.775C136.97 243.775 137.338 243.739 137.703 243.666C138.067 243.592 138.422 243.483 138.762 243.343C139.105 243.199 139.432 243.024 139.74 242.817C140.049 242.61 140.337 242.372 140.596 242.109L199.855 182.874V166.835L132.596 234.073C132.329 234.336 132.094 234.624 131.887 234.933C131.677 235.245 131.502 235.571 131.358 235.915C131.218 236.262 131.109 236.616 131.035 236.981C130.962 237.349 130.926 237.717 130.926 238.089C130.926 238.464 130.962 238.833 131.035 239.201C131.109 239.566 131.218 239.92 131.358 240.267C131.502 240.611 131.677 240.937 131.887 241.249C132.094 241.558 132.329 241.846 132.596 242.109Z" fill="#F2E8DE"/>
</g>
<mask id="mask1_696_667" style="mask-type:luminance" maskUnits="userSpaceOnUse" x="168" y="206" width="32" height="41">
<path d="M200 206.51H168.192V246.016H200V206.51Z" fill="white"/>
</mask>
<g mask="url(#mask1_696_667)">
<path d="M170.534 243.999C170.797 244.266 171.082 244.501 171.394 244.707C171.702 244.914 172.025 245.09 172.369 245.234C172.712 245.374 173.067 245.483 173.431 245.556C173.796 245.63 174.164 245.665 174.536 245.665C174.908 245.665 175.276 245.63 175.641 245.556C176.006 245.483 176.36 245.374 176.704 245.234C177.047 245.09 177.374 244.914 177.682 244.707C177.991 244.501 178.275 244.266 178.538 243.999L199.855 222.692V206.653L170.534 235.964C170.271 236.227 170.036 236.514 169.826 236.823C169.619 237.135 169.444 237.461 169.3 237.805C169.156 238.152 169.051 238.507 168.977 238.871C168.904 239.24 168.868 239.608 168.868 239.983C168.868 240.355 168.904 240.723 168.977 241.091C169.051 241.456 169.156 241.814 169.3 242.158C169.444 242.501 169.619 242.831 169.826 243.14C170.036 243.448 170.271 243.736 170.534 243.999Z" fill="#F2E8DE"/>
</g>
<mask id="mask2_696_667" style="mask-type:luminance" maskUnits="userSpaceOnUse" x="163" y="246" width="37" height="45">
<path d="M200 246.913H163.703V290.909H200V246.913Z" fill="white"/>
</mask>
<g mask="url(#mask2_696_667)">
<path d="M165.88 289.271C166.143 289.538 166.427 289.773 166.736 289.98C167.045 290.187 167.371 290.362 167.715 290.506C168.058 290.65 168.413 290.755 168.777 290.829C169.142 290.902 169.51 290.937 169.882 290.937C170.254 290.937 170.622 290.902 170.987 290.829C171.352 290.755 171.706 290.65 172.05 290.506C172.393 290.362 172.716 290.187 173.028 289.98C173.337 289.773 173.621 289.538 173.884 289.271L199.855 263.31V247.271L165.88 281.236C165.614 281.499 165.379 281.787 165.172 282.095C164.965 282.408 164.786 282.734 164.646 283.081C164.502 283.425 164.393 283.779 164.319 284.147C164.246 284.512 164.211 284.88 164.211 285.256C164.211 285.627 164.246 285.999 164.319 286.364C164.393 286.729 164.502 287.086 164.646 287.43C164.786 287.774 164.965 288.103 165.172 288.412C165.379 288.724 165.614 289.008 165.88 289.271Z" fill="#F2E8DE"/>
</g>
<mask id="mask3_696_667" style="mask-type:luminance" maskUnits="userSpaceOnUse" x="123" y="117" width="77" height="86">
<path d="M200 117.62H123.299V202.918H200V117.62Z" fill="white"/>
</mask>
<g mask="url(#mask3_696_667)">
<path d="M125.318 200.908C125.585 201.168 125.869 201.4 126.181 201.603C126.49 201.806 126.816 201.978 127.16 202.119C127.503 202.259 127.854 202.368 128.219 202.438C128.584 202.508 128.948 202.546 129.32 202.546C129.692 202.546 130.057 202.508 130.421 202.438C130.786 202.368 131.14 202.259 131.481 202.119C131.824 201.978 132.151 201.806 132.463 201.603C132.771 201.4 133.059 201.168 133.322 200.908L199.855 134.547V118.364L125.318 192.726C125.045 192.993 124.796 193.28 124.582 193.596C124.364 193.911 124.178 194.245 124.031 194.595C123.88 194.946 123.768 195.311 123.691 195.683C123.614 196.058 123.575 196.437 123.575 196.819C123.575 197.201 123.614 197.58 123.691 197.952C123.768 198.327 123.88 198.688 124.031 199.043C124.178 199.393 124.364 199.727 124.582 200.042C124.796 200.354 125.045 200.645 125.318 200.908Z" fill="#F2E8DE"/>
</g>
<mask id="mask4_696_667" style="mask-type:luminance" maskUnits="userSpaceOnUse" x="88" y="78" width="112" height="121">
<path d="M200 78.1152H88.2819V198.43H200V78.1152Z" fill="white"/>
</mask>
<g mask="url(#mask4_696_667)">
<path d="M90.1435 196.073C90.6731 196.602 91.2869 197.006 91.9814 197.29C92.6723 197.574 93.3948 197.714 94.1454 197.711C94.8679 197.686 95.5588 197.535 96.2252 197.255C96.8916 196.971 97.4808 196.578 97.9999 196.073L199.855 94.5469V78.3643L90.1435 188.037C89.877 188.3 89.642 188.588 89.4351 188.897C89.2246 189.209 89.0493 189.535 88.9055 189.879C88.7652 190.226 88.6565 190.58 88.5828 190.945C88.5091 191.313 88.4741 191.682 88.4741 192.057C88.4741 192.429 88.5091 192.797 88.5828 193.165C88.6565 193.53 88.7652 193.888 88.9055 194.231C89.0493 194.575 89.2246 194.905 89.4351 195.213C89.642 195.522 89.877 195.81 90.1435 196.073Z" fill="#F2E8DE"/>
</g>
<mask id="mask5_696_667" style="mask-type:luminance" maskUnits="userSpaceOnUse" x="119" y="40" width="81" height="90">
<path d="M200 40.4043H119.707V129.293H200V40.4043Z" fill="white"/>
</mask>
<g mask="url(#mask5_696_667)">
<path d="M121.681 126.982C121.944 127.245 122.228 127.48 122.537 127.691C122.846 127.897 123.172 128.073 123.516 128.213C123.859 128.357 124.213 128.466 124.578 128.539C124.943 128.613 125.311 128.648 125.683 128.648C126.055 128.648 126.423 128.613 126.788 128.539C127.153 128.466 127.507 128.357 127.851 128.213C128.194 128.073 128.52 127.897 128.829 127.691C129.138 127.48 129.422 127.245 129.685 126.982L199.855 56.8361V40.8008L121.681 118.947C121.418 119.21 121.18 119.498 120.973 119.806C120.766 120.115 120.59 120.444 120.447 120.788C120.303 121.132 120.194 121.49 120.12 121.854C120.05 122.223 120.012 122.591 120.012 122.963C120.012 123.338 120.05 123.706 120.12 124.075C120.194 124.439 120.303 124.794 120.447 125.141C120.59 125.484 120.766 125.811 120.973 126.123C121.18 126.431 121.418 126.719 121.681 126.982Z" fill="#F2E8DE"/>
</g>
<mask id="mask6_696_667" style="mask-type:luminance" maskUnits="userSpaceOnUse" x="61" y="1" width="139" height="148">
<path d="M200 1.7959H61.3458V148.148H200V1.7959Z" fill="white"/>
</mask>
<g mask="url(#mask6_696_667)">
<path d="M63.4777 146.364C63.7408 146.627 64.0248 146.865 64.3335 147.072C64.6421 147.279 64.9683 147.454 65.312 147.598C65.6557 147.739 66.01 147.847 66.3747 147.921C66.7395 147.995 67.1078 148.03 67.4795 148.03C67.8513 148.03 68.2196 147.995 68.5843 147.921C68.9491 147.847 69.3033 147.739 69.647 147.598C69.9907 147.454 70.3169 147.279 70.6255 147.072C70.9342 146.865 71.2183 146.627 71.4813 146.364L198.5 19.5381L192 9.85547L63.4777 138.181C63.2041 138.448 62.9551 138.735 62.7377 139.051C62.5237 139.367 62.3378 139.7 62.187 140.051C62.0397 140.401 61.9275 140.766 61.8503 141.138C61.7731 141.513 61.7346 141.892 61.7346 142.274C61.7346 142.656 61.7731 143.035 61.8503 143.407C61.9275 143.782 62.0397 144.147 62.187 144.498C62.3378 144.849 62.5237 145.182 62.7377 145.497C62.9551 145.81 63.2041 146.101 63.4777 146.364Z" fill="#F2E8DE"/>
</g>
<path d="M127.721 42.1086C128.257 42.6382 128.878 43.0486 129.576 43.3397C130.274 43.6273 131 43.7746 131.757 43.7816C132.508 43.7781 133.231 43.6308 133.925 43.3432C134.619 43.0521 135.23 42.6417 135.759 42.1086L178.029 0H161.987L127.864 34.1085C127.598 34.3645 127.356 34.6486 127.142 34.9537C126.928 35.2553 126.749 35.578 126.598 35.9217C126.451 36.2619 126.335 36.6127 126.254 36.9774C126.177 37.3387 126.132 37.707 126.125 38.0787C126.118 38.4505 126.149 38.8188 126.216 39.187C126.283 39.5518 126.384 39.906 126.521 40.2532C126.658 40.6005 126.826 40.9266 127.03 41.2388C127.23 41.5545 127.461 41.8421 127.721 42.1086Z" fill="#F2E8DE"/>
<path d="M61.6213 69.9986C61.8844 70.2652 62.1685 70.5002 62.4771 70.7071C62.7857 70.914 63.1119 71.0894 63.4556 71.2332C63.7994 71.377 64.1536 71.4822 64.5183 71.5559C64.8831 71.6295 65.2514 71.6646 65.6232 71.6646C65.9949 71.6646 66.3632 71.6295 66.728 71.5559C67.0927 71.4822 67.4469 71.377 67.7907 71.2332C68.1344 71.0894 68.4606 70.914 68.7692 70.7071C69.0778 70.5002 69.3619 70.2652 69.625 69.9986L139.578 0H123.462L61.6213 61.8196C61.3477 62.0827 61.0987 62.3738 60.8813 62.6859C60.6673 63.0016 60.4814 63.3348 60.3341 63.6855C60.1833 64.0362 60.0711 64.401 59.9939 64.7763C59.9168 65.148 59.8782 65.5268 59.8782 65.9091C59.8782 66.2914 59.9168 66.6702 59.9939 67.042C60.0711 67.4173 60.1833 67.782 60.3341 68.1327C60.4814 68.4835 60.6673 68.8167 60.8813 69.1323C61.0987 69.4445 61.3477 69.7356 61.6213 69.9986Z" fill="#F2E8DE"/>
<path d="M5.27395 84.5469C5.53699 84.81 5.82108 85.0449 6.12973 85.2519C6.43837 85.4588 6.76455 85.6342 7.10827 85.778C7.45198 85.9218 7.80622 86.0305 8.17097 86.1006C8.53574 86.1743 8.90401 86.2094 9.27578 86.2094C9.64755 86.2094 10.0158 86.1743 10.3806 86.1006C10.7453 86.0305 11.0996 85.9218 11.4433 85.778C11.787 85.6342 12.1132 85.4588 12.4218 85.2519C12.7305 85.0449 13.0146 84.81 13.2776 84.5469L98 0H81.9576L5.56505 76.3644C5.28096 76.6169 5.02493 76.8975 4.79344 77.2061C4.56547 77.5113 4.37257 77.8374 4.20773 78.1847C4.04639 78.5319 3.92013 78.8896 3.82893 79.2614C3.74126 79.6332 3.68864 80.012 3.67461 80.3943C3.66058 80.7731 3.68513 81.1553 3.74827 81.5306C3.8114 81.9094 3.91311 82.2742 4.0499 82.6319C4.18668 82.9897 4.35854 83.3299 4.56547 83.6525C4.7724 83.9717 5.00739 84.2698 5.27395 84.5469Z" fill="#F2E8DE"/>
<mask id="mask7_696_667" style="mask-type:luminance" maskUnits="userSpaceOnUse" x="0" y="0" width="48" height="40">
<path d="M47.8789 0H0.000724792V39.5062H47.8789V0Z" fill="white"/>
</mask>
<g mask="url(#mask7_696_667)">
<path d="M1.64062 37.272C1.90368 37.5351 2.18777 37.7736 2.49641 37.9805C2.80505 38.1875 3.13123 38.3628 3.47495 38.5066C3.81866 38.6469 4.1729 38.7556 4.53766 38.8293C4.90242 38.9029 5.27068 38.938 5.64246 38.938C6.01423 38.938 6.3825 38.9029 6.74726 38.8293C7.11202 38.7556 7.46626 38.6469 7.80997 38.5066C8.15369 38.3628 8.47987 38.1875 8.78851 37.9805C9.09715 37.7736 9.38124 37.5351 9.64429 37.272L47.0742 0H31.0318L1.93173 29.0895C1.64764 29.3456 1.3881 29.6261 1.16013 29.9348C0.932152 30.2399 0.735744 30.5661 0.574406 30.9133C0.413071 31.257 0.286808 31.6183 0.195618 31.9901C0.107937 32.3618 0.0553246 32.7371 0.0412979 33.1194C0.0272675 33.5017 0.0518188 33.8805 0.114952 34.2593C0.178082 34.6346 0.279793 35.0028 0.41658 35.3606C0.553364 35.7148 0.72522 36.055 0.932152 36.3777C1.13908 36.7004 1.37407 36.9985 1.64062 37.272Z" fill="#F2E8DE"/>
</g>
</svg>
