<svg width="257" height="310" viewBox="0 0 257 310" fill="none" xmlns="http://www.w3.org/2000/svg">
<mask id="mask0_696_2337" style="mask-type:luminance" maskUnits="userSpaceOnUse" x="0" y="0" width="257" height="256">
<path d="M0.363281 0.000488281H256.783V255.691H0.363281V0.000488281Z" fill="white"/>
</mask>
<g mask="url(#mask0_696_2337)">
<path d="M256.857 252.287C256.648 259.576 189.815 250.101 183.258 248.019C163.585 241.459 144.324 225.11 135.268 206.579C130.064 195.96 128.295 183.255 131.314 171.802C134.333 159.931 143.598 151.604 146.303 139.419C148.072 131.61 146.718 123.073 142.45 116.304C132.769 100.688 111.742 96.6251 93.3151 97.1484C74.8919 97.6679 55.7355 101.417 38.2474 95.4813C18.6795 88.9216 4.10553 69.7619 3.06186 49.3538C2.13099 31.0892 12.1253 12.7378 27.6708 3.039C31.2774 0.788841 35.5528 0.00151242 39.8038 0.00349284L227.88 0.0911121C244.496 0.0988532 257.941 13.6112 257.865 30.2273L256.857 252.287Z" fill="#D2E4D2" fill-opacity="0.4"/>
</g>
<mask id="mask1_696_2337" style="mask-type:luminance" maskUnits="userSpaceOnUse" x="189" y="293" width="18" height="17">
<path d="M189.809 293.006H206.074V310H189.809V293.006Z" fill="white"/>
</mask>
<g mask="url(#mask1_696_2337)">
<path d="M197.736 309.974C208.347 309.974 208.347 293.521 197.736 293.521C187.234 293.521 187.129 309.974 197.736 309.974Z" fill="#D2E4D2" fill-opacity="0.4"/>
</g>
</svg>
