<svg width="301" height="590" viewBox="0 0 301 590" fill="none" xmlns="http://www.w3.org/2000/svg">
<path d="M332.607 22.2422L297.55 36.8846C277.376 45.3104 266.359 67.1868 271.601 88.4116V88.4116C276.842 109.636 265.825 131.513 245.651 139.939V139.939C225.478 148.364 214.461 170.241 219.702 191.465V191.465C224.944 212.69 213.926 234.567 193.753 242.992V242.992C173.58 251.418 162.563 273.295 167.804 294.519V294.519C173.045 315.744 162.028 337.621 141.855 346.046V346.046C121.681 354.472 110.664 376.349 115.905 397.573V397.573C121.147 418.798 110.13 440.675 89.9562 449.1V449.1C69.7828 457.526 58.7657 479.403 64.007 500.627V500.627C69.2483 521.852 58.2313 543.729 38.0578 552.154L3.00023 566.797" stroke="#D7EBE1" stroke-opacity="0.12" stroke-width="11.9505" stroke-miterlimit="10"/>
</svg>
