<svg width="336" height="274" viewBox="0 0 336 274" fill="none" xmlns="http://www.w3.org/2000/svg">
<ellipse cx="170.813" cy="145.13" rx="165.188" ry="128.611" fill="#FBF9F3"/>
<path d="M65.2644 40.7359C65.2644 40.7359 65.5244 33.9756 64.051 31.7221C62.5776 29.4687 61.6242 28.1686 59.7174 23.6617C57.464 18.548 60.3241 10.0542 64.4844 11.6143C68.0379 12.9144 65.6111 19.0681 67.5179 22.1882C69.338 25.1351 70.3781 26.1751 71.6781 29.8153C73.0649 33.4555 72.5448 40.996 72.5448 40.996C72.5448 40.996 73.0648 35.8823 72.7181 29.4686C72.3715 23.835 67.6045 11.0076 72.2848 7.88745C76.965 4.68061 79.4786 12.6544 79.7386 17.0746C79.9986 21.5815 80.692 25.5684 80.692 25.5684C80.692 25.5684 83.6388 22.1016 85.1122 18.028C86.499 14.0411 88.4924 11.701 91.5259 13.6944C94.4727 15.6879 94.5594 24.2684 86.239 32.0688C81.2987 36.7491 84.0722 41.8627 84.0722 41.8627L65.2644 40.7359Z" fill="#54896E"/>
<path d="M68.4733 40.1299C68.3 40.1299 68.2133 39.9565 68.2133 39.8698C68.2999 39.7832 69.1666 33.8895 68.2999 31.116C67.7799 29.3826 66.9998 28.2559 66.1331 27.1291C65.3531 25.9157 64.4864 24.789 63.793 22.8822C62.753 20.1087 62.8397 15.2551 62.8397 14.9951C62.8397 14.9084 62.9263 14.8218 63.0996 14.8218C63.1863 14.8218 63.273 14.9084 63.273 14.9951C63.273 15.0818 63.273 20.0221 64.2264 22.7089C64.9198 24.529 65.7864 25.6557 66.5665 26.7824C67.4332 27.9958 68.2132 29.1226 68.8199 31.0293C69.6866 33.8028 68.8199 39.6965 68.7333 39.8698C68.7333 40.0432 68.6467 40.1299 68.4733 40.1299Z" fill="#211513"/>
<path d="M75.0598 36.9221C74.8865 36.9221 74.7997 36.7488 74.8864 36.6621C74.8864 36.5754 76.2732 29.4684 75.5798 22.0146C74.8864 14.4742 74.1931 11.0073 74.1064 11.0073C74.1064 10.834 74.1931 10.7473 74.3664 10.6606C74.4531 10.6606 74.6265 10.7473 74.6265 10.9207C74.6265 10.9207 75.3198 14.3875 76.0132 21.9279C76.7065 29.4684 75.3198 36.6621 75.3198 36.7488C75.3198 36.8354 75.2332 36.9221 75.0598 36.9221Z" fill="#211513"/>
<path d="M79.7386 37.269C79.6519 37.269 79.4785 37.0956 79.4785 37.009C79.5652 36.9223 79.6518 34.9289 80.4319 32.3287C80.9519 30.5953 82.0786 29.0352 83.4654 27.2151C84.0721 26.435 84.7655 25.5683 85.3722 24.5283C87.4523 21.4948 88.6657 17.2479 88.7523 17.2479C88.7523 17.0745 88.9257 16.9879 89.0124 17.0745C89.1857 17.0745 89.2724 17.2479 89.1857 17.3345C89.1857 17.4212 87.8857 21.7548 85.8056 24.875C85.1122 25.8284 84.5055 26.6951 83.8121 27.5618C82.512 29.2952 81.3853 30.7686 80.8652 32.5021C80.1719 35.0155 79.9985 37.009 79.9985 37.009C79.9985 37.1823 79.9119 37.269 79.7386 37.269Z" fill="#211513"/>
<path d="M80.6913 25.5684C80.6913 25.5684 79.1313 27.9085 78.4379 30.8553C77.6578 33.8022 77.7445 41.1692 77.7445 41.1692C77.7445 41.1692 76.7044 33.1088 77.7445 29.8153C78.7845 26.4351 80.6913 25.5684 80.6913 25.5684Z" fill="#211513"/>
<path d="M91.3529 38.396C91.3529 38.4827 86.066 60.5839 86.066 60.5839C85.6326 62.144 80.0857 63.3574 73.2387 63.2707C71.4475 63.2707 69.8874 63.2129 68.5584 63.0974C63.8781 62.664 61.798 61.7973 60.9313 61.1906C60.5846 60.9306 60.3245 60.4972 60.1512 60.0639C59.8045 58.4171 58.4179 52.8701 57.2045 47.8432C55.9911 42.9029 54.8643 38.4827 54.8643 38.396C54.8643 36.7492 63.5314 38.8293 73.5853 38.8293C83.6392 38.8293 91.3529 36.7492 91.3529 38.396Z" fill="#9E5A5F"/>
<path d="M80.2597 62.1436L68.559 63.097C63.8788 62.6636 61.7986 61.7969 60.9319 61.1902C60.5852 60.9302 60.3252 60.4968 60.1518 60.0635C59.8051 58.4167 58.4185 52.8697 57.2051 47.8428C58.6785 51.1363 61.1053 55.6432 64.6588 57.7233C70.7258 61.3635 80.2597 62.1436 80.2597 62.1436Z" fill="#211513"/>
<path d="M56.5945 100.019L53.9077 122.727C53.821 123.767 52.0876 124.72 49.5741 125.24C48.1873 125.5 46.6272 125.674 44.8938 125.674C39.9535 125.674 36.0533 124.287 35.8799 122.64C35.8799 122.64 34.1466 111.546 33.1065 104.873C32.6731 102.013 32.4131 100.019 32.4131 100.019C32.4131 98.3723 37.8734 98.1123 44.5471 98.1123C51.2208 98.1123 56.5945 98.3723 56.5945 100.019Z" fill="#E5704E"/>
<path fill-rule="evenodd" clip-rule="evenodd" d="M33.1928 117.527C31.9794 117.527 30.8526 117.007 29.8126 116.14C28.6858 115.187 27.9058 113.713 27.6458 112.066C27.0391 108.6 28.9459 105.393 31.8927 104.959C34.8395 104.439 37.6997 106.866 38.2198 110.246C38.4798 111.893 38.2197 113.54 37.5263 114.84C36.6596 116.227 35.4463 117.18 33.9728 117.44C33.7417 117.498 33.4817 117.527 33.1928 117.527ZM32.6728 107.126C32.5572 107.126 32.4127 107.155 32.2394 107.213C30.5926 107.473 29.466 109.466 29.8993 111.72C30.0727 112.847 30.5926 113.8 31.3727 114.493C32.0661 115.1 32.8461 115.36 33.6261 115.187C34.4062 115.013 35.0996 114.58 35.533 113.713C36.053 112.847 36.2263 111.806 35.9663 110.68C35.7063 108.6 34.2329 107.126 32.6728 107.126Z" fill="#E5704E"/>
<path d="M43.7698 101.233C34.6693 101.233 32.9358 100.366 32.8491 100.366C32.7624 100.279 32.6758 100.193 32.7625 100.019C32.8491 99.9326 33.0225 99.8459 33.1092 99.9326C33.1958 99.9326 35.0159 100.799 44.9831 100.713C53.7369 100.626 55.6438 99.846 55.6438 99.846C55.7304 99.7593 55.9038 99.8459 55.9905 99.9326C55.9905 100.106 55.9904 100.193 55.8171 100.279C55.8171 100.366 53.997 101.146 44.9831 101.233C44.5787 101.233 44.1743 101.233 43.7698 101.233Z" fill="#211513"/>
<path d="M33.5422 107.559C33.3689 107.559 33.2821 107.386 33.2821 107.299L32.9355 104.959C32.9355 104.786 33.0222 104.699 33.1088 104.699C33.2822 104.612 33.3689 104.699 33.4556 104.872L33.7155 107.213C33.8022 107.386 33.7155 107.473 33.5422 107.473C33.5422 107.53 33.5422 107.559 33.5422 107.559Z" fill="#211513"/>
<path d="M34.9279 117.354C34.8413 117.354 34.668 117.267 34.668 117.181L34.3213 114.84C34.3213 114.667 34.4079 114.58 34.5812 114.58C34.6679 114.494 34.8413 114.58 34.8413 114.754L35.188 117.094C35.188 117.267 35.1013 117.354 34.9279 117.354Z" fill="#211513"/>
<path d="M49.576 125.241C48.1892 125.501 46.6291 125.674 44.8957 125.674C39.9554 125.674 36.0552 124.287 35.8818 122.641C35.8818 122.641 34.1485 111.547 33.1084 104.873C34.1485 108.08 36.3152 114.494 39.2621 118.134C41.9489 121.514 46.6292 123.941 49.576 125.241Z" fill="#211513"/>
<path d="M17.0992 129.991H330.384C332.172 129.991 333.62 128.705 333.62 127.117V126.89C333.62 125.377 332.172 124.091 330.384 124.091H17.0992C15.311 124.091 13.8633 125.377 13.8633 126.89V127.117C13.8633 128.705 15.311 129.991 17.0992 129.991Z" fill="#EFB99A"/>
<path d="M17.0992 67.4557H330.384C332.172 67.4557 333.62 66.1699 333.62 64.5816V64.3547C333.62 62.842 332.172 61.5562 330.384 61.5562H17.0992C15.311 61.5562 13.8633 62.842 13.8633 64.3547V64.5816C13.8633 66.1699 15.311 67.4557 17.0992 67.4557Z" fill="#EFB99A"/>
<path d="M241.468 219.105H250.655C250.655 219.105 257.155 226.646 237.394 229.593C217.72 232.54 204.806 228.726 204.806 228.726L215.206 219.192L241.468 219.105Z" fill="#211513"/>
<path d="M330.972 219.54H0.241058C0.160685 219.54 0 219.366 0 219.28C0 219.106 0.160685 219.02 0.241058 219.02H330.972C331.053 219.02 331.214 219.106 331.214 219.28C331.214 219.366 331.053 219.54 330.972 219.54Z" fill="#211513"/>
<path d="M330.972 192.671H0.241058C0.160685 192.671 0 192.585 0 192.411C0 192.325 0.160685 192.151 0.241058 192.151H330.972C331.053 192.151 331.214 192.325 331.214 192.411C331.214 192.585 331.053 192.671 330.972 192.671Z" fill="#211513"/>
<path d="M330.972 168.23H0.241058C0.160685 168.23 0 168.143 0 168.056C0 167.883 0.160685 167.796 0.241058 167.796H330.972C331.053 167.796 331.214 167.883 331.214 168.056C331.214 168.143 331.053 168.23 330.972 168.23Z" fill="#211513"/>
<path d="M28.6868 219.54C28.5135 219.54 28.4268 219.366 28.4268 219.28V168.057C28.4268 167.884 28.5135 167.797 28.6868 167.797C28.7735 167.797 28.9468 167.884 28.9468 168.057V219.28C28.9468 219.366 28.7735 219.54 28.6868 219.54Z" fill="#211513"/>
<path d="M58.7648 219.539C58.5915 219.539 58.5049 219.366 58.5049 219.279V168.056C58.5049 167.883 58.5915 167.796 58.7648 167.796C58.9382 167.796 59.0249 167.883 59.0249 168.056V219.279C59.0249 219.366 58.9382 219.539 58.7648 219.539Z" fill="#211513"/>
<path d="M273.796 219.54C273.71 219.54 273.623 219.366 273.623 219.28V168.057C273.623 167.884 273.71 167.797 273.796 167.797C273.97 167.797 274.056 167.884 274.056 168.057V219.28C274.056 219.366 273.97 219.54 273.796 219.54Z" fill="#211513"/>
<path d="M303.092 219.539C303.005 219.539 302.832 219.366 302.832 219.279V168.056C302.832 167.883 303.005 167.796 303.092 167.796C303.265 167.796 303.352 167.883 303.352 168.056V219.279C303.352 219.366 303.265 219.539 303.092 219.539Z" fill="#211513"/>
<path d="M130.093 108.166L113.106 130.701L83.1172 161.123L82.8573 154.969L82.2505 142.315L79.9971 92.3922C79.9971 92.3344 79.9971 92.2767 79.9971 92.2189C79.9971 89.6187 81.9906 87.5386 84.5907 87.4519C87.1908 87.3653 89.3576 89.3587 89.4443 91.9589L90.2243 108.166H130.093Z" fill="#4A271A"/>
<path d="M91.7849 147.342C91.6983 147.342 91.525 147.255 91.525 147.082L89.9648 108.166C89.9648 108.08 90.0516 107.993 90.2249 107.906C90.3982 107.906 90.4849 108.08 90.4849 108.166L92.045 147.082C92.045 147.168 91.9583 147.342 91.7849 147.342Z" fill="#211513"/>
<path d="M102.531 136.941C102.357 136.941 102.271 136.855 102.271 136.681L100.624 108.6C100.624 108.513 100.711 108.34 100.884 108.34C100.971 108.34 101.144 108.427 101.144 108.6L102.704 136.681C102.791 136.768 102.617 136.941 102.531 136.941Z" fill="#211513"/>
<path d="M114.317 129.227C114.144 129.227 114.057 129.141 114.057 129.054L112.584 108.86C112.584 108.686 112.671 108.6 112.757 108.6C112.931 108.6 113.017 108.686 113.104 108.773L114.577 128.967C114.577 129.141 114.491 129.227 114.317 129.227Z" fill="#211513"/>
<path d="M167.276 94.6455C167.276 94.6455 155.055 95.1655 137.201 102.533C130.874 105.133 126.54 107.906 121.426 113.02C118.48 115.967 116.313 124.547 116.313 124.547C116.313 124.547 57.1161 173.257 53.9093 207.838C51.7425 231.413 61.363 245.107 67.6901 251.348C69.9435 253.601 73.6704 252.648 74.5371 249.614C76.7906 241.64 81.0375 228.206 85.3711 222.833C91.6981 215.032 109.639 205.932 109.639 205.932L118.48 207.752L159.909 201.338L158.868 136.508L167.276 94.6455Z" fill="#54896E"/>
<path d="M70.2903 171.61C70.2037 171.61 70.1169 171.61 70.0303 171.436C70.0303 171.35 70.117 171.176 70.2037 171.176L148.381 150.289C148.468 150.289 148.641 150.375 148.641 150.462C148.728 150.635 148.641 150.809 148.468 150.809L70.377 171.61C70.377 171.61 70.3481 171.61 70.2903 171.61Z" fill="#FFF3EB"/>
<path d="M55.383 209.919C55.2963 209.919 55.2097 209.832 55.123 209.746C55.123 209.659 55.2097 209.486 55.2963 209.399L155.835 180.884C155.922 180.797 156.095 180.884 156.095 181.057C156.182 181.144 156.095 181.317 155.922 181.317L55.4698 209.919C55.412 209.919 55.383 209.919 55.383 209.919Z" fill="#FFF3EB"/>
<path d="M60.8431 239.647C60.7564 239.647 60.6698 239.56 60.6698 239.474C60.5831 239.3 60.6697 239.214 60.8431 239.127L75.5772 234.793C75.7506 234.707 75.8372 234.793 75.9239 234.967C75.9239 235.053 75.8372 235.227 75.7505 235.227L60.9297 239.647C60.9297 239.647 60.9008 239.647 60.8431 239.647Z" fill="#FFF3EB"/>
<path d="M138.588 192.932C138.415 192.932 138.328 192.845 138.328 192.672L130.614 129.228C130.528 129.055 130.701 128.968 130.788 128.881C130.961 128.881 131.048 128.968 131.048 129.141L138.848 192.585C138.848 192.758 138.762 192.845 138.588 192.932Z" fill="#FFF3EB"/>
<path d="M111.026 205.412C110.853 205.412 110.766 205.325 110.766 205.239L103.312 136.855C103.312 136.768 103.399 136.595 103.573 136.595C103.659 136.595 103.833 136.681 103.833 136.855L111.2 205.152C111.286 205.325 111.113 205.412 111.026 205.412Z" fill="#FFF3EB"/>
<path d="M83.8116 220.233C83.7249 220.233 83.5515 220.146 83.5515 219.973L77.8312 163.376C77.7446 163.203 77.918 163.116 78.0046 163.116C78.178 163.116 78.2646 163.203 78.2646 163.29L84.0716 219.973C84.0716 220.059 83.9849 220.233 83.8116 220.233Z" fill="#FFF3EB"/>
<path d="M60.41 238.607C60.3233 238.607 60.2367 238.52 60.2367 238.434L55.7297 207.145C55.643 207.059 55.8164 206.885 55.9031 206.885C56.0764 206.885 56.163 206.972 56.163 207.145L60.67 238.347C60.7567 238.52 60.5833 238.607 60.4966 238.607C60.4966 238.607 60.4677 238.607 60.41 238.607Z" fill="#FFF3EB"/>
<path d="M183.396 96.1191C183.396 96.1191 185.909 96.3792 192.063 98.9793C198.217 101.493 206.277 106.78 206.277 106.78V114.147L177.242 103.14L183.396 96.1191Z" fill="#54896E"/>
<path d="M109.899 202.205C109.842 202.205 109.813 202.205 109.813 202.205C109.639 202.118 109.553 202.032 109.639 201.858C109.639 201.598 115.706 172.563 116.66 157.656C117.7 139.195 112.76 128.361 112.76 128.188C112.673 128.101 112.76 127.928 112.846 127.928C112.933 127.841 113.106 127.841 113.193 128.014C113.193 128.101 118.22 139.108 117.093 157.656C116.226 172.65 110.16 201.685 110.073 202.032C110.073 202.118 109.986 202.205 109.899 202.205Z" fill="#211513"/>
<path d="M206.799 141.275L205.412 192.671L157.569 194.231C157.569 194.231 157.569 193.538 157.483 192.325C157.223 186.778 156.269 170.137 154.882 163.116C151.416 145.522 141.882 136.075 140.062 126.454C139.946 125.992 139.859 125.53 139.802 125.068C139.455 121.687 140.322 117.094 141.275 113.714C141.968 110.853 144.048 108.513 146.822 107.387L160.689 101.753L188.164 104.44L205.152 113.107L206.799 141.275Z" fill="#FFF3EB"/>
<path d="M161.817 193.711L157.483 192.324C157.223 186.777 156.27 170.137 154.883 163.116C151.416 145.522 141.883 136.075 140.062 126.454C144.829 133.128 156.617 153.409 159.564 165.11C163.117 179.064 161.817 193.711 161.817 193.711Z" fill="#211513"/>
<path d="M167.968 86.6724C167.968 86.6724 168.141 93.4327 166.581 96.4662C165.021 99.4997 160.688 101.753 160.688 101.753C160.688 101.753 164.588 120.648 174.208 119.348C183.916 118.134 188.162 104.44 188.162 104.44C188.162 104.44 184.176 101.493 183.916 98.8064C183.569 96.2062 184.002 93.9528 184.002 93.9528L167.968 86.6724Z" fill="#F8A98A"/>
<path d="M193.279 73.9314C193.279 73.9314 187.298 96.8126 175.771 94.2992C164.33 91.699 169.704 65.7842 169.704 65.7842C169.704 65.7842 173.344 58.9372 183.312 60.4973C193.452 62.0574 193.279 73.9314 193.279 73.9314Z" fill="#F8A98A"/>
<path d="M169.271 72.1977C169.271 72.1977 167.538 70.7243 166.411 72.9778C165.111 75.5779 168.664 81.1249 168.664 81.1249L169.271 72.1977Z" fill="#F8A98A"/>
<path d="M191.719 77.7444C191.719 77.7444 193.973 77.311 193.799 79.9112C193.626 82.7713 187.732 85.7181 187.732 85.7181L191.719 77.7444Z" fill="#F8A98A"/>
<path d="M177.677 89.3584C177.561 89.3584 177.475 89.3584 177.417 89.3584C175.337 89.1851 174.643 87.5383 174.557 87.5383C174.557 87.365 174.557 87.1917 174.73 87.1917C174.817 87.105 174.99 87.1917 175.077 87.2783C175.077 87.365 175.683 88.7517 177.417 88.8384C179.064 89.0118 180.19 87.365 180.19 87.2783C180.277 87.1917 180.45 87.1917 180.537 87.2783C180.624 87.2783 180.71 87.4517 180.624 87.625C180.537 87.625 179.41 89.3584 177.677 89.3584Z" fill="#A3382A"/>
<path d="M179.584 86.0652C179.584 86.0652 178.457 86.5852 177.677 86.4119C176.897 86.1519 176.464 85.4585 176.464 85.4585L174.99 85.7185C174.99 85.7185 175.337 87.1919 177.33 87.6253C179.151 88.0586 180.537 87.1919 180.537 87.1919L179.584 86.0652Z" fill="#A3382A"/>
<path fill-rule="evenodd" clip-rule="evenodd" d="M198.739 64.1373C198.566 65.9574 197.699 67.6908 196.919 69.1642C196.746 69.4242 196.659 69.7709 196.832 70.0309C196.948 70.262 197.006 70.5509 197.006 70.8976C196.919 72.4577 195.099 73.4978 194.146 73.8445C194.839 74.1911 195.792 74.8845 195.706 76.0979C195.619 77.7447 192.932 77.8313 192.325 77.8313C192.268 77.9469 192.239 78.0625 192.239 78.178C191.632 79.6515 188.685 86.3252 188.512 87.1052C188.079 88.4919 186.952 90.052 186.432 93.3456C185.998 96.7257 182.358 96.9858 180.365 98.4592C178.371 100.019 175.165 100.106 173.864 98.5458C173.084 97.5058 169.964 97.2458 168.837 95.859C167.797 94.4723 168.144 91.2654 167.191 89.272C166.411 87.7119 168.317 76.0112 168.577 74.2778C168.664 73.8445 168.577 72.9777 168.577 71.9377C167.884 71.331 165.804 69.1642 165.717 67.2574C165.631 65.6973 166.844 64.6573 167.711 64.0506C167.104 63.3572 166.151 61.9705 166.671 60.4971C167.104 59.457 167.711 59.1103 168.231 58.937C168.664 58.8503 169.011 58.5903 169.097 58.2436C170.051 55.3834 171.958 52.6099 175.251 51.8299C178.978 50.9632 181.752 51.6566 182.965 52.1766C183.312 52.2633 183.658 52.1766 183.918 51.8299C184.265 51.3099 184.958 50.6165 186.085 50.7898C186.865 50.9632 187.385 51.7432 187.732 52.6099C187.819 52.87 188.165 52.9566 188.425 52.7833C189.032 52.4366 189.812 52.1766 190.592 52.5233C191.372 52.9566 191.459 53.7367 191.372 54.43C191.285 54.8634 191.545 55.2968 191.979 55.3834C192.441 55.499 192.932 55.6434 193.452 55.8168C196.052 56.7702 199.086 60.497 198.739 64.1373ZM185.478 88.2319C184.612 88.4919 183.745 88.8386 182.705 88.6653C180.365 88.2319 179.065 87.1919 178.458 86.4118C178.111 85.9785 177.591 85.8051 177.071 85.9785C176.205 86.3252 174.644 86.5852 172.391 86.1518C171.438 85.8918 170.744 85.5451 170.138 85.0251C170.051 84.9384 169.964 85.0251 169.964 85.1118C171.178 87.1919 173.431 90.052 177.418 90.3987C180.885 90.6587 183.745 89.532 185.478 88.2319ZM192.759 70.9843C192.759 70.5509 192.412 70.1176 191.979 70.0309C190.852 69.9442 188.772 69.5976 186.432 68.2108C184.785 67.2574 183.918 65.6107 183.572 64.2239C183.312 63.3572 182.272 63.0972 181.578 63.6172C181.463 63.7328 181.318 63.8483 181.145 63.9639C179.758 64.744 177.331 65.004 175.424 63.8772C173.518 62.7505 170.744 66.564 170.138 69.6842C169.704 71.851 169.011 76.3579 168.577 79.0448C168.491 79.9115 168.664 80.9515 169.271 81.6449C169.791 82.1649 170.398 82.5983 171.264 82.6849C173.604 82.945 175.511 81.8182 176.898 81.7316C177.245 81.7316 177.678 81.9049 177.938 82.1649C178.371 82.5116 178.978 82.7716 179.585 82.6849C179.816 82.6849 180.105 82.7138 180.451 82.7716C181.491 82.945 181.665 84.8517 184.005 85.8051C184.872 86.0651 185.738 86.0652 186.432 85.9785C187.559 85.8051 188.425 85.1118 188.859 84.1584C189.899 81.7316 191.719 77.398 192.152 75.4912C192.585 73.8445 192.672 72.0244 192.759 70.9843Z" fill="#918D8D"/>
<path d="M176.205 69.6839C178.111 70.464 179.412 73.3241 178.458 72.7174C177.418 72.0241 176.551 71.3307 174.905 70.8974C173.258 70.464 171.524 70.5507 171.524 70.2907C171.611 70.1173 173.431 68.4705 176.205 69.6839Z" fill="#211513"/>
<path d="M179.844 83.2048C178.891 83.2048 177.764 82.5115 177.591 82.4248C177.418 82.3381 177.418 82.1648 177.504 82.0781C177.591 81.9048 177.678 81.9048 177.851 81.9914C178.544 82.4248 179.844 82.9448 180.364 82.5115C180.538 82.4248 180.711 81.2114 180.884 80.1713C181.144 78.0912 181.491 75.5777 182.791 74.3643C185.998 71.4175 190.592 73.5843 190.592 73.671C190.765 73.671 190.765 73.8443 190.678 74.0176C190.678 74.1043 190.505 74.191 190.418 74.1043C190.332 74.1043 186.085 72.0242 183.138 74.7977C182.011 75.8378 181.664 78.3512 181.404 80.258C181.144 81.8181 180.971 82.6848 180.624 82.9448C180.393 83.1182 180.133 83.2048 179.844 83.2048Z" fill="#211513"/>
<path d="M183.312 74.1043C183.312 74.1043 185.132 72.0242 187.472 71.9375C189.812 71.9375 190.679 73.7576 190.679 73.7576L187.645 73.1509L185.305 73.4976L183.312 74.1043Z" fill="#211513"/>
<path d="M173.866 74.1914C173.692 74.8848 173.952 75.5781 174.386 75.6648C174.819 75.8381 175.339 75.3181 175.599 74.6247C175.773 73.8447 175.513 73.1513 175.079 73.0647C174.646 72.8913 174.126 73.4113 173.866 74.1914Z" fill="#211513"/>
<path d="M185.911 76.9648C185.737 77.7448 185.911 78.4382 186.431 78.5249C186.864 78.6982 187.384 78.1782 187.557 77.4848C187.817 76.7047 187.557 76.0114 187.124 75.9247C186.691 75.7514 186.084 76.2714 185.911 76.9648Z" fill="#211513"/>
<path d="M180.97 97.9393C180.97 97.9393 180.941 97.9393 180.883 97.9393C180.797 97.8526 180.71 97.6793 180.797 97.5926C180.797 97.5926 181.057 97.1592 181.143 96.5525C181.143 95.9458 180.97 95.0791 180.97 95.0791C180.97 94.9058 181.057 94.8191 181.143 94.7324C181.317 94.7324 181.403 94.8191 181.49 94.9058C181.49 94.9924 181.663 95.9458 181.577 96.6392C181.577 97.3326 181.23 97.8526 181.23 97.8526C181.172 97.9104 181.086 97.9393 180.97 97.9393Z" fill="#211513"/>
<path d="M174.47 92.6517C174.383 92.6517 174.21 92.565 174.21 92.4783C174.21 92.3917 174.21 91.785 174.47 91.1783C174.73 90.3982 175.25 90.0515 175.25 90.0515C175.423 89.9649 175.51 90.0515 175.597 90.1382C175.683 90.2249 175.683 90.3982 175.51 90.4849C175.51 90.4849 175.077 90.7449 174.903 91.3516C174.73 91.8716 174.73 92.3917 174.73 92.3917C174.73 92.565 174.643 92.6517 174.557 92.6517C174.499 92.6517 174.47 92.6517 174.47 92.6517Z" fill="#211513"/>
<path d="M173.604 98.3728C173.546 98.3728 173.488 98.3151 173.43 98.1995C173.43 98.1995 173.17 97.8528 172.997 97.1594C172.824 96.5527 172.91 95.7727 172.91 95.7727C172.997 95.5994 173.084 95.5127 173.257 95.5127C173.344 95.5994 173.43 95.686 173.43 95.8594C173.43 95.8594 173.344 96.4661 173.517 97.0728C173.604 97.5928 173.864 97.9395 173.864 97.9395C173.95 98.0262 173.864 98.1995 173.777 98.2862C173.719 98.3439 173.661 98.3728 173.604 98.3728Z" fill="#211513"/>
<path d="M186.692 92.566C186.519 92.566 186.432 92.3926 186.432 92.306C186.432 92.306 186.432 91.7859 186.346 91.4392C186.259 91.0926 185.999 90.7459 185.999 90.7459C185.912 90.6592 185.999 90.4859 186.085 90.3992C186.172 90.3125 186.345 90.3992 186.432 90.4859C186.432 90.4859 186.779 90.9192 186.866 91.3526C186.952 91.7859 186.952 92.306 186.952 92.306C186.952 92.3926 186.865 92.566 186.692 92.566Z" fill="#211513"/>
<path d="M173.605 85.6319C173.49 85.6319 173.374 85.6319 173.258 85.6319C170.832 85.5452 169.792 84.2452 169.792 84.1585C169.705 84.0718 169.705 83.8985 169.792 83.8118C169.965 83.7251 170.052 83.7251 170.138 83.8985C170.225 83.8985 171.092 85.0252 173.258 85.1119C175.512 85.1986 176.552 84.3318 176.639 84.3318C176.725 84.2452 176.899 84.2452 176.985 84.3318C177.072 84.4185 176.985 84.5919 176.899 84.6785C176.899 84.7652 175.772 85.6319 173.605 85.6319Z" fill="#211513"/>
<path d="M183.83 88.0584C183.05 88.0584 182.27 87.9718 181.577 87.7118C180.016 87.1917 179.063 85.1983 178.976 85.1116C178.89 84.9383 178.976 84.8516 179.15 84.7649C179.236 84.6782 179.41 84.7649 179.41 84.8516C179.41 84.9383 180.363 86.7584 181.75 87.2784C183.223 87.7984 185.65 87.365 185.65 87.365C185.823 87.365 185.997 87.4517 185.997 87.6251C185.997 87.7118 185.91 87.8851 185.737 87.8851C185.737 87.8851 184.87 88.0584 183.83 88.0584Z" fill="#211513"/>
<path d="M167.711 64.3972C167.595 64.3972 167.509 64.3683 167.451 64.3106C167.364 64.2239 167.451 64.0506 167.538 63.9639C167.538 63.9639 167.971 63.7039 168.924 63.3572C169.878 63.0972 170.224 63.0972 170.224 63.0972C170.398 63.0972 170.484 63.2705 170.484 63.3572C170.484 63.5305 170.311 63.6172 170.224 63.6172C170.224 63.6172 169.878 63.6172 169.011 63.8772C168.144 64.1372 167.798 64.3972 167.798 64.3972C167.798 64.3972 167.769 64.3972 167.711 64.3972Z" fill="#211513"/>
<path d="M174.732 63.7042C174.674 63.7042 174.616 63.6753 174.559 63.6175C174.472 63.6175 173.952 63.0108 173.519 61.7974C172.999 60.4107 173.432 59.5439 173.432 59.5439C173.519 59.3706 173.605 59.3706 173.779 59.3706C173.865 59.4573 173.952 59.6306 173.865 59.7173C173.865 59.7173 173.605 60.4973 173.952 61.6241C174.385 62.7508 174.905 63.2708 174.905 63.2708C174.992 63.3575 174.992 63.5308 174.905 63.6175C174.848 63.6753 174.79 63.7042 174.732 63.7042Z" fill="#211513"/>
<path d="M185.045 56.5099C185.045 56.5099 185.016 56.5099 184.959 56.5099C184.872 56.5099 184.785 56.4232 184.785 56.2499C184.785 56.2499 184.872 55.6432 184.699 54.6898C184.612 53.8231 183.572 52.8697 183.572 52.8697C183.485 52.783 183.485 52.6097 183.572 52.523C183.659 52.4363 183.832 52.4363 183.919 52.523C184.005 52.523 185.045 53.5631 185.219 54.6031C185.305 55.6432 185.305 56.3366 185.305 56.3366C185.219 56.4232 185.132 56.5099 185.045 56.5099Z" fill="#211513"/>
<path d="M192.501 70.5509C192.415 70.5509 192.241 70.3775 192.241 70.2909C192.241 70.1175 192.328 70.0308 192.501 70.0308C192.501 70.0308 193.455 69.9442 194.235 68.9908C195.101 68.0374 194.928 66.1306 194.928 66.1306C194.928 65.9573 195.015 65.8706 195.101 65.8706C195.275 65.8706 195.361 65.9573 195.448 66.0439C195.448 66.1306 195.621 68.2107 194.668 69.3375C193.628 70.4642 192.588 70.5509 192.501 70.5509Z" fill="#211513"/>
<path d="M183.138 63.7035C183.022 63.7035 182.964 63.6746 182.964 63.6168C182.878 63.5301 182.444 62.4901 182.531 61.3633C182.704 60.2366 183.571 59.6299 183.658 59.5432C183.744 59.4566 183.918 59.5432 184.004 59.6299C184.091 59.7166 184.004 59.8899 183.918 59.9766C183.918 59.9766 183.138 60.4966 183.051 61.45C182.964 62.4034 183.398 63.3568 183.398 63.3568C183.484 63.5301 183.398 63.6168 183.224 63.7035C183.224 63.7035 183.195 63.7035 183.138 63.7035Z" fill="#211513"/>
<path d="M187.644 56.8568C187.587 56.8568 187.529 56.799 187.471 56.6835C187.384 56.5968 187.384 56.4234 187.558 56.3368C187.558 56.3368 187.991 56.0768 188.164 55.21C188.251 54.2567 187.818 53.5633 187.818 53.5633C187.731 53.4766 187.731 53.3033 187.904 53.2166C187.991 53.1299 188.164 53.1299 188.251 53.3033C188.251 53.3033 188.771 54.0833 188.684 55.21C188.511 56.4234 187.818 56.7701 187.818 56.7701C187.76 56.8279 187.702 56.8568 187.644 56.8568Z" fill="#211513"/>
<path d="M192.587 74.451C192.501 74.451 192.414 74.3643 192.327 74.2776C192.327 74.1043 192.414 74.0176 192.501 73.9309L193.974 73.5842C194.061 73.4976 194.234 73.5842 194.234 73.6709C194.321 73.8443 194.234 74.0176 194.061 74.0176L192.674 74.451C192.616 74.451 192.587 74.451 192.587 74.451Z" fill="#211513"/>
<path d="M172.478 83.8116C171.871 83.8116 171.264 83.6383 171.264 83.6383C171.178 83.6383 171.091 83.4649 171.091 83.3783C171.177 83.2049 171.264 83.1182 171.438 83.2049C171.438 83.2049 171.958 83.2916 172.478 83.2916C173.084 83.2916 173.864 83.0316 173.864 83.0316C174.038 82.9449 174.211 83.0316 174.211 83.2049C174.298 83.2916 174.211 83.4649 174.038 83.4649C174.038 83.4649 173.171 83.8116 172.478 83.8116Z" fill="#211513"/>
<path d="M184.006 86.7586C183.948 86.7586 183.919 86.7586 183.919 86.7586C183.919 86.7586 183.486 86.6719 182.792 86.4119C182.099 86.1519 181.666 85.3718 181.579 85.3718C181.579 85.2852 181.579 85.1118 181.666 85.0252C181.839 84.9385 181.926 85.0252 182.012 85.1118C182.012 85.1118 182.446 85.7185 182.966 85.9785C183.573 86.2386 184.006 86.2386 184.006 86.2386C184.093 86.2386 184.266 86.3252 184.179 86.4986C184.179 86.5852 184.093 86.7586 184.006 86.7586Z" fill="#211513"/>
<path d="M168.664 75.4914C168.49 75.4914 168.404 75.318 168.404 75.2313C168.404 75.2313 168.577 73.6712 168.577 73.0645C168.577 72.5445 168.23 72.0245 168.23 72.0245C168.144 71.8511 168.23 71.7645 168.317 71.6778C168.404 71.5911 168.577 71.5911 168.664 71.6778C168.664 71.7645 169.097 72.3712 169.097 73.0645C169.097 73.6712 168.924 75.2313 168.924 75.2313C168.924 75.4047 168.837 75.4914 168.664 75.4914Z" fill="#211513"/>
<path d="M167.884 92.2188C167.711 92.2188 167.624 92.0455 167.711 91.9588C167.711 91.8721 168.057 90.7454 169.011 90.1387C169.964 89.6187 170.571 89.6187 170.658 89.6187C170.744 89.6187 170.918 89.7053 170.918 89.792C170.918 89.9653 170.744 90.052 170.658 90.052C170.658 90.052 170.138 90.1387 169.271 90.572C168.491 91.0921 168.144 92.0455 168.144 92.0455C168.144 92.2188 168.057 92.2188 167.884 92.2188Z" fill="#211513"/>
<path d="M190.938 80.0853C190.88 80.0853 190.851 80.0853 190.851 80.0853C190.678 80.0853 190.591 79.9119 190.678 79.8253C190.678 79.7386 191.024 78.8719 191.284 78.3518C191.631 77.7451 192.411 77.3984 192.498 77.3984C192.584 77.3984 192.758 77.3984 192.758 77.5718C192.844 77.6585 192.758 77.8318 192.671 77.9185C192.411 78.0051 191.891 78.2652 191.718 78.6119C191.458 79.0452 191.111 79.9119 191.111 79.9119C191.111 80.0853 191.024 80.0853 190.938 80.0853Z" fill="#211513"/>
<path d="M242.334 153.583C242.334 153.583 241.641 154.016 240.341 154.536C237.481 155.836 231.674 157.916 223.006 158.87C210.179 160.343 204.112 158.176 204.112 158.176C204.112 158.176 204.199 155.836 204.199 152.109C204.545 139.195 205.065 110.16 204.112 106.867C202.812 102.62 201.165 102.88 199.432 99.4997C197.785 96.1195 197.958 90.1392 195.618 90.0525C193.365 89.9659 197.005 98.373 193.885 99.0664C190.678 99.6731 186.691 87.6257 189.985 82.3388C193.191 77.0518 200.732 74.5383 206.799 77.5718C212.779 80.6053 226.647 109.814 232.8 126.801C238.087 141.535 241.381 150.809 242.161 153.063C242.276 153.294 242.334 153.467 242.334 153.583Z" fill="#F8A98A"/>
<path d="M244.414 153.063C243.201 152.976 241.988 153.236 240.948 153.843C238.607 154.969 233.06 157.223 223.267 158.176C209.833 159.39 204.979 156.269 203.072 157.656C199.952 159.823 200.212 164.503 201.512 166.757C202.292 168.143 202.465 169.704 202.205 171.264C201.945 172.564 201.859 174.037 202.205 175.511C202.552 176.984 202.899 178.024 203.159 178.631C203.505 179.497 203.708 180.393 203.766 181.318C203.939 189.638 206.366 228.033 234.707 222.66C262.702 217.286 256.288 184.611 254.295 176.897C254.035 175.857 254.035 174.731 254.295 173.69C254.555 172.217 254.902 169.877 254.295 167.623C253.862 166.15 252.995 165.023 252.128 164.243C250.828 163.03 249.961 161.296 249.961 159.476C249.961 158.09 249.701 156.269 248.488 154.623C247.795 153.496 245.975 153.149 244.414 153.063Z" fill="#54896E"/>
<path d="M225.518 221.186C225.431 221.186 225.345 221.099 225.345 221.013L217.284 159.996C217.284 159.823 217.371 159.736 217.457 159.649C217.631 159.649 217.804 159.736 217.804 159.909L225.778 220.926C225.865 221.013 225.691 221.186 225.605 221.186C225.605 221.186 225.576 221.186 225.518 221.186Z" fill="#FFF3EB"/>
<path d="M251.087 209.572C251.001 209.572 250.914 209.485 250.827 209.398L242.16 155.315C242.16 155.142 242.247 155.055 242.42 155.055C242.594 154.969 242.68 155.142 242.68 155.229L251.347 209.312C251.347 209.398 251.261 209.572 251.174 209.572C251.116 209.572 251.087 209.572 251.087 209.572Z" fill="#FFF3EB"/>
<path d="M203.592 172.65C203.505 172.65 203.419 172.564 203.332 172.477C203.332 172.304 203.419 172.217 203.505 172.13L247.621 160.083C247.794 160.083 247.968 160.17 247.968 160.256C247.968 160.43 247.968 160.516 247.794 160.603L203.679 172.65C203.621 172.65 203.592 172.65 203.592 172.65Z" fill="#FFF3EB"/>
<path d="M209.746 201.772C209.66 201.772 209.486 201.685 209.486 201.598C209.399 201.425 209.486 201.338 209.659 201.252L254.642 186.084C254.729 185.998 254.902 186.084 254.902 186.258C254.989 186.344 254.902 186.518 254.815 186.518L209.833 201.772C209.775 201.772 209.746 201.772 209.746 201.772Z" fill="#FFF3EB"/>
<path d="M194.142 245.541C193.622 248.835 188.422 248.401 188.422 248.401C188.422 248.401 188.248 251.781 185.128 252.475C182.095 253.168 179.234 251.088 179.234 251.088C179.234 251.088 179.408 253.861 176.461 254.295C173.514 254.728 165.02 241.381 162.073 241.814C159.127 242.161 133.905 252.995 111.284 254.988C96.1164 256.288 84.2425 254.468 78.0021 253.081C74.7953 252.301 73.1484 251.781 73.1484 251.781C73.1484 251.781 75.4886 231.24 85.1091 220.84C93.0829 211.999 103.397 207.926 107.644 206.539C108.944 206.105 109.637 205.932 109.637 205.932C109.637 205.932 154.36 208.879 172.734 218.413C191.195 227.947 194.749 242.334 194.142 245.541Z" fill="#F8A98A"/>
<path d="M188.422 248.661C188.248 248.661 188.162 248.575 188.162 248.401C188.162 248.401 187.642 244.068 185.735 239.734C183.915 235.401 180.101 231.501 180.101 231.501C180.014 231.327 180.014 231.241 180.101 231.067C180.188 230.981 180.361 230.981 180.448 231.154C180.448 231.154 184.261 235.141 186.168 239.561C188.075 243.981 188.682 248.315 188.682 248.401C188.682 248.488 188.595 248.661 188.422 248.661Z" fill="#211513"/>
<path d="M179.235 251.348C179.148 251.348 179.062 251.261 178.975 251.088C178.975 251.088 178.195 247.014 176.895 243.807C175.508 240.514 173.168 238 173.081 237.914C172.995 237.827 172.995 237.654 173.168 237.567C173.255 237.48 173.428 237.48 173.515 237.567C173.601 237.74 175.942 240.254 177.328 243.634C178.715 246.927 179.495 251.001 179.495 251.001C179.495 251.174 179.408 251.261 179.322 251.348C179.264 251.348 179.235 251.348 179.235 251.348Z" fill="#211513"/>
<path d="M126.106 265.822L208.184 265.302C210.264 265.302 211.911 263.742 212.084 261.749L217.891 194.578C218.064 192.325 216.244 190.418 213.991 190.418H120.039C117.699 190.418 115.966 192.325 116.139 194.665L122.206 262.269C122.379 264.262 124.113 265.822 126.106 265.822Z" fill="#806767"/>
<path d="M156.268 162.336C156.211 162.336 156.153 162.307 156.095 162.249C155.922 161.903 137.027 128.014 128.187 128.014C128.129 128.014 128.071 128.014 128.014 128.014C124.633 128.188 124.2 133.995 123.853 137.895C123.68 140.582 123.507 141.882 122.813 141.968C121.167 141.968 117.613 130.008 116.14 124.894C116.14 124.807 116.226 124.634 116.313 124.547C116.486 124.547 116.573 124.634 116.66 124.721C118.913 132.868 121.86 141.275 122.813 141.448C123.073 141.448 123.247 139.282 123.42 137.808C123.767 133.561 124.2 127.668 128.014 127.494C128.071 127.494 128.129 127.494 128.187 127.494C137.287 127.494 155.749 160.603 156.529 161.989C156.615 162.076 156.529 162.249 156.442 162.336C156.384 162.336 156.326 162.336 156.268 162.336Z" fill="#211513"/>
<path d="M127.494 128.014C127.321 128.014 127.234 127.927 127.234 127.754C127.234 127.754 126.541 121.86 128.014 114.927C129.574 107.819 136.421 103.226 136.421 103.226C136.595 103.139 136.768 103.139 136.768 103.313C136.855 103.399 136.855 103.573 136.768 103.659C136.681 103.659 130.008 108.166 128.534 115.013C127.061 121.947 127.668 127.667 127.668 127.754C127.754 127.841 127.581 128.014 127.494 128.014Z" fill="#211513"/>
<path d="M213.644 169.184C205.67 169.184 202.984 168.143 202.897 168.057C202.724 167.97 202.637 167.797 202.723 167.71C202.81 167.537 202.897 167.537 203.07 167.537C203.157 167.623 208.27 169.704 224.998 168.143C241.899 166.497 249.959 161.816 250.046 161.73C250.22 161.643 250.306 161.73 250.393 161.816C250.479 161.99 250.479 162.076 250.306 162.163C250.219 162.25 242.072 167.017 225.085 168.663C220.404 169.097 216.678 169.184 213.644 169.184Z" fill="#211513"/>
<path d="M216.591 180.97C207.231 180.97 204.544 180.017 204.457 179.93C204.284 179.843 204.197 179.757 204.284 179.583C204.371 179.497 204.457 179.41 204.631 179.497C204.631 179.497 208.878 180.97 225.085 180.19C241.293 179.497 253.253 174.556 253.34 174.556C253.427 174.47 253.6 174.556 253.687 174.643C253.687 174.816 253.687 174.99 253.513 174.99C253.427 175.076 241.379 179.93 225.085 180.71C221.792 180.883 218.931 180.97 216.591 180.97Z" fill="#211513"/>
<path d="M82.6843 224.479C82.6266 224.479 82.5977 224.451 82.5977 224.393C82.4243 224.306 82.4244 224.219 82.511 224.046C82.511 223.959 87.3647 216.939 94.5584 212.172C100.192 208.359 106.259 206.538 108.686 205.932C109.119 205.845 109.553 205.412 109.553 204.892C109.726 203.592 109.813 201.252 108.512 199.778C107.646 198.854 106.259 198.449 104.352 198.565C97.0718 198.911 85.3712 207.319 85.1978 207.405C85.1112 207.492 84.9378 207.492 84.8511 207.405C84.7645 207.232 84.8512 207.059 84.9379 206.972C85.4579 206.625 96.8985 198.478 104.352 198.045C106.375 197.929 107.877 198.391 108.859 199.431C110.333 201.078 110.246 203.592 110.073 204.892C109.986 205.672 109.466 206.278 108.773 206.452C106.432 207.059 100.452 208.792 94.8183 212.605C87.7113 217.286 82.9444 224.306 82.9444 224.393C82.8866 224.451 82.7999 224.479 82.6843 224.479Z" fill="#211513"/>
<path d="M74.8838 205.325C74.826 205.325 74.7683 205.296 74.7105 205.239C74.6238 205.065 74.6238 204.979 74.7105 204.805C74.7972 204.805 83.4643 197.438 92.0448 194.491C100.799 191.545 103.225 198.218 103.225 198.305C103.312 198.392 103.225 198.565 103.139 198.565C102.965 198.652 102.879 198.565 102.792 198.392C102.705 198.218 100.539 192.151 92.2181 195.011C83.7243 197.872 75.1439 205.152 75.0572 205.239C74.9994 205.296 74.9416 205.325 74.8838 205.325Z" fill="#211513"/>
<path d="M107.648 206.539C104.354 208.619 89.0132 218.759 83.9863 230.46C80.0861 239.647 78.5261 248.574 78.006 253.081C74.7992 252.301 73.1523 251.781 73.1523 251.781C73.1523 251.781 74.7124 231.413 86.1531 219.539C94.3869 211.045 103.401 207.925 107.648 206.539Z" fill="#211513"/>
<path d="M173.431 126.281C159.823 126.281 155.403 104.7 155.316 104.44C155.316 104.266 155.403 104.18 155.49 104.18C155.663 104.093 155.75 104.179 155.836 104.353C155.836 104.526 160.17 125.761 173.431 125.761C173.546 125.761 173.633 125.761 173.691 125.761C187.211 125.501 192.759 107.473 192.845 107.3C192.845 107.126 193.018 107.04 193.105 107.126C193.279 107.126 193.365 107.3 193.279 107.386C193.192 107.646 187.558 125.934 173.691 126.281C173.633 126.281 173.546 126.281 173.431 126.281Z" fill="#211513"/>
<path d="M164.155 228.12C164.155 230.893 166.235 233.147 168.836 233.147C171.522 233.147 173.602 230.893 173.602 228.12C173.602 225.346 171.522 223.093 168.836 223.093C166.235 223.093 164.155 225.346 164.155 228.12Z" fill="#211513"/>
<path d="M189.812 93.5188C189.639 93.5188 189.552 93.4321 189.552 93.2588C189.465 93.1721 189.032 89.7052 189.725 86.5851C190.506 83.4649 194.492 81.5581 194.666 81.4714C194.752 81.3848 194.926 81.4715 194.926 81.5581C195.012 81.7315 194.926 81.9048 194.839 81.9048C194.839 81.9048 190.939 83.8116 190.246 86.7584C189.552 89.7052 189.986 93.1721 189.986 93.2588C190.072 93.3454 189.986 93.5188 189.812 93.5188Z" fill="#211513"/>
<path d="M195.186 90.3989C195.07 90.3989 194.983 90.3412 194.926 90.2256C194.839 90.1389 194.926 89.9656 195.012 89.8789C195.099 89.8789 196.399 88.8389 197.439 88.8389C198.566 88.8389 198.999 89.5322 198.999 89.6189C198.999 89.7056 198.999 89.8789 198.826 89.8789C198.739 89.9656 198.566 89.9656 198.479 89.7923C198.479 89.7923 198.306 89.3589 197.439 89.3589C196.746 89.3589 195.619 90.0523 195.272 90.3123C195.272 90.3701 195.243 90.3989 195.186 90.3989Z" fill="#211513"/>
<path d="M64.8304 248.401C64.7437 248.401 64.6571 248.314 64.5704 248.227C64.5704 248.054 63.0103 243.374 65.0904 235.66C67.0839 228.033 70.464 224.133 70.464 224.046C70.5507 223.959 70.7241 223.959 70.8107 224.046C70.8974 224.133 70.9841 224.306 70.8107 224.393C70.8107 224.393 67.5172 228.206 65.5238 235.833C63.5304 243.374 65.0904 248.054 65.0904 248.054C65.0904 248.227 65.0904 248.401 64.917 248.401C64.917 248.401 64.8882 248.401 64.8304 248.401Z" fill="#211513"/>
<path d="M214.511 193.104H120.039C119.866 193.104 119.779 193.018 119.779 192.931C119.779 192.758 119.866 192.671 120.039 192.671H214.511C214.685 192.671 214.771 192.758 214.771 192.931C214.771 193.018 214.685 193.104 214.511 193.104Z" fill="#211513"/>
<path d="M208.185 263.309H126.974C126.801 263.309 126.714 263.222 126.714 263.049C126.714 262.875 126.801 262.789 126.974 262.789H208.185C208.272 262.789 208.445 262.875 208.445 263.049C208.445 263.222 208.272 263.309 208.185 263.309Z" fill="#211513"/>
<path d="M296.986 217.191L293.433 247.439C293.259 248.826 290.919 250.039 287.539 250.733C285.806 251.079 283.639 251.339 281.385 251.339C274.798 251.339 269.685 249.519 269.425 247.266C269.425 247.266 268.471 241.025 267.431 234.265C266.131 226.118 264.831 217.191 264.831 217.191C264.831 215.024 272.025 213.291 280.865 213.291C289.792 213.291 296.986 215.024 296.986 217.191Z" fill="#9E5A5F"/>
<path d="M280.605 220.918C267.951 220.918 265.177 217.971 265.09 217.797C265.004 217.711 265.004 217.537 265.09 217.451C265.177 217.364 265.35 217.364 265.437 217.451C265.437 217.537 268.384 220.484 281.125 220.398C293.519 220.311 296.466 217.537 296.466 217.451C296.639 217.364 296.726 217.364 296.812 217.451C296.986 217.537 296.986 217.711 296.899 217.797C296.726 217.971 293.779 220.831 281.125 220.918C280.951 220.918 280.778 220.918 280.605 220.918Z" fill="#211513"/>
<path fill-rule="evenodd" clip-rule="evenodd" d="M265.869 240.419C264.309 240.419 262.749 239.812 261.449 238.685C259.889 237.299 258.849 235.392 258.502 233.225C257.722 228.632 260.236 224.385 264.136 223.778C268.036 223.085 271.763 226.291 272.543 230.885C272.976 233.052 272.63 235.132 271.59 236.952C270.55 238.772 268.903 239.985 266.909 240.332C266.563 240.39 266.216 240.419 265.869 240.419ZM265.176 226.638C265.003 226.638 264.829 226.667 264.656 226.725C262.402 227.071 260.929 229.758 261.449 232.705C261.709 234.178 262.403 235.479 263.443 236.432C264.309 237.212 265.436 237.559 266.389 237.385C267.429 237.212 268.383 236.519 268.989 235.479C269.596 234.265 269.856 232.792 269.596 231.318C269.163 228.632 267.256 226.638 265.176 226.638Z" fill="#9E5A5F"/>
<path d="M266.217 227.072C266.13 227.072 266.044 226.985 266.044 226.898L265.523 223.778C265.523 223.691 265.61 223.518 265.697 223.518C265.87 223.518 265.957 223.605 265.957 223.691L266.477 226.812C266.564 226.985 266.39 227.072 266.304 227.072C266.304 227.072 266.275 227.072 266.217 227.072Z" fill="#211513"/>
<path d="M268.21 240.159C268.124 240.159 267.95 240.072 267.95 239.985L267.517 236.865C267.43 236.692 267.603 236.605 267.69 236.605C267.863 236.519 267.95 236.605 267.95 236.779L268.47 239.899C268.47 239.985 268.384 240.159 268.21 240.159Z" fill="#211513"/>
<path d="M287.537 250.733C285.804 251.079 283.637 251.339 281.384 251.339C274.797 251.339 269.683 249.519 269.423 247.266C269.423 247.266 268.47 241.026 267.43 234.265V233.398C267.43 233.398 269.076 239.205 273.41 243.886C276.444 247.266 281.384 249.866 287.537 250.733Z" fill="#211513"/>
<path d="M240.601 46.9767C240.601 53.737 238.088 59.4574 231.154 61.1908C230.114 61.4508 226.127 61.4508 223.181 61.4508C221.88 61.4508 220.84 61.4508 220.407 61.4508C211.22 61.4508 207.406 55.1238 207.406 46.9767C207.406 43.6831 208.62 40.6496 210.7 38.1362C210.815 38.0206 210.902 37.905 210.96 37.7895C211.538 37.2117 212.058 36.5761 212.52 35.8827C215.38 31.9825 217.027 27.3022 217.027 22.4486V17.2483C217.027 15.8616 218.154 14.7349 219.54 14.7349H228.641C230.028 14.7349 231.154 15.8616 231.154 17.2483V22.7086C231.154 28.3423 233.408 33.6292 237.135 37.8761C239.301 40.3896 240.601 43.5098 240.601 46.9767Z" fill="#54896E"/>
<path d="M222.485 16.2953C220.405 16.2953 218.672 15.862 218.585 15.862C218.412 15.7753 218.325 15.6886 218.325 15.5153C218.412 15.4286 218.499 15.3419 218.672 15.3419C218.672 15.3419 222.225 16.2086 225.086 15.5153C228.032 14.7352 229.506 15.2553 229.592 15.2553C229.679 15.3419 229.766 15.5153 229.766 15.6019C229.679 15.7753 229.506 15.7753 229.419 15.7753C229.419 15.7753 228.032 15.2553 225.172 15.9486C224.306 16.2086 223.352 16.2953 222.485 16.2953Z" fill="#211513"/>
<path d="M223.181 61.4509C221.88 61.4509 220.84 61.4509 220.407 61.4509C211.22 61.4509 207.406 55.1238 207.406 46.9767C207.406 43.6832 208.62 40.6497 210.7 38.1362C209.4 43.6832 209.226 48.7968 211.306 52.7837C213.82 57.724 218.5 60.3241 223.181 61.4509Z" fill="#211513"/>
<path d="M283.591 31.2024V30.8558C283.591 29.989 282.898 29.209 282.031 29.209H272.237C271.37 29.209 270.677 29.989 270.677 30.8558V31.2024C270.677 31.8091 270.244 32.4158 269.637 32.5892C267.644 33.2826 266.257 35.1027 266.257 37.3561V56.2505C266.257 59.024 268.51 61.2774 271.284 61.2774H282.898C285.671 61.2774 287.838 59.024 287.838 56.2505V37.3561C287.838 35.1893 286.451 33.2826 284.545 32.5892C283.938 32.4158 283.591 31.8091 283.591 31.2024Z" fill="#BEBADC"/>
<path d="M271.458 51.3097H283.158C284.025 51.3097 284.718 50.6163 284.718 49.6629V45.416C284.718 44.5493 284.025 43.856 283.158 43.856H271.458C270.591 43.856 269.897 44.5493 269.897 45.416V49.6629C269.897 50.6163 270.591 51.3097 271.458 51.3097Z" fill="#FFF3EB"/>
<path d="M277.004 32.849C272.497 32.849 270.677 32.3289 270.59 32.3289C270.504 32.2423 270.417 32.1556 270.504 31.9822C270.504 31.8956 270.677 31.8089 270.764 31.8089C270.764 31.8089 272.67 32.4156 277.351 32.3289C282.031 32.3289 283.331 31.8089 283.418 31.8089C283.504 31.7222 283.678 31.8089 283.678 31.9822C283.764 32.0689 283.678 32.2423 283.591 32.2423C283.504 32.3289 282.118 32.849 277.351 32.849C277.235 32.849 277.12 32.849 277.004 32.849Z" fill="#211513"/>
<path d="M276.571 30.2488C273.884 30.2488 272.931 30.1621 272.931 30.0754C272.758 30.0754 272.671 29.9888 272.671 29.8154C272.671 29.7288 272.844 29.5554 273.018 29.6421C273.018 29.6421 274.144 29.8154 277.178 29.7288C280.211 29.7288 282.205 29.2954 282.291 29.2954C282.378 29.2954 282.551 29.3821 282.551 29.5554C282.551 29.6421 282.465 29.8154 282.378 29.8154C282.291 29.8154 280.298 30.2488 277.178 30.2488C276.947 30.2488 276.744 30.2488 276.571 30.2488Z" fill="#211513"/>
<path d="M131.654 3.72688V3.0335C131.654 1.30007 130.354 0 128.621 0H109.986C108.34 0 106.953 1.30007 106.953 3.0335V3.6402C106.953 4.8536 106.173 5.98034 105.046 6.32702C101.233 7.62709 98.5459 11.1806 98.5459 15.4275V52.8696C98.5459 57.4632 102.273 61.1034 106.866 61.1034H131.654C136.161 61.1034 139.888 57.4632 139.888 52.8696V15.4275C139.888 11.2673 137.288 7.80043 133.561 6.41369C132.434 6.067 131.654 4.94028 131.654 3.72688Z" fill="#BEBADC"/>
<path d="M106.432 38.3093H131.653C132.52 38.3093 133.213 37.616 133.213 36.7492V25.6553C133.213 24.7886 132.52 24.0952 131.653 24.0952H106.432C105.479 24.0952 104.785 24.7886 104.785 25.6553V36.7492C104.785 37.616 105.479 38.3093 106.432 38.3093Z" fill="#FFF3EB"/>
<path d="M119.088 6.67363C110.507 6.67363 107.127 5.63357 107.04 5.63357C106.867 5.5469 106.78 5.46023 106.867 5.28689C106.867 5.20022 107.04 5.11354 107.127 5.11354C107.214 5.20021 110.767 6.24028 119.781 6.1536C128.708 6.06693 131.395 5.11354 131.395 5.11354C131.568 5.02686 131.655 5.11354 131.742 5.20021C131.828 5.37356 131.742 5.46022 131.568 5.54689C131.482 5.63357 128.882 6.58695 119.781 6.67363C119.55 6.67363 119.319 6.67363 119.088 6.67363Z" fill="#211513"/>
<path d="M118.308 1.73294C113.281 1.73294 111.374 1.38626 111.288 1.38626C111.201 1.38626 111.114 1.29959 111.114 1.12624C111.114 0.9529 111.288 0.866231 111.374 0.952902C111.374 0.952902 113.541 1.29958 119.435 1.21291C125.242 1.12623 129.142 0.346191 129.229 0.346191C129.315 0.346191 129.489 0.432873 129.489 0.519545C129.575 0.692888 129.489 0.866226 129.315 0.866226C129.229 0.866226 125.328 1.64627 119.435 1.73294C119.03 1.73294 118.655 1.73294 118.308 1.73294Z" fill="#211513"/>
<path d="M257.848 106V113.801C257.848 116.834 257.415 120.994 253.601 122.988C251.868 123.855 248.228 123.941 245.801 123.855C245.339 123.855 244.934 123.855 244.588 123.855C238.607 123.595 236.094 119.781 236.094 113.801C236.094 113.801 236.094 111.287 236.094 109.12V106C236.094 104.18 240.947 104.007 246.928 104.007C252.995 104.007 257.848 104.18 257.848 106Z" fill="#E5704E"/>
<path d="M238.693 106.433C238.693 106.433 234.013 101.146 237.74 98.8057C241.467 96.4655 243.547 103.399 243.547 103.399C243.547 103.399 240.253 87.7984 246.06 87.0183C251.78 86.2383 250.134 101.406 250.134 101.406C250.134 101.406 250.22 91.0919 255.941 91.9586C261.661 92.8253 254.294 106.433 254.294 106.433L249.614 106.693L245.107 106.779L240.773 106.606L238.693 106.433Z" fill="#54896E"/>
<path d="M245.801 123.854C245.339 123.854 244.934 123.854 244.588 123.854C238.607 123.594 236.094 119.781 236.094 113.8C236.094 113.8 236.094 111.287 236.094 109.12V107.56C237.394 110.16 239.041 115.794 240.514 119.087C241.727 121.601 243.548 123.161 245.801 123.854Z" fill="#211513"/>
<path d="M246.409 106.953C239.216 106.953 236.615 106.26 236.529 106.26C236.442 106.173 236.355 106.086 236.355 106C236.442 105.826 236.529 105.826 236.616 105.826C236.702 105.826 239.562 106.606 247.536 106.52C254.817 106.52 257.243 105.74 257.243 105.74C257.33 105.74 257.503 105.826 257.503 105.913C257.59 106 257.503 106.086 257.417 106.173C257.243 106.173 254.903 106.866 247.536 106.953C247.132 106.953 246.756 106.953 246.409 106.953Z" fill="#211513"/>
<path d="M250.31 99.2393L249.703 106.693C249.703 106.693 250.483 104.526 250.656 102.619C250.743 100.626 250.31 99.2393 250.31 99.2393Z" fill="#211513"/>
<path d="M243.547 103.399L244.153 106.78C244.153 106.78 243.546 106.78 243.373 105.393C243.286 104.006 243.547 103.399 243.547 103.399Z" fill="#211513"/>
<path d="M247.362 88.5787C247.304 88.5787 247.275 88.5787 247.275 88.5787C247.188 88.5787 247.102 88.4054 247.102 88.3187L247.535 86.5853C247.622 86.4119 247.708 86.3253 247.795 86.4119C247.968 86.4119 247.968 86.4986 247.968 86.6719L247.535 88.4054C247.535 88.492 247.448 88.5787 247.362 88.5787Z" fill="#211513"/>
<path d="M245.108 89.3585C244.992 89.3585 244.906 89.3007 244.848 89.1851L244.241 87.1917C244.154 87.105 244.241 87.0183 244.328 86.9316C244.501 86.9316 244.588 87.0183 244.674 87.105L245.281 89.0984C245.281 89.1851 245.281 89.3585 245.108 89.3585Z" fill="#211513"/>
<path d="M247.795 91.5259C247.795 91.5259 247.766 91.5259 247.708 91.5259C247.622 91.4393 247.535 91.3526 247.622 91.1792L248.402 89.4458C248.489 89.2725 248.575 89.2725 248.662 89.2725C248.835 89.3591 248.835 89.4458 248.835 89.6191L247.969 91.3526C247.969 91.4681 247.911 91.5259 247.795 91.5259Z" fill="#211513"/>
<path d="M243.375 93.3458C243.259 93.3458 243.173 93.288 243.115 93.1724L242.422 91.7856C242.335 91.699 242.422 91.6123 242.508 91.5256C242.595 91.439 242.682 91.5257 242.768 91.6123L243.548 92.999C243.548 93.0857 243.548 93.2591 243.462 93.2591C243.404 93.3169 243.375 93.3458 243.375 93.3458Z" fill="#211513"/>
<path d="M246.322 94.906C246.235 94.906 246.062 94.8194 246.062 94.646V92.9993C246.062 92.9126 246.148 92.8259 246.235 92.7393C246.408 92.8259 246.495 92.9126 246.495 92.9993V94.646C246.495 94.8194 246.408 94.906 246.322 94.906Z" fill="#211513"/>
<path d="M249.788 95.0789C249.788 95.0789 249.759 95.0501 249.702 94.9923C249.615 94.9923 249.528 94.8189 249.615 94.7322L250.395 93.2588C250.482 93.0855 250.568 93.0855 250.655 93.1722C250.828 93.1722 250.828 93.3455 250.742 93.4322L249.962 94.9056C249.962 95.0212 249.904 95.0789 249.788 95.0789Z" fill="#211513"/>
<path d="M247.36 98.6326C247.186 98.6326 247.1 98.5459 247.186 98.3726L247.446 96.6392C247.446 96.5525 247.62 96.4658 247.706 96.4658C247.793 96.4658 247.88 96.5525 247.88 96.7259L247.533 98.4593C247.533 98.546 247.446 98.6326 247.36 98.6326Z" fill="#211513"/>
<path d="M244.416 97.679C244.3 97.6212 244.214 97.5634 244.156 97.5056L243.636 96.2056C243.636 96.1189 243.636 95.9456 243.809 95.9456C243.896 95.8589 243.982 95.9456 244.069 96.0322L244.589 97.3323C244.676 97.419 244.589 97.5923 244.502 97.5923C244.445 97.6501 244.416 97.679 244.416 97.679Z" fill="#211513"/>
<path d="M248.489 102.533C248.489 102.533 248.46 102.533 248.402 102.533C248.315 102.533 248.229 102.36 248.315 102.273L248.922 100.713C248.922 100.626 249.095 100.54 249.182 100.54C249.269 100.626 249.355 100.713 249.269 100.886L248.662 102.446C248.662 102.504 248.604 102.533 248.489 102.533Z" fill="#211513"/>
<path d="M245.195 103.486C245.079 103.486 245.022 103.429 245.022 103.313L244.242 101.753C244.155 101.666 244.155 101.58 244.328 101.493C244.415 101.406 244.502 101.493 244.588 101.58L245.368 103.14C245.455 103.226 245.368 103.4 245.282 103.4C245.224 103.457 245.195 103.486 245.195 103.486Z" fill="#211513"/>
<path d="M247.187 105.913C247.101 105.913 247.014 105.826 247.014 105.653L246.841 104.006C246.754 103.92 246.841 103.833 247.014 103.833C247.101 103.746 247.187 103.833 247.274 104.006L247.447 105.653C247.447 105.74 247.361 105.826 247.274 105.826C247.216 105.884 247.187 105.913 247.187 105.913Z" fill="#211513"/>
<path d="M239.56 99.4993C239.473 99.4993 239.387 99.4126 239.3 99.326L239.04 97.7659C238.953 97.6792 239.04 97.5059 239.126 97.5059C239.3 97.5059 239.387 97.5925 239.387 97.6792L239.733 99.2393C239.733 99.326 239.733 99.4126 239.56 99.4993Z" fill="#211513"/>
<path d="M237.48 100.8C237.422 100.8 237.364 100.8 237.307 100.8L236.093 99.7595C236.007 99.6729 235.92 99.5862 236.007 99.4995C236.093 99.4128 236.267 99.3262 236.353 99.4129L237.567 100.453C237.653 100.54 237.653 100.626 237.567 100.713C237.567 100.771 237.538 100.8 237.48 100.8Z" fill="#211513"/>
<path d="M241.815 101.319C241.729 101.319 241.642 101.319 241.642 101.146L241.469 99.239C241.469 99.1523 241.469 99.0657 241.642 98.979C241.729 98.979 241.815 99.0657 241.902 99.239L242.075 101.146C242.075 101.232 241.989 101.319 241.815 101.319Z" fill="#211513"/>
<path d="M240.081 102.62C240.023 102.62 239.965 102.562 239.907 102.446L239.301 101.32C239.301 101.233 239.301 101.146 239.387 101.06C239.474 101.06 239.647 101.06 239.734 101.146L240.254 102.273C240.341 102.36 240.341 102.533 240.167 102.533C240.167 102.591 240.139 102.62 240.081 102.62Z" fill="#211513"/>
<path d="M238.262 104.439C238.204 104.439 238.175 104.439 238.175 104.439L236.442 103.746C236.269 103.659 236.269 103.572 236.269 103.399C236.355 103.312 236.442 103.313 236.615 103.313L238.349 104.006C238.435 104.093 238.435 104.179 238.435 104.353C238.378 104.41 238.32 104.439 238.262 104.439Z" fill="#211513"/>
<path d="M242.423 105.393C242.336 105.393 242.25 105.306 242.25 105.22L242.076 103.833C242.076 103.659 242.163 103.573 242.336 103.573C242.423 103.573 242.51 103.659 242.51 103.746L242.683 105.22C242.683 105.306 242.596 105.393 242.423 105.393Z" fill="#211513"/>
<path d="M253.86 93.2591C253.773 93.2591 253.687 93.1724 253.687 93.0857L253.427 91.8723C253.427 91.7856 253.513 91.6123 253.6 91.6123C253.774 91.6123 253.86 91.699 253.86 91.7856L254.12 92.999C254.12 93.0857 254.034 93.2591 253.947 93.2591C253.947 93.2591 253.918 93.2591 253.86 93.2591Z" fill="#211513"/>
<path d="M257.413 94.9925C257.355 94.9925 257.326 94.9636 257.326 94.9058C257.153 94.9058 257.153 94.7325 257.24 94.6458L258.106 93.1724C258.106 93.0857 258.28 92.999 258.366 93.0857C258.453 93.1724 258.54 93.2591 258.453 93.3457L257.586 94.9058C257.528 94.9636 257.471 94.9925 257.413 94.9925Z" fill="#211513"/>
<path d="M254.816 96.4654C254.643 96.4654 254.643 96.292 254.643 96.2054L255.076 94.5586C255.076 94.4719 255.249 94.3853 255.336 94.4719C255.423 94.4719 255.509 94.5586 255.509 94.7319L255.076 96.292C254.989 96.3787 254.903 96.4654 254.816 96.4654Z" fill="#211513"/>
<path d="M256.462 99.326C256.404 99.326 256.347 99.2971 256.289 99.2393C256.202 99.2393 256.202 99.066 256.202 98.9793L256.982 97.5059C257.069 97.3326 257.242 97.3326 257.329 97.4192C257.415 97.4192 257.416 97.5926 257.416 97.6793L256.636 99.1527C256.578 99.2682 256.52 99.326 256.462 99.326Z" fill="#211513"/>
<path d="M252.041 97.9395C251.868 97.9395 251.781 97.7662 251.781 97.6795L251.868 96.0327C251.868 95.946 251.955 95.8594 252.128 95.8594C252.215 95.8594 252.301 95.946 252.301 96.0327L252.215 97.6795C252.215 97.8528 252.128 97.9395 252.041 97.9395Z" fill="#211513"/>
<path d="M253.602 100.713C253.602 100.713 253.573 100.713 253.515 100.713C253.429 100.713 253.342 100.54 253.428 100.453L253.862 98.8062C253.948 98.7195 254.035 98.6328 254.122 98.6328C254.295 98.7195 254.295 98.8062 254.295 98.8928L253.775 100.54C253.775 100.626 253.689 100.713 253.602 100.713Z" fill="#211513"/>
<path d="M254.468 103.487C254.41 103.487 254.381 103.487 254.381 103.487C254.295 103.4 254.208 103.313 254.295 103.14L255.075 101.927C255.075 101.84 255.248 101.84 255.335 101.84C255.421 101.927 255.421 102.1 255.421 102.187L254.641 103.4C254.584 103.458 254.526 103.487 254.468 103.487Z" fill="#211513"/>
<path d="M251.608 103.573C251.434 103.573 251.348 103.487 251.348 103.4V102.013C251.348 101.927 251.434 101.84 251.608 101.84C251.694 101.84 251.781 101.927 251.781 102.013V103.4C251.781 103.487 251.694 103.573 251.608 103.573Z" fill="#211513"/>
<path d="M252.475 105.913C252.388 105.913 252.302 105.827 252.302 105.74L252.562 104.267C252.562 104.18 252.648 104.093 252.735 104.093C252.908 104.18 252.995 104.267 252.908 104.353L252.735 105.74C252.735 105.913 252.648 105.913 252.475 105.913Z" fill="#211513"/>
</svg>
