<svg width="799" height="145" viewBox="0 0 799 145" fill="none" xmlns="http://www.w3.org/2000/svg">
<path d="M139.138 42.752C137.61 43.8876 135.589 43.4009 134.646 41.5624C133.658 39.6697 134.107 37.2904 135.634 36.1007C136.173 35.6681 136.757 35.4518 137.386 35.4518C138.464 35.4518 139.542 36.1007 140.171 37.2904C141.114 39.129 140.665 41.5624 139.138 42.752Z" fill="#E1E1E1"/>
<path d="M158.764 29.3952C157.147 30.3685 155.171 29.5574 154.407 27.6107C153.599 25.6639 154.228 23.2846 155.889 22.3112C156.339 22.0408 156.833 21.9327 157.327 21.9327C158.539 21.9327 159.662 22.7438 160.246 24.0957C161.054 26.0965 160.381 28.4218 158.764 29.3952Z" fill="#E1E1E1"/>
<path d="M26.3152 136.52C24.6084 137.277 22.7221 136.25 22.0933 134.195C21.5094 132.14 22.3628 129.869 24.0695 129.111C24.4288 128.949 24.833 128.895 25.1923 128.895C26.5397 128.895 27.7973 129.869 28.2464 131.491C28.8752 133.546 28.0219 135.817 26.3152 136.52Z" fill="#E1E1E1"/>
<path d="M47.6933 125.542C46.0315 126.516 44.1002 125.704 43.2918 123.758C42.4833 121.757 43.157 119.432 44.7739 118.458C45.2231 118.188 45.762 118.08 46.2112 118.08C47.4238 118.08 48.5916 118.837 49.1755 120.243C49.9839 122.189 49.3102 124.569 47.6933 125.542Z" fill="#E1E1E1"/>
<path d="M4.03726 144.686H4.08216C2.28562 145.226 0.533989 143.928 0.0848546 141.765C-0.319366 139.656 0.758567 137.547 2.51019 137.007C2.77967 136.953 3.00424 136.899 3.27372 136.899C4.75587 136.899 6.10326 138.142 6.46257 139.927C6.86679 142.036 5.8338 144.199 4.03726 144.686Z" fill="#E1E1E1"/>
<path d="M201.027 10.8474C199.276 11.3881 197.524 10.0363 197.075 7.92729C196.671 5.81833 197.749 3.70934 199.5 3.16858C199.77 3.1145 199.995 3.06045 200.264 3.06045C201.746 3.06045 203.094 4.30419 203.453 6.08869C203.857 8.19766 202.824 10.3066 201.027 10.8474Z" fill="#E1E1E1"/>
<path d="M225.172 11.612C223.42 12.1528 221.669 10.8009 221.22 8.69194C220.815 6.58298 221.893 4.47399 223.645 3.93323C223.914 3.87915 224.139 3.8251 224.409 3.8251C225.891 3.8251 227.238 5.06884 227.597 6.85334C228.002 8.96231 226.969 11.0713 225.172 11.612Z" fill="#E1E1E1"/>
<path d="M249.317 12.3776C247.565 12.9184 245.813 11.5665 245.364 9.45756C244.96 7.3486 246.038 5.23961 247.789 4.69885C248.059 4.64478 248.284 4.59073 248.553 4.59073C250.035 4.59073 251.383 5.83446 251.742 7.61897C252.146 9.72793 251.113 11.8369 249.317 12.3776Z" fill="#E1E1E1"/>
<path d="M273.459 7.78683C271.708 8.32759 269.956 6.97571 269.507 4.86674C269.103 2.75778 270.18 0.648791 271.932 0.108031C272.202 0.0539551 272.426 -9.44138e-05 272.696 -9.44138e-05C274.178 -9.44138e-05 275.525 1.24364 275.884 3.02815C276.289 5.13711 275.256 7.24607 273.459 7.78683Z" fill="#E1E1E1"/>
<path d="M380.413 58.5962C379.02 57.2443 378.796 54.7569 379.918 53.0805C380.547 52.1071 381.49 51.5664 382.479 51.5664C383.197 51.5664 383.916 51.8908 384.545 52.4316C385.937 53.8376 386.161 56.3251 384.994 58.0014C383.871 59.6778 381.805 59.9481 380.413 58.5962Z" fill="#E1E1E1"/>
<path d="M362.088 42.752C360.605 41.5624 360.156 39.129 361.144 37.2904C361.728 36.1007 362.806 35.5059 363.884 35.5059C364.468 35.5059 365.097 35.6681 365.636 36.1007C367.163 37.2904 367.612 39.7238 366.624 41.5624C365.681 43.4009 363.66 43.9417 362.088 42.752Z" fill="#E1E1E1"/>
<path d="M321.8 18.7424C320.093 17.9853 319.195 15.7141 319.824 13.7133C320.318 12.091 321.576 11.0636 322.878 11.0636C323.267 11.0636 323.642 11.1537 324.001 11.3339C325.708 12.091 326.606 14.3622 325.977 16.4171C325.348 18.4179 323.462 19.4994 321.8 18.7424Z" fill="#E1E1E1"/>
<path d="M342.504 29.3952C340.888 28.4759 340.214 26.0966 341.022 24.1498C341.561 22.7438 342.729 21.9327 343.942 21.9327C344.436 21.9327 344.93 22.0949 345.424 22.3653C345.394 22.3653 345.379 22.3653 345.379 22.3653C346.996 23.2846 347.669 25.6639 346.861 27.6107C346.097 29.5574 344.121 30.3685 342.504 29.3952Z" fill="#E1E1E1"/>
<path d="M300.197 10.847C298.446 10.3603 297.368 8.19724 297.817 6.08827C298.176 4.30377 299.524 3.06003 301.006 3.06003C301.245 3.06003 301.5 3.1141 301.769 3.22225C303.521 3.70894 304.599 5.81789 304.194 7.98093C303.745 10.0899 301.949 11.3877 300.197 10.847Z" fill="#E1E1E1"/>
<path d="M397.164 76.7115C395.906 75.1974 395.906 72.7099 397.164 71.1417C397.838 70.3847 398.646 70.0061 399.499 70.0061C400.353 70.0061 401.161 70.3847 401.79 71.1417C403.092 72.7099 403.092 75.1974 401.79 76.7115C400.532 78.2797 398.466 78.2797 397.164 76.7115Z" fill="#E1E1E1"/>
<path d="M497.186 144.686C495.434 144.199 494.356 142.036 494.805 139.927C495.164 138.142 496.512 136.899 497.994 136.899C498.233 136.899 498.488 136.953 498.757 137.061C500.509 137.548 501.587 139.656 501.183 141.765C500.734 143.928 498.937 145.226 497.186 144.686Z" fill="#E1E1E1"/>
<path d="M521.273 144.685C519.522 144.198 518.444 142.035 518.893 139.926C519.252 138.142 520.6 136.898 522.082 136.898C522.321 136.898 522.576 136.952 522.845 137.06C524.597 137.547 525.675 139.656 525.271 141.765C524.822 143.928 523.025 145.226 521.273 144.685Z" fill="#E1E1E1"/>
<path d="M544.529 131.685C542.778 131.198 541.7 129.035 542.149 126.926C542.508 125.142 543.856 123.898 545.338 123.898C545.577 123.898 545.832 123.952 546.101 124.06C547.853 124.547 548.931 126.656 548.527 128.765C548.077 130.928 546.281 132.226 544.529 131.685Z" fill="#E1E1E1"/>
<path d="M474.954 136.52C473.248 135.817 472.394 133.546 473.023 131.491C473.472 129.923 474.775 128.895 476.077 128.895C476.466 128.895 476.841 128.967 477.2 129.111C478.907 129.869 479.76 132.14 479.176 134.195C478.547 136.25 476.661 137.277 474.954 136.52Z" fill="#E1E1E1"/>
<path d="M433.365 111.807C431.838 110.618 431.389 108.184 432.332 106.346C432.961 105.156 434.039 104.507 435.117 104.507C435.7 104.507 436.329 104.723 436.868 105.156C438.395 106.292 438.844 108.725 437.856 110.564C436.913 112.402 434.892 112.943 433.365 111.807Z" fill="#E1E1E1"/>
<path d="M414.455 95.4222C413.063 94.0703 412.839 91.5828 413.961 89.9064C414.635 88.933 415.578 88.4463 416.522 88.4463C417.24 88.4463 417.959 88.7167 418.588 89.3116C419.98 90.6635 420.204 93.1509 419.082 94.8273C417.959 96.5037 415.893 96.8281 414.455 95.4222Z" fill="#E1E1E1"/>
<path d="M453.577 125.543C451.96 124.569 451.331 122.19 452.094 120.243C452.678 118.837 453.846 118.08 455.059 118.08C455.538 118.08 456.017 118.206 456.496 118.459C458.113 119.432 458.786 121.811 457.978 123.758C457.17 125.705 455.193 126.516 453.577 125.543Z" fill="#E1E1E1"/>
<path d="M663.366 111.753C661.839 112.943 659.818 112.402 658.875 110.563C657.887 108.725 658.336 106.291 659.818 105.102C660.402 104.723 660.986 104.507 661.615 104.507C662.693 104.507 663.726 105.156 664.354 106.345C665.342 108.184 664.893 110.563 663.366 111.753Z" fill="#E1E1E1"/>
<path d="M734.599 42.752C733.072 43.8876 731.051 43.4009 730.062 41.5624C729.119 39.7238 729.568 37.2904 731.096 36.1007C731.634 35.6681 732.218 35.4518 732.847 35.4518C733.925 35.4518 734.958 36.1007 735.587 37.2904C736.575 39.129 736.126 41.5624 734.599 42.752Z" fill="#E1E1E1"/>
<path d="M754.224 29.3952C752.608 30.3685 750.631 29.5574 749.823 27.6107C749.059 25.6639 749.688 23.2846 751.305 22.3112C751.754 22.0408 752.293 21.9327 752.742 21.9327C753.955 21.9327 755.123 22.7438 755.707 24.0957C756.515 26.0965 755.841 28.4218 754.224 29.3952Z" fill="#E1E1E1"/>
<path d="M796.49 10.8474C794.738 11.3881 792.987 10.0363 792.538 7.92729C792.088 5.81833 793.166 3.70934 794.918 3.16858C795.187 3.1145 795.457 3.06045 795.726 3.06045C797.209 3.06045 798.556 4.30419 798.915 6.08869C799.319 8.19766 798.242 10.3066 796.49 10.8474Z" fill="#E1E1E1"/>
<path d="M716.32 58.5965C714.883 59.9484 712.862 59.6781 711.694 57.9477C710.571 56.2713 710.796 53.7838 712.188 52.4319C712.817 51.8371 713.535 51.5667 714.254 51.5667C715.197 51.5667 716.185 52.0534 716.814 53.0267C717.937 54.7572 717.712 57.2446 716.32 58.5965Z" fill="#E1E1E1"/>
<path d="M599.5 144.685C597.748 145.226 595.996 143.928 595.547 141.819C595.098 139.656 596.176 137.547 597.928 137.061C598.197 136.952 598.467 136.898 598.736 136.898C600.218 136.898 601.521 138.142 601.925 139.927C602.329 142.036 601.251 144.199 599.5 144.685Z" fill="#E1E1E1"/>
<path d="M694.896 76.7121C693.639 75.1979 693.639 72.6564 694.896 71.1422C695.57 70.3852 696.378 69.9526 697.232 69.9526C698.085 69.9526 698.894 70.3852 699.567 71.1422C700.825 72.6564 700.825 75.1979 699.567 76.7121C698.265 78.2262 696.199 78.2262 694.896 76.7121Z" fill="#E1E1E1"/>
<path d="M643.111 125.542C641.494 126.516 639.518 125.704 638.755 123.758C637.946 121.811 638.62 119.432 640.237 118.458C640.686 118.188 641.18 118.08 641.674 118.08C642.887 118.08 644.054 118.837 644.593 120.243C645.402 122.189 644.728 124.569 643.111 125.542Z" fill="#E1E1E1"/>
<path d="M621.776 136.52C620.07 137.277 618.183 136.25 617.554 134.195C616.926 132.14 617.824 129.869 619.531 129.111C619.89 128.967 620.249 128.895 620.609 128.895C621.956 128.895 623.214 129.923 623.708 131.491C624.336 133.546 623.438 135.817 621.776 136.52Z" fill="#E1E1E1"/>
<path d="M682.275 95.4219C680.838 96.7738 678.772 96.5034 677.649 94.8271C676.526 93.0966 676.751 90.6092 678.143 89.2573C678.772 88.6624 679.49 88.3921 680.209 88.3921C681.152 88.3921 682.095 88.8787 682.724 89.8521C683.892 91.5825 683.667 94.07 682.275 95.4219Z" fill="#E1E1E1"/>
</svg>
