<svg width="476" height="142" viewBox="0 0 476 142" fill="none" xmlns="http://www.w3.org/2000/svg">
<path d="M94.5125 86.3263C92.8361 84.9204 90.3486 85.1907 88.9967 86.9212C87.5908 88.5975 87.8612 91.085 89.5916 92.4369C90.2946 93.0318 91.1598 93.3022 92.025 93.3022C93.2147 93.3022 94.3503 92.8155 95.1073 91.8421C96.4592 90.1657 96.1888 87.6782 94.5125 86.3263Z" fill="#E1E1E1"/>
<path d="M116.522 102.117C114.684 100.981 112.25 101.468 111.115 103.306C109.925 105.199 110.466 107.578 112.304 108.768C112.953 109.201 113.656 109.417 114.413 109.417C115.711 109.417 117.009 108.768 117.766 107.578C118.902 105.74 118.361 103.306 116.522 102.117Z" fill="#E1E1E1"/>
<path d="M68.7719 68.1571C67.2037 69.7253 67.2037 72.2128 68.7719 73.7269C69.5289 74.538 70.5023 74.9166 71.5297 74.9166C72.5572 74.9166 73.5846 74.538 74.3417 73.7269C75.8558 72.2128 75.8558 69.7253 74.3417 68.1571C72.7735 66.643 70.286 66.643 68.7719 68.1571Z" fill="#E1E1E1"/>
<path d="M140.154 115.473C138.207 114.5 135.828 115.311 134.908 117.257C133.935 119.204 134.692 121.584 136.693 122.557C137.234 122.827 137.829 122.935 138.423 122.935C139.883 122.935 141.235 122.124 141.938 120.772C142.912 118.772 142.101 116.446 140.154 115.473Z" fill="#E1E1E1"/>
<path d="M165.136 126.126C163.081 125.369 160.81 126.451 160.053 128.506C159.295 130.506 160.377 132.778 162.432 133.535C162.864 133.715 163.297 133.805 163.73 133.805C165.352 133.805 166.866 132.778 167.461 131.209C168.218 129.155 167.136 126.883 165.136 126.126Z" fill="#E1E1E1"/>
<path d="M53.4688 49.4467H53.5229C51.7925 48.0948 49.3591 48.3652 47.9531 50.0416C46.6012 51.772 46.8715 54.2595 48.5479 55.6114C49.305 56.2062 50.1702 56.4766 51.0354 56.4766C52.171 56.4766 53.3066 55.9899 54.1177 55.0165C55.4696 53.2861 55.1992 50.8527 53.4688 49.4467Z" fill="#E1E1E1"/>
<path d="M6.42283 19.3265C4.42202 18.3531 2.09676 19.1643 1.12339 21.111C0.15002 23.1119 0.961153 25.4371 2.90789 26.4105C3.44865 26.6809 4.09757 26.789 4.63833 26.789C6.09838 26.789 7.50437 26.032 8.20736 24.626C9.18073 22.6792 8.36956 20.2999 6.42283 19.3265Z" fill="#E1E1E1"/>
<path d="M30.8107 33.1156C28.9721 31.926 26.4846 32.4667 25.349 34.3053C24.1594 36.1439 24.7001 38.5773 26.5387 39.767C27.1876 40.1996 27.9447 40.3618 28.6477 40.3618C29.9455 40.3618 31.2433 39.7129 31.9463 38.5773C33.136 36.7387 32.5952 34.3053 30.8107 33.1156Z" fill="#E1E1E1"/>
<path d="M191.037 134.021C188.928 133.481 186.819 134.832 186.278 136.941C185.791 139.05 187.089 141.159 189.198 141.7C189.523 141.754 189.793 141.808 190.117 141.808C191.902 141.808 193.524 140.564 193.957 138.78C194.443 136.671 193.2 134.562 191.037 134.021Z" fill="#E1E1E1"/>
<path d="M220.109 133.256C218 132.715 215.891 134.067 215.35 136.176C214.864 138.285 216.161 140.394 218.27 140.935C218.595 140.989 218.865 141.043 219.19 141.043C220.974 141.043 222.596 139.799 223.029 138.015C223.516 135.906 222.272 133.797 220.109 133.256Z" fill="#E1E1E1"/>
<path d="M249.177 132.491C247.068 131.951 244.959 133.303 244.419 135.412C243.932 137.521 245.23 139.63 247.339 140.17C247.663 140.224 247.934 140.278 248.258 140.278C250.043 140.278 251.665 139.035 252.097 137.25C252.584 135.141 251.34 133.032 249.177 132.491Z" fill="#E1E1E1"/>
</svg>
