<svg width="64" height="63" viewBox="0 0 64 63" fill="none" xmlns="http://www.w3.org/2000/svg">
<g clip-path="url(#clip0_696_2050)">
<path d="M24.125 7.875C26.0719 7.875 27.9751 8.45233 29.5939 9.53397C31.2127 10.6156 32.4744 12.153 33.2194 13.9517C33.9645 15.7504 34.1594 17.7297 33.7796 19.6392C33.3998 21.5487 32.4623 23.3027 31.0856 24.6793C29.7089 26.056 27.9549 26.9935 26.0454 27.3734C24.1359 27.7532 22.1567 27.5582 20.358 26.8132C18.5593 26.0681 17.0219 24.8064 15.9402 23.1876C14.8586 21.5688 14.2812 19.6657 14.2812 17.7188C14.2812 15.108 15.3184 12.6042 17.1644 10.7582C19.0105 8.91211 21.5143 7.875 24.125 7.875ZM24.125 3.9375C21.3993 3.9375 18.7349 4.74576 16.4685 6.26006C14.2022 7.77436 12.4359 9.9267 11.3928 12.4449C10.3497 14.9631 10.0768 17.734 10.6086 20.4073C11.1403 23.0806 12.4528 25.5362 14.3802 27.4636C16.3075 29.3909 18.7631 30.7034 21.4364 31.2352C24.1097 31.7669 26.8807 31.494 29.3989 30.451C31.9171 29.4079 34.0694 27.6415 35.5837 25.3752C37.098 23.1089 37.9062 20.4444 37.9062 17.7188C37.9062 14.0637 36.4543 10.5584 33.8698 7.97393C31.2853 5.38945 27.78 3.9375 24.125 3.9375ZM43.8125 59.0625H39.875V49.2188C39.875 46.608 38.8379 44.1042 36.9918 42.2582C35.1458 40.4121 32.642 39.375 30.0312 39.375H18.2188C15.608 39.375 13.1042 40.4121 11.2582 42.2582C9.41211 44.1042 8.375 46.608 8.375 49.2188V59.0625H4.4375V49.2188C4.4375 45.5637 5.88945 42.0584 8.47393 39.4739C11.0584 36.8895 14.5637 35.4375 18.2188 35.4375H30.0312C33.6863 35.4375 37.1916 36.8895 39.7761 39.4739C42.3605 42.0584 43.8125 45.5637 43.8125 49.2188V59.0625ZM43.8125 7.875H63.5V11.8125H43.8125V7.875ZM43.8125 17.7188H63.5V21.6562H43.8125V17.7188ZM43.8125 27.5625H57.5938V31.5H43.8125V27.5625Z" fill="#182D4C"/>
</g>
<defs>
<clipPath id="clip0_696_2050">
<rect width="63" height="63" fill="white" transform="translate(0.5)"/>
</clipPath>
</defs>
</svg>
