<?xml version="1.0" standalone="no"?>
<!DOCTYPE svg PUBLIC "-//W3C//DTD SVG 1.1//EN" "http://www.w3.org/Graphics/SVG/1.1/DTD/svg11.dtd" >
<svg xmlns="http://www.w3.org/2000/svg" xmlns:xlink="http://www.w3.org/1999/xlink" version="1.1">
<metadata>
Created by FontForge 20201107 at Mon Dec  9 10:38:28 2024
 By 
Copyright (c) 2012 by Svetoslav Simov. All rights reserved.
</metadata>
<defs>
<font id="Nexa-Light-Italic" horiz-adv-x="1228" >
  <font-face 
    font-family="Nexa-Light-Italic"
    font-weight="400"
    font-style="italic"
    font-stretch="normal"
    units-per-em="2048"
    panose-1="2 0 0 0 0 0 0 0 0 0"
    ascent="1509"
    descent="-539"
    x-height="1012"
    cap-height="1434"
    bbox="-383 -608 2277 1915"
    underline-thickness="102"
    underline-position="-204"
    unicode-range="U+0020-FB02"
  />
<missing-glyph horiz-adv-x="1320" 
d="M76 0l252 1434h1102l-252 -1434h-1102zM422 915h72q21 120 113 169q96 51 210 51q275 0 275 -185q0 -109 -52 -159q-50 -49 -143 -76q-137 -38 -192 -103t-82 -213h71q24 131 60 174q35 42 149 76q49 14 89 32q35 15 79 49q46 35 68 92t22 139q0 128 -95 185
q-93 56 -237 56q-149 0 -266 -69t-141 -218zM582 242q0 -33 28 -43q29 -11 57 5q27 15 27 48q0 30 -24 44q-25 14 -53 -1t-35 -53z" />
    <glyph glyph-name=".notdef" horiz-adv-x="1320" 
d="M76 0l252 1434h1102l-252 -1434h-1102zM422 915h72q21 120 113 169q96 51 210 51q275 0 275 -185q0 -109 -52 -159q-50 -49 -143 -76q-137 -38 -192 -103t-82 -213h71q24 131 60 174q35 42 149 76q49 14 89 32q35 15 79 49q46 35 68 92t22 139q0 128 -95 185
q-93 56 -237 56q-149 0 -266 -69t-141 -218zM582 242q0 -33 28 -43q29 -11 57 5q27 15 27 48q0 30 -24 44q-25 14 -53 -1t-35 -53z" />
    <glyph glyph-name=".null" horiz-adv-x="0" 
 />
    <glyph glyph-name="nonmarkingreturn" horiz-adv-x="681" 
 />
    <glyph glyph-name="space" unicode=" " horiz-adv-x="546" 
 />
    <glyph glyph-name="exclam" unicode="!" horiz-adv-x="487" 
d="M336 1434h104l-200 -1145h-105zM70 57q0 43 30 69q31 26 68 26q28 0 48 -18t20 -48q0 -43 -29 -69q-28 -25 -68 -25q-29 0 -49 17t-20 48z" />
    <glyph glyph-name="quotedbl" unicode="&#x22;" horiz-adv-x="688" 
d="M301 1442h92l-92 -524h-92zM588 1442h90l-92 -524h-90z" />
    <glyph glyph-name="numbersign" unicode="#" horiz-adv-x="1298" 
d="M662 1434h94l-144 -344h412l145 344h95l-146 -344h187l-15 -78h-205l-249 -580h194l-14 -82h-213l-148 -350h-94l148 350h-412l-147 -350h-95l148 350h-166l14 82h182l252 580h-174l15 78h192zM991 1012h-411l-252 -580h413z" />
    <glyph glyph-name="dollar" unicode="$" horiz-adv-x="1312" 
d="M803 1649h92l-35 -205q144 -7 264 -69q117 -60 158 -173l-84 -45q-34 101 -150 147q-115 46 -251 48q-73 0 -155 -17q-84 -17 -159 -50q-81 -35 -131 -101q-51 -68 -51 -156q0 -42 12 -73q12 -32 45 -56q38 -28 59 -40q29 -17 85 -31q28 -7 91 -22q24 -6 107 -22
q262 -52 357 -108q170 -99 133 -309q-22 -127 -123 -213t-217 -120q-115 -34 -248 -40l-35 -199h-90l35 199q-170 6 -308 77q-136 70 -181 205l94 48q40 -120 172 -178q128 -56 284 -56q71 0 151 15q70 13 158 48q79 31 136 91t72 137q12 60 -10 111q-20 48 -54 77
q-36 31 -104 55q-65 23 -118 35q-64 14 -138 29q-84 17 -142 32q-60 15 -124 40q-72 27 -108 58q-39 33 -67 84q-28 52 -28 120q0 105 53 188q52 81 140 130t182 74t196 30z" />
    <glyph glyph-name="percent" unicode="%" horiz-adv-x="1538" 
d="M1425 1438h-116l-1170 -1438h115zM537 1444q129 0 198 -72q70 -73 70 -178q0 -139 -99 -247q-98 -107 -274 -107q-134 0 -196 71q-65 74 -66 183q0 146 104 247q106 103 263 103zM526 1360q-118 0 -193 -77t-75 -173q0 -79 44 -132q43 -52 142 -52q120 0 192 76
q73 78 73 174q0 80 -43 132t-140 52zM1143 594q129 0 198 -72q70 -73 70 -178q0 -139 -99 -247q-98 -107 -274 -107q-134 0 -196 71q-65 74 -66 183q0 146 105 248t262 102zM1133 510q-119 0 -194 -77t-75 -173q0 -79 44 -132q43 -52 143 -52q119 0 191 77q73 78 73 173
q0 80 -43 132t-139 52z" />
    <glyph glyph-name="ampersand" unicode="&#x26;" horiz-adv-x="1398" 
d="M1212 1110h-96q18 135 -72 189q-92 55 -251 55q-217 0 -341 -94t-124 -234q0 -129 111 -189q113 -61 255 -61h609l-17 -88h-131l-55 -313q-10 -78 -15 -148q-4 -66 31 -109q34 -42 111 -36l-15 -82q-195 -24 -211 176q-163 -194 -452 -194q-469 0 -469 329q0 157 113 268
t258 156q-103 29 -164 105q-62 77 -62 176q0 184 159 305q158 121 425 121q191 0 310 -78q117 -77 93 -254zM1010 375l55 313h-393q-220 0 -353 -109t-133 -253q0 -254 375 -254q67 0 129 14q66 15 134 46t120 95q51 63 66 148z" />
    <glyph glyph-name="quotesingle" unicode="'" horiz-adv-x="401" 
d="M301 1442h90l-92 -524h-90z" />
    <glyph glyph-name="parenleft" unicode="(" horiz-adv-x="653" 
d="M729 1505l39 -78q-213 -130 -355 -355q-143 -226 -188 -459q-45 -234 18 -465q63 -230 234 -373l-67 -80q-129 94 -207 242q-79 148 -98 313q-19 164 14 350t110 350q79 168 207 314q128 145 293 241z" />
    <glyph glyph-name="parenright" unicode=")" horiz-adv-x="651" 
d="M197 1432l63 75q157 -113 236 -298t73 -396q-6 -214 -74 -422q-69 -210 -214 -396t-340 -298l-39 80q222 143 366 374q144 232 183 465t-25 460q-63 226 -229 356z" />
    <glyph glyph-name="asterisk" unicode="*" horiz-adv-x="704" 
d="M518 1010l-78 149l-135 -149l-59 47l143 145l-153 47l34 74l154 -53l25 166h83l-32 -166l182 51l10 -74l-184 -45l88 -143z" />
    <glyph glyph-name="plus" unicode="+" horiz-adv-x="1015" 
d="M127 750h358l62 352h96l-61 -352h358l-18 -99h-359l-63 -362h-97l64 362h-358z" />
    <glyph glyph-name="comma" unicode="," horiz-adv-x="456" 
d="M55 49q0 42 31 67q29 23 70 23q29 0 48 -16t19 -49q0 -50 -133 -256h-88l94 170q-41 15 -41 61z" />
    <glyph glyph-name="hyphen" unicode="-" horiz-adv-x="1013" 
d="M135 535l19 102h716l-18 -102h-717z" />
    <glyph glyph-name="period" unicode="." horiz-adv-x="452" 
d="M55 47q0 43 30 69q29 25 67 25q30 0 48 -17q19 -18 19 -48q0 -43 -29 -69q-28 -25 -67 -25q-30 0 -48 17q-20 18 -20 48z" />
    <glyph glyph-name="slash" unicode="/" horiz-adv-x="1007" 
d="M41 -168h-109l1067 1722h111z" />
    <glyph glyph-name="zero" unicode="0" horiz-adv-x="1372" 
d="M330 889l-60 -342q-45 -259 123 -387q140 -105 340 -62q211 43 332 226q64 100 86 223l59 342q45 258 -123 385q-138 104 -337 63q-216 -45 -334 -227q-64 -101 -86 -221zM162 547l59 342q52 304 301 461q208 131 436 94q223 -34 318 -211q77 -143 43 -344l-59 -342
q-52 -304 -302 -461q-207 -130 -436 -96q-223 34 -319 213q-76 140 -41 344z" />
    <glyph glyph-name="one" unicode="1" horiz-adv-x="808" 
d="M-6 0l16 96h279l215 1213l-277 -66l17 96l391 95l-236 -1338h281l-16 -96h-670z" />
    <glyph glyph-name="two" unicode="2" horiz-adv-x="1363" 
d="M334 1053h-109q24 142 128 237q102 93 227 128q121 34 264 34q204 0 345 -87q140 -86 140 -269q0 -121 -58 -215q-59 -95 -153 -149q-98 -56 -200 -82q-106 -27 -216 -27q-454 -4 -505 -297l-39 -219h987l-19 -107h-1095l57 324q21 116 83 195q63 81 154 124
q93 44 186 62q95 18 204 18q75 0 152 15q78 15 153 49q74 33 131 98q55 62 70 149q16 89 -14 156q-30 65 -93 100q-64 35 -135 50q-77 16 -152 16q-77 0 -152 -15q-80 -16 -149 -47q-75 -34 -126 -95t-66 -146z" />
    <glyph glyph-name="three" unicode="3" horiz-adv-x="1351" 
d="M344 1083h-104q18 107 79 183q59 73 151 114q90 40 179 56q87 16 189 16q223 0 345 -92t122 -240q0 -134 -110 -244t-257 -137q115 -23 194 -109q78 -85 78 -200q0 -187 -169 -317q-170 -131 -457 -131q-80 0 -152 9t-144 36q-76 29 -120 68q-47 43 -71 111t-7 159h107
q-12 -74 9 -128q21 -55 61 -83t104 -45q63 -17 115 -21q47 -4 118 -4q239 0 369 97q131 98 131 235q0 112 -104 193q-103 81 -291 81h-238l16 92h232q202 0 330 88t151 203q23 119 -76 203t-301 84q-429 0 -479 -277z" />
    <glyph glyph-name="four" unicode="4" horiz-adv-x="1341" 
d="M1032 1434h182l-178 -1006h181l-19 -104h-180l-57 -324h-111l57 324h-878v133zM926 428l164 924l-947 -924h783z" />
    <glyph glyph-name="five" unicode="5" horiz-adv-x="1343" 
d="M776 778h-563l117 656h997l-18 -99h-895l-80 -458h461q233 0 339 -103q105 -102 105 -260q0 -219 -170 -372q-168 -152 -473 -152q-109 0 -195 19q-85 19 -163 63q-76 44 -111 126q-35 83 -14 197h110q-16 -87 14 -150q30 -62 95 -92q63 -29 133 -41q68 -12 149 -12
q250 0 381 111t131 287q0 122 -80 201t-270 79z" />
    <glyph glyph-name="six" unicode="6" horiz-adv-x="1406" 
d="M377 1057l-70 -391q178 202 496 202q206 0 346 -94q141 -94 141 -280q0 -135 -58 -236q-59 -103 -155 -160q-97 -58 -206 -86q-108 -28 -228 -28q-109 0 -200 25t-167 76q-72 49 -106 139q-33 89 -12 206l110 627q33 190 212 294q178 103 403 103q228 0 364 -94
q137 -95 119 -268h-111q15 125 -95 194q-111 70 -294 70q-177 0 -320 -79q-145 -80 -169 -220zM662 88q89 0 177 20q85 20 165 60q80 41 128 120t48 183q0 141 -119 219t-277 78q-174 0 -329 -88q-157 -89 -187 -252q-16 -90 13 -161q28 -69 91 -106q64 -38 135 -56
q68 -17 155 -17z" />
    <glyph glyph-name="seven" unicode="7" horiz-adv-x="1142" 
d="M104 0l1010 1331h-930l17 103h1044v-91l-1016 -1343h-125z" />
    <glyph glyph-name="eight" unicode="8" horiz-adv-x="1433" 
d="M733 696q-77 0 -162 -18t-175 -56q-87 -37 -146 -111q-57 -72 -57 -169q0 -73 44 -129q43 -55 113 -84q69 -29 138 -42q66 -13 137 -13q103 0 204 23q103 24 207 97q102 72 123 183t-55 187q-79 79 -175 105q-99 27 -196 27zM606 -31q-130 0 -246 31q-110 29 -196 114
q-84 82 -84 208q0 160 117 272q116 112 276 145q-246 79 -246 285q0 118 62 209q61 90 161 138q101 49 204 71t216 22q98 0 176 -17q86 -19 158 -54q76 -37 122 -106q46 -68 46 -163q0 -150 -104 -244q-107 -96 -271 -145q116 -25 195 -109q80 -86 80 -204q0 -122 -63 -213
q-65 -94 -163 -142q-105 -51 -212 -74q-111 -24 -228 -24zM852 1370q-80 0 -160 -16q-82 -16 -166 -51q-83 -34 -136 -104q-52 -68 -52 -161q0 -66 41 -118q41 -51 106 -78q66 -27 132 -39t133 -12q77 0 158 15q83 15 165 49q87 36 137 99q54 68 54 154q0 71 -40 124
q-41 55 -105 83q-65 29 -132 42q-65 13 -135 13z" />
    <glyph glyph-name="nine" unicode="9" horiz-adv-x="1406" 
d="M1112 381l68 391q-179 -203 -496 -203q-204 0 -347 95q-142 94 -142 280q0 135 58 236q58 102 155 159q98 58 205 86q111 29 229 29q104 0 199 -26q94 -26 167 -75q72 -49 108 -140q34 -87 13 -205l-110 -627q-33 -190 -212 -294q-178 -103 -403 -103q-226 0 -363 94
q-138 94 -120 268h110q-15 -124 96 -194t294 -70q176 0 321 79q146 80 170 220zM823 1350q-89 0 -177 -20q-87 -20 -165 -61q-80 -42 -128 -122q-48 -79 -48 -186q0 -148 118 -220q117 -71 279 -71q175 0 330 88q157 89 187 252q16 89 -13 160q-29 70 -91 107t-136 55
q-73 18 -156 18z" />
    <glyph glyph-name="colon" unicode=":" horiz-adv-x="464" 
d="M57 47q0 43 28 69q26 25 67 25q29 0 49 -17t20 -48q0 -44 -28 -69t-68 -25q-30 0 -48 17q-20 18 -20 48zM164 662q0 42 29 68t67 26q28 0 49 -18t21 -48q0 -42 -29 -68t-68 -26q-29 0 -49 17t-20 49z" />
    <glyph glyph-name="semicolon" unicode=";" horiz-adv-x="477" 
d="M63 49q0 44 31 69q29 23 70 23q30 0 47 -17q18 -18 18 -48q0 -27 -14 -49l-119 -209h-88l94 170q-39 15 -39 61zM172 662q0 42 29 68t67 26q28 0 49 -18t21 -48q0 -42 -29 -68t-67 -26q-29 0 -49 17q-21 18 -21 49z" />
    <glyph glyph-name="less" unicode="&#x3c;" horiz-adv-x="739" 
d="M129 690l500 381l49 -70l-455 -350l338 -352l-82 -70l-364 381z" />
    <glyph glyph-name="equal" unicode="=" horiz-adv-x="1132" 
d="M119 395l18 101h817l-18 -101h-817zM190 799l19 102h817l-18 -102h-818z" />
    <glyph glyph-name="greater" unicode="&#x3e;" horiz-adv-x="737" 
d="M272 1071l367 -381l-14 -80l-500 -381l-57 70l462 352l-331 350z" />
    <glyph glyph-name="question" unicode="?" horiz-adv-x="1241" 
d="M248 1040h-96q18 120 77 204q59 85 147 130q89 46 180 65t198 19q219 0 346 -100t139 -248q10 -151 -83 -281q-93 -128 -273 -178q-150 -41 -233 -134q-83 -94 -83 -228h-96q0 329 381 448q144 45 220 143q75 97 69 203q-6 125 -109 202t-295 77q-429 0 -489 -322z
M414 57q0 44 28 69q29 26 66 26q29 0 50 -18q22 -19 22 -48q0 -43 -28 -69q-26 -25 -67 -25q-30 0 -50 17q-21 18 -21 48z" />
    <glyph glyph-name="at" unicode="@" horiz-adv-x="1818" 
d="M1061 1423q316 0 494 -172q180 -174 180 -471q0 -92 -19 -201q-18 -103 -57 -207q-38 -102 -113 -169q-74 -66 -170 -66q-59 0 -92 46t-18 128v-2q-87 -97 -208 -153t-243 -56q-203 0 -317 121q-115 123 -115 307q0 262 182 431t432 169q129 0 230 -58q102 -59 143 -167
l31 174h90l-135 -764q-8 -41 5 -64q13 -24 38 -22q75 6 133 97q59 93 82 208q24 118 24 240q0 279 -155 418t-439 139q-361 0 -599 -238t-238 -591q0 -264 148 -413q149 -150 433 -150q157 0 338 83l41 -77q-181 -101 -395 -101q-316 0 -492 177q-176 178 -176 468
q0 252 121 466q122 215 341 342q221 128 495 128zM981 1036q-201 0 -349 -138q-149 -138 -149 -353q0 -151 92 -251q91 -99 256 -99q246 0 392 194q123 158 106 348q-18 191 -174 264q-78 35 -174 35z" />
    <glyph glyph-name="A" unicode="A" horiz-adv-x="1515" 
d="M1360 0h-115l-96 352h-856l-215 -352h-125l895 1434h121zM352 451h770l-229 872z" />
    <glyph glyph-name="B" unicode="B" horiz-adv-x="1425" 
d="M328 680l-107 -578h481q102 0 195 19q87 18 169 83q81 64 99 171q22 153 -81 229t-265 76h-491zM442 1339l-96 -555h492q78 0 144 15q71 16 127 47q61 34 95 94q35 62 35 147q0 121 -94 187q-93 65 -225 65h-478zM936 1434q176 0 292 -84q117 -85 118 -246
q2 -147 -77 -242q-80 -97 -216 -137q244 -86 223 -340q-12 -137 -105 -229q-91 -90 -215 -123q-123 -33 -272 -33h-588l252 1434h588z" />
    <glyph glyph-name="C" unicode="C" horiz-adv-x="1464" 
d="M1239 268l66 -78q-111 -100 -264 -154q-149 -52 -300 -52q-303 0 -462 172q-160 174 -160 434q0 166 59 316q60 154 168 275q107 120 279 195q171 74 374 74q308 0 484 -215l-86 -68q-153 185 -414 185q-308 0 -503 -183t-240 -456q-44 -267 90 -446t430 -179
q123 0 255 47q127 45 224 133z" />
    <glyph glyph-name="D" unicode="D" horiz-adv-x="1529" 
d="M834 1434q302 0 458 -173q156 -172 156 -427q0 -151 -57 -298q-57 -146 -162 -268q-104 -120 -274 -194q-171 -74 -373 -74h-486l252 1434h486zM815 1329h-375l-215 -1223h375q170 0 314 65q143 65 233 168q89 102 139 228q49 123 49 254q0 104 -28 191q-28 88 -87 160
q-60 73 -162 115q-104 42 -243 42z" />
    <glyph glyph-name="E" unicode="E" horiz-adv-x="1327" 
d="M438 1331l-98 -559h840l-17 -100h-839l-101 -566h905l-18 -106h-1014l252 1434h989l-18 -103h-881z" />
    <glyph glyph-name="F" unicode="F" horiz-adv-x="1280" 
d="M442 1327l-102 -575h825l-18 -105h-825l-115 -649h-111l254 1436h965l-19 -107h-854z" />
    <glyph glyph-name="G" unicode="G" horiz-adv-x="1529" 
d="M1491 1239l-76 -72q-75 92 -188 138q-115 47 -240 47q-173 0 -322 -64q-146 -62 -240 -169q-93 -105 -144 -237q-52 -135 -52 -274q0 -234 130 -379t405 -145q318 0 465 156l78 413h-506l16 97h604l-100 -555q-215 -213 -576 -213q-303 0 -463 172q-161 173 -161 436
q0 377 254 620q255 244 629 244q307 0 487 -215z" />
    <glyph glyph-name="H" unicode="H" horiz-adv-x="1540" 
d="M1231 0h-111l115 651h-913l-115 -651h-111l252 1434h111l-119 -682h913l119 682h111z" />
    <glyph glyph-name="I" unicode="I" horiz-adv-x="514" 
d="M205 0h-109l252 1434h109z" />
    <glyph glyph-name="J" unicode="J" horiz-adv-x="1372" 
d="M1112 541l141 796h-551l19 97h657l-157 -893q-45 -257 -232 -411q-186 -153 -436 -153q-246 0 -378 158t-87 406h102q-37 -205 66 -334q102 -127 315 -127q205 0 354 122q148 121 187 339z" />
    <glyph glyph-name="K" unicode="K" horiz-adv-x="1204" 
d="M1102 8l-2 -8h-139l-631 707l-125 -705h-111l252 1432h111l-115 -654l809 654h135l-2 -11l-835 -686z" />
    <glyph glyph-name="L" unicode="L" horiz-adv-x="1142" 
d="M348 1434h111l-234 -1330h807l-18 -104h-918z" />
    <glyph glyph-name="M" unicode="M" horiz-adv-x="1763" 
d="M1346 0l219 1233l-693 -799h-36l-410 789l-219 -1223h-111l252 1434h90l441 -840l723 840h104l-252 -1434h-108z" />
    <glyph glyph-name="N" unicode="N" horiz-adv-x="1525" 
d="M348 1434h47l756 -1186l209 1186h108l-251 -1434h-43l-758 1196l-209 -1196h-111z" />
    <glyph glyph-name="O" unicode="O" horiz-adv-x="1667" 
d="M985 1456q175 0 303 -60t195 -165q67 -104 91 -236q24 -130 3 -280q-41 -303 -272 -521q-233 -219 -580 -219q-156 0 -281 51q-119 49 -189 138q-67 86 -102 195q-34 106 -34 235q0 163 58 315q60 156 166 277q108 123 274 196q168 74 368 74zM967 1354q-244 0 -427 -132
t-260 -334q-77 -203 -40 -417q30 -178 154 -285q124 -108 347 -108q222 0 394 112t259 282q88 170 89 355q4 245 -126 386q-131 141 -390 141z" />
    <glyph glyph-name="P" unicode="P" horiz-adv-x="1372" 
d="M961 1333h-519l-131 -737h518q215 0 342 178q108 150 84 318q-23 171 -174 223q-55 18 -120 18zM813 496h-518l-88 -496h-111l252 1434h629q249 0 348 -189q85 -166 16 -373q-73 -212 -264 -313q-119 -63 -264 -63z" />
    <glyph glyph-name="Q" unicode="Q" horiz-adv-x="1681" 
d="M999 1452q279 0 431 -139q153 -140 174 -367q16 -213 -55 -421q-70 -205 -210 -316l150 -164l-82 -72l-147 166q-202 -153 -519 -153q-287 0 -449 162q-163 163 -163 423q-7 381 244 631t626 250zM981 1350q-312 0 -527 -214q-216 -214 -216 -526q0 -520 522 -520
q340 0 539 220q200 221 200 548q0 220 -131 356t-387 136z" />
    <glyph glyph-name="R" unicode="R" horiz-adv-x="1427" 
d="M829 549l410 -549h-139l-395 543h-402l-96 -543h-111l252 1434h631q206 0 305 -122q99 -121 82 -292q-21 -208 -153 -338q-133 -132 -384 -133zM442 1333l-120 -686h507q180 0 289 92q108 92 137 250q27 139 -46 242q-72 102 -246 102h-521z" />
    <glyph glyph-name="S" unicode="S" horiz-adv-x="1341" 
d="M1298 1204l-81 -51q-45 95 -162 145q-119 51 -244 52q-87 0 -170 -15q-87 -16 -160 -48q-78 -35 -124 -98q-46 -64 -46 -155q0 -56 30 -96q32 -43 93 -69q69 -29 123 -43q39 -10 158 -35q104 -22 161 -36q64 -16 140 -49q80 -35 120 -76q38 -40 63 -111q24 -68 7 -159
q-21 -114 -87 -195t-162 -119t-185 -53q-96 -16 -192 -16q-185 0 -339 79q-155 80 -206 233l98 49q40 -124 172 -191q129 -65 281 -65q59 0 116 6q55 6 125 26q69 20 121 51q53 31 94 87q42 58 54 129q10 57 -10 108q-19 49 -54 79q-34 30 -99 57q-61 25 -119 40
q-36 9 -136 29q-30 7 -72 16.5t-44 9.5q-50 11 -102 26q-66 19 -99 38q-31 18 -73 50q-40 30 -58 68t-23 89q-21 210 151 334q173 125 453 125q164 0 300 -64q134 -63 187 -182z" />
    <glyph glyph-name="T" unicode="T" horiz-adv-x="1200" 
d="M438 0l234 1335h-518l18 99h1147l-19 -99h-518l-233 -1335h-111z" />
    <glyph glyph-name="U" unicode="U" horiz-adv-x="1472" 
d="M1370 1434h109l-158 -891q-50 -280 -224 -420q-175 -141 -433 -141q-222 0 -355 147q-133 146 -86 414l158 891h108l-157 -891q-39 -221 60 -341t290 -120q198 0 344 116t186 345z" />
    <glyph glyph-name="V" unicode="V" horiz-adv-x="1419" 
d="M1380 1434h119l-844 -1438h-118l-336 1438h116l297 -1319z" />
    <glyph glyph-name="W" unicode="W" horiz-adv-x="2209" 
d="M539 123l675 1311h62l205 -1311l678 1311h118l-759 -1438h-119l-109 672l-78 563l-282 -559l-348 -676h-119l-248 1438h117z" />
    <glyph glyph-name="X" unicode="X" horiz-adv-x="1226" 
d="M655 821l545 613h119v-2l-612 -705l385 -725v-2h-117l-344 649l-582 -649h-131v2l662 739l-371 691v2h119z" />
    <glyph glyph-name="Y" unicode="Y" horiz-adv-x="1345" 
d="M504 0l100 573l-407 859v2h127l348 -758l626 758h129v-2l-712 -859l-101 -573h-110z" />
    <glyph glyph-name="Z" unicode="Z" horiz-adv-x="1208" 
d="M227 1333l17 101h1038l-6 -39l-1149 -1291h922l-19 -104h-1087l8 47l1139 1286h-863z" />
    <glyph glyph-name="bracketleft" unicode="[" horiz-adv-x="624" 
d="M20 -342l320 1806h371l-19 -98h-264l-285 -1610h265l-17 -98h-371z" />
    <glyph glyph-name="backslash" unicode="\" horiz-adv-x="970" 
d="M784 -168h-106l-463 1722h109z" />
    <glyph glyph-name="bracketright" unicode="]" horiz-adv-x="624" 
d="M592 1466l-320 -1806h-370l16 98h264l285 1610h-264l18 98h371z" />
    <glyph glyph-name="asciicircum" unicode="^" horiz-adv-x="1181" 
d="M1110 786l-6 -6h-107l-262 568l-471 -568h-114l-3 6l545 648h103z" />
    <glyph glyph-name="underscore" unicode="_" horiz-adv-x="1253" 
d="M14 -147l17 94h958l-16 -94h-959z" />
    <glyph glyph-name="grave" unicode="`" horiz-adv-x="479" 
d="M532 1182h-92l-123 252v2h127l91 -246z" />
    <glyph glyph-name="a" unicode="a" horiz-adv-x="1292" 
d="M1108 1012h92l-178 -1012h-96l37 215q-162 -231 -457 -231q-192 0 -312 121t-120 317q0 260 179 431t435 171q129 0 234 -60q104 -59 143 -173zM672 928q-214 0 -355 -138t-141 -354q0 -162 93 -258t253 -96q249 0 396 192q123 162 108 351q-16 189 -174 266
q-77 37 -180 37z" />
    <glyph glyph-name="b" unicode="b" horiz-adv-x="1294" 
d="M735 932q-201 0 -348 -141t-147 -355q0 -159 95 -257q94 -97 251 -97q206 0 352 135q145 135 145 371q0 168 -91 256t-257 88zM309 1434h99l-113 -631q78 115 204 170q125 55 259 55q194 0 310 -114t116 -314q0 -282 -174 -449q-175 -167 -435 -167q-131 0 -234 63
q-102 62 -146 176l-39 -223h-99z" />
    <glyph glyph-name="c" unicode="c" horiz-adv-x="1064" 
d="M852 203l55 -70q-173 -149 -395 -149q-193 0 -315 119q-123 120 -123 317q0 270 175 439t447 169q211 0 340 -151l-71 -64q-100 121 -285 121q-220 0 -363 -136t-143 -366q0 -166 99 -260q98 -94 255 -94q176 0 324 125z" />
    <glyph glyph-name="d" unicode="d" horiz-adv-x="1292" 
d="M672 932q-207 0 -353 -134q-145 -133 -145 -372q0 -344 348 -344q205 0 350 142q146 143 146 354q0 157 -96 256q-95 98 -250 98zM1176 1434h98l-252 -1434h-98l37 209q-162 -225 -463 -225q-192 0 -308 112t-116 314q0 282 175 450t435 168q133 0 234 -61t139 -176z" />
    <glyph glyph-name="e" unicode="e" horiz-adv-x="1198" 
d="M506 -16q-192 0 -312 119q-122 120 -120 315q5 260 186 434q184 176 430 176q233 0 354 -145q122 -146 46 -424h-916q-17 -174 81 -278q97 -103 267 -103q104 0 215 42q110 41 178 116l62 -58q-89 -94 -216 -144q-129 -50 -255 -50zM188 549h828q33 189 -54 288t-288 99
q-164 0 -300 -103t-186 -284z" />
    <glyph glyph-name="f" unicode="f" horiz-adv-x="727" 
d="M264 0h-98l162 915h-207l16 89h207l18 104q30 169 116 258q85 88 247 88q107 0 188 -70l-53 -65q-73 49 -147 49q-104 0 -164 -56q-61 -56 -88 -204l-19 -104h334l-16 -89h-334z" />
    <glyph glyph-name="g" unicode="g" horiz-adv-x="1288" 
d="M688 928q-198 0 -347 -141q-148 -141 -148 -351q0 -166 87 -262t261 -96q249 0 395 194q123 161 106 351q-16 191 -174 268q-77 37 -180 37zM1124 1012h93l-183 -1039q-43 -245 -193 -369q-149 -124 -380 -124q-215 0 -325 97q-112 98 -91 263h90q-12 -136 77 -202
q88 -66 255 -66q175 0 305 94q132 95 166 305l43 230q-172 -217 -459 -217q-207 0 -318 118q-112 120 -112 320q0 258 184 430t431 172q131 0 231 -59q103 -61 143 -172z" />
    <glyph glyph-name="h" unicode="h" horiz-adv-x="1200" 
d="M309 1434h97l-107 -611q146 199 399 203q207 0 295 -121t51 -325l-102 -580h-98l102 580q61 352 -264 352q-157 0 -278 -109q-119 -107 -148 -268l-98 -555h-101z" />
    <glyph glyph-name="i" unicode="i" horiz-adv-x="428" 
d="M336 1016h-100l-179 -1016h101zM266 1337q0 43 30 69q31 26 66 26q30 0 49 -18t19 -48q0 -44 -30 -69q-29 -25 -68 -25q-28 0 -46 17q-20 18 -20 48z" />
    <glyph glyph-name="j" unicode="j" horiz-adv-x="423" 
d="M332 1014h-96l-205 -1159q-22 -122 -67 -188q-43 -64 -150 -64q-81 0 -148 41l-43 -86q83 -50 174 -50q156 0 230 91q74 90 102 256zM260 1337q0 43 30 69q31 26 66 26q28 0 48 -18t20 -48q0 -44 -30 -69q-29 -25 -66 -25q-30 0 -48 17q-20 18 -20 48z" />
    <glyph glyph-name="k" unicode="k" horiz-adv-x="944" 
d="M309 1434h99l-152 -865l555 443h133v-4l-596 -482l479 -520l-2 -6h-123l-458 496l-88 -496h-99z" />
    <glyph glyph-name="l" unicode="l" horiz-adv-x="456" 
d="M324 1434h100l-252 -1434h-100z" />
    <glyph glyph-name="m" unicode="m" horiz-adv-x="1914" 
d="M1657 0h-101l107 606q27 150 -42 241t-222 91q-143 0 -250 -97q-108 -98 -135 -241l-107 -600h-100l106 600q27 149 -43 243q-69 93 -223 93q-144 0 -250 -94t-133 -242l-106 -600h-101l179 1012h94l-27 -168q130 188 363 188q128 0 219 -61q92 -62 110 -189
q66 125 177 188q109 62 243 62q186 0 284 -119q97 -118 64 -307z" />
    <glyph glyph-name="n" unicode="n" 
d="M236 1012h98l-31 -181q144 195 395 199q210 0 312 -119t65 -327l-102 -584h-101l103 582q30 174 -45 262q-76 89 -254 88q-155 -1 -274 -107q-117 -104 -146 -262l-98 -563h-101z" />
    <glyph glyph-name="o" unicode="o" 
d="M504 -16q-194 0 -313 116t-119 314q0 266 183 440t433 174q190 0 311 -120t121 -318q0 -268 -183 -437q-182 -169 -433 -169zM522 82q202 0 350 137t148 356q0 163 -97 261t-251 98q-201 0 -350 -143q-150 -144 -150 -361q0 -160 97 -254t253 -94z" />
    <glyph glyph-name="p" unicode="p" horiz-adv-x="1294" 
d="M588 78q208 0 351 136q144 136 144 374q0 168 -92 255q-91 87 -256 87q-203 0 -347 -144t-144 -352q0 -157 95 -257q94 -99 249 -99zM68 -489h-97l265 1501h98l-39 -221q80 115 205 175q124 60 274 60q184 -4 298 -118t114 -308q0 -285 -179 -452q-178 -166 -438 -166
q-133 0 -231 65q-97 65 -141 189z" />
    <glyph glyph-name="q" unicode="q" horiz-adv-x="1294" 
d="M522 76q200 0 346 145q148 146 148 354q0 157 -94 255q-95 100 -248 100q-212 0 -355 -133t-143 -373q0 -171 90 -259q91 -89 256 -89zM938 -489h-96l127 722q-84 -121 -208 -187q-121 -64 -255 -64q-193 0 -312 112q-120 112 -120 316q0 272 173 439q172 166 421 177
q145 0 252 -70q103 -68 141 -190l43 246h98z" />
    <glyph glyph-name="r" unicode="r" horiz-adv-x="825" 
d="M236 1012h94l-27 -181q63 98 162 144q102 47 207 47q114 2 207 -59l-56 -86q-68 47 -164 47q-141 0 -257 -98t-140 -236l-104 -590h-101z" />
    <glyph glyph-name="s" unicode="s" horiz-adv-x="1024" 
d="M944 893l-72 -64q-101 107 -299 107q-136 0 -237 -53q-100 -52 -100 -152q0 -107 165 -147q43 -9 91 -17l18 -4q79 -14 113 -22q48 -11 105 -34q61 -24 94 -53q34 -29 52 -80q19 -53 5 -114q-21 -103 -104 -170q-80 -64 -172 -86q-84 -20 -191 -20q-302 0 -406 206l78 60
q99 -170 346 -170q122 0 223 43q103 44 125 149q10 48 -8 85q-18 36 -68 59q-47 21 -96 34q-34 9 -121 23q-101 16 -172 38q-66 21 -122 75q-54 52 -54 133q0 151 134 231t319 78q232 0 354 -135z" />
    <glyph glyph-name="t" unicode="t" horiz-adv-x="755" 
d="M401 1307l101 10l-56 -305h322l-16 -88h-322l-106 -613q-21 -115 7 -175q27 -58 138 -58q69 0 162 41l20 -82q-113 -51 -198 -51q-154 0 -205 84q-51 85 -23 241l107 613h-215l16 88h215z" />
    <glyph glyph-name="u" unicode="u" horiz-adv-x="1230" 
d="M997 0h-98l33 182q-145 -196 -395 -196q-207 0 -312 118t-67 326l102 584h100l-102 -582q-30 -174 45 -262q77 -90 254 -90q155 0 273 106t147 265l98 563h101z" />
    <glyph glyph-name="v" unicode="v" horiz-adv-x="1101" 
d="M385 0l-246 1012h111l205 -897l532 897h111l-602 -1012h-111z" />
    <glyph glyph-name="w" unicode="w" horiz-adv-x="1675" 
d="M1661 1012l-535 -1012h-112l-86 442l-54 394l-196 -396l-242 -440h-110l-183 1012h111l147 -895l467 895h72l147 -895l463 895h111z" />
    <glyph glyph-name="x" unicode="x" horiz-adv-x="968" 
d="M248 1012l233 -414l377 414h121v-4l-449 -490l299 -514v-4h-112l-254 453l-416 -453h-119v4l484 531l-277 473v4h113z" />
    <glyph glyph-name="y" unicode="y" horiz-adv-x="1224" 
d="M874 -39l41 221q-143 -193 -401 -198q-205 0 -309 119q-105 120 -68 327l103 582h100l-102 -580q-30 -173 45 -263q76 -90 254 -89q154 1 272 107q116 104 145 264l99 561h100l-184 -1049q-44 -244 -184 -363q-141 -120 -359 -120q-207 0 -300 95q-94 96 -73 265h90
q-15 -134 62 -200t237 -66q165 0 281 94t151 293z" />
    <glyph glyph-name="z" unicode="z" horiz-adv-x="927" 
d="M147 922l17 90h762l-6 -39l-793 -879h637l-16 -94h-795l6 35l797 887h-609z" />
    <glyph glyph-name="braceleft" unicode="{" horiz-adv-x="616" 
d="M408 -178l-15 -78q-190 -27 -242 36q-53 63 -20 243l53 301q43 241 -118 241l14 80q161 0 205 242l49 276q33 179 112 246q80 68 248 35l-12 -70q-129 21 -182 -24q-54 -46 -78 -187l-47 -276q-6 -44 -19 -87q-12 -43 -30 -79q-21 -43 -58 -73q-38 -30 -90 -42
q47 -12 74 -41q28 -29 32 -75q5 -48 2 -79q-1 -8 -12 -87l-53 -301q-24 -140 13 -182t174 -19z" />
    <glyph glyph-name="bar" unicode="|" horiz-adv-x="481" 
d="M442 1444l-297 -1686h-106l297 1686h106z" />
    <glyph glyph-name="braceright" unicode="}" horiz-adv-x="614" 
d="M-86 -268l14 78q128 -23 180 19t76 181l54 301q8 51 18 87q12 40 31 80q22 46 57 74q38 30 90 42q-48 12 -75 41q-28 29 -32 74q-5 47 -2 78q2 26 11 87l49 277q24 142 -12 186q-38 46 -172 25l12 70q181 33 238 -35q57 -67 24 -246l-49 -277q-43 -241 121 -241l-15 -80
q-160 0 -204 -242l-54 -301q-33 -179 -106 -242q-74 -63 -254 -36z" />
    <glyph glyph-name="asciitilde" unicode="~" horiz-adv-x="1273" 
d="M1057 729l78 -35q-52 -124 -166 -171q-111 -46 -238 12l-203 114q-89 44 -175 14t-130 -122l-73 34q57 130 178 176q119 45 247 -18l195 -106q191 -96 287 102z" />
    <glyph glyph-name="exclamdown" unicode="&#xa1;" horiz-adv-x="452" 
d="M-4 -412h104l203 1145h-104zM367 965q0 -43 -30 -69q-31 -26 -67 -26q-28 0 -48 18q-19 18 -19 48q0 44 29 69t67 25q30 0 48 -17q20 -18 20 -48z" />
    <glyph glyph-name="cent" unicode="&#xa2;" horiz-adv-x="1099" 
d="M561 -29l-26 -145h-99l27 145q-178 17 -285 127q-108 111 -108 297q0 252 166 417t407 187l23 123h98l-23 -123q186 -21 293 -149l-80 -64q-105 123 -278 123q-210 0 -358 -135t-148 -366q0 -166 99 -255q101 -90 259 -90q169 0 320 127l57 -71q-157 -132 -344 -148z" />
    <glyph glyph-name="sterling" unicode="&#xa3;" horiz-adv-x="1306" 
d="M125 631l16 88h164q-12 159 -12 201q0 270 164 398t409 128q90 0 169 -19q72 -17 134 -59q59 -40 83 -116t8 -177h-89q12 81 -10 137q-22 57 -74 87q-51 30 -108 42q-62 13 -129 13q-202 0 -330 -104q-127 -103 -127 -316q0 -31 5 -116t5 -99h533l-16 -88h-514
q0 -158 -52 -286q-51 -126 -200 -247h952l-16 -98h-1076l17 92q174 152 231 276q55 121 49 263h-186z" />
    <glyph glyph-name="currency" unicode="&#xa4;" horiz-adv-x="1169" 
d="M1112 1053l-143 -121q47 -77 47 -197q0 -180 -142 -334l101 -122l-84 -72l-105 123q-113 -76 -264 -76q-150 0 -241 76l-144 -123l-59 72l145 122q-51 78 -51 199q0 185 141 332l-98 121l84 71l98 -123q119 80 271 80q144 0 239 -80l146 123zM539 350q167 0 271 115
q103 113 103 258q0 111 -67 187q-68 77 -195 77q-172 0 -274 -116q-103 -117 -103 -259q0 -110 69 -186t196 -76z" />
    <glyph glyph-name="yen" unicode="&#xa5;" horiz-adv-x="1361" 
d="M260 342l14 84h316l24 129h-315l14 84h273l-377 793v2h115l360 -775l637 775h119v-2l-660 -793h285l-14 -84h-328l-25 -129h328l-14 -84h-328l-59 -342h-109l59 342h-315z" />
    <glyph glyph-name="brokenbar" unicode="&#xa6;" horiz-adv-x="485" 
d="M315 700h-110l131 746h110zM180 563h111l-131 -743h-111z" />
    <glyph glyph-name="section" unicode="&#xa7;" horiz-adv-x="1107" 
d="M1065 1331l-74 -63q-101 104 -297 104q-137 0 -237 -52q-101 -53 -101 -146q0 -44 24 -74q25 -31 72 -49q56 -21 83 -28q30 -8 94 -19l55 -10q26 -3 56 -10q43 -9 56 -14q50 -18 53 -19q33 -12 49 -22q4 -3 12 -8t15.5 -10t14.5 -10q26 -18 33 -34q6 -14 21 -41
q14 -25 10 -50q-6 -36 -7 -59q-38 -186 -247 -232q202 -63 165 -243q-21 -103 -101 -168q-81 -66 -171 -87q-94 -22 -192 -22q-139 0 -250 51t-158 148l84 63q45 -84 139 -126q95 -42 203 -42q44 0 103 9q53 8 104 27q52 20 92 59q39 39 51 94q24 112 -123 155
q-39 13 -174 35q-350 57 -350 246q0 84 68 164t170 113q-156 60 -156 192q0 154 136 233q136 80 321 78q236 0 354 -133zM903 723q12 85 -73 134q-86 50 -212 54q-138 4 -242 -50t-104 -163q0 -71 79 -116q80 -46 190 -50q83 -1 161 17q77 18 134 63q56 45 67 111z" />
    <glyph glyph-name="dieresis" unicode="&#xa8;" horiz-adv-x="931" 
d="M375 1374q0 44 29 69t67 25q30 0 48 -17q20 -18 20 -48q0 -43 -28 -69q-26 -25 -67 -25q-69 0 -69 65zM819 1374q0 44 30 69q29 25 66 25q31 0 49 -17q19 -18 19 -48q0 -43 -28 -69q-26 -25 -66 -25q-70 0 -70 65z" />
    <glyph glyph-name="copyright" unicode="&#xa9;" horiz-adv-x="1716" 
d="M1010 1460q298 0 459 -171q161 -172 161 -445q0 -359 -248 -619t-637 -260q-296 0 -458 175q-162 176 -162 446q0 232 106 429q105 196 312 321q205 124 467 124zM1133 434l-56 70q-103 -86 -227 -86q-113 0 -183 67q-71 68 -71 183q0 154 107 255t253 101q129 0 201 -84
l76 61q-92 117 -260 117q-195 0 -337 -135t-142 -330q0 -149 93 -242q94 -94 244 -94q169 0 302 117zM227 598q0 -244 132 -392q132 -149 403 -149q338 0 553 227t215 545q0 244 -135 393q-135 148 -402 148q-338 0 -552 -226t-214 -546z" />
    <glyph glyph-name="ordfeminine" unicode="&#xaa;" horiz-adv-x="1028" 
d="M877 1309l22 127h90l-117 -664h-90l23 129q-117 -137 -285 -137q-126 0 -205 78t-79 207q0 176 120 286q122 111 285 111q78 0 141 -36q66 -38 95 -101zM631 1352q-116 0 -204 -83q-87 -83 -87 -204q0 -94 48 -151q47 -56 142 -56q159 0 248 137q76 118 41 234
q-39 123 -188 123zM164 520l16 98h684l-16 -98h-684z" />
    <glyph glyph-name="guillemotleft" unicode="&#xab;" horiz-adv-x="837" 
d="M104 608l363 449h106l-2 -10l-354 -439l201 -438l-2 -12h-107zM541 158l-205 450l362 449h107l-2 -10l-354 -439l200 -438l-2 -12h-106z" />
    <glyph glyph-name="logicalnot" unicode="&#xac;" horiz-adv-x="1030" 
d="M891 741l-68 -383h-102l49 279h-608l18 104h711z" />
    <glyph glyph-name="registered" unicode="&#xae;" horiz-adv-x="1716" 
d="M1010 1460q296 0 458 -175t162 -445q0 -231 -106 -428q-107 -199 -312 -323t-467 -124q-296 0 -458 176q-162 175 -162 447q0 230 106 427q105 195 313 321q205 124 466 124zM229 596q0 -237 139 -388t394 -151q337 0 552 227q214 226 214 545q0 239 -139 390t-396 151
q-227 0 -402 -107q-178 -109 -269 -283q-93 -178 -93 -384zM973 627q159 21 235 155q68 122 17 228t-201 106h-348l-137 -784h96l51 295h180l195 -295h106l2 16zM700 713l56 309h252q112 0 135 -90q21 -84 -47 -158q-60 -61 -150 -61h-246z" />
    <glyph glyph-name="macron" unicode="&#xaf;" horiz-adv-x="806" 
d="M309 1343l17 95h643l-17 -95h-643z" />
    <glyph glyph-name="degree" unicode="&#xb0;" horiz-adv-x="661" 
d="M414 1083q-93 0 -140 47t-47 119q0 92 72 164t186 72q90 0 136 -49q47 -50 47 -121q0 -89 -70 -161q-69 -71 -184 -71zM428 1161q65 0 106 44q39 42 39 100q0 43 -26 72q-27 30 -76 30q-67 0 -110 -45q-44 -46 -44 -98q0 -42 28 -73q27 -30 83 -30z" />
    <glyph glyph-name="plusminus" unicode="&#xb1;" horiz-adv-x="1071" 
d="M172 707l14 92h334l60 336h94l-60 -336h332l-14 -92h-332l-61 -340h-95l62 340h-334zM80 96l16 97h733l-16 -97h-733z" />
    <glyph glyph-name="twosuperior" unicode="&#xb2;" horiz-adv-x="724" 
d="M328 1399h-95q39 217 316 217q96 0 164 -43q69 -43 69 -141q0 -82 -30 -138t-82 -80q-52 -25 -98 -32q-50 -8 -97 -8q-187 6 -211 -134l-10 -63h448l-18 -100h-547q1 3 6.5 33.5t8.5 50.5q6 37 14 79q21 113 110 168q91 56 211 56q201 0 201 155q0 113 -158 113
q-81 0 -135 -28q-52 -27 -67 -105z" />
    <glyph glyph-name="threesuperior" unicode="&#xb3;" horiz-adv-x="724" 
d="M489 1219h-112l16 84h105q76 0 136 33q62 34 62 98q0 40 -41 70q-40 30 -116 30q-63 0 -128 -31q-63 -30 -75 -102h-88q18 110 105 162q88 53 200 53q103 0 170 -42q68 -42 68 -124q0 -72 -42 -124t-108 -69q53 -15 79 -55q28 -42 28 -86q0 -125 -97 -186
q-96 -60 -231 -60q-118 0 -188 53q-68 52 -50 167h94q-10 -54 22 -85q32 -30 64 -36q33 -6 76 -6q211 0 211 143q0 44 -39 78q-40 35 -121 35z" />
    <glyph glyph-name="acute" unicode="&#xb4;" horiz-adv-x="458" 
d="M387 1182h-98l2 8l196 246h134v-2z" />
    <glyph glyph-name="mu" unicode="&#xb5;" horiz-adv-x="1214" 
d="M920 143q-67 -94 -180 -141t-219 -43q-109 5 -197 59q-90 56 -117 150l-109 -631h-104l258 1469h100l-104 -594q-38 -199 106 -301q123 -90 289 -50q186 44 272 224q32 67 46 139l102 582h100l-176 -1006h-86z" />
    <glyph glyph-name="mu" unicode="&#x3bc;" horiz-adv-x="1214" 
d="M920 143q-67 -94 -180 -141t-219 -43q-109 5 -197 59q-90 56 -117 150l-109 -631h-104l258 1469h100l-104 -594q-38 -199 106 -301q123 -90 289 -50q186 44 272 224q32 67 46 139l102 582h100l-176 -1006h-86z" />
    <glyph glyph-name="paragraph" unicode="&#xb6;" horiz-adv-x="1599" 
d="M868 1341l-313 -1783h-100l147 841q-273 0 -375 205q-86 177 -8 402q77 226 275 344q134 82 299 82h956l-16 -91h-217l-314 -1783h-96l313 1783h-551z" />
    <glyph glyph-name="periodcentered" unicode="&#xb7;" horiz-adv-x="458" 
d="M141 559q0 43 30 69q29 25 67 25q30 0 48 -17q19 -18 19 -48q0 -43 -29 -69q-28 -25 -67 -25q-30 0 -48 17q-20 18 -20 48z" />
    <glyph glyph-name="cedilla" unicode="&#xb8;" horiz-adv-x="606" 
d="M168 -145l-10 10l71 180h80l-47 -119q80 5 126 -28q47 -33 48 -82q2 -52 -16 -103q-30 -68 -96 -103q-65 -34 -142 -34q-65 0 -116 30t-72 83l63 51q41 -80 140 -80q105 0 143 78q28 61 -16 100q-45 39 -156 17z" />
    <glyph glyph-name="onesuperior" unicode="&#xb9;" horiz-adv-x="485" 
d="M123 874l14 84h129l94 533l-116 -29l14 90l219 47l-112 -641h133l-15 -84h-360z" />
    <glyph glyph-name="ordmasculine" unicode="&#xba;" horiz-adv-x="991" 
d="M158 532l16 99h653l-16 -99h-653zM524 764q-126 0 -205 78t-79 207q0 176 120 286q122 111 285 111q125 0 205 -77t80 -206q0 -176 -122 -287q-123 -112 -284 -112zM541 858q116 0 200 84t84 205q0 91 -54 148t-142 57q-116 0 -201 -83q-84 -83 -84 -206q0 -92 54 -149
q53 -56 143 -56z" />
    <glyph glyph-name="guillemotright" unicode="&#xbb;" horiz-adv-x="829" 
d="M727 610l-362 -450h-107l2 12l354 438l-198 439v10h106zM504 610l-363 -450h-106l2 12l354 438l-198 439v10h106z" />
    <glyph glyph-name="onequarter" unicode="&#xbc;" horiz-adv-x="1464" 
d="M1229 729h98l-84 -477h86l-14 -90h-86l-29 -160h-92l29 160h-394l7 76zM870 252h281l63 354zM287 -4h-109l1016 1444h111zM119 713l14 84h129l94 532l-116 -29l14 91l219 47l-113 -641h134l-15 -84h-360z" />
    <glyph glyph-name="onehalf" unicode="&#xbd;" horiz-adv-x="1574" 
d="M1020 522h-94q39 217 315 217q99 0 168 -45q70 -46 70 -143q0 -79 -33 -131q-33 -53 -86 -77q-52 -24 -99 -33t-96 -9q-65 0 -133 -31q-65 -30 -80 -108l-14 -76h448l-16 -86h-541l31 164q18 106 112 165q92 58 210 58q207 0 207 158q0 108 -164 108q-182 0 -205 -131z
M281 -4h-109l1014 1444h110zM117 715l14 84h129l94 532l-116 -28l14 90l219 47l-113 -641h134l-15 -84h-360z" />
    <glyph glyph-name="threequarters" unicode="&#xbe;" horiz-adv-x="1527" 
d="M465 1069h-111l15 82h102q72 0 136 32q63 31 63 95q0 41 -42 71q-41 29 -116 29q-66 0 -124 -29q-60 -30 -75 -102h-86q21 107 105 159q83 52 194 52q101 0 167 -45q67 -46 67 -129q0 -68 -41 -115q-40 -46 -107 -63q52 -12 79 -53q28 -42 28 -86q0 -127 -93 -184
q-91 -56 -229 -56q-114 0 -183 51q-68 50 -50 164h92q-11 -53 19 -83t62 -36q31 -6 73 -6q213 0 213 141q0 42 -39 76q-40 35 -119 35zM412 -4h-109l1014 1444h110zM1313 729h98l-84 -477h86l-16 -90h-86l-29 -160h-92l29 160h-394l6 76zM954 252h281l61 354z" />
    <glyph glyph-name="questiondown" unicode="&#xbf;" horiz-adv-x="1226" 
d="M1063 -10h-96q-60 -322 -490 -322q-192 0 -295 77q-102 76 -108 202q-6 108 68 204q75 97 220 142q381 119 381 448h-96q0 -134 -83 -228t-232 -134q-182 -50 -274 -178q-93 -130 -83 -281q12 -147 140 -248q127 -100 346 -100q106 0 197 19q93 20 181 65q86 44 146 130
t78 204zM801 973q0 -43 -29 -69q-28 -25 -65 -25q-31 0 -51 17q-21 18 -21 48q0 43 28 69q26 25 66 25q30 0 50 -17q22 -19 22 -48z" />
    <glyph glyph-name="Agrave" unicode="&#xc0;" horiz-adv-x="1515" 
d="M1360 0h-115l-96 352h-856l-215 -352h-125l895 1434h121zM352 451h770l-229 872zM971 1581h-92l-123 252v2h127l90 -246z" />
    <glyph glyph-name="Aacute" unicode="&#xc1;" horiz-adv-x="1515" 
d="M1245 0h115l-391 1434h-121l-895 -1434h125l215 352h856zM1122 451h-770l541 872zM967 1579h-99l2 8l197 246h133v-2z" />
    <glyph glyph-name="Acircumflex" unicode="&#xc2;" horiz-adv-x="1515" 
d="M1245 0h115l-391 1434h-121l-895 -1434h125l215 352h856zM1122 451h-770l541 872zM600 1569l340 270h82l242 -270l-2 -15h-103l-190 205l-258 -205h-113z" />
    <glyph glyph-name="Atilde" unicode="&#xc3;" horiz-adv-x="1515" 
d="M1360 0h-115l-96 352h-856l-215 -352h-125l895 1434h121zM352 451h770l-229 872zM752 1608l-66 22q24 90 105 122q79 31 145 -9l76 -45q29 -20 72 -5q42 15 63 64l65 -22q-24 -92 -103 -125q-78 -32 -144 8l-78 45q-30 21 -73 6q-41 -15 -62 -61z" />
    <glyph glyph-name="Adieresis" unicode="&#xc4;" horiz-adv-x="1515" 
d="M1245 0h115l-391 1434h-121l-895 -1434h125l215 352h856zM1122 451h-770l541 872zM649 1647q0 43 30 68q31 26 66 26q30 0 49 -18t19 -48q0 -42 -28 -68t-66 -26q-70 0 -70 66zM1094 1647q0 43 29 68q31 26 67 26q28 0 48 -18q19 -18 19 -48q0 -43 -27 -68
q-28 -26 -67 -26q-69 0 -69 66z" />
    <glyph glyph-name="Aring" unicode="&#xc5;" horiz-adv-x="1515" 
d="M725 1577q0 108 77 171q75 62 177 62q78 0 133 -43t55 -122q0 -87 -54 -147t-140 -81l387 -1417h-119l-96 352h-856l-217 -352h-119l887 1419q-115 29 -115 158zM350 455h770l-231 872zM963 1733q-66 0 -105 -44q-39 -43 -39 -98q0 -41 26 -72q25 -30 75 -30q67 0 109 43
q42 44 42 96q0 44 -28 75q-27 30 -80 30z" />
    <glyph glyph-name="AE" unicode="&#xc6;" horiz-adv-x="1908" 
d="M1157 1333l-100 -561h706l-16 -100h-707l-100 -568h776l-18 -104h-879l90 508h-512l-391 -508h-127l1125 1434h917l-16 -101h-748zM926 608l131 742h-10l-574 -742h453z" />
    <glyph glyph-name="Ccedilla" unicode="&#xc7;" horiz-adv-x="1460" 
d="M616 -197l-10 11l74 172q-273 18 -417 187t-144 417q0 219 102 412q102 194 307 321t471 127q308 0 484 -215l-86 -66q-151 183 -414 183q-301 0 -500 -184q-198 -183 -243 -455q-44 -267 90 -447t430 -180q263 0 479 182l61 -69q-247 -209 -542 -215l-45 -109
q78 4 126 -28q47 -31 48 -78q2 -47 -17 -101q-29 -71 -97 -109q-67 -38 -140 -38q-67 0 -120 28t-75 82l70 58q41 -80 139 -80q107 0 144 78q28 61 -18 100t-157 16z" />
    <glyph glyph-name="Egrave" unicode="&#xc8;" horiz-adv-x="1327" 
d="M438 1331l-98 -559h840l-17 -100h-839l-101 -566h905l-18 -106h-1014l252 1434h989l-18 -103h-881zM973 1599h-92l-123 252v2h127l90 -245z" />
    <glyph glyph-name="Eacute" unicode="&#xc9;" horiz-adv-x="1327" 
d="M340 772l98 559h881l18 103h-989l-252 -1434h1014l18 106h-905l101 566h839l17 100h-840zM903 1593h-98l2 9l197 245h133v-2z" />
    <glyph glyph-name="Ecircumflex" unicode="&#xca;" horiz-adv-x="1327" 
d="M340 772l98 559h881l18 103h-989l-252 -1434h1014l18 106h-905l101 566h839l17 100h-840zM559 1597l340 271h82l242 -271l-2 -14h-103l-190 205l-258 -205h-113z" />
    <glyph glyph-name="Edieresis" unicode="&#xcb;" horiz-adv-x="1327" 
d="M340 772l98 559h881l18 103h-989l-252 -1434h1014l18 106h-905l101 566h839l17 100h-840zM616 1661q0 43 30 69q29 25 67 25q30 0 48 -17q19 -18 19 -48q0 -44 -27 -69q-28 -26 -67 -26q-70 0 -70 66zM1061 1661q0 43 30 69q29 25 66 25q30 0 48 -17q20 -18 20 -48
q0 -43 -28 -69t-67 -26q-69 0 -69 66z" />
    <glyph glyph-name="Igrave" unicode="&#xcc;" horiz-adv-x="514" 
d="M205 0h-109l252 1434h109zM475 1593h-92l-123 252v2h127l90 -245z" />
    <glyph glyph-name="Iacute" unicode="&#xcd;" horiz-adv-x="514" 
d="M96 0h109l252 1434h-109zM471 1591h-98l2 8l196 246h134v-2z" />
    <glyph glyph-name="Icircumflex" unicode="&#xce;" horiz-adv-x="514" 
d="M96 0h109l252 1434h-109zM102 1571l306 268h73l217 -268l-2 -15h-92l-170 203l-231 -203h-103z" />
    <glyph glyph-name="Idieresis" unicode="&#xcf;" horiz-adv-x="514" 
d="M197 1645q0 43 28 68q29 26 68 26q28 0 49 -18q20 -17 20 -48q0 -43 -28 -68q-29 -26 -68 -26q-29 0 -49 17t-20 49zM520 1645q0 42 29 68t67 26q29 0 50 -18q20 -17 20 -48q0 -42 -29 -68t-67 -26q-29 0 -49 17q-21 18 -21 49zM96 0h109l252 1434h-109z" />
    <glyph glyph-name="Eth" unicode="&#xd0;" horiz-adv-x="1542" 
d="M74 659l16 91h152l120 684h486q151 0 275 -51q120 -49 192 -135q70 -83 108 -190q37 -104 37 -224q0 -152 -58 -298q-58 -145 -164 -268q-104 -120 -274 -194q-171 -74 -370 -74h-485l116 659h-151zM829 1335h-374l-103 -585h334l-16 -91h-334l-98 -553h374q171 0 316 65
q143 64 232 168q88 103 138 228q50 126 50 254q0 105 -27 193t-84 163q-56 73 -161 116q-104 42 -247 42z" />
    <glyph glyph-name="Ntilde" unicode="&#xd1;" horiz-adv-x="1525" 
d="M348 1434h47l756 -1186l209 1186h108l-251 -1434h-43l-758 1196l-209 -1196h-111zM745 1602l-65 22q24 90 104 122t146 -9l76 -45q29 -20 72 -5q42 15 63 64l65 -22q-24 -92 -103 -125t-145 8l-77 45q-30 21 -73 6q-42 -15 -63 -61z" />
    <glyph glyph-name="Ograve" unicode="&#xd2;" horiz-adv-x="1667" 
d="M985 1456q175 0 303 -60t195 -165q67 -104 91 -236q24 -130 3 -280q-41 -303 -272 -521q-233 -219 -580 -219q-156 0 -281 51q-119 49 -189 138q-67 86 -102 195q-34 106 -34 235q0 163 58 315q60 156 166 277q108 123 274 196q168 74 368 74zM967 1354q-244 0 -427 -132
t-260 -334q-77 -203 -40 -417q30 -178 154 -285q124 -108 347 -108q222 0 394 112t259 282q88 170 89 355q4 245 -126 386q-131 141 -390 141zM1061 1604h-92l-123 251v3h127l90 -246z" />
    <glyph glyph-name="Oacute" unicode="&#xd3;" horiz-adv-x="1667" 
d="M985 1456q-200 0 -368 -74q-166 -73 -274 -196q-106 -121 -166 -277q-58 -152 -58 -315q0 -129 34 -235q35 -109 102 -195q70 -89 189 -138q125 -51 281 -51q347 0 580 219q231 218 272 521q21 150 -3 280q-24 132 -91 236q-67 105 -195 165t-303 60zM967 1354
q259 0 390 -141q130 -141 126 -386q-1 -185 -89 -355q-87 -170 -259 -282t-394 -112q-223 0 -347 108q-124 107 -154 285q-37 214 40 417q77 202 260 334t427 132zM1053 1604h-99l2 8l197 246h133v-3z" />
    <glyph glyph-name="Ocircumflex" unicode="&#xd4;" horiz-adv-x="1667" 
d="M985 1456q-200 0 -368 -74q-166 -73 -274 -196q-106 -121 -166 -277q-58 -152 -58 -315q0 -129 34 -235q35 -109 102 -195q70 -89 189 -138q125 -51 281 -51q347 0 580 219q231 218 272 521q21 150 -3 280q-24 132 -91 236q-67 105 -195 165t-303 60zM967 1354
q259 0 390 -141q130 -141 126 -386q-1 -185 -89 -355q-87 -170 -259 -282t-394 -112q-223 0 -347 108q-124 107 -154 285q-37 214 40 417q77 202 260 334t427 132zM694 1610l340 270h82l242 -270l-2 -15h-103l-190 205l-258 -205h-113z" />
    <glyph glyph-name="Otilde" unicode="&#xd5;" horiz-adv-x="1667" 
d="M985 1456q175 0 303 -60t195 -165q67 -104 91 -236q24 -130 3 -280q-41 -303 -272 -521q-233 -219 -580 -219q-156 0 -281 51q-119 49 -189 138q-67 86 -102 195q-34 106 -34 235q0 163 58 315q60 156 166 277q108 123 274 196q168 74 368 74zM967 1354q-244 0 -427 -132
t-260 -334q-77 -203 -40 -417q30 -178 154 -285q124 -108 347 -108q222 0 394 112t259 282q88 170 89 355q4 245 -126 386q-131 141 -390 141zM862 1634l-69 23q27 91 110 122t152 -10l80 -45q31 -20 75 -5q43 15 66 65l67 -23q-24 -92 -107 -125q-82 -33 -151 9l-81 45
q-33 21 -77 6t-65 -62z" />
    <glyph glyph-name="Odieresis" unicode="&#xd6;" horiz-adv-x="1667" 
d="M985 1456q-200 0 -368 -74q-166 -73 -274 -196q-106 -121 -166 -277q-58 -152 -58 -315q0 -129 34 -235q35 -109 102 -195q70 -89 189 -138q125 -51 281 -51q347 0 580 219q231 218 272 521q21 150 -3 280q-24 132 -91 236q-67 105 -195 165t-303 60zM967 1354
q259 0 390 -141q130 -141 126 -386q-1 -185 -89 -355q-87 -170 -259 -282t-394 -112q-223 0 -347 108q-124 107 -154 285q-37 214 40 417q77 202 260 334t427 132zM735 1669q0 43 30 69q29 25 66 25q31 0 49 -17q19 -18 19 -48q0 -43 -28 -69q-26 -25 -66 -25q-70 0 -70 65z
M1180 1669q0 44 29 69t67 25q30 0 48 -17q19 -18 19 -48q0 -44 -27 -69q-26 -25 -67 -25q-69 0 -69 65z" />
    <glyph glyph-name="multiply" unicode="&#xd7;" horiz-adv-x="927" 
d="M199 915l75 64l209 -252l295 250l58 -72l-295 -252l207 -247l-74 -64l-209 248l-305 -260l-58 71l306 263z" />
    <glyph glyph-name="Oslash" unicode="&#xd8;" horiz-adv-x="1669" 
d="M283 -162h-109l176 238q-115 79 -173 217t-58 301t58 315q60 156 166 277q108 123 274 196q168 74 368 74q199 0 334 -78l135 181h111l-172 -228q99 -78 148 -208q50 -132 50 -279q0 -164 -59 -314q-61 -156 -167 -278q-108 -125 -274 -201q-165 -76 -366 -76
q-160 0 -297 58zM967 1354q-168 0 -313 -64q-141 -62 -233 -168t-141 -237q-51 -138 -51 -275q0 -133 49 -254q48 -119 142 -186l833 1118q-124 66 -286 66zM743 78q171 0 311 65q143 66 234 172q94 110 144 240q51 133 51 270q0 275 -158 412l-827 -1112q106 -47 245 -47z
" />
    <glyph glyph-name="Ugrave" unicode="&#xd9;" horiz-adv-x="1472" 
d="M1370 1434h109l-158 -891q-50 -280 -224 -420q-175 -141 -433 -141q-222 0 -355 147q-133 146 -86 414l158 891h108l-157 -891q-39 -221 60 -341t290 -120q198 0 344 116t186 345zM1022 1585h-92l-123 252v2h127l90 -246z" />
    <glyph glyph-name="Uacute" unicode="&#xda;" horiz-adv-x="1472" 
d="M1479 1434h-109l-158 -891q-40 -229 -186 -345t-344 -116q-191 0 -290 120t-60 341l157 891h-108l-158 -891q-47 -268 86 -414q133 -147 355 -147q258 0 433 141q174 140 224 420zM954 1587h-98l2 8l197 246h133v-2z" />
    <glyph glyph-name="Ucircumflex" unicode="&#xdb;" horiz-adv-x="1472" 
d="M1479 1434h-109l-158 -891q-40 -229 -186 -345t-344 -116q-191 0 -290 120t-60 341l157 891h-108l-158 -891q-47 -268 86 -414q133 -147 355 -147q258 0 433 141q174 140 224 420zM623 1591l340 271h81l242 -271l-2 -14h-102l-191 205l-258 -205h-112z" />
    <glyph glyph-name="Udieresis" unicode="&#xdc;" horiz-adv-x="1472" 
d="M1479 1434h-109l-158 -891q-40 -229 -186 -345t-344 -116q-191 0 -290 120t-60 341l157 891h-108l-158 -891q-47 -268 86 -414q133 -147 355 -147q258 0 433 141q174 140 224 420zM672 1663q0 44 29 69t67 25q30 0 48 -17q20 -18 20 -48q0 -43 -28 -69t-67 -26
q-69 0 -69 66zM1116 1663q0 43 30 69q29 25 66 25q31 0 49 -17q19 -18 19 -48q0 -43 -28 -69t-66 -26q-70 0 -70 66z" />
    <glyph glyph-name="Yacute" unicode="&#xdd;" horiz-adv-x="1345" 
d="M604 573l-100 -573h110l101 573l712 859v2h-129l-626 -758l-348 758h-127v-2zM856 1591h-98l2 8l196 246h134v-2z" />
    <glyph glyph-name="Thorn" unicode="&#xde;" horiz-adv-x="1378" 
d="M98 0l252 1432h103l-43 -250h526q255 0 350 -191q84 -167 8 -373q-76 -211 -264 -311q-118 -63 -260 -63h-524l-43 -244h-105zM918 1083h-523l-131 -739h524q216 0 345 178q108 148 86 314q-21 172 -172 227q-54 20 -129 20z" />
    <glyph glyph-name="germandbls" unicode="&#xdf;" horiz-adv-x="1239" 
d="M438 731l17 90h166q80 0 161 19q75 18 150 82q74 64 92 165q27 157 -62 217q-88 60 -231 60q-315 0 -383 -305l-186 -1059h-105l187 1061q33 195 173 295t326 100q188 0 292 -84q103 -83 95 -252q-6 -120 -92 -217q-86 -96 -204 -123q135 -28 204 -114q70 -87 70 -213
q0 -173 -81 -288t-203 -159t-258 -39q-134 4 -253 58l17 94q111 -59 228 -63q122 -5 217 35q97 41 162 132q64 91 64 219q0 289 -389 289h-174z" />
    <glyph glyph-name="agrave" unicode="&#xe0;" horiz-adv-x="1292" 
d="M1108 1012h92l-178 -1012h-96l37 215q-162 -231 -457 -231q-192 0 -312 121t-120 317q0 260 179 431t435 171q129 0 234 -60q104 -59 143 -173zM672 928q-214 0 -355 -138t-141 -354q0 -162 93 -258t253 -96q249 0 396 192q123 162 108 351q-16 189 -174 266
q-77 37 -180 37zM803 1196h-92l-123 252v2h127l90 -246z" />
    <glyph glyph-name="aacute" unicode="&#xe1;" horiz-adv-x="1292" 
d="M1200 1012h-92l-43 -221q-39 114 -143 173q-105 60 -234 60q-256 0 -435 -171t-179 -431q0 -196 120 -317t312 -121q295 0 457 231l-37 -215h96zM672 928q235 0 319 -178q77 -156 0 -347q-77 -193 -258 -276q-99 -45 -211 -45q-160 0 -253 96t-93 258q0 216 141 354
t355 138zM754 1192h-99l2 8l197 246h133v-2z" />
    <glyph glyph-name="acircumflex" unicode="&#xe2;" horiz-adv-x="1292" 
d="M1200 1012h-92l-43 -221q-39 114 -143 173q-105 60 -234 60q-256 0 -435 -171t-179 -431q0 -196 120 -317t312 -121q295 0 457 231l-37 -215h96zM672 928q235 0 319 -178q77 -156 0 -347q-77 -193 -258 -276q-99 -45 -211 -45q-160 0 -253 96t-93 258q0 216 141 354
t355 138zM475 1186l318 254h77l226 -254l-2 -12h-97l-176 190l-241 -190h-107z" />
    <glyph glyph-name="atilde" unicode="&#xe3;" horiz-adv-x="1292" 
d="M1108 1012h92l-178 -1012h-96l37 215q-162 -231 -457 -231q-192 0 -312 121t-120 317q0 260 179 431t435 171q129 0 234 -60q104 -59 143 -173zM672 928q-214 0 -355 -138t-141 -354q0 -162 93 -258t253 -96q249 0 396 192q123 162 108 351q-16 189 -174 266
q-77 37 -180 37zM602 1260l-65 22q24 90 104 122q79 31 145 -9l76 -45q29 -21 73 -5q41 15 62 64l66 -23q-24 -91 -104 -124q-78 -32 -144 8l-78 45q-30 21 -72 6t-63 -61z" />
    <glyph glyph-name="adieresis" unicode="&#xe4;" horiz-adv-x="1292" 
d="M1200 1012h-92l-43 -221q-39 114 -143 173q-105 60 -234 60q-256 0 -435 -171t-179 -431q0 -196 120 -317t312 -121q295 0 457 231l-37 -215h96zM672 928q235 0 319 -178q77 -156 0 -347q-77 -193 -258 -276q-99 -45 -211 -45q-160 0 -253 96t-93 258q0 216 141 354
t355 138zM512 1337q0 43 30 69q31 26 66 26q28 0 48 -18t20 -48q0 -43 -28 -69q-26 -25 -66 -25q-70 0 -70 65zM956 1337q0 43 30 69q31 26 67 26q29 0 48 -18t19 -48q0 -44 -27 -69q-26 -25 -67 -25q-70 0 -70 65z" />
    <glyph glyph-name="aring" unicode="&#xe5;" horiz-adv-x="1292" 
d="M1108 1012h92l-178 -1012h-96l37 215q-162 -231 -457 -231q-192 0 -312 121t-120 317q0 260 179 431t435 171q129 0 234 -60q104 -59 143 -173zM672 928q-214 0 -355 -138t-141 -354q0 -162 93 -258t253 -96q249 0 396 192q123 162 108 351q-16 189 -174 266
q-77 37 -180 37zM578 1313q0 94 76 154q78 61 173 61q75 0 130 -41t55 -113q0 -95 -74 -152t-182 -57q-85 0 -131 40q-47 41 -47 108zM811 1460q-66 0 -106 -40q-41 -41 -41 -89q0 -41 26 -67q27 -27 80 -27q71 0 112 38q40 37 40 89q0 38 -28 68q-27 28 -83 28z" />
    <glyph glyph-name="ae" unicode="&#xe6;" horiz-adv-x="2111" 
d="M1419 -12q-135 0 -232 60q-96 59 -140 173l-37 -221h-84l37 215q-183 -229 -459 -229q-200 0 -316 119t-116 317q0 258 184 430t430 172q130 0 235 -60t144 -173l37 221h84l-41 -213q83 107 203 168q121 61 254 61q233 0 354 -145t45 -424h-916q-15 -172 87 -277
q101 -104 264 -104q106 0 214 43q110 43 177 117l61 -58q-178 -192 -469 -192zM670 928q-198 0 -347 -141t-149 -351q0 -164 89 -259t257 -95q248 0 398 192q123 161 106 351q-16 189 -174 266q-77 37 -180 37zM1102 547h825q33 189 -54 291t-286 102q-163 0 -300 -106
q-138 -107 -185 -287z" />
    <glyph glyph-name="ccedilla" unicode="&#xe7;" horiz-adv-x="1067" 
d="M377 -180l-12 10l67 166q-161 22 -260 135q-98 111 -98 289q0 267 182 434q183 168 438 168q214 0 342 -152l-75 -63q-100 121 -283 121q-204 0 -354 -135t-150 -361q0 -164 99 -256q100 -92 255 -92q176 0 324 125l55 -68q-178 -151 -395 -151h-2l-39 -99
q115 -2 151 -63t7 -150q-23 -75 -111 -113q-87 -38 -180 -16q-94 22 -139 101l59 51q52 -75 152 -76t139 78q28 61 -17 100t-155 17z" />
    <glyph glyph-name="egrave" unicode="&#xe8;" horiz-adv-x="1198" 
d="M506 -16q-192 0 -312 119q-122 120 -120 315q5 260 186 434q184 176 430 176q233 0 354 -145q122 -146 46 -424h-916q-17 -174 81 -278q97 -103 267 -103q104 0 215 42q110 41 178 116l62 -58q-89 -94 -216 -144q-129 -50 -255 -50zM188 549h828q33 189 -54 288t-288 99
q-164 0 -300 -103t-186 -284zM807 1182h-92l-123 252v2h127l90 -246z" />
    <glyph glyph-name="eacute" unicode="&#xe9;" horiz-adv-x="1198" 
d="M506 -16q126 0 255 50q127 50 216 144l-62 58q-68 -75 -178 -116q-111 -42 -215 -42q-170 0 -267 103q-98 104 -81 278h916q76 278 -46 424q-121 145 -354 145q-246 0 -430 -176q-181 -174 -186 -434q-2 -195 120 -315q120 -119 312 -119zM188 549q50 181 186 284
t300 103q201 0 288 -99t54 -288h-828zM745 1182h-98l2 8l197 246h133v-2z" />
    <glyph glyph-name="ecircumflex" unicode="&#xea;" horiz-adv-x="1198" 
d="M506 -16q126 0 255 50q127 50 216 144l-62 58q-68 -75 -178 -116q-111 -42 -215 -42q-170 0 -267 103q-98 104 -81 278h916q76 278 -46 424q-121 145 -354 145q-246 0 -430 -176q-181 -174 -186 -434q-2 -195 120 -315q120 -119 312 -119zM188 549q50 181 186 284
t300 103q201 0 288 -99t54 -288h-828zM397 1165l340 271h82l242 -271l-2 -14h-103l-190 205l-258 -205h-113z" />
    <glyph glyph-name="edieresis" unicode="&#xeb;" horiz-adv-x="1198" 
d="M506 -16q126 0 255 50q127 50 216 144l-62 58q-68 -75 -178 -116q-111 -42 -215 -42q-170 0 -267 103q-98 104 -81 278h916q76 278 -46 424q-121 145 -354 145q-246 0 -430 -176q-181 -174 -186 -434q-2 -195 120 -315q120 -119 312 -119zM188 549q50 181 186 284
t300 103q201 0 288 -99t54 -288h-828zM440 1315q0 43 30 68q31 26 67 26q30 0 48 -17q19 -18 19 -49q0 -43 -27 -68q-28 -26 -67 -26q-70 0 -70 66zM885 1315q0 43 29 68q31 26 67 26q30 0 48 -17q20 -18 20 -49q0 -42 -28 -68t-67 -26q-69 0 -69 66z" />
    <glyph glyph-name="igrave" unicode="&#xec;" horiz-adv-x="428" 
d="M371 1188h-95l-92 246v2h115l74 -240zM236 1016h100l-178 -1016h-101z" />
    <glyph glyph-name="iacute" unicode="&#xed;" horiz-adv-x="428" 
d="M350 1188h-94l2 8l156 240h114v-2zM336 1016h-100l-179 -1016h101z" />
    <glyph glyph-name="icircumflex" unicode="&#xee;" horiz-adv-x="428" 
d="M92 1190l244 246h63l148 -246l-2 -14h-86l-107 172l-174 -172h-88zM336 1016h-100l-179 -1016h101z" />
    <glyph glyph-name="idieresis" unicode="&#xef;" horiz-adv-x="428" 
d="M125 1335q0 41 29 64q28 22 63 22q30 0 47 -16q19 -17 19 -45q0 -41 -28 -64q-26 -22 -62 -22q-68 0 -68 61zM406 1335q0 42 28 64t64 22q30 0 47 -16q18 -17 18 -45q0 -42 -27 -64q-26 -22 -63 -22q-67 0 -67 61zM336 1016h-100l-179 -1016h101z" />
    <glyph glyph-name="eth" unicode="&#xf0;" horiz-adv-x="1245" 
d="M1001 1466l58 -45l-117 -135q136 -103 203 -268t67 -344q0 -316 -177 -506q-177 -191 -455 -191q-282 0 -390 203q-92 174 -18 395q74 227 274 343q138 81 314 81q100 0 203 -50q101 -49 157 -152q-16 126 -73 235q-61 115 -173 187l-106 -129l-57 45l104 127
q-99 60 -197 88l44 80q126 -44 219 -103zM596 72q246 0 393 192q122 159 105 344q-18 188 -174 262q-75 37 -177 37q-246 0 -393 -192q-122 -158 -104 -344q16 -188 174 -265q75 -34 176 -34z" />
    <glyph glyph-name="ntilde" unicode="&#xf1;" 
d="M236 1012h98l-31 -181q144 195 395 199q210 0 312 -119t65 -327l-102 -584h-101l103 582q30 174 -45 262q-76 89 -254 88q-155 -1 -274 -107q-117 -104 -146 -262l-98 -563h-101zM551 1280l-66 20q24 83 105 114q79 30 145 -9l76 -43q31 -19 73 -4q41 15 62 59l64 -20
q-24 -84 -103 -116q-78 -31 -143 7l-78 43q-31 19 -73 5q-41 -13 -62 -56z" />
    <glyph glyph-name="ograve" unicode="&#xf2;" 
d="M504 -16q-194 0 -313 116t-119 314q0 266 183 440t433 174q190 0 311 -120t121 -318q0 -268 -183 -437q-182 -169 -433 -169zM522 82q202 0 350 137t148 356q0 163 -97 261t-251 98q-201 0 -350 -143q-150 -144 -150 -361q0 -160 97 -254t253 -94zM788 1200h-92l-123 244
v2h127l91 -238z" />
    <glyph glyph-name="oacute" unicode="&#xf3;" 
d="M504 -16q251 0 433 169q183 170 183 437q0 198 -121 318q-122 120 -311 120q-250 0 -433 -174t-183 -440q0 -198 119 -314t313 -116zM522 82q-156 0 -253 94t-97 254q0 217 150 361q149 143 350 143q154 0 251 -98t97 -261q0 -219 -148 -356t-350 -137zM752 1188h-95l2 8
l189 229h129v-2z" />
    <glyph glyph-name="ocircumflex" unicode="&#xf4;" 
d="M504 -16q251 0 433 169q183 170 183 437q0 198 -121 318q-122 120 -311 120q-250 0 -433 -174t-183 -440q0 -198 119 -314t313 -116zM522 82q-156 0 -253 94t-97 254q0 217 150 361q149 143 350 143q154 0 251 -98t97 -261q0 -219 -148 -356t-350 -137zM399 1186l340 270
h82l242 -270l-2 -15h-103l-190 205l-258 -205h-113z" />
    <glyph glyph-name="otilde" unicode="&#xf5;" 
d="M504 -16q-194 0 -313 116t-119 314q0 266 183 440t433 174q190 0 311 -120t121 -318q0 -268 -183 -437q-182 -169 -433 -169zM522 82q202 0 350 137t148 356q0 163 -97 261t-251 98q-201 0 -350 -143q-150 -144 -150 -361q0 -160 97 -254t253 -94zM567 1274l-65 20
q24 86 104 118t146 -9l75 -43q29 -21 73 -5q42 15 63 62l67 -20q-24 -90 -104 -122t-146 9l-78 43q-30 21 -72 7t-63 -60z" />
    <glyph glyph-name="odieresis" unicode="&#xf6;" 
d="M504 -16q251 0 433 169q183 170 183 437q0 198 -121 318q-122 120 -311 120q-250 0 -433 -174t-183 -440q0 -198 119 -314t313 -116zM522 82q-156 0 -253 94t-97 254q0 217 150 361q149 143 350 143q154 0 251 -98t97 -261q0 -219 -148 -356t-350 -137zM451 1303
q0 43 29 68q31 26 67 26q29 0 48 -18t19 -48q0 -43 -27 -68q-28 -26 -67 -26q-69 0 -69 66zM895 1303q0 43 30 68q31 26 66 26q29 0 48 -18q20 -18 20 -48q0 -42 -28 -68t-66 -26q-70 0 -70 66z" />
    <glyph glyph-name="divide" unicode="&#xf7;" horiz-adv-x="1142" 
d="M178 735l-18 -102h827l19 102h-828zM559 977q0 43 30 69q29 25 68 25q31 0 49 -17q19 -18 19 -48q0 -43 -31 -69t-67 -26q-29 0 -48 18q-20 18 -20 48zM449 354q0 44 30 69q31 26 68 26q29 0 48 -18t19 -48q0 -44 -29 -69t-69 -25q-30 0 -48 17q-19 18 -19 48z" />
    <glyph glyph-name="oslash" unicode="&#xf8;" 
d="M506 -14q-127 0 -217 45l-109 -142h-102l143 185q-147 111 -147 342q0 266 183 440t433 174q129 0 230 -53l96 127h104l-135 -174q137 -114 137 -338q0 -268 -183 -437q-182 -169 -433 -169zM674 936q-201 0 -350 -143q-150 -144 -150 -361q0 -192 109 -278l575 747
q-64 35 -184 35zM524 84q202 0 350 137t148 354q0 189 -96 279l-574 -743q57 -27 172 -27z" />
    <glyph glyph-name="ugrave" unicode="&#xf9;" horiz-adv-x="1230" 
d="M997 0h-98l33 182q-145 -196 -395 -196q-207 0 -312 118t-67 326l102 584h100l-102 -582q-30 -174 45 -262q77 -90 254 -90q155 0 273 106t147 265l98 563h101zM823 1182h-92l-123 252v2h127l90 -246z" />
    <glyph glyph-name="uacute" unicode="&#xfa;" horiz-adv-x="1230" 
d="M899 0h98l179 1014h-101l-98 -563q-29 -159 -147 -265t-273 -106q-177 0 -254 90q-75 88 -45 262l102 582h-100l-102 -584q-38 -208 67 -326t312 -118q250 0 395 196zM743 1182h-98l2 8l197 246h133v-2z" />
    <glyph glyph-name="ucircumflex" unicode="&#xfb;" horiz-adv-x="1230" 
d="M899 0h98l179 1014h-101l-98 -563q-29 -159 -147 -265t-273 -106q-177 0 -254 90q-75 88 -45 262l102 582h-100l-102 -584q-38 -208 67 -326t312 -118q250 0 395 196zM434 1176l330 260h78l233 -260l-2 -15h-98l-184 197l-248 -197h-111z" />
    <glyph glyph-name="udieresis" unicode="&#xfc;" horiz-adv-x="1230" 
d="M899 0h98l179 1014h-101l-98 -563q-29 -159 -147 -265t-273 -106q-177 0 -254 90q-75 88 -45 262l102 582h-100l-102 -584q-38 -208 67 -326t312 -118q250 0 395 196zM479 1339q0 43 30 69q31 26 66 26q29 0 49 -18q19 -18 19 -48q0 -43 -28 -69q-26 -25 -66 -25
q-70 0 -70 65zM924 1339q0 44 29 69q31 26 67 26q28 0 48 -18q19 -18 19 -48q0 -44 -27 -69q-26 -25 -67 -25q-69 0 -69 65z" />
    <glyph glyph-name="yacute" unicode="&#xfd;" horiz-adv-x="1224" 
d="M874 -39q-35 -199 -151 -293t-281 -94q-160 0 -237 66t-62 200h-90q-21 -169 73 -265q93 -95 300 -95q218 0 359 120q140 119 184 363l184 1049h-100l-99 -561q-29 -160 -145 -264q-118 -106 -272 -107q-178 -1 -254 89q-75 90 -45 263l102 580h-100l-103 -582
q-37 -207 68 -327q104 -119 309 -119q258 5 401 198zM729 1196h-92l2 8l184 232h127v-2z" />
    <glyph glyph-name="thorn" unicode="&#xfe;" horiz-adv-x="1294" 
d="M78 -422h-96l327 1854h94l-114 -644q167 238 485 238q181 -6 296 -119q114 -113 114 -307q0 -285 -177 -452q-176 -166 -440 -166q-130 0 -231 64q-103 65 -143 187zM584 78q210 0 353 136q144 136 144 374q0 166 -96 254q-95 88 -252 88q-201 0 -346 -144t-145 -352
q0 -159 94 -257q94 -99 248 -99z" />
    <glyph glyph-name="ydieresis" unicode="&#xff;" horiz-adv-x="1224" 
d="M874 -39q-35 -199 -151 -293t-281 -94q-160 0 -237 66t-62 200h-90q-21 -169 73 -265q93 -95 300 -95q218 0 359 120q140 119 184 363l184 1049h-100l-99 -561q-29 -160 -145 -264q-118 -106 -272 -107q-178 -1 -254 89q-75 90 -45 263l102 580h-100l-103 -582
q-37 -207 68 -327q104 -119 309 -119q258 5 401 198zM469 1337q0 42 29 66q28 24 63 24q28 0 45 -17q19 -19 19 -46q0 -42 -27 -66t-61 -24q-68 0 -68 63zM893 1337q0 42 29 66q28 24 63 24q28 0 45 -17q19 -19 19 -46q0 -42 -27 -66t-64 -24q-30 0 -47 16q-18 16 -18 47z
" />
    <glyph glyph-name="Amacron" unicode="&#x100;" horiz-adv-x="1515" 
d="M1360 0h-115l-96 352h-856l-215 -352h-125l895 1434h121zM352 451h770l-229 872zM629 1606l14 92h604l-14 -92h-604z" />
    <glyph glyph-name="amacron" unicode="&#x101;" horiz-adv-x="1292" 
d="M1108 1012h92l-178 -1012h-96l37 215q-162 -231 -457 -231q-192 0 -312 121t-120 317q0 260 179 431t435 171q129 0 234 -60q104 -59 143 -173zM672 928q-214 0 -355 -138t-141 -354q0 -162 93 -258t253 -96q249 0 396 192q123 162 108 351q-16 189 -174 266
q-77 37 -180 37zM477 1290l15 92h604l-15 -92h-604z" />
    <glyph glyph-name="Abreve" unicode="&#x102;" horiz-adv-x="1515" 
d="M1360 0h-115l-96 352h-856l-215 -352h-125l895 1434h121zM352 451h770l-229 872zM1151 1829h86q-23 -120 -100 -185q-79 -67 -197 -67q-124 0 -183 67q-59 66 -36 185h82q-33 -170 145 -170q170 0 203 170z" />
    <glyph glyph-name="abreve" unicode="&#x103;" horiz-adv-x="1292" 
d="M1108 1012h92l-178 -1012h-96l37 215q-162 -231 -457 -231q-192 0 -312 121t-120 317q0 260 179 431t435 171q129 0 234 -60q104 -59 143 -173zM672 928q-214 0 -355 -138t-141 -354q0 -162 93 -258t253 -96q249 0 396 192q123 162 108 351q-16 189 -174 266
q-77 37 -180 37zM991 1434h86q-23 -121 -100 -186q-78 -66 -197 -66q-124 0 -183 66t-36 186h82q-33 -170 145 -170q170 0 203 170z" />
    <glyph glyph-name="Aogonek" unicode="&#x104;" horiz-adv-x="1515" 
d="M1169 -236q117 5 195 103l57 -37q-84 -130 -256 -145q-155 -12 -198 90q-35 89 34 180q78 100 224 111l-80 286h-856l-217 -352h-119l895 1434h121l391 -1434q-77 4 -137 -4q-123 -16 -166 -100q-35 -68 18 -109q34 -24 94 -23zM350 455h770l-231 872z" />
    <glyph glyph-name="aogonek" unicode="&#x105;" horiz-adv-x="1292" 
d="M672 928q-198 0 -347 -141t-149 -351q0 -164 90 -259t256 -95q249 0 396 192q123 162 108 351q-16 189 -174 266q-77 37 -180 37zM1200 1012l-188 -1073q-158 12 -224 -78q-47 -64 -6 -115q29 -37 101 -35q116 4 194 103l60 -37q-43 -65 -116 -103q-70 -36 -147 -41
q-153 -6 -192 95q-34 86 45 174q68 79 195 100l36 213q-185 -231 -452 -231q-200 0 -316 120t-116 318q0 260 181 431t433 171q132 0 232 -59q102 -60 141 -174l39 221h100z" />
    <glyph glyph-name="Cacute" unicode="&#x106;" horiz-adv-x="1464" 
d="M1305 190l-66 78q-97 -88 -224 -133q-132 -47 -255 -47q-296 0 -430 179t-90 446q45 273 240 456t503 183q261 0 414 -185l86 68q-176 215 -484 215q-203 0 -374 -74q-172 -75 -279 -195q-108 -121 -168 -275q-59 -150 -59 -316q0 -260 160 -434q159 -172 462 -172
q151 0 300 52q153 54 264 154zM1040 1604h-94l2 8l187 233h127v-2z" />
    <glyph glyph-name="cacute" unicode="&#x107;" horiz-adv-x="1064" 
d="M907 133l-55 70q-148 -125 -324 -125q-157 0 -255 94q-99 94 -99 260q0 230 143 366t363 136q185 0 285 -121l71 64q-129 151 -340 151q-272 0 -447 -169t-175 -439q0 -197 123 -317q122 -119 315 -119q222 0 395 149zM733 1219h-84l2 8l168 209h115v-2z" />
    <glyph glyph-name="Ccircumflex" unicode="&#x108;" horiz-adv-x="1464" 
d="M1305 190l-66 78q-97 -88 -224 -133q-132 -47 -255 -47q-296 0 -430 179t-90 446q45 273 240 456t503 183q261 0 414 -185l86 68q-176 215 -484 215q-203 0 -374 -74q-172 -75 -279 -195q-108 -121 -168 -275q-59 -150 -59 -316q0 -260 160 -434q159 -172 462 -172
q151 0 300 52q153 54 264 154zM709 1614l329 260h78l234 -260l-2 -15h-99l-184 197l-248 -197h-110z" />
    <glyph glyph-name="ccircumflex" unicode="&#x109;" horiz-adv-x="1064" 
d="M907 133l-55 70q-148 -125 -324 -125q-157 0 -255 94q-99 94 -99 260q0 230 143 366t363 136q185 0 285 -121l71 64q-129 151 -340 151q-272 0 -447 -169t-175 -439q0 -197 123 -317q122 -119 315 -119q222 0 395 149zM416 1202l317 252h76l223 -252l-2 -12h-94l-176 188
l-240 -188h-106z" />
    <glyph glyph-name="Cdotaccent" unicode="&#x10a;" horiz-adv-x="1464" 
d="M1305 190l-66 78q-97 -88 -224 -133q-132 -47 -255 -47q-296 0 -430 179t-90 446q45 273 240 456t503 183q261 0 414 -185l86 68q-176 215 -484 215q-203 0 -374 -74q-172 -75 -279 -195q-108 -121 -168 -275q-59 -150 -59 -316q0 -260 160 -434q159 -172 462 -172
q151 0 300 52q153 54 264 154zM958 1675q0 41 30 67q29 25 67 25q67 0 67 -65q0 -44 -28 -69t-64 -25q-30 0 -50 17q-22 19 -22 50z" />
    <glyph glyph-name="cdotaccent" unicode="&#x10b;" horiz-adv-x="1064" 
d="M907 133l-55 70q-148 -125 -324 -125q-157 0 -255 94q-99 94 -99 260q0 230 143 366t363 136q185 0 285 -121l71 64q-129 151 -340 151q-272 0 -447 -169t-175 -439q0 -197 123 -317q122 -119 315 -119q222 0 395 149zM666 1325q0 39 27 61q28 23 63 23q63 0 63 -59
q0 -42 -26 -65t-60 -23q-29 0 -48 16t-19 47z" />
    <glyph glyph-name="Ccaron" unicode="&#x10c;" horiz-adv-x="1464" 
d="M1305 190l-66 78q-97 -88 -224 -133q-132 -47 -255 -47q-296 0 -430 179t-90 446q45 273 240 456t503 183q261 0 414 -185l86 68q-176 215 -484 215q-203 0 -374 -74q-172 -75 -279 -195q-108 -121 -168 -275q-59 -150 -59 -316q0 -260 160 -434q159 -172 462 -172
q151 0 300 52q153 54 264 154zM1350 1843l-316 -250h-76l-225 250l2 15h99l170 -187l245 187h103z" />
    <glyph glyph-name="ccaron" unicode="&#x10d;" horiz-adv-x="1064" 
d="M907 133l-55 70q-148 -125 -324 -125q-157 0 -255 94q-99 94 -99 260q0 230 143 366t363 136q185 0 285 -121l71 64q-129 151 -340 151q-272 0 -447 -169t-175 -439q0 -197 123 -317q122 -119 315 -119q222 0 395 149zM1053 1421l-310 -247h-75l-224 247l2 15h97
l168 -187l243 187h101z" />
    <glyph glyph-name="Dcaron" unicode="&#x10e;" horiz-adv-x="1529" 
d="M834 1434h-486l-252 -1434h486q202 0 373 74q170 74 274 194q105 122 162 268q57 147 57 298q0 254 -156 427t-458 173zM440 1329h375q139 0 243 -42q102 -42 162 -115q59 -72 87 -160q28 -87 28 -191q0 -131 -49 -254q-50 -126 -139 -228q-90 -103 -233 -168
q-144 -65 -314 -65h-375zM1194 1843l-324 -258h-77l-234 258l2 15h103l174 -193l254 193h104z" />
    <glyph glyph-name="dcaron" unicode="&#x10f;" horiz-adv-x="1292" 
d="M672 932q-207 0 -353 -134q-145 -133 -145 -372q0 -344 348 -344q205 0 350 142q146 143 146 354q0 157 -96 256q-95 98 -250 98zM1176 1434h98l-252 -1434h-98l37 209q-162 -225 -463 -225q-192 0 -308 112t-116 314q0 282 175 450t435 168q133 0 234 -61t139 -176z
M1401 1130h-80l135 306h105z" />
    <glyph glyph-name="Dcroat" unicode="&#x110;" horiz-adv-x="1542" 
d="M94 670l15 88h133l120 676h486q151 0 275 -51q120 -49 192 -135q70 -83 108 -190q37 -104 37 -224q0 -152 -58 -298q-58 -145 -164 -268q-104 -120 -274 -194q-171 -74 -370 -74h-485l118 670h-133zM829 1329h-374l-103 -571h297l-14 -88h-297l-98 -564h374q171 0 315 65
q142 64 232 168q89 102 139 228t50 254q0 214 -131 362q-130 146 -390 146z" />
    <glyph glyph-name="dcroat" unicode="&#x111;" horiz-adv-x="1292" 
d="M1176 1434h98l-27 -152h160l-14 -82h-160l-211 -1200h-98l39 223q-83 -114 -208 -176q-126 -63 -257 -63q-192 0 -308 112t-116 314q0 279 179 449q178 169 431 169q139 0 239 -59q101 -59 140 -178l72 409h-226l15 82h225zM672 932q-207 0 -353 -134
q-145 -133 -145 -372q0 -164 96 -254t252 -90q205 0 350 142q146 143 146 354q0 157 -96 256q-95 98 -250 98z" />
    <glyph glyph-name="Emacron" unicode="&#x112;" horiz-adv-x="1327" 
d="M438 1331l-98 -559h840l-17 -100h-839l-101 -566h905l-18 -106h-1014l252 1434h989l-18 -103h-881zM557 1612l16 94h644l-17 -94h-643z" />
    <glyph glyph-name="emacron" unicode="&#x113;" horiz-adv-x="1198" 
d="M506 -16q-192 0 -312 119q-122 120 -120 315q5 260 186 434q184 176 430 176q233 0 354 -145q122 -146 46 -424h-916q-17 -174 81 -278q97 -103 267 -103q104 0 215 42q110 41 178 116l62 -58q-89 -94 -216 -144q-129 -50 -255 -50zM188 549h828q33 189 -54 288t-288 99
q-164 0 -300 -103t-186 -284zM451 1335l14 86h629l-15 -86h-628z" />
    <glyph glyph-name="Ebreve" unicode="&#x114;" horiz-adv-x="1327" 
d="M438 1331l-98 -559h840l-17 -100h-839l-101 -566h905l-18 -106h-1014l252 1434h989l-18 -103h-881zM1116 1839h86q-23 -120 -100 -185q-79 -67 -197 -67q-124 0 -183 67q-59 66 -36 185h82q-33 -170 145 -170q170 0 203 170z" />
    <glyph glyph-name="ebreve" unicode="&#x115;" horiz-adv-x="1198" 
d="M506 -16q-192 0 -312 119q-122 120 -120 315q5 260 186 434q184 176 430 176q233 0 354 -145q122 -146 46 -424h-916q-17 -174 81 -278q97 -103 267 -103q104 0 215 42q110 41 178 116l62 -58q-89 -94 -216 -144q-129 -50 -255 -50zM188 549h828q33 189 -54 288t-288 99
q-164 0 -300 -103t-186 -284zM934 1434h86q-23 -121 -100 -186q-78 -66 -197 -66q-125 0 -183 66q-59 66 -36 186h82q-33 -170 145 -170q170 0 203 170z" />
    <glyph glyph-name="Edotaccent" unicode="&#x116;" horiz-adv-x="1327" 
d="M340 772l98 559h881l18 103h-989l-252 -1434h1014l18 106h-905l101 566h839l17 100h-840zM831 1665q0 41 30 67q29 25 67 25q67 0 67 -65q0 -44 -28 -69q-29 -26 -64 -26q-30 0 -51 18t-21 50z" />
    <glyph glyph-name="edotaccent" unicode="&#x117;" horiz-adv-x="1198" 
d="M506 -16q126 0 255 50q127 50 216 144l-62 58q-68 -75 -178 -116q-111 -42 -215 -42q-170 0 -267 103q-98 104 -81 278h916q76 278 -46 424q-121 145 -354 145q-246 0 -430 -176q-181 -174 -186 -434q-2 -195 120 -315q120 -119 312 -119zM188 549q50 181 186 284
t300 103q201 0 288 -99t54 -288h-828zM678 1354q0 40 30 66q31 26 66 26q68 0 68 -66q0 -42 -29 -68t-63 -26q-31 0 -52 18q-20 17 -20 50z" />
    <glyph glyph-name="Eogonek" unicode="&#x118;" horiz-adv-x="1327" 
d="M1110 0q-218 -11 -287 -113q-43 -64 4 -108q34 -30 93 -29q50 1 108 29q57 27 94 76l64 -37q-45 -72 -124 -117t-155 -49q-91 -2 -142 38q-52 40 -55 96t38 118t116 96h-768l252 1434h989l-18 -105h-881l-98 -557h840l-17 -100h-839l-101 -566h905z" />
    <glyph glyph-name="eogonek" unicode="&#x119;" horiz-adv-x="1200" 
d="M504 -14q-195 0 -313 117q-119 118 -119 315q0 257 185 433q186 177 431 177q233 0 354 -145t45 -424h-911q-16 -172 83 -274q98 -101 261 -101q103 0 215 41q110 40 178 113l62 -58q-100 -108 -258 -160q-63 -29 -84 -82q-21 -54 11 -97q31 -42 106 -40q116 4 194 103
l60 -37q-44 -67 -119 -108q-76 -41 -148 -46q-99 -4 -154 40t-52 111q3 65 57 128q-74 -6 -84 -6zM190 547h822q30 184 -62 287q-92 102 -278 102q-162 0 -297 -105q-136 -106 -185 -284z" />
    <glyph glyph-name="Ecaron" unicode="&#x11a;" horiz-adv-x="1327" 
d="M340 772l98 559h881l18 103h-989l-252 -1434h1014l18 106h-905l101 566h839l17 100h-840zM1266 1843l-326 -260h-78l-235 260l2 15h102l176 -195l256 195h105z" />
    <glyph glyph-name="ecaron" unicode="&#x11b;" horiz-adv-x="1198" 
d="M506 -16q126 0 255 50q127 50 216 144l-62 58q-68 -75 -178 -116q-111 -42 -215 -42q-170 0 -267 103q-98 104 -81 278h916q76 278 -46 424q-121 145 -354 145q-246 0 -430 -176q-181 -174 -186 -434q-2 -195 120 -315q120 -119 312 -119zM188 549q50 181 186 284
t300 103q201 0 288 -99t54 -288h-828zM1079 1421l-321 -256h-78l-231 256l2 15h102l172 -191l254 191h102z" />
    <glyph glyph-name="Gcircumflex" unicode="&#x11c;" horiz-adv-x="1529" 
d="M1415 1167l76 72q-180 215 -487 215q-374 0 -629 -244q-254 -243 -254 -620q0 -263 161 -436q160 -172 463 -172q361 0 576 213l100 555h-604l-16 -97h506l-78 -413q-147 -156 -465 -156q-275 0 -405 145t-130 379q0 139 52 274q51 132 144 237q94 107 240 169
q149 64 322 64q125 0 240 -47q113 -46 188 -138zM684 1610l324 260h77l232 -260l-2 -13h-98l-183 195l-246 -195h-106z" />
    <glyph glyph-name="gcircumflex" unicode="&#x11d;" horiz-adv-x="1288" 
d="M688 928q236 0 322 -180q74 -157 -2 -347q-76 -194 -256 -278q-99 -45 -211 -45q-174 0 -261 96t-87 262q0 210 148 351q149 141 347 141zM1217 1012h-93l-43 -219q-40 111 -143 172q-100 59 -231 59q-247 0 -431 -172t-184 -430q0 -200 112 -320q111 -118 318 -118
q287 0 459 217l-43 -230q-34 -210 -166 -305q-130 -94 -305 -94q-167 0 -255 66q-89 66 -77 202h-90q-21 -165 91 -263q110 -97 325 -97q231 0 380 124q150 124 193 369zM489 1198l324 258h78l229 -258l-2 -12h-96l-182 194l-244 -194h-109z" />
    <glyph glyph-name="Gbreve" unicode="&#x11e;" horiz-adv-x="1529" 
d="M1491 1239l-76 -72q-75 92 -188 138q-115 47 -240 47q-173 0 -322 -64q-146 -62 -240 -169q-93 -105 -144 -237q-52 -135 -52 -274q0 -234 130 -379t405 -145q318 0 465 156l78 413h-506l16 97h604l-100 -555q-215 -213 -576 -213q-303 0 -463 172q-161 173 -161 436
q0 377 254 620q255 244 629 244q307 0 487 -215zM1255 1839h86q-22 -110 -100 -173q-77 -62 -199 -62q-125 0 -184 62t-37 173h84q-15 -62 16 -110t130 -48q171 0 204 158z" />
    <glyph glyph-name="gbreve" unicode="&#x11f;" horiz-adv-x="1288" 
d="M688 928q-198 0 -347 -141q-148 -141 -148 -351q0 -166 87 -262t261 -96q249 0 395 194q123 161 106 351q-16 191 -174 268q-77 37 -180 37zM1124 1012h93l-183 -1039q-43 -245 -193 -369q-149 -124 -380 -124q-215 0 -325 97q-112 98 -91 263h90q-12 -136 77 -202
q88 -66 255 -66q175 0 305 94q132 95 166 305l43 230q-172 -217 -459 -217q-207 0 -318 118q-112 120 -112 320q0 258 184 430t431 172q131 0 231 -59q103 -61 143 -172zM1012 1454h86q-23 -119 -101 -185q-79 -67 -196 -67q-125 0 -184 67q-58 65 -35 185h82
q-33 -170 145 -170q170 0 203 170z" />
    <glyph glyph-name="Gdotaccent" unicode="&#x120;" horiz-adv-x="1529" 
d="M1415 1167l76 72q-180 215 -487 215q-374 0 -629 -244q-254 -243 -254 -620q0 -263 161 -436q160 -172 463 -172q361 0 576 213l100 555h-604l-16 -97h506l-78 -413q-147 -156 -465 -156q-275 0 -405 145t-130 379q0 139 52 274q51 132 144 237q94 107 240 169
q149 64 322 64q125 0 240 -47q113 -46 188 -138zM944 1663q0 38 31 63t69 25q68 0 68 -63q0 -42 -29 -66q-30 -25 -65 -25q-30 0 -52 17t-22 49z" />
    <glyph glyph-name="gdotaccent" unicode="&#x121;" horiz-adv-x="1288" 
d="M688 928q236 0 322 -180q74 -157 -2 -347q-76 -194 -256 -278q-99 -45 -211 -45q-174 0 -261 96t-87 262q0 210 148 351q149 141 347 141zM1217 1012h-93l-43 -219q-40 111 -143 172q-100 59 -231 59q-247 0 -431 -172t-184 -430q0 -200 112 -320q111 -118 318 -118
q287 0 459 217l-43 -230q-34 -210 -166 -305q-130 -94 -305 -94q-167 0 -255 66q-89 66 -77 202h-90q-21 -165 91 -263q110 -97 325 -97q231 0 380 124q150 124 193 369zM745 1354q0 38 31 63t70 25q67 0 67 -64q0 -41 -28 -65q-30 -25 -66 -25q-31 0 -52 18q-22 19 -22 48z
" />
    <glyph glyph-name="Gcommaaccent" unicode="&#x122;" horiz-adv-x="1529" 
d="M571 -283q0 45 30 69t69 24q40 0 58 -32q18 -31 -1 -73q-27 -58 -111 -194h-88l82 145q-39 15 -39 61zM1491 1239l-76 -72q-75 92 -188 138q-115 47 -240 47q-173 0 -322 -64q-146 -62 -240 -169q-93 -105 -144 -237q-52 -135 -52 -274q0 -234 130 -379t405 -145
q318 0 465 156l78 413h-506l16 97h604l-100 -555q-215 -213 -576 -213q-303 0 -463 172q-161 173 -161 436q0 377 254 620q255 244 629 244q307 0 487 -215z" />
    <glyph glyph-name="gcommaaccent" unicode="&#x123;" horiz-adv-x="1288" 
d="M874 1276q0 -44 -31 -68t-71 -24q-29 0 -46 17t-17 48q0 27 14 49l104 185h91l-82 -146q38 -15 38 -61zM688 928q236 0 322 -180q74 -157 -2 -347q-76 -194 -256 -278q-99 -45 -211 -45q-174 0 -261 96t-87 262q0 210 148 351q149 141 347 141zM1217 1012h-93l-43 -219
q-40 111 -143 172q-100 59 -231 59q-247 0 -431 -172t-184 -430q0 -200 112 -320q111 -118 318 -118q287 0 459 217l-43 -230q-34 -210 -166 -305q-130 -94 -305 -94q-167 0 -255 66q-89 66 -77 202h-90q-21 -165 91 -263q110 -97 325 -97q231 0 380 124q150 124 193 369z
" />
    <glyph glyph-name="Hcircumflex" unicode="&#x124;" horiz-adv-x="1540" 
d="M1120 0h111l252 1434h-111l-119 -682h-913l119 682h-111l-252 -1434h111l115 651h913zM635 1593l332 265h77l236 -265l-2 -14h-98l-187 201l-250 -201h-110z" />
    <glyph glyph-name="hcircumflex" unicode="&#x125;" horiz-adv-x="1200" 
d="M406 1434h-97l-252 -1434h101l98 555q29 161 148 268q121 109 278 109q325 0 264 -352l-102 -580h98l102 580q37 204 -51 325t-295 121q-253 -4 -399 -203zM416 1581l325 260h78l234 -260l-2 -14h-99l-184 196l-248 -196h-106z" />
    <glyph glyph-name="Hbar" unicode="&#x126;" horiz-adv-x="1564" 
d="M1243 0h-110l114 651h-913l-115 -651h-110l192 1087h-151l14 84h151l45 263h111l-45 -263h913l45 263h111l-45 -263h152l-15 -84h-151zM352 752h914l59 335h-913z" />
    <glyph glyph-name="hbar" unicode="&#x127;" horiz-adv-x="1200" 
d="M133 1184l14 84h134l28 166h97l-29 -166h260l-14 -84h-261l-63 -361q146 199 399 203q207 0 295 -121t51 -325l-102 -580h-98l102 580q29 164 -36 257q-64 93 -228 93q-158 0 -278 -108q-119 -107 -148 -267l-98 -555h-101l209 1184h-133z" />
    <glyph glyph-name="Itilde" unicode="&#x128;" horiz-adv-x="514" 
d="M205 0h-109l252 1434h109zM244 1602l-64 22q24 86 103 118q78 32 141 -7l74 -45q29 -22 69 -7q41 15 62 64l63 -21q-24 -89 -101 -122q-76 -33 -140 8l-76 45q-29 21 -71 6t-60 -61z" />
    <glyph glyph-name="itilde" unicode="&#x129;" horiz-adv-x="428" 
d="M236 1016h100l-178 -1016h-101zM176 1307l-55 20q21 80 88 110t123 -10l65 -38q25 -22 61 -7q35 15 52 60l57 -21q-22 -83 -89 -113q-66 -30 -122 9l-65 39q-27 18 -62 6t-53 -55z" />
    <glyph glyph-name="Imacron" unicode="&#x12a;" horiz-adv-x="514" 
d="M205 0h-109l252 1434h109zM180 1591l13 92h481l-12 -92h-482z" />
    <glyph glyph-name="imacron" unicode="&#x12b;" horiz-adv-x="428" 
d="M236 1016h100l-178 -1016h-101zM129 1307l10 88h410l-10 -88h-410z" />
    <glyph glyph-name="Ibreve" unicode="&#x12c;" horiz-adv-x="514" 
d="M633 1812h80q-33 -221 -279 -221q-120 0 -172 58q-50 56 -26 166h79q-12 -65 13 -105q24 -39 121 -39q160 0 184 141zM205 0h-109l252 1434h109z" />
    <glyph glyph-name="ibreve" unicode="&#x12d;" horiz-adv-x="428" 
d="M236 1016h100l-178 -1016h-101zM512 1434h76q-21 -114 -89 -176t-173 -62q-108 0 -161 64q-53 63 -32 174h72q-27 -160 127 -160q147 0 180 160z" />
    <glyph glyph-name="Iogonek" unicode="&#x12e;" horiz-adv-x="518" 
d="M473 1434l-252 -1434q-27 0 -41 -2q-86 -12 -122 -59q-36 -46 -25 -101q15 -75 114 -69q119 5 191 94l59 -37q-42 -64 -115 -102q-70 -36 -147 -41q-91 -2 -138 30q-50 33 -60 92q-12 77 37 147q49 69 147 97l244 1385h108z" />
    <glyph glyph-name="iogonek" unicode="&#x12f;" horiz-adv-x="432" 
d="M272 1327q0 43 30 69q29 25 67 25q30 0 48 -17q19 -18 19 -48q0 -44 -28 -69t-66 -25q-29 0 -49 17q-21 18 -21 48zM346 1016h-100l-172 -969q-86 -24 -133 -86q-47 -63 -43 -128q5 -68 55 -114q65 -61 176 -37t172 113l-55 35q-50 -53 -119 -68t-119 29q-26 33 -24 81
q1 45 53 86q51 40 129 42z" />
    <glyph glyph-name="Idotaccent" unicode="&#x130;" horiz-adv-x="514" 
d="M96 0h109l252 1434h-109zM365 1655q0 41 29 66q31 26 67 26q67 0 67 -66q0 -43 -28 -68q-29 -26 -64 -26q-30 0 -51 18q-20 17 -20 50z" />
    <glyph glyph-name="dotlessi" unicode="&#x131;" horiz-adv-x="428" 
d="M236 1016h100l-178 -1016h-101z" />
    <glyph glyph-name="IJ" unicode="&#x132;" horiz-adv-x="1886" 
d="M1581 541l141 796h-551l19 97h657l-157 -893q-45 -257 -232 -411q-186 -153 -436 -153q-246 0 -378 158t-87 406h102q-37 -205 66 -334q102 -127 315 -127q205 0 354 122q148 121 187 339zM205 0h-109l252 1434h109z" />
    <glyph glyph-name="ij" unicode="&#x133;" horiz-adv-x="851" 
d="M336 1016h-100l-179 -1016h101zM266 1337q0 43 30 69q31 26 66 26q30 0 49 -18t19 -48q0 -44 -30 -69q-29 -25 -68 -25q-28 0 -46 17q-20 18 -20 48zM760 1014h-96l-205 -1159q-22 -122 -67 -188q-43 -64 -150 -64q-81 0 -148 41l-43 -86q85 -50 174 -50q156 0 230 91
q74 90 102 256zM688 1337q0 43 30 69q31 26 66 26q30 0 49 -18t19 -48q0 -44 -30 -69q-29 -25 -66 -25q-30 0 -48 17q-20 18 -20 48z" />
    <glyph glyph-name="Jcircumflex" unicode="&#x134;" horiz-adv-x="1372" 
d="M1253 1337l-141 -796q-39 -218 -187 -339q-149 -122 -354 -122q-213 0 -315 127q-103 129 -66 334h-102q-45 -248 87 -406t378 -158q250 0 436 153q187 154 232 411l157 893h-657l-19 -97h551zM741 1595l332 263h78l235 -263l-2 -14h-98l-186 199l-250 -199h-111z" />
    <glyph glyph-name="jcircumflex" unicode="&#x135;" horiz-adv-x="423" 
d="M332 1014h-96l-207 -1168q-22 -120 -67 -187q-44 -65 -150 -65q-81 0 -148 41l-43 -86q83 -49 174 -49q157 0 230 90q74 90 102 256zM53 1163l264 273h64l188 -273l-2 -14h-80l-147 207l-201 -207h-88z" />
    <glyph glyph-name="Kcommaaccent" unicode="&#x136;" horiz-adv-x="1204" 
d="M438 -231q0 43 31 68q30 24 70 24q29 0 47 -18t18 -48q0 -42 -121 -233h-88l82 145q-39 15 -39 62zM1102 8l-2 -8h-139l-631 707l-125 -705h-111l252 1432h111l-115 -654l809 654h135l-2 -11l-835 -686z" />
    <glyph glyph-name="kcommaaccent" unicode="&#x137;" horiz-adv-x="944" 
d="M307 -236q0 41 30 65t66 24q26 0 44 -18t18 -46q0 -24 -14 -45l-101 -176h-84l78 139q-37 10 -37 57zM309 1434h99l-152 -865l555 443h133v-4l-596 -482l479 -520l-2 -6h-123l-458 496l-88 -496h-99z" />
    <glyph glyph-name="kgreenlandic" unicode="&#x138;" horiz-adv-x="944" 
d="M236 1014h98l-78 -445l555 443h133v-4l-596 -473l479 -529l-2 -6h-127l-454 496l-88 -496h-99z" />
    <glyph glyph-name="Lacute" unicode="&#x139;" horiz-adv-x="1142" 
d="M459 1434h-111l-252 -1434h918l18 104h-807zM498 1589h-92l2 8l184 230h125v-2z" />
    <glyph glyph-name="lacute" unicode="&#x13a;" horiz-adv-x="456" 
d="M424 1434h-100l-252 -1434h100zM436 1587h-86l2 8l172 215h117v-2z" />
    <glyph glyph-name="Lcommaaccent" unicode="&#x13b;" horiz-adv-x="1142" 
d="M432 -270q0 43 31 68q30 24 69 24q30 0 48 -18t18 -48q0 -27 -14 -49l-107 -184h-88l82 145q-39 15 -39 62zM348 1434h111l-234 -1330h807l-18 -104h-918z" />
    <glyph glyph-name="lcommaaccent" unicode="&#x13c;" horiz-adv-x="456" 
d="M2 -254q0 41 29 65q27 23 65 23q60 0 60 -59q0 -25 -13 -49l-100 -172h-82l76 137q-35 11 -35 55zM324 1434h100l-252 -1434h-100z" />
    <glyph glyph-name="Lcaron" unicode="&#x13d;" horiz-adv-x="1144" 
d="M348 1434h111l-234 -1330h807l-18 -104h-918zM942 1116h-82l139 314h107z" />
    <glyph glyph-name="lcaron" unicode="&#x13e;" horiz-adv-x="442" 
d="M324 1434h100l-252 -1434h-100zM551 1120h-82l139 316h107z" />
    <glyph glyph-name="Ldot" unicode="&#x13f;" horiz-adv-x="1142" 
d="M348 1434h111l-234 -1330h807l-18 -104h-918zM666 573q0 44 29 69q31 26 67 26q28 0 48 -18q19 -18 19 -48q0 -43 -28 -68q-29 -26 -68 -26q-30 0 -48 17q-19 18 -19 48z" />
    <glyph glyph-name="ldot" unicode="&#x140;" horiz-adv-x="604" 
d="M324 1434h100l-252 -1434h-100zM446 573q0 41 30 67q31 26 67 26q27 0 46 -18t19 -48q0 -44 -28 -68t-66 -24q-30 0 -48 17q-20 18 -20 48z" />
    <glyph glyph-name="Lslash" unicode="&#x141;" horiz-adv-x="1155" 
d="M362 1434h111l-121 -676l256 100l-18 -102l-254 -99l-98 -553h806l-18 -104h-917l108 612l-154 -57l17 98l156 60z" />
    <glyph glyph-name="lslash" unicode="&#x142;" horiz-adv-x="516" 
d="M352 1434h101l-121 -682l178 67l-18 -102l-179 -66l-114 -651h-101l109 612l-158 -57l17 98l159 60z" />
    <glyph glyph-name="Nacute" unicode="&#x143;" horiz-adv-x="1525" 
d="M395 1434h-47l-252 -1434h111l209 1196l758 -1196h43l251 1434h-108l-209 -1186zM932 1591h-96l2 8l190 238h129v-2z" />
    <glyph glyph-name="nacute" unicode="&#x144;" 
d="M334 1012h-98l-179 -1012h101l98 563q29 158 146 262q119 106 274 107q178 1 254 -88q75 -88 45 -262l-103 -582h101l102 584q37 208 -65 327t-312 119q-251 -4 -395 -199zM705 1196h-93l2 8l185 232h127v-2z" />
    <glyph glyph-name="Ncommaaccent" unicode="&#x145;" horiz-adv-x="1525" 
d="M580 -248q0 45 30 69q29 23 72 23q28 0 45 -17q18 -18 18 -48q0 -27 -14 -49l-106 -185h-88l81 146q-38 15 -38 61zM348 1434h47l756 -1186l209 1186h108l-251 -1434h-43l-758 1196l-209 -1196h-111z" />
    <glyph glyph-name="ncommaaccent" unicode="&#x146;" 
d="M410 -238q0 42 28 64t66 22q40 0 55 -31t-10 -75l-98 -172h-82l75 135q-34 15 -34 57zM236 1012h98l-31 -181q144 195 395 199q210 0 312 -119t65 -327l-102 -584h-101l103 582q30 174 -45 262q-76 89 -254 88q-155 -1 -274 -107q-117 -104 -146 -262l-98 -563h-101z" />
    <glyph glyph-name="Ncaron" unicode="&#x147;" horiz-adv-x="1525" 
d="M395 1434h-47l-252 -1434h111l209 1196l758 -1196h43l251 1434h-108l-209 -1186zM1268 1843l-322 -256h-78l-231 256l2 15h102l172 -191l254 191h103z" />
    <glyph glyph-name="ncaron" unicode="&#x148;" 
d="M334 1012h-98l-179 -1012h101l98 563q29 158 146 262q119 106 274 107q178 1 254 -88q75 -88 45 -262l-103 -582h101l102 584q37 208 -65 327t-312 119q-251 -4 -395 -199zM1073 1432l-317 -252h-76l-227 252l2 14h98l172 -189l248 189h102z" />
    <glyph glyph-name="napostrophe" unicode="&#x149;" 
d="M236 1012h98l-31 -181q144 195 395 199q210 0 312 -119t65 -327l-102 -584h-101l103 582q30 174 -45 262q-76 89 -254 88q-155 -1 -274 -107q-117 -104 -146 -262l-98 -563h-101z" />
    <glyph glyph-name="Eng" unicode="&#x14a;" horiz-adv-x="1525" 
d="M348 1434h47l756 -1194l209 1194h108l-262 -1491q-28 -166 -102 -256t-230 -90q-78 0 -163 49l45 86q67 -41 135 -41q106 0 152 64t69 188l21 118l-719 1141l-207 -1202h-111z" />
    <glyph glyph-name="eng" unicode="&#x14b;" 
d="M1075 584l-110 -627q-27 -163 -101 -255q-73 -91 -231 -91q-72 0 -154 49l43 86q67 -41 129 -41q106 0 149 64q41 62 64 188l111 625q30 170 -50 261t-249 89q-155 -1 -274 -107q-117 -104 -146 -262l-98 -563h-101l179 1012h98l-31 -181q144 195 395 199q205 0 310 -120
q104 -119 67 -326z" />
    <glyph glyph-name="Omacron" unicode="&#x14c;" horiz-adv-x="1667" 
d="M985 1456q175 0 303 -60t195 -165q67 -104 91 -236q24 -130 3 -280q-41 -303 -272 -521q-233 -219 -580 -219q-156 0 -281 51q-119 49 -189 138q-67 86 -102 195q-34 106 -34 235q0 163 58 315q60 156 166 277q108 123 274 196q168 74 368 74zM967 1354q-244 0 -427 -132
t-260 -334q-77 -203 -40 -417q30 -178 154 -285q124 -108 347 -108q222 0 394 112t259 282q88 170 89 355q4 245 -126 386q-131 141 -390 141zM690 1636l17 95h643l-17 -95h-643z" />
    <glyph glyph-name="omacron" unicode="&#x14d;" 
d="M504 -16q-194 0 -313 116t-119 314q0 266 183 440t433 174q190 0 311 -120t121 -318q0 -268 -183 -437q-182 -169 -433 -169zM522 82q202 0 350 137t148 356q0 163 -97 261t-251 98q-201 0 -350 -143q-150 -144 -150 -361q0 -160 97 -254t253 -94zM444 1319l15 86h588
l-15 -86h-588z" />
    <glyph glyph-name="Obreve" unicode="&#x14e;" horiz-adv-x="1667" 
d="M985 1456q175 0 303 -60t195 -165q67 -104 91 -236q24 -130 3 -280q-41 -303 -272 -521q-233 -219 -580 -219q-156 0 -281 51q-119 49 -189 138q-67 86 -102 195q-34 106 -34 235q0 163 58 315q60 156 166 277q108 123 274 196q168 74 368 74zM967 1354q-244 0 -427 -132
t-260 -334q-77 -203 -40 -417q30 -178 154 -285q124 -108 347 -108q222 0 394 112t259 282q88 170 89 355q4 245 -126 386q-131 141 -390 141zM1243 1849h86q-23 -115 -100 -180t-197 -65q-125 0 -183 65q-59 66 -36 180h82q-33 -166 145 -166q170 0 203 166z" />
    <glyph glyph-name="obreve" unicode="&#x14f;" 
d="M504 -16q-194 0 -313 116t-119 314q0 266 183 440t433 174q190 0 311 -120t121 -318q0 -268 -183 -437q-182 -169 -433 -169zM522 82q202 0 350 137t148 356q0 163 -97 261t-251 98q-201 0 -350 -143q-150 -144 -150 -361q0 -160 97 -254t253 -94zM940 1434h84
q-23 -117 -98 -179q-76 -63 -195 -63q-123 0 -180 64q-58 66 -37 178h82q-33 -164 143 -164q168 0 201 164z" />
    <glyph glyph-name="Ohungarumlaut" unicode="&#x150;" horiz-adv-x="1667" 
d="M985 1456q-200 0 -368 -74q-166 -73 -274 -196q-106 -121 -166 -277q-58 -152 -58 -315q0 -129 34 -235q35 -109 102 -195q70 -89 189 -138q125 -51 281 -51q347 0 580 219q231 218 272 521q21 150 -3 280q-24 132 -91 236q-67 105 -195 165t-303 60zM967 1354
q259 0 390 -141q130 -141 126 -386q-1 -185 -89 -355q-87 -170 -259 -282t-394 -112q-223 0 -347 108q-124 107 -154 285q-37 214 40 417q77 202 260 334t427 132zM913 1610h-96l2 8l180 213h127v-2zM1171 1610h-94l2 8l178 213h129v-2z" />
    <glyph glyph-name="ohungarumlaut" unicode="&#x151;" 
d="M504 -16q251 0 433 169q183 170 183 437q0 198 -121 318q-122 120 -311 120q-250 0 -433 -174t-183 -440q0 -198 119 -314t313 -116zM522 82q-156 0 -253 94t-97 254q0 217 150 361q149 143 350 143q154 0 251 -98t97 -261q0 -219 -148 -356t-350 -137zM621 1206h-95l2 8
l181 197h129v-2zM883 1206h-95l3 8l180 197h129v-2z" />
    <glyph glyph-name="OE" unicode="&#x152;" horiz-adv-x="1945" 
d="M1204 1343l-102 -571h696l-16 -94h-697l-104 -588h774l-16 -90h-867q-74 -10 -143 -10q-297 0 -453 172q-155 171 -155 430q0 163 58 313q59 152 166 273q106 119 275 194q168 74 365 74q80 0 143 -12h832l-14 -91h-742zM971 1358q-223 0 -398 -110q-174 -110 -261 -276
t-87 -358q0 -229 133 -381q134 -153 385 -153q77 0 144 12l223 1254q-66 12 -139 12z" />
    <glyph glyph-name="oe" unicode="&#x153;" horiz-adv-x="2097" 
d="M1411 -14q-155 0 -259 82q-106 83 -134 217q-79 -140 -215 -220q-134 -79 -297 -79q-193 0 -312 116q-120 117 -120 314q0 266 183 440t433 174q160 0 264 -82q105 -82 133 -227q78 135 218 222q136 85 290 85q151 0 253 -59q104 -60 149 -187q45 -128 -10 -323
q-491 0 -895 -2q-17 -173 79 -275t259 -102q232 0 382 158l62 -58q-88 -94 -213 -144q-126 -50 -250 -50zM524 84q202 0 348 137t146 357q0 161 -96 260q-95 98 -248 98q-201 0 -350 -143q-150 -144 -150 -361q0 -164 92 -256t258 -92zM1108 547h803q63 389 -332 389
q-163 0 -293 -105q-132 -106 -178 -284z" />
    <glyph glyph-name="Racute" unicode="&#x154;" horiz-adv-x="1427" 
d="M829 549q251 1 384 133q132 130 153 338q17 171 -82 292q-99 122 -305 122h-631l-252 -1434h111l96 543h402l395 -543h139zM322 647l120 686h521q174 0 246 -102q73 -103 46 -242q-29 -158 -137 -250q-109 -92 -289 -92h-507zM893 1604h-94l2 8l188 235h127v-2z" />
    <glyph glyph-name="racute" unicode="&#x155;" horiz-adv-x="825" 
d="M330 1012h-94l-179 -1012h101l104 590q24 138 140 236t257 98q96 0 164 -47l56 86q-93 61 -207 59q-105 0 -207 -47q-99 -46 -162 -144zM598 1210h-86l2 7l174 219h117v-2z" />
    <glyph glyph-name="Rcommaaccent" unicode="&#x156;" horiz-adv-x="1427" 
d="M471 -248q0 44 31 69q29 23 69 23q66 0 66 -65q0 -38 -127 -234h-82l82 146q-39 15 -39 61zM829 549l410 -549h-139l-395 543h-402l-96 -543h-111l252 1434h631q206 0 305 -122q99 -121 82 -292q-21 -208 -153 -338q-133 -132 -384 -133zM442 1333l-120 -686h507
q180 0 289 92q108 92 137 250q27 139 -46 242q-72 102 -246 102h-521z" />
    <glyph glyph-name="rcommaaccent" unicode="&#x157;" horiz-adv-x="825" 
d="M-8 -244q0 41 28 65q27 23 66 23q40 0 54 -30q14 -31 -7 -74q-26 -57 -98 -178h-76l68 137q-35 15 -35 57zM236 1012h94l-27 -181q63 98 162 144q102 47 207 47q114 2 207 -59l-56 -86q-68 47 -164 47q-141 0 -257 -98t-140 -236l-104 -590h-101z" />
    <glyph glyph-name="Rcaron" unicode="&#x158;" horiz-adv-x="1427" 
d="M829 549q251 1 384 133q132 130 153 338q17 171 -82 292q-99 122 -305 122h-631l-252 -1434h111l96 543h402l395 -543h139zM322 647l120 686h521q174 0 246 -102q73 -103 46 -242q-29 -158 -137 -250q-109 -92 -289 -92h-507zM1225 1843l-322 -256h-78l-231 256l2 15h102
l172 -191l254 191h103z" />
    <glyph glyph-name="rcaron" unicode="&#x159;" horiz-adv-x="825" 
d="M330 1012h-94l-179 -1012h101l104 590q24 138 140 236t257 98q96 0 164 -47l56 86q-93 61 -207 59q-105 0 -207 -47q-99 -46 -162 -144zM897 1427l-299 -251h-74l-217 251l2 15h97l161 -189l236 189h96z" />
    <glyph glyph-name="Sacute" unicode="&#x15a;" horiz-adv-x="1341" 
d="M1217 1153l81 51q-53 120 -187 183q-133 63 -300 63q-280 0 -453 -125q-172 -124 -151 -334q5 -51 23 -89t58 -68q42 -32 73 -50q33 -19 99 -38q53 -15 102 -26q2 0 44 -9.5t72 -16.5q100 -20 136 -29q58 -15 119 -40q65 -27 99 -57q35 -30 54 -79q20 -51 10 -108
q-12 -71 -54 -129q-40 -54 -94 -87q-52 -31 -121 -51q-70 -20 -125 -26q-57 -6 -116 -6q-152 0 -281 65q-132 67 -172 191l-98 -49q51 -153 206 -233q154 -79 339 -79q96 0 192 16q89 15 185 53t162 119t87 195q17 91 -7 159q-25 71 -63 111q-40 41 -120 76q-76 33 -140 49
q-57 14 -161 36q-119 25 -158 35q-54 14 -123 43q-61 26 -93 69q-30 40 -30 96q0 91 46 155q46 63 124 98q73 32 160 48q82 15 170 15q125 -1 244 -52q117 -50 162 -145zM852 1604h-98l2 8l194 243h133v-2z" />
    <glyph glyph-name="sacute" unicode="&#x15b;" horiz-adv-x="1024" 
d="M872 829l72 64q-122 135 -354 135q-185 2 -319 -78t-134 -231q0 -81 54 -133q56 -54 122 -75q71 -22 172 -38q87 -14 121 -23q49 -13 96 -34q50 -23 68 -59q18 -37 8 -85q-22 -105 -125 -149q-101 -43 -223 -43q-247 0 -346 170l-78 -60q104 -206 406 -206q74 0 143 12
t139 41q69 29 119 86q49 57 66 137q14 61 -5 114q-18 51 -52 80q-33 29 -94 53q-57 23 -105 34q-34 8 -113 22q-164 28 -217 64q-55 40 -57 104q0 100 100 152q101 53 237 53q198 0 299 -107zM623 1202h-91l3 8l180 226h123z" />
    <glyph glyph-name="Scircumflex" unicode="&#x15c;" horiz-adv-x="1341" 
d="M1217 1153l81 51q-53 120 -187 183q-133 63 -300 63q-280 0 -453 -125q-172 -124 -151 -334q5 -51 23 -89t58 -68q42 -32 73 -50q33 -19 99 -38q53 -15 102 -26q2 0 44 -9.5t72 -16.5q100 -20 136 -29q58 -15 119 -40q65 -27 99 -57q35 -30 54 -79q20 -51 10 -108
q-12 -71 -54 -129q-40 -54 -94 -87q-52 -31 -121 -51q-70 -20 -125 -26q-57 -6 -116 -6q-152 0 -281 65q-132 67 -172 191l-98 -49q51 -153 206 -233q154 -79 339 -79q96 0 192 16q89 15 185 53t162 119t87 195q17 91 -7 159q-25 71 -63 111q-40 41 -120 76q-76 33 -140 49
q-57 14 -161 36q-119 25 -158 35q-54 14 -123 43q-61 26 -93 69q-30 40 -30 96q0 91 46 155q46 63 124 98q73 32 160 48q82 15 170 15q125 -1 244 -52q117 -50 162 -145zM547 1618l340 270h82l241 -270l-2 -14h-102l-191 204l-258 -204h-112z" />
    <glyph glyph-name="scircumflex" unicode="&#x15d;" horiz-adv-x="1024" 
d="M872 829l72 64q-122 135 -354 135q-185 2 -319 -78t-134 -231q0 -81 54 -133q56 -54 122 -75q71 -22 172 -38q87 -14 121 -23q49 -13 96 -34q50 -23 68 -59q18 -37 8 -85q-22 -105 -125 -149q-101 -43 -223 -43q-247 0 -346 170l-78 -60q104 -206 406 -206q74 0 143 12
t139 41q69 29 119 86q49 57 66 137q14 61 -5 114q-18 51 -52 80q-33 29 -94 53q-57 23 -105 34q-34 8 -113 22q-164 28 -217 64q-55 40 -57 104q0 100 100 152q101 53 237 53q198 0 299 -107zM301 1184l317 252h76l223 -252l-2 -13h-94l-176 189l-240 -189h-106z" />
    <glyph glyph-name="Scedilla" unicode="&#x15e;" horiz-adv-x="1341" 
d="M1298 1204l-82 -51q-45 96 -161 145q-119 51 -244 52q-87 0 -170 -15q-87 -16 -160 -48q-78 -35 -124 -98q-46 -64 -46 -155q0 -56 30 -96q32 -43 93 -69q69 -29 123 -43q39 -10 158 -35q104 -22 161 -36q64 -16 140 -49q80 -35 120 -76q38 -40 63 -111q24 -68 7 -159
q-66 -353 -561 -380l-43 -105q79 4 125 -28t47 -78q2 -50 -16 -101q-29 -70 -97 -107q-66 -36 -139 -36q-65 0 -119 28q-53 27 -71 80l65 56q41 -80 140 -80q105 0 143 78q28 61 -16 100q-45 39 -156 16l-10 11l67 163q-183 4 -332 82q-148 77 -198 230l98 49
q40 -124 172 -191q129 -65 281 -65q59 0 116 6q55 6 125 26q69 20 121 51q53 31 94 87q42 58 54 129q10 57 -10 108q-19 49 -54 79q-34 30 -99 57q-61 25 -119 40q-36 9 -136 29q-30 7 -72 16.5t-44 9.5q-50 11 -102 26q-66 19 -99 38q-31 18 -73 50q-40 30 -58 68t-23 89
q-21 210 151 334q173 125 453 125q164 0 300 -64q134 -63 187 -182z" />
    <glyph glyph-name="scedilla" unicode="&#x15f;" horiz-adv-x="1024" 
d="M944 893l-72 -64q-101 107 -299 107q-136 0 -237 -53q-100 -52 -100 -152q0 -107 165 -147q43 -9 91 -17l18 -4q79 -14 113 -22q48 -11 105 -34q61 -24 94 -53q34 -29 52 -80q19 -53 5 -114q-51 -247 -410 -274l-35 -88q94 10 145 -51q49 -60 9 -142q-27 -57 -87 -87
t-126 -30q-134 0 -195 97l58 45q45 -68 141 -68q93 0 133 70q27 54 -17 89q-43 34 -151 13l-10 10l59 140q-286 6 -387 206l78 60q99 -170 346 -170q122 0 223 43q103 44 125 149q10 48 -8 85q-18 36 -68 59q-47 21 -96 34q-34 9 -121 23q-101 16 -172 38q-66 21 -122 75
q-54 52 -54 133q0 151 134 231t319 78q232 0 354 -135z" />
    <glyph glyph-name="Scaron" unicode="&#x160;" horiz-adv-x="1341" 
d="M1217 1153l81 51q-53 120 -187 183q-133 63 -300 63q-280 0 -453 -125q-172 -124 -151 -334q5 -51 23 -89t58 -68q42 -32 73 -50q33 -19 99 -38q53 -15 102 -26q2 0 44 -9.5t72 -16.5q100 -20 136 -29q58 -15 119 -40q65 -27 99 -57q35 -30 54 -79q20 -51 10 -108
q-12 -71 -54 -129q-40 -54 -94 -87q-52 -31 -121 -51q-70 -20 -125 -26q-57 -6 -116 -6q-152 0 -281 65q-132 67 -172 191l-98 -49q51 -153 206 -233q154 -79 339 -79q96 0 192 16q89 15 185 53t162 119t87 195q17 91 -7 159q-25 71 -63 111q-40 41 -120 76q-76 33 -140 49
q-57 14 -161 36q-119 25 -158 35q-54 14 -123 43q-61 26 -93 69q-30 40 -30 96q0 91 46 155q46 63 124 98q73 32 160 48q82 15 170 15q125 -1 244 -52q117 -50 162 -145zM1251 1864l-338 -271h-82l-243 271l2 14h106l183 -201l266 201h108z" />
    <glyph glyph-name="scaron" unicode="&#x161;" horiz-adv-x="1024" 
d="M872 829l72 64q-122 135 -354 135q-185 2 -319 -78t-134 -231q0 -81 54 -133q56 -54 122 -75q71 -22 172 -38q87 -14 121 -23q49 -13 96 -34q50 -23 68 -59q18 -37 8 -85q-22 -105 -125 -149q-101 -43 -223 -43q-247 0 -346 170l-78 -60q104 -206 406 -206q74 0 143 12
t139 41q69 29 119 86q49 57 66 137q14 61 -5 114q-18 51 -52 80q-33 29 -94 53q-57 23 -105 34q-34 8 -113 22q-164 28 -217 64q-55 40 -57 104q0 100 100 152q101 53 237 53q198 0 299 -107zM963 1427l-306 -245h-75l-220 245l3 13h96l164 -180l241 180h99z" />
    <glyph glyph-name="Tcommaaccent" unicode="&#x162;" horiz-adv-x="1200" 
d="M389 -152l-10 11l57 143l236 1331h-518l16 99h1147l-17 -99h-518l-235 -1333h-33l-31 -80q80 5 125 -30q46 -35 47 -83q2 -51 -16 -102q-57 -135 -236 -135q-137 0 -190 108l61 48q50 -72 144 -72q106 0 143 78q28 61 -16 100q-45 39 -156 16z" />
    <glyph glyph-name="tcommaaccent" unicode="&#x163;" horiz-adv-x="757" 
d="M274 -188l-12 10l72 180q-158 52 -111 309l109 617h-215l14 84h215l51 295l101 10l-54 -305h344l-14 -84h-344l-108 -617q-21 -115 7 -175q27 -58 138 -58q69 0 162 41l20 -82q-117 -51 -198 -51q-29 0 -45 2l-41 -107q120 10 163 -45q44 -56 7 -139q-61 -129 -228 -129
q-132 0 -203 98l60 49q50 -71 149 -71q103 0 140 71q17 35 3 62q-13 26 -58 38q-44 12 -124 -3z" />
    <glyph glyph-name="Tcaron" unicode="&#x164;" horiz-adv-x="1200" 
d="M672 1335l-234 -1335h111l233 1335h518l19 99h-1147l-18 -99h518zM1128 1843l-337 -270h-82l-244 270l2 15h106l183 -201l266 201h108z" />
    <glyph glyph-name="tcaron" unicode="&#x165;" horiz-adv-x="749" 
d="M375 1307l100 10l-55 -305h237l-14 -84h-237l-109 -617q-21 -115 7 -175q27 -58 138 -58q69 0 162 41l21 -82q-113 -51 -199 -51q-154 0 -205 84q-51 83 -22 241l108 617h-190l14 84h191zM836 1010h-80l137 309h104z" />
    <glyph glyph-name="Tbar" unicode="&#x166;" horiz-adv-x="1224" 
d="M293 631l14 86h266l109 616h-518l16 99h1147l-16 -99h-518l-109 -616h266l-14 -86h-266l-113 -631h-111l113 631h-266z" />
    <glyph glyph-name="tbar" unicode="&#x167;" horiz-adv-x="755" 
d="M100 549l15 78h166l53 301h-215l14 84h215l51 295l101 10l-54 -305h345l-15 -84h-344l-53 -301h256l-14 -78h-256l-41 -238q-21 -117 6 -175t137 -58q71 0 164 41l20 -82q-117 -51 -198 -51q-154 0 -205 84q-51 85 -23 241l41 238h-166z" />
    <glyph glyph-name="Utilde" unicode="&#x168;" horiz-adv-x="1472" 
d="M1370 1434h109l-158 -891q-50 -280 -224 -420q-175 -141 -433 -141q-222 0 -355 147q-133 146 -86 414l158 891h108l-157 -891q-39 -221 60 -341t290 -120q198 0 344 116t186 345zM766 1604l-66 20q24 86 105 118q79 31 145 -9l76 -43q30 -21 73 -6q40 14 62 63l66 -21
q-24 -89 -104 -121q-79 -31 -144 9l-78 43q-30 21 -73 7q-41 -13 -62 -60z" />
    <glyph glyph-name="utilde" unicode="&#x169;" horiz-adv-x="1230" 
d="M997 0h-98l33 182q-145 -196 -395 -196q-207 0 -312 118t-67 326l102 584h100l-102 -582q-30 -174 45 -262q77 -90 254 -90q155 0 273 106t147 265l98 563h101zM590 1292l-66 21q24 81 105 112q80 30 145 -8l76 -43q31 -19 73 -4q41 15 62 60l66 -21q-24 -85 -104 -115
q-79 -30 -144 9l-78 40q-32 19 -73 6t-62 -57z" />
    <glyph glyph-name="Umacron" unicode="&#x16a;" horiz-adv-x="1472" 
d="M1370 1434h109l-158 -891q-50 -280 -224 -420q-175 -141 -433 -141q-222 0 -355 147q-133 146 -86 414l158 891h108l-157 -891q-39 -221 60 -341t290 -120q198 0 344 116t186 345zM666 1599l14 91h608l-14 -91h-608z" />
    <glyph glyph-name="umacron" unicode="&#x16b;" horiz-adv-x="1230" 
d="M997 0h-98l33 182q-145 -196 -395 -196q-207 0 -312 118t-67 326l102 584h100l-102 -582q-30 -174 45 -262q77 -90 254 -90q155 0 273 106t147 265l98 563h101zM500 1346l14 84h578l-15 -84h-577z" />
    <glyph glyph-name="Ubreve" unicode="&#x16c;" horiz-adv-x="1472" 
d="M1370 1434h109l-158 -891q-50 -280 -224 -420q-175 -141 -433 -141q-222 0 -355 147q-133 146 -86 414l158 891h108l-157 -891q-39 -221 60 -341t290 -120q198 0 344 116t186 345zM1190 1829h86q-23 -120 -100 -185q-79 -67 -197 -67q-124 0 -183 67q-59 66 -36 185h82
q-33 -170 145 -170q170 0 203 170z" />
    <glyph glyph-name="ubreve" unicode="&#x16d;" horiz-adv-x="1230" 
d="M997 0h-98l33 182q-145 -196 -395 -196q-207 0 -312 118t-67 326l102 584h100l-102 -582q-30 -174 45 -262q77 -90 254 -90q155 0 273 106t147 265l98 563h101zM977 1434h84q-22 -118 -96 -179q-77 -63 -193 -63q-121 0 -178 63q-58 64 -37 179h80q-27 -164 143 -164
q164 0 197 164z" />
    <glyph glyph-name="Uring" unicode="&#x16e;" horiz-adv-x="1472" 
d="M1370 1434h109l-158 -891q-50 -280 -224 -420q-175 -141 -433 -141q-222 0 -355 147q-133 146 -86 414l158 891h108l-157 -891q-39 -221 60 -341t290 -120q198 0 344 116t186 345zM778 1663q0 94 74 153q73 58 166 58q72 0 124 -40t52 -110q0 -94 -71 -151t-175 -57
q-82 0 -125 39q-45 41 -45 108zM1004 1808q-64 0 -104 -40t-40 -89q0 -38 27 -65t76 -27q66 0 106 38q39 37 39 87q0 42 -27 69t-77 27z" />
    <glyph glyph-name="uring" unicode="&#x16f;" horiz-adv-x="1230" 
d="M997 0h-98l33 182q-145 -196 -395 -196q-207 0 -312 118t-67 326l102 584h100l-102 -582q-30 -174 45 -262q77 -90 254 -90q155 0 273 106t147 265l98 563h101zM580 1264q0 90 71 148t162 58q71 0 119 -38q49 -39 49 -109q0 -94 -68 -148q-69 -55 -168 -55q-77 0 -121 39
t-44 105zM797 1405q-63 0 -100 -39q-38 -40 -38 -86q0 -38 25 -65q24 -25 74 -25q66 0 103 37q38 38 38 84q0 38 -26 66t-76 28z" />
    <glyph glyph-name="Uhungarumlaut" unicode="&#x170;" horiz-adv-x="1472" 
d="M1479 1434h-109l-158 -891q-40 -229 -186 -345t-344 -116q-191 0 -290 120t-60 341l157 891h-108l-158 -891q-47 -268 86 -414q133 -147 355 -147q258 0 433 141q174 140 224 420zM815 1585h-96l2 8l180 217h129v-2zM1075 1585h-94l2 8l180 217h129v-2z" />
    <glyph glyph-name="uhungarumlaut" unicode="&#x171;" horiz-adv-x="1230" 
d="M899 0h98l179 1014h-101l-98 -563q-29 -159 -147 -265t-273 -106q-177 0 -254 90q-75 88 -45 262l102 582h-100l-102 -584q-38 -208 67 -326t312 -118q250 0 395 196zM639 1223h-92l2 8l172 205h123v-2zM887 1223h-90l2 8l172 205h123v-2z" />
    <glyph glyph-name="Uogonek" unicode="&#x172;" horiz-adv-x="1472" 
d="M1348 1434h108l-158 -891q-38 -207 -160 -341q-124 -136 -294 -192q-73 -29 -98 -90t11 -108q36 -46 117 -45q53 2 112 31q61 30 101 81l66 -43q-97 -153 -287 -160q-79 -1 -135 29q-55 30 -74 78q-18 47 -9 101q9 55 46 98q-116 -8 -211 24q-99 33 -171 99t-104 181
q-31 112 -7 257l157 891h109l-158 -891q-39 -217 62 -339t278 -122q184 0 343 120t198 341z" />
    <glyph glyph-name="uogonek" unicode="&#x173;" horiz-adv-x="1230" 
d="M1176 1014l-193 -1094q-178 4 -235 -86q-40 -59 6 -104q34 -33 102 -31q118 5 195 102l55 -34q-90 -139 -256 -146q-154 -6 -193 94q-33 83 40 169q72 85 202 93l37 205q-143 -194 -399 -198q-208 0 -312 119q-105 120 -67 327l102 584h100l-102 -582q-30 -173 46 -262
q77 -90 253 -90q155 0 273 106t147 265l98 563h101z" />
    <glyph glyph-name="Wcircumflex" unicode="&#x174;" horiz-adv-x="2209" 
d="M1214 1434l-675 -1311l-207 1311h-117l248 -1438h119l348 676l282 559l78 -563l109 -672h119l759 1438h-118l-678 -1311l-205 1311h-62zM950 1610l334 264h82l236 -264l-3 -15h-100l-186 201l-254 -201h-111z" />
    <glyph glyph-name="wcircumflex" unicode="&#x175;" horiz-adv-x="1675" 
d="M1126 0l535 1012h-111l-463 -895l-147 895h-72l-467 -895l-147 895h-111l183 -1012h110l242 440l196 396l54 -394l86 -442h112zM612 1176l328 260h78l233 -260l-2 -15h-98l-184 197l-248 -197h-109z" />
    <glyph glyph-name="Ycircumflex" unicode="&#x176;" horiz-adv-x="1345" 
d="M604 573l-100 -573h110l101 573l712 859v2h-129l-626 -758l-348 758h-127v-2zM526 1606l326 260h78l231 -260l-2 -13h-98l-182 195l-246 -195h-109z" />
    <glyph glyph-name="ycircumflex" unicode="&#x177;" horiz-adv-x="1224" 
d="M874 -39q-35 -199 -151 -293t-281 -94q-160 0 -237 66t-62 200h-90q-21 -169 73 -265q93 -95 300 -95q218 0 359 120q140 119 184 363l184 1049h-100l-99 -561q-29 -160 -145 -264q-118 -106 -272 -107q-178 -1 -254 89q-75 90 -45 263l102 580h-100l-103 -582
q-37 -207 68 -327q104 -119 309 -119q258 5 401 198zM434 1196l318 254h77l226 -254l-2 -12h-97l-176 190l-241 -190h-107z" />
    <glyph glyph-name="Ydieresis" unicode="&#x178;" horiz-adv-x="1345" 
d="M604 573l-100 -573h110l101 573l712 859v2h-129l-626 -758l-348 758h-127v-2zM569 1642q0 42 29 66q30 25 64 25q27 0 45 -18t18 -46q0 -41 -27 -65q-28 -25 -61 -25q-68 0 -68 63zM993 1642q0 42 29 66q30 25 63 25q27 0 45 -18q19 -19 19 -46q0 -41 -27 -65
q-28 -25 -63 -25q-30 0 -47 16q-19 17 -19 47z" />
    <glyph glyph-name="Zacute" unicode="&#x179;" horiz-adv-x="1208" 
d="M244 1434l-17 -101h863l-1139 -1286l-8 -47h1087l19 104h-922l1149 1291l6 39h-1038zM788 1604h-98l2 8l197 246h133v-3z" />
    <glyph glyph-name="zacute" unicode="&#x17a;" horiz-adv-x="927" 
d="M164 1012l-17 -90h609l-797 -887l-6 -35h795l16 94h-637l793 879l6 39h-762zM596 1198h-92l2 8l184 230h125v-2z" />
    <glyph glyph-name="Zdotaccent" unicode="&#x17b;" horiz-adv-x="1208" 
d="M244 1434l-17 -101h863l-1139 -1286l-8 -47h1087l19 104h-922l1149 1291l6 39h-1038zM739 1671q0 47 32 74q31 27 73 27q32 0 54 -19t22 -53q0 -48 -32 -75q-33 -28 -71 -28q-32 0 -55 20t-23 54z" />
    <glyph glyph-name="zdotaccent" unicode="&#x17c;" horiz-adv-x="927" 
d="M164 1012l-17 -90h609l-797 -887l-6 -35h795l16 94h-637l793 879l6 39h-762zM547 1325q0 41 30 67q29 25 66 25q68 0 68 -65q0 -43 -29 -69t-64 -26q-29 0 -50 18t-21 50z" />
    <glyph glyph-name="Zcaron" unicode="&#x17d;" horiz-adv-x="1208" 
d="M244 1434l-17 -101h863l-1139 -1286l-8 -47h1087l19 104h-922l1149 1291l6 39h-1038zM1186 1864l-338 -271h-82l-244 271l2 14h107l182 -201l266 201h109z" />
    <glyph glyph-name="zcaron" unicode="&#x17e;" horiz-adv-x="927" 
d="M164 1012l-17 -90h609l-797 -887l-6 -35h795l16 94h-637l793 879l6 39h-762zM942 1421l-303 -245h-74l-221 245l2 13h96l164 -181l242 181h96z" />
    <glyph glyph-name="longs" unicode="&#x17f;" horiz-adv-x="575" 
d="M264 0h-98l162 915h-207l16 89h205l16 90q63 346 365 346q107 0 188 -70l-61 -74q-80 52 -148 52q-200 0 -245 -254z" />
    <glyph glyph-name="florin" unicode="&#x192;" horiz-adv-x="880" 
d="M223 -2l162 917h-207l15 89h206l17 90q63 346 364 346q108 0 189 -70l-62 -74q-81 52 -147 52q-199 0 -246 -254l-16 -90h333l-14 -89h-334l-161 -917q-28 -167 -106 -258q-76 -90 -232 -90q-100 0 -181 71l60 70q53 -51 141 -51q95 0 146 61q50 61 73 197z" />
    <glyph glyph-name="Aringacute" unicode="&#x1fa;" horiz-adv-x="1517" 
d="M1122 455h-770l539 872zM942 1614q47 0 73 -23q25 -22 25 -53q0 -37 -34 -67q-33 -29 -95 -29q-46 0 -70 21t-24 53q0 38 34 68q35 30 91 30zM731 1503q0 -84 90 -117l-866 -1386h119l217 352h856l96 -352h119l-379 1386q143 46 143 164q0 65 -50 103q-49 37 -122 37
q-82 0 -153 -54q-70 -53 -70 -133zM1001 1743h-102l2 6l205 166h139v-2z" />
    <glyph glyph-name="aringacute" unicode="&#x1fb;" horiz-adv-x="1292" 
d="M1200 1012h-92l-43 -221q-39 114 -143 173q-105 60 -234 60q-256 0 -435 -171t-179 -431q0 -196 120 -317t312 -121q295 0 457 231l-37 -215h96zM672 928q235 0 319 -178q77 -156 0 -347q-77 -193 -258 -276q-99 -45 -211 -45q-160 0 -253 96t-93 258q0 216 141 354
t355 138zM565 1235q0 -61 43 -98t117 -37q98 0 163 52q66 52 66 138q0 64 -48 100q-47 35 -115 35q-87 0 -157 -53q-69 -52 -69 -137zM776 1366q47 0 73 -26q25 -25 25 -60q0 -47 -36 -80q-38 -35 -101 -35q-45 0 -69 24q-25 25 -25 60q0 45 37 81q38 36 96 36zM850 1495
h-92l2 6l184 182h125v-2z" />
    <glyph glyph-name="AEacute" unicode="&#x1fc;" horiz-adv-x="1908" 
d="M1057 772l100 561h748l16 101h-917l-1125 -1434h127l391 508h512l-90 -508h879l18 104h-776l100 568h707l16 100h-706zM1057 1350l-131 -742h-453l574 742h10zM1214 1604h-98l2 8l197 246h133v-3z" />
    <glyph glyph-name="aeacute" unicode="&#x1fd;" horiz-adv-x="2111" 
d="M1419 -12q291 0 469 192l-61 58q-67 -74 -177 -117q-108 -43 -214 -43q-163 0 -264 104q-102 105 -87 277h916q75 280 -45 424q-121 145 -354 145q-133 0 -254 -61q-120 -61 -203 -168l41 213h-84l-37 -221q-39 113 -144 173t-235 60q-246 0 -430 -172t-184 -430
q0 -198 116 -317t316 -119q276 0 459 229l-37 -215h84l37 221q44 -114 140 -173q97 -60 232 -60zM670 928q236 0 321 -178q74 -153 0 -344q-77 -196 -258 -279q-99 -45 -213 -45q-168 0 -257 95t-89 259q0 210 149 351t347 141zM1102 547q47 180 185 287q137 106 300 106
q199 0 286 -102t54 -291h-825zM1204 1204h-90l2 8l180 226h123z" />
    <glyph glyph-name="Oslashacute" unicode="&#x1fe;" horiz-adv-x="1669" 
d="M174 -162h109l145 195q137 -58 297 -58q201 0 366 76q166 76 274 201q106 122 167 278q59 150 59 314q0 147 -50 279q-49 130 -148 208l172 228h-111l-135 -181q-135 78 -334 78q-200 0 -368 -74q-166 -73 -274 -196q-106 -121 -166 -277q-58 -152 -58 -315t58 -301
t173 -217zM967 1354q161 0 286 -66l-833 -1118q-94 67 -142 186q-49 121 -49 254q0 137 51 275q49 131 141 237t233 168q145 64 313 64zM743 78q-139 0 -245 47l827 1112q158 -137 158 -412q0 -137 -51 -270q-50 -130 -144 -240q-91 -106 -234 -172q-140 -65 -311 -65z
M1069 1608h-98l2 8l196 246h134v-2z" />
    <glyph glyph-name="oslashacute" unicode="&#x1ff;" 
d="M506 -14q251 0 433 169q183 169 183 437q0 224 -137 338l135 174h-104l-96 -127q-101 53 -230 53q-250 0 -433 -174t-183 -440q0 -231 147 -342l-143 -185h102l109 142q90 -45 217 -45zM674 936q99 0 178 -43l-565 -733q-113 90 -113 272q0 217 150 361q149 143 350 143z
M524 84q-96 0 -168 33l564 729q102 -96 102 -271q0 -217 -148 -354t-350 -137zM758 1206h-88l2 8l176 222h121v-2z" />
    <glyph glyph-name="Scommaaccent" unicode="&#x218;" horiz-adv-x="1341" 
d="M479 -504h-88l84 152q-39 15 -39 61q0 44 31 69q29 23 72 23q28 0 45 -17q18 -18 18 -48q0 -27 -14 -49zM1298 1204l-81 -51q-45 95 -162 145q-119 51 -244 52q-87 0 -170 -15q-87 -16 -160 -48q-78 -35 -124 -98q-46 -64 -46 -155q0 -56 30 -96q32 -43 93 -69
q69 -29 123 -43q39 -10 158 -35q104 -22 161 -36q64 -16 140 -49q80 -35 120 -76q38 -40 63 -111q24 -68 7 -159q-21 -114 -87 -195t-162 -119t-185 -53q-96 -16 -192 -16q-185 0 -339 79q-155 80 -206 233l98 49q40 -124 172 -191q129 -65 281 -65q59 0 116 6q55 6 125 26
q69 20 121 51q53 31 94 87q42 58 54 129q10 57 -10 108q-19 49 -54 79q-34 30 -99 57q-61 25 -119 40q-36 9 -136 29q-30 7 -72 16.5t-44 9.5q-50 11 -102 26q-66 19 -99 38q-31 18 -73 50q-40 30 -58 68t-23 89q-21 210 151 334q173 125 453 125q164 0 300 -64
q134 -63 187 -182z" />
    <glyph glyph-name="scommaaccent" unicode="&#x219;" horiz-adv-x="1024" 
d="M344 -487h-90l86 153q-39 15 -39 62q0 43 31 68q30 24 69 24q30 0 48 -18t18 -48q0 -27 -14 -49zM944 893l-72 -64q-101 107 -299 107q-136 0 -237 -53q-100 -52 -100 -152q0 -107 165 -147q43 -9 91 -17l18 -4q79 -14 113 -22q48 -11 105 -34q61 -24 94 -53
q34 -29 52 -80q19 -53 5 -114q-21 -103 -104 -170q-80 -64 -172 -86q-84 -20 -191 -20q-302 0 -406 206l78 60q99 -170 346 -170q122 0 223 43q103 44 125 149q10 48 -8 85q-18 36 -68 59q-47 21 -96 34q-34 9 -121 23q-101 16 -172 38q-66 21 -122 75q-54 52 -54 133
q0 151 134 231t319 78q232 0 354 -135z" />
    <glyph glyph-name="uni021A" unicode="&#x21a;" horiz-adv-x="1200" 
d="M403 -489h-88l86 155q-39 15 -39 62q0 43 31 68q30 24 70 24q29 0 47 -18t18 -48q0 -27 -14 -49zM438 0l234 1335h-518l18 99h1147l-19 -99h-518l-233 -1335h-111z" />
    <glyph glyph-name="uni021B" unicode="&#x21b;" horiz-adv-x="755" 
d="M307 -506h-90l86 154q-39 15 -39 61q0 44 31 69q29 23 72 23q28 0 45 -17q18 -18 18 -48q0 -27 -14 -49zM401 1307l101 10l-56 -305h322l-16 -88h-322l-106 -613q-21 -115 7 -175q27 -58 138 -58q69 0 162 41l20 -82q-113 -51 -198 -51q-154 0 -205 84q-51 85 -23 241
l107 613h-215l16 88h215z" />
    <glyph glyph-name="dotlessj" unicode="&#x237;" horiz-adv-x="423" 
d="M236 1014h96l-205 -1168q-28 -166 -102 -256t-230 -90q-91 0 -174 49l43 86q67 -41 148 -41q106 0 150 65q45 67 67 187z" />
    <glyph glyph-name="circumflex" unicode="&#x2c6;" horiz-adv-x="862" 
d="M279 1165l339 271h82l242 -271l-2 -14h-102l-191 205l-258 -205h-113z" />
    <glyph glyph-name="caron" unicode="&#x2c7;" horiz-adv-x="827" 
d="M987 1421l-338 -270h-82l-243 270l2 15h106l182 -201l267 201h108z" />
    <glyph glyph-name="breve" unicode="&#x2d8;" horiz-adv-x="681" 
d="M768 1434h86q-23 -121 -100 -186q-78 -66 -197 -66q-125 0 -183 66q-59 66 -36 186h82q-33 -170 145 -170q170 0 203 170z" />
    <glyph glyph-name="dotaccent" unicode="&#x2d9;" horiz-adv-x="421" 
d="M354 1354q0 40 30 66q31 26 67 26q67 0 67 -66q0 -42 -29 -68t-63 -26q-29 0 -50 18q-22 19 -22 50z" />
    <glyph glyph-name="ring" unicode="&#x2da;" horiz-adv-x="813" 
d="M371 1235q0 104 79 170q78 65 177 65q77 0 132 -44q54 -44 54 -123q0 -106 -75 -169t-185 -63q-86 0 -134 45t-48 119zM610 1397q-67 0 -109 -45t-42 -99q0 -45 27 -73q27 -29 81 -29q72 0 114 42t42 97q0 43 -29 75t-84 32z" />
    <glyph glyph-name="ogonek" unicode="&#x2db;" horiz-adv-x="833" 
d="M483 -20l21 -64q-168 30 -244 -59q-52 -63 -18 -123q30 -52 110 -47q126 5 199 98l57 -37q-39 -63 -113 -102q-70 -36 -147 -41q-149 -6 -192 96q-37 89 37 180q95 119 278 101q8 -2 12 -2z" />
    <glyph glyph-name="tilde" unicode="&#x2dc;" horiz-adv-x="665" 
d="M360 1286l-65 23q24 90 104 122q79 31 146 -10l76 -45q29 -20 72 -5q42 15 63 65l65 -23q-24 -92 -103 -125t-145 8l-77 45q-31 22 -73 7t-63 -62z" />
    <glyph glyph-name="hungarumlaut" unicode="&#x2dd;" horiz-adv-x="720" 
d="M375 1204h-99l3 8l186 224h133v-2zM645 1204h-98l2 8l186 224h133v-2z" />
    <glyph glyph-name="_375" unicode="&#x394;" horiz-adv-x="1419" 
d="M999 1434l392 -1434h-1407l895 1434h120zM920 1321l-758 -1225h1087z" />
    <glyph glyph-name="_376" unicode="&#x3a9;" horiz-adv-x="1630" 
d="M944 0l17 92q227 46 380 223q152 177 193 402q30 175 -10 315q-41 142 -167 232t-325 90q-336 0 -537 -222q-202 -223 -202 -522q0 -190 92 -335q91 -144 272 -183l-16 -92h-510l16 94l299 -4q-131 66 -197 202q-67 139 -67 306q0 160 59 313t166 275q108 123 274 196
q168 74 368 74q296 0 452 -174t156 -436q0 -242 -129 -450q-128 -206 -357 -306l336 4l-16 -94h-547z" />
    <glyph glyph-name="pi" unicode="&#x3c0;" horiz-adv-x="1357" 
d="M279 0h-99l164 928h-250l15 84h1261l-14 -84h-258l-115 -645q-22 -121 15 -172q38 -51 167 -33l-14 -82q-172 -30 -233 49q-62 80 -33 238l114 645h-557z" />
    <glyph glyph-name="Wgrave" unicode="&#x1e80;" horiz-adv-x="2209" 
d="M539 123l675 1311h62l205 -1311l678 1311h118l-759 -1438h-119l-109 672l-78 563l-282 -559l-348 -676h-119l-248 1438h117zM1311 1604h-88l-117 239v2h121l86 -233z" />
    <glyph glyph-name="wgrave" unicode="&#x1e81;" horiz-adv-x="1675" 
d="M1661 1012l-535 -1012h-112l-86 442l-54 394l-196 -396l-242 -440h-110l-183 1012h111l147 -895l467 895h72l147 -895l463 895h111zM973 1212h-80l-109 222v2h113l78 -215z" />
    <glyph glyph-name="Wacute" unicode="&#x1e82;" horiz-adv-x="2209" 
d="M1214 1434l-675 -1311l-207 1311h-117l248 -1438h119l348 676l282 559l78 -563l109 -672h119l759 1438h-118l-678 -1311l-205 1311h-62zM1313 1604h-90l2 8l182 227h123v-2z" />
    <glyph glyph-name="wacute" unicode="&#x1e83;" horiz-adv-x="1675" 
d="M1126 0l535 1012h-111l-463 -895l-147 895h-72l-467 -895l-147 895h-111l183 -1012h110l242 440l196 396l54 -394l86 -442h112zM963 1212h-86l2 9l172 215h116v-2z" />
    <glyph glyph-name="Wdieresis" unicode="&#x1e84;" horiz-adv-x="2209" 
d="M1214 1434l-675 -1311l-207 1311h-117l248 -1438h119l348 676l282 559l78 -563l109 -672h119l759 1438h-118l-678 -1311l-205 1311h-62zM993 1706q0 44 30 69q29 25 67 25q30 0 48 -17q19 -18 19 -48q0 -43 -28 -69t-66 -26q-70 0 -70 66zM1438 1706q0 44 29 69t67 25
q30 0 48 -17q20 -18 20 -48q0 -43 -28 -69t-67 -26q-69 0 -69 66z" />
    <glyph glyph-name="wdieresis" unicode="&#x1e85;" horiz-adv-x="1675" 
d="M1126 0l535 1012h-111l-463 -895l-147 895h-72l-467 -895l-147 895h-111l183 -1012h110l242 440l196 396l54 -394l86 -442h112zM688 1343q0 40 28 65q27 24 62 24q24 0 43 -17t19 -45q0 -40 -26 -64t-62 -24q-64 0 -64 61zM1100 1343q0 41 27 65t63 24q26 0 45 -17
q18 -17 18 -45q0 -40 -26 -63q-28 -25 -62 -25q-65 0 -65 61z" />
    <glyph glyph-name="Ygrave" unicode="&#x1ef2;" horiz-adv-x="1345" 
d="M504 0l100 573l-407 859v2h127l348 -758l626 758h129v-2l-712 -859l-101 -573h-110zM885 1604h-86l-113 233h117l82 -225v-8z" />
    <glyph glyph-name="ygrave" unicode="&#x1ef3;" horiz-adv-x="1224" 
d="M874 -39l41 221q-143 -193 -401 -198q-205 0 -309 119q-105 120 -68 327l103 582h100l-102 -580q-30 -173 45 -263q76 -90 254 -89q154 1 272 107q116 104 145 264l99 561h100l-184 -1049q-44 -244 -184 -363q-141 -120 -359 -120q-207 0 -300 95q-94 96 -73 265h90
q-15 -134 62 -200t237 -66q165 0 281 94t151 293zM774 1206h-84l-110 228v2h114l82 -222z" />
    <glyph glyph-name="endash" unicode="&#x2013;" horiz-adv-x="1212" 
d="M135 530l19 105h913l-18 -105h-914z" />
    <glyph glyph-name="emdash" unicode="&#x2014;" horiz-adv-x="1427" 
d="M131 526l19 105h1132l-18 -105h-1133z" />
    <glyph glyph-name="quoteleft" unicode="&#x2018;" horiz-adv-x="428" 
d="M379 1436h90l-150 -334h-116z" />
    <glyph glyph-name="quoteright" unicode="&#x2019;" horiz-adv-x="425" 
d="M297 1090h-90l153 346h117z" />
    <glyph glyph-name="quotesinglbase" unicode="&#x201a;" horiz-adv-x="464" 
d="M43 -215h-90l153 346h117z" />
    <glyph glyph-name="quotedblleft" unicode="&#x201c;" horiz-adv-x="694" 
d="M643 1430h90l-158 -345h-116zM385 1430h90l-158 -345h-116z" />
    <glyph glyph-name="quotedblright" unicode="&#x201d;" horiz-adv-x="681" 
d="M299 1106h-90l149 330h117zM557 1106h-90l149 330h117z" />
    <glyph glyph-name="quotedblbase" unicode="&#x201e;" horiz-adv-x="710" 
d="M43 -215h-90l153 346h117zM289 -215h-90l153 346h117z" />
    <glyph glyph-name="dagger" unicode="&#x2020;" horiz-adv-x="1128" 
d="M1130 1030l-16 -96h-442l-213 -1204h-101l213 1204h-442l16 96h443l71 404h101l-72 -404h442z" />
    <glyph glyph-name="daggerdbl" unicode="&#x2021;" horiz-adv-x="1220" 
d="M1178 1030l-19 -96h-442l-101 -569h443l-17 -97h-442l-94 -538h-100l94 538h-443l17 97h442l100 569h-442l19 96h442l70 404h100l-70 -404h443z" />
    <glyph glyph-name="bullet" unicode="&#x2022;" horiz-adv-x="780" 
d="M352 387q-76 0 -123 45t-47 119q0 100 71 165q70 64 169 64q74 0 120 -45t46 -119q0 -96 -70 -163q-69 -66 -166 -66z" />
    <glyph glyph-name="ellipsis" unicode="&#x2026;" horiz-adv-x="1234" 
d="M55 47q0 43 30 69q29 25 67 25q30 0 48 -17q19 -18 19 -48q0 -43 -29 -69q-28 -25 -67 -25q-30 0 -48 17q-20 18 -20 48zM446 47q0 43 30 69q29 25 67 25q30 0 48 -17q19 -18 19 -48q0 -44 -28 -69t-68 -25q-30 0 -48 17q-20 18 -20 48zM838 47q0 44 29 69t67 25
q30 0 48 -17q19 -18 19 -48q0 -44 -28 -69t-68 -25q-30 0 -48 17q-19 18 -19 48z" />
    <glyph glyph-name="perthousand" unicode="&#x2030;" horiz-adv-x="2308" 
d="M1427 1438h-116l-1170 -1438h115zM539 1444q129 0 198 -72q70 -73 70 -178q0 -139 -99 -247q-98 -107 -274 -107q-134 0 -196 71q-65 74 -66 183q0 146 104 247q106 103 263 103zM528 1360q-118 0 -193 -77t-75 -173q0 -79 44 -132q43 -52 142 -52q120 0 192 76
q73 78 73 174q0 80 -43 132t-140 52zM1145 594q129 0 198 -72q70 -73 70 -178q0 -139 -99 -247q-98 -107 -274 -107q-134 0 -196 71q-65 74 -66 183q0 146 105 248t262 102zM1135 510q-119 0 -194 -77t-75 -173q0 -79 44 -132q43 -52 143 -52q119 0 191 77q73 78 73 173
q0 80 -43 132t-139 52zM1915 594q130 0 199 -72t69 -178q0 -139 -99 -247q-98 -107 -274 -107q-134 0 -196 71q-65 74 -66 183q0 146 105 248t262 102zM1905 510q-119 0 -194 -77t-75 -173q0 -79 44 -132q43 -52 143 -52q119 0 191 77q73 78 73 173q0 80 -43 132t-139 52z
" />
    <glyph glyph-name="guilsinglleft" unicode="&#x2039;" horiz-adv-x="604" 
d="M104 612l361 449h106l-2 -10l-352 -439l199 -438l-2 -12h-107z" />
    <glyph glyph-name="guilsinglright" unicode="&#x203a;" horiz-adv-x="604" 
d="M502 604l-363 -450h-106l2 12l354 438l-199 438v11h107z" />
    <glyph glyph-name="fraction" unicode="&#x2044;" horiz-adv-x="315" 
d="M-274 -4h-109l1014 1444h110z" />
    <glyph glyph-name="zerosuperior" unicode="&#x2070;" horiz-adv-x="765" 
d="M309 1337l-18 -106q-27 -151 76 -209q88 -49 188 6q109 62 133 203l19 106q27 158 -74 215q-90 52 -191 -8q-106 -66 -133 -207zM195 1231l18 106q34 200 199 285q136 72 264 16q136 -60 137 -225q0 -37 -6 -76l-19 -106q-35 -198 -196 -283q-136 -74 -264 -18
q-139 58 -140 221z" />
    <glyph glyph-name="foursuperior" unicode="&#x2074;" horiz-adv-x="702" 
d="M594 1653h133l-84 -477h86l-16 -91h-86l-29 -159h-92l29 159h-394l9 76zM266 1176h285l67 387z" />
    <glyph glyph-name="fivesuperior" unicode="&#x2075;" horiz-adv-x="727" 
d="M502 1292h-258l63 361h510l-16 -88h-418l-33 -187h166q129 0 193 -53q63 -54 63 -143q0 -116 -87 -193q-86 -76 -249 -76q-114 0 -188 49q-71 47 -53 160h90q-21 -121 168 -121q221 0 221 166q0 51 -39 88q-38 37 -133 37z" />
    <glyph glyph-name="sixsuperior" unicode="&#x2076;" horiz-adv-x="755" 
d="M481 985q86 0 152 39q65 38 65 125q0 61 -50 93t-116 32q-76 0 -141 -37t-80 -107q-12 -76 40 -110q53 -35 130 -35zM360 1421l-22 -137q80 72 209 72q106 0 178 -45t72 -144q0 -131 -100 -198q-99 -66 -230 -66q-122 0 -197 56q-76 57 -55 171l51 291q21 117 112 175
q92 59 208 59q118 0 188 -47q71 -48 60 -140h-93q5 47 -39 73t-131 26q-184 0 -211 -146z" />
    <glyph glyph-name="sevensuperior" unicode="&#x2077;" horiz-adv-x="632" 
d="M225 1565l17 88h530v-45l-493 -684h-113l467 641h-408z" />
    <glyph glyph-name="eightsuperior" unicode="&#x2078;" horiz-adv-x="772" 
d="M500 1247q-86 0 -155 -39t-69 -114q0 -57 57 -84t120 -27q66 0 137 31q69 30 84 94q12 69 -42 104q-55 35 -132 35zM436 897q-108 0 -187 42t-79 138q0 84 57 141q55 55 140 72q-121 39 -121 144q0 115 101 170t224 55q103 0 180 -41q76 -40 76 -129q0 -149 -180 -201
q56 -12 94 -54q37 -41 37 -101q0 -87 -56 -142q-57 -55 -129 -75q-70 -19 -157 -19zM557 1579q-76 0 -143 -32q-66 -31 -66 -103q0 -56 48 -81q49 -26 118 -26q88 0 150 34q63 35 63 104q0 55 -53 79q-55 25 -117 25z" />
    <glyph glyph-name="ninesuperior" unicode="&#x2079;" horiz-adv-x="759" 
d="M545 1573q-87 0 -153 -39t-66 -125q0 -64 50 -94q51 -31 118 -31q76 0 141 37q66 38 78 106q15 76 -38 111t-130 35zM664 1137l24 137q-80 -72 -209 -72q-107 0 -180 44q-72 44 -72 145q0 132 101 198q100 66 231 66q121 0 196 -57t54 -171l-51 -290q-21 -117 -112 -175
q-92 -59 -208 -59t-186 47t-62 140h93q-5 -47 40 -73q44 -26 132 -26q185 0 209 146z" />
    <glyph glyph-name="zeroinferior" unicode="&#x2080;" horiz-adv-x="768" 
d="M121 240l-19 -107q-27 -151 76 -209q88 -50 189 6q109 62 133 203l18 107q27 158 -74 215q-88 51 -190 -9q-109 -64 -133 -206zM6 133l19 107q35 199 198 284q138 70 264 15q137 -61 138 -224q0 -29 -7 -75l-18 -107q-34 -194 -197 -280q-136 -72 -264 -19
q-134 57 -139 219q-2 39 6 80z" />
    <glyph glyph-name="oneinferior" unicode="&#x2081;" horiz-adv-x="483" 
d="M-63 -178l14 84h129l94 532l-117 -28l15 90l219 47l-113 -641h133l-14 -84h-360z" />
    <glyph glyph-name="twoinferior" unicode="&#x2082;" horiz-adv-x="727" 
d="M141 342h-94q39 217 315 217q238 0 238 -178q0 -81 -33 -138q-32 -55 -86 -80q-52 -24 -98 -33q-45 -9 -96 -9q-66 0 -131 -31q-63 -30 -78 -108l-10 -62h448l-18 -100h-547q10 57 14 84q3 21 15 80q18 105 111 164q94 59 210 59q201 0 201 160q0 106 -158 106
q-84 0 -136 -27t-67 -104z" />
    <glyph glyph-name="threeinferior" unicode="&#x2083;" horiz-adv-x="727" 
d="M303 154h-113l17 88h104q76 0 136 30q61 30 61 97q0 43 -40 73q-42 31 -116 31q-63 0 -128 -31q-62 -29 -74 -102h-89q18 109 106 162t200 53q102 0 170 -44q67 -43 67 -128q0 -71 -42 -121q-41 -49 -107 -65q52 -15 79 -56t27 -86q0 -129 -94 -187t-234 -58
q-119 0 -187 52t-50 167h98q-10 -55 21 -86t63 -37q33 -6 74 -6q31 0 66 5t67 19q35 15 56 45q22 31 22 76q0 41 -39 75q-38 34 -121 34z" />
    <glyph glyph-name="fourinferior" unicode="&#x2084;" horiz-adv-x="702" 
d="M401 549h134l-84 -477h86l-17 -90h-86l-28 -160h-93l29 160h-393l8 75zM74 72h284l68 387z" />
    <glyph glyph-name="fiveinferior" unicode="&#x2085;" horiz-adv-x="729" 
d="M307 188h-258l64 361h510l-17 -88h-418l-32 -187h166q128 0 192 -53t64 -143q0 -116 -88 -193q-85 -75 -248 -75q-117 0 -189 48q-71 47 -53 160h90q-21 -120 168 -120q221 0 221 165q0 52 -39 89q-37 36 -133 36z" />
    <glyph glyph-name="sixinferior" unicode="&#x2086;" horiz-adv-x="757" 
d="M289 -111q85 0 151 39t66 125q0 61 -50 93t-116 32q-76 0 -141 -37t-80 -106q-12 -77 40 -111q53 -35 130 -35zM168 326l-23 -138q79 72 209 72q105 0 178 -44q72 -44 72 -144q0 -133 -99 -199t-231 -66q-120 0 -196 57t-55 171l51 291q21 118 111 175q91 58 208 58
t187 -47q69 -46 61 -139h-92q5 47 -39 72q-44 26 -131 26q-184 0 -211 -145z" />
    <glyph glyph-name="seveninferior" unicode="&#x2087;" horiz-adv-x="632" 
d="M31 463l16 88h531v-45l-494 -684h-113l467 641h-407z" />
    <glyph glyph-name="eightinferior" unicode="&#x2088;" horiz-adv-x="770" 
d="M307 162q-85 0 -154 -39t-69 -115q0 -57 56 -84q55 -26 120 -26q68 0 137 30q68 30 84 95q12 69 -42 104q-55 35 -132 35zM244 -188q-108 0 -188 42q-79 42 -79 138q0 82 58 140q56 56 139 73q-121 39 -121 143q0 114 102 170q101 55 224 55q102 0 179 -41t77 -129
q0 -147 -180 -200q55 -12 94 -55q37 -41 37 -101q0 -85 -57 -141t-129 -75q-70 -19 -156 -19zM365 494q-77 0 -144 -32q-65 -31 -65 -104q0 -54 48 -80q49 -26 118 -26q87 0 149 34q64 35 64 103q0 55 -54 80q-55 25 -116 25z" />
    <glyph glyph-name="nineinferior" unicode="&#x2089;" horiz-adv-x="759" 
d="M352 477q-86 0 -152 -39q-67 -40 -67 -125q0 -61 50 -93t118 -32q76 0 141 37q66 37 78 107q15 75 -38 110t-130 35zM471 41l25 137q-80 -72 -209 -72q-107 0 -181 45q-71 43 -71 144q0 133 100 199q99 65 232 65q121 0 195 -56q75 -57 54 -171l-51 -291
q-21 -118 -111 -175q-92 -59 -208 -59t-187 48q-69 46 -61 139h92q-5 -47 40 -73q43 -25 132 -25q185 0 209 145z" />
    <glyph glyph-name="Euro" unicode="&#x20ac;" horiz-adv-x="1249" 
d="M1053 127l12 -98q-139 -45 -262 -45q-593 0 -598 573h-131l16 94h119q0 5 8 58q3 12 6 26.5t5 23t3 13.5h-118l16 94h131q79 259 289 422q209 162 512 162q91 0 196 -31l-36 -88q-89 25 -177 25q-509 0 -673 -490h559l-43 -94h-547q-3 -7 -14 -59q-2 -16 -4.5 -31.5
t-3.5 -22.5t-1 -8h519l-37 -94h-484q-6 -229 120 -350q125 -121 384 -121q116 0 234 41z" />
    <glyph glyph-name="afii61289" unicode="&#x2113;" horiz-adv-x="827" 
d="M399 496l-34 -195q-17 -90 54 -126t189 -9l-26 -141q-105 -33 -188 -33t-143 33q-61 33 -84 111q-24 80 -3 198l-109 -49l-12 94q66 27 137 61l121 682q33 185 116 264q83 78 263 78q277 0 156 -395q-85 -296 -437 -573zM504 1122l-88 -485q265 253 325 450q17 54 23 90
q5 32 7 83q1 46 -26 72q-28 26 -79 26q-58 0 -102 -71t-60 -165z" />
    <glyph glyph-name="uni2117" unicode="&#x2117;" horiz-adv-x="1716" 
d="M1010 1460q296 0 458 -175t162 -445q0 -231 -106 -428q-107 -199 -312 -323t-467 -124q-296 0 -458 176q-162 175 -162 447q0 230 106 427q105 195 313 321q205 124 466 124zM229 596q0 -237 139 -388t394 -151q337 0 552 227q214 226 214 545q0 239 -139 390t-396 151
q-227 0 -402 -107q-178 -109 -269 -283q-93 -178 -93 -384zM946 586q176 0 266 141q74 118 35 234q-62 128 -205 135h-348l-137 -785h96l47 275h246zM717 672l57 329h252q111 0 133 -94q23 -90 -45 -168q-60 -67 -151 -67h-246z" />
    <glyph glyph-name="trademark" unicode="&#x2122;" horiz-adv-x="1609" 
d="M393 860l86 492h-229l14 82h559l-14 -82h-234l-86 -492h-96zM834 860l100 574h90l182 -301l291 301h86l-100 -574h-97l72 414l-268 -270h-19l-167 278l-74 -422h-96z" />
    <glyph glyph-name="Omega" unicode="&#x2126;" horiz-adv-x="1685" 
d="M889 0l16 92q228 46 381 223q152 177 193 402q30 173 -11 315q-41 143 -166 232q-126 90 -325 90q-337 0 -538 -222t-201 -522q0 -190 92 -335q91 -144 272 -183l-16 -92h-510l16 94l299 -4q-131 66 -197 202q-67 139 -67 306q0 163 58 313q59 153 166 275t275 196
t367 74q297 0 453 -174t156 -436q0 -242 -129 -450q-128 -206 -357 -306l299 4l-16 -94h-510z" />
    <glyph glyph-name="estimated" unicode="&#x212e;" horiz-adv-x="1333" 
d="M578 -14q-203 0 -329 128t-126 357q0 339 195 534t473 195q120 0 210 -34q94 -35 161 -110q68 -75 80 -204q12 -126 -32 -313h-823l-61 -349q99 -108 270 -108q256 0 422 190l65 -59q-112 -126 -232 -176q-121 -51 -273 -51zM774 1104q-181 0 -303 -94l-68 -375h580
l68 381q-95 88 -277 88z" />
    <glyph glyph-name="onethird" unicode="&#x2153;" horiz-adv-x="1492" 
d="M123 731l14 84h129l94 533l-116 -29l14 90l219 47l-112 -641h133l-15 -84h-360zM1092 338h-113l16 88h105q74 0 136 31q60 30 60 96q0 44 -40 74t-115 30q-65 0 -127 -30q-61 -30 -76 -103h-88q21 110 106 162q86 53 199 53q102 0 170 -44t68 -128q0 -71 -42 -121
q-41 -48 -108 -65q53 -15 79 -55q28 -42 28 -86q0 -129 -95 -188q-94 -58 -231 -58q-120 0 -188 52q-70 53 -52 167h99q-10 -55 20 -85t63 -36q32 -6 74 -6q211 0 211 143q0 41 -39 75q-38 34 -120 34zM244 -4h-109l1014 1444h111z" />
    <glyph glyph-name="twothirds" unicode="&#x2154;" horiz-adv-x="1658" 
d="M1257 338h-112l14 88h105q73 0 137 31q61 30 61 96q0 44 -41 74t-116 30q-65 0 -127 -30t-74 -103h-88q18 109 104 162t199 53q101 0 171 -44q69 -43 69 -128q0 -71 -42 -121q-41 -48 -110 -65q52 -15 80 -55q29 -41 29 -86q0 -129 -96 -188q-94 -58 -232 -58
q-120 0 -188 52t-50 167h99q-10 -55 20 -85t63 -36q32 -6 74 -6q211 0 211 143q0 41 -39 75q-38 34 -121 34zM408 -4h-109l1016 1444h110zM313 1235h-94q39 217 316 217q237 0 237 -178q0 -81 -33 -138q-32 -55 -86 -80q-52 -24 -98 -33q-45 -9 -96 -9q-65 0 -132 -31
q-64 -30 -79 -109l-12 -65h434l-17 -96h-530q10 57 14 84q3 21 15 80q18 105 111 164q94 59 210 59q201 0 201 160q0 106 -158 106q-84 0 -136 -27t-67 -104z" />
    <glyph glyph-name="oneeighth" unicode="&#x215b;" horiz-adv-x="1554" 
d="M123 731l14 84h129l94 533l-116 -29l14 90l221 47l-112 -641h131l-15 -84h-360zM244 -4h-109l1014 1444h111zM1124 334q-85 0 -154 -39t-69 -115q0 -57 56 -84q55 -26 120 -26q71 0 140 30t81 95q12 69 -42 104q-55 35 -132 35zM1063 -16q-109 0 -189 42q-79 42 -79 138
q0 83 57 140q56 56 139 73q-121 39 -121 143q0 114 102 170q101 55 224 55q105 0 181 -40q77 -41 77 -130q0 -148 -182 -200q56 -12 94 -54q37 -41 37 -102q0 -86 -56 -141q-57 -56 -128 -75q-70 -19 -156 -19zM1182 666q-77 0 -144 -32q-65 -31 -65 -104q0 -54 48 -80
q49 -26 120 -26q86 0 148 34q63 34 63 103q0 55 -54 80q-55 25 -116 25z" />
    <glyph glyph-name="threeeighths" unicode="&#x215c;" horiz-adv-x="1667" 
d="M395 -4h-108l1013 1444h111zM1257 334q-85 0 -154 -39t-69 -115q0 -57 57 -84q55 -26 119 -26q71 0 140 30q70 30 82 95q12 69 -42 104q-55 35 -133 35zM1196 -16q-108 0 -188 42t-80 138q0 83 57 140q56 56 141 73q-122 39 -122 143q0 115 101 170t224 55q105 0 181 -40
q77 -41 77 -130q0 -148 -182 -200q56 -12 94 -54q37 -41 37 -102q0 -86 -56 -141q-57 -56 -128 -75q-70 -19 -156 -19zM1315 666q-77 0 -144 -32q-65 -31 -65 -104q0 -54 48 -80q49 -26 120 -26q86 0 148 34q63 34 63 103q0 56 -53 80q-55 25 -117 25zM469 1044h-113l17 89
h104q76 0 136 30q61 31 61 97q0 43 -40 73q-42 31 -116 31q-63 0 -128 -31q-63 -30 -75 -102h-88q18 109 106 162t199 53q102 0 170 -44t68 -128q0 -72 -42 -121q-42 -50 -107 -66q51 -15 78 -55q28 -42 28 -86q0 -129 -94 -187q-95 -59 -234 -59q-117 0 -187 53
q-68 52 -50 167h98q-10 -54 21 -85q30 -30 62 -36q31 -6 75 -6q211 0 211 143q0 40 -39 75q-37 33 -121 33z" />
    <glyph glyph-name="fiveeighths" unicode="&#x215d;" horiz-adv-x="1679" 
d="M408 -4h-109l1014 1444h110zM1270 334q-86 0 -155 -39q-68 -38 -68 -115q0 -57 56 -84q55 -26 120 -26q68 0 137 30q68 30 84 95q12 69 -42 104q-55 35 -132 35zM1208 -16q-108 0 -188 42t-80 138q0 83 57 140q56 56 140 73q-121 39 -121 143q0 115 101 170t224 55
q104 0 181 -40t77 -130q0 -148 -182 -200q56 -12 94 -54q37 -41 37 -102q0 -86 -56 -141q-57 -56 -128 -75q-70 -19 -156 -19zM1327 666q-76 0 -143 -32q-66 -32 -66 -104q0 -54 48 -80q49 -26 118 -26q88 0 150 34q63 34 63 103q0 56 -53 80q-55 25 -117 25zM471 1079h-258
l63 361h510l-16 -88h-418l-33 -187h166q129 0 193 -53q63 -52 63 -143q0 -117 -87 -193q-86 -76 -248 -76q-116 0 -189 49q-71 47 -53 160h90q-21 -121 168 -121q221 0 221 166q0 50 -39 88q-38 37 -133 37z" />
    <glyph glyph-name="seveneighths" unicode="&#x215e;" horiz-adv-x="1511" 
d="M219 -4h-108l1013 1444h111zM1081 334q-85 0 -154 -39t-69 -115q0 -56 57 -83t119 -27q71 0 140 30t81 95q12 69 -42 104q-55 35 -132 35zM1020 -16q-110 0 -189 42t-79 138q0 82 58 139q59 58 140 74q-123 39 -123 143q0 114 102 170q101 55 226 55q103 0 179 -40
q77 -41 77 -130q0 -147 -180 -200q54 -12 92 -56q37 -43 37 -100q0 -86 -56 -141q-57 -56 -128 -75q-70 -19 -156 -19zM1141 666q-77 0 -144 -32q-65 -31 -65 -104q0 -54 47 -80t119 -26q86 0 148 34q63 34 63 103q0 56 -53 80q-55 25 -115 25zM209 1350l14 88h531v-45
l-494 -684h-113l469 641h-407z" />
    <glyph glyph-name="arrowleft" unicode="&#x2190;" horiz-adv-x="1320" 
d="M481 287l-356 432l508 432l49 -57l-377 -326h907l-16 -100h-905l260 -324z" />
    <glyph glyph-name="arrowup" unicode="&#x2191;" horiz-adv-x="1011" 
d="M113 827l508 433l356 -433l-68 -59l-270 319l-160 -907h-100l160 905l-379 -317z" />
    <glyph glyph-name="arrowright" unicode="&#x2192;" horiz-adv-x="1318" 
d="M879 1151l356 -432l-508 -432l-49 57l377 326h-908l19 100h905l-262 324z" />
    <glyph glyph-name="arrowdown" unicode="&#x2193;" horiz-adv-x="1013" 
d="M936 590l-508 -432l-356 432l67 59l271 -319l159 907h101l-160 -905l379 317z" />
    <glyph glyph-name="uni2196" unicode="&#x2196;" horiz-adv-x="1013" 
d="M113 489l108 613h613l-17 -84l-455 -4l529 -641l-84 -72l-526 641l-84 -453h-84z" />
    <glyph glyph-name="uni2197" unicode="&#x2197;" horiz-adv-x="1024" 
d="M973 1102l-109 -613h-84l76 453l-752 -641l-59 72l754 641l-453 4l14 84h613z" />
    <glyph glyph-name="uni2198" unicode="&#x2198;" horiz-adv-x="1116" 
d="M956 946l-108 -612h-612l14 84l457 4l-529 641l84 72l526 -641l84 452h84z" />
    <glyph glyph-name="uni2199" unicode="&#x2199;" horiz-adv-x="1122" 
d="M172 334l109 612h84l-76 -452l751 641l60 -72l-754 -641l453 -4l-15 -84h-612z" />
    <glyph glyph-name="partialdiff" unicode="&#x2202;" horiz-adv-x="1243" 
d="M1196 518q-40 -240 -209 -391q-168 -150 -407 -150q-282 0 -390 203q-92 174 -18 395q74 227 274 343q138 81 314 81q116 0 217 -51q100 -51 151 -162q-21 208 -170 357q-151 151 -340 203l44 84q645 -234 534 -912zM592 72q246 0 393 192q124 160 109 344
q-16 190 -174 264q-78 35 -175 35q-245 0 -395 -192q-123 -159 -108 -344q16 -189 172 -262q75 -37 178 -37z" />
    <glyph glyph-name="Delta" unicode="&#x2206;" horiz-adv-x="1527" 
d="M971 1434l391 -1434h-1407l895 1434h121zM897 1333l-764 -1237h1084z" />
    <glyph glyph-name="product" unicode="&#x220f;" horiz-adv-x="1394" 
d="M1022 -385h-111l303 1718h-776l-303 -1718h-110l321 1819h997z" />
    <glyph glyph-name="summation" unicode="&#x2211;" horiz-adv-x="1175" 
d="M719 741l-553 -632h813l-18 -109h-994l8 47l617 707l-342 641l6 39h944l-16 -103h-781z" />
    <glyph glyph-name="minus" unicode="&#x2212;" horiz-adv-x="1085" 
d="M162 641l18 104h768l-18 -104h-768z" />
    <glyph glyph-name="uni2215" unicode="&#x2215;" horiz-adv-x="868" 
d="M4 -4h-108l1013 1444h111z" />
    <glyph glyph-name="uni2219" unicode="&#x2219;" horiz-adv-x="460" 
d="M152 621q0 43 29 68q31 26 69 26q26 0 46 -18q19 -18 19 -48q0 -43 -29 -68q-31 -26 -67 -26q-30 0 -48 17q-19 18 -19 49z" />
    <glyph glyph-name="radical" unicode="&#x221a;" horiz-adv-x="1259" 
d="M1372 1430l-741 -1430h-113l-213 745l-211 -88l-22 86l340 140l188 -744l684 1315z" />
    <glyph glyph-name="infinity" unicode="&#x221e;" horiz-adv-x="1642" 
d="M483 444q50 0 107 26q56 26 81 45q31 23 92 82q67 64 77 71q0 1 -2.5 4.5l-7.5 10.5t-9 14q-5 7 -9.5 14.5t-7 11.5t-3.5 6l-21 31q-20 29 -23 32q-13 13 -24 26q-18 21 -27 27q-20 12 -30 20q-20 15 -35 19q-18 5 -37 9t-41 4q-160 0 -244 -127q-71 -107 -30 -211
q45 -111 194 -115zM1208 444q168 5 248 134q68 109 25 208q-45 111 -193 111q-50 0 -104 -26q-53 -25 -85 -51q-24 -20 -87 -79q-42 -40 -80 -73q11 -12 67 -89q54 -74 99 -104q46 -31 110 -31zM463 350q-201 0 -262 150q-56 131 24 278q85 161 260 201q47 10 99 10
q103 0 173 -64q68 -62 144 -180q241 244 397 244q200 0 267 -149q57 -131 -17 -279q-83 -161 -256 -201q-44 -10 -98 -10q-103 0 -175 63q-76 67 -147 175q-111 -112 -205 -175q-95 -63 -204 -63z" />
    <glyph glyph-name="integral" unicode="&#x222b;" horiz-adv-x="915" 
d="M287 -2l192 1096q60 346 365 346q107 0 188 -70l-61 -74q-81 52 -148 52q-200 0 -245 -254l-193 -1096q-29 -168 -105 -258t-233 -90q-99 0 -180 71l59 70q52 -51 142 -51q94 0 145 61q52 62 74 197z" />
    <glyph glyph-name="approxequal" unicode="&#x2248;" horiz-adv-x="1138" 
d="M256 786l-59 50q144 168 340 96l192 -84q150 -53 232 63l67 -43q-122 -177 -328 -108l-206 88q-133 46 -238 -62zM186 393l-59 49q66 78 152 104q87 26 188 -7l192 -86q149 -53 234 65l65 -43q-122 -177 -327 -108l-207 88q-133 46 -238 -62z" />
    <glyph glyph-name="notequal" unicode="&#x2260;" horiz-adv-x="1124" 
d="M111 395l18 101h270l246 303h-463l19 102h526l111 137l53 -34l-82 -103h209l-19 -102h-272l-244 -303h463l-18 -101h-527l-118 -147l-56 35l90 112h-206z" />
    <glyph glyph-name="lessequal" unicode="&#x2264;" horiz-adv-x="917" 
d="M223 879l553 319l33 -72l-504 -286l408 -312l-68 -69l-436 340zM94 207l17 90h596l-17 -90h-596z" />
    <glyph glyph-name="greaterequal" unicode="&#x2265;" horiz-adv-x="913" 
d="M350 1198l443 -319l-15 -80l-555 -340l-43 69l514 312l-401 286zM700 297l-16 -90h-596l16 90h596z" />
    <glyph glyph-name="lozenge" unicode="&#x25ca;" horiz-adv-x="1132" 
d="M1077 721l-577 -707h-82l-318 707l568 704h82zM688 1321l-463 -602l250 -602l490 602z" />
    <glyph glyph-name="fi" unicode="&#xfb01;" horiz-adv-x="1116" 
d="M874 1399l-49 -82q-54 31 -123 31q-198 0 -245 -254l-17 -90h320l-17 -89h-317l-162 -915h-98l162 915h-207l16 89h205l16 90q63 346 365 346q84 0 151 -41zM928 1016h100l-180 -1016h-100zM954 1327q0 45 31 70q30 24 70 24q28 0 45 -17q18 -18 18 -48q0 -44 -28 -69
t-66 -25q-29 0 -49 17q-21 18 -21 48z" />
    <glyph glyph-name="fl" unicode="&#xfb02;" horiz-adv-x="1105" 
d="M868 1399l-49 -80q-53 31 -117 31q-199 0 -245 -256l-17 -90h314l-17 -89h-311l-162 -915h-98l162 915h-207l16 89h205l16 90q63 346 365 346q78 0 145 -41zM975 1434h100l-254 -1434h-100z" />
    <glyph glyph-name="CR" horiz-adv-x="659" 
 />
    <glyph glyph-name="_0004" horiz-adv-x="0" 
 />
    <glyph glyph-name="g.alt" horiz-adv-x="1241" 
d="M1030 936l125 121l55 -53l-125 -125q88 -121 88 -260q0 -174 -110 -330q-111 -158 -299 -201q113 -27 190 -99q76 -72 76 -179q0 -197 -169 -308q-168 -110 -417 -110q-210 0 -335 108q-126 109 -93 295h99q-12 -83 10 -142q23 -60 75 -96q55 -37 117 -53q64 -16 146 -16
q186 0 324 78q139 79 139 231q0 118 -110 181t-257 63q-206 0 -325 107t-119 298q0 139 57 253q57 115 149 184q94 71 197 107q108 38 213 38q186 0 299 -92zM717 934q-84 0 -171 -29q-85 -28 -160 -84q-77 -57 -122 -149q-47 -96 -47 -211q0 -161 92 -244q91 -82 254 -82
q212 0 362 141t150 328q0 162 -103 246q-104 84 -255 84z" />
    <glyph glyph-name="gcircumflex.alt" horiz-adv-x="1241" 
d="M432 1180l344 270h76l244 -270l-2 -15h-101l-186 203l-272 -203h-105zM1030 936l125 121l55 -53l-125 -125q88 -121 88 -260q0 -174 -110 -330q-111 -158 -299 -201q113 -27 190 -99q76 -72 76 -179q0 -197 -169 -308q-168 -110 -417 -110q-210 0 -335 108
q-126 109 -93 295h99q-12 -83 10 -142q23 -60 75 -96q55 -37 117 -53q64 -16 146 -16q186 0 324 78q139 79 139 231q0 118 -110 181t-257 63q-206 0 -325 107t-119 298q0 139 57 253q57 115 149 184q94 71 197 107q108 38 213 38q186 0 299 -92zM717 934q-84 0 -171 -29
q-85 -28 -160 -84q-77 -57 -122 -149q-47 -96 -47 -211q0 -161 92 -244q91 -82 254 -82q212 0 362 141t150 328q0 162 -103 246q-104 84 -255 84z" />
    <glyph glyph-name="gbreve.alt" horiz-adv-x="1241" 
d="M993 1442h86q-23 -120 -99 -186t-200 -66q-125 0 -182 66q-58 67 -35 186h82q-33 -170 146 -170q169 0 202 170zM1030 936l125 121l55 -53l-125 -125q89 -122 89 -260q0 -173 -111 -330q-111 -158 -299 -201q113 -27 190 -99q76 -72 76 -179q0 -197 -169 -308
q-168 -110 -417 -110q-210 0 -335 108q-126 109 -93 295h99q-12 -83 10 -142q23 -60 75 -96q55 -37 117 -53q64 -16 146 -16q186 0 324 78q139 79 139 231q0 118 -110 181t-257 63q-206 0 -325 107t-119 298q0 139 57 253q57 115 149 184q94 71 197 107q108 38 213 38
q186 0 299 -92zM717 934q-84 0 -171 -29q-85 -28 -160 -84q-77 -57 -122 -149q-47 -96 -47 -211q0 -161 92 -244q91 -82 254 -82q212 0 362 141t150 328q0 162 -103 246q-104 84 -255 84z" />
    <glyph glyph-name="gdotaccent.alt" horiz-adv-x="1241" 
d="M711 1323q0 44 29 69t67 25q30 0 48 -17q19 -18 19 -48q0 -44 -29 -69q-31 -26 -65 -26q-69 0 -69 66zM1030 936l125 121l55 -53l-125 -125q88 -121 88 -260q0 -174 -110 -330q-111 -158 -299 -201q113 -27 190 -99q76 -72 76 -179q0 -197 -169 -308q-168 -110 -417 -110
q-210 0 -335 108q-126 109 -93 295h99q-12 -83 10 -142q23 -60 75 -96q55 -37 117 -53q64 -16 146 -16q186 0 324 78q139 79 139 231q0 118 -110 181t-257 63q-206 0 -325 107t-119 298q0 139 57 253q57 115 149 184q94 71 197 107q108 38 213 38q186 0 299 -92zM717 934
q-84 0 -171 -29q-85 -28 -160 -84q-77 -57 -122 -149q-47 -96 -47 -211q0 -161 92 -244q91 -82 254 -82q212 0 362 141t150 328q0 162 -103 246q-104 84 -255 84z" />
    <glyph glyph-name="gcommaaccent.alt" horiz-adv-x="1241" 
d="M854 1286q0 -43 -30 -67q-31 -25 -68 -25q-30 0 -47 17q-19 19 -19 49q0 36 119 233h88l-80 -145q37 -15 37 -62zM1030 936l125 121l55 -53l-125 -125q88 -121 88 -260q0 -174 -110 -330q-111 -158 -299 -201q113 -27 190 -99q76 -72 76 -179q0 -197 -169 -308
q-168 -110 -417 -110q-210 0 -335 108q-126 109 -93 295h99q-12 -83 10 -142q23 -60 75 -96q55 -37 117 -53q64 -16 146 -16q186 0 324 78q139 79 139 231q0 118 -110 181t-257 63q-206 0 -325 107t-119 298q0 139 57 253q57 115 149 184q94 71 197 107q108 38 213 38
q186 0 299 -92zM717 934q-84 0 -171 -29q-85 -28 -160 -84q-77 -57 -122 -149q-47 -96 -47 -211q0 -161 92 -244q91 -82 254 -82q212 0 362 141t150 328q0 162 -103 246q-104 84 -255 84z" />
    <glyph glyph-name="commaaccent" horiz-adv-x="946" 
d="M319 -303q0 44 31 69q29 23 70 23q26 0 46 -18q19 -18 19 -50q0 -10 -1 -13q0 -2 -1.5 -6.5t-2.5 -8.5q-4 -14 -7 -19q-1 -1 -5.5 -10t-9.5 -17q-16 -26 -24 -40q-4 -7 -15.5 -26.5t-19.5 -33.5q-40 -70 -47 -82h-88l94 170q-39 15 -39 62z" />
    <glyph glyph-name="commaaccent.alt" horiz-adv-x="946" 
d="M766 1397q0 -41 -31 -67q-29 -25 -67 -25q-68 0 -68 65q0 27 14 49l119 209h88l-92 -170q37 -15 37 -61z" />
    <glyph glyph-name="zero.tf" horiz-adv-x="1402" 
d="M338 889l-62 -342q-40 -220 59 -339q99 -118 292 -118q189 0 340 119q149 118 190 338l62 342q43 217 -54 342q-96 123 -288 123q-198 0 -347 -121q-148 -120 -192 -344zM168 547l61 342q49 272 236 418q185 145 430 145q219 0 351 -150q132 -151 83 -413l-59 -342
q-51 -269 -234 -416t-422 -147q-108 0 -196 35q-91 36 -157 104q-66 67 -93 177t0 247z" />
    <glyph glyph-name="one.tf" horiz-adv-x="1402" 
d="M158 0l16 92h397l230 1223l-379 -105l16 105l490 133l-252 -1356h434l-16 -92h-936z" />
    <glyph glyph-name="two.tf" horiz-adv-x="1402" 
d="M346 1063h-102q18 108 80 188q63 81 149 122q92 44 181 61q93 18 198 18q138 0 252 -41q112 -41 183 -135q70 -94 54 -229q-17 -143 -117 -242q-102 -101 -232 -141q-132 -41 -271 -41q-62 0 -130 -7q-61 -6 -126 -25q-68 -20 -115 -50q-48 -31 -85 -86q-38 -56 -50 -129
l-43 -224h991l-18 -102h-1096l57 324q21 116 83 195q63 81 154 124q93 44 186 62q95 18 204 18q77 0 153 15q77 15 152 49q74 33 131 98q55 62 70 149q17 90 -15 156q-31 65 -98 100q-68 35 -138 50q-77 16 -152 16q-78 0 -153 -14t-146 -43q-75 -31 -125 -91
q-51 -62 -66 -145z" />
    <glyph glyph-name="three.tf" horiz-adv-x="1402" 
d="M371 1083h-105q18 106 80 183q59 73 151 114q90 40 179 56q87 16 188 16q94 0 173 -20q84 -21 154 -63t108 -116q38 -75 28 -170q-12 -125 -120 -227q-109 -103 -244 -127q112 -22 191 -109q79 -86 79 -192q0 -194 -166 -320q-167 -126 -457 -126q-79 0 -151 9
q-73 9 -145 36q-75 28 -119 68q-47 43 -71 111t-7 159h100q-12 -75 10 -128q23 -55 63 -83q41 -29 105 -45q66 -17 118 -21q47 -4 118 -4q238 0 368 97q131 98 131 235q0 112 -102 193t-293 81h-237l16 92h231q202 0 330 88q129 89 152 203q23 119 -76 203t-301 84
q-429 0 -479 -277z" />
    <glyph glyph-name="four.tf" horiz-adv-x="1402" 
d="M1124 1434h115l-178 -1006h192l-16 -98h-193l-59 -330h-106l59 330h-883l-6 92zM954 428l156 858l-913 -858h757z" />
    <glyph glyph-name="five.tf" horiz-adv-x="1402" 
d="M807 778h-563l116 656h973l-18 -99h-871l-79 -458h460q429 0 445 -363q11 -215 -164 -370q-173 -154 -479 -154q-109 0 -195 19q-87 19 -164 63q-75 43 -110 126q-36 85 -15 197h105q-16 -87 14 -150q29 -61 97 -92q62 -28 136 -41q69 -12 150 -12q249 0 383 110
q133 109 133 284q0 284 -354 284z" />
    <glyph glyph-name="six.tf" horiz-adv-x="1402" 
d="M383 1057l-76 -391q180 202 500 202q203 0 343 -94q140 -93 138 -280q-1 -133 -62 -236t-158 -160q-99 -58 -208 -86t-229 -28q-109 0 -199 25q-92 26 -165 76q-72 50 -104 139t-9 206l120 627q24 128 124 222q99 93 229 134q131 41 270 41q229 0 363 -94
q135 -94 114 -268h-110q15 124 -95 194t-290 70q-111 0 -216 -32q-103 -32 -183 -102q-79 -70 -97 -165zM651 88q90 0 178 20q87 20 166 60t129 120q51 81 52 183q2 141 -115 219t-275 78q-110 0 -216 -34q-108 -35 -195 -114q-89 -81 -111 -192q-18 -92 9 -161
q27 -68 89 -106t135 -56q68 -17 154 -17z" />
    <glyph glyph-name="seven.tf" horiz-adv-x="1402" 
d="M233 0l1008 1333h-926l15 101h1044v-91l-1016 -1343h-125z" />
    <glyph glyph-name="eight.tf" horiz-adv-x="1402" 
d="M717 696q-78 0 -165 -18q-84 -17 -175 -56q-88 -37 -146 -112q-57 -74 -57 -170q0 -143 127 -209q126 -65 307 -65q78 0 159 15q84 16 164 49q84 35 141 98q59 65 71 149q18 107 -53 182q-73 77 -171 107q-99 30 -202 30zM590 -31q-130 0 -246 31q-111 30 -197 114
q-84 82 -84 208q0 160 121 275t281 148q-254 83 -254 279q0 120 61 209q61 90 161 138q100 49 205 71q103 22 216 22q128 0 231 -29q106 -30 188 -110q81 -79 81 -201q0 -159 -105 -251q-105 -91 -278 -142q115 -24 201 -108q85 -84 85 -203q0 -123 -62 -213
q-63 -91 -165 -141q-100 -49 -213 -73q-111 -24 -227 -24zM836 1370q-81 0 -161 -16q-83 -16 -168 -51q-85 -34 -138 -104q-54 -71 -54 -161q0 -67 42 -118q41 -50 109 -78q66 -27 134 -39q67 -12 133 -12q77 0 160 15q84 15 166 49q86 35 138 99q54 66 54 154q0 75 -41 130
q-40 54 -107 81q-66 27 -132 39t-135 12z" />
    <glyph glyph-name="nine.tf" horiz-adv-x="1402" 
d="M1116 410l68 362q-179 -203 -504 -203q-204 0 -347 95t-143 280q0 133 59 236q59 102 154 159q97 58 206 86q111 29 229 29q104 0 199 -26q94 -26 167 -75q72 -49 108 -140q34 -87 13 -205l-106 -598q-38 -218 -209 -322t-410 -104q-226 0 -363 94q-138 94 -120 268h108
q-12 -131 97 -198q108 -66 294 -66q177 0 324 87t176 241zM819 1356q-90 0 -177 -21q-90 -22 -167 -64q-80 -44 -128 -125t-48 -188q0 -150 114 -220q113 -70 285 -70q173 0 330 89q156 88 186 253q33 180 -81 263q-115 83 -314 83z" />
    <glyph glyph-name="Euro.tf" horiz-adv-x="1402" 
d="M1147 127l12 -98q-139 -45 -262 -45q-593 0 -598 573h-166l17 94h153q0 5 8 58q11 47 15 63h-154l16 94h166q79 259 289 422q209 162 512 162q92 0 197 -31l-37 -88q-89 25 -176 25q-510 0 -674 -490h559l-43 -94h-547q-3 -7 -14 -59q-8 -61 -8 -62h518l-37 -94h-483
q-6 -229 119 -350t384 -121q116 0 234 41z" />
    <glyph glyph-name="cent.tf" horiz-adv-x="1402" 
d="M713 -29l-27 -145h-98l26 145q-177 17 -284 127q-109 112 -109 297q0 252 166 417q166 164 408 187l22 123h98l-22 -123q186 -21 293 -149l-80 -64q-105 123 -279 123q-209 0 -357 -135t-148 -366q0 -166 99 -255q101 -90 259 -90q168 0 319 127l58 -71
q-157 -132 -344 -148z" />
    <glyph glyph-name="sterling.tf" horiz-adv-x="1402" 
d="M170 631l16 88h164q-12 159 -12 201q0 133 47 239q47 105 129 165q86 62 182 91q104 31 215 31q92 0 171 -19q75 -18 136 -59t85 -116q24 -76 8 -177h-90q12 81 -11 140q-23 60 -74 88t-111 40q-63 13 -130 13q-200 0 -328 -107q-127 -106 -127 -315q0 -31 5 -116
q1 -20 2.5 -43.5t2.5 -36t1 -19.5h530l-16 -88h-512q0 -155 -52 -285q-51 -127 -202 -248h952l-16 -98h-1076l17 92q174 152 231 276q55 121 49 263h-186z" />
    <glyph glyph-name="florin.tf" horiz-adv-x="1402" 
d="M508 -2l162 917h-293l14 89h293l18 112q28 173 115 261q85 87 250 87q107 0 188 -71l-57 -70q-60 51 -151 51q-101 0 -162 -58t-84 -200l-19 -112h371l-14 -89h-371l-162 -917q-28 -168 -105 -258t-233 -90q-99 0 -180 71l59 70q53 -51 142 -51q94 0 145 61q52 62 74 197
z" />
    <glyph glyph-name="yen.tf" horiz-adv-x="1402" 
d="M281 342l14 84h315l25 129h-316l15 84h272l-377 793v2h115l361 -770l630 770h125v-2l-659 -793h284l-14 -84h-328l-24 -129h328l-15 -84h-327l-60 -342h-108l59 342h-315z" />
    <glyph glyph-name="dollar.tf" horiz-adv-x="1402" 
d="M848 1649h92l-35 -205q144 -7 264 -69q117 -60 158 -173l-84 -45q-35 101 -150 147t-251 48q-73 0 -155 -17q-84 -17 -159 -50q-81 -35 -131 -101q-51 -68 -51 -156q0 -42 12 -73q12 -32 45 -56q38 -28 59 -40q29 -17 85 -31q28 -7 91 -22q24 -6 107 -22
q263 -52 357 -108q170 -99 133 -309q-23 -127 -123 -213q-101 -86 -217 -120q-115 -34 -248 -40l-35 -199h-90l35 199q-170 6 -308 77q-136 70 -181 205l94 48q40 -120 172 -178q128 -56 284 -56q72 0 151 15q70 13 158 48q79 31 136 91t72 137q12 60 -10 111q-20 48 -54 77
q-36 31 -104 55q-65 23 -118 35q-64 14 -138 29q-84 17 -142 32q-60 15 -124 40q-72 27 -108 58q-39 33 -67 84q-28 52 -28 120q0 105 53 188q52 81 140 130t182 74t196 30z" />
    <glyph glyph-name="zero.denom" horiz-adv-x="768" 
d="M174 416l-18 -107q-18 -110 27 -169q47 -60 132 -60q84 0 153 59q71 61 89 170l18 107q40 235 -151 235q-86 0 -157 -61q-72 -62 -93 -174zM61 309l19 107q27 156 131 239q105 84 227 84q124 0 193 -85q70 -86 43 -238l-19 -107q-27 -156 -125 -238q-100 -83 -229 -83
q-123 0 -195 84t-45 237z" />
    <glyph glyph-name="one.denom" horiz-adv-x="485" 
d="M-31 0l15 84h129l94 532l-117 -28l14 90l220 47l-113 -641h133l-14 -84h-361z" />
    <glyph glyph-name="two.denom" horiz-adv-x="727" 
d="M172 522h-94q39 217 315 217q238 0 238 -178q0 -81 -33 -138q-32 -55 -86 -80q-52 -24 -98 -33q-45 -9 -97 -9q-66 0 -131 -31q-62 -29 -77 -108l-11 -62h449l-19 -100h-546q10 57 14 84q6 41 14 80q18 106 112 165q92 58 210 58q200 0 200 160q0 106 -157 106
q-85 0 -136 -26q-52 -27 -67 -105z" />
    <glyph glyph-name="three.denom" horiz-adv-x="729" 
d="M336 338h-113l17 88h104q74 0 136 31q61 31 61 96q0 44 -40 74q-41 30 -116 30q-65 0 -128 -30t-75 -103h-88q18 109 106 162t199 53q102 0 170 -44t68 -128q0 -71 -42 -121q-41 -48 -108 -65q53 -15 79 -55q28 -42 28 -86q0 -130 -94 -188t-234 -58q-119 0 -187 52
t-50 167h98q-10 -55 20 -85t63 -36q32 -6 75 -6q211 0 211 143q0 41 -39 75q-38 34 -121 34z" />
    <glyph glyph-name="four.denom" horiz-adv-x="702" 
d="M432 729h133l-84 -477h86l-16 -90h-86l-29 -160h-92l29 160h-393l8 76zM104 252h285l68 387z" />
    <glyph glyph-name="five.denom" horiz-adv-x="729" 
d="M340 369h-258l63 360h510l-16 -88h-418l-33 -186h166q128 0 193 -54q63 -52 63 -143q0 -116 -87 -192q-86 -76 -249 -76q-116 0 -188 48q-71 47 -53 161h90q-21 -121 168 -121q221 0 221 166q0 50 -39 88q-38 37 -133 37z" />
    <glyph glyph-name="six.denom" horiz-adv-x="759" 
d="M324 72q85 0 151 39t66 125q0 61 -51 93q-49 31 -115 31q-79 0 -142 -36q-64 -36 -79 -107q-12 -77 40 -111t130 -34zM203 508l-23 -137q78 71 209 71q106 0 178 -45t72 -143q0 -133 -99 -199q-98 -65 -231 -65q-121 0 -196 56q-77 57 -56 171l52 291q21 118 111 175
q91 58 208 58q116 0 186 -47t62 -139h-92q5 47 -39 73q-43 25 -131 25q-184 0 -211 -145z" />
    <glyph glyph-name="seven.denom" horiz-adv-x="628" 
d="M61 641l17 88h530v-45l-493 -684h-113l467 641h-408z" />
    <glyph glyph-name="eight.denom" horiz-adv-x="770" 
d="M338 334q-86 0 -155 -39q-68 -38 -68 -115q0 -57 56 -84q55 -26 120 -26q68 0 137 30q68 30 84 95q12 69 -42 104q-55 35 -132 35zM274 -16q-108 0 -187 42t-79 138q0 82 58 140q56 56 139 73q-121 39 -121 143q0 115 101 170t225 55q103 0 179 -40q77 -41 77 -130
q0 -147 -181 -200q58 -12 95 -54q36 -40 36 -102q0 -86 -56 -141q-57 -56 -129 -75q-70 -19 -157 -19zM395 666q-75 0 -142 -32t-67 -104q0 -54 48 -80q49 -26 118 -26q88 0 150 34q63 34 63 103q0 56 -53 80q-55 25 -117 25z" />
    <glyph glyph-name="nine.denom" horiz-adv-x="757" 
d="M383 657q-87 0 -153 -39t-66 -124q0 -65 50 -95t118 -30q76 0 141 37q66 38 78 106q15 76 -38 111q-52 34 -130 34zM502 221l24 137q-78 -71 -209 -71q-107 0 -180 44q-71 43 -71 144q0 133 100 199q99 65 231 65q122 0 196 -56q75 -57 54 -171l-51 -291
q-21 -117 -112 -175t-208 -58q-116 0 -186 47q-69 46 -61 139h92q-5 -47 40 -73q43 -25 132 -25q185 0 209 145z" />
    <glyph glyph-name="zero.num" horiz-adv-x="768" 
d="M299 1128l-18 -106q-18 -110 27 -169q46 -60 132 -60q84 0 153 59q71 61 89 170l18 106q41 236 -151 236q-86 0 -157 -61q-72 -61 -93 -175zM186 1022l19 106q27 157 131 240q105 84 227 84q124 0 193 -85q70 -87 43 -239l-19 -106q-27 -158 -125 -239q-100 -83 -229 -83
q-123 0 -195 84t-45 238z" />
    <glyph glyph-name="one.num" horiz-adv-x="489" 
d="M98 727l15 84h129l94 532l-117 -28l14 90l220 47l-113 -641h133l-14 -84h-361z" />
    <glyph glyph-name="two.num" horiz-adv-x="729" 
d="M299 1235h-94q39 217 315 217q238 0 238 -178q0 -81 -33 -138q-32 -55 -86 -80q-52 -24 -98 -33q-45 -9 -97 -9q-66 0 -131 -31q-62 -29 -77 -109l-11 -61h449l-19 -100h-546q10 57 14 84q6 41 14 80q18 105 112 164t210 59q200 0 200 160q0 106 -157 106q-84 0 -136 -27
t-67 -104z" />
    <glyph glyph-name="three.num" horiz-adv-x="727" 
d="M461 1049h-113l17 88h104q76 0 136 30q61 31 61 97q0 43 -40 73q-42 31 -116 31q-63 0 -128 -31q-63 -30 -75 -102h-88q18 109 106 162t199 53q102 0 170 -44t68 -128q0 -72 -42 -121q-41 -48 -108 -65q52 -15 79 -56q28 -42 28 -86q0 -129 -94 -187t-234 -58
q-119 0 -187 52t-50 167h98q-10 -55 20 -85t63 -36q31 -6 75 -6q211 0 211 143q0 40 -39 75q-38 34 -121 34z" />
    <glyph glyph-name="four.num" horiz-adv-x="702" 
d="M557 1438h133l-84 -477h86l-16 -91h-86l-29 -159h-92l29 159h-394l9 76zM229 961h285l68 387z" />
    <glyph glyph-name="five.num" horiz-adv-x="727" 
d="M463 1075h-258l63 361h510l-16 -88h-418l-33 -187h166q129 0 193 -53q63 -52 63 -143q0 -117 -87 -193q-86 -76 -249 -76q-116 0 -188 48q-71 47 -53 161h90q-21 -121 168 -121q221 0 221 166q0 50 -39 88q-38 37 -133 37z" />
    <glyph glyph-name="six.num" horiz-adv-x="757" 
d="M444 782q87 0 153 39q67 40 67 125q0 63 -51 94t-117 31q-75 0 -140 -37t-80 -106q-15 -76 38 -111t130 -35zM326 1219l-25 -138q84 72 209 72q107 0 180 -44q72 -43 72 -144q0 -133 -100 -199t-232 -66q-121 0 -196 57t-54 171l51 291q21 117 112 175t208 58
q116 0 186 -47t62 -139h-92q4 46 -40 72t-132 26q-182 0 -209 -145z" />
    <glyph glyph-name="seven.num" horiz-adv-x="632" 
d="M188 1350l17 88h530v-45l-493 -684h-113l467 641h-408z" />
    <glyph glyph-name="eight.num" horiz-adv-x="772" 
d="M463 1040q-86 0 -155 -39q-68 -38 -68 -114q0 -57 56 -84q57 -27 120 -27q66 0 137 31q69 30 84 94q12 70 -42 105q-53 34 -132 34zM399 690q-107 0 -187 42q-79 42 -79 138q0 84 57 141q55 55 140 72q-121 39 -121 144q0 115 101 170t225 55q102 0 179 -41t77 -129
q0 -148 -181 -201q58 -12 95 -54q36 -40 36 -101q0 -87 -56 -142q-56 -54 -129 -74q-74 -20 -157 -20zM520 1372q-75 0 -142 -32t-67 -103q0 -55 48 -81q49 -26 118 -26q88 0 150 34q63 34 63 104q0 56 -53 80q-52 24 -117 24z" />
    <glyph glyph-name="nine.num" horiz-adv-x="761" 
d="M510 1372q-87 0 -153 -39t-66 -125q0 -64 50 -94q51 -31 118 -31q76 0 141 37q66 37 78 107q15 75 -38 110t-130 35zM629 936l24 137q-79 -72 -209 -72q-106 0 -180 45q-71 43 -71 144q0 133 100 199q99 65 231 65q122 0 196 -56q75 -57 54 -171l-51 -291
q-21 -117 -112 -175q-92 -59 -208 -59q-115 0 -186 48q-69 46 -61 139h92q-5 -47 40 -73q43 -25 132 -25q185 0 209 145z" />
    <glyph glyph-name="parenleft.case" horiz-adv-x="679" 
d="M739 1640l52 -75q-213 -131 -356 -356q-142 -224 -187 -458q-45 -236 17 -465q63 -230 235 -374l-68 -80q-154 111 -237 298q-82 184 -77 396q5 213 70 421q66 209 211 395t340 298z" />
    <glyph glyph-name="parenright.case" horiz-adv-x="677" 
d="M233 1567l64 78q156 -112 238 -298q81 -182 76 -398q-4 -210 -71 -423q-65 -207 -211 -396q-143 -185 -339 -298l-47 82q223 144 365 374t181 465q39 234 -25 458q-65 226 -231 356z" />
    <glyph glyph-name="hyphen.case" horiz-adv-x="1034" 
d="M162 639l18 106h717l-18 -106h-717z" />
    <glyph glyph-name="bracketleft.case" horiz-adv-x="651" 
d="M57 -190l320 1806h371l-19 -98h-264l-285 -1610h264l-16 -98h-371z" />
    <glyph glyph-name="bracketright.case" horiz-adv-x="653" 
d="M633 1614l-320 -1807h-370l16 99h264l285 1612h-264l18 96h371z" />
    <glyph glyph-name="braceleft.case" horiz-adv-x="641" 
d="M440 -41l-14 -78q-190 -27 -243 36q-52 63 -19 243l53 301q43 241 -119 241l15 80q160 0 204 242l48 276q30 179 112 246q83 68 250 35l-12 -70q-130 21 -183 -24t-77 -187l-47 -276q-6 -44 -19 -87q-11 -37 -31 -79q-22 -45 -57 -73q-37 -30 -90 -42q47 -12 74 -41
q27 -28 31 -74q5 -49 2 -80q-2 -26 -11 -87l-53 -301q-24 -140 13 -182t173 -19z" />
    <glyph glyph-name="bar.case" horiz-adv-x="509" 
d="M477 1554l-299 -1695h-108l299 1695h108z" />
    <glyph glyph-name="braceright.case" horiz-adv-x="641" 
d="M-41 -117l14 78q127 -22 180 20q52 42 76 181l54 301q7 51 18 87q12 40 31 80q22 45 57 73q37 30 90 42q-48 12 -75 41q-28 29 -32 74q-5 47 -2 79q2 26 11 87l49 277q24 142 -12 186q-37 45 -172 24l12 70q181 33 238 -35q57 -67 24 -245l-49 -277q-44 -242 121 -242
l-14 -79q-161 0 -205 -242l-54 -301q-33 -181 -106 -243q-74 -63 -254 -36z" />
    <glyph glyph-name="guilsinglleft.case" horiz-adv-x="671" 
d="M150 711l362 448h106l-2 -10l-354 -438l199 -439l-2 -12h-107z" />
    <glyph glyph-name="guilsinglright.case" horiz-adv-x="669" 
d="M557 698l-362 -450h-107l2 12l354 438l-198 439v10h106z" />
    <glyph glyph-name="guillemotleft.case" horiz-adv-x="831" 
d="M117 670l360 448h107l-2 -10l-353 -438l199 -439l-2 -12h-107zM537 219l-203 451l360 448h107l-2 -10l-353 -438l199 -439l-2 -12h-106z" />
    <glyph glyph-name="guillemotright.case" horiz-adv-x="886" 
d="M774 688l-362 -450h-107l2 12l355 438l-199 438v11h106zM555 688l-362 -450h-107l2 12l354 438l-198 438v11h106z" />
    <glyph glyph-name="endash.case" horiz-adv-x="1212" 
d="M152 641l18 104h913l-18 -104h-913z" />
    <glyph glyph-name="emdash.case" horiz-adv-x="1433" 
d="M154 645l18 105h1133l-19 -105h-1132z" />
    <glyph glyph-name="bullet.case" horiz-adv-x="772" 
d="M369 510q-77 0 -123 45q-47 45 -47 119q0 101 70 165t169 64q74 0 120 -45t46 -119q0 -98 -69 -164q-68 -65 -166 -65z" />
    <glyph glyph-name="periodcentered.case" horiz-adv-x="483" 
d="M172 680q0 44 30 69q29 25 68 25q30 0 48 -17q20 -18 20 -48q0 -43 -30 -69q-31 -26 -66 -26q-28 0 -49 18t-21 48z" />
    <glyph glyph-name="a.alt" horiz-adv-x="1132" 
d="M590 1024q204 0 317 -95t80 -288l-113 -641h-90l35 209q-159 -229 -436 -229q-151 0 -255 69q-103 69 -103 207q0 183 137 278t332 95q196 0 374 -94l19 106q29 164 -59 227q-88 64 -257 64q-162 0 -352 -84l-6 92q215 84 377 84zM848 446q-156 89 -373 93
q-144 0 -246 -66t-102 -199q0 -104 79 -152q80 -48 193 -48q165 0 288 104t161 268z" />
    <glyph glyph-name="agrave.alt" horiz-adv-x="1132" 
d="M590 1024q204 0 317 -95t80 -288l-113 -641h-90l35 209q-159 -229 -436 -229q-151 0 -255 69q-103 69 -103 207q0 183 137 278t332 95q196 0 374 -94l19 106q29 164 -59 227q-88 64 -257 64q-162 0 -352 -84l-6 92q215 84 377 84zM848 446q-156 89 -373 93
q-144 0 -246 -66t-102 -199q0 -104 79 -152q80 -48 193 -48q165 0 288 104t161 268zM731 1196h-92l-133 236v2h125l102 -230z" />
    <glyph glyph-name="aacute.alt" horiz-adv-x="1132" 
d="M664 1196h-93l2 8l185 230h125v-2zM590 1024q-162 0 -377 -84l6 -92q190 84 352 84q169 0 257 -64q88 -63 59 -227l-19 -106q-178 94 -374 94q-195 0 -332 -95t-137 -278q0 -138 103 -207q104 -69 255 -69q277 0 436 229l-35 -209h90l113 641q33 193 -80 288t-317 95z
M848 446q-38 -164 -161 -268t-288 -104q-113 0 -193 48q-79 48 -79 152q0 133 102 199t246 66q217 -4 373 -93z" />
    <glyph glyph-name="acircumflex.alt" horiz-adv-x="1132" 
d="M322 1174l323 260h80l236 -260l-3 -15h-98l-182 199l-256 -199h-103zM590 1024q-162 0 -377 -84l6 -92q190 84 352 84q169 0 257 -64q88 -63 59 -227l-19 -106q-178 94 -374 94q-195 0 -332 -95t-137 -278q0 -138 103 -207q104 -69 255 -69q277 0 436 229l-35 -209h90
l113 641q33 193 -80 288t-317 95zM848 446q-38 -164 -161 -268t-288 -104q-113 0 -193 48q-79 48 -79 152q0 133 102 199t246 66q217 -4 373 -93z" />
    <glyph glyph-name="atilde.alt" horiz-adv-x="1132" 
d="M590 1024q209 0 320 -93q112 -93 77 -290l-113 -641h-90l35 209q-172 -229 -436 -229q-151 0 -255 69q-103 69 -103 207q0 183 141 279q140 96 328 94q196 0 374 -94l19 106q27 156 -62 222q-90 67 -254 67q-169 0 -352 -82l-6 92q215 84 377 84zM848 440
q-160 90 -373 95q-137 0 -244 -64q-104 -62 -104 -197q0 -101 83 -151q82 -49 189 -49q165 0 288 101t161 265zM487 1284l-65 23q27 88 109 118q84 31 149 -12l78 -45q29 -21 70 -7q40 13 61 62l65 -22q-24 -93 -102 -124q-78 -32 -143 11l-78 45q-30 22 -77 10
q-46 -12 -67 -59z" />
    <glyph glyph-name="adieresis.alt" horiz-adv-x="1132" 
d="M420 1335q0 41 29 65q27 23 65 23q64 0 64 -61q0 -41 -28 -66q-27 -24 -61 -24q-69 0 -69 63zM807 1335q0 41 29 65q27 23 65 23q64 0 64 -61q0 -41 -28 -66q-27 -24 -60 -24q-70 0 -70 63zM590 1024q-162 0 -377 -84l6 -92q190 84 352 84q169 0 257 -64q88 -63 59 -227
l-19 -106q-178 94 -374 94q-195 0 -332 -95t-137 -278q0 -138 103 -207q104 -69 255 -69q277 0 436 229l-35 -209h90l113 641q33 193 -80 288t-317 95zM848 446q-38 -164 -161 -268t-288 -104q-113 0 -193 48q-79 48 -79 152q0 133 102 199t246 66q217 -4 373 -93z" />
    <glyph glyph-name="amacron.alt" horiz-adv-x="1132" 
d="M387 1296l14 86h543l-14 -86h-543zM590 1024q204 0 317 -95t80 -288l-113 -641h-90l35 209q-159 -229 -436 -229q-151 0 -255 69q-103 69 -103 207q0 183 137 278t332 95q196 0 374 -94l19 106q29 164 -59 227q-88 64 -257 64q-162 0 -352 -84l-6 92q215 84 377 84z
M848 446q-156 89 -373 93q-144 0 -246 -66t-102 -199q0 -104 79 -152q80 -48 193 -48q165 0 288 104t161 268z" />
    <glyph glyph-name="abreve.alt" horiz-adv-x="1132" 
d="M885 1434h86q-21 -117 -99 -180q-77 -62 -190 -62q-119 0 -182 63t-45 179h82q-11 -68 22 -117t125 -49q87 0 139 50q51 50 62 116zM590 1024q204 0 317 -95t80 -288l-113 -641h-90l35 209q-159 -229 -436 -229q-151 0 -255 69q-103 69 -103 207q0 183 137 278t332 95
q196 0 374 -94l19 106q29 164 -59 227q-88 64 -257 64q-162 0 -352 -84l-6 92q215 84 377 84zM848 446q-156 89 -373 93q-144 0 -246 -66t-102 -199q0 -104 79 -152q80 -48 193 -48q165 0 288 104t161 268z" />
    <glyph glyph-name="aring.alt" horiz-adv-x="1132" 
d="M489 1290q0 94 72 150q71 55 166 55q74 0 124 -38t50 -107q0 -95 -65 -150t-168 -55q-82 0 -130 39q-49 40 -49 106zM715 1425q-66 0 -102 -33q-37 -34 -42 -81q-5 -39 23 -65q26 -25 76 -25q66 0 106 34q41 35 41 84q0 86 -102 86zM590 1024q204 0 317 -95t80 -288
l-113 -641h-90l35 209q-159 -229 -436 -229q-151 0 -255 69q-103 69 -103 207q0 183 137 278t332 95q196 0 374 -94l19 106q29 164 -59 227q-88 64 -257 64q-162 0 -352 -84l-6 92q215 84 377 84zM848 446q-156 89 -373 93q-144 0 -246 -66t-102 -199q0 -104 79 -152
q80 -48 193 -48q165 0 288 104t161 268z" />
    <glyph glyph-name="aringacute.alt" horiz-adv-x="1132" 
d="M473 1253q0 -65 43 -102t119 -37q96 0 161 52q66 52 66 137q0 63 -49 100t-119 37q-89 0 -154 -49q-67 -50 -67 -138zM682 1376q84 0 94 -65q11 -64 -47 -103q-38 -24 -82 -24q-80 0 -90 65q-11 64 47 105q34 22 78 22zM750 1499h-93l2 6l177 183h122v-2zM590 1024
q-162 0 -377 -84l6 -92q190 84 352 84q169 0 257 -64q88 -63 59 -227l-19 -106q-178 94 -374 94q-195 0 -332 -95t-137 -278q0 -138 103 -207q104 -69 255 -69q277 0 436 229l-35 -209h90l113 641q33 193 -80 288t-317 95zM848 446q-38 -164 -161 -268t-288 -104
q-113 0 -193 48q-79 48 -79 152q0 133 102 199t246 66q217 -4 373 -93z" />
    <glyph glyph-name="aogonek.alt" horiz-adv-x="1134" 
d="M848 440q-160 90 -373 95q-137 0 -244 -64q-104 -62 -104 -197q0 -104 79 -152q80 -48 193 -48q165 0 288 101t161 265zM590 1024q209 0 320 -93q112 -93 77 -290l-125 -713q-160 17 -225 -71q-45 -61 -4 -111q29 -37 102 -35q50 2 103 29q52 27 90 74l59 -37
q-43 -66 -115 -103q-70 -36 -145 -41q-153 -6 -188 95q-33 86 45 174q72 80 196 96l39 211q-172 -229 -436 -229q-151 0 -255 69q-103 69 -103 207q0 183 141 279q140 96 328 94q196 0 374 -94l19 106q28 168 -59 228q-88 61 -257 61t-352 -82l-6 92q215 84 377 84z" />
    <glyph glyph-name="y.alt" horiz-adv-x="1085" 
d="M983 1012h109l-908 -1501h-106l301 501l-229 1000h108l131 -598l68 -293l168 295z" />
    <glyph glyph-name="yacute.alt" horiz-adv-x="1085" 
d="M639 1196h-78l2 8l185 232h118v-2zM1092 1012h-109l-358 -596l-168 -295l-68 293l-131 598h-108l229 -1000l-301 -501h106z" />
    <glyph glyph-name="ycircumflex.alt" horiz-adv-x="1085" 
d="M350 1182l314 254h77l230 -254l-2 -13h-103l-178 191l-239 -191h-101zM1092 1012h-109l-358 -596l-168 -295l-68 293l-131 598h-108l229 -1000l-301 -501h106z" />
    <glyph glyph-name="ydieresis.alt" horiz-adv-x="1085" 
d="M414 1348q0 41 25 62q27 22 61 22q25 0 44 -16q17 -14 17 -44q0 -41 -25 -62q-27 -22 -63 -22q-25 0 -43 16q-16 15 -16 44zM1092 1012h-109l-358 -596l-168 -295l-68 293l-131 598h-108l229 -1000l-301 -501h106zM809 1348q0 41 26 62q27 22 60 22q25 0 44 -16
q17 -14 17 -44q0 -41 -25 -62q-27 -22 -63 -22q-25 0 -43 16q-16 15 -16 44z" />
    <glyph glyph-name="ygrave.alt" horiz-adv-x="1085" 
d="M735 1196h-84l-125 238v2h113l98 -232zM983 1012h109l-908 -1501h-106l301 501l-229 1000h108l131 -598l68 -293l168 295z" />
    </font>
</defs>
</svg>
