<?xml version="1.0" standalone="no"?>
<!DOCTYPE svg PUBLIC "-//W3C//DTD SVG 1.1//EN" "http://www.w3.org/Graphics/SVG/1.1/DTD/svg11.dtd" >
<svg xmlns="http://www.w3.org/2000/svg" xmlns:xlink="http://www.w3.org/1999/xlink" version="1.1">
<metadata>
Created by FontForge 20201107 at Mon Dec  9 10:38:27 2024
 By 
Copyright (c) 2012 by Fontfabric LLC. All rights reserved.
</metadata>
<defs>
<font id="NexaThin" horiz-adv-x="1292" >
  <font-face 
    font-family="NexaThin"
    font-weight="400"
    font-stretch="normal"
    units-per-em="2048"
    panose-1="2 0 5 0 0 0 0 0 0 0"
    ascent="1444"
    descent="-604"
    x-height="1012"
    cap-height="1434"
    bbox="-264 -602 2130 1950"
    underline-thickness="102"
    underline-position="-204"
    unicode-range="U+000D-FB02"
  />
<missing-glyph horiz-adv-x="1327" 
d="M76 0v1434h1102v-1434h-1102zM260 918h43q0 92 52 148t116 73q61 16 143 16q67 0 118 -10q55 -11 108 -35t84 -75q30 -50 30 -122q0 -103 -42 -150t-113 -63q-144 -41 -189 -106q-46 -67 -47 -215h45q0 150 31 195q30 43 162 81q87 18 139 75q54 58 55 183q0 84 -32 141
t-92 88q-58 30 -120 43q-61 13 -137 13q-146 0 -250 -68t-104 -212zM553 244q0 -39 42 -39t42 39t-42 39t-42 -39z" />
    <glyph glyph-name=".notdef" horiz-adv-x="1327" 
d="M76 0v1434h1102v-1434h-1102zM260 918h43q0 92 52 148t116 73q61 16 143 16q67 0 118 -10q55 -11 108 -35t84 -75q30 -50 30 -122q0 -103 -42 -150t-113 -63q-144 -41 -189 -106q-46 -67 -47 -215h45q0 150 31 195q30 43 162 81q87 18 139 75q54 58 55 183q0 84 -32 141
t-92 88q-58 30 -120 43q-61 13 -137 13q-146 0 -250 -68t-104 -212zM553 244q0 -39 42 -39t42 39t-42 39t-42 -39z" />
    <glyph glyph-name=".null" horiz-adv-x="0" 
 />
    <glyph glyph-name="nonmarkingreturn" horiz-adv-x="681" 
 />
    <glyph glyph-name="CR" unicode="&#xd;" horiz-adv-x="720" 
 />
    <glyph glyph-name="space" unicode=" " horiz-adv-x="555" 
 />
    <glyph glyph-name="exclam" unicode="!" horiz-adv-x="464" 
d="M201 1434h63v-1166h-63v1166zM180 53q0 34 29 48t56 0q28 -14 28 -48q0 -33 -28 -49q-27 -15 -56 0t-29 49z" />
    <glyph glyph-name="quotedbl" unicode="&#x22;" horiz-adv-x="645" 
d="M162 1444h57v-518h-57v518zM428 1444h55v-518h-55v518z" />
    <glyph glyph-name="numbersign" unicode="#" horiz-adv-x="1253" 
d="M510 1434h49l-86 -353h459l88 353h49l-88 -353h197v-39h-205l-160 -630h203v-43h-213l-90 -369h-49l90 369h-459l-90 -369h-49l90 369h-168v43h174l162 630h-174v39h184zM918 1038h-451l-160 -622h453z" />
    <glyph glyph-name="dollar" unicode="$" horiz-adv-x="1304" 
d="M631 1649h51v-211q154 -5 289 -66q133 -61 200 -176l-65 -41q-57 108 -182 158q-122 48 -267 53q-69 0 -143 -16q-71 -15 -150 -50q-77 -34 -122 -95q-46 -63 -45 -142q1 -54 27 -98q26 -43 63 -72q40 -31 102 -53q70 -25 123 -38q62 -15 150 -32q264 -56 350 -98
q198 -94 198 -303q0 -96 -50 -169q-51 -74 -132 -114t-169 -61q-84 -20 -179 -25v-199h-49v201q-172 5 -321 70q-152 67 -220 194l64 35q62 -120 205 -173q141 -52 300 -52q80 0 151 14q78 15 155 45q78 30 128 92t50 144q0 63 -28 116q-27 52 -69 83q-45 34 -109 57
q-73 27 -128 40t-143 31q-6 1 -23 4q-30 7 -66.5 15t-44.5 10q-21 4 -99 26q-77 21 -99 33q-39 20 -78 43q-50 29 -71 59q-23 33 -40 74q-19 45 -20 95q-2 96 44 169q47 76 123 119t163 66q85 22 176 27v211z" />
    <glyph glyph-name="percent" unicode="%" horiz-adv-x="1456" 
d="M240 0l905 1438h69l-905 -1438h-69zM1067 586q117 0 198 -63t99 -150q18 -88 0 -176t-99 -151q-80 -62 -198 -62q-87 0 -151 32q-65 32 -100 86q-32 49 -50 118q-16 64 0 129q18 69 50 118q35 54 100 86q66 33 151 33zM1067 532q-94 0 -158 -50t-79 -123t0 -145
q15 -73 80 -123t159 -50t158 50t79 123q15 72 0 145t-80 123t-159 50zM389 1440q117 0 198 -63t99 -150q18 -88 0 -176t-99 -151q-80 -62 -198 -62q-98 0 -170 45q-71 44 -104 111q-33 66 -33 145q0 78 33 144q34 68 104 112q72 45 170 45zM389 1386q-94 0 -158 -50
q-63 -49 -78 -123q-15 -73 0 -145q15 -74 79 -123q65 -50 159 -50t158 50t79 123q15 72 0 145t-80 123t-159 50z" />
    <glyph glyph-name="ampersand" unicode="&#x26;" horiz-adv-x="1390" 
d="M1120 702v-337q0 -150 42 -237t149 -85v-41q-83 -15 -148 39q-63 53 -84 141q-73 -118 -180 -159q-108 -41 -246 -41q-257 0 -388 106q-132 106 -132 279q0 133 90 227q88 93 215 137q-119 34 -201 125q-81 90 -81 213q0 159 127 264t374 105q91 0 166 -14
q76 -14 140 -47q68 -35 103 -105q36 -72 36 -176h-55q0 87 -31 149q-30 59 -90 88q-61 29 -122 39q-60 10 -149 10q-211 0 -323 -85t-111 -226q1 -109 75 -184q72 -74 166 -101q90 -26 200 -26h593v-58h-135zM1071 365v337h-414q-216 0 -338 -100t-122 -233q0 -151 111 -240
q110 -88 343 -88q81 0 144 14q72 16 133 48q64 34 104 101q39 66 39 161z" />
    <glyph glyph-name="quotesingle" unicode="'" horiz-adv-x="378" 
d="M162 1444h55v-518h-55v518z" />
    <glyph glyph-name="parenleft" unicode="(" horiz-adv-x="641" 
d="M551 1505l37 -53q-408 -273 -414 -838q-4 -257 101 -486q105 -228 311 -374l-33 -53q-217 141 -330 385q-114 246 -114 524q0 280 113 518q114 240 329 377z" />
    <glyph glyph-name="parenright" unicode=")" horiz-adv-x="643" 
d="M53 1452l37 53q215 -137 329 -377q113 -238 113 -518q0 -278 -114 -524q-113 -244 -330 -385l-33 53q206 146 311 374q105 229 101 486q-6 565 -414 838z" />
    <glyph glyph-name="asterisk" unicode="*" horiz-adv-x="679" 
d="M481 1083l-45 -32l-100 143l-107 -143l-45 30l113 142l-156 49l15 45l153 -47v157h56v-157l167 45l15 -45l-170 -47z" />
    <glyph glyph-name="plus" unicode="+" horiz-adv-x="1024" 
d="M111 664v67h372v365h60v-365h370v-67h-370v-375h-60v375h-372z" />
    <glyph glyph-name="comma" unicode="," horiz-adv-x="407" 
d="M121 -162l61 152q-35 11 -35 49q0 35 29 50q30 16 56 1q28 -16 28 -51q0 -14 -16 -53l-64 -148h-59z" />
    <glyph glyph-name="hyphen" unicode="-" horiz-adv-x="1017" 
d="M156 559v62h706v-62h-706z" />
    <glyph glyph-name="period" unicode="." horiz-adv-x="419" 
d="M154 45q0 34 27 49q28 15 57 0q28 -15 28 -49q0 -35 -28 -50q-29 -15 -57 0q-27 15 -27 50z" />
    <glyph glyph-name="slash" unicode="/" horiz-adv-x="974" 
d="M59 -168l785 1718h74l-787 -1718h-72z" />
    <glyph glyph-name="zero" unicode="0" horiz-adv-x="1359" 
d="M147 532v371q0 174 79 301q80 128 198 185q119 57 256 57q138 0 256 -57t198 -185q78 -125 78 -301v-371q0 -132 -46 -237q-47 -109 -120 -171q-74 -63 -170 -100q-94 -36 -196 -36q-100 0 -196 35t-170 100q-73 64 -120 172t-47 237zM217 903v-371q0 -154 69 -265
q70 -113 171 -162q104 -50 223 -49t223 52q102 49 171 161q69 111 69 263v371q0 116 -40 208q-41 95 -105 151q-67 59 -148 88q-84 30 -170 30t-170 -30q-83 -30 -149 -88q-62 -55 -104 -151q-40 -92 -40 -208z" />
    <glyph glyph-name="one" unicode="1" horiz-adv-x="792" 
d="M96 0v63h287v1301l-272 -66v60l344 76v-1371h290v-63h-649z" />
    <glyph glyph-name="two" unicode="2" horiz-adv-x="1363" 
d="M211 313v-243h1010v-70h-1080v311q0 113 48 193t132 121t174 59q91 18 197 18q84 0 165 18q86 19 156 54q74 37 121 107q46 68 46 161q0 97 -47 170q-46 71 -124 109q-72 35 -157 53q-82 17 -164 17q-77 0 -159 -16q-76 -15 -149 -50q-74 -36 -117 -102q-44 -68 -44 -162
h-69q-1 106 45 185q45 78 128 122q80 43 172 64q87 20 193 20q107 0 199 -22q94 -22 175 -69t129 -129q48 -83 50 -192q0 -130 -87 -224q-88 -95 -207 -137q-120 -42 -249 -42q-487 -4 -487 -324z" />
    <glyph glyph-name="three" unicode="3" horiz-adv-x="1349" 
d="M211 1096h-64q0 102 49 179q47 74 130 110q87 38 166 52q84 15 182 15q252 0 385 -105t135 -260q0 -125 -97 -225t-233 -123q142 -23 248 -126q107 -104 107 -238q0 -162 -137 -278q-136 -115 -402 -115q-102 0 -191 15q-86 15 -175 53q-86 37 -138 115q-51 77 -51 185
h65q0 -82 34 -140q35 -59 81 -89q47 -30 121 -47q73 -16 128 -21q48 -4 128 -4q238 0 357 93q118 93 118 229q0 132 -132 234t-349 102h-240v59h236q222 0 341 100q121 101 122 221q2 133 -121 221q-124 89 -338 89q-465 0 -465 -301z" />
    <glyph glyph-name="four" unicode="4" horiz-adv-x="1302" 
d="M954 0v336h-888l-9 67l901 1031h68v-1033h184v-65h-184v-336h-72zM139 401h815v926z" />
    <glyph glyph-name="five" unicode="5" horiz-adv-x="1343" 
d="M231 864h506q145 0 249 -39t156 -106q51 -66 73 -137q22 -72 22 -152q0 -182 -138 -310q-139 -128 -419 -128q-101 0 -191 18q-88 18 -173 61q-84 43 -133 123q-50 82 -50 193h72q0 -319 477 -319q248 0 366 100q117 99 117 258q0 379 -428 379h-567v629h987v-60h-926
v-510z" />
    <glyph glyph-name="six" unicode="6" horiz-adv-x="1402" 
d="M246 1075v-452q164 231 489 231q142 0 262 -43q123 -44 205 -144q84 -102 84 -247q0 -116 -48 -205q-48 -88 -130 -136q-84 -49 -175 -71t-200 -22q-146 0 -265 40q-121 41 -206 142q-86 103 -86 256v649q0 182 158 281q156 98 377 98q219 0 368 -91q150 -91 168 -255
h-71q-12 132 -142 208q-129 75 -325 75q-190 -2 -326 -84q-137 -83 -137 -230zM733 55q87 0 167 18q82 19 154 56q74 39 118 114q45 78 45 177q0 94 -46 171q-45 76 -117 116q-71 40 -154 60q-79 19 -165 19q-115 0 -220 -35q-107 -36 -187 -123q-80 -88 -80 -206
q-2 -101 43 -175t120 -115q74 -40 155 -58q86 -19 167 -19z" />
    <glyph glyph-name="seven" unicode="7" horiz-adv-x="1153" 
d="M236 0l821 1370h-987v64h1042l14 -78l-813 -1356h-77z" />
    <glyph glyph-name="eight" unicode="8" horiz-adv-x="1433" 
d="M131 362q0 153 107 254t249 125q-333 90 -333 342q0 107 54 186q54 80 142 120q91 42 179 59q91 18 188 18q101 0 186 -17q97 -19 179 -57q92 -42 144 -119q54 -80 54 -190q0 -245 -342 -346q143 -24 253 -126q109 -102 109 -249q0 -109 -55 -188q-55 -80 -144 -123
q-84 -41 -186 -62q-98 -20 -198 -20q-103 0 -199 21q-100 22 -186 62q-91 43 -145 123q-55 82 -56 187zM1214 1081q0 91 -52 158q-52 66 -133 101q-84 36 -160 50q-80 15 -152 15q-76 0 -150 -13q-77 -14 -158 -46q-85 -34 -137 -102q-53 -70 -53 -163q0 -86 52 -148
q53 -63 133 -93q82 -30 160 -45q80 -15 153 -15t152 15q77 15 161 45q82 30 133 93t51 148zM717 713q-72 0 -154 -18q-87 -19 -167 -54q-83 -37 -140 -110q-55 -71 -55 -166q0 -96 56 -164q59 -71 144 -103q84 -31 167 -47q74 -14 149 -14q74 0 148 14q86 16 166 48
q89 35 145 103q58 70 59 163q0 93 -56 164q-57 72 -143 110q-83 37 -168 55q-87 19 -151 19z" />
    <glyph glyph-name="nine" unicode="9" horiz-adv-x="1400" 
d="M1157 362v453q-83 -115 -214 -173t-277 -58q-143 0 -263 43q-121 43 -204 144q-84 102 -84 247q0 116 48 205q48 88 130 136q84 49 175 71t200 22q144 0 264 -40q122 -41 207 -142q86 -103 86 -256v-649q0 -182 -158 -281q-156 -98 -377 -98q-219 0 -368 91t-166 255h71
q10 -133 140 -208q129 -75 325 -75q189 1 327 84t138 229zM668 1382q-92 0 -167 -17q-82 -19 -154 -56q-75 -39 -120 -114t-45 -177q0 -98 45 -173q44 -74 119 -115q70 -39 155 -59q83 -20 165 -20q78 0 164 22q87 22 156 64q72 44 119 116q46 72 48 163q0 100 -45 175
q-45 74 -120 115q-74 40 -154 58q-79 18 -166 18z" />
    <glyph glyph-name="colon" unicode=":" horiz-adv-x="440" 
d="M156 664q0 41 31 57q32 17 65 0t33 -57q0 -41 -32 -58t-65 0q-32 16 -32 58zM156 45q0 39 31 55q32 17 65 0q33 -16 33 -55q0 -40 -32 -57t-65 0q-32 16 -32 57z" />
    <glyph glyph-name="semicolon" unicode=";" horiz-adv-x="481" 
d="M311 664q0 -42 -32 -58q-33 -17 -65 0t-32 58q0 40 32 57t65 0q32 -16 32 -57zM152 -178l69 162q-39 21 -39 65q0 41 33 59t66 1q32 -16 32 -58l-86 -231l-2 2h-73z" />
    <glyph glyph-name="less" unicode="&#x3c;" horiz-adv-x="724" 
d="M125 698l424 359l37 -43l-412 -361l422 -362l-47 -45l-424 360v92z" />
    <glyph glyph-name="equal" unicode="=" horiz-adv-x="1128" 
d="M164 809v72h801v-72h-801zM164 420v69h801v-69h-801z" />
    <glyph glyph-name="greater" unicode="&#x3e;" horiz-adv-x="722" 
d="M176 1057l422 -359v-92l-422 -360l-47 47l422 360l-412 357z" />
    <glyph glyph-name="question" unicode="?" horiz-adv-x="1198" 
d="M143 1049h-63q-1 216 135 315q135 98 348 98q109 0 197 -19q87 -19 174 -64q83 -43 132 -130q48 -86 50 -205q0 -185 -76 -268t-196 -110q-78 -22 -128 -43q-42 -17 -81 -44q-36 -25 -50 -69q-14 -45 -21 -99q-7 -53 -7 -153h-63q-2 218 67 316q70 100 281 157
q102 23 159 91q56 67 56 222q0 108 -45 181t-123 109q-74 34 -156 50q-78 15 -170 15q-418 0 -420 -350zM477 53q0 37 30 53q29 16 59 0t30 -53t-30 -53t-59 0q-30 16 -30 53z" />
    <glyph glyph-name="at" unicode="@" horiz-adv-x="1814" 
d="M905 1386q-331 0 -526 -205t-195 -519q0 -313 194 -510t529 -197q205 0 328 90l35 -55q-158 -101 -361 -101q-371 0 -581 222q-209 221 -209 551q0 327 210 557q210 229 576 229q345 0 575 -211t230 -596q0 -459 -223 -459q-67 -2 -111 44q-46 47 -47 147
q-62 -108 -181 -177q-120 -69 -255 -69q-212 0 -362 153t-150 363q0 235 146 375q147 141 364 141q141 0 259 -65q119 -65 185 -195l-2 215h62v-739q-2 -68 25 -102q26 -33 67 -33q160 0 160 401q0 355 -206 550q-205 195 -536 195zM891 1092q-188 0 -316 -121
q-129 -121 -129 -328q0 -186 134 -318t313 -132q210 0 329 134q117 132 117 314q0 181 -118 315q-119 136 -330 136z" />
    <glyph glyph-name="A" unicode="A" horiz-adv-x="1495" 
d="M66 0l643 1434h77l644 -1434h-78l-166 373h-879l-164 -373h-77zM332 436h827l-411 936z" />
    <glyph glyph-name="B" unicode="B" horiz-adv-x="1415" 
d="M213 0v1434h565q192 0 330 -97q137 -96 137 -288q0 -117 -69 -203q-70 -86 -185 -115q147 -39 227 -134q78 -93 78 -235q0 -86 -31 -151t-83 -105q-50 -38 -121 -63q-74 -26 -138 -34q-69 -9 -145 -9h-565zM279 1370v-608h518q71 0 134 12q59 11 121 43q58 30 93 90
q35 61 35 144q0 90 -37 154q-39 66 -97 100q-61 35 -127 50t-141 15h-499zM279 698v-635h499q453 0 453 302q-1 171 -128 252q-126 81 -306 81h-518z" />
    <glyph glyph-name="C" unicode="C" horiz-adv-x="1474" 
d="M1323 244l47 -41q-212 -215 -516 -215q-340 0 -535 207q-194 206 -196 514q-4 194 76 362q79 165 251 272t404 107q304 0 516 -213l-45 -43q-192 192 -471 192q-317 0 -492 -192q-176 -192 -174 -483q4 -281 181 -471q175 -189 485 -189q271 0 469 193z" />
    <glyph glyph-name="D" unicode="D" horiz-adv-x="1527" 
d="M213 0v1434h465q344 0 533 -203q191 -204 198 -498q4 -141 -41 -273q-45 -130 -132 -234t-231 -165q-143 -61 -327 -61h-465zM279 63h399q164 0 294 57q132 58 211 150q82 95 122 213q40 116 38 250q-5 173 -75 311q-73 142 -226 234q-154 92 -364 92h-399v-1307z" />
    <glyph glyph-name="E" unicode="E" horiz-adv-x="1335" 
d="M279 63h933v-63h-999v1434h969v-64h-903v-614h860v-64h-860v-629z" />
    <glyph glyph-name="F" unicode="F" horiz-adv-x="1282" 
d="M213 -2v1436h948v-64h-882v-625h856v-63h-856v-684h-66z" />
    <glyph glyph-name="G" unicode="G" horiz-adv-x="1527" 
d="M1368 1237l-43 -47q-196 196 -467 196q-322 0 -497 -193q-175 -192 -173 -474q0 -284 179 -477t491 -193q124 0 255 51q128 50 212 140v426h-537v63h603v-518q-219 -225 -533 -225q-231 0 -399 101q-171 103 -253 265q-83 164 -83 365q-2 336 205 534q208 199 530 199
q296 0 510 -213z" />
    <glyph glyph-name="H" unicode="H" horiz-adv-x="1533" 
d="M1321 0h-66v670h-976v-670h-66v1434h66v-701h976v701h66v-1434z" />
    <glyph glyph-name="I" unicode="I" horiz-adv-x="491" 
d="M279 0h-66v1434h66v-1434z" />
    <glyph glyph-name="J" unicode="J" horiz-adv-x="1359" 
d="M518 1370v64h645v-912q0 -252 -155 -397t-396 -145q-238 0 -393 155q-156 156 -156 391h60q0 -208 143 -345q144 -138 346 -138q212 0 349 126t137 353v848h-580z" />
    <glyph glyph-name="K" unicode="K" horiz-adv-x="1167" 
d="M274 2h-65v1432h65v-666l734 666h82v-11l-748 -673l815 -744v-6h-90l-793 725v-723z" />
    <glyph glyph-name="L" unicode="L" horiz-adv-x="1144" 
d="M213 1434h66v-1371h829v-63h-895v1434z" />
    <glyph glyph-name="M" unicode="M" horiz-adv-x="1742" 
d="M1464 0v1350l-579 -906h-21l-585 902v-1346h-66v1434h86l573 -889l566 889h92v-1434h-66z" />
    <glyph glyph-name="N" unicode="N" horiz-adv-x="1515" 
d="M213 0v1434h6l1024 -1262l-6 332v930h66v-1434l-1031 1268l7 -338v-930h-66z" />
    <glyph glyph-name="O" unicode="O" horiz-adv-x="1673" 
d="M834 1452q175 0 315 -61q141 -61 228 -165q86 -102 133 -235q46 -129 46 -274q-2 -199 -79 -361q-78 -163 -245 -270q-166 -106 -396 -106q-175 0 -312 62q-139 63 -227 167q-87 103 -134 235q-46 129 -46 277q0 136 43 262q44 129 127 234q84 107 225 171q140 64 322 64
zM1491 717q0 282 -174 477t-483 195q-156 0 -286 -58q-128 -57 -206 -152q-79 -96 -119 -213q-41 -120 -41 -247q0 -130 43 -249q44 -122 122 -216q81 -98 206 -154q127 -57 283 -57q305 0 481 200q175 199 174 474z" />
    <glyph glyph-name="P" unicode="P" horiz-adv-x="1359" 
d="M829 514h-550v-514h-66v1434h616q95 0 179 -32q79 -30 134 -85q51 -53 89 -122t45 -145q8 -76 0 -153q-7 -76 -45 -145q-40 -74 -89 -123q-55 -55 -134 -84q-85 -31 -179 -31zM279 578h550q105 0 188 44q82 43 126 113q42 66 62 155q19 85 0 169q-20 87 -62 153
q-45 71 -126 114q-83 44 -188 44h-550v-792z" />
    <glyph glyph-name="Q" unicode="Q" horiz-adv-x="1677" 
d="M1534 -4l-191 172q-195 -180 -497 -180q-349 0 -538 214q-189 215 -185 529q5 303 198 510t525 207q226 0 392 -103q167 -104 248 -269q81 -164 79 -363q0 -286 -179 -498l189 -176zM846 1384q-281 0 -469 -184q-189 -184 -189 -469q0 -294 170 -487t488 -193
q306 0 479 191t174 469q5 287 -171 480q-175 193 -482 193z" />
    <glyph glyph-name="R" unicode="R" horiz-adv-x="1417" 
d="M1235 0l-520 563h-436v-563h-66v1434h618q213 0 330 -130q118 -131 119 -309q1 -195 -119 -318q-121 -124 -360 -114l522 -563h-88zM279 627h536q196 0 298 99q101 98 101 269q0 153 -101 263q-103 112 -282 112h-552v-743z" />
    <glyph glyph-name="S" unicode="S" horiz-adv-x="1337" 
d="M1178 1237l-45 -45q-141 192 -461 192q-75 0 -144 -12q-63 -11 -148 -43q-78 -29 -127 -100q-48 -69 -48 -170q0 -59 26 -101q26 -43 63 -70q38 -29 108 -52q69 -23 126 -36q15 -4 37.5 -8.5t56 -11.5t58.5 -12q266 -57 360 -102q195 -94 195 -295q0 -91 -38 -164
t-94 -114q-57 -42 -134 -67q-81 -26 -147 -35q-69 -9 -142 -9q-171 0 -335 76q-165 76 -245 225l58 32q67 -129 220 -199q154 -71 302 -71q78 0 153 12q73 12 156 45q81 32 131 102q49 68 49 167q0 41 -8 78q-7 32 -33 63q-9 11 -23.5 27.5t-19.5 21.5q-17 20 -64 41
q-62 28 -68 31q-19 9 -83 25q-22 5 -48 12t-32 8q-4 1 -34 6.5t-56 11.5q-8 2 -21 5t-17 4q-264 58 -351 100q-172 85 -172 254q-2 110 47 188q50 81 133 122q87 44 173 61q89 18 182 18q332 0 504 -211z" />
    <glyph glyph-name="T" unicode="T" horiz-adv-x="1202" 
d="M31 1370v64h1140v-64h-538v-1370h-66v1370h-536z" />
    <glyph glyph-name="U" unicode="U" horiz-adv-x="1449" 
d="M1188 1434h65v-908q0 -133 -47 -241q-46 -106 -124 -170q-77 -63 -169 -98q-88 -33 -190 -33q-105 0 -193 33q-92 35 -168 99q-74 63 -120 171q-45 107 -45 239v908h65v-908q0 -233 138 -356t323 -123q184 0 325 123q140 122 140 356v908z" />
    <glyph glyph-name="V" unicode="V" horiz-adv-x="1404" 
d="M664 -4l-590 1438h73l555 -1360l555 1360h72l-588 -1438h-77z" />
    <glyph glyph-name="W" unicode="W" horiz-adv-x="2215" 
d="M586 -4l-496 1438h70l469 -1381l463 1381h32l459 -1381l475 1381h72l-504 -1438h-92l-240 725l-186 586l-188 -580l-244 -731h-90z" />
    <glyph glyph-name="X" unicode="X" horiz-adv-x="1204" 
d="M602 788l457 646h74l-490 -697l535 -737h-82l-254 352l-240 340l-250 -352l-243 -340h-82l532 737l-487 697h75z" />
    <glyph glyph-name="Y" unicode="Y" horiz-adv-x="1331" 
d="M633 0v569l-563 865h77l519 -803l516 803h78l-562 -865v-569h-65z" />
    <glyph glyph-name="Z" unicode="Z" horiz-adv-x="1187" 
d="M115 1372v62h1003v-17l-971 -1354h971v-63h-1079v20l969 1352h-893z" />
    <glyph glyph-name="bracketleft" unicode="[" horiz-adv-x="606" 
d="M195 -336v1802h340v-67h-269v-1667h269v-68h-340z" />
    <glyph glyph-name="backslash" unicode="\" horiz-adv-x="974" 
d="M915 -168h-69l-787 1718h72z" />
    <glyph glyph-name="bracketright" unicode="]" horiz-adv-x="602" 
d="M408 1468v-1802h-340v68h270v1667h-270v67h340z" />
    <glyph glyph-name="asciicircum" unicode="^" horiz-adv-x="1140" 
d="M186 805h-69l-4 4l415 625h88l412 -625l-4 -4h-66l-387 592z" />
    <glyph glyph-name="underscore" unicode="_" horiz-adv-x="1267" 
d="M156 -129v63h956v-63h-956z" />
    <glyph glyph-name="grave" unicode="`" horiz-adv-x="477" 
d="M317 1192h-61l-174 244h80l155 -238v-6z" />
    <glyph glyph-name="a" unicode="a" 
d="M1118 0h-61v129l12 145q-49 -139 -178 -214q-126 -74 -273 -72q-215 0 -363 142q-149 143 -149 376q0 231 147 375q146 143 361 143q153 0 284 -79q132 -80 171 -220l-12 164v123h61v-1012zM612 965q-189 0 -317 -125q-127 -124 -127 -334q0 -209 131 -334t322 -125
q216 0 327 134q111 133 111 335q0 191 -117 320t-330 129z" />
    <glyph glyph-name="b" unicode="b" 
d="M236 0h-62v1436h62v-547l-13 -164q39 140 171 220q131 79 284 79q213 0 360 -144q148 -145 148 -374q0 -233 -149 -376q-148 -142 -363 -142q-147 -2 -273 72q-129 75 -178 214l13 -145v-129zM680 965q-213 0 -330 -129t-117 -320q0 -202 111 -335q111 -134 328 -134
q192 0 322 123t130 336q0 210 -127 334q-128 125 -317 125z" />
    <glyph glyph-name="c" unicode="c" horiz-adv-x="1085" 
d="M946 182l41 -41q-149 -149 -362 -149q-219 0 -368 143q-151 145 -151 371q0 229 148 372q146 142 371 142q211 0 368 -152l-41 -39q-126 132 -329 132q-194 0 -324 -121q-131 -122 -131 -334q0 -211 131 -333t326 -122q192 0 321 131z" />
    <glyph glyph-name="d" unicode="d" 
d="M1118 0h-61v129l12 145q-49 -139 -178 -214q-126 -74 -273 -72q-215 0 -363 142q-149 143 -149 376q0 231 147 375q146 143 361 143q153 0 284 -79q132 -80 171 -220l-12 164v543h61v-1432zM612 965q-189 0 -317 -125q-127 -124 -127 -334q0 -209 131 -334t322 -125
q216 0 327 134q111 133 111 335q0 191 -117 320t-330 129z" />
    <glyph glyph-name="e" unicode="e" horiz-adv-x="1206" 
d="M1001 225l48 -35q-69 -95 -190 -147q-120 -51 -249 -51q-210 0 -357 138t-147 374q0 230 144 375t358 145q230 0 380 -138q151 -139 124 -411h-944q16 -205 142 -314q127 -110 300 -110q112 0 224 47q109 45 167 127zM168 532h889q6 208 -115 320q-122 113 -334 113
q-181 0 -304 -115q-121 -113 -136 -318z" />
    <glyph glyph-name="f" unicode="f" horiz-adv-x="708" 
d="M344 0h-61v950h-211v60h211v108q0 152 60 236q60 85 216 86q113 0 193 -68l-37 -43q-67 51 -158 51q-109 0 -161 -58t-52 -204v-108h344v-60h-344v-950z" />
    <glyph glyph-name="g" unicode="g" horiz-adv-x="1243" 
d="M137 -213h60q2 -154 129 -242t299 -88q181 0 311 74q129 73 129 223q0 108 -74 179q-75 72 -167 96q-93 24 -199 24q-231 0 -374 129q-142 129 -142 361q0 228 156 359q155 130 360 130q191 0 321 -94l103 121l45 -33l-105 -123q51 -56 71 -82q26 -34 51 -108
q26 -78 26 -170q0 -147 -90 -284q-90 -136 -254 -169q144 -24 238 -109q95 -86 95 -227q0 -167 -145 -261q-146 -95 -356 -95q-199 0 -342 103q-145 104 -146 286zM170 543q0 -214 126 -322t329 -108q201 0 325 129q125 130 125 301q0 109 -39 195q-40 87 -104 135
q-69 52 -144 75q-81 25 -163 25q-181 0 -318 -111t-137 -319z" />
    <glyph glyph-name="h" unicode="h" horiz-adv-x="1200" 
d="M174 1012v422h62v-422l-9 -252q108 259 406 264q405 0 405 -428v-596h-61v594q0 190 -84 279q-85 90 -260 94q-160 5 -279 -110q-118 -114 -118 -282v-575h-62v1012z" />
    <glyph glyph-name="i" unicode="i" horiz-adv-x="409" 
d="M154 1354q0 51 54 51t54 -51q0 -35 -26 -49q-28 -15 -55 0t-27 49zM236 1012h-62v-1012h62v1012z" />
    <glyph glyph-name="j" unicode="j" horiz-adv-x="409" 
d="M236 1014h-62v-1180q0 -59 -5 -104q-4 -36 -24 -84q-18 -43 -57 -64q-37 -20 -102 -20q-88 0 -162 45l-21 -56q94 -49 179 -49q81 0 135 26q53 26 79 76q25 49 33 103q8 59 7 127v1180zM150 1366q0 51 54 51t54 -51q0 -34 -27 -49t-54 0t-27 49z" />
    <glyph glyph-name="k" unicode="k" horiz-adv-x="923" 
d="M174 1434h62v-873l509 451h95v-2l-549 -475l608 -531v-4h-82l-581 506v-506h-62v1434z" />
    <glyph glyph-name="l" unicode="l" horiz-adv-x="442" 
d="M190 1434h62v-1434h-62v1434z" />
    <glyph glyph-name="m" unicode="m" horiz-adv-x="1937" 
d="M174 0v1012h62l-3 -195q43 107 138 159q94 52 207 52q135 0 245 -64q111 -64 150 -202q44 134 148 201t235 67q179 0 300 -116q120 -116 120 -293v-621h-62v621q0 157 -100 253q-102 97 -256 97q-155 0 -255 -100q-99 -99 -99 -257v-614h-62v614q0 158 -101 256
q-102 99 -263 99q-153 -5 -247 -103q-95 -100 -95 -252v-614h-62z" />
    <glyph glyph-name="n" unicode="n" horiz-adv-x="1230" 
d="M174 0v1012h62l-3 -230q58 126 168 186q112 61 232 62q207 0 322 -115q114 -114 114 -319v-596h-61v594q0 184 -99 282q-98 96 -276 95q-166 -1 -282 -116q-115 -114 -115 -280v-575h-62z" />
    <glyph glyph-name="o" unicode="o" horiz-adv-x="1239" 
d="M106 504q0 240 150 382q149 142 365 142q212 0 362 -144t150 -380q0 -238 -150 -377q-149 -139 -365 -139q-215 0 -363 139q-149 140 -149 377zM1071 504q0 210 -131 338q-130 127 -322 127q-185 0 -318 -128q-132 -127 -132 -337q0 -208 131 -333q130 -124 319 -124
q190 0 321 124q132 125 132 333z" />
    <glyph glyph-name="p" unicode="p" 
d="M174 1012h62v-129l-13 -146q49 139 178 214q128 75 273 73q215 0 363 -142q149 -143 149 -376q0 -229 -148 -374q-147 -144 -360 -144q-153 0 -284 79q-132 80 -171 220l13 -164v-619h-62v1508zM680 47q189 0 317 125q127 124 127 334q0 213 -130 336q-131 123 -322 123
q-216 0 -328 -135q-111 -134 -111 -334q0 -191 117 -320t330 -129z" />
    <glyph glyph-name="q" unicode="q" 
d="M1057 1012h61v-1508h-61v619l12 164q-39 -140 -171 -220q-131 -79 -284 -79q-213 0 -360 144q-148 145 -148 374q0 233 149 376q148 142 363 142q145 2 273 -73q129 -75 178 -214l-12 146v129zM612 47q213 0 330 129t117 320q0 200 -111 334q-112 135 -327 135
q-193 0 -323 -123t-130 -336q0 -210 127 -334q128 -125 317 -125z" />
    <glyph glyph-name="r" unicode="r" horiz-adv-x="800" 
d="M174 1012h59v-111l-6 -139q38 114 139 186q102 72 226 72q107 0 196 -49l-26 -51q-77 43 -170 43q-150 -1 -252 -110q-102 -108 -102 -249v-604h-64v1012z" />
    <glyph glyph-name="s" unicode="s" horiz-adv-x="1030" 
d="M895 891l-39 -43q-127 121 -336 121q-146 0 -240 -51q-96 -52 -96 -160q0 -40 19 -73q19 -32 39 -50q23 -20 65 -35q41 -15 69 -22q34 -9 80 -17q62 -11 66 -12q4 0 12 -1.5t22.5 -4t25.5 -4.5q12 -2 64 -14t61 -14q41 -9 61 -19l52 -26q30 -14 48 -34q19 -21 35 -42
q19 -25 26 -55q7 -29 7 -69q0 -76 -37 -132q-37 -57 -99 -86q-60 -29 -131 -44q-64 -14 -145 -14q-142 0 -262 55q-121 55 -174 152l49 34q61 -91 167 -138q104 -46 222 -46q56 0 110 9t112 32t92 69t34 111q0 130 -161 181q-49 14 -203 43q-76 13 -99 19q-11 3 -39.5 10.5
t-46.5 12.5q-58 15 -84 31q-34 21 -60 43q-31 27 -45 65q-13 36 -13 85q0 132 115 200t282 68q231 0 375 -135z" />
    <glyph glyph-name="t" unicode="t" horiz-adv-x="772" 
d="M297 1317l61 6v-311h361v-54h-361v-657q0 -129 39 -193q39 -65 162 -65q80 0 182 51l27 -51q-108 -57 -205 -57q-151 1 -209 79q-57 77 -57 236v657h-221v54h221v305z" />
    <glyph glyph-name="u" unicode="u" horiz-adv-x="1230" 
d="M1057 1012v-1012h-62l2 229q-57 -125 -168 -185q-112 -61 -231 -62q-209 0 -323 114q-113 113 -113 320v596h61v-594q0 -184 99 -282q98 -96 276 -95q166 1 282 116q115 114 115 279v576h62z" />
    <glyph glyph-name="v" unicode="v" horiz-adv-x="1089" 
d="M510 0l-422 1012h70l387 -934l389 934h70l-424 -1012h-70z" />
    <glyph glyph-name="w" unicode="w" horiz-adv-x="1667" 
d="M457 0l-363 1012h70l323 -928l332 928h35l328 -928l321 928h70l-361 -1012h-65l-311 883l-314 -883h-65z" />
    <glyph glyph-name="x" unicode="x" horiz-adv-x="950" 
d="M41 0v4l401 522l-370 484v2h78l325 -430l328 430h76v-2l-371 -484l401 -522v-4h-73l-361 477l-360 -477h-74z" />
    <glyph glyph-name="y" unicode="y" horiz-adv-x="1083" 
d="M930 1012h69l-645 -1508h-67l215 508l-410 1000h68l377 -936z" />
    <glyph glyph-name="z" unicode="z" horiz-adv-x="917" 
d="M92 954v58h752v-19l-686 -934h684v-59h-781v18l684 936h-653z" />
    <glyph glyph-name="braceleft" unicode="{" horiz-adv-x="604" 
d="M80 639q166 0 166 258v328q0 315 284 243v-51q-106 27 -164 -13q-59 -41 -59 -179v-328q0 -55 -3 -88q-3 -38 -14 -79q-12 -46 -42 -76t-80 -42q41 -11 66 -33q26 -23 42 -50q15 -25 22 -65q6 -33 8 -66q1 -17 1 -68v-312q0 -138 58 -176q56 -37 165 -10v-51
q-284 -72 -284 237v312q0 256 -166 256v53z" />
    <glyph glyph-name="bar" unicode="|" horiz-adv-x="454" 
d="M197 1438h61v-1696h-61v1696z" />
    <glyph glyph-name="braceright" unicode="}" horiz-adv-x="604" 
d="M524 639v-53q-166 0 -166 -256v-312q0 -309 -284 -237v51q109 -27 166 10q57 38 57 176v312q0 51 1 68q2 33 8 66q7 40 22 65q16 27 42 50q25 22 66 33q-50 12 -80 42t-42 76q-11 41 -14 79q-3 33 -3 88v328q0 139 -58 179t-165 13v51q284 72 284 -243v-328
q0 -258 166 -258z" />
    <glyph glyph-name="asciitilde" unicode="~" horiz-adv-x="1286" 
d="M1067 698l55 -26q-102 -234 -389 -105l-174 97q-113 62 -209 27q-96 -34 -139 -136l-49 23q40 121 160 167t270 -30l168 -92q72 -35 124 -42t101 19q49 27 82 98z" />
    <glyph glyph-name="exclamdown" unicode="&#xa1;" horiz-adv-x="423" 
d="M244 -410h-64v1166h64v-1166zM264 971q0 -35 -27 -48q-28 -14 -57 0q-28 13 -28 48q0 34 28 49q29 15 57 0q27 -15 27 -49z" />
    <glyph glyph-name="cent" unicode="&#xa2;" horiz-adv-x="1118" 
d="M596 -172v145q-211 12 -351 147q-139 134 -139 367q0 226 139 363t351 149v117h61v-117q206 -17 330 -139l-47 -41q-122 121 -315 121q-199 0 -328 -117t-129 -336q0 -223 128 -339q127 -115 329 -115q180 0 319 133l47 -43q-142 -138 -334 -148v-147h-61z" />
    <glyph glyph-name="sterling" unicode="&#xa3;" horiz-adv-x="1308" 
d="M121 0v51q83 95 133 181q47 82 63 160q15 77 11 132q-4 54 -23 129h-184v54h168q-60 219 -60 346q0 193 139 293q137 98 343 98q93 0 169 -18q79 -19 143 -55q66 -38 104 -110q38 -73 38 -174h-53q0 89 -37 151q-38 64 -99 93q-67 32 -127 43q-65 12 -138 12
q-187 0 -305 -85q-119 -86 -119 -248q0 -45 6 -94q7 -54 13 -80l22 -93q6 -24 11.5 -50t6.5 -29h559v-54h-545q22 -96 24 -186q1 -89 -46 -196q-48 -108 -145 -214h989v-57h-1061z" />
    <glyph glyph-name="currency" unicode="&#xa4;" horiz-adv-x="1155" 
d="M578 324q163 0 253 103q91 105 91 245q0 142 -91 247q-90 103 -253 103q-167 0 -255 -103q-90 -105 -90 -247q0 -140 91 -245q90 -103 254 -103zM311 346l-125 -123l-43 43l125 125q-97 112 -99 279q-1 163 95 282l-121 121l43 43l121 -123q111 90 271 90q162 0 268 -90
l123 123l43 -43l-121 -121q96 -118 95 -280q-2 -166 -99 -281l125 -125l-43 -43l-127 123q-100 -84 -264 -84q-165 0 -267 84z" />
    <glyph glyph-name="yen" unicode="&#xa5;" horiz-adv-x="1318" 
d="M305 569v54h287l-529 811h78l518 -803l517 803h77l-526 -811h293v-54h-328v-137h328v-55h-328v-377h-65v377h-322v55h322v137h-322z" />
    <glyph glyph-name="brokenbar" unicode="&#xa6;" horiz-adv-x="464" 
d="M268 700h-71v744h71v-744zM197 561h71v-739h-71v739z" />
    <glyph glyph-name="section" unicode="&#xa7;" horiz-adv-x="1069" 
d="M885 1339l-37 -41q-119 113 -313 117q-134 2 -225 -53q-94 -56 -89 -158q7 -178 314 -211q78 -7 140 -20q55 -12 123 -41q67 -29 101 -85q35 -58 35 -136q0 -99 -75 -160q-74 -61 -187 -76q268 -76 268 -254q-1 -256 -393 -256q-135 0 -251 51q-114 50 -175 148l49 37
q60 -88 162 -133t215 -45q332 0 332 200q0 177 -353 228t-364 264q-4 88 62 165t194 89q-250 45 -256 233q-5 122 102 194q106 72 271 72q209 0 350 -129zM877 711q0 77 -56 130q-55 52 -125 70q-73 19 -147 19q-158 0 -247 -50t-83 -165q2 -89 98 -143t226 -54
q137 0 236 47q98 47 98 146z" />
    <glyph glyph-name="dieresis" unicode="&#xa8;" horiz-adv-x="903" 
d="M147 1401q0 35 29 50q28 15 57 0t29 -50t-29 -50t-57 0q-29 15 -29 50zM569 1401q0 35 29 50q28 15 57 0t29 -50t-29 -50t-57 0q-29 15 -29 50z" />
    <glyph glyph-name="copyright" unicode="&#xa9;" horiz-adv-x="1718" 
d="M858 1458q340 0 540 -218q199 -217 199 -529q0 -313 -199 -530q-200 -218 -540 -218q-342 0 -539 216q-196 215 -196 532q0 199 83 368t253 274q169 105 399 105zM188 711q0 -292 181 -488q179 -194 489 -194q311 0 490 194q180 195 180 488q0 292 -180 487t-490 195
q-309 0 -489 -195q-181 -196 -181 -487zM1116 954l43 50q-111 114 -278 114q-172 0 -285 -112q-115 -113 -115 -287q0 -179 114 -291q115 -113 286 -113q169 0 276 113l-47 49q-94 -94 -231 -94q-139 0 -234 94q-96 94 -96 242q0 155 96 243q97 89 236 89q143 0 235 -97z
" />
    <glyph glyph-name="ordfeminine" unicode="&#xaa;" horiz-adv-x="1026" 
d="M827 772h-59v137q-98 -143 -272 -143q-141 0 -239 92q-97 91 -97 248q0 156 96 247t240 93q78 0 154 -38q73 -36 118 -108v136h59v-664zM496 1382q-118 0 -195 -74q-78 -75 -78 -202t78 -202t195 -75q129 0 201 86q73 87 73 191q0 103 -73 190q-72 86 -201 86zM184 563
v66h674v-66h-674z" />
    <glyph glyph-name="guillemotleft" unicode="&#xab;" horiz-adv-x="751" 
d="M111 608l282 449h68l-275 -449l275 -450h-68zM569 158l-282 450l282 449h66l-275 -449l275 -450h-66z" />
    <glyph glyph-name="logicalnot" unicode="&#xac;" horiz-adv-x="1026" 
d="M862 731v-360h-61v299h-625v61h686z" />
    <glyph glyph-name="registered" unicode="&#xae;" horiz-adv-x="1718" 
d="M578 322v790h346q94 0 159 -49q66 -49 81 -119q15 -69 0 -140q-15 -70 -81 -120t-161 -51l276 -303v-8h-80l-270 309h-207v-309h-63zM641 690h274q72 0 121 37q50 38 62 91q12 56 2 108t-59 90q-47 37 -117 37h-283v-363zM858 1458q340 0 540 -218q199 -217 199 -529
q0 -313 -199 -530q-200 -218 -540 -218q-342 0 -539 216q-196 215 -196 532q0 199 83 368t253 274q169 105 399 105zM188 711q0 -292 181 -488q179 -194 489 -194q311 0 490 194q180 195 180 488q0 292 -180 487t-490 195q-309 0 -489 -195q-181 -196 -181 -487z" />
    <glyph glyph-name="macron" unicode="&#xaf;" horiz-adv-x="751" 
d="M72 1378v60h596v-60h-596z" />
    <glyph glyph-name="degree" unicode="&#xb0;" horiz-adv-x="630" 
d="M328 1440q-84 0 -122 -69t-3 -138q35 -70 127 -70q51 0 86 29q34 28 42 70q7 37 -1 80q-7 40 -43 69q-35 29 -86 29zM328 1491q72 0 122 -39q49 -39 61 -94q12 -56 0 -111q-12 -56 -59 -94q-48 -39 -120 -39q-78 0 -129 39t-63 94q-12 54 2 111q13 54 64 94q49 39 122 39
z" />
    <glyph glyph-name="plusminus" unicode="&#xb1;" horiz-adv-x="1069" 
d="M164 723v53h344v344h53v-344h342v-53h-342v-352h-53v352h-344zM184 113v53h705v-53h-705z" />
    <glyph glyph-name="twosuperior" unicode="&#xb2;" horiz-adv-x="720" 
d="M160 1411h-60q0 215 265 215q104 0 186 -49t82 -158q0 -182 -266 -211q-68 -8 -107 -18t-73 -46q-33 -34 -33 -97v-89h473v-59h-535v150q0 51 19 91q18 37 42 58q23 20 65 35q39 14 69 19q43 7 71 10q100 11 157 44q58 34 58 113q0 148 -208 148q-205 0 -205 -156z" />
    <glyph glyph-name="threesuperior" unicode="&#xb3;" horiz-adv-x="702" 
d="M84 1104h61q-1 -81 68 -119q68 -37 141 -37t135 37q64 38 64 123q0 46 -48 90q-47 43 -145 43h-110v59h102q67 0 124 33q56 32 56 97q0 57 -42 96t-138 39q-190 0 -196 -140h-62q5 106 76 152q73 47 182 47q105 0 175 -53q69 -52 67 -141q0 -120 -131 -158
q77 -16 115 -65q36 -46 36 -99q0 -111 -70 -165t-192 -54q-112 0 -189 54q-78 55 -79 161z" />
    <glyph glyph-name="acute" unicode="&#xb4;" horiz-adv-x="450" 
d="M133 1192h-61v6l155 238h80z" />
    <glyph glyph-name="_181" unicode="&#xb5;" horiz-adv-x="1257" 
d="M1049 0h-58l-2 221q-44 -119 -150 -178q-105 -59 -239 -57q-119 0 -227 57q-109 57 -152 156v-668h-61v1483h59v-598q0 -172 113 -271q112 -98 268 -100q160 -2 273 100q114 102 114 304v565h62v-1014z" />
    <glyph glyph-name="paragraph" unicode="&#xb6;" horiz-adv-x="1566" 
d="M1223 1382h-594v-1826h-58v854q-164 -5 -281 71q-117 75 -170 191q-52 112 -50 250q4 206 135 358t358 152h936v-50h-223v-1826h-53v1826z" />
    <glyph glyph-name="periodcentered" unicode="&#xb7;" horiz-adv-x="428" 
d="M156 602q0 35 28 50q29 15 59 0q29 -14 29 -50q0 -35 -28 -50q-29 -15 -59 0q-29 14 -29 50z" />
    <glyph glyph-name="cedilla" unicode="&#xb8;" horiz-adv-x="563" 
d="M180 -135l-2 2l35 178h55l-26 -125q116 8 166 -54t26 -147q-37 -129 -194 -133q-144 0 -201 107l41 35q35 -47 72 -65q36 -17 88 -19q110 0 137 92q18 63 -31 106q-50 44 -166 23z" />
    <glyph glyph-name="onesuperior" unicode="&#xb9;" horiz-adv-x="460" 
d="M76 903v55h131v578l-115 -25v56l176 41v-650h140v-55h-332z" />
    <glyph glyph-name="ordmasculine" unicode="&#xba;" horiz-adv-x="995" 
d="M496 766q-140 0 -235 92t-95 248q0 160 94 250q95 90 236 90q142 0 236 -90q95 -90 95 -250t-95 -250q-94 -90 -236 -90zM496 827q118 0 192 75q74 76 74 204t-74 204q-73 74 -192 74q-118 0 -191 -74q-74 -76 -74 -204t74 -204q73 -75 191 -75zM174 565v62h647v-62h-647
z" />
    <glyph glyph-name="guillemotright" unicode="&#xbb;" horiz-adv-x="751" 
d="M358 1057l283 -449l-283 -450h-67l274 450l-274 449h67zM465 608l-283 -450h-65l274 450l-274 449h65z" />
    <glyph glyph-name="onequarter" unicode="&#xbc;" horiz-adv-x="1423" 
d="M346 -4h-67l753 1442h68zM1176 723h88v-481h84v-60h-84v-182h-62v182h-389l-6 43zM889 242h313v424zM104 735v56h132v577l-115 -25v56l176 41v-649h139v-56h-332z" />
    <glyph glyph-name="onehalf" unicode="&#xbd;" horiz-adv-x="1558" 
d="M346 -4h-67l753 1442h68zM104 735v56h132v577l-115 -25v56l176 41v-649h139v-56h-332zM987 512h-59q0 215 264 215q104 0 186 -49t82 -158q0 -182 -266 -211q-68 -8 -107 -18q-38 -10 -72 -46q-34 -35 -34 -98v-88h473v-59h-534v150q0 54 18 91t42 58q22 19 66 35
q40 14 68 19q27 5 72 9q97 10 156 45t59 113q0 148 -209 148q-205 0 -205 -156z" />
    <glyph glyph-name="threequarters" unicode="&#xbe;" horiz-adv-x="1527" 
d="M457 -4h-68l776 1448h68zM1278 723h88v-481h84v-60h-84v-182h-61v182h-390l-6 43zM991 242h314v424zM96 946h62q-2 -83 66 -118q67 -35 139 -35q73 0 134 35q62 35 62 122q0 45 -48 88q-47 43 -142 43h-109v58h100q68 0 123 31q56 32 56 96q0 55 -41 94q-40 39 -138 39
q-187 0 -192 -137h-61q5 103 74 149q71 47 179 47q106 0 174 -52q68 -51 66 -140q0 -118 -131 -156q76 -15 113 -62q36 -46 36 -98q0 -109 -69 -163t-189 -54q-109 0 -186 53q-76 52 -78 160z" />
    <glyph glyph-name="questiondown" unicode="&#xbf;" horiz-adv-x="1181" 
d="M1051 -2h63q2 -218 -138 -316q-142 -100 -351 -100q-103 0 -195 20q-91 20 -172 64t-130 131q-48 86 -50 205q1 166 78 259q77 94 245 134q154 47 195 116q41 70 41 277h63q0 -226 -53 -311q-52 -83 -231 -143q-152 -45 -216 -109q-63 -63 -63 -223q0 -106 44 -180
t121 -110q76 -36 155 -51q78 -15 168 -15q425 0 426 352zM717 993q0 -37 -30 -53q-29 -16 -59 0t-30 53t30 54q30 16 59 0q30 -17 30 -54z" />
    <glyph glyph-name="Agrave" unicode="&#xc0;" horiz-adv-x="1495" 
d="M66 0l643 1434h77l644 -1434h-78l-166 373h-879l-164 -373h-77zM332 436h827l-411 936zM774 1528h-61l-174 244h79l156 -238v-6z" />
    <glyph glyph-name="Aacute" unicode="&#xc1;" horiz-adv-x="1495" 
d="M66 0l643 1434h77l644 -1434h-78l-166 373h-879l-164 -373h-77zM332 436h827l-411 936zM774 1532h-61v6l155 238h80z" />
    <glyph glyph-name="Acircumflex" unicode="&#xc2;" horiz-adv-x="1495" 
d="M66 0l643 1434h77l644 -1434h-78l-166 373h-879l-164 -373h-77zM332 436h827l-411 936zM778 1784l266 -254v-6h-65l-234 215l-231 -215h-68v6l269 254h63z" />
    <glyph glyph-name="Atilde" unicode="&#xc3;" horiz-adv-x="1495" 
d="M66 0l643 1434h77l644 -1434h-78l-166 373h-879l-164 -373h-77zM332 436h827l-411 936zM723 1681l86 -47q108 -57 143 56l43 -17q-21 -83 -75 -106q-57 -25 -138 18l-86 47q-110 61 -143 -49l-43 16q21 78 76 102q54 24 137 -20z" />
    <glyph glyph-name="Adieresis" unicode="&#xc4;" horiz-adv-x="1495" 
d="M66 0l643 1434h77l644 -1434h-78l-166 373h-879l-164 -373h-77zM332 436h827l-411 936zM479 1610q0 35 29 50q28 15 57 0t29 -50t-29 -50t-57 0q-29 15 -29 50zM901 1610q0 35 29 50q28 15 57 0t29 -50t-29 -50t-57 0q-29 15 -29 50z" />
    <glyph glyph-name="Aring" unicode="&#xc5;" horiz-adv-x="1495" 
d="M942 1567q0 -71 -38 -118t-97 -63l623 -1386h-78l-166 373h-879l-164 -373h-77l622 1389q-59 16 -96 61q-37 44 -37 115q0 74 40 123t97 58t114 -3q54 -11 96 -61q40 -47 40 -115zM332 436h827l-411 936zM887 1567q0 80 -70 117q-71 37 -139 3q-70 -35 -70 -122
q0 -49 29 -84q28 -34 70 -42q41 -7 81 0q42 8 70 42q29 35 29 86z" />
    <glyph glyph-name="AE" unicode="&#xc6;" horiz-adv-x="1863" 
d="M436 621l484 -3l2 762zM-23 0l906 1434h837v-60h-737v-618h690v-62h-690v-628h770v-66h-833v559h-517l-350 -559h-76z" />
    <glyph glyph-name="Ccedilla" unicode="&#xc7;" horiz-adv-x="1472" 
d="M864 -12l-22 -113q115 8 166 -57q53 -65 30 -150q-18 -63 -76 -96q-59 -33 -128 -33q-59 0 -117 28q-54 26 -82 77l45 39q56 -80 156 -80q50 -2 91 19t54 63q18 63 -35 108t-172 27l37 168q-321 17 -504 220q-182 203 -184 501q-5 308 190 526q195 219 541 219
q306 0 514 -211l-45 -43q-195 195 -469 195q-317 0 -492 -195t-174 -485q4 -282 181 -472q176 -190 485 -190q279 0 475 191l47 -41q-103 -103 -237 -158q-135 -55 -275 -57z" />
    <glyph glyph-name="Egrave" unicode="&#xc8;" horiz-adv-x="1335" 
d="M279 63h933v-63h-999v1434h969v-64h-903v-614h860v-64h-860v-629zM772 1542h-61l-174 244h79l156 -238v-6z" />
    <glyph glyph-name="Eacute" unicode="&#xc9;" horiz-adv-x="1335" 
d="M279 63h933v-63h-999v1434h969v-64h-903v-614h860v-64h-860v-629zM711 1544h-62v6l156 238h80z" />
    <glyph glyph-name="Ecircumflex" unicode="&#xca;" horiz-adv-x="1335" 
d="M752 1823l284 -269v-8h-71l-248 230l-246 -230h-72v8l285 269h68zM279 63h933v-63h-999v1434h969v-64h-903v-614h860v-64h-860v-629z" />
    <glyph glyph-name="Edieresis" unicode="&#xcb;" horiz-adv-x="1335" 
d="M279 63h933v-63h-999v1434h969v-64h-903v-614h860v-64h-860v-629zM465 1642q0 36 29 51q28 15 57 0t29 -51q0 -35 -29 -50t-57 0q-29 15 -29 50zM887 1642q0 36 28 51q29 15 58 0q28 -15 28 -51q0 -35 -28 -50q-29 -15 -58 0q-28 15 -28 50z" />
    <glyph glyph-name="Igrave" unicode="&#xcc;" horiz-adv-x="491" 
d="M283 1532h-62l-174 244h80l156 -238v-6zM279 0h-66v1434h66v-1434z" />
    <glyph glyph-name="Iacute" unicode="&#xcd;" horiz-adv-x="491" 
d="M256 1546h-61v6l155 238h80zM279 0h-66v1434h66v-1434z" />
    <glyph glyph-name="Icircumflex" unicode="&#xce;" horiz-adv-x="491" 
d="M279 0h-66v1434h66v-1434zM274 1815l230 -275v-8h-58l-200 233l-197 -233h-57v8l227 275h55z" />
    <glyph glyph-name="Idieresis" unicode="&#xcf;" horiz-adv-x="491" 
d="M53 1628q0 35 29 50q28 15 57 0t29 -50t-29 -50t-57 0q-29 15 -29 50zM309 1628q0 35 29 50q28 15 57 0t29 -50t-29 -50t-57 0q-29 15 -29 50zM279 0h-66v1434h66v-1434z" />
    <glyph glyph-name="Eth" unicode="&#xd0;" horiz-adv-x="1540" 
d="M66 700v58h159v676h465q345 0 534 -203q190 -203 197 -498q4 -141 -41 -273q-45 -130 -132 -234t-231 -165q-143 -61 -327 -61h-465v700h-159zM291 63h399q164 0 294 57q132 58 211 150q82 95 122 213q41 119 39 250q-5 171 -76 311q-73 143 -225 234q-154 92 -365 92
h-399v-612h325v-58h-325v-637z" />
    <glyph glyph-name="Ntilde" unicode="&#xd1;" horiz-adv-x="1515" 
d="M213 0v1434h6l1024 -1262l-6 332v930h66v-1434l-1031 1268l7 -338v-930h-66zM739 1700l86 -47q109 -58 144 55l43 -16q-21 -83 -76 -107t-137 19l-86 47q-111 62 -144 -49l-43 16q21 77 76 101t137 -19z" />
    <glyph glyph-name="Ograve" unicode="&#xd2;" horiz-adv-x="1673" 
d="M834 1452q175 0 315 -61q141 -61 228 -165q86 -102 133 -235q46 -129 46 -274q-2 -199 -79 -361q-78 -163 -245 -270q-166 -106 -396 -106q-175 0 -312 62q-139 63 -227 167q-87 103 -134 235q-46 129 -46 277q0 136 43 262q44 129 127 234q84 107 225 171q140 64 322 64
zM1491 717q0 282 -174 477t-483 195q-156 0 -286 -58q-128 -57 -206 -152q-79 -96 -119 -213q-41 -120 -41 -247q0 -130 43 -249q44 -122 122 -216q81 -98 206 -154q127 -57 283 -57q305 0 481 200q175 199 174 474zM893 1567h-62l-174 243h80l156 -237v-6z" />
    <glyph glyph-name="Oacute" unicode="&#xd3;" horiz-adv-x="1673" 
d="M834 1452q175 0 315 -61q141 -61 228 -165q86 -102 133 -235q46 -129 46 -274q-2 -199 -79 -361q-78 -163 -245 -270q-166 -106 -396 -106q-175 0 -312 62q-139 63 -227 167q-87 103 -134 235q-46 129 -46 277q0 136 43 262q44 129 127 234q84 107 225 171q140 64 322 64
zM1491 717q0 282 -174 477t-483 195q-156 0 -286 -58q-128 -57 -206 -152q-79 -96 -119 -213q-41 -120 -41 -247q0 -130 43 -249q44 -122 122 -216q81 -98 206 -154q127 -57 283 -57q305 0 481 200q175 199 174 474zM864 1565h-61v6l155 237h80z" />
    <glyph glyph-name="Ocircumflex" unicode="&#xd4;" horiz-adv-x="1673" 
d="M834 1452q175 0 315 -61q141 -61 228 -165q86 -102 133 -235q46 -129 46 -274q-2 -199 -79 -361q-78 -163 -245 -270q-166 -106 -396 -106q-175 0 -312 62q-139 63 -227 167q-87 103 -134 235q-46 129 -46 277q0 136 43 262q44 129 127 234q84 107 225 171q140 64 322 64
zM1491 717q0 282 -174 477t-483 195q-156 0 -286 -58q-128 -57 -206 -152q-79 -96 -119 -213q-41 -120 -41 -247q0 -130 43 -249q44 -122 122 -216q81 -98 206 -154q127 -57 283 -57q305 0 481 200q175 199 174 474zM870 1837l285 -268v-8h-72l-247 229l-246 -229h-72v8
l285 268h67z" />
    <glyph glyph-name="Otilde" unicode="&#xd5;" horiz-adv-x="1673" 
d="M834 1452q175 0 315 -61q141 -61 228 -165q86 -102 133 -235q46 -129 46 -274q-2 -199 -79 -361q-78 -163 -245 -270q-166 -106 -396 -106q-175 0 -312 62q-139 63 -227 167q-87 103 -134 235q-46 129 -46 277q0 136 43 262q44 129 127 234q84 107 225 171q140 64 322 64
zM1491 717q0 282 -174 477t-483 195q-156 0 -286 -58q-128 -57 -206 -152q-79 -96 -119 -213q-41 -120 -41 -247q0 -130 43 -249q44 -122 122 -216q81 -98 206 -154q127 -57 283 -57q305 0 481 200q175 199 174 474zM819 1733l90 -50q115 -60 148 60l45 -19
q-21 -84 -79 -109q-59 -26 -142 19l-88 47q-117 63 -150 -49l-45 17q22 81 80 105q57 24 141 -21z" />
    <glyph glyph-name="Odieresis" unicode="&#xd6;" horiz-adv-x="1673" 
d="M834 1452q175 0 315 -61q141 -61 228 -165q86 -102 133 -235q46 -129 46 -274q-2 -199 -79 -361q-78 -163 -245 -270q-166 -106 -396 -106q-175 0 -312 62q-139 63 -227 167q-87 103 -134 235q-46 129 -46 277q0 136 43 262q44 129 127 234q84 107 225 171q140 64 322 64
zM1491 717q0 282 -174 477t-483 195q-156 0 -286 -58q-128 -57 -206 -152q-79 -96 -119 -213q-41 -120 -41 -247q0 -130 43 -249q44 -122 122 -216q81 -98 206 -154q127 -57 283 -57q305 0 481 200q175 199 174 474zM565 1649q0 35 29 50q28 15 57 0t29 -50q0 -36 -29 -51
t-57 0q-29 15 -29 51zM987 1649q0 35 29 50q28 15 57 0t29 -50q0 -36 -29 -51t-57 0q-29 15 -29 51z" />
    <glyph glyph-name="multiply" unicode="&#xd7;" horiz-adv-x="929" 
d="M160 932l39 41l268 -266l264 262l41 -41l-266 -260l274 -269l-41 -43l-274 269l-272 -277l-39 41l272 279z" />
    <glyph glyph-name="Oslash" unicode="&#xd8;" horiz-adv-x="1673" 
d="M834 1452q224 0 391 -100l121 200h73l-141 -235q135 -100 207 -260q71 -157 71 -340q-2 -199 -79 -361q-78 -163 -245 -270q-166 -106 -396 -106q-182 0 -326 67l-129 -213h-72l146 242q-164 96 -251 270t-87 375q0 136 43 262q44 129 127 234q84 107 225 171
q140 64 322 64zM182 719q0 -180 80 -338t227 -248l701 1163q-159 93 -356 93q-156 0 -286 -58q-128 -57 -206 -152q-79 -96 -119 -213q-41 -120 -41 -247zM1491 717q0 163 -64 308t-184 235l-698 -1156q128 -61 291 -61q305 0 481 200q175 199 174 474z" />
    <glyph glyph-name="Ugrave" unicode="&#xd9;" horiz-adv-x="1449" 
d="M1188 1434h65v-908q0 -133 -47 -241q-46 -106 -124 -170q-77 -63 -169 -98q-88 -33 -190 -33q-105 0 -193 33q-92 35 -168 99q-74 63 -120 171q-45 107 -45 239v908h65v-908q0 -233 138 -356t323 -123q184 0 325 123q140 122 140 356v908zM788 1554h-61l-174 244h80
l155 -237v-7z" />
    <glyph glyph-name="Uacute" unicode="&#xda;" horiz-adv-x="1449" 
d="M1188 1434h65v-908q0 -133 -47 -241q-46 -106 -124 -170q-77 -63 -169 -98q-88 -33 -190 -33q-105 0 -193 33q-92 35 -168 99q-74 63 -120 171q-45 107 -45 239v908h65v-908q0 -233 138 -356t323 -123q184 0 325 123q140 122 140 356v908zM731 1544h-61v6l155 238h80z
" />
    <glyph glyph-name="Ucircumflex" unicode="&#xdb;" horiz-adv-x="1449" 
d="M1188 1434h65v-908q0 -133 -47 -241q-46 -106 -124 -170q-77 -63 -169 -98q-88 -33 -190 -33q-105 0 -193 33q-92 35 -168 99q-74 63 -120 171q-45 107 -45 239v908h65v-908q0 -233 138 -356t323 -123q184 0 325 123q140 122 140 356v908zM760 1798l272 -256v-8h-67
l-238 219l-233 -219h-70v8l272 256h64z" />
    <glyph glyph-name="Udieresis" unicode="&#xdc;" horiz-adv-x="1449" 
d="M1188 1434h65v-908q0 -133 -47 -241q-46 -106 -124 -170q-77 -63 -169 -98q-88 -33 -190 -33q-105 0 -193 33q-92 35 -168 99q-74 63 -120 171q-45 107 -45 239v908h65v-908q0 -233 138 -356t323 -123q184 0 325 123q140 122 140 356v908zM469 1624q0 35 29 50
q28 15 57 0t29 -50t-29 -50t-57 0q-29 15 -29 50zM891 1624q0 35 29 50q28 15 57 0t29 -50t-29 -50t-57 0q-29 15 -29 50z" />
    <glyph glyph-name="Yacute" unicode="&#xdd;" horiz-adv-x="1331" 
d="M633 0v569l-563 865h77l519 -803l516 803h78l-562 -865v-569h-65zM672 1548h-62v6l156 238h80z" />
    <glyph glyph-name="Thorn" unicode="&#xde;" horiz-adv-x="1370" 
d="M276 1432v-258h555q121 0 222 -52q98 -51 148 -132q51 -84 73 -179q22 -99 0 -197q-22 -96 -74 -179q-51 -81 -147 -132t-222 -51h-555v-252h-63v1432h63zM276 311h555q105 0 188 44q82 43 125 115q40 67 62 157q21 85 0 171q-21 87 -62 155q-43 72 -125 115
q-83 44 -188 44h-555v-801z" />
    <glyph glyph-name="germandbls" unicode="&#xdf;" horiz-adv-x="1228" 
d="M174 0v1059q0 196 115 297q113 100 297 100q192 0 305 -88q115 -89 115 -272q0 -116 -63 -201q-64 -86 -169 -113q167 -34 259 -141q91 -106 91 -279q0 -120 -49 -208t-129 -130q-81 -43 -178 -56q-99 -14 -198 3q-97 16 -185 58v63q104 -58 229 -70q119 -12 221 19
q97 29 164 115q66 84 66 202q0 390 -487 390h-195v49h186q66 0 126 12q57 11 122 43q61 30 97 93t36 151q-2 305 -364 305q-190 0 -270 -90q-79 -90 -87 -254v-1057h-55z" />
    <glyph glyph-name="agrave" unicode="&#xe0;" 
d="M1118 0h-61v129l12 145q-49 -139 -178 -214q-126 -74 -273 -72q-215 0 -363 142q-149 143 -149 376q0 231 147 375q146 143 361 143q153 0 284 -79q132 -80 171 -220l-12 164v123h61v-1012zM612 965q-189 0 -317 -125q-127 -124 -127 -334q0 -209 131 -334t322 -125
q216 0 327 134q111 133 111 335q0 191 -117 320t-330 129zM700 1192h-61l-174 244h80l155 -238v-6z" />
    <glyph glyph-name="aacute" unicode="&#xe1;" 
d="M1118 0h-61v129l12 145q-49 -139 -178 -214q-126 -74 -273 -72q-215 0 -363 142q-149 143 -149 376q0 231 147 375q146 143 361 143q153 0 284 -79q132 -80 171 -220l-12 164v123h61v-1012zM612 965q-189 0 -317 -125q-127 -124 -127 -334q0 -209 131 -334t322 -125
q216 0 327 134q111 133 111 335q0 191 -117 320t-330 129zM649 1192h-61v6l155 238h80z" />
    <glyph glyph-name="acircumflex" unicode="&#xe2;" 
d="M1118 0h-61v129l12 145q-49 -139 -178 -214q-126 -74 -273 -72q-215 0 -363 142q-149 143 -149 376q0 231 147 375q146 143 361 143q153 0 284 -79q132 -80 171 -220l-12 164v123h61v-1012zM612 965q-189 0 -317 -125q-127 -124 -127 -334q0 -209 131 -334t322 -125
q216 0 327 134q111 133 111 335q0 191 -117 320t-330 129zM676 1430l272 -259v-8h-67l-240 221l-235 -221h-70v8l274 259h66z" />
    <glyph glyph-name="atilde" unicode="&#xe3;" 
d="M1118 0h-61v129l12 145q-49 -139 -178 -214q-126 -74 -273 -72q-215 0 -363 142q-149 143 -149 376q0 231 147 375q146 143 361 143q153 0 284 -79q132 -80 171 -220l-12 164v123h61v-1012zM612 965q-189 0 -317 -125q-127 -124 -127 -334q0 -209 131 -334t322 -125
q216 0 327 134q111 133 111 335q0 191 -117 320t-330 129zM625 1386l86 -47q108 -57 143 56l43 -17q-21 -82 -76 -106q-57 -24 -137 18l-86 47q-110 61 -143 -49l-43 17q21 78 75 101q55 24 138 -20z" />
    <glyph glyph-name="adieresis" unicode="&#xe4;" 
d="M1118 0h-61v129l12 145q-49 -139 -178 -214q-126 -74 -273 -72q-215 0 -363 142q-149 143 -149 376q0 231 147 375q146 143 361 143q153 0 284 -79q132 -80 171 -220l-12 164v123h61v-1012zM612 965q-189 0 -317 -125q-127 -124 -127 -334q0 -209 131 -334t322 -125
q216 0 327 134q111 133 111 335q0 191 -117 320t-330 129zM393 1366q0 35 29 50q28 15 57 0t29 -50t-29 -50t-57 0q-29 15 -29 50zM815 1366q0 35 29 50q28 15 57 0t29 -50t-29 -50t-57 0q-29 15 -29 50z" />
    <glyph glyph-name="aring" unicode="&#xe5;" 
d="M1118 0h-61v129l12 145q-49 -139 -178 -214q-126 -74 -273 -72q-215 0 -363 142q-149 143 -149 376q0 231 147 375q146 143 361 143q153 0 284 -79q132 -80 171 -220l-12 164v123h61v-1012zM612 965q-189 0 -317 -125q-127 -124 -127 -334q0 -209 131 -334t322 -125
q216 0 327 134q111 133 111 335q0 191 -117 320t-330 129zM788 1327q0 50 -29 83q-29 34 -71 43q-39 9 -83 1q-40 -7 -71 -43q-30 -35 -30 -86q0 -47 30 -81q29 -34 71 -41q42 -8 83 0q42 8 71 41t29 83zM842 1327q0 -71 -40 -117q-41 -47 -97 -57q-57 -11 -116 0t-99 57
q-39 45 -39 115q0 74 39 120q40 48 99 57t116 -3t97 -58t40 -114z" />
    <glyph glyph-name="ae" unicode="&#xe6;" horiz-adv-x="2150" 
d="M1116 0h-57v129l8 141q-50 -140 -177 -212t-272 -70q-215 0 -363 142q-149 143 -149 376q0 231 147 375q146 143 361 143q151 0 284 -80q132 -79 171 -221l-10 166v123h57v-254q60 124 174 195q115 71 262 71q230 0 380 -138q151 -139 124 -411h-940q17 -208 140 -315
q126 -109 298 -109q112 0 224 47q110 46 168 127l47 -35q-69 -95 -190 -147q-120 -51 -249 -51q-144 0 -260 67t-178 193v-252zM612 965q-189 0 -317 -125q-127 -124 -127 -334q0 -209 131 -334t322 -125q212 0 326 129t114 328q-4 206 -120 334q-115 127 -329 127z
M1116 532h885q6 208 -115 320q-122 113 -334 113q-181 0 -302 -115q-119 -113 -134 -318z" />
    <glyph glyph-name="ccedilla" unicode="&#xe7;" horiz-adv-x="1085" 
d="M541 -152l-2 2l26 146q-197 18 -327 159q-132 143 -132 351q0 229 148 372q146 142 371 142q211 0 368 -152l-41 -39q-126 132 -329 132q-194 0 -324 -121q-131 -122 -131 -334q0 -211 131 -333t326 -122q192 0 321 131l41 -41q-149 -149 -362 -149h-4l-21 -92
q114 8 163 -52q49 -59 25 -137q-37 -121 -190 -125q-139 0 -195 101l39 32q55 -74 156 -79q108 0 135 86q18 61 -31 101q-48 39 -161 21z" />
    <glyph glyph-name="egrave" unicode="&#xe8;" horiz-adv-x="1206" 
d="M1001 225l48 -35q-69 -95 -190 -147q-120 -51 -249 -51q-210 0 -357 138t-147 374q0 230 144 375t358 145q230 0 380 -138q151 -139 124 -411h-944q16 -205 142 -314q127 -110 300 -110q112 0 224 47q109 45 167 127zM168 532h889q6 208 -115 320q-122 113 -334 113
q-181 0 -304 -115q-121 -113 -136 -318zM688 1192h-61l-174 244h79l156 -238v-6z" />
    <glyph glyph-name="eacute" unicode="&#xe9;" horiz-adv-x="1206" 
d="M1001 225l48 -35q-69 -95 -190 -147q-120 -51 -249 -51q-210 0 -357 138t-147 374q0 230 144 375t358 145q230 0 380 -138q151 -139 124 -411h-944q16 -205 142 -314q127 -110 300 -110q112 0 224 47q109 45 167 127zM168 532h889q6 208 -115 320q-122 113 -334 113
q-181 0 -304 -115q-121 -113 -136 -318zM635 1192h-62v6l156 238h80z" />
    <glyph glyph-name="ecircumflex" unicode="&#xea;" horiz-adv-x="1206" 
d="M1001 225l48 -35q-69 -95 -190 -147q-120 -51 -249 -51q-210 0 -357 138t-147 374q0 230 144 375t358 145q230 0 380 -138q151 -139 124 -411h-944q16 -205 142 -314q127 -110 300 -110q112 0 224 47q109 45 167 127zM168 532h889q6 208 -115 320q-122 113 -334 113
q-181 0 -304 -115q-121 -113 -136 -318zM659 1430l267 -254v-7h-66l-233 215l-232 -215h-67v7l268 254h63z" />
    <glyph glyph-name="edieresis" unicode="&#xeb;" horiz-adv-x="1206" 
d="M1001 225l48 -35q-69 -95 -190 -147q-120 -51 -249 -51q-210 0 -357 138t-147 374q0 230 144 375t358 145q230 0 380 -138q151 -139 124 -411h-944q16 -205 142 -314q127 -110 300 -110q112 0 224 47q109 45 167 127zM168 532h889q6 208 -115 320q-122 113 -334 113
q-181 0 -304 -115q-121 -113 -136 -318zM377 1348q0 34 27 49q28 16 56 0q27 -15 27 -49q0 -36 -27 -49q-28 -14 -56 0q-27 13 -27 49zM780 1348q0 33 28 49q28 15 55 0q28 -16 28 -49q0 -35 -28 -49q-27 -14 -55 0t-28 49z" />
    <glyph glyph-name="igrave" unicode="&#xec;" horiz-adv-x="407" 
d="M174 1026h59v-1026h-59v1026zM246 1192h-56l-155 240h71l140 -234v-6z" />
    <glyph glyph-name="iacute" unicode="&#xed;" horiz-adv-x="407" 
d="M174 1026h59v-1026h-59v1026zM217 1192h-55v6l137 234h68z" />
    <glyph glyph-name="icircumflex" unicode="&#xee;" horiz-adv-x="407" 
d="M231 1434l197 -267v-8h-61l-156 221l-166 -221h-55v8l196 267h45zM174 1026h59v-1026h-59v1026z" />
    <glyph glyph-name="idieresis" unicode="&#xef;" horiz-adv-x="407" 
d="M37 1401q0 33 25 45q26 12 52 0q25 -12 25 -45t-25 -45q-26 -12 -52 0q-25 12 -25 45zM291 1401q0 33 25 45q26 12 52 0q25 -12 25 -45t-25 -45q-26 -12 -52 0q-25 12 -25 45zM174 1026h59v-1026h-59v1026z" />
    <glyph glyph-name="eth" unicode="&#xf0;" horiz-adv-x="1259" 
d="M692 1323l88 135l45 -28l-88 -138q402 -275 410 -770q4 -239 -138 -389q-142 -149 -384 -149q-246 0 -382 149q-137 151 -137 359q0 210 137 364q138 155 384 156q145 0 263 -69q117 -68 173 -181q-91 298 -356 483l-86 -131l-43 29l84 131q-100 63 -213 102l24 56
q109 -43 219 -109zM625 43q217 0 339 134q121 133 121 317q0 186 -122 321q-123 137 -338 137t-336 -136t-121 -322q0 -190 120 -321q120 -130 337 -130z" />
    <glyph glyph-name="ntilde" unicode="&#xf1;" horiz-adv-x="1230" 
d="M608 1417l86 -47q109 -58 144 55l43 -16q-21 -82 -76 -106q-57 -24 -137 18l-86 47q-111 62 -144 -49l-43 16q21 78 76 102q54 24 137 -20zM174 0v1012h62l-3 -230q58 126 168 186q112 61 232 62q207 0 322 -115q114 -114 114 -319v-596h-61v594q0 184 -99 282
q-98 96 -276 95q-166 -1 -282 -116q-115 -114 -115 -280v-575h-62z" />
    <glyph glyph-name="ograve" unicode="&#xf2;" horiz-adv-x="1239" 
d="M106 504q0 240 150 382q149 142 365 142q212 0 362 -144t150 -380q0 -238 -150 -377q-149 -139 -365 -139q-215 0 -363 139q-149 140 -149 377zM1071 504q0 210 -131 338q-130 127 -322 127q-185 0 -318 -128q-132 -127 -132 -337q0 -208 131 -333q130 -124 319 -124
q190 0 321 124q132 125 132 333zM678 1192h-62l-174 244h80l156 -238v-6z" />
    <glyph glyph-name="oacute" unicode="&#xf3;" horiz-adv-x="1239" 
d="M106 504q0 240 150 382q149 142 365 142q212 0 362 -144t150 -380q0 -238 -150 -377q-149 -139 -365 -139q-215 0 -363 139q-149 140 -149 377zM1071 504q0 210 -131 338q-130 127 -322 127q-185 0 -318 -128q-132 -127 -132 -337q0 -208 131 -333q130 -124 319 -124
q190 0 321 124q132 125 132 333zM623 1192h-62v6l156 238h80z" />
    <glyph glyph-name="ocircumflex" unicode="&#xf4;" horiz-adv-x="1239" 
d="M106 504q0 240 150 382q149 142 365 142q212 0 362 -144t150 -380q0 -238 -150 -377q-149 -139 -365 -139q-215 0 -363 139q-149 140 -149 377zM1071 504q0 210 -131 338q-130 127 -322 127q-185 0 -318 -128q-132 -127 -132 -337q0 -208 131 -333q130 -124 319 -124
q190 0 321 124q132 125 132 333zM653 1430l252 -256v-9h-63l-221 219l-218 -219h-65v9l254 256h61z" />
    <glyph glyph-name="otilde" unicode="&#xf5;" horiz-adv-x="1239" 
d="M106 504q0 240 150 382q149 142 365 142q212 0 362 -144t150 -380q0 -238 -150 -377q-149 -139 -365 -139q-215 0 -363 139q-149 140 -149 377zM1071 504q0 210 -131 338q-130 127 -322 127q-185 0 -318 -128q-132 -127 -132 -337q0 -208 131 -333q130 -124 319 -124
q190 0 321 124q132 125 132 333zM598 1393l86 -47q109 -57 143 55l43 -17q-21 -83 -75 -106q-57 -25 -138 18l-86 47q-110 61 -143 -49l-43 17q21 77 76 101t137 -19z" />
    <glyph glyph-name="odieresis" unicode="&#xf6;" horiz-adv-x="1239" 
d="M106 504q0 240 150 382q149 142 365 142q212 0 362 -144t150 -380q0 -238 -150 -377q-149 -139 -365 -139q-215 0 -363 139q-149 140 -149 377zM1071 504q0 210 -131 338q-130 127 -322 127q-185 0 -318 -128q-132 -127 -132 -337q0 -208 131 -333q130 -124 319 -124
q190 0 321 124q132 125 132 333zM391 1376q0 33 26 45q25 12 51 0t26 -45t-26 -45t-51 0q-26 12 -26 45zM766 1376q0 33 26 45t51 0t25 -45t-25 -45t-51 0t-26 45z" />
    <glyph glyph-name="divide" unicode="&#xf7;" horiz-adv-x="1089" 
d="M481 979q0 36 31 53q30 17 61 0t31 -53t-31 -53q-30 -17 -61 0t-31 53zM164 723v-64h762v64h-762zM481 389q0 36 31 53q30 17 61 0t31 -53t-31 -53t-61 0q-31 17 -31 53z" />
    <glyph glyph-name="oslash" unicode="&#xf8;" horiz-adv-x="1236" 
d="M227 -104l105 172q-223 141 -223 436q0 239 148 383q147 143 364 143q139 0 251 -59l76 127h72l-96 -162q95 -67 151 -180q55 -111 55 -252q0 -238 -148 -377t-364 -139q-137 0 -235 49l-86 -141h-70zM362 119l476 799q-106 51 -220 51q-185 0 -318 -128
q-132 -127 -132 -337q0 -258 194 -385zM891 887l-473 -793q85 -41 200 -41q192 0 322 121q131 122 131 330q0 250 -180 383z" />
    <glyph glyph-name="ugrave" unicode="&#xf9;" horiz-adv-x="1230" 
d="M1057 1012v-1012h-62l2 229q-57 -125 -168 -185q-112 -61 -231 -62q-209 0 -323 114q-113 113 -113 320v596h61v-594q0 -184 99 -282q98 -96 276 -95q166 1 282 116q115 114 115 279v576h62zM686 1192h-61l-174 244h79l156 -238v-6z" />
    <glyph glyph-name="uacute" unicode="&#xfa;" horiz-adv-x="1230" 
d="M1057 1012v-1012h-62l2 229q-57 -125 -168 -185q-112 -61 -231 -62q-209 0 -323 114q-113 113 -113 320v596h61v-594q0 -184 99 -282q98 -96 276 -95q166 1 282 116q115 114 115 279v576h62zM610 1192h-61v6l156 238h79z" />
    <glyph glyph-name="ucircumflex" unicode="&#xfb;" horiz-adv-x="1230" 
d="M1057 1012v-1012h-62l2 229q-57 -125 -168 -185q-112 -61 -231 -62q-209 0 -323 114q-113 113 -113 320v596h61v-594q0 -184 99 -282q98 -96 276 -95q166 1 282 116q115 114 115 279v576h62zM645 1442l270 -258v-8h-67l-238 221l-233 -221h-68v8l271 258h65z" />
    <glyph glyph-name="udieresis" unicode="&#xfc;" horiz-adv-x="1230" 
d="M1057 1012v-1012h-62l2 229q-57 -125 -168 -185q-112 -61 -231 -62q-209 0 -323 114q-113 113 -113 320v596h61v-594q0 -184 99 -282q98 -96 276 -95q166 1 282 116q115 114 115 279v576h62zM375 1378q0 52 53 52t53 -52q0 -35 -26 -48q-27 -14 -54 0q-26 13 -26 48z
M768 1378q0 52 53 52t53 -52q0 -35 -26 -48t-53 0q-27 14 -27 48z" />
    <glyph glyph-name="yacute" unicode="&#xfd;" horiz-adv-x="1083" 
d="M930 1012h69l-645 -1508h-67l215 508l-410 1000h68l377 -936zM526 1190h-61v6l156 238h79z" />
    <glyph glyph-name="thorn" unicode="&#xfe;" horiz-adv-x="1294" 
d="M233 -422h-59v1854h59v-684q61 124 186 201q122 75 281 75q213 -11 349 -147q137 -137 137 -371q0 -244 -147 -383q-146 -139 -367 -139q-145 0 -258 70q-115 71 -181 204v-680zM678 43q194 0 319 120t125 343t-124 341t-320 118q-191 0 -317 -129q-125 -128 -125 -332
q0 -202 126 -331q127 -130 316 -130z" />
    <glyph glyph-name="ydieresis" unicode="&#xff;" horiz-adv-x="1083" 
d="M930 1012h69l-645 -1508h-67l215 508l-410 1000h68l377 -936zM285 1368q0 31 26 44q27 14 54 0q26 -13 26 -44t-26 -44q-27 -14 -54 0q-26 13 -26 44zM676 1368q0 31 26 44q27 14 54 0q26 -13 26 -44t-26 -44q-27 -14 -54 0q-26 13 -26 44z" />
    <glyph glyph-name="Amacron" unicode="&#x100;" horiz-adv-x="1495" 
d="M455 1575v59h559v-59h-559zM66 0l643 1434h77l644 -1434h-76l-166 373h-883l-164 -373h-75zM332 438h827l-414 938z" />
    <glyph glyph-name="amacron" unicode="&#x101;" 
d="M360 1319v57h572v-57h-572zM1118 0h-61v129l12 145q-49 -139 -178 -214q-126 -74 -273 -72q-215 0 -363 142q-149 143 -149 376q0 231 147 375q146 143 361 143q153 0 284 -79q132 -80 171 -220l-12 164v123h61v-1012zM612 965q-189 0 -317 -125q-127 -124 -127 -334
q0 -209 131 -334t322 -125q216 0 327 134q111 133 111 335q0 191 -117 320t-330 129z" />
    <glyph glyph-name="Abreve" unicode="&#x102;" horiz-adv-x="1495" 
d="M66 0l643 1434h73l648 -1434h-74l-170 377h-881l-168 -377h-71zM328 438h833l-416 938zM981 1761q-1 -97 -70 -152t-163 -55q-95 0 -168 55q-72 54 -76 152h51q0 -75 56 -115t137 -40q74 0 126 42q55 44 56 113h51z" />
    <glyph glyph-name="abreve" unicode="&#x103;" 
d="M1118 0h-61v129l12 145q-49 -139 -178 -214q-126 -74 -273 -72q-215 0 -363 142q-149 143 -149 376q0 231 147 375q146 143 361 143q153 0 284 -79q132 -80 171 -220l-12 164v123h61v-1012zM612 965q-189 0 -317 -125q-127 -124 -127 -334q0 -209 131 -334t322 -125
q216 0 327 134q111 133 111 335q0 191 -117 320t-330 129zM885 1407q-2 -97 -71 -151q-70 -55 -163 -56q-97 -2 -168 53q-70 54 -75 154h51q0 -77 57 -117t135 -39q71 1 126 43q56 42 57 113h51z" />
    <glyph glyph-name="Aogonek" unicode="&#x104;" horiz-adv-x="1488" 
d="M786 1434l637 -1424q-88 0 -123 -4q-101 -7 -142 -73q-40 -63 -1 -123t135 -58q53 2 109 32q57 31 86 85l45 -33q-73 -123 -232 -135q-151 -12 -202 90q-44 89 18 174q69 96 211 98l-137 310h-887l-164 -373h-73l643 1434h77zM330 438h831l-416 938z" />
    <glyph glyph-name="aogonek" unicode="&#x105;" 
d="M1118 -47q-127 10 -179 -36t-44 -112q6 -43 44 -70t101 -26q119 5 179 109l49 -21q-29 -66 -89 -104q-57 -36 -130 -41q-102 -2 -155 40q-54 42 -60 103q-10 90 51 147q60 55 172 60v127l12 145q-49 -139 -178 -214q-126 -74 -273 -72q-215 0 -363 142q-149 143 -149 376
q0 231 147 375q146 143 361 143q153 0 284 -79q132 -80 171 -220l-12 164v123h61v-1059zM612 965q-189 0 -317 -125q-127 -124 -127 -334q0 -209 131 -334t322 -125q216 0 327 134q111 133 111 335q0 191 -117 320t-330 129z" />
    <glyph glyph-name="Cacute" unicode="&#x106;" horiz-adv-x="1472" 
d="M793 1599v7l145 229h74l-166 -236h-53zM1323 242l47 -41q-212 -215 -516 -215q-340 0 -535 207q-194 206 -196 514q-4 194 76 362q79 165 251 272t404 107q304 0 516 -213l-45 -43q-192 192 -471 192q-317 0 -492 -192q-176 -192 -174 -483q4 -281 181 -471
q175 -189 485 -189q271 0 469 193z" />
    <glyph glyph-name="cacute" unicode="&#x107;" horiz-adv-x="1085" 
d="M565 1225v6l133 205h70l-150 -211h-53zM946 182l41 -41q-149 -149 -362 -149q-219 0 -368 143q-151 145 -151 371q0 229 148 372q146 142 371 142q211 0 368 -152l-41 -39q-126 132 -329 132q-194 0 -324 -121q-131 -122 -131 -334q0 -211 131 -333t326 -122
q192 0 321 131z" />
    <glyph glyph-name="Ccircumflex" unicode="&#x108;" horiz-adv-x="1474" 
d="M868 1872l285 -268v-9h-72l-247 230l-246 -230h-72v9l285 268h67zM1323 244l47 -41q-212 -215 -516 -215q-340 0 -535 207q-194 206 -196 514q-4 194 76 362q79 165 251 272t404 107q304 0 516 -213l-45 -43q-192 192 -471 192q-317 0 -492 -192q-176 -192 -174 -483
q4 -281 181 -471q175 -189 485 -189q271 0 469 193z" />
    <glyph glyph-name="ccircumflex" unicode="&#x109;" horiz-adv-x="1085" 
d="M334 1208l256 238h61l254 -238v-12h-61l-223 209l-232 -209h-55v12zM946 182l41 -41q-149 -149 -362 -149q-219 0 -368 143q-151 145 -151 371q0 229 148 372q146 142 371 142q211 0 368 -152l-41 -39q-126 132 -329 132q-194 0 -324 -121q-131 -122 -131 -334
q0 -211 131 -333t326 -122q192 0 321 131z" />
    <glyph glyph-name="Cdotaccent" unicode="&#x10a;" horiz-adv-x="1474" 
d="M774 1686q0 40 33 58q32 18 66 0t34 -58q0 -42 -34 -58t-66 0q-33 16 -33 58zM1323 244l47 -41q-212 -215 -516 -215q-340 0 -535 207q-194 206 -196 514q-4 194 76 362q79 165 251 272t404 107q304 0 516 -213l-45 -43q-192 192 -471 192q-317 0 -492 -192
q-176 -192 -174 -483q4 -281 181 -471q175 -189 485 -189q271 0 469 193z" />
    <glyph glyph-name="cdotaccent" unicode="&#x10b;" horiz-adv-x="1085" 
d="M557 1337q0 40 30 55q29 15 59 0t30 -55q0 -35 -30 -50t-59 0q-30 15 -30 50zM946 182l41 -41q-149 -149 -362 -149q-219 0 -368 143q-151 145 -151 371q0 229 148 372q146 142 371 142q211 0 368 -152l-41 -39q-126 132 -329 132q-194 0 -324 -121q-131 -122 -131 -334
q0 -211 131 -333t326 -122q192 0 321 131z" />
    <glyph glyph-name="Ccaron" unicode="&#x10c;" horiz-adv-x="1474" 
d="M805 1589l-285 269v8h72l248 -230l245 230h72v-8l-285 -269h-67zM1323 244l47 -41q-212 -215 -516 -215q-340 0 -535 207q-194 206 -196 514q-4 194 76 362q79 165 251 272t404 107q304 0 516 -213l-45 -43q-192 192 -471 192q-317 0 -492 -192q-176 -192 -174 -483
q4 -281 181 -471q175 -189 485 -189q271 0 469 193z" />
    <glyph glyph-name="ccaron" unicode="&#x10d;" horiz-adv-x="1085" 
d="M946 182l41 -41q-149 -149 -362 -149q-219 0 -368 143q-151 145 -151 371q0 229 148 372q146 142 371 142q211 0 368 -152l-41 -39q-126 132 -329 132q-194 0 -324 -121q-131 -122 -131 -334q0 -211 131 -333t326 -122q192 0 321 131zM592 1186l-258 244v8h65l226 -209
l221 209h65v-8l-258 -244h-61z" />
    <glyph glyph-name="Dcaron" unicode="&#x10e;" horiz-adv-x="1527" 
d="M614 1573l-284 268v8h71l248 -229l246 229h72v-8l-285 -268h-68zM213 0v1434h465q344 0 533 -203q191 -204 198 -498q4 -141 -41 -273q-45 -130 -132 -234t-231 -165q-143 -61 -327 -61h-465zM279 63h399q164 0 294 57q132 58 211 150q82 95 122 213q40 116 38 250
q-5 173 -75 311q-73 142 -226 234q-154 92 -364 92h-399v-1307z" />
    <glyph glyph-name="dcaron" unicode="&#x10f;" 
d="M1225 1157l78 283h63l-92 -283h-49zM1118 0h-61v129l12 145q-49 -139 -178 -214q-126 -74 -273 -72q-215 0 -363 142q-149 143 -149 376q0 231 147 375q146 143 361 143q153 0 284 -79q132 -80 171 -220l-12 164v543h61v-1432zM612 965q-189 0 -317 -125
q-127 -124 -127 -334q0 -209 131 -334t322 -125q216 0 327 134q111 133 111 335q0 191 -117 320t-330 129z" />
    <glyph glyph-name="Dcroat" unicode="&#x110;" horiz-adv-x="1540" 
d="M72 721v57h153v656h465q345 0 534 -203q190 -203 197 -498q4 -141 -41 -273q-45 -130 -132 -234t-231 -165q-143 -61 -327 -61h-465v721h-153zM291 63h399q164 0 294 57q132 58 211 150q82 95 122 213q41 119 39 250q-5 171 -76 311q-73 143 -225 234q-154 92 -365 92
h-399v-592h317v-57h-317v-658z" />
    <glyph glyph-name="dcroat" unicode="&#x111;" 
d="M612 965q-189 0 -317 -125q-127 -124 -127 -334q0 -209 131 -334t322 -125q216 0 327 134q111 133 111 335q0 191 -117 320t-330 129zM846 1223v53h211v156h61v-156h148v-53h-148v-1223h-61v129l12 145q-49 -139 -178 -214q-126 -74 -273 -72q-215 0 -363 142
q-149 143 -149 376q0 231 147 375q146 143 361 143q153 0 284 -79q132 -80 171 -220l-12 164v334h-211z" />
    <glyph glyph-name="Emacron" unicode="&#x112;" horiz-adv-x="1335" 
d="M987 1673v-57h-557v57h557zM279 63h933v-63h-999v1434h969v-64h-903v-614h860v-64h-860v-629z" />
    <glyph glyph-name="emacron" unicode="&#x113;" horiz-adv-x="1206" 
d="M352 1327v53h563v-53h-563zM1001 225l48 -35q-69 -95 -190 -147q-120 -51 -249 -51q-210 0 -357 138t-147 374q0 230 144 375t358 145q230 0 380 -138q151 -139 124 -411h-944q16 -205 142 -314q127 -110 300 -110q112 0 224 47q109 45 167 127zM168 532h889
q6 208 -115 320q-122 113 -334 113q-181 0 -304 -115q-121 -113 -136 -318z" />
    <glyph glyph-name="Ebreve" unicode="&#x114;" horiz-adv-x="1335" 
d="M279 63h933v-63h-999v1434h969v-64h-903v-614h860v-64h-860v-629zM965 1800q-1 -96 -71 -150q-71 -56 -163 -57q-96 -1 -168 54t-76 153h52q0 -76 57 -117q56 -40 135 -38q71 1 126 43q55 41 56 112h52z" />
    <glyph glyph-name="ebreve" unicode="&#x115;" horiz-adv-x="1206" 
d="M1001 225l48 -35q-69 -95 -190 -147q-120 -51 -249 -51q-210 0 -357 138t-147 374q0 230 144 375t358 145q230 0 380 -138q151 -139 124 -411h-944q16 -205 142 -314q127 -110 300 -110q112 0 224 47q109 45 167 127zM168 532h889q6 208 -115 320q-122 113 -334 113
q-181 0 -304 -115q-121 -113 -136 -318zM860 1427q-2 -96 -70 -150q-70 -55 -163 -56q-97 -2 -168 53q-72 55 -76 153h51q0 -75 58 -116q57 -41 135 -39q71 1 126 43q55 41 56 112h51z" />
    <glyph glyph-name="Edotaccent" unicode="&#x116;" horiz-adv-x="1335" 
d="M797 1661q0 -40 -32 -57t-64 0q-31 16 -31 57q0 40 31 58q32 18 64 0t32 -58zM279 63h933v-63h-999v1434h969v-64h-903v-614h860v-64h-860v-629z" />
    <glyph glyph-name="edotaccent" unicode="&#x117;" horiz-adv-x="1206" 
d="M578 1374q0 44 32 61q33 18 65 0t32 -61q0 -40 -32 -58t-65 0q-32 17 -32 58zM1001 225l48 -35q-69 -95 -190 -147q-120 -51 -249 -51q-210 0 -357 138t-147 374q0 230 144 375t358 145q230 0 380 -138q151 -139 124 -411h-944q16 -205 142 -314q127 -110 300 -110
q112 0 224 47q109 45 167 127zM168 532h889q6 208 -115 320q-122 113 -334 113q-181 0 -304 -115q-121 -113 -136 -318z" />
    <glyph glyph-name="Eogonek" unicode="&#x118;" horiz-adv-x="1335" 
d="M279 63h933v-63q-55 -4 -120 -26t-114 -71q-50 -50 -32 -118q22 -82 117 -82q137 0 190 113l52 -21q-32 -69 -98 -111q-64 -40 -146 -40q-142 0 -176 118q-25 82 21 148q47 68 134 90h-827v1434h969v-64h-903v-614h860v-64h-860v-629z" />
    <glyph glyph-name="eogonek" unicode="&#x119;" horiz-adv-x="1206" 
d="M1001 217l48 -35q-84 -119 -252 -170q-70 -67 -33 -139q38 -74 141 -68q52 5 103 33q49 27 77 80l50 -22q-28 -63 -94 -107q-63 -42 -132 -47q-116 -12 -179 68q-62 79 1 186q-55 -12 -121 -12q-210 0 -357 138t-147 374q0 228 144 374t358 146q230 0 380 -138
q151 -139 124 -411h-944q16 -205 142 -314q127 -110 300 -110q112 0 224 47q109 45 167 127zM168 524h889q6 208 -115 320t-334 112q-182 0 -304 -114q-121 -113 -136 -318z" />
    <glyph glyph-name="Ecaron" unicode="&#x11a;" horiz-adv-x="1335" 
d="M279 63h933v-63h-999v1434h969v-64h-903v-614h860v-64h-860v-629zM696 1571l-276 260v8h69l240 -221l240 221h69v-8l-276 -260h-66z" />
    <glyph glyph-name="ecaron" unicode="&#x11b;" horiz-adv-x="1206" 
d="M1001 225l48 -35q-69 -95 -190 -147q-120 -51 -249 -51q-210 0 -357 138t-147 374q0 230 144 375t358 145q230 0 380 -138q151 -139 124 -411h-944q16 -205 142 -314q127 -110 300 -110q112 0 224 47q109 45 167 127zM168 532h889q6 208 -115 320q-122 113 -334 113
q-181 0 -304 -115q-121 -113 -136 -318zM600 1182l-264 248v8h67l230 -213l229 213h66v-8l-264 -248h-64z" />
    <glyph glyph-name="Gcircumflex" unicode="&#x11c;" horiz-adv-x="1527" 
d="M1368 1237l-43 -47q-196 196 -467 196q-322 0 -497 -193q-175 -192 -173 -474q0 -284 179 -477t491 -193q124 0 255 51q128 50 212 140v426h-537v63h603v-518q-219 -225 -533 -225q-231 0 -399 101q-171 103 -253 265q-83 164 -83 365q-2 336 205 534q208 199 530 199
q296 0 510 -213zM874 1864l283 -267v-8h-72l-245 228l-244 -228h-70v8l281 267h67z" />
    <glyph glyph-name="gcircumflex" unicode="&#x11d;" horiz-adv-x="1243" 
d="M338 1198l268 256h64l268 -256v-12h-64l-237 213l-234 -213h-65v12zM137 -213h60q2 -154 129 -242t299 -88q181 0 311 74q129 73 129 223q0 108 -74 179q-75 72 -167 96q-93 24 -199 24q-231 0 -374 129q-142 129 -142 361q0 228 156 359q155 130 360 130q191 0 321 -94
l103 121l45 -33l-105 -123q51 -56 71 -82q26 -34 51 -108q26 -78 26 -170q0 -147 -90 -284q-90 -136 -254 -169q144 -24 238 -109q95 -86 95 -227q0 -167 -145 -261q-146 -95 -356 -95q-199 0 -342 103q-145 104 -146 286zM170 543q0 -214 126 -322t329 -108q201 0 325 129
q125 130 125 301q0 109 -39 195q-40 87 -104 135q-69 52 -144 75q-81 25 -163 25q-181 0 -318 -111t-137 -319z" />
    <glyph glyph-name="Gbreve" unicode="&#x11e;" horiz-adv-x="1527" 
d="M1368 1237l-43 -47q-196 196 -467 196q-322 0 -497 -193q-175 -192 -173 -474q0 -284 179 -477t491 -193q124 0 255 51q128 50 212 140v426h-537v63h603v-518q-219 -225 -533 -225q-231 0 -399 101q-171 103 -253 265q-83 164 -83 365q-2 336 205 534q208 199 530 199
q296 0 510 -213zM1087 1810q-2 -96 -70 -150q-70 -55 -163 -56q-97 -2 -168 53q-72 55 -76 153h52q0 -76 57 -116t135 -39q71 1 126 43q55 41 56 112h51z" />
    <glyph glyph-name="gbreve" unicode="&#x11f;" horiz-adv-x="1243" 
d="M137 -213h60q2 -154 129 -242t299 -88q181 0 311 74q129 73 129 223q0 108 -74 179q-75 72 -167 96q-93 24 -199 24q-231 0 -374 129q-142 129 -142 361q0 228 156 359q155 130 360 130q191 0 321 -94l103 121l45 -33l-105 -123q51 -56 71 -82q26 -34 51 -108
q26 -78 26 -170q0 -147 -90 -284q-90 -136 -254 -169q144 -24 238 -109q95 -86 95 -227q0 -167 -145 -261q-146 -95 -356 -95q-199 0 -342 103q-145 104 -146 286zM170 543q0 -214 126 -322t329 -108q201 0 325 129q125 130 125 301q0 109 -39 195q-40 87 -104 135
q-69 52 -144 75q-81 25 -163 25q-181 0 -318 -111t-137 -319zM874 1442q-2 -97 -70 -151q-70 -55 -163 -56q-97 -2 -168 53q-72 55 -76 154h52q0 -76 57 -117t135 -39q71 1 126 43q54 41 56 113h51z" />
    <glyph glyph-name="Gdotaccent" unicode="&#x120;" horiz-adv-x="1525" 
d="M784 1659q0 39 33 54t67 0t34 -54t-34 -55t-67 0t-33 55zM1368 1233l-43 -47q-196 196 -467 196q-322 0 -497 -193q-175 -192 -173 -474q0 -284 179 -477t491 -193q124 0 255 51q128 50 212 140v426h-537v63h603v-518q-219 -225 -533 -225q-231 0 -399 101
q-171 103 -253 265q-83 164 -83 365q-2 336 205 534q208 199 530 199q296 0 510 -213z" />
    <glyph glyph-name="gdotaccent" unicode="&#x121;" horiz-adv-x="1243" 
d="M592 1362q0 39 33 54q32 15 65 0t33 -54t-33 -54q-32 -15 -65 0t-33 54zM137 -213h60q2 -154 129 -242t299 -88q181 0 311 74q129 73 129 223q0 108 -74 179q-75 72 -167 96q-93 24 -199 24q-231 0 -374 129q-142 129 -142 361q0 228 156 359q155 130 360 130
q191 0 321 -94l103 121l45 -33l-105 -123q51 -56 71 -82q26 -34 51 -108q26 -78 26 -170q0 -147 -90 -284q-90 -136 -254 -169q144 -24 238 -109q95 -86 95 -227q0 -167 -145 -261q-146 -95 -356 -95q-199 0 -342 103q-145 104 -146 286zM170 543q0 -214 126 -322t329 -108
q201 0 325 129q125 130 125 301q0 109 -39 195q-40 87 -104 135q-69 52 -144 75q-81 25 -163 25q-181 0 -318 -111t-137 -319z" />
    <glyph glyph-name="Gcommaaccent" unicode="&#x122;" horiz-adv-x="1527" 
d="M1368 1237l-43 -47q-196 196 -467 196q-322 0 -497 -193q-175 -192 -173 -474q0 -284 179 -477t491 -193q124 0 255 51q128 50 212 140v426h-537v63h603v-518q-219 -225 -533 -225q-231 0 -399 101q-171 103 -253 265q-83 164 -83 365q-2 336 205 534q208 199 530 199
q296 0 510 -213zM752 -442l61 151q-35 11 -35 49q0 36 28 52q27 15 56 0t29 -52q0 -11 -17 -53l-63 -147h-59z" />
    <glyph glyph-name="gcommaaccent" unicode="&#x123;" horiz-adv-x="1243" 
d="M735 1448l-61 -152q35 -11 35 -49q0 -36 -29 -51t-56 0q-28 16 -28 51q0 14 16 53l64 148h59zM137 -213h60q2 -154 129 -242t299 -88q181 0 311 74q129 73 129 223q0 108 -74 179q-75 72 -167 96q-93 24 -199 24q-231 0 -374 129q-142 129 -142 361q0 228 156 359
q155 130 360 130q191 0 321 -94l103 121l45 -33l-105 -123q51 -56 71 -82q26 -34 51 -108q26 -78 26 -170q0 -147 -90 -284q-90 -136 -254 -169q144 -24 238 -109q95 -86 95 -227q0 -167 -145 -261q-146 -95 -356 -95q-199 0 -342 103q-145 104 -146 286zM170 543
q0 -214 126 -322t329 -108q201 0 325 129q125 130 125 301q0 109 -39 195q-40 87 -104 135q-69 52 -144 75q-81 25 -163 25q-181 0 -318 -111t-137 -319z" />
    <glyph glyph-name="Hcircumflex" unicode="&#x124;" horiz-adv-x="1533" 
d="M1321 0h-66v670h-976v-670h-66v1434h66v-701h976v701h66v-1434zM811 1847l283 -266v-8h-72l-246 227l-244 -227h-69v8l280 266h68z" />
    <glyph glyph-name="hcircumflex" unicode="&#x125;" horiz-adv-x="1200" 
d="M614 1831l271 -254v-8h-68l-235 217l-234 -217h-67v8l270 254h63zM174 1012v422h62v-422l-9 -252q108 259 406 264q405 0 405 -428v-596h-61v594q0 190 -84 279q-85 90 -260 94q-160 5 -279 -110q-118 -114 -118 -282v-575h-62v1012z" />
    <glyph glyph-name="Hbar" unicode="&#x126;" horiz-adv-x="1558" 
d="M74 1100v57h151v277h66v-277h977v277h65v-277h156v-57h-156v-1100h-65v670h-977v-670h-66v1100h-151zM291 733h977v367h-977v-367z" />
    <glyph glyph-name="hbar" unicode="&#x127;" horiz-adv-x="1200" 
d="M35 1208v49h139v177h62v-177h266v-49h-266v-196l-9 -252q108 259 406 264q405 0 405 -428v-596h-61v594q0 190 -84 279q-85 90 -260 94q-160 5 -279 -110q-118 -114 -118 -282v-575h-62v1208h-139z" />
    <glyph glyph-name="Itilde" unicode="&#x128;" horiz-adv-x="491" 
d="M221 1696l86 -47q109 -58 144 55l43 -16q-21 -83 -76 -107q-57 -24 -137 18l-86 48q-111 61 -144 -50l-43 17q21 77 76 101t137 -19zM279 0h-66v1434h66v-1434z" />
    <glyph glyph-name="itilde" unicode="&#x129;" horiz-adv-x="407" 
d="M174 1026h59v-1026h-59v1026zM184 1323l74 -45q91 -58 121 51l35 -14q-17 -79 -64 -103q-46 -24 -114 17l-74 47q-94 60 -121 -49l-37 16q16 75 64 98q47 23 116 -18z" />
    <glyph glyph-name="Imacron" unicode="&#x12a;" horiz-adv-x="491" 
d="M279 0h-66v1434h66v-1434zM29 1571v59h430v-59h-430z" />
    <glyph glyph-name="imacron" unicode="&#x12b;" horiz-adv-x="409" 
d="M236 1012h-62v-1012h62v1012zM16 1346v57h381v-57h-381z" />
    <glyph glyph-name="Ibreve" unicode="&#x12c;" horiz-adv-x="491" 
d="M483 1761q-2 -96 -70 -150q-71 -56 -163 -57q-96 -2 -168 54q-72 55 -76 153h51q0 -75 58 -116q57 -41 135 -39q71 1 126 43q55 41 56 112h51zM279 0h-66v1434h66v-1434z" />
    <glyph glyph-name="ibreve" unicode="&#x12d;" horiz-adv-x="409" 
d="M236 1012h-62v-1012h62v1012zM25 1413h45q1 -130 137 -135q136 5 137 135h45q-1 -98 -53 -146q-52 -49 -129 -50q-77 1 -129 50q-52 48 -53 146z" />
    <glyph glyph-name="Iogonek" unicode="&#x12e;" horiz-adv-x="495" 
d="M313 0h-20q-102 -5 -134 -65t-9 -107q39 -88 139 -82q114 5 166 100l47 -18q-57 -131 -207 -137q-152 -8 -197 110q-30 82 11 153t139 89v1391h65v-1434z" />
    <glyph glyph-name="iogonek" unicode="&#x12f;" horiz-adv-x="417" 
d="M172 1354q0 51 54 51q55 0 55 -51q0 -34 -27 -49t-54 0q-28 16 -28 49zM254 1012h-61v-969q-87 -15 -127 -73q-41 -60 -31 -120q11 -63 66 -108q58 -47 141 -43q107 6 174 94l-45 27q-56 -64 -138 -68q-79 -4 -120 53q-41 58 -15 120q27 63 113 75h43v1012z" />
    <glyph glyph-name="Idotaccent" unicode="&#x130;" horiz-adv-x="491" 
d="M279 0h-66v1434h66v-1434zM182 1599q0 39 32 56t65 0q32 -16 32 -56q0 -41 -32 -57q-33 -17 -65 0t-32 57z" />
    <glyph glyph-name="dotlessi" unicode="&#x131;" horiz-adv-x="409" 
d="M174 1012h62v-1012h-62v1012z" />
    <glyph glyph-name="IJ" unicode="&#x132;" horiz-adv-x="1851" 
d="M1010 1370v64h645v-912q0 -252 -156 -397q-155 -145 -395 -145q-238 0 -393 155q-156 156 -156 391h59q0 -207 144 -345t346 -138q212 0 348 126q137 126 137 353v848h-579zM279 0h-66v1434h66v-1434z" />
    <glyph glyph-name="ij" unicode="&#x133;" horiz-adv-x="819" 
d="M645 1014h-61v-1180q0 -59 -5 -104q-4 -36 -24 -84q-18 -43 -57 -64q-37 -20 -103 -20q-89 0 -162 45l-20 -56q94 -49 178 -49q81 0 135 26q53 25 79 76q27 52 34 103q8 53 6 127v1180zM559 1366q0 51 54 51q55 0 55 -51q0 -34 -27 -49t-54 0q-28 16 -28 49zM154 1354
q0 51 54 51t54 -51q0 -35 -26 -49q-28 -15 -55 0t-27 49zM236 1012h-62v-1012h62v1012z" />
    <glyph glyph-name="Jcircumflex" unicode="&#x134;" horiz-adv-x="1359" 
d="M825 1851l285 -268v-8h-72l-247 229l-246 -229h-72v8l285 268h67zM518 1370v64h645v-912q0 -252 -155 -397t-396 -145q-238 0 -393 155q-156 156 -156 391h60q0 -208 143 -345q144 -138 346 -138q212 0 349 126t137 353v848h-580z" />
    <glyph glyph-name="jcircumflex" unicode="&#x135;" horiz-adv-x="409" 
d="M236 1014h-62v-1180q0 -59 -5 -104q-4 -36 -24 -84q-18 -43 -57 -64q-37 -20 -102 -20q-88 0 -162 45l-21 -56q94 -49 179 -49q81 0 135 26q53 26 79 76q25 49 33 103q8 59 7 127v1180zM236 1430l251 -269v-8h-63l-219 229l-217 -229h-64v8l252 269h60z" />
    <glyph glyph-name="Kcommaaccent" unicode="&#x136;" horiz-adv-x="1167" 
d="M274 2h-65v1432h65v-666l734 666h82v-11l-748 -673l815 -744v-6h-90l-793 725v-723zM563 -442l62 151q-35 11 -35 49q0 37 28 52q29 15 57 0q27 -15 27 -52q0 -14 -16 -53l-63 -147h-60z" />
    <glyph glyph-name="kcommaaccent" unicode="&#x137;" horiz-adv-x="923" 
d="M174 1434h62v-873l509 451h95v-2l-549 -475l608 -531v-4h-82l-581 506v-506h-62v1434zM430 -428l59 143q-32 10 -32 47q0 36 26 50q27 15 54 0q26 -14 26 -50q0 -19 -14 -51l-62 -139h-57z" />
    <glyph glyph-name="kgreenlandic" unicode="&#x138;" horiz-adv-x="923" 
d="M174 1014h62v-453l512 451h92v-2l-539 -475l598 -531v-4h-84l-579 506v-506h-62v1014z" />
    <glyph glyph-name="Lacute" unicode="&#x139;" horiz-adv-x="1144" 
d="M412 1579h-62v6l156 238h80zM213 1434h66v-1371h829v-63h-895v1434z" />
    <glyph glyph-name="lacute" unicode="&#x13a;" horiz-adv-x="442" 
d="M190 1434h62v-1434h-62v1434zM242 1540h-56v6l138 242h67z" />
    <glyph glyph-name="Lcommaaccent" unicode="&#x13b;" horiz-adv-x="1144" 
d="M213 1434h66v-1371h829v-63h-895v1434zM586 -455l61 152q-35 11 -35 49q0 35 28 51q27 15 56 0t29 -51q0 -14 -16 -53l-64 -148h-59z" />
    <glyph glyph-name="lcommaaccent" unicode="&#x13c;" horiz-adv-x="442" 
d="M137 -442l62 151q-35 11 -35 49q0 36 29 51q30 16 56 1q27 -15 27 -52q0 -14 -16 -53l-63 -147h-60zM190 1434h62v-1434h-62v1434z" />
    <glyph glyph-name="Lcaron" unicode="&#x13d;" horiz-adv-x="1146" 
d="M866 1130h-59l90 304h72zM213 1434h66v-1371h829v-63h-895v1434z" />
    <glyph glyph-name="lcaron" unicode="&#x13e;" horiz-adv-x="428" 
d="M360 1143l72 293h66l-86 -293h-52zM190 1434h64v-1434h-64v1434z" />
    <glyph glyph-name="Ldot" unicode="&#x13f;" horiz-adv-x="1144" 
d="M213 1434h66v-1371h829v-63h-895v1434zM666 756q0 36 29 50q30 15 59 0q28 -15 28 -50t-28 -50q-29 -15 -59 0q-29 14 -29 50z" />
    <glyph glyph-name="ldot" unicode="&#x140;" horiz-adv-x="546" 
d="M190 1434h62v-1434h-62v1434zM436 649q0 35 30 50t58 0q29 -15 29 -50t-29 -50q-28 -15 -58 0t-30 50z" />
    <glyph glyph-name="Lslash" unicode="&#x141;" horiz-adv-x="1153" 
d="M225 0v651l-139 -51v57l139 56v721h62v-699l241 101v-64l-241 -96v-619h833v-57h-895z" />
    <glyph glyph-name="lslash" unicode="&#x142;" horiz-adv-x="493" 
d="M215 1434h64v-703l170 68v-82l-170 -66v-651h-64v633l-152 -55v75l152 60v721z" />
    <glyph glyph-name="Nacute" unicode="&#x143;" horiz-adv-x="1515" 
d="M213 0v1434h6l1024 -1262l-6 332v930h66v-1434l-1031 1268l7 -338v-930h-66zM764 1571h-62v6l156 238h80z" />
    <glyph glyph-name="nacute" unicode="&#x144;" horiz-adv-x="1230" 
d="M174 0v1012h62l-3 -230q58 126 168 186q112 61 232 62q207 0 322 -115q114 -114 114 -319v-596h-61v594q0 184 -99 282q-98 96 -276 95q-166 -1 -282 -116q-115 -114 -115 -280v-575h-62zM629 1219h-56v6l138 211h71z" />
    <glyph glyph-name="Ncommaaccent" unicode="&#x145;" horiz-adv-x="1515" 
d="M213 0v1434h6l1024 -1262l-6 332v930h66v-1434l-1031 1268l7 -338v-930h-66zM664 -434l61 151q-35 11 -35 50q0 35 28 51q27 15 56 0t29 -51q0 -12 -17 -54l-63 -147h-59z" />
    <glyph glyph-name="ncommaaccent" unicode="&#x146;" horiz-adv-x="1230" 
d="M174 0v1012h62l-3 -230q58 126 168 186q112 61 232 62q207 0 322 -115q114 -114 114 -319v-596h-61v594q0 184 -99 282q-98 96 -276 95q-166 -1 -282 -116q-115 -114 -115 -280v-575h-62zM530 -428l62 152q-35 11 -35 49q0 36 29 51t56 0q28 -16 28 -51q0 -12 -17 -54
l-63 -147h-60z" />
    <glyph glyph-name="Ncaron" unicode="&#x147;" horiz-adv-x="1515" 
d="M213 0v1434h6l1024 -1262l-6 332v930h66v-1434l-1031 1268l7 -338v-930h-66zM719 1550l-275 258v9h68l240 -222l237 222h70v-9l-277 -258h-63z" />
    <glyph glyph-name="ncaron" unicode="&#x148;" horiz-adv-x="1230" 
d="M174 0v1012h62l-3 -230q58 126 168 186q112 61 232 62q207 0 322 -115q114 -114 114 -319v-596h-61v594q0 184 -99 282q-98 96 -276 95q-166 -1 -282 -116q-115 -114 -115 -280v-575h-62zM600 1180l-264 247v9h67l230 -213l229 213h66v-9l-264 -247h-64z" />
    <glyph glyph-name="napostrophe" unicode="&#x149;" horiz-adv-x="1230" 
d="M174 0v1012h62l-3 -230q58 126 168 186q112 61 232 62q207 0 322 -115q114 -114 114 -319v-596h-61v594q0 184 -99 282q-98 96 -276 95q-166 -1 -282 -116q-115 -114 -115 -280v-575h-62z" />
    <glyph glyph-name="Eng" unicode="&#x14a;" horiz-adv-x="1515" 
d="M213 0v1434h6l1024 -1262l-6 332v930h66v-1514q1 -150 -50 -232q-51 -81 -204 -81q-84 0 -160 55l12 53q83 -49 150 -49q117 0 155 64q37 62 37 190v150l-971 1198l7 -338v-930h-66z" />
    <glyph glyph-name="eng" unicode="&#x14b;" horiz-adv-x="1230" 
d="M174 0v1012h62l-3 -230q58 126 168 186q112 61 232 62q207 0 322 -115q114 -114 114 -319v-623q2 -79 -5 -125q-8 -54 -30 -106q-23 -54 -70 -83q-49 -31 -122 -32q-82 -1 -176 45l14 58q74 -45 162 -45q103 6 134 79q32 75 32 209v621q0 184 -99 282q-98 96 -276 95
q-166 -1 -282 -116q-115 -114 -115 -280v-575h-62z" />
    <glyph glyph-name="Omacron" unicode="&#x14c;" horiz-adv-x="1673" 
d="M834 1452q175 0 315 -61q141 -61 228 -165q86 -102 133 -235q46 -129 46 -274q-2 -199 -79 -361q-78 -163 -245 -270q-166 -106 -396 -106q-175 0 -312 62q-139 63 -227 167q-87 103 -134 235q-46 129 -46 277q0 136 43 262q44 129 127 234q84 107 225 171q140 64 322 64
zM1491 717q0 282 -174 477t-483 195q-156 0 -286 -58q-128 -57 -206 -152q-79 -96 -119 -213q-41 -120 -41 -247q0 -130 43 -249q44 -122 122 -216q81 -98 206 -154q127 -57 283 -57q305 0 481 200q175 199 174 474zM545 1651v59h596v-59h-596z" />
    <glyph glyph-name="omacron" unicode="&#x14d;" horiz-adv-x="1239" 
d="M106 504q0 240 150 382q149 142 365 142q212 0 362 -144t150 -380q0 -238 -150 -377q-149 -139 -365 -139q-215 0 -363 139q-149 140 -149 377zM1071 504q0 210 -131 338q-130 127 -322 127q-185 0 -318 -128q-132 -127 -132 -337q0 -208 131 -333q130 -124 319 -124
q190 0 321 124q132 125 132 333zM360 1354v53h521v-53h-521z" />
    <glyph glyph-name="Obreve" unicode="&#x14e;" horiz-adv-x="1673" 
d="M834 1452q175 0 315 -61q141 -61 228 -165q86 -102 133 -235q46 -129 46 -274q-2 -199 -79 -361q-78 -163 -245 -270q-166 -106 -396 -106q-175 0 -312 62q-139 63 -227 167q-87 103 -134 235q-46 129 -46 277q0 136 43 262q44 129 127 234q84 107 225 171q140 64 322 64
zM1491 717q0 282 -174 477t-483 195q-156 0 -286 -58q-128 -57 -206 -152q-79 -96 -119 -213q-41 -120 -41 -247q0 -130 43 -249q44 -122 122 -216q81 -98 206 -154q127 -57 283 -57q305 0 481 200q175 199 174 474zM1083 1806q-2 -96 -70 -150q-71 -56 -163 -57
q-96 -1 -168 54t-76 153h51q0 -75 58 -116q57 -40 135 -39q71 1 126 43q55 41 56 112h51z" />
    <glyph glyph-name="obreve" unicode="&#x14f;" horiz-adv-x="1239" 
d="M106 504q0 240 150 382q149 142 365 142q212 0 362 -144t150 -380q0 -238 -150 -377q-149 -139 -365 -139q-215 0 -363 139q-149 140 -149 377zM1071 504q0 210 -131 338q-130 127 -322 127q-185 0 -318 -128q-132 -127 -132 -337q0 -208 131 -333q130 -124 319 -124
q190 0 321 124q132 125 132 333zM860 1415q-2 -96 -70 -150q-71 -56 -163 -57q-96 -2 -168 54q-72 55 -76 153h51q0 -76 58 -117q56 -40 135 -38q71 1 126 43q55 41 56 112h51z" />
    <glyph glyph-name="Ohungarumlaut" unicode="&#x150;" horiz-adv-x="1673" 
d="M834 1452q175 0 315 -61q141 -61 228 -165q86 -102 133 -235q46 -129 46 -274q-2 -199 -79 -361q-78 -163 -245 -270q-166 -106 -396 -106q-175 0 -312 62q-139 63 -227 167q-87 103 -134 235q-46 129 -46 277q0 136 43 262q44 129 127 234q84 107 225 171q140 64 322 64
zM1491 717q0 282 -174 477t-483 195q-156 0 -286 -58q-128 -57 -206 -152q-79 -96 -119 -213q-41 -120 -41 -247q0 -130 43 -249q44 -122 122 -216q81 -98 206 -154q127 -57 283 -57q305 0 481 200q175 199 174 474zM723 1585h-64l136 205h77zM975 1585h-64l136 205h77z" />
    <glyph glyph-name="ohungarumlaut" unicode="&#x151;" horiz-adv-x="1239" 
d="M106 504q0 240 150 382q149 142 365 142q212 0 362 -144t150 -380q0 -238 -150 -377q-149 -139 -365 -139q-215 0 -363 139q-149 140 -149 377zM1071 504q0 210 -131 338q-130 127 -322 127q-185 0 -318 -128q-132 -127 -132 -337q0 -208 131 -333q130 -124 319 -124
q190 0 321 124q132 125 132 333zM514 1210h-63l135 205h78zM766 1210h-64l136 205h77z" />
    <glyph glyph-name="OE" unicode="&#x152;" horiz-adv-x="1914" 
d="M1808 0h-847q-60 -6 -119 -6q-343 0 -532 207t-189 516q0 314 187 519q188 206 534 206q75 0 123 -8h796v-56h-745v-610h704v-59h-704v-654h792v-55zM961 57v1325q-73 4 -119 4q-317 0 -487 -188q-171 -188 -169 -481q5 -296 173 -479q170 -185 481 -185q48 0 121 4z" />
    <glyph glyph-name="oe" unicode="&#x153;" horiz-adv-x="2164" 
d="M1960 225l47 -35q-69 -96 -189 -147t-249 -51q-164 0 -292 86t-179 241q-51 -156 -182 -244q-130 -87 -298 -87q-215 0 -363 139q-149 140 -149 377q0 240 150 382q149 142 365 142q167 0 297 -91t180 -251q49 156 175 247q125 91 294 91q230 0 380 -138
q151 -139 124 -411h-945q16 -204 143 -314t300 -110q111 0 223 47q110 46 168 127zM1071 504q0 210 -131 338q-130 127 -322 127q-185 0 -318 -128q-132 -127 -132 -337q0 -208 131 -333q130 -124 319 -124q190 0 321 124q132 125 132 333zM1126 532h889q6 209 -114 320
q-122 113 -334 113q-181 0 -304 -115q-122 -114 -137 -318z" />
    <glyph glyph-name="Racute" unicode="&#x154;" horiz-adv-x="1417" 
d="M1235 0l-520 563h-436v-563h-66v1434h618q213 0 330 -130q118 -131 119 -309q1 -195 -119 -318q-121 -124 -360 -114l522 -563h-88zM279 627h536q196 0 298 99q101 98 101 269q0 153 -101 263q-103 112 -282 112h-552v-743zM686 1575h-61v6l155 238h80z" />
    <glyph glyph-name="racute" unicode="&#x155;" horiz-adv-x="800" 
d="M174 1012h59v-111l-6 -139q38 114 139 186q102 72 226 72q107 0 196 -49l-26 -51q-77 43 -170 43q-150 -1 -252 -110q-102 -108 -102 -249v-604h-64v1012zM459 1212h-56v7l142 217h73z" />
    <glyph glyph-name="Rcommaaccent" unicode="&#x156;" horiz-adv-x="1417" 
d="M1235 0l-520 563h-436v-563h-66v1434h618q213 0 330 -130q118 -131 119 -309q1 -195 -119 -318q-121 -124 -360 -114l522 -563h-88zM279 627h536q196 0 298 99q101 98 101 269q0 153 -101 263q-103 112 -282 112h-552v-743zM625 -442l61 151q-35 11 -35 49q0 37 29 52
t56 0q28 -16 28 -52q0 -14 -16 -53l-64 -147h-59z" />
    <glyph glyph-name="rcommaaccent" unicode="&#x157;" horiz-adv-x="800" 
d="M174 1012h59v-111l-6 -139q38 114 139 186q102 72 226 72q107 0 196 -49l-26 -51q-77 43 -170 43q-150 -1 -252 -110q-102 -108 -102 -249v-604h-64v1012zM127 -442l61 151q-34 10 -34 49q0 36 27 51q29 16 57 1t28 -52q0 -14 -16 -53l-64 -147h-59z" />
    <glyph glyph-name="Rcaron" unicode="&#x158;" horiz-adv-x="1417" 
d="M1235 0l-520 563h-436v-563h-66v1434h618q213 0 330 -130q118 -131 119 -309q1 -195 -119 -318q-121 -124 -360 -114l522 -563h-88zM279 627h536q196 0 298 99q101 98 101 269q0 153 -101 263q-103 112 -282 112h-552v-743zM643 1569l-272 254v8h69l236 -219l235 219h68
v-8l-272 -254h-64z" />
    <glyph glyph-name="rcaron" unicode="&#x159;" horiz-adv-x="800" 
d="M174 1012h59v-111l-6 -139q38 114 139 186q102 72 226 72q107 0 196 -49l-26 -51q-77 43 -170 43q-150 -1 -252 -110q-102 -108 -102 -249v-604h-64v1012zM446 1176l-237 251v7h59l207 -213l205 213h59v-7l-237 -251h-56z" />
    <glyph glyph-name="Sacute" unicode="&#x15a;" horiz-adv-x="1337" 
d="M1178 1237l-45 -45q-141 192 -461 192q-75 0 -144 -12q-63 -11 -148 -43q-78 -29 -127 -100q-48 -69 -48 -170q0 -59 26 -101q26 -43 63 -70q38 -29 108 -52q69 -23 126 -36q15 -4 37.5 -8.5t56 -11.5t58.5 -12q266 -57 360 -102q195 -94 195 -295q0 -91 -38 -164
t-94 -114q-57 -42 -134 -67q-81 -26 -147 -35q-69 -9 -142 -9q-171 0 -335 76q-165 76 -245 225l58 32q67 -129 220 -199q154 -71 302 -71q78 0 153 12q73 12 156 45q81 32 131 102q49 68 49 167q0 41 -8 78q-7 32 -33 63q-9 11 -23.5 27.5t-19.5 21.5q-17 20 -64 41
q-62 28 -68 31q-19 9 -83 25q-22 5 -48 12t-32 8q-4 1 -34 6.5t-56 11.5q-8 2 -21 5t-17 4q-264 58 -351 100q-172 85 -172 254q-2 110 47 188q50 81 133 122q87 44 173 61q89 18 182 18q332 0 504 -211zM672 1579h-62v6l156 238h80z" />
    <glyph glyph-name="sacute" unicode="&#x15b;" horiz-adv-x="1030" 
d="M895 891l-39 -43q-127 121 -336 121q-146 0 -240 -51q-96 -52 -96 -160q0 -40 19 -73q19 -32 39 -50q23 -20 65 -35q41 -15 69 -22q34 -9 80 -17q62 -11 66 -12q4 0 12 -1.5t22.5 -4t25.5 -4.5q12 -2 64 -14t61 -14q41 -9 61 -19l52 -26q30 -14 48 -34q19 -21 35 -42
q19 -25 26 -55q7 -29 7 -69q0 -76 -37 -132q-37 -57 -99 -86q-60 -29 -131 -44q-64 -14 -145 -14q-142 0 -262 55q-121 55 -174 152l49 34q61 -91 167 -138q104 -46 222 -46q56 0 110 9t112 32t92 69t34 111q0 130 -161 181q-49 14 -203 43q-76 13 -99 19q-11 3 -39.5 10.5
t-46.5 12.5q-58 15 -84 31q-34 21 -60 43q-31 27 -45 65q-13 36 -13 85q0 132 115 200t282 68q231 0 375 -135zM535 1204h-60v6l148 226h75z" />
    <glyph glyph-name="Scircumflex" unicode="&#x15c;" horiz-adv-x="1337" 
d="M1178 1237l-45 -45q-141 192 -461 192q-75 0 -144 -12q-63 -11 -148 -43q-78 -29 -127 -100q-48 -69 -48 -170q0 -59 26 -101q26 -43 63 -70q38 -29 108 -52q69 -23 126 -36q15 -4 37.5 -8.5t56 -11.5t58.5 -12q266 -57 360 -102q195 -94 195 -295q0 -91 -38 -164
t-94 -114q-57 -42 -134 -67q-81 -26 -147 -35q-69 -9 -142 -9q-171 0 -335 76q-165 76 -245 225l58 32q67 -129 220 -199q154 -71 302 -71q78 0 153 12q73 12 156 45q81 32 131 102q49 68 49 167q0 41 -8 78q-7 32 -33 63q-9 11 -23.5 27.5t-19.5 21.5q-17 20 -64 41
q-62 28 -68 31q-19 9 -83 25q-22 5 -48 12t-32 8q-4 1 -34 6.5t-56 11.5q-8 2 -21 5t-17 4q-264 58 -351 100q-172 85 -172 254q-2 110 47 188q50 81 133 122q87 44 173 61q89 18 182 18q332 0 504 -211zM705 1851l284 -268v-8h-72l-247 229l-246 -229h-72v8l285 268h68z
" />
    <glyph glyph-name="scircumflex" unicode="&#x15d;" horiz-adv-x="1030" 
d="M895 891l-39 -43q-127 121 -336 121q-146 0 -240 -51q-96 -52 -96 -160q0 -40 19 -73q19 -32 39 -50q23 -20 65 -35q41 -15 69 -22q34 -9 80 -17q62 -11 66 -12q4 0 12 -1.5t22.5 -4t25.5 -4.5q12 -2 64 -14t61 -14q41 -9 61 -19l52 -26q30 -14 48 -34q19 -21 35 -42
q19 -25 26 -55q7 -29 7 -69q0 -76 -37 -132q-37 -57 -99 -86q-60 -29 -131 -44q-64 -14 -145 -14q-142 0 -262 55q-121 55 -174 152l49 34q61 -91 167 -138q104 -46 222 -46q56 0 110 9t112 32t92 69t34 111q0 130 -161 181q-49 14 -203 43q-76 13 -99 19q-11 3 -39.5 10.5
t-46.5 12.5q-58 15 -84 31q-34 21 -60 43q-31 27 -45 65q-13 36 -13 85q0 132 115 200t282 68q231 0 375 -135zM563 1430l260 -246v-8h-65l-226 210l-225 -210h-67v8l262 246h61z" />
    <glyph glyph-name="Scedilla" unicode="&#x15e;" horiz-adv-x="1337" 
d="M627 -184l-2 2l34 164q-170 5 -325 80q-157 76 -234 221l58 32q67 -129 220 -199q154 -71 302 -71q78 0 153 12q73 12 156 45q81 32 131 102q49 68 49 167q0 41 -8 78q-7 32 -33 63q-9 11 -23.5 27.5t-19.5 21.5q-17 20 -64 41q-62 28 -68 31q-19 9 -83 25q-22 5 -48 12
t-32 8q-4 1 -34 6.5t-56 11.5q-8 2 -21 5t-17 4q-264 58 -351 100q-172 85 -172 254q-2 110 47 188q50 81 133 122q87 44 173 61q89 18 182 18q332 0 504 -211l-45 -45q-141 192 -461 192q-75 0 -144 -12q-63 -11 -148 -43q-78 -29 -127 -100q-48 -69 -48 -170
q0 -59 26 -101q26 -43 63 -70q38 -29 108 -52q69 -23 126 -36q15 -4 37.5 -8.5t56 -11.5t58.5 -12q266 -57 360 -102q195 -94 195 -295q0 -109 -49 -188q-50 -80 -130 -120q-82 -41 -164 -59q-85 -19 -175 -20l-25 -115q120 8 172 -52q54 -60 27 -139q-37 -122 -201 -127
q-152 0 -209 101l41 35q62 -80 168 -80q114 0 141 86q21 63 -30 103q-52 41 -174 20z" />
    <glyph glyph-name="scedilla" unicode="&#x15f;" horiz-adv-x="1030" 
d="M459 -156l-2 2l30 146q-131 6 -240 60t-159 145l49 34q61 -91 167 -138q104 -46 222 -46q56 0 110 9t112 32t92 69t34 111q0 130 -161 181q-49 14 -203 43q-76 13 -99 19q-11 3 -39.5 10.5t-46.5 12.5q-58 15 -84 31q-34 21 -60 43q-31 27 -45 65q-13 36 -13 85
q0 132 115 200t282 68q231 0 375 -135l-39 -43q-127 121 -336 121q-146 0 -240 -51q-96 -52 -96 -160q0 -40 19 -73q19 -32 39 -50q23 -20 65 -35q41 -15 69 -22q34 -9 80 -17q62 -11 66 -12q4 0 12 -1.5t22.5 -4t25.5 -4.5q12 -2 64 -14t61 -14q41 -9 61 -19l52 -26
q30 -14 48 -34q19 -21 35 -42q19 -25 26 -55q7 -29 7 -69q0 -97 -64 -163q-62 -64 -147 -88q-82 -23 -186 -25l-23 -99q106 8 152 -46t24 -126q-34 -108 -178 -112q-128 0 -184 90l39 31q55 -72 145 -72q101 0 125 78q16 55 -29 91q-44 36 -151 19z" />
    <glyph glyph-name="Scaron" unicode="&#x160;" horiz-adv-x="1337" 
d="M1178 1237l-45 -45q-141 192 -461 192q-75 0 -144 -12q-63 -11 -148 -43q-78 -29 -127 -100q-48 -69 -48 -170q0 -59 26 -101q26 -43 63 -70q38 -29 108 -52q69 -23 126 -36q15 -4 37.5 -8.5t56 -11.5t58.5 -12q266 -57 360 -102q195 -94 195 -295q0 -91 -38 -164
t-94 -114q-57 -42 -134 -67q-81 -26 -147 -35q-69 -9 -142 -9q-171 0 -335 76q-165 76 -245 225l58 32q67 -129 220 -199q154 -71 302 -71q78 0 153 12q73 12 156 45q81 32 131 102q49 68 49 167q0 41 -8 78q-7 32 -33 63q-9 11 -23.5 27.5t-19.5 21.5q-17 20 -64 41
q-62 28 -68 31q-19 9 -83 25q-22 5 -48 12t-32 8q-4 1 -34 6.5t-56 11.5q-8 2 -21 5t-17 4q-264 58 -351 100q-172 85 -172 254q-2 110 47 188q50 81 133 122q87 44 173 61q89 18 182 18q332 0 504 -211zM649 1581l-284 268v9h71l248 -230l246 230h71v-9l-284 -268h-68z" />
    <glyph glyph-name="scaron" unicode="&#x161;" horiz-adv-x="1030" 
d="M895 891l-39 -43q-127 121 -336 121q-146 0 -240 -51q-96 -52 -96 -160q0 -40 19 -73q19 -32 39 -50q23 -20 65 -35q41 -15 69 -22q34 -9 80 -17q62 -11 66 -12q4 0 12 -1.5t22.5 -4t25.5 -4.5q12 -2 64 -14t61 -14q41 -9 61 -19l52 -26q30 -14 48 -34q19 -21 35 -42
q19 -25 26 -55q7 -29 7 -69q0 -76 -37 -132q-37 -57 -99 -86q-60 -29 -131 -44q-64 -14 -145 -14q-142 0 -262 55q-121 55 -174 152l49 34q61 -91 167 -138q104 -46 222 -46q56 0 110 9t112 32t92 69t34 111q0 130 -161 181q-49 14 -203 43q-76 13 -99 19q-11 3 -39.5 10.5
t-46.5 12.5q-58 15 -84 31q-34 21 -60 43q-31 27 -45 65q-13 36 -13 85q0 132 115 200t282 68q231 0 375 -135zM498 1188l-271 254v6h68l235 -215l236 215h68v-6l-271 -254h-65z" />
    <glyph glyph-name="Tcommaaccent" unicode="&#x162;" horiz-adv-x="1202" 
d="M539 -150l-2 3l30 149v1368h-536v64h1140v-64h-538v-1370h-15l-22 -100q112 8 159 -48q48 -57 25 -131q-37 -114 -186 -118q-139 0 -191 94l39 31q56 -69 152 -74q109 0 131 82q18 57 -29 95q-46 37 -157 19z" />
    <glyph glyph-name="tcommaaccent" unicode="&#x163;" horiz-adv-x="772" 
d="M297 1317l61 6v-311h361v-54h-361v-657q0 -129 39 -193q39 -65 162 -65q80 0 182 51l27 -51q-108 -57 -205 -57q-19 0 -33 2l-22 -99q104 7 152 -46q48 -54 26 -126q-37 -110 -180 -114q-132 0 -184 90l36 31q55 -67 148 -72q103 0 127 80q16 55 -29 91q-44 36 -151 19
l-2 2l28 150q-102 21 -142 95t-40 212v657h-221v54h221v305z" />
    <glyph glyph-name="Tcaron" unicode="&#x164;" horiz-adv-x="1202" 
d="M569 1559l-284 268v8h71l248 -229l246 229h72v-8l-285 -268h-68zM31 1370v64h1140v-64h-538v-1370h-66v1370h-536z" />
    <glyph glyph-name="tcaron" unicode="&#x165;" horiz-adv-x="798" 
d="M297 1317l61 6v-311h246v-54h-246v-657q0 -129 39 -193q39 -65 162 -65q80 0 182 51l27 -51q-108 -57 -205 -57q-151 1 -209 79q-57 77 -57 236v657h-221v54h221v305zM764 1036h-55l84 299h67z" />
    <glyph glyph-name="Tbar" unicode="&#x166;" horiz-adv-x="1222" 
d="M305 705v57h273v608h-537v64h1141v-64h-539v-608h283v-57h-283v-705h-65v705h-273z" />
    <glyph glyph-name="tbar" unicode="&#x167;" horiz-adv-x="772" 
d="M297 1317l61 6v-311h361v-54h-361v-374h263v-54h-263v-229q0 -129 39 -193q39 -65 162 -65q80 0 182 51l27 -51q-108 -57 -205 -57q-151 1 -209 79q-57 77 -57 236v229h-166v54h166v374h-221v54h221v305z" />
    <glyph glyph-name="Utilde" unicode="&#x168;" horiz-adv-x="1449" 
d="M707 1694l86 -47q109 -57 143 55l43 -16q-21 -83 -76 -107q-57 -24 -137 18l-86 48q-110 61 -143 -50l-43 17q21 78 75 101q56 24 138 -19zM1188 1434h65v-908q0 -133 -47 -241q-46 -106 -124 -170q-77 -63 -169 -98q-88 -33 -190 -33q-105 0 -193 33q-92 35 -168 99
q-74 63 -120 171q-45 107 -45 239v908h65v-908q0 -233 138 -356t323 -123q184 0 325 123q140 122 140 356v908z" />
    <glyph glyph-name="utilde" unicode="&#x169;" horiz-adv-x="1230" 
d="M1057 1012v-1012h-62l2 229q-57 -125 -168 -185q-112 -61 -231 -62q-209 0 -323 114q-113 113 -113 320v596h61v-594q0 -184 99 -282q98 -96 276 -95q166 1 282 116q115 114 115 279v576h62zM598 1417l86 -47q109 -57 143 55l43 -16q-21 -83 -75 -106q-57 -25 -138 18
l-86 47q-110 61 -143 -49l-43 16q21 78 76 102q54 24 137 -20z" />
    <glyph glyph-name="Umacron" unicode="&#x16a;" horiz-adv-x="1449" 
d="M1188 1434h65v-908q0 -133 -47 -241q-46 -106 -124 -170q-77 -63 -169 -98q-88 -33 -190 -33q-105 0 -193 33q-92 35 -168 99q-74 63 -120 171q-45 107 -45 239v908h65v-908q0 -233 138 -356t323 -123q184 0 325 123q140 122 140 356v908zM471 1583v55h502v-55h-502z" />
    <glyph glyph-name="umacron" unicode="&#x16b;" horiz-adv-x="1230" 
d="M1057 1012v-1012h-62l2 229q-57 -125 -168 -185q-112 -61 -231 -62q-209 0 -323 114q-113 113 -113 320v596h61v-594q0 -184 99 -282q98 -96 276 -95q166 1 282 116q115 114 115 279v576h62zM367 1352v55h512v-55h-512z" />
    <glyph glyph-name="Ubreve" unicode="&#x16c;" horiz-adv-x="1449" 
d="M1188 1434h65v-908q0 -133 -47 -241q-46 -106 -124 -170q-77 -63 -169 -98q-88 -33 -190 -33q-105 0 -193 33q-92 35 -168 99q-74 63 -120 171q-45 107 -45 239v908h65v-908q0 -233 138 -356t323 -123q184 0 325 123q140 122 140 356v908zM967 1761q-1 -96 -71 -150
q-71 -56 -163 -57q-96 -2 -168 54q-72 55 -76 153h52q0 -75 57 -116t135 -39q71 1 126 43q55 41 56 112h52z" />
    <glyph glyph-name="ubreve" unicode="&#x16d;" horiz-adv-x="1230" 
d="M1057 1012v-1012h-62l2 229q-57 -125 -168 -185q-112 -61 -231 -62q-209 0 -323 114q-113 113 -113 320v596h61v-594q0 -184 99 -282q98 -96 276 -95q166 1 282 116q115 114 115 279v576h62zM866 1434q-2 -97 -70 -151q-70 -55 -163 -56q-97 -2 -168 53q-72 55 -76 154
h51q0 -76 58 -117q57 -41 135 -39q71 1 126 43q54 41 56 113h51z" />
    <glyph glyph-name="Uring" unicode="&#x16e;" horiz-adv-x="1449" 
d="M1188 1434h65v-908q0 -133 -47 -241q-46 -106 -124 -170q-77 -63 -169 -98q-88 -33 -190 -33q-105 0 -193 33q-92 35 -168 99q-74 63 -120 171q-45 107 -45 239v908h65v-908q0 -233 138 -356t323 -123q184 0 325 123q140 122 140 356v908zM864 1696q0 76 -68 107t-138 1
q-68 -30 -68 -110q0 -46 28 -75t69 -37q40 -7 80 0t69 38q28 29 28 76zM915 1696q0 -68 -38 -110q-39 -44 -94 -53t-109 1q-56 11 -94 53q-39 43 -39 107q0 66 39 109q41 45 94 54q55 9 109 -3q57 -13 94 -54q38 -42 38 -104z" />
    <glyph glyph-name="uring" unicode="&#x16f;" horiz-adv-x="1230" 
d="M1057 1012v-1012h-62l2 229q-57 -125 -168 -185q-112 -61 -231 -62q-209 0 -323 114q-113 113 -113 320v596h61v-594q0 -184 99 -282q98 -96 276 -95q166 1 282 116q115 114 115 279v576h62zM756 1298q0 76 -70 108q-69 31 -139 1t-70 -111q0 -43 29 -74q28 -29 69 -37
t82 0t70 38q29 31 29 75zM807 1298q0 -66 -39 -109q-40 -44 -95 -53q-58 -9 -113 1q-57 10 -95 53q-39 44 -39 106q0 67 39 110q40 44 95 53q59 9 113 -2q57 -12 95 -54q39 -43 39 -105z" />
    <glyph glyph-name="Uhungarumlaut" unicode="&#x170;" horiz-adv-x="1449" 
d="M594 1571h-64l136 205h77zM846 1571h-64l136 205h77zM1188 1434h65v-908q0 -133 -47 -241q-46 -106 -124 -170q-77 -63 -169 -98q-88 -33 -190 -33q-105 0 -193 33q-92 35 -168 99q-74 63 -120 171q-45 107 -45 239v908h65v-908q0 -233 138 -356t323 -123q184 0 325 123
q140 122 140 356v908z" />
    <glyph glyph-name="uhungarumlaut" unicode="&#x171;" horiz-adv-x="1230" 
d="M1057 1012v-1012h-62l2 229q-57 -125 -168 -185q-112 -61 -231 -62q-209 0 -323 114q-113 113 -113 320v596h61v-594q0 -184 99 -282q98 -96 276 -95q166 1 282 116q115 114 115 279v576h62zM496 1229h-64l135 205h78zM748 1229h-64l135 205h78z" />
    <glyph glyph-name="Uogonek" unicode="&#x172;" horiz-adv-x="1449" 
d="M1188 1434h65v-908q0 -200 -102 -333q-102 -134 -260 -185q-62 -29 -77 -83t13 -97q45 -82 154 -76q56 1 117 35q59 33 92 92l53 -26q-30 -72 -102 -114q-71 -41 -154 -46q-157 -2 -219 102q-24 40 -19 96q5 57 37 95q-225 -27 -407 119t-182 421v908h65v-908
q0 -226 140 -354q141 -129 321 -129q182 0 324 128q141 127 141 355v908z" />
    <glyph glyph-name="uogonek" unicode="&#x173;" horiz-adv-x="1228" 
d="M1055 1012v-1092q-77 4 -132 -11q-54 -15 -75 -39t-30 -52q-9 -30 5 -51q35 -84 146 -78q52 1 108 32q54 29 84 84l43 -18q-30 -67 -93 -108q-61 -39 -134 -44q-162 -6 -203 107q-30 84 27 152t190 69l4 262q-47 -107 -153 -173q-107 -67 -217 -68q-211 0 -338 115
t-127 319v594h61v-592q0 -182 108 -281q106 -98 287 -96q165 2 270 116t105 281v572h64z" />
    <glyph glyph-name="Wcircumflex" unicode="&#x174;" horiz-adv-x="2215" 
d="M586 -4l-496 1438h70l469 -1381l463 1381h32l459 -1381l475 1381h72l-504 -1438h-92l-240 725l-186 586l-188 -580l-244 -731h-90zM1137 1851l284 -268v-8h-71l-248 229l-246 -229h-72v8l285 268h68z" />
    <glyph glyph-name="wcircumflex" unicode="&#x175;" horiz-adv-x="1667" 
d="M457 0l-363 1012h70l323 -928l332 928h35l328 -928l321 928h70l-361 -1012h-65l-311 883l-314 -883h-65zM870 1430l279 -263v-8h-70l-241 225l-242 -225h-70v8l279 263h65z" />
    <glyph glyph-name="Ycircumflex" unicode="&#x176;" horiz-adv-x="1331" 
d="M633 0v569l-563 865h77l519 -803l516 803h78l-562 -865v-569h-65zM700 1851l285 -268v-8h-72l-247 229l-246 -229h-72v8l285 268h67z" />
    <glyph glyph-name="ycircumflex" unicode="&#x177;" horiz-adv-x="1083" 
d="M930 1012h69l-645 -1508h-67l215 508l-410 1000h68l377 -936zM578 1442l270 -254v-8h-68l-235 217l-234 -217h-67v8l270 254h64z" />
    <glyph glyph-name="Ydieresis" unicode="&#x178;" horiz-adv-x="1331" 
d="M633 0v569l-563 865h77l519 -803l516 803h78l-562 -865v-569h-65zM399 1628q0 35 29 50q28 15 57 0t29 -50t-29 -50t-57 0q-29 15 -29 50zM821 1628q0 35 29 50q28 15 57 0t29 -50t-29 -50t-57 0q-29 15 -29 50z" />
    <glyph glyph-name="Zacute" unicode="&#x179;" horiz-adv-x="1187" 
d="M115 1372v62h1003v-17l-971 -1354h971v-63h-1079v20l969 1352h-893zM604 1581h-61v6l155 238h80z" />
    <glyph glyph-name="zacute" unicode="&#x17a;" horiz-adv-x="917" 
d="M92 954v58h752v-19l-686 -934h684v-59h-781v18l684 936h-653zM465 1196h-57v6l143 234h74z" />
    <glyph glyph-name="Zdotaccent" unicode="&#x17b;" horiz-adv-x="1187" 
d="M115 1372v62h1003v-17l-971 -1354h971v-63h-1079v20l969 1352h-893zM547 1694q0 38 32 55q31 16 64 0q33 -17 33 -55q0 -42 -33 -58t-64 0q-32 17 -32 58z" />
    <glyph glyph-name="zdotaccent" unicode="&#x17c;" horiz-adv-x="917" 
d="M92 954v58h752v-19l-686 -934h684v-59h-781v18l684 936h-653zM426 1356q0 38 33 55q33 16 64 0q32 -17 32 -55q0 -41 -32 -58q-31 -16 -64 0t-33 58z" />
    <glyph glyph-name="Zcaron" unicode="&#x17d;" horiz-adv-x="1187" 
d="M608 1575l-284 268v8h71l248 -229l246 229h72v-8l-285 -268h-68zM115 1372v62h1003v-17l-971 -1354h971v-63h-1079v20l969 1352h-893z" />
    <glyph glyph-name="zcaron" unicode="&#x17e;" horiz-adv-x="917" 
d="M92 954v58h752v-19l-686 -934h684v-59h-781v18l684 936h-653zM453 1184l-254 241v7h63l223 -205l220 205h65v-7l-256 -241h-61z" />
    <glyph glyph-name="longs" unicode="&#x17f;" horiz-adv-x="559" 
d="M344 0h-61v950h-211v56h211v96q0 158 62 245q63 89 222 89q100 0 185 -68l-39 -45q-85 51 -156 51q-213 0 -213 -272v-1102z" />
    <glyph glyph-name="florin" unicode="&#x192;" horiz-adv-x="856" 
d="M406 0q0 -152 -47 -234t-189 -88q-101 0 -186 68l34 43q39 -29 70 -42q26 -11 82 -11q94 4 134 62t40 202v950h-238v60h238v108q0 152 60 236t217 86q112 0 192 -68l-37 -43q-68 51 -158 51q-108 0 -160 -58t-52 -204v-108h344v-60h-344v-950z" />
    <glyph glyph-name="Aringacute" unicode="&#x1fa;" horiz-adv-x="1495" 
d="M709 1782v6l141 162h74v-2l-158 -166h-57zM942 1561q0 -137 -135 -175l623 -1386h-78l-166 373h-879l-164 -373h-77l622 1389q-133 37 -133 170q0 68 40 111q41 44 97 53q60 9 114 -2q56 -12 96 -55t40 -105zM332 436h827l-411 936zM887 1561q0 67 -70 99q-69 32 -139 3
t-70 -104q0 -49 29 -84q28 -34 70 -42q41 -7 81 0q42 8 70 42q29 35 29 86z" />
    <glyph glyph-name="aringacute" unicode="&#x1fb;" 
d="M639 1520v6l145 178h72l-164 -184h-53zM1118 0h-61v129l12 145q-49 -139 -178 -214q-126 -74 -273 -72q-215 0 -363 142q-149 143 -149 376q0 231 147 375q146 143 361 143q153 0 284 -79q132 -80 171 -220l-12 164v123h61v-1012zM612 965q-189 0 -317 -125
q-127 -124 -127 -334q0 -209 131 -334t322 -125q216 0 327 134q111 133 111 335q0 191 -117 320t-330 129zM815 1282q0 76 -67 109t-136 2q-67 -30 -67 -113q0 -74 67 -105q68 -32 136 0q67 31 67 107zM866 1282q0 -66 -38 -110q-37 -43 -92 -54q-54 -10 -109 0t-93 54
t-38 108q0 68 38 112t92 53q56 9 109 -2q56 -12 93 -55q38 -44 38 -106z" />
    <glyph glyph-name="AEacute" unicode="&#x1fc;" horiz-adv-x="1863" 
d="M436 621l484 -3l2 762zM-23 0l906 1434h837v-60h-737v-618h690v-62h-690v-628h770v-66h-833v559h-517l-350 -559h-76zM993 1552h-61v7l155 237h80z" />
    <glyph glyph-name="aeacute" unicode="&#x1fd;" horiz-adv-x="2150" 
d="M1239 1438l-2 -2zM1268 1436l-162 -224h-53v9l141 215h74zM1116 0h-57v129l8 141q-50 -140 -177 -212t-272 -70q-215 0 -363 142q-149 143 -149 376q0 231 147 375q146 143 361 143q151 0 284 -80q132 -79 171 -221l-10 166v123h57v-254q60 124 174 195q115 71 262 71
q230 0 380 -138q151 -139 124 -411h-940q17 -208 140 -315q126 -109 298 -109q112 0 224 47q110 46 168 127l47 -35q-69 -95 -190 -147q-120 -51 -249 -51q-144 0 -260 67t-178 193v-252zM612 965q-189 0 -317 -125q-127 -124 -127 -334q0 -209 131 -334t322 -125
q212 0 326 129t114 328q-4 206 -120 334q-115 127 -329 127zM1116 532h885q6 208 -115 320q-122 113 -334 113q-181 0 -302 -115q-119 -113 -134 -318z" />
    <glyph glyph-name="Oslashacute" unicode="&#x1fe;" horiz-adv-x="1673" 
d="M834 1452q224 0 391 -100l121 200h73l-141 -235q135 -100 207 -260q71 -157 71 -340q-2 -199 -79 -361q-78 -163 -245 -270q-166 -106 -396 -106q-182 0 -326 67l-129 -213h-72l146 242q-164 96 -251 270t-87 375q0 136 43 262q44 129 127 234q84 107 225 171
q140 64 322 64zM182 719q0 -180 80 -338t227 -248l701 1163q-159 93 -356 93q-156 0 -286 -58q-128 -57 -206 -152q-79 -96 -119 -213q-41 -120 -41 -247zM1491 717q0 163 -64 308t-184 235l-698 -1156q128 -61 291 -61q305 0 481 200q175 199 174 474zM862 1614h-61v6
l155 238h80z" />
    <glyph glyph-name="oslashacute" unicode="&#x1ff;" horiz-adv-x="1236" 
d="M227 -104l105 172q-223 141 -223 436q0 239 148 383q147 143 364 143q139 0 251 -59l76 127h72l-96 -162q95 -67 151 -180q55 -111 55 -252q0 -238 -148 -377t-364 -139q-137 0 -235 49l-86 -141h-70zM362 119l476 799q-106 51 -220 51q-185 0 -318 -128
q-132 -127 -132 -337q0 -258 194 -385zM891 887l-473 -793q85 -41 200 -41q192 0 322 121q131 122 131 330q0 250 -180 383zM645 1208h-55v6l143 222h76z" />
    <glyph glyph-name="Scommaaccent" unicode="&#x218;" horiz-adv-x="1337" 
d="M1178 1237l-45 -45q-141 192 -461 192q-75 0 -144 -12q-63 -11 -148 -43q-78 -29 -127 -100q-48 -69 -48 -170q0 -59 26 -101q26 -43 63 -70q38 -29 108 -52q69 -23 126 -36q15 -4 37.5 -8.5t56 -11.5t58.5 -12q266 -57 360 -102q195 -94 195 -295q0 -91 -38 -164
t-94 -114q-57 -42 -134 -67q-81 -26 -147 -35q-69 -9 -142 -9q-171 0 -335 76q-165 76 -245 225l58 32q67 -129 220 -199q154 -71 302 -71q78 0 153 12q73 12 156 45q81 32 131 102q49 68 49 167q0 41 -8 78q-7 32 -33 63q-9 11 -23.5 27.5t-19.5 21.5q-17 20 -64 41
q-62 28 -68 31q-19 9 -83 25q-22 5 -48 12t-32 8q-4 1 -34 6.5t-56 11.5q-8 2 -21 5t-17 4q-264 58 -351 100q-172 85 -172 254q-2 110 47 188q50 81 133 122q87 44 173 61q89 18 182 18q332 0 504 -211zM625 -473l61 151q-35 11 -35 50q0 35 29 50q30 16 56 1
q28 -16 28 -51q0 -15 -16 -54l-64 -147h-59z" />
    <glyph glyph-name="scommaaccent" unicode="&#x219;" horiz-adv-x="1030" 
d="M442 -473l62 151q-35 11 -35 50q0 34 28 50t56 1q29 -15 29 -51q0 -12 -17 -54l-63 -147h-60zM895 891l-39 -43q-127 121 -336 121q-146 0 -240 -51q-96 -52 -96 -160q0 -40 19 -73q19 -32 39 -50q23 -20 65 -35q41 -15 69 -22q34 -9 80 -17q62 -11 66 -12q4 0 12 -1.5
t22.5 -4t25.5 -4.5q12 -2 64 -14t61 -14q41 -9 61 -19l52 -26q30 -14 48 -34q19 -21 35 -42q19 -25 26 -55q7 -29 7 -69q0 -76 -37 -132q-37 -57 -99 -86q-60 -29 -131 -44q-64 -14 -145 -14q-142 0 -262 55q-121 55 -174 152l49 34q61 -91 167 -138q104 -46 222 -46
q56 0 110 9t112 32t92 69t34 111q0 130 -161 181q-49 14 -203 43q-76 13 -99 19q-11 3 -39.5 10.5t-46.5 12.5q-58 15 -84 31q-34 21 -60 43q-31 27 -45 65q-13 36 -13 85q0 132 115 200t282 68q231 0 375 -135z" />
    <glyph glyph-name="uni021A" unicode="&#x21a;" horiz-adv-x="1202" 
d="M516 -473l62 151q-35 11 -35 50q0 35 27 50q29 16 57 1t28 -51q0 -15 -16 -54l-64 -147h-59zM31 1370v64h1140v-64h-538v-1370h-66v1370h-536z" />
    <glyph glyph-name="uni021B" unicode="&#x21b;" horiz-adv-x="772" 
d="M297 1317l61 6v-311h361v-54h-361v-657q0 -129 39 -193q39 -65 162 -65q80 0 182 51l27 -51q-108 -57 -205 -57q-151 1 -209 79q-57 77 -57 236v657h-221v54h221v305zM420 -477l61 151q-35 11 -35 50q0 35 29 50q30 16 56 1q28 -16 28 -51q0 -15 -16 -54l-64 -147h-59z
" />
    <glyph glyph-name="dotlessj" unicode="&#x237;" horiz-adv-x="409" 
d="M174 1014h62v-1180q1 -68 -7 -127q-8 -54 -33 -103q-26 -50 -79 -76q-54 -26 -135 -26q-85 0 -179 49l21 56q74 -45 162 -45q65 0 102 20q39 21 57 64q20 48 24 84q5 45 5 104v1180z" />
    <glyph glyph-name="circumflex" unicode="&#x2c6;" horiz-adv-x="860" 
d="M438 1430l285 -269v-8h-72l-248 229l-245 -229h-72v8l285 269h67z" />
    <glyph glyph-name="caron" unicode="&#x2c7;" horiz-adv-x="827" 
d="M369 1159l-285 268v9h72l247 -230l246 230h72v-9l-285 -268h-67z" />
    <glyph glyph-name="breve" unicode="&#x2d8;" horiz-adv-x="663" 
d="M557 1434q-2 -97 -71 -151q-70 -55 -162 -56q-97 -2 -168 53q-72 55 -76 154h51q0 -76 57 -117t136 -39q71 1 126 43q54 41 56 113h51z" />
    <glyph glyph-name="dotaccent" unicode="&#x2d9;" horiz-adv-x="425" 
d="M137 1380q0 39 32 56q31 16 64 0t33 -56t-32 -57q-31 -16 -64 0q-33 17 -33 57z" />
    <glyph glyph-name="ring" unicode="&#x2da;" horiz-adv-x="579" 
d="M414 1294q0 84 -71 120q-70 36 -141 1t-71 -123q0 -48 29 -83t70 -42q42 -7 84 0q43 8 71 42q29 35 29 85zM467 1294q0 -72 -40 -119q-41 -48 -97 -60q-57 -12 -114 0q-55 12 -96 60q-40 47 -40 117q0 74 40 123q41 50 97 59q54 9 114 -4q55 -12 96 -60q40 -47 40 -116z
" />
    <glyph glyph-name="ogonek" unicode="&#x2db;" horiz-adv-x="847" 
d="M485 -12l31 -54q-84 15 -142 3q-59 -12 -80 -41q-23 -31 -31 -63q-9 -34 7 -62q39 -88 146 -82q52 1 107 32q54 30 83 84l51 -22q-29 -66 -94 -105q-65 -38 -139 -43q-156 -7 -205 109q-41 99 38 179q80 81 228 65z" />
    <glyph glyph-name="tilde" unicode="&#x2dc;" horiz-adv-x="628" 
d="M274 1417l86 -47q109 -58 144 55l43 -16q-21 -82 -76 -106q-57 -24 -137 18l-86 47q-111 62 -144 -49l-43 16q21 78 76 102q54 24 137 -20z" />
    <glyph glyph-name="hungarumlaut" unicode="&#x2dd;" horiz-adv-x="677" 
d="M141 1231h-63l135 205h78zM393 1231h-63l135 205h78z" />
    <glyph glyph-name="commaaccentcomb" unicode="&#x326;" horiz-adv-x="575" 
d="M147 -410l62 140q-33 21 -33 55q0 35 29 50q30 16 56 1q28 -16 28 -49l-80 -205q1 3 2 8h-64z" />
    <glyph glyph-name="_375" unicode="&#x394;" horiz-adv-x="1419" 
d="M719 1434l672 -1434h-1407l667 1434h68zM686 1364l-606 -1303h1212z" />
    <glyph glyph-name="Omega" unicode="&#x3a9;" horiz-adv-x="1685" 
d="M184 0v55h328q-187 74 -287 255t-100 405q0 146 43 275q44 133 128 236q87 107 225 167q140 61 321 61t321 -61q141 -62 227 -167q84 -103 128 -236q43 -129 43 -275q0 -223 -102 -405t-288 -255h330v-55h-497v55q235 45 361 231q125 185 130 427q2 290 -170 484
q-173 196 -483 196q-309 0 -482 -196q-172 -194 -170 -484q4 -239 133 -426q128 -187 363 -232v-55h-502z" />
    <glyph glyph-name="mu" unicode="&#x3bc;" horiz-adv-x="1210" 
d="M1079 0h-57l2 240q-45 -122 -156 -189q-109 -67 -237 -65q-120 0 -233 64t-152 171v-690h-56v1483h60v-598q0 -172 112 -271q112 -98 269 -100q160 -2 273 100q114 102 114 304v565h61v-1014z" />
    <glyph glyph-name="pi" unicode="&#x3c0;" horiz-adv-x="1341" 
d="M348 0h-61v961h-258v51h1257v-51h-270v-691q0 -130 47 -185q47 -54 182 -36l-6 -53q-145 -26 -216 42.5t-69 233.5v689h-606v-961z" />
    <glyph glyph-name="Wgrave" unicode="&#x1e80;" horiz-adv-x="2215" 
d="M586 -4l-496 1438h70l469 -1381l463 1381h32l459 -1381l475 1381h72l-504 -1438h-92l-240 725l-186 586l-188 -580l-244 -731h-90zM1151 1606h-61l-175 243h80l156 -237v-6z" />
    <glyph glyph-name="wgrave" unicode="&#x1e81;" horiz-adv-x="1667" 
d="M877 1210h-60l-162 230h74l148 -223v-7zM457 0l-363 1012h70l323 -928l332 928h35l328 -928l321 928h70l-361 -1012h-65l-311 883l-314 -883h-65z" />
    <glyph glyph-name="Wacute" unicode="&#x1e82;" horiz-adv-x="2215" 
d="M586 -4l-496 1438h70l469 -1381l463 1381h32l459 -1381l475 1381h72l-504 -1438h-92l-240 725l-186 586l-188 -580l-244 -731h-90zM1133 1604h-62v6l156 237h80z" />
    <glyph glyph-name="wacute" unicode="&#x1e83;" horiz-adv-x="1667" 
d="M850 1217h-55v6l143 221h76zM457 0l-363 1012h70l323 -928l332 928h35l328 -928l321 928h70l-361 -1012h-65l-311 883l-314 -883h-65z" />
    <glyph glyph-name="Wdieresis" unicode="&#x1e84;" horiz-adv-x="2215" 
d="M586 -4l-496 1438h70l469 -1381l463 1381h32l459 -1381l475 1381h72l-504 -1438h-92l-240 725l-186 586l-188 -580l-244 -731h-90zM838 1718q0 35 28 50q29 15 58 0q28 -15 28 -50t-28 -50q-29 -15 -58 0q-28 15 -28 50zM1260 1718q0 35 28 50q29 15 58 0q28 -15 28 -50
t-28 -50q-29 -15 -58 0q-28 15 -28 50z" />
    <glyph glyph-name="wdieresis" unicode="&#x1e85;" horiz-adv-x="1667" 
d="M457 0l-363 1012h70l323 -928l332 928h35l328 -928l321 928h70l-361 -1012h-65l-311 883l-314 -883h-65zM567 1362q0 35 29 50q28 15 57 0t29 -50t-29 -50t-57 0q-29 15 -29 50zM989 1362q0 35 29 50q28 15 57 0t29 -50t-29 -50t-57 0q-29 15 -29 50z" />
    <glyph glyph-name="Ygrave" unicode="&#x1ef2;" horiz-adv-x="1331" 
d="M633 0v569l-563 865h77l519 -803l516 803h78l-562 -865v-569h-65zM715 1559h-62l-174 243h80l156 -237v-6z" />
    <glyph glyph-name="ygrave" unicode="&#x1ef3;" horiz-adv-x="1083" 
d="M930 1012h69l-645 -1508h-67l215 508l-410 1000h68l377 -936zM590 1204h-58l-159 226h73l144 -220v-6z" />
    <glyph glyph-name="endash" unicode="&#x2013;" horiz-adv-x="1212" 
d="M156 559v62h901v-62h-901z" />
    <glyph glyph-name="emdash" unicode="&#x2014;" horiz-adv-x="1437" 
d="M156 559v62h1126v-62h-1126z" />
    <glyph glyph-name="quoteleft" unicode="&#x2018;" horiz-adv-x="395" 
d="M229 1436h60l-90 -303h-72z" />
    <glyph glyph-name="quoteright" unicode="&#x2019;" horiz-adv-x="393" 
d="M188 1133h-59l90 303h72z" />
    <glyph glyph-name="quotesinglbase" unicode="&#x201a;" horiz-adv-x="413" 
d="M141 -215h-53l90 317h72z" />
    <glyph glyph-name="quotedblleft" unicode="&#x201c;" horiz-adv-x="612" 
d="M446 1436h60l-90 -303h-72zM229 1436h60l-90 -303h-72z" />
    <glyph glyph-name="quotedblright" unicode="&#x201d;" horiz-adv-x="610" 
d="M188 1133h-59l90 303h72zM406 1133h-60l90 303h72z" />
    <glyph glyph-name="quotedblbase" unicode="&#x201e;" horiz-adv-x="620" 
d="M141 -215h-53l90 317h72zM348 -215h-53l90 317h72z" />
    <glyph glyph-name="dagger" unicode="&#x2020;" horiz-adv-x="1105" 
d="M1034 1026v-53h-452v-1252h-58v1252h-452v53h452v420h58v-420h452z" />
    <glyph glyph-name="daggerdbl" unicode="&#x2021;" horiz-adv-x="1212" 
d="M1087 1024v-55h-452v-617h452v-55h-452v-571h-57v571h-453v55h453v617h-453v55h453v410h57v-410h452z" />
    <glyph glyph-name="bullet" unicode="&#x2022;" horiz-adv-x="751" 
d="M379 418q-76 0 -126 47t-50 123q0 78 50 125t126 47q71 0 121 -48q49 -48 49 -124q0 -77 -49 -123q-50 -47 -121 -47z" />
    <glyph glyph-name="ellipsis" unicode="&#x2026;" horiz-adv-x="983" 
d="M154 45q0 34 27 49q28 15 57 0q28 -15 28 -49q0 -35 -28 -50q-29 -15 -57 0q-27 15 -27 50zM438 45q0 34 29 49t56 0q28 -16 28 -49q0 -34 -28 -50q-27 -15 -56 0t-29 50zM717 45q0 34 28 49q29 15 57 0q27 -15 27 -49q0 -35 -27 -50q-28 -15 -57 0q-28 15 -28 50z" />
    <glyph glyph-name="perthousand" unicode="&#x2030;" horiz-adv-x="2197" 
d="M244 0l905 1438h70l-906 -1438h-69zM1071 586q117 0 198 -63t99 -150q18 -88 0 -176t-99 -151q-80 -62 -198 -62q-86 0 -150 32q-66 33 -101 86q-32 49 -50 118q-16 64 0 129q18 69 50 118q35 53 101 86t150 33zM1071 532q-94 0 -158 -50q-63 -49 -78 -123
q-15 -73 0 -145q15 -74 79 -123q65 -50 159 -50t158 50t79 123q15 72 0 145t-80 123t-159 50zM1815 586q116 0 197 -63t99 -150q18 -88 0 -176t-99 -151q-80 -62 -197 -62q-87 0 -151 32q-65 32 -100 86q-34 52 -51 118q-17 64 0 129q17 66 51 118q35 54 100 86
q66 33 151 33zM1815 532q-94 0 -158 -50t-79 -123q-15 -72 0 -145t80 -123t159 -50q93 0 157 50t79 123q15 72 0 145t-80 123t-158 50zM393 1440q117 0 198 -63t99 -150q18 -88 0 -176t-99 -151q-80 -62 -198 -62q-98 0 -170 45q-71 44 -104 111q-33 66 -33 145q0 78 33 144
q34 68 104 112q72 45 170 45zM393 1386q-93 0 -157 -50t-79 -123t0 -145q15 -73 80 -123t158 -50q94 0 158 50t79 123q15 72 0 145t-80 123t-159 50z" />
    <glyph glyph-name="guilsinglleft" unicode="&#x2039;" horiz-adv-x="577" 
d="M393 164l-282 450l282 447h68l-275 -447l275 -450h-68z" />
    <glyph glyph-name="guilsinglright" unicode="&#x203a;" horiz-adv-x="573" 
d="M117 154l274 448l-274 449h67l281 -449l-281 -448h-67z" />
    <glyph glyph-name="fraction" unicode="&#x2044;" horiz-adv-x="286" 
d="M-199 -4h-65l751 1442h68z" />
    <glyph glyph-name="zerosuperior" unicode="&#x2070;" horiz-adv-x="759" 
d="M92 1223v104q0 154 78 238t207 84q132 0 211 -82q80 -83 80 -240v-104q0 -87 -32 -156q-31 -66 -83 -103q-52 -36 -112 -53t-122 0q-60 16 -112 53t-83 103q-32 69 -32 156zM154 1329v-106q0 -96 47 -163q47 -66 113 -83q67 -17 132 -2q67 15 113 82q47 68 47 166v106
q0 129 -63 195q-62 65 -168 65q-101 0 -161 -67q-60 -68 -60 -193z" />
    <glyph glyph-name="foursuperior" unicode="&#x2074;" horiz-adv-x="688" 
d="M442 1642h76v-481h98v-59h-98v-182h-61v182h-396l-12 43zM135 1161h322v408z" />
    <glyph glyph-name="fivesuperior" unicode="&#x2075;" horiz-adv-x="718" 
d="M170 1362h184q149 0 218 -60t69 -159t-70 -166q-69 -66 -217 -66q-108 0 -185 45q-78 46 -79 156h60q-2 -79 57 -111q58 -32 149 -32q124 0 173 51q51 53 51 121q0 63 -51 114q-50 50 -175 50h-243v337h493v-59h-434v-221z" />
    <glyph glyph-name="sixsuperior" unicode="&#x2076;" horiz-adv-x="745" 
d="M168 1421v-170q35 47 96 74q62 27 125 27q112 0 194 -58q81 -57 81 -168q0 -109 -80 -165t-193 -56q-118 0 -201 56q-81 54 -81 167v293q0 118 77 174q79 58 193 58q113 0 186 -45q75 -46 82 -133h-59q-4 54 -58 88q-51 32 -151 32q-97 0 -154 -45t-57 -129zM391 965
q79 0 146 41q65 40 65 120q0 88 -65 128t-148 40q-75 0 -144 -45q-70 -45 -71 -121q0 -82 67 -123q65 -40 150 -40z" />
    <glyph glyph-name="sevensuperior" unicode="&#x2077;" horiz-adv-x="624" 
d="M57 1583v59h523l8 -36l-389 -686h-70l381 663h-453z" />
    <glyph glyph-name="eightsuperior" unicode="&#x2078;" horiz-adv-x="768" 
d="M90 1102q0 79 49 125t123 61q-67 15 -112 57q-46 43 -46 111q0 99 83 147q82 48 198 48t199 -47q82 -46 82 -148q0 -71 -41 -109t-117 -59q72 -12 121 -61t49 -123q0 -109 -89 -159t-204 -50q-116 0 -204 49q-90 50 -91 158zM602 1456q0 137 -217 137q-86 0 -152 -30
q-65 -30 -65 -107q-1 -69 64 -103t153 -34q86 0 151 34q66 35 66 103zM614 1104q0 80 -70 117q-68 36 -161 36q-88 0 -158 -38q-71 -38 -71 -117q0 -57 47 -93t93 -45q52 -10 91 -10q40 0 90 10q46 9 92 45q47 36 47 95z" />
    <glyph glyph-name="ninesuperior" unicode="&#x2079;" horiz-adv-x="745" 
d="M578 1137v170q-35 -47 -97 -74t-125 -27q-113 0 -193 57q-79 57 -79 169q0 101 81 161t189 60q118 0 201 -56q82 -55 82 -167v-293q0 -117 -81 -174q-82 -58 -196 -58q-113 0 -185 45q-74 46 -81 133h60q5 -56 56 -88t150 -32q97 0 157 45q61 46 61 129zM354 1593
q-82 0 -145 -39q-64 -40 -64 -122q0 -92 64 -130t147 -38q76 0 145 45t70 121q0 88 -65 125q-67 38 -152 38z" />
    <glyph glyph-name="zeroinferior" unicode="&#x2080;" horiz-adv-x="763" 
d="M94 131v105q0 153 78 237t207 84q132 0 211 -82q80 -83 80 -239v-105q0 -87 -32 -156q-31 -66 -83 -103q-50 -35 -113 -52q-61 -16 -121 0q-63 17 -112 52q-52 37 -83 103q-32 69 -32 156zM156 238v-107q0 -96 47 -163q47 -66 113 -83q68 -17 133 -2q66 15 112 82
q47 68 47 166v107q0 128 -63 194t-168 66q-101 0 -161 -68t-60 -192z" />
    <glyph glyph-name="oneinferior" unicode="&#x2081;" horiz-adv-x="450" 
d="M74 -180v57h129v588l-115 -25v58l176 41v-662h133v-57h-323z" />
    <glyph glyph-name="twoinferior" unicode="&#x2082;" horiz-adv-x="716" 
d="M625 -180h-535v155q0 104 74 163t205 59q104 0 149 29q47 30 47 116q0 154 -203 154q-88 0 -146 -32q-56 -31 -54 -124h-62q0 215 262 215q106 0 185 -49q80 -50 80 -164q0 -201 -258 -201q-217 0 -217 -164v-98h473v-59z" />
    <glyph glyph-name="threeinferior" unicode="&#x2083;" horiz-adv-x="710" 
d="M160 356l-62 2q6 100 75 147q68 46 175 46q111 0 184 -49q74 -50 74 -144q0 -58 -37 -101t-90 -58q60 -21 101 -68t41 -111q0 -110 -78 -159q-77 -49 -195 -49q-113 0 -189 50q-74 49 -79 161h61q0 -46 23 -80t59 -48q44 -18 67 -21q33 -5 58 -5q207 0 209 154
q0 67 -61 106t-140 39h-112v59h108q66 0 130 35q63 34 63 98q0 62 -53 97t-144 35q-183 0 -188 -136z" />
    <glyph glyph-name="fourinferior" unicode="&#x2084;" horiz-adv-x="688" 
d="M442 543h76v-482h100v-59h-100v-182h-61v182h-396l-12 43zM131 61h326v404z" />
    <glyph glyph-name="fiveinferior" unicode="&#x2085;" horiz-adv-x="714" 
d="M168 262h184q149 0 218 -60t69 -159t-70 -166q-68 -65 -217 -65q-108 0 -185 45q-78 46 -79 155h59q-1 -77 58 -110q60 -33 149 -33q124 0 173 51q51 53 51 121q0 64 -51 115q-49 49 -175 49h-243v338h493v-60h-434v-221z" />
    <glyph glyph-name="sixinferior" unicode="&#x2086;" horiz-adv-x="743" 
d="M166 328v-170q34 46 96 73t125 27q113 0 194 -57t81 -168q0 -110 -80 -166q-79 -55 -193 -55q-119 0 -201 55t-82 168v293q0 117 78 174t193 57q113 0 186 -45q75 -46 82 -133h-59q-4 54 -58 88q-52 33 -151 33q-97 0 -154 -45t-57 -129zM389 -129q79 0 146 41
q65 40 65 121q0 88 -65 128t-148 40q-75 0 -144 -45q-70 -45 -71 -121q0 -83 67 -124q65 -40 150 -40z" />
    <glyph glyph-name="seveninferior" unicode="&#x2087;" horiz-adv-x="626" 
d="M59 483v60h523l8 -37l-389 -686h-70l381 663h-453z" />
    <glyph glyph-name="eightinferior" unicode="&#x2088;" horiz-adv-x="765" 
d="M88 16q0 79 49 125q50 47 123 62q-70 15 -113 56q-45 42 -45 112q0 95 86 145q85 49 195 49q109 0 195 -47t86 -147q0 -72 -41 -110q-40 -37 -117 -58q71 -12 121 -62q49 -49 49 -123q0 -108 -89 -158t-204 -50q-116 0 -204 49q-90 50 -91 157zM600 371q0 75 -68 105
q-67 30 -149 30q-80 0 -149 -30q-68 -30 -68 -105q-2 -70 64 -104q65 -34 153 -34q86 0 151 34q66 35 66 104zM612 18q0 80 -70 117t-161 37q-86 0 -158 -39q-71 -38 -71 -117q0 -57 47 -93t93 -45t91 -9t90 9q46 9 92 45q47 36 47 95z" />
    <glyph glyph-name="nineinferior" unicode="&#x2089;" horiz-adv-x="745" 
d="M575 47v170q-35 -47 -96 -74q-59 -26 -125 -26q-115 0 -193 56q-79 57 -79 169q0 102 81 162q80 59 189 59q119 0 201 -55t82 -168v-293q0 -117 -78 -174t-192 -57q-113 0 -187 45q-75 46 -82 133h60q4 -55 57 -88t152 -33q96 0 153 45t57 129zM352 504q-82 0 -145 -39
q-64 -40 -64 -123q0 -92 64 -130t147 -38q76 0 145 45t70 121q0 89 -65 126q-67 38 -152 38z" />
    <glyph glyph-name="Euro" unicode="&#x20ac;" horiz-adv-x="1282" 
d="M90 803v61h148q41 258 224 422q184 164 496 164q93 0 172 -20l-10 -60q-84 19 -162 19q-280 0 -448 -145q-166 -143 -205 -380h596l-16 -61h-588q-4 -27 -4 -92q0 -52 6 -97h571l-18 -61h-545q44 -229 205 -366q162 -138 438 -138q107 0 221 41l15 -59q-120 -43 -236 -43
q-309 0 -486 155q-179 156 -224 410h-150v61h141q-4 55 -4 95q0 67 4 94h-141z" />
    <glyph glyph-name="afii61289" unicode="&#x2113;" horiz-adv-x="757" 
d="M340 496v-195q0 -272 274 -199v-77q-174 -60 -283 10q-108 69 -108 262v133l-100 -49l-29 80q76 31 127 61v629q0 153 65 233t187 80q124 0 170 -98q47 -99 39 -252q-12 -184 -94 -323q-83 -140 -248 -295zM332 1151v-543q258 225 258 516q4 252 -117 252
q-141 0 -141 -225z" />
    <glyph glyph-name="uni2117" unicode="&#x2117;" horiz-adv-x="1724" 
d="M862 1458q344 0 542 -214t198 -533t-198 -533q-198 -215 -542 -215q-342 0 -540 215q-199 216 -199 533q0 319 198 533t541 214zM195 711q0 -294 179 -490q178 -194 488 -194q311 0 490 194q180 195 180 490q0 297 -180 492q-181 196 -490 196t-488 -196t-179 -492z
M686 598h268q103 0 169 51t81 124q15 72 -2 146q-17 72 -82 123q-67 52 -157 52h-347v-789h70v293zM686 662v362h277q70 0 117 -37q49 -38 59 -90t-2 -107q-12 -54 -62 -92q-48 -36 -121 -36h-268z" />
    <glyph glyph-name="trademark" unicode="&#x2122;" horiz-adv-x="1599" 
d="M367 866v514h-240v54h543v-54h-246v-514h-57zM811 866v568h51l254 -334l262 334h41v-568h-61v449l-238 -295h-12l-238 305v-459h-59z" />
    <glyph glyph-name="estimated" unicode="&#x212e;" horiz-adv-x="1341" 
d="M1077 272l76 -59q-89 -125 -201 -176t-264 -51q-237 0 -393 159t-156 447q0 289 155 449q154 159 392 159q118 0 218 -35q98 -34 178 -108q79 -73 117 -206q39 -136 24 -312h-824v-349q119 -108 289 -108q256 0 389 190zM987 629v391q-114 90 -301 90q-184 0 -295 -96
v-385h596z" />
    <glyph glyph-name="uni2153" unicode="&#x2153;" horiz-adv-x="1472" 
d="M330 -4h-68l754 1442h67zM104 735v56h132v577l-115 -25v56l176 41v-649h139v-56h-332zM922 541l-62 2q6 99 75 146q68 46 175 46q111 0 184 -49q74 -50 74 -143q0 -59 -37 -102t-90 -58q59 -21 100 -68t41 -110q0 -111 -77 -160t-195 -49q-113 0 -189 50q-74 49 -79 161
h61q0 -46 23 -80t59 -48q44 -18 67 -21q33 -5 58 -5q207 0 209 154q0 67 -62 106t-139 39h-112v60h108q68 0 130 34q63 34 63 99q0 61 -54 96q-55 35 -143 35q-184 0 -188 -135z" />
    <glyph glyph-name="uni2154" unicode="&#x2154;" horiz-adv-x="1640" 
d="M498 -4h-68l754 1442h67zM1090 541l-62 2q6 99 75 146q68 46 175 46q111 0 184 -49q74 -50 74 -143q0 -59 -37 -102t-90 -58q59 -21 100 -68t41 -110q0 -111 -77 -160t-195 -49q-113 0 -189 50q-74 49 -79 161h61q0 -46 23 -80t59 -48q44 -18 67 -21q33 -5 58 -5
q207 0 209 154q0 67 -62 106t-139 39h-112v60h108q68 0 130 34q63 34 63 99q0 61 -54 96q-55 35 -143 35q-184 0 -188 -135zM627 717h-516v155q0 105 73 163q74 59 205 59q105 0 150 29q47 30 47 116q0 154 -203 154q-88 0 -146 -32q-57 -31 -55 -124h-61q0 215 262 215
q105 0 184 -49q80 -50 80 -164q0 -201 -258 -201q-217 0 -217 -164v-98h455v-59z" />
    <glyph glyph-name="oneeighth" unicode="&#x215b;" horiz-adv-x="1548" 
d="M330 -4h-68l754 1442h67zM104 735v56h132v577l-115 -25v56l176 41v-649h139v-56h-332zM868 201q0 78 50 125q49 46 122 61q-68 15 -112 56q-45 42 -45 112q0 95 86 145t194 50q107 0 195 -48q86 -47 86 -147q0 -72 -41 -110q-40 -37 -117 -58q72 -12 121 -61t49 -123
q0 -109 -89 -159t-204 -50q-116 0 -204 49q-90 50 -91 158zM1380 555q0 75 -67 105t-150 30q-79 0 -148 -30t-69 -105q-1 -68 65 -103q65 -34 152 -34q86 0 151 34q66 34 66 103zM1393 203q0 78 -71 116q-70 37 -161 37q-85 0 -157 -39t-72 -116q0 -57 47 -93q48 -37 93 -46
q46 -9 91 -9t90 9t93 46q47 36 47 95z" />
    <glyph glyph-name="threeeighths" unicode="&#x215c;" horiz-adv-x="1685" 
d="M467 -4h-68l754 1442h68zM1006 201q0 79 49 125t123 61q-70 15 -113 56q-45 42 -45 112q0 95 86 145t194 50q107 0 195 -48q86 -47 86 -147q0 -72 -41 -110q-40 -37 -117 -58q72 -12 121 -61t49 -123q0 -109 -89 -159t-204 -50t-203 49q-90 50 -91 158zM1518 555
q0 75 -68 105t-150 30q-79 0 -148 -30t-69 -105q-1 -68 65 -103q65 -34 152 -34q86 0 151 34q67 35 67 103zM1530 203q0 78 -71 116q-70 37 -161 37q-85 0 -157 -39t-72 -116q0 -57 47 -93q48 -37 93 -46q47 -9 91 -9q46 0 91 9q44 9 92 46q47 36 47 95zM176 1247l-61 2
q6 101 74 147t176 46q111 0 184 -49q74 -50 74 -144q0 -58 -37 -101t-90 -58q59 -21 100 -68t41 -111q0 -109 -78 -159q-79 -50 -194 -50q-113 0 -190 51q-75 49 -79 160h62q0 -47 22 -79q23 -34 60 -49q40 -16 66 -20q33 -5 59 -5q207 0 208 153q0 68 -61 107t-139 39h-113
v59h109q66 0 130 35q62 34 62 98q0 62 -53 97q-53 34 -143 34q-185 0 -189 -135z" />
    <glyph glyph-name="fiveeighths" unicode="&#x215d;" horiz-adv-x="1693" 
d="M475 -4h-67l753 1442h68zM1014 201q0 79 49 125t123 61q-70 15 -113 56q-45 42 -45 112q0 95 86 145t195 50q106 0 194 -48q86 -47 86 -147q0 -72 -41 -110q-40 -37 -116 -58q71 -12 120 -61q50 -50 50 -123q0 -109 -90 -159q-89 -50 -203 -50q-116 0 -204 49
q-90 50 -91 158zM1526 555q0 75 -68 105t-149 30q-80 0 -149 -30q-68 -30 -68 -105q-1 -69 64 -103t153 -34q85 0 150 34q67 35 67 103zM1538 203q0 78 -71 116q-70 37 -160 37q-86 0 -158 -39t-72 -116q0 -57 47 -93q48 -37 94 -46t91 -9t90 9q44 9 92 46q47 36 47 95z
M180 1155h185q149 0 218 -60q68 -59 68 -159t-69 -166q-68 -65 -217 -65q-109 0 -186 45q-78 46 -79 155h60q-1 -78 57 -110q60 -33 150 -33q123 0 173 51q50 52 50 121q0 65 -50 115q-49 49 -175 49h-244v338h493v-60h-434v-221z" />
    <glyph glyph-name="seveneighths" unicode="&#x215e;" horiz-adv-x="1540" 
d="M299 -4h-68l754 1442h68zM862 201q0 79 49 125t123 61q-68 15 -112 56q-45 42 -45 112q0 95 86 145t194 50q107 0 195 -48q86 -47 86 -147q0 -72 -41 -110q-40 -37 -117 -58q72 -12 121 -61t49 -123q0 -109 -89 -159t-204 -50q-116 0 -204 49q-90 50 -91 158zM1374 555
q0 75 -67 105t-150 30q-79 0 -148 -30t-69 -105q-1 -68 65 -103q65 -34 152 -34q86 0 151 34q66 34 66 103zM1386 203q0 79 -70 116t-161 37q-86 0 -158 -39q-71 -38 -71 -116q0 -57 47 -93q48 -37 93 -46q46 -9 91 -9t90 9q44 9 92 46q47 36 47 95zM82 1376v60h522l8 -37
l-389 -686h-69l381 663h-453z" />
    <glyph glyph-name="arrowleft" unicode="&#x2190;" horiz-adv-x="1351" 
d="M539 299l-420 420l420 420l41 -41l-338 -344h948v-70h-946l338 -342z" />
    <glyph glyph-name="arrowup" unicode="&#x2191;" horiz-adv-x="978" 
d="M70 831l419 420l420 -420l-39 -40l-346 337v-948h-69v946l-342 -338z" />
    <glyph glyph-name="arrowright" unicode="&#x2192;" horiz-adv-x="1351" 
d="M813 1139l420 -420l-420 -420l-41 41l338 344h-948v72h944l-336 340z" />
    <glyph glyph-name="arrowdown" unicode="&#x2193;" horiz-adv-x="983" 
d="M911 580l-419 -420l-420 420l41 41l344 -338v948h71v-944l340 336z" />
    <glyph glyph-name="uni2196" unicode="&#x2196;" horiz-adv-x="1021" 
d="M143 506v596h592v-66h-479l670 -669l-52 -52l-669 670v-479h-62z" />
    <glyph glyph-name="uni2197" unicode="&#x2197;" horiz-adv-x="1021" 
d="M879 1102v-596h-66v479l-668 -670l-49 52l668 671h-481v64h596z" />
    <glyph glyph-name="uni2198" unicode="&#x2198;" horiz-adv-x="1024" 
d="M842 934v-596h-594v65h481l-670 670l52 49l669 -669v481h62z" />
    <glyph glyph-name="uni2199" unicode="&#x2199;" horiz-adv-x="1024" 
d="M182 338v596h64v-481l667 669l52 -49l-670 -672h483v-63h-596z" />
    <glyph glyph-name="partialdiff" unicode="&#x2202;" horiz-adv-x="1261" 
d="M1149 522q4 -240 -139 -389t-385 -149q-246 0 -382 149q-137 151 -137 359q0 210 137 364q138 155 384 156q145 0 264 -69t174 -181q-78 224 -239 382q-163 160 -377 232l24 56q311 -124 491 -357q179 -232 185 -553zM625 43q217 0 339 134q121 133 121 317
q0 186 -122 321q-123 137 -338 137t-336 -136t-121 -322q0 -190 120 -321q120 -130 337 -130z" />
    <glyph glyph-name="increment" unicode="&#x2206;" horiz-adv-x="1482" 
d="M780 1434l643 -1434h-1364l643 1434h78zM739 1374l-577 -1315h1159z" />
    <glyph glyph-name="product" unicode="&#x220f;" horiz-adv-x="1396" 
d="M1188 -383h-72v1753h-835v-1753h-72v1817h979v-1817z" />
    <glyph glyph-name="summation" unicode="&#x2211;" horiz-adv-x="1175" 
d="M659 754l-481 -691h881v-63h-985v20l512 736l-471 661v17h932v-62h-826z" />
    <glyph glyph-name="minus" unicode="&#x2212;" horiz-adv-x="1087" 
d="M164 692v62h760v-62h-760z" />
    <glyph glyph-name="uni2215" unicode="&#x2215;" horiz-adv-x="821" 
d="M70 -4h-66l752 1442h67z" />
    <glyph glyph-name="uni2219" unicode="&#x2219;" horiz-adv-x="434" 
d="M156 633q0 39 30 54q31 15 62 0t31 -54t-31 -54t-62 0q-30 15 -30 54z" />
    <glyph glyph-name="radical" unicode="&#x221a;" horiz-adv-x="1243" 
d="M1210 1436l-497 -1436h-68l-360 782l-207 -92l-21 55l267 117l352 -794l479 1384z" />
    <glyph glyph-name="infinity" unicode="&#x221e;" horiz-adv-x="1669" 
d="M465 354q-157 0 -246 92q-88 90 -86 222q1 128 92 225q90 96 248 96q57 0 110 -21q50 -20 103 -70q54 -51 80 -81q36 -42 80 -96q65 83 107 127q44 47 117 91t142 44q158 0 245 -88q87 -89 87 -217q0 -130 -86 -227t-246 -97q-75 0 -146 46q-76 49 -113 89t-109 132
q-98 -122 -188 -195q-88 -72 -191 -72zM463 414q21 0 48 5q24 5 42 12q19 8 42 25q7 5 20 14.5t18 13.5q15 12 42 39q32 32 41 42q4 4 10.5 11t17 18.5t19.5 21.5q13 15 29.5 33t18.5 21q-111 139 -181 196q-72 58 -161 58q-127 0 -198 -74q-70 -73 -70 -180
q0 -244 262 -256zM1210 414q135 5 206 80q73 78 69 184q-1 108 -73 176q-71 68 -200 68q-76 0 -132 -37t-124 -120q-72 -88 -77 -93q15 -16 86 -98q55 -64 82 -89q25 -24 69 -47q45 -24 94 -24z" />
    <glyph glyph-name="integral" unicode="&#x222b;" horiz-adv-x="890" 
d="M395 -2v1104q0 156 63 245t222 89q99 0 184 -68l-39 -45q-86 51 -155 51q-213 0 -213 -272v-1104q0 -68 -4 -107q-5 -46 -19 -90q-16 -48 -40 -74q-27 -29 -72 -46q-49 -19 -115 -19q-92 0 -182 72l36 41q63 -54 156 -54q100 0 139 66t39 211z" />
    <glyph glyph-name="approxequal" unicode="&#x2248;" horiz-adv-x="1253" 
d="M1038 866l54 -24q-51 -119 -146 -143q-93 -24 -231 40l-168 95q-108 57 -202 25t-134 -130l-47 21q39 118 153 162q116 44 263 -29l161 -90q96 -53 172 -40q79 14 125 113zM1038 522l54 -24q-51 -119 -146 -143q-93 -24 -231 40l-168 94q-109 58 -202 26
q-94 -32 -134 -130l-47 21q39 118 153 162q116 44 263 -29l161 -90q96 -53 172 -40q79 14 125 113z" />
    <glyph glyph-name="notequal" unicode="&#x2260;" horiz-adv-x="1134" 
d="M164 420v55h250l227 348h-477v58h510l88 131l47 -29l-66 -102h222v-58h-256l-226 -348h482v-55h-521l-92 -144l-51 29l74 115h-211z" />
    <glyph glyph-name="lessequal" unicode="&#x2264;" horiz-adv-x="925" 
d="M184 844l498 319l29 -41l-463 -295l465 -317l-29 -45l-500 346v33zM176 217v53h574v-53h-574z" />
    <glyph glyph-name="greaterequal" unicode="&#x2265;" horiz-adv-x="927" 
d="M246 1163l497 -319v-33l-499 -340l-29 39l463 315l-461 299zM752 270v-53h-574v53h574z" />
    <glyph glyph-name="lozenge" unicode="&#x25ca;" horiz-adv-x="1122" 
d="M1040 721l-456 -707h-52l-444 707l444 704h52zM557 1356l-393 -635l391 -639l414 637z" />
    <glyph glyph-name="fi" unicode="&#xfb01;" horiz-adv-x="1077" 
d="M711 1399l-25 -56q-57 31 -129 31q-213 0 -213 -272v-96h324v-56h-324v-950h-61v950h-211v56h211v96q0 158 62 245q63 89 222 89q77 0 144 -37zM815 1354q0 35 29 50q28 15 58 0t30 -50q0 -37 -30 -52t-58 0q-29 15 -29 52zM840 1016h63v-1016h-63v1016z" />
    <glyph glyph-name="fl" unicode="&#xfb02;" horiz-adv-x="1062" 
d="M707 1395l-29 -49q-56 30 -121 30q-213 0 -213 -274v-96h320v-56h-320v-950h-61v950h-211v56h211v96q0 158 62 245q63 89 222 89q73 0 140 -41zM809 1434h63v-1434h-63v1434z" />
    <glyph glyph-name="a.alt" horiz-adv-x="1130" 
d="M199 895l-11 55q180 72 326 72q203 0 328 -92t125 -287v-643h-62v242q-118 -219 -344 -252q-105 -18 -210 3q-104 21 -186 101q-81 80 -81 207q0 161 121 240q122 80 293 80q208 0 407 -97v119q0 320 -391 320q-156 0 -315 -68zM907 463q-195 98 -411 98q-148 0 -249 -64
q-102 -65 -102 -196q1 -99 70 -166q67 -65 159 -85q90 -19 183 -1q146 23 243 139q96 116 107 275z" />
    <glyph glyph-name="aacute.alt" horiz-adv-x="1130" 
d="M545 1204h-53v8l145 222h76zM199 895l-11 55q180 72 326 72q203 0 328 -92t125 -287v-643h-62v242q-118 -219 -344 -252q-105 -18 -210 3q-104 21 -186 101q-81 80 -81 207q0 161 121 240q122 80 293 80q208 0 407 -97v119q0 320 -391 320q-156 0 -315 -68zM907 463
q-195 98 -411 98q-148 0 -249 -64q-102 -65 -102 -196q1 -99 70 -166q67 -65 159 -85q90 -19 183 -1q146 23 243 139q96 116 107 275z" />
    <glyph glyph-name="abreve.alt" horiz-adv-x="1130" 
d="M741 1440h58q-5 -108 -66 -171t-174 -63q-234 0 -240 234h52q0 -180 188 -180q182 1 182 180zM199 895l-11 55q180 72 326 72q203 0 328 -92t125 -287v-643h-62v242q-118 -219 -344 -252q-105 -18 -210 3q-104 21 -186 101q-81 80 -81 207q0 161 121 240q122 80 293 80
q208 0 407 -97v119q0 320 -391 320q-156 0 -315 -68zM907 463q-195 98 -411 98q-148 0 -249 -64q-102 -65 -102 -196q1 -99 70 -166q67 -65 159 -85q90 -19 183 -1q146 23 243 139q96 116 107 275z" />
    <glyph glyph-name="acircumflex.alt" horiz-adv-x="1130" 
d="M250 1182v12l256 242h61l260 -242v-12h-65l-225 204l-226 -204h-61zM199 895l-11 55q180 72 326 72q203 0 328 -92t125 -287v-643h-62v242q-118 -219 -344 -252q-105 -18 -210 3q-104 21 -186 101q-81 80 -81 207q0 161 121 240q122 80 293 80q208 0 407 -97v119
q0 320 -391 320q-156 0 -315 -68zM907 463q-195 98 -411 98q-148 0 -249 -64q-102 -65 -102 -196q1 -99 70 -166q67 -65 159 -85q90 -19 183 -1q146 23 243 139q96 116 107 275z" />
    <glyph glyph-name="adieresis.alt" horiz-adv-x="1130" 
d="M709 1364q0 35 28 50q29 15 58 0q28 -15 28 -50t-28 -50q-29 -15 -58 0q-28 15 -28 50zM199 895l-11 55q180 72 326 72q203 0 328 -92t125 -287v-643h-62v242q-118 -219 -344 -252q-105 -18 -210 3q-104 21 -186 101q-81 80 -81 207q0 161 121 240q122 80 293 80
q208 0 407 -97v119q0 320 -391 320q-156 0 -315 -68zM907 463q-195 98 -411 98q-148 0 -249 -64q-102 -65 -102 -196q1 -99 70 -166q67 -65 159 -85q90 -19 183 -1q146 23 243 139q96 116 107 275zM319 1364q0 35 29 50q28 15 57 0t29 -50t-29 -50t-57 0q-29 15 -29 50z" />
    <glyph glyph-name="agrave.alt" horiz-adv-x="1130" 
d="M553 1202l-152 230h80l129 -222v-8h-57zM199 895l-11 55q180 72 326 72q203 0 328 -92t125 -287v-643h-62v242q-118 -219 -344 -252q-105 -18 -210 3q-104 21 -186 101q-81 80 -81 207q0 161 121 240q122 80 293 80q208 0 407 -97v119q0 320 -391 320q-156 0 -315 -68z
M907 463q-195 98 -411 98q-148 0 -249 -64q-102 -65 -102 -196q1 -99 70 -166q67 -65 159 -85q90 -19 183 -1q146 23 243 139q96 116 107 275z" />
    <glyph glyph-name="amacron.alt" horiz-adv-x="1130" 
d="M293 1327v57h524v-57h-524zM199 895l-11 55q180 72 326 72q203 0 328 -92t125 -287v-643h-62v242q-118 -219 -344 -252q-105 -18 -210 3q-104 21 -186 101q-81 80 -81 207q0 161 121 240q122 80 293 80q208 0 407 -97v119q0 320 -391 320q-156 0 -315 -68zM907 463
q-195 98 -411 98q-148 0 -249 -64q-102 -65 -102 -196q1 -99 70 -166q67 -65 159 -85q90 -19 183 -1q146 23 243 139q96 116 107 275z" />
    <glyph glyph-name="aogonek.alt" horiz-adv-x="1130" 
d="M907 463q-195 98 -411 98q-148 0 -249 -64q-102 -65 -102 -196q1 -99 70 -166q67 -65 159 -85q90 -19 183 -1q146 23 243 139q96 116 107 275zM199 895l-11 55q180 72 326 72q203 0 328 -92t125 -287v-696q-129 12 -185 -42t-39 -116q10 -37 49 -62q37 -24 97 -22
q114 7 170 100l39 -43q-62 -99 -201 -110q-90 -2 -141 33q-51 34 -66 88q-21 84 42 151q64 69 175 70v248q-119 -219 -346 -252q-105 -18 -210 3q-104 21 -186 101q-81 80 -81 207q0 161 121 240q122 80 293 80q208 0 407 -97v119q0 320 -391 320q-156 0 -315 -68z" />
    <glyph glyph-name="aring.alt" horiz-adv-x="1130" 
d="M199 895l-11 55q180 72 326 72q203 0 328 -92t125 -287v-643h-62v242q-118 -219 -344 -252q-105 -18 -210 3q-104 21 -186 101q-81 80 -81 207q0 161 121 240q122 80 293 80q208 0 407 -97v119q0 320 -391 320q-156 0 -315 -68zM907 463q-195 98 -411 98q-148 0 -249 -64
q-102 -65 -102 -196q1 -99 70 -166q67 -65 159 -85q90 -19 183 -1q146 23 243 139q96 116 107 275zM676 1303q0 39 -26 70q-25 30 -61 37q-34 7 -73 1q-36 -6 -62 -36q-26 -31 -26 -75q0 -40 26 -68q27 -28 62 -34q37 -6 73 0q35 6 61 35t26 70zM729 1303q0 -59 -36 -100
q-36 -40 -88 -49t-104 0t-88 49q-36 41 -36 97q0 103 88 142t176 -3t88 -136z" />
    <glyph glyph-name="aringacute.alt" horiz-adv-x="1130" 
d="M549 1518v6l137 178h68v-2l-150 -182h-55zM199 895l-11 55q180 72 326 72q203 0 328 -92t125 -287v-643h-62v242q-118 -219 -344 -252q-105 -18 -210 3q-104 21 -186 101q-81 80 -81 207q0 161 121 240q122 80 293 80q208 0 407 -97v119q0 320 -391 320q-156 0 -315 -68z
M907 463q-195 98 -411 98q-148 0 -249 -64q-102 -65 -102 -196q1 -99 70 -166q67 -65 159 -85q90 -19 183 -1q146 23 243 139q96 116 107 275zM698 1284q0 42 -25 71t-63 37q-35 7 -72 1t-62 -36q-25 -29 -25 -75q0 -43 25 -69q25 -27 62 -33q35 -6 72 0q38 6 63 34t25 70z
M752 1284q0 -58 -36 -99q-36 -40 -88 -49t-105 0q-52 9 -88 49q-36 41 -36 97q0 62 36 102q38 42 88 51q55 9 105 -2q52 -12 88 -52q36 -41 36 -97z" />
    <glyph glyph-name="atilde.alt" horiz-adv-x="1130" 
d="M199 895l-11 55q180 72 326 72q203 0 328 -92t125 -287v-643h-62v242q-118 -219 -344 -252q-105 -18 -210 3q-104 21 -186 101q-81 80 -81 207q0 161 121 240q122 80 293 80q208 0 407 -97v119q0 320 -391 320q-156 0 -315 -68zM907 463q-195 98 -411 98q-148 0 -249 -64
q-102 -65 -102 -196q1 -99 70 -166q67 -65 159 -85q90 -19 183 -1q146 23 243 139q96 116 107 275zM535 1411l86 -47q109 -57 143 55l43 -16q-21 -83 -76 -107t-137 19l-86 47q-110 61 -143 -49l-43 16q21 79 75 102q55 24 138 -20z" />
    <glyph glyph-name="g.alt" 
d="M1118 -33q0 -231 -139 -358t-352 -127q-205 0 -333 95q-127 94 -138 253h59q10 -139 122 -214q111 -75 290 -75t306 106q126 105 126 316v166l10 145q-50 -140 -178 -213q-127 -73 -273 -71q-217 0 -364 141q-148 142 -148 375q0 231 147 375q146 143 361 143
q153 0 284 -79q132 -80 171 -220l-12 164v123h61v-1045zM612 965q-189 0 -317 -125q-127 -124 -127 -334q0 -209 130 -333t323 -124q216 0 327 133q111 134 111 334q0 191 -117 320t-330 129z" />
    <glyph glyph-name="gbreve.alt" 
d="M848 1444h59q-5 -116 -65 -176q-62 -62 -180 -62q-240 0 -246 238h53q0 -182 193 -182q186 0 186 182zM1118 -33q0 -231 -139 -358t-352 -127q-205 0 -333 95q-127 94 -138 253h59q10 -139 122 -214q111 -75 290 -75t306 106q126 105 126 316v166l10 145
q-50 -140 -178 -213q-127 -73 -273 -71q-217 0 -364 141q-148 142 -148 375q0 231 147 375q146 143 361 143q153 0 284 -79q132 -80 171 -220l-12 164v123h61v-1045zM612 965q-189 0 -317 -125q-127 -124 -127 -334q0 -209 130 -333t323 -124q216 0 327 133q111 134 111 334
q0 191 -117 320t-330 129z" />
    <glyph glyph-name="gcircumflex.alt" 
d="M1118 -33q0 -231 -139 -358t-352 -127q-205 0 -333 95q-127 94 -138 253h59q10 -139 122 -214q111 -75 290 -75t306 106q126 105 126 316v166l10 145q-50 -140 -178 -213q-127 -73 -273 -71q-217 0 -364 141q-148 142 -148 375q0 231 147 375q146 143 361 143
q153 0 284 -79q132 -80 171 -220l-12 164v123h61v-1045zM612 965q-189 0 -317 -125q-127 -124 -127 -334q0 -209 130 -333t323 -124q216 0 327 133q111 134 111 334q0 191 -117 320t-330 129zM700 1450l265 -248v-8h-66l-229 217l-230 -217h-65v8l264 248h61z" />
    <glyph glyph-name="gcommaaccent.alt" 
d="M1118 -33q0 -231 -139 -358t-352 -127q-205 0 -333 95q-127 94 -138 253h59q10 -139 122 -214q111 -75 290 -75t306 106q126 105 126 316v166l10 145q-50 -140 -178 -213q-127 -73 -273 -71q-217 0 -364 141q-148 142 -148 375q0 231 147 375q146 143 361 143
q153 0 284 -79q132 -80 171 -220l-12 164v123h61v-1045zM612 965q-189 0 -317 -125q-127 -124 -127 -334q0 -209 130 -333t323 -124q216 0 327 133q111 134 111 334q0 191 -117 320t-330 129zM729 1460l-61 -151q34 -10 34 -49q0 -36 -27 -51q-29 -16 -57 -1t-28 52
q0 14 16 53l64 147h59z" />
    <glyph glyph-name="gdotaccent.alt" 
d="M582 1372q0 35 28 50q29 15 57 0q27 -15 27 -50q0 -34 -27 -49q-28 -15 -57 0q-28 15 -28 49zM1118 -33q0 -231 -139 -358t-352 -127q-205 0 -333 95q-127 94 -138 253h59q10 -139 122 -214q111 -75 290 -75t306 106q126 105 126 316v166l10 145q-50 -140 -178 -213
q-127 -73 -273 -71q-217 0 -364 141q-148 142 -148 375q0 231 147 375q146 143 361 143q153 0 284 -79q132 -80 171 -220l-12 164v123h61v-1045zM612 965q-189 0 -317 -125q-127 -124 -127 -334q0 -209 130 -333t323 -124q216 0 327 133q111 134 111 334q0 191 -117 320
t-330 129z" />
    <glyph glyph-name="y.alt" horiz-adv-x="1230" 
d="M997 229q-57 -125 -168 -185q-112 -61 -231 -62q-209 0 -323 114q-113 113 -113 320v596h61v-594q0 -184 99 -282q98 -96 276 -95q166 1 282 116q115 114 115 279v576h62v-1067q0 -216 -119 -340q-118 -123 -324 -123q-200 0 -311 93q-110 93 -121 245h58
q11 -132 107 -205q98 -74 267 -74q172 0 278 103q105 102 105 301v284z" />
    <glyph glyph-name="yacute.alt" horiz-adv-x="1230" 
d="M565 1194v8l142 238h71l-160 -246h-53zM997 229q-57 -125 -168 -185q-112 -61 -231 -62q-209 0 -323 114q-113 113 -113 320v596h61v-594q0 -184 99 -282q98 -96 276 -95q166 1 282 116q115 114 115 279v576h62v-1067q0 -216 -119 -340q-118 -123 -324 -123
q-200 0 -311 93q-110 93 -121 245h58q11 -132 107 -205q98 -74 267 -74q172 0 278 103q105 102 105 301v284z" />
    <glyph glyph-name="ycircumflex.alt" horiz-adv-x="1230" 
d="M997 229q-57 -125 -168 -185q-112 -61 -231 -62q-209 0 -323 114q-113 113 -113 320v596h61v-594q0 -184 99 -282q98 -96 276 -95q166 1 282 116q115 114 115 279v576h62v-1067q0 -216 -119 -340q-118 -123 -324 -123q-200 0 -311 93q-110 93 -121 245h58
q11 -132 107 -205q98 -74 267 -74q172 0 278 103q105 102 105 301v284zM653 1450l265 -248v-8h-66l-229 217l-230 -217h-65v8l264 248h61z" />
    <glyph glyph-name="ydieresis.alt" horiz-adv-x="1230" 
d="M772 1380q0 38 29 53t57 0q29 -15 29 -53q0 -34 -29 -49q-28 -15 -57 0t-29 49zM997 229q-57 -125 -168 -185q-112 -61 -231 -62q-209 0 -323 114q-113 113 -113 320v596h61v-594q0 -184 99 -282q98 -96 276 -95q166 1 282 116q115 114 115 279v576h62v-1067
q0 -216 -119 -340q-118 -123 -324 -123q-200 0 -311 93q-110 93 -121 245h58q11 -132 107 -205q98 -74 267 -74q172 0 278 103q105 102 105 301v284zM377 1380q0 38 29 53q28 15 57 0t29 -53q0 -34 -29 -49t-57 0q-29 15 -29 49z" />
    <glyph glyph-name="ygrave.alt" horiz-adv-x="1230" 
d="M997 229q-57 -125 -168 -185q-112 -61 -231 -62q-209 0 -323 114q-113 113 -113 320v596h61v-594q0 -184 99 -282q98 -96 276 -95q166 1 282 116q115 114 115 279v576h62v-1067q0 -216 -119 -340q-118 -123 -324 -123q-200 0 -311 93q-110 93 -121 245h58
q11 -132 107 -205q98 -74 267 -74q172 0 278 103q105 102 105 301v284zM678 1202v-8h-53l-160 246h72z" />
    <glyph glyph-name="zero.denom" horiz-adv-x="763" 
d="M94 309v105q0 153 78 237t207 84q132 0 211 -82q80 -83 80 -239v-105q0 -86 -32 -155q-32 -68 -83 -104q-50 -35 -113 -52q-61 -16 -121 0q-63 17 -112 52q-51 36 -83 104q-32 69 -32 155zM156 416v-107q0 -96 47 -163q47 -66 113 -83q68 -17 133 -2q66 15 112 82
q47 68 47 166v107q0 128 -63 194t-168 66q-101 0 -161 -68t-60 -192z" />
    <glyph glyph-name="one.denom" horiz-adv-x="450" 
d="M74 0v59h129v586l-115 -24v57l176 41v-660h133v-59h-323z" />
    <glyph glyph-name="two.denom" horiz-adv-x="716" 
d="M625 0h-535v156q0 103 74 162t205 59q103 0 149 30q47 30 47 115q0 154 -203 154q-88 0 -146 -32q-56 -31 -54 -124h-62q0 215 262 215q106 0 185 -49q80 -50 80 -164q0 -200 -258 -200q-217 0 -217 -164v-99h473v-59z" />
    <glyph glyph-name="three.denom" horiz-adv-x="710" 
d="M160 539l-62 2q6 99 75 146q68 46 175 46q111 0 184 -49q74 -50 74 -143q0 -59 -37 -102t-90 -58q60 -21 101 -68t41 -110q0 -111 -78 -160q-77 -49 -195 -49q-113 0 -189 50q-74 49 -79 161h61q0 -46 23 -80t59 -48q44 -18 67 -21q33 -5 58 -5q207 0 209 154
q0 67 -61 106q-62 39 -140 39h-112v60h108q68 0 130 34q63 34 63 99q0 61 -53 96t-144 35q-184 0 -188 -135z" />
    <glyph glyph-name="four.denom" horiz-adv-x="677" 
d="M442 723h76v-481h86v-60h-86v-182h-61v182h-396l-12 43zM131 242h326v403z" />
    <glyph glyph-name="five.denom" horiz-adv-x="714" 
d="M168 442h184q149 0 218 -60t69 -159t-70 -166q-68 -65 -217 -65q-108 0 -185 45q-78 46 -79 156h59q-2 -78 58 -111t149 -33q124 0 173 51q51 53 51 121q0 64 -51 115q-49 49 -175 49h-243v338h493v-59h-434v-222z" />
    <glyph glyph-name="six.denom" horiz-adv-x="743" 
d="M166 506v-170q35 47 96 74q59 26 125 26q114 0 194 -58q81 -59 81 -167q0 -110 -80 -166q-79 -55 -193 -55q-119 0 -201 55t-82 168v293q0 117 78 174t193 57q113 0 186 -45q75 -46 82 -133h-59q-4 54 -58 88q-52 33 -151 33q-97 0 -154 -45t-57 -129zM389 49
q79 0 146 41q65 40 65 121q0 88 -65 128t-148 40q-75 0 -144 -45q-70 -45 -71 -121q0 -83 67 -124q65 -40 150 -40z" />
    <glyph glyph-name="seven.denom" horiz-adv-x="626" 
d="M59 664v59h523l8 -37l-389 -686h-70l381 664h-453z" />
    <glyph glyph-name="eight.denom" horiz-adv-x="765" 
d="M88 190q0 79 49 125q50 47 123 62q-70 15 -113 56q-45 42 -45 112q0 95 86 145q85 49 195 49q109 0 195 -47t86 -147q0 -72 -41 -110q-40 -37 -117 -58q71 -12 121 -62q49 -49 49 -122q0 -109 -89 -159t-204 -50q-116 0 -204 49q-90 50 -91 157zM600 545q0 75 -68 105
q-67 30 -149 30q-80 0 -149 -30q-68 -30 -68 -105q-2 -70 64 -104q63 -33 153 -33q88 0 151 33q66 35 66 104zM612 193q0 79 -70 116t-161 37q-86 0 -158 -39q-71 -38 -71 -117q0 -57 47 -93t93 -45t91 -9t90 9q46 9 92 45q47 36 47 96z" />
    <glyph glyph-name="nine.denom" horiz-adv-x="745" 
d="M575 219v170q-35 -47 -96 -74q-59 -26 -125 -26q-115 0 -193 56q-79 57 -79 169q0 102 81 162q80 59 189 59q119 0 201 -55t82 -168v-293q0 -117 -78 -174t-192 -57q-113 0 -187 45q-75 46 -82 133h60q4 -55 57 -88t152 -33q96 0 153 45t57 129zM352 676q-82 0 -145 -39
q-64 -40 -64 -123q0 -92 64 -130t147 -38q76 0 145 45t70 121q0 89 -65 126q-67 38 -152 38z" />
    <glyph glyph-name="zero.num" horiz-adv-x="763" 
d="M94 1030v105q0 153 78 237t207 84q132 0 211 -82q80 -83 80 -239v-105q0 -87 -32 -156q-31 -66 -83 -103q-50 -35 -113 -52q-61 -16 -121 0q-63 17 -112 52q-52 37 -83 103q-32 69 -32 156zM156 1137v-107q0 -96 47 -163q47 -66 113 -83q68 -17 133 -2q66 15 112 82
q47 68 47 166v107q0 128 -63 194t-168 66q-101 0 -161 -68q-60 -67 -60 -192z" />
    <glyph glyph-name="one.num" horiz-adv-x="454" 
d="M76 735v60h129v585l-115 -24v57l176 41v-659h133v-60h-323z" />
    <glyph glyph-name="two.num" horiz-adv-x="718" 
d="M627 717h-535v155q0 104 74 163t205 59q104 0 149 29q47 30 47 116q0 154 -202 154q-89 0 -147 -32q-56 -31 -54 -124h-62q0 215 263 215q105 0 184 -49q80 -50 80 -164q0 -201 -258 -201q-217 0 -217 -164v-98h473v-59z" />
    <glyph glyph-name="three.num" horiz-adv-x="710" 
d="M160 1255l-62 2q6 101 75 147q68 46 175 46q111 0 184 -49q74 -50 74 -144q0 -58 -37 -101t-90 -58q60 -21 101 -68t41 -110q0 -107 -79 -158t-194 -51q-113 0 -189 50q-74 49 -79 161h61q0 -46 23 -80t59 -48q44 -18 67 -21q33 -5 58 -5q74 0 141 35q66 35 68 119
q0 67 -61 106q-62 39 -140 39h-112v59h108q66 0 130 35q63 35 63 99q0 61 -53 96t-144 35q-183 0 -188 -136z" />
    <glyph glyph-name="four.num" horiz-adv-x="688" 
d="M442 1436h76v-482h98v-59h-98v-182h-61v182h-396l-12 43zM135 954h322v408z" />
    <glyph glyph-name="five.num" horiz-adv-x="718" 
d="M170 1153h184q149 0 218 -60t69 -159t-70 -166q-69 -66 -217 -66q-107 0 -185 46t-79 155h60q-1 -78 57 -110q60 -33 149 -33q124 0 173 51q51 53 51 121q0 64 -51 115q-49 49 -175 49h-243v338h493v-60h-434v-221z" />
    <glyph glyph-name="six.num" horiz-adv-x="747" 
d="M170 1217v-170q34 46 96 73q61 27 125 27q113 0 194 -57t81 -168q0 -110 -80 -166t-193 -56q-117 0 -200 56q-82 55 -82 168v293q0 118 77 174q78 57 193 57q113 0 186 -45q75 -46 82 -133h-59q-4 54 -58 88q-52 33 -151 33q-97 0 -154 -45t-57 -129zM393 760
q79 0 146 41q65 40 65 121q0 88 -65 128t-148 40q-73 0 -144 -46q-70 -45 -71 -120q0 -83 67 -124q65 -40 150 -40z" />
    <glyph glyph-name="seven.num" horiz-adv-x="626" 
d="M59 1376v60h523l8 -37l-389 -686h-70l381 663h-453z" />
    <glyph glyph-name="eight.num" horiz-adv-x="765" 
d="M88 901q0 79 49 125t123 61q-68 15 -113 57t-45 111q0 96 86 146q85 49 195 49q109 0 195 -47t86 -148q0 -71 -41 -109t-117 -59q72 -12 121 -61t49 -123q0 -109 -89 -159t-204 -50q-116 0 -204 49q-90 50 -91 158zM600 1255q0 76 -68 106t-149 30q-80 0 -149 -30
q-68 -30 -68 -106q-1 -69 64 -103t153 -34q86 0 151 34q66 34 66 103zM612 903q0 80 -70 117t-161 37q-86 0 -158 -39q-71 -38 -71 -117q0 -57 47 -93t93 -45t91 -9t90 9q46 9 92 45q47 36 47 95z" />
    <glyph glyph-name="nine.num" horiz-adv-x="743" 
d="M578 934v170q-35 -47 -97 -74q-59 -26 -125 -26q-115 0 -193 56q-79 57 -79 169q0 102 81 162q80 59 189 59q119 0 201 -55t82 -168v-293q0 -117 -81 -174q-82 -58 -196 -58q-111 0 -185 46t-81 133h60q5 -56 56 -88q52 -33 150 -33q97 0 157 45q61 46 61 129zM354 1391
q-82 0 -145 -39q-64 -40 -64 -123q0 -92 64 -130t147 -38q76 0 145 45t70 121q0 89 -65 126q-67 38 -152 38z" />
    <glyph glyph-name="zero.tf" horiz-adv-x="1392" 
d="M164 532v371q0 174 79 301q80 129 197 185q118 57 256 57t256 -57t198 -185q79 -127 79 -301v-371q0 -132 -46 -237q-47 -107 -121 -171q-74 -63 -170 -100q-94 -36 -196 -36q-99 0 -195 35t-170 100q-75 66 -121 172q-46 105 -46 237zM233 903v-371q0 -154 69 -265
q70 -113 171 -162q104 -50 223 -49q120 1 224 52q102 49 171 161q68 109 68 263v371q0 116 -40 208q-42 96 -104 151q-66 58 -149 88q-84 30 -170 30t-170 -30q-81 -29 -148 -88q-64 -56 -105 -151q-40 -92 -40 -208z" />
    <glyph glyph-name="one.tf" horiz-adv-x="1392" 
d="M395 0v57h287v1307l-272 -66v60l344 76v-1377h290v-57h-649z" />
    <glyph glyph-name="two.tf" horiz-adv-x="1392" 
d="M225 313v-243h1010v-70h-1079v311q0 113 48 193q49 81 131 121q84 41 174 59q91 18 198 18q83 0 164 18q86 19 156 54q74 37 121 107q46 68 46 161q0 97 -47 170q-46 71 -124 109q-72 35 -157 53q-82 17 -164 17q-76 0 -158 -16q-77 -15 -150 -50t-116 -102
q-45 -70 -45 -162h-69q-1 106 45 185q45 78 128 122q80 43 172 64q87 20 193 20q107 0 199 -22q94 -22 175 -69t129 -129q48 -83 50 -192q0 -130 -87 -224q-88 -96 -206 -137q-120 -42 -249 -42q-488 -5 -488 -324z" />
    <glyph glyph-name="three.tf" horiz-adv-x="1392" 
d="M231 1096h-63q0 104 48 179q47 74 130 110q87 38 166 52q84 15 182 15q252 0 385 -105t135 -260q0 -126 -97 -227q-98 -103 -232 -125q143 -22 249 -125q105 -102 105 -241q0 -163 -136 -278q-137 -116 -403 -116q-97 0 -190 17t-176 55q-86 39 -137 117q-52 80 -52 186
h66q0 -82 34 -141q35 -60 81 -90q49 -31 119 -49q75 -19 129 -23q51 -4 128 -4q239 0 358 95q118 94 118 233q0 132 -132 234t-350 102h-239v59h235q222 0 341 100q121 101 122 221q2 139 -119 224q-122 86 -340 86q-465 0 -465 -301z" />
    <glyph glyph-name="four.tf" horiz-adv-x="1392" 
d="M999 0v336h-888l-9 67l902 1031h67v-1033h184v-65h-184v-336h-72zM184 401h815v926z" />
    <glyph glyph-name="five.tf" horiz-adv-x="1392" 
d="M256 868h506q147 0 249 -40q104 -41 155 -108q54 -70 74 -139q22 -74 22 -153q0 -186 -138 -312q-136 -124 -419 -124q-101 0 -191 18q-88 18 -173 61q-84 43 -133 123q-50 82 -50 193h71q0 -324 476 -324q250 0 368 97q117 96 117 266q0 379 -428 379h-567v629h987v-60
h-926v-506z" />
    <glyph glyph-name="six.tf" horiz-adv-x="1392" 
d="M240 1075v-452q164 231 489 231q142 0 262 -43q123 -44 205 -144q84 -102 84 -247q0 -116 -48 -205q-48 -88 -130 -136q-84 -49 -175 -71t-200 -22q-146 0 -265 40q-121 41 -206 142q-86 103 -86 256v649q0 182 158 281q156 98 377 98q219 0 368 -91q150 -91 168 -255
h-72q-12 133 -141 208t-326 75q-188 -1 -325 -84t-137 -230zM727 55q87 0 167 18q82 19 154 56q74 39 118 114q44 76 44 177q0 96 -45 171q-45 76 -117 116q-71 40 -154 60q-79 19 -165 19q-115 0 -220 -35q-107 -36 -187 -123q-80 -88 -80 -206q-2 -101 43 -175
q45 -75 119 -115q73 -40 156 -58q86 -19 167 -19z" />
    <glyph glyph-name="seven.tf" horiz-adv-x="1392" 
d="M365 0l794 1372h-962v62h1042v-50l-799 -1384h-75z" />
    <glyph glyph-name="eight.tf" horiz-adv-x="1392" 
d="M111 362q0 154 110 254q112 101 254 125q-342 91 -342 342q0 107 54 186t143 120q91 42 179 59q92 18 187 18q102 0 187 -17q97 -19 179 -57q90 -41 143 -119q55 -81 55 -190q0 -245 -342 -346q152 -29 257 -129t105 -246q0 -109 -55 -188t-145 -123q-85 -42 -185 -62
q-98 -20 -199 -20q-102 0 -198 21q-102 22 -187 62q-90 42 -144 123q-55 82 -56 187zM1194 1081q0 91 -52 158q-52 66 -133 101q-84 36 -160 50q-79 15 -153 15q-75 0 -149 -13q-79 -14 -159 -46q-84 -34 -136 -102q-53 -70 -53 -163q0 -86 52 -148q53 -63 133 -93
q82 -30 160 -45q79 -15 152 -15q74 0 153 15q77 15 161 45q82 30 133 93t51 148zM696 713q-69 0 -152 -17q-86 -18 -167 -53q-87 -38 -141 -108q-56 -73 -56 -170t57 -166q59 -71 144 -103q86 -32 166 -46q75 -13 149 -13q75 0 149 13q78 14 166 45q86 31 145 102
q56 68 58 168q0 93 -56 164q-58 73 -142 110q-83 37 -168 55q-87 19 -152 19z" />
    <glyph glyph-name="nine.tf" horiz-adv-x="1392" 
d="M1153 362v453q-83 -115 -214 -173t-278 -58q-142 0 -262 43q-121 43 -204 144q-84 102 -84 247q0 116 48 205q48 88 130 136q84 49 175 71t200 22q144 0 264 -40q122 -41 207 -142q86 -103 86 -256v-649q0 -182 -158 -281q-156 -98 -377 -98q-220 0 -369 91
q-148 91 -165 255h71q10 -133 139 -208t326 -75q189 1 327 84t138 229zM664 1382q-92 0 -167 -17q-82 -19 -154 -56q-75 -39 -120 -114t-45 -177q0 -98 45 -173q44 -74 119 -115q70 -39 155 -59q83 -20 164 -20q79 0 165 22q87 22 156 64q72 44 119 116q46 72 48 163
q0 100 -45 175q-45 74 -120 115q-73 39 -155 58q-79 18 -165 18z" />
    <glyph glyph-name="bullet.case" horiz-adv-x="757" 
d="M381 537q-79 0 -132 50q-52 49 -52 130q0 83 52 132q53 50 132 50q77 0 129 -50q51 -49 51 -132q0 -81 -51 -130q-52 -50 -129 -50z" />
    <glyph glyph-name="periodcentered.case" horiz-adv-x="452" 
d="M164 698q0 40 31 55q30 15 62 0t32 -55q0 -38 -31 -54q-30 -15 -62 0t-32 54z" />
    <glyph glyph-name="braceleft.case" horiz-adv-x="620" 
d="M84 768q166 0 166 258v328q0 315 285 243v-51q-107 27 -165 -13q-59 -41 -59 -179v-328q0 -55 -3 -88q-3 -38 -14 -79q-12 -46 -42 -76t-80 -42q43 -12 67 -33q26 -23 42 -50q13 -22 21 -65q6 -33 8 -66q1 -17 1 -68v-312q0 -138 58 -176q57 -37 166 -10v-51
q-285 -72 -285 237v312q0 256 -166 256v53z" />
    <glyph glyph-name="braceright.case" horiz-adv-x="620" 
d="M537 768v-53q-166 0 -166 -256v-312q0 -309 -285 -237v51q109 -27 166 10q57 38 57 176v312q0 51 1 68q2 33 8 66q7 40 22 65q16 27 42 50q24 21 67 33q-50 12 -80 42t-42 76q-12 47 -15 79q-3 33 -3 88v328q0 139 -58 179t-165 13v51q285 72 285 -243v-328
q0 -258 166 -258z" />
    <glyph glyph-name="bracketleft.case" horiz-adv-x="632" 
d="M209 -190v1802h340v-68h-268v-1667h268v-67h-340z" />
    <glyph glyph-name="bracketright.case" horiz-adv-x="632" 
d="M424 1612v-1802h-340v67h268v1667h-268v68h340z" />
    <glyph glyph-name="parenleft.case" horiz-adv-x="659" 
d="M559 1651l37 -52q-408 -273 -414 -839q-4 -256 102 -487q105 -228 310 -373l-33 -54q-217 141 -330 385q-114 246 -114 525q0 280 113 518q114 240 329 377z" />
    <glyph glyph-name="parenright.case" horiz-adv-x="661" 
d="M68 1587l36 53q216 -137 329 -376q114 -240 114 -519q0 -276 -115 -524q-113 -244 -330 -385l-32 53q206 144 311 375q105 228 100 486q-6 565 -413 837z" />
    <glyph glyph-name="emdash.case" horiz-adv-x="1447" 
d="M162 678v61h1124v-61h-1124z" />
    <glyph glyph-name="endash.case" horiz-adv-x="1206" 
d="M154 674v61h899v-61h-899z" />
    <glyph glyph-name="hyphen.case" horiz-adv-x="1034" 
d="M164 668v61h706v-61h-706z" />
    <glyph glyph-name="guillemotleft.case" horiz-adv-x="761" 
d="M113 659l282 447h68l-275 -447l275 -450h-68zM578 209l-283 450l283 447h65l-274 -447l274 -450h-65z" />
    <glyph glyph-name="guillemotright.case" horiz-adv-x="772" 
d="M473 680l-283 -449h-67l276 449l-276 448h67zM375 1128l282 -448l-282 -449h-68l277 449l-277 448h68z" />
    <glyph glyph-name="guilsinglleft.case" horiz-adv-x="643" 
d="M420 264l-283 451l283 446h67l-274 -446l274 -451h-67z" />
    <glyph glyph-name="guilsinglright.case" horiz-adv-x="643" 
d="M504 698l-281 -450h-67l274 450l-274 449h67z" />
    <glyph glyph-name="florin.tf" horiz-adv-x="1392" 
d="M702 0q0 -154 -46 -234q-47 -82 -189 -88q-101 0 -186 68l34 43q39 -29 70 -42q26 -11 82 -11q94 4 134 62t40 202v952h-293v58h293v108q0 152 60 236t217 86q112 0 192 -68l-37 -43q-67 51 -158 51q-108 0 -160 -58q-53 -59 -53 -204v-108h345v-58h-345v-952z" />
    <glyph glyph-name="cent.tf" horiz-adv-x="1392" 
d="M735 -172v145q-211 12 -351 147q-138 133 -138 367q0 232 137 366t352 146v117h60v-117q199 -16 327 -141l-41 -39q-128 125 -317 125q-198 0 -328 -119q-129 -119 -129 -338q0 -223 128 -339q127 -115 329 -115q191 0 326 129l40 -39q-142 -138 -333 -148v-147h-62z" />
    <glyph glyph-name="dollar.tf" horiz-adv-x="1392" 
d="M668 1649h65v-211q151 -4 284 -65q131 -59 197 -177l-63 -41q-61 115 -183 163q-125 50 -268 54q-99 0 -196 -26q-100 -27 -185 -101q-84 -73 -79 -182q1 -54 27 -98q25 -43 63 -72q40 -31 102 -53q70 -25 123 -38q62 -15 150 -32q264 -56 350 -98q198 -94 198 -303
q0 -98 -49 -169q-51 -75 -130 -114q-79 -40 -168 -61q-84 -20 -179 -25v-199h-59v201q-170 5 -317 70q-150 67 -218 194l64 35q62 -120 207 -176q143 -55 298 -55q72 0 150 15q76 15 156 47q79 32 128 94q50 64 50 145q0 54 -17 99q-17 44 -54 77q-34 30 -76 55
q-39 23 -101 41q-68 19 -109 29q-7 2 -120 26q-8 1 -21 4q-256 56 -352 105q-162 84 -168 250q-2 93 43 167t120 118q76 44 161 68q83 23 176 28v211z" />
    <glyph glyph-name="Euro.tf" horiz-adv-x="1392" 
d="M145 803v61h148q41 258 224 422q184 164 497 164q93 0 172 -20l-10 -60q-84 19 -162 19q-281 0 -449 -145q-166 -143 -205 -380h596l-16 -61h-588q-4 -27 -4 -92q0 -52 6 -97h572l-19 -61h-545q44 -229 205 -366q162 -138 439 -138q107 0 221 41l14 -59
q-117 -43 -235 -43q-310 0 -487 155q-179 156 -224 410h-150v61h142q-4 55 -4 95q0 67 4 94h-142z" />
    <glyph glyph-name="sterling.tf" horiz-adv-x="1392" 
d="M162 0v51q83 95 133 181q47 82 63 160q15 77 11 132q-4 54 -23 129h-184v54h168q-60 219 -60 346q0 193 139 293q137 98 343 98q92 0 169 -18q79 -19 143 -55q66 -38 104 -110q38 -73 38 -174h-53q0 89 -37 151q-38 64 -99 93q-67 32 -127 43q-64 12 -138 12
q-188 0 -306 -85t-118 -248q0 -45 6 -94q7 -54 13 -80l22 -93q6 -24 11.5 -50t6.5 -29h559v-54h-545q23 -96 24 -186q1 -89 -46 -196q-47 -106 -146 -214h990v-57h-1061z" />
    <glyph glyph-name="yen.tf" horiz-adv-x="1392" 
d="M342 569v54h287l-529 811h78l518 -803l516 803h78l-526 -811h293v-54h-328v-137h328v-55h-328v-377h-65v377h-322v55h322v137h-322z" />
    <glyph glyph-name="bar.case" horiz-adv-x="491" 
d="M211 1559h70v-1692h-70v1692z" />
    <glyph glyph-name="commaaccentcomb.alt" horiz-adv-x="901" 
d="M518 1636l-69 -161q36 -20 36 -66q0 -40 -31 -58q-32 -18 -65 0t-33 58l88 231l-2 -4h76z" />
    <glyph glyph-name="_0004" horiz-adv-x="0" 
 />
    <glyph glyph-name="asterisk.alt" horiz-adv-x="577" 
d="M313 1241l95 -123q16 -24 -7 -39t-39 6l-90 129l-96 -129q-11 -14 -28 -11q-15 3 -20 17q-4 13 5 27l100 123l-143 45q-15 4 -16 19q-1 14 7 24t23 4l146 -43v133q0 23 24 23q25 0 25 -23v-133l147 39q15 5 24 -6q9 -10 6 -25q-3 -14 -15 -16z" />
    </font>
</defs>
</svg>
