<!--?xml version="1.0" standalone="no"?-->
              <svg id="sw-js-blob-svg" viewBox="0 0 100 100" xmlns="http://www.w3.org/2000/svg" version="1.1">
                    <defs> 
                        <linearGradient id="sw-gradient" x1="0" x2="1" y1="1" y2="0">
                            <stop id="stop1" stop-color="rgba(109.504, 255, 190.582, 0.21)" offset="0%"></stop>
                            <stop id="stop2" stop-color="rgba(133.978, 255, 201.418, 0.47)" offset="100%"></stop>
                        </linearGradient>
                    </defs>
                <path fill="url(#sw-gradient)" d="M22,-23.4C29.9,-19.5,38.6,-13.9,41.6,-6C44.5,1.9,41.6,12.1,36.6,21.3C31.5,30.5,24.3,38.7,15.3,41.8C6.3,45,-4.4,43.2,-13.6,39.1C-22.8,35,-30.5,28.5,-36.1,20.2C-41.6,11.9,-45,1.7,-43,-7.3C-41.1,-16.2,-33.7,-23.8,-25.6,-27.6C-17.6,-31.4,-8.8,-31.4,-0.9,-30.4C7,-29.3,14.1,-27.2,22,-23.4Z" width="100%" height="100%" transform="translate(50 50)" stroke-width="0" style="transition: 0.3s;"></path>
              </svg>