<!--?xml version="1.0" standalone="no"?-->
              <svg id="sw-js-blob-svg" viewBox="0 0 100 100" xmlns="http://www.w3.org/2000/svg" version="1.1">
                    <defs> 
                        <linearGradient id="sw-gradient" x1="0" x2="1" y1="1" y2="0">
                            <stop id="stop1" stop-color="rgba(131, 251, 254, 1)" offset="0%"></stop>
                            <stop id="stop2" stop-color="rgba(54, 168, 235, 1)" offset="100%"></stop>
                        </linearGradient>
                    </defs>
                <path fill="url(#sw-gradient)" d="M16,-28.8C21.3,-24.5,26.8,-21.6,31.2,-17C35.6,-12.4,38.9,-6.2,40.2,0.8C41.5,7.7,40.8,15.4,36.5,20.2C32.2,24.9,24.3,26.7,17.6,28.3C10.9,30,5.5,31.5,-1,33.3C-7.5,35.1,-15.1,37.2,-20.5,34.7C-25.8,32.3,-29,25.4,-33.2,18.9C-37.5,12.4,-42.9,6.2,-43.5,-0.3C-44,-6.9,-39.9,-13.7,-34.4,-18.2C-28.9,-22.6,-22.2,-24.6,-16.2,-28.6C-10.3,-32.6,-5.1,-38.6,0.1,-38.7C5.3,-38.8,10.6,-33.2,16,-28.8Z" width="100%" height="100%" transform="translate(50 50)" stroke-width="0" style="transition: 0.3s;" stroke="url(#sw-gradient)"></path>
              </svg>