<?xml version="1.0" encoding="utf-8"?>
<!-- Generator: Adobe Illustrator 14.0.0, SVG Export Plug-In . SVG Version: 6.00 Build 43363)  -->
<!DOCTYPE svg PUBLIC "-//W3C//DTD SVG 1.1//EN" "http://www.w3.org/Graphics/SVG/1.1/DTD/svg11.dtd">
<svg version="1.1" id="Ebene_1" xmlns="http://www.w3.org/2000/svg" xmlns:xlink="http://www.w3.org/1999/xlink" x="0px" y="0px"
	 width="76.225px" height="76.225px" viewBox="0 0 76.225 76.225" enable-background="new 0 0 76.225 76.225" xml:space="preserve">
<g>
	<circle fill="#AD362A" cx="38.112" cy="38.112" r="38.112"/>
	<g>
		<path fill="#FFFFFF" d="M57.676,50.768c0,1.521-1.232,2.756-2.756,2.756H21.303c-1.521,0-2.755-1.232-2.755-2.756V25.455
			c0-1.522,1.232-2.757,2.755-2.757h33.615c1.521,0,2.756,1.233,2.756,2.757L57.676,50.768L57.676,50.768z"/>
		<g>
			<g>
				<path fill="#AD362A" d="M28.814,30.551c0,1.369-1.111,2.479-2.479,2.479h-0.162c-1.369,0-2.479-1.11-2.479-2.479V30.39
					c0-1.369,1.109-2.479,2.479-2.479h0.162c1.368,0,2.479,1.11,2.479,2.479V30.551z"/>
				<path fill="#AD362A" d="M52.531,30.385c0,0.925-0.749,1.673-1.674,1.673H34.455c-0.925,0-1.674-0.748-1.674-1.673l0,0
					c0-0.925,0.749-1.674,1.674-1.674h16.402C51.782,28.711,52.531,29.46,52.531,30.385L52.531,30.385z"/>
			</g>
			<g>
				<path fill="#AD362A" d="M28.814,38.192c0,1.37-1.111,2.479-2.479,2.479h-0.162c-1.369,0-2.479-1.109-2.479-2.479v-0.161
					c0-1.368,1.109-2.479,2.479-2.479h0.162c1.368,0,2.479,1.111,2.479,2.479V38.192z"/>
				<path fill="#AD362A" d="M52.531,38.025c0,0.925-0.749,1.673-1.674,1.673H34.455c-0.925,0-1.674-0.748-1.674-1.673l0,0
					c0-0.925,0.749-1.673,1.674-1.673h16.402C51.782,36.352,52.531,37.1,52.531,38.025L52.531,38.025z"/>
			</g>
			<g>
				<path fill="#AD362A" d="M28.814,45.835c0,1.369-1.111,2.479-2.479,2.479h-0.162c-1.369,0-2.479-1.109-2.479-2.479v-0.162
					c0-1.369,1.109-2.48,2.479-2.48h0.162c1.368,0,2.479,1.111,2.479,2.48V45.835z"/>
				<path fill="#AD362A" d="M52.531,45.667c0,0.926-0.749,1.676-1.674,1.676H34.455c-0.925,0-1.674-0.75-1.674-1.676l0,0
					c0-0.924,0.749-1.674,1.674-1.674h16.402C51.782,43.993,52.531,44.743,52.531,45.667L52.531,45.667z"/>
			</g>
		</g>
	</g>
</g>
</svg>
