<?xml version="1.0" encoding="utf-8"?>
<!-- Generator: Adobe Illustrator 14.0.0, SVG Export Plug-In . SVG Version: 6.00 Build 43363)  -->
<!DOCTYPE svg PUBLIC "-//W3C//DTD SVG 1.1//EN" "http://www.w3.org/Graphics/SVG/1.1/DTD/svg11.dtd">
<svg version="1.1" id="Ebene_1" xmlns="http://www.w3.org/2000/svg" xmlns:xlink="http://www.w3.org/1999/xlink" x="0px" y="0px"
	 width="76.225px" height="76.223px" viewBox="0.5 0.501 76.225 76.223" enable-background="new 0.5 0.501 76.225 76.223"
	 xml:space="preserve">
<g>
	<circle fill="#1373A1" cx="38.612" cy="38.612" r="38.112"/>
	<g>
		<path fill="#FFFFFF" d="M39.034,17.554c-7.261,0-15.098,5.771-15.098,15.099c0,4.601,1.831,8.473,5.347,11.407
			c0.039,0.045,0.078,0.086,0.127,0.123c2.609,2.828,2.74,3.365,2.756,4.607c0.01,0.494,0.005,0.641,0,0.721l-0.003,0.285
			c-0.021,0.621-0.053,1.662,1.232,2.053l11.108,2.445c0.049,0.012,0.1,0.018,0.147,0.018c0.314,0,0.6-0.221,0.67-0.539
			c0.082-0.369-0.151-0.738-0.522-0.818l-11.057-2.432c-0.042-0.014-0.071-0.023-0.103-0.039h10.508
			c0.162,0.031,0.403,0.057,0.668,0h0.136v-0.047c0.114-0.037,0.233-0.076,0.345-0.154c0.254-0.18,0.547-0.525,0.599-1.189
			l0.002-0.066c0.002-0.041,0.004-0.086,0.004-0.135c0-0.012,0-0.023-0.002-0.035l0.002-0.064c0.018-1.238,0.146-1.775,2.752-4.605
			c0.013-0.012,0.023-0.02,0.037-0.031c3.662-3.072,5.44-6.838,5.44-11.501C54.131,23.204,46.456,17.554,39.034,17.554z"/>
		<path fill="#FFFFFF" d="M44.674,56.687l-10.979-2.49c-0.373-0.084-0.735,0.146-0.818,0.518c-0.085,0.369,0.146,0.738,0.519,0.822
			l10.979,2.486c0.05,0.016,0.103,0.021,0.15,0.021c0.312,0,0.598-0.219,0.668-0.537C45.276,57.136,45.046,56.769,44.674,56.687z"/>
		<path fill="#FFFFFF" d="M43.3,60.116l-8.92-2.002c-0.371-0.084-0.734,0.15-0.818,0.521c-0.082,0.369,0.149,0.734,0.521,0.818
			l8.92,2c0.05,0.014,0.102,0.02,0.149,0.02c0.312,0,0.6-0.219,0.67-0.539C43.903,60.566,43.674,60.2,43.3,60.116z"/>
	</g>
</g>
</svg>
