<?xml version="1.0" encoding="utf-8"?>
<!-- Generator: Adobe Illustrator 14.0.0, SVG Export Plug-In . SVG Version: 6.00 Build 43363)  -->
<!DOCTYPE svg PUBLIC "-//W3C//DTD SVG 1.1//EN" "http://www.w3.org/Graphics/SVG/1.1/DTD/svg11.dtd">
<svg version="1.1" id="Ebene_1" xmlns="http://www.w3.org/2000/svg" xmlns:xlink="http://www.w3.org/1999/xlink" x="0px" y="0px"
	 width="76.227px" height="76.227px" viewBox="0 0 76.227 76.227" enable-background="new 0 0 76.227 76.227" xml:space="preserve">
<g>
	<circle fill="#C9B435" cx="38.113" cy="38.113" r="38.113"/>
	<g>
		<path fill="#FFFFFF" d="M38.229,37.046c4.706,0,8.521-4.636,8.521-10.352c0-5.719-1.251-10.351-8.521-10.351
			c-7.271,0-8.521,4.632-8.521,10.351C29.708,32.41,33.523,37.046,38.229,37.046z"/>
		<path fill="#FFFFFF" d="M22.135,52.845C22.133,52.498,22.132,52.748,22.135,52.845L22.135,52.845z"/>
		<path fill="#FFFFFF" d="M54.322,53.119C54.327,53.024,54.323,52.455,54.322,53.119L54.322,53.119z"/>
		<path fill="#FFFFFF" d="M54.304,52.428c-0.156-9.957-1.459-12.794-11.41-14.591c0,0-1.399,1.784-4.667,1.784
			c-3.266,0-4.665-1.784-4.665-1.784c-9.845,1.774-11.224,4.568-11.403,14.269c-0.017,0.791-0.021,0.832-0.024,0.74
			c0,0.173,0,0.489,0,1.047c0,0,2.37,4.774,16.096,4.774c13.724,0,16.094-4.774,16.094-4.774c0-0.356,0-0.604,0-0.772
			C54.319,53.176,54.313,53.067,54.304,52.428z"/>
	</g>
</g>
</svg>
