<?xml version="1.0" encoding="utf-8"?>
<!-- Generator: Adobe Illustrator 14.0.0, SVG Export Plug-In . SVG Version: 6.00 Build 43363)  -->
<!DOCTYPE svg PUBLIC "-//W3C//DTD SVG 1.1//EN" "http://www.w3.org/Graphics/SVG/1.1/DTD/svg11.dtd">
<svg version="1.1" id="Ebene_1" xmlns="http://www.w3.org/2000/svg" xmlns:xlink="http://www.w3.org/1999/xlink" x="0px" y="0px"
	 width="76.226px" height="76.226px" viewBox="0 0 76.226 76.226" enable-background="new 0 0 76.226 76.226" xml:space="preserve">
<circle fill="#009EB9" cx="38.113" cy="38.112" r="38.113"/>
<g>
	<path fill="#FFFFFF" d="M45.648,42.365h-1.195H17.336h-1.195V23.636c0-0.559,0.535-1.009,1.195-1.009h27.117
		c0.66,0,1.195,0.45,1.195,1.009V42.365z"/>
	<polygon fill="#FFFFFF" points="56.298,26.842 47.393,26.842 47.393,42.365 61.98,42.365 61.98,33.772 	"/>
	<path fill="#009EB9" d="M56.579,28.949h-4.447c-0.661,0-1.196,0.536-1.196,1.196v2.624c0,0.661,0.535,1.195,1.196,1.195h8.396
		L56.579,28.949z"/>
	<path fill="#FFFFFF" d="M21.981,50.134c0-2.16,1.751-3.908,3.908-3.908c2.158,0,3.906,1.748,3.906,3.908
		c0,2.155-1.748,3.905-3.906,3.905C23.732,54.039,21.981,52.289,21.981,50.134z"/>
	<circle fill="#FFFFFF" cx="55.13" cy="50.135" r="3.908"/>
	<circle fill="#009EB9" cx="25.89" cy="50.134" r="1.986"/>
	<path fill="#FFFFFF" d="M14.561,43.82v4.742h6.456c0.669-2.063,2.588-3.571,4.871-3.571s4.203,1.508,4.871,3.571h19.503
		c0.667-2.063,2.584-3.571,4.868-3.571c2.285,0,4.205,1.508,4.872,3.571h3.032V43.82H14.561z"/>
	<circle fill="#009EB9" cx="55.131" cy="50.134" r="1.988"/>
</g>
</svg>
