<?xml version="1.0" encoding="utf-8"?>
<!-- Generator: Adobe Illustrator 14.0.0, SVG Export Plug-In . SVG Version: 6.00 Build 43363)  -->
<!DOCTYPE svg PUBLIC "-//W3C//DTD SVG 1.1//EN" "http://www.w3.org/Graphics/SVG/1.1/DTD/svg11.dtd">
<svg version="1.1" id="Ebene_1" xmlns="http://www.w3.org/2000/svg" xmlns:xlink="http://www.w3.org/1999/xlink" x="0px" y="0px"
	 width="76.226px" height="76.225px" viewBox="0 0 76.226 76.225" enable-background="new 0 0 76.226 76.225" xml:space="preserve">
<circle fill="#D74C7D" cx="38.113" cy="38.111" r="38.113"/>
<g>
	<path fill="#FFFFFF" d="M43.41,56.784H30.483H28.56h-1.477c-2.254,0-4.082-1.826-4.082-4.081v-3.402V25.49v-6.123
		c-1.127,0-2.041,0.914-2.041,2.04v33.336c0,2.254,1.827,4.082,4.083,4.082h23.811c1.126,0,2.04-0.914,2.04-2.041h-4.081H43.41z"/>
	<path fill="#FFFFFF" d="M42.05,28.896h4.082h8.844L40.009,15.261v7.499v4.092C40.009,27.981,40.923,28.896,42.05,28.896z"/>
	<path fill="#FFFFFF" d="M42.05,30.942c-2.254,0-4.082-1.832-4.082-4.091V22.76v-7.475H27.083c-1.126,0-2.04,0.915-2.04,2.041
		v35.377c0,1.127,0.914,2.04,2.04,2.04h25.852c1.127,0,2.041-0.913,2.041-2.04V47.26V30.942h-8.844H42.05z M49.756,49.588H29.913
		c-0.775,0-1.404-0.629-1.404-1.404s0.629-1.404,1.404-1.404h19.843c0.775,0,1.404,0.629,1.404,1.404S50.531,49.588,49.756,49.588z
		 M49.756,43.995H29.913c-0.775,0-1.404-0.629-1.404-1.404s0.629-1.404,1.404-1.404h19.843c0.775,0,1.404,0.629,1.404,1.404
		S50.531,43.995,49.756,43.995z M51.16,36.997c0,0.775-0.629,1.404-1.404,1.404H29.913c-0.775,0-1.404-0.629-1.404-1.404
		s0.629-1.404,1.404-1.404h19.843C50.531,35.593,51.16,36.222,51.16,36.997z"/>
</g>
</svg>
