<?xml version="1.0" encoding="utf-8"?>
<!-- Generator: Adobe Illustrator 14.0.0, SVG Export Plug-In . SVG Version: 6.00 Build 43363)  -->
<!DOCTYPE svg PUBLIC "-//W3C//DTD SVG 1.1//EN" "http://www.w3.org/Graphics/SVG/1.1/DTD/svg11.dtd">
<svg version="1.1" id="Ebene_1" xmlns="http://www.w3.org/2000/svg" xmlns:xlink="http://www.w3.org/1999/xlink" x="0px" y="0px"
	 width="76.227px" height="76.227px" viewBox="0 0 76.227 76.227" enable-background="new 0 0 76.227 76.227" xml:space="preserve">
<g>
	<circle fill="#3AB548" cx="38.113" cy="38.022" r="38.113"/>
	<g>
		<path fill="#FFFFFF" d="M49.253,20.405l-2.548,5.59c-1.388-1.508-3.604-2.262-6.655-2.262c-4.42,0-7.444,2.704-9.074,8.11h13.339
			l-1.431,3.927H30.22c-0.054,0.692-0.079,1.379-0.079,2.054c0,0.71,0.025,1.406,0.079,2.079h10.998l-1.404,3.928h-8.866
			c1.474,4.854,4.353,7.279,8.633,7.279c3.468,0,6.022-1.24,7.671-3.719v7.125c-2.047,1.732-4.767,2.6-8.164,2.6
			c-4.058,0-7.375-1.23-9.959-3.693c-2.392-2.287-3.994-5.482-4.811-9.592h-3.302v-3.928h2.781
			c-0.104-1.454-0.112-2.833-0.025-4.132h-2.756v-3.927h3.302c0.901-4.091,2.626-7.401,5.175-9.932
			c2.791-2.791,6.181-4.186,10.166-4.186S46.844,18.62,49.253,20.405z"/>
	</g>
</g>
</svg>
