<?xml version="1.0" encoding="utf-8"?>
<!-- Generator: Adobe Illustrator 14.0.0, SVG Export Plug-In . SVG Version: 6.00 Build 43363)  -->
<!DOCTYPE svg PUBLIC "-//W3C//DTD SVG 1.1//EN" "http://www.w3.org/Graphics/SVG/1.1/DTD/svg11.dtd">
<svg version="1.1" id="Ebene_1" xmlns="http://www.w3.org/2000/svg" xmlns:xlink="http://www.w3.org/1999/xlink" x="0px" y="0px"
	 width="76.225px" height="76.225px" viewBox="0.5 0.5 76.225 76.225" enable-background="new 0.5 0.5 76.225 76.225"
	 xml:space="preserve">
<g>
	<circle fill="#504EA8" cx="38.612" cy="38.612" r="38.112"/>
	<path fill="#FFFFFF" d="M15.586,39.576c0.512,12.274,10.629,22.11,23.026,22.11s22.517-9.836,23.027-22.11
		c0.025-0.074,0.047-0.155,0.047-0.243c0-0.049-0.02-0.096-0.028-0.146c0.003-0.189,0.028-0.38,0.028-0.573
		c0-12.724-10.351-23.074-23.074-23.074c-12.723,0-23.074,10.352-23.074,23.074c0,0.193,0.025,0.384,0.03,0.573
		c-0.011,0.05-0.03,0.097-0.03,0.146C15.537,39.421,15.558,39.502,15.586,39.576z M51.478,48.336
		c-1.902-0.798-3.945-1.41-6.08-1.833c0.228-2.096,0.363-4.272,0.405-6.448h7.183C52.853,43.018,52.326,45.816,51.478,48.336z
		 M54.426,40.053h5.746c-0.27,4.049-1.642,7.793-3.839,10.933c-1.096-0.769-2.275-1.47-3.543-2.078
		C53.719,46.213,54.289,43.219,54.426,40.053z M33.404,47.679c1.697-0.265,3.441-0.415,5.208-0.415s3.51,0.15,5.208,0.413
		c-1.002,7.692-3.188,12.565-5.208,12.565C36.594,60.245,34.407,55.372,33.404,47.679z M35.596,59.76
		c-3.968-1.271-7.323-5.004-9.35-10.072c1.797-0.756,3.729-1.348,5.754-1.754C32.663,52.977,33.872,57.37,35.596,59.76z
		 M33.239,30.983c1.755,0.271,3.555,0.419,5.373,0.419c1.819,0,3.618-0.147,5.373-0.419c0.249,2.335,0.396,4.889,0.396,7.631H32.844
		C32.844,35.872,32.99,33.318,33.239,30.983z M44.359,40.053c-0.041,2.199-0.17,4.271-0.375,6.188
		c-1.753-0.271-3.554-0.42-5.373-0.42s-3.618,0.148-5.373,0.42c-0.205-1.918-0.333-3.988-0.375-6.188H44.359z M45.222,47.932
		c2.024,0.406,3.957,0.998,5.755,1.754c-2.024,5.068-5.382,8.804-9.349,10.072C43.352,57.37,44.561,52.977,45.222,47.932z
		 M45.823,38.614c0-2.647-0.146-5.333-0.425-7.891c2.134-0.424,4.178-1.041,6.079-1.832c0.988,2.926,1.557,6.225,1.557,9.723H45.823
		z M45.222,29.295c-0.662-5.045-1.87-9.438-3.593-11.828c3.966,1.27,7.323,5.005,9.349,10.071
		C49.179,28.297,47.248,28.886,45.222,29.295z M43.821,29.548c-1.699,0.265-3.442,0.412-5.209,0.412s-3.51-0.147-5.208-0.412
		c1.004-7.692,3.188-12.565,5.208-12.565C40.633,16.981,42.817,21.854,43.821,29.548z M32.001,29.295
		c-2.024-0.407-3.957-1.001-5.754-1.757c2.025-5.066,5.382-8.803,9.35-10.071C33.872,19.856,32.663,24.25,32.001,29.295z
		 M31.826,30.723c-0.277,2.558-0.425,5.242-0.425,7.891H24.19c0-3.498,0.568-6.797,1.556-9.723
		C27.65,29.684,29.692,30.301,31.826,30.723z M31.422,40.053c0.042,2.175,0.177,4.354,0.404,6.448
		c-2.135,0.423-4.178,1.038-6.08,1.833c-0.85-2.52-1.376-5.316-1.509-8.279h7.184L31.422,40.053L31.422,40.053z M24.436,48.907
		c-1.268,0.608-2.447,1.312-3.543,2.078c-2.196-3.138-3.569-6.884-3.84-10.933h5.747C22.934,43.219,23.507,46.213,24.436,48.907z
		 M21.758,52.141c0.988-0.692,2.042-1.33,3.184-1.885c1.447,3.586,3.53,6.562,6.035,8.568
		C27.334,57.448,24.157,55.127,21.758,52.141z M46.249,58.827c2.505-2.01,4.588-4.987,6.036-8.569
		c1.142,0.555,2.195,1.19,3.184,1.885C53.067,55.124,49.89,57.448,46.249,58.827z M54.475,38.614c0-3.704-0.616-7.191-1.687-10.297
		c1.268-0.607,2.447-1.309,3.543-2.076c2.457,3.51,3.912,7.771,3.912,12.373H54.475z M55.468,25.086
		c-0.987,0.691-2.042,1.327-3.184,1.885c-1.447-3.586-3.53-6.562-6.036-8.572C49.89,19.778,53.067,22.101,55.468,25.086z
		 M30.975,18.397c-2.503,2.01-4.588,4.986-6.035,8.572c-1.14-0.558-2.194-1.192-3.184-1.885
		C24.157,22.1,27.334,19.778,30.975,18.397z M20.892,26.241c1.096,0.769,2.274,1.469,3.543,2.076
		c-1.069,3.104-1.688,6.593-1.688,10.297H16.98C16.98,34.01,18.435,29.751,20.892,26.241z"/>
</g>
</svg>
