<?xml version="1.0" encoding="utf-8"?>
<!-- Generator: Adobe Illustrator 14.0.0, SVG Export Plug-In . SVG Version: 6.00 Build 43363)  -->
<!DOCTYPE svg PUBLIC "-//W3C//DTD SVG 1.1//EN" "http://www.w3.org/Graphics/SVG/1.1/DTD/svg11.dtd">
<svg version="1.1" id="Ebene_1" xmlns="http://www.w3.org/2000/svg" xmlns:xlink="http://www.w3.org/1999/xlink" x="0px" y="0px"
	 width="76.224px" height="76.224px" viewBox="0 0 76.224 76.224" enable-background="new 0 0 76.224 76.224" xml:space="preserve">
<circle fill="#E48D25" cx="38.112" cy="38.111" r="38.112"/>
<path fill="#FFFFFF" d="M55.6,41.359H40.614V18.942H20.623v38.338h24.395v-9.865h5.054v9.865H55.6V41.359z M28.928,44.156h-5.052
	v-5.268h5.052V44.156z M28.928,35.832h-5.052v-5.268h5.052V35.832z M28.928,27.393h-5.052v-5.268h5.052V27.393z M37.199,52.664
	h-5.052v-5.268h5.052V52.664z M37.199,44.156h-5.052v-5.268h5.052V44.156z M37.199,35.832h-5.052v-5.268h5.052V35.832z
	 M37.199,27.393h-5.052v-5.268h5.052V27.393z M28.928,52.673h-5.052v-5.268h5.052V52.673z"/>
</svg>
