<?xml version="1.0" encoding="utf-8"?>
<!-- Generator: Adobe Illustrator 14.0.0, SVG Export Plug-In . SVG Version: 6.00 Build 43363)  -->
<!DOCTYPE svg PUBLIC "-//W3C//DTD SVG 1.1//EN" "http://www.w3.org/Graphics/SVG/1.1/DTD/svg11.dtd">
<svg version="1.1" id="Ebene_1" xmlns="http://www.w3.org/2000/svg" xmlns:xlink="http://www.w3.org/1999/xlink" x="0px" y="0px"
	 width="171px" height="35px" viewBox="-0.538 -0.476 171 35" enable-background="new -0.538 -0.476 171 35" xml:space="preserve">
<g>
	<polygon fill="#fff" points="33.843,0.001 57.547,0.001 57.547,6.937 41.218,6.937 41.218,12.226 55.791,12.226 55.791,19.161 
		41.218,19.161 41.218,27.237 57.547,27.237 57.547,34.174 33.843,34.174 	"/>
	<polygon fill="#fff" points="85.289,0.001 108.992,0.001 108.992,6.937 92.664,6.937 92.664,12.226 107.238,12.226 
		107.238,19.161 92.664,19.161 92.664,27.237 108.992,27.237 108.992,34.174 85.289,34.174 	"/>
	<path fill="#fff" d="M151.527,0c10.894,0,18.523,7.644,18.523,17.072c0,9.428-7.631,17.071-18.523,17.071
		c-10.891,0-18.521-7.644-18.521-17.071C133.005,7.644,140.636,0,151.527,0L151.527,0z M140.437,17.073
		c0,5.605,4.304,10.15,11.09,10.15c6.789,0,11.093-4.545,11.093-10.15c0-5.606-4.304-10.15-11.093-10.15
		C144.74,6.922,140.437,11.467,140.437,17.073L140.437,17.073z"/>
	<path fill="#fff" d="M134.343,27.224h-7.451c-6.787,0-11.092-4.545-11.092-10.15c0-5.606,4.305-10.15,11.092-10.15h7.451V0
		h-7.451C116,0,108.369,7.644,108.369,17.073c0,9.428,7.631,17.072,18.522,17.072h7.451V27.224L134.343,27.224z"/>
	<polygon fill="#fff" points="74.842,6.92 74.842,34.181 67.467,34.181 67.467,6.92 59.127,6.92 59.127,0.004 83.686,0.004 
		83.686,6.92 	"/>
	<path fill="#fff" d="M33.735,34.17L21.054,22.263c5.218-1.185,9.098-5.65,9.098-10.978C30.152,5.053,24.842,0,18.292,0H0v34.169
		l7.395,0.004V6.938h10.888c2.399,0,4.346,1.948,4.346,4.348c0,2.4-1.946,4.333-4.346,4.333h-7.018v6.703l12.599,11.85h9.871V34.17z
		"/>
</g>
</svg>
