<?xml version="1.0" encoding="UTF-8"?>
<svg width="14px" height="14px" viewBox="0 0 14 14" version="1.1" xmlns="http://www.w3.org/2000/svg" xmlns:xlink="http://www.w3.org/1999/xlink">
    <title>3C2E8E74-620D-4690-B0B0-70A97C7DF26D</title>
    <g id="Page-1" stroke="none" stroke-width="1" fill="none" fill-rule="evenodd">
        <g id="Pricing-Page---Desktop" transform="translate(-553.000000, -903.000000)" fill="#D6A92D" fill-rule="nonzero">
            <g id="plans" transform="translate(153.000000, 459.000000)">
                <g id="essentials" transform="translate(370.000000, 56.000000)">
                    <g id="key-features" transform="translate(30.000000, 346.000000)">
                        <path d="M6.78123383,55.5624677 C8.00258523,55.5624677 9.13279073,55.2571297 10.1718507,54.6464542 C11.2109108,54.0357787 12.0357787,53.2109108 12.6464542,52.1718507 C13.2571297,51.1327907 13.5624677,50.0025852 13.5624677,48.7812338 C13.5624677,47.5598824 13.2571297,46.4296769 12.6464542,45.3906169 C12.0357787,44.3515569 11.2109108,43.5266889 10.1718507,42.9160134 C9.13279073,42.305338 8.00258523,42 6.78123383,42 C5.55988244,42 4.42967694,42.305338 3.39061692,42.9160134 C2.35155689,43.5266889 1.52668893,44.3515569 0.916013441,45.3906169 C0.305337953,46.4296769 0,47.5598824 0,48.7812338 C0,50.0025852 0.305337953,51.1327907 0.916013441,52.1718507 C1.52668893,53.2109108 2.35155689,54.0357787 3.39061692,54.6464542 C4.42967694,55.2571297 5.55988244,55.5624677 6.78123383,55.5624677 Z M5.68748644,52.499975 C5.55988244,52.499975 5.45962254,52.454402 5.38670591,52.3632565 L2.54296269,49.5195133 C2.45181721,49.4465967 2.40624426,49.3463368 2.40624426,49.2187328 C2.40624426,49.0911288 2.45181721,48.9908689 2.54296269,48.9179523 L3.14452375,48.2890475 C3.23566923,48.197902 3.34048697,48.1523291 3.45897613,48.1523291 C3.57746529,48.1523291 3.68228303,48.197902 3.7734285,48.2890475 L5.68748644,50.2031054 L9.78903916,46.1015527 C9.88018464,46.0104072 9.98500237,45.9648343 10.1034915,45.9648343 C10.2219807,45.9648343 10.3267984,46.0104072 10.4179439,46.1015527 L11.019505,46.7304575 C11.1106505,46.8033741 11.1562234,46.903634 11.1562234,47.031238 C11.1562234,47.158842 11.1106505,47.2591019 11.019505,47.3320185 L5.98826697,52.3632565 C5.91535034,52.454402 5.81509044,52.499975 5.68748644,52.499975 Z" id="check-icon"></path>
                    </g>
                </g>
            </g>
        </g>
    </g>
</svg>
