<?xml version="1.0" encoding="UTF-8"?>
<svg width="15px" height="16px" viewBox="0 0 15 16" version="1.1" xmlns="http://www.w3.org/2000/svg" xmlns:xlink="http://www.w3.org/1999/xlink">
    <title>1C0FD29E-C9A0-4157-AEB3-7505DEF34469</title>
    <g id="Page-1" stroke="none" stroke-width="1" fill="none" fill-rule="evenodd">
        <g id="Pricing-Page---Desktop-Expanded" transform="translate(-1130.000000, -2638.000000)" fill="#D6A92D" fill-rule="nonzero">
            <g id="faq" transform="translate(202.000000, 2606.000000)">
                <g id="Group" transform="translate(501.000000, 0.000000)">
                    <path d="M434.5,47.875 C438.642578,47.875 442,44.5175779 442,40.375 C442,36.2324221 438.642578,32.875 434.5,32.875 C430.357422,32.875 427,36.2324221 427,40.375 C427,44.5175779 430.357422,47.875 434.5,47.875 Z M434.5,46.46875 C431.139649,46.46875 428.40625,43.7350587 428.40625,40.375 C428.40625,37.0149413 431.139649,34.28125 434.5,34.28125 C437.860352,34.28125 440.59375,37.0149413 440.59375,40.375 C440.59375,43.7350587 437.860352,46.46875 434.5,46.46875 Z M437.3125,41.078125 C437.702148,41.078125 438.015625,40.7646481 438.015625,40.375 C438.015625,39.9853515 437.702148,39.671875 437.3125,39.671875 L431.6875,39.671875 C431.297851,39.671875 430.984375,39.9853515 430.984375,40.375 C430.984375,40.7631836 431.299316,41.078125 431.6875,41.078125 L437.3125,41.078125 Z" id="collapse-icon"></path>
                </g>
            </g>
        </g>
    </g>
</svg>
