<svg width="15" height="15" viewBox="0 0 15 15" fill="none" xmlns="http://www.w3.org/2000/svg">
<path fill-rule="evenodd" clip-rule="evenodd" d="M7.5 0C3.35742 0 0 3.35742 0 7.5C0 11.6426 3.35742 15 7.5 15C11.6426 15 15 11.6426 15 7.5C15 3.35742 11.6426 0 7.5 0ZM10.3125 6.79688H8.20312V4.6875C8.20312 4.29902 7.88848 3.98438 7.52637 3.98438C7.16426 3.98438 6.79688 4.29785 6.79688 4.6875V6.79688H4.6875C4.29785 6.79688 3.98438 7.11035 3.98438 7.5C3.98438 7.88818 4.29932 8.20312 4.6875 8.20312H6.79688V10.3125C6.79688 10.7007 7.11182 11.0156 7.5 11.0156C7.88818 11.0156 8.20312 10.7021 8.20312 10.3125V8.20312H10.3125C10.7021 8.20312 11.0156 7.88965 11.0156 7.5C11.0156 7.11035 10.7021 6.79688 10.3125 6.79688ZM1.40625 7.5C1.40625 10.8601 4.13965 13.5938 7.5 13.5938C10.8604 13.5938 13.5938 10.8601 13.5938 7.5C13.5938 4.13994 10.8604 1.40625 7.5 1.40625C4.13965 1.40625 1.40625 4.13994 1.40625 7.5Z" fill="#D6A92D"/>
</svg>
