<svg width="25px" height="21px" viewBox="0 0 25 21" version="1.1" xmlns="http://www.w3.org/2000/svg" xmlns:xlink="http://www.w3.org/1999/xlink">
  <title>0E8DA2E5-353E-44FB-A906-1A6E2533F51A</title>
  <g id="Page-1" stroke="none" stroke-width="1" fill="none" fill-rule="evenodd">
    <g id="Homepage-V4---Desktop" transform="translate(-106.000000, -1068.000000)" fill="#018ABC" fill-rule="nonzero">
      <g id="App-messaging-info" transform="translate(94.000000, 827.000000)">
        <g id="info-tabs" transform="translate(-0.000000, 218.000000)">
          <g id="controlled-communication-icon" transform="translate(12.000000, 23.500000)">
            <path d="M22.5,5 L17.5,5 L17.5,6.25 L22.5,6.25 C23.1890631,6.25 23.75,6.81093693 23.75,7.5 L23.75,15 C23.75,15.6890631 23.1890631,16.25 22.5,16.25 L20,16.25 L20,18.1863284 L16.5781248,16.25 L12.5,16.25 C11.8109369,16.25 11.25,15.6890631 11.25,15 L11.25,13.75 L10,13.7498474 L10,14.9990666 C10,16.3760197 11.1230469,17.4639106 12.464844,17.4639106 L16.25,17.5 L20.5039072,19.9074221 C20.5898428,19.9726558 20.687499,20 20.78125,20 C21.0273433,20 21.25,19.808594 21.25,19.53125 L21.25,17.4988282 L22.5,17.4988282 C23.8769531,17.4988282 25,16.3757813 25,15.0339842 L25,7.46484399 C25,6.12109423 23.8789058,5 22.5,5 Z M16.25,10 L16.25,2.46484399 C16.25,1.12304688 15.1289058,0 13.75,0 L2.5,0 C1.12304688,0 0,1.12304688 0,2.46484399 L0,9.96484399 C0,11.3789058 1.12304688,12.5 2.5,12.5 L3.75,12.5004137 L3.75,14.53125 C3.75,14.808594 3.97656262,15 4.21875,15 C4.31152344,15 4.40917969,14.9707031 4.49707031,14.9072266 L8.75,12.5 L13.75,12.4970698 C15.1289058,12.4960935 16.25,11.3789058 16.25,10 Z M8.42187524,11.25 L5,13.1875002 L5,11.25 L2.5,11.25 C1.81093752,11.25 1.25,10.6875002 1.25,10 L1.25,2.5 C1.25,1.81093693 1.81093752,1.25 2.5,1.25 L13.75,1.25 C14.4390631,1.25 15,1.81093693 15,2.5 L15,10 C15,10.6890631 14.4390631,11.25 13.75,11.25 L8.42187524,11.25 Z" id="Shape"></path>
          </g>
        </g>
      </g>
    </g>
  </g>
</svg>