<svg width="40" height="40" viewBox="0 0 40 40" fill="none" xmlns="http://www.w3.org/2000/svg">
<g id="scale-icon">
<circle id="Oval-blue-outline" cx="20" cy="19.9999" r="20" fill="#D6A92D"></circle>
<g id="Scale">
<path id="Shape" fill-rule="evenodd" clip-rule="evenodd" d="M21.572 26.9622H27.1036C28.1628 26.9622 28.9939 27.7762 28.9935 28.7796C28.9935 29.1141 28.7166 29.3854 28.375 29.3854H12.2943C11.9528 29.3854 11.6758 29.1141 11.6758 28.7796C11.6758 27.7759 12.5069 26.9622 13.5317 26.9622H19.0621V15.8023C18.1537 15.4142 17.4726 14.6096 17.2697 13.6347H12.8784C12.229 13.6347 11.6762 13.0921 11.6762 12.4231C11.6762 11.754 12.229 11.2115 12.9132 11.2115H17.8766C18.4061 10.4777 19.3246 9.99988 20.3343 9.99988C21.344 9.99988 22.2284 10.4777 22.7935 11.2115H27.7569C28.4052 11.2115 28.9591 11.754 28.9591 12.4231C28.9591 13.0921 28.44 13.6347 27.7569 13.6347H23.3656C23.1608 14.6115 22.4804 15.4142 21.572 15.8042V26.9622ZM17.8582 22.5382C17.8613 22.5874 17.8612 22.6368 17.8611 22.6935L17.8611 22.7216C17.8611 24.3913 15.6137 25.7506 12.9136 25.7506C10.2135 25.7506 8.00044 24.3925 8.00044 22.7216L8.00021 22.6667C7.99992 22.6225 7.99966 22.5826 8.00141 22.5428C8.01724 22.1826 8.19758 21.8296 10.0108 18.2802C10.3602 17.5963 10.7702 16.7938 11.2514 15.8496C11.9375 14.51 13.8896 14.515 14.5707 15.8496C15.3187 17.3127 15.8966 18.4346 16.3432 19.3015C17.6682 21.8735 17.8371 22.2012 17.8582 22.5382ZM29.4152 15.8496C28.7341 14.515 26.782 14.51 26.0959 15.8496C25.6147 16.7938 25.2047 17.5963 24.8554 18.2802C23.0421 21.8296 22.8618 22.1826 22.8459 22.5428C22.8442 22.5826 22.8444 22.6224 22.8447 22.6667V22.6668L22.845 22.7216C22.845 24.3925 25.058 25.7506 27.7929 25.7506C30.5278 25.7506 32.706 24.3921 32.706 22.7216L32.7036 22.6792C32.7008 22.629 32.6983 22.5844 32.6937 22.5399C32.6557 22.1733 32.4753 21.8214 30.8075 18.5685C30.4264 17.8253 29.9677 16.9306 29.4152 15.8496ZM24.9385 22.1159L27.7201 16.6637L30.5099 22.1159H24.9385ZM12.9098 16.6637L15.7007 22.1159H10.1289L12.9098 16.6637Z" fill="#FCFCF9"></path>
</g>
</g>
</svg>