<svg width="50" height="51" viewBox="0 0 50 51" fill="none" xmlns="http://www.w3.org/2000/svg">
<g clip-path="url(#clip0_448_4942)">
<circle cx="25" cy="25.6079" r="25" fill="#7FC8E5"></circle>
<path d="M25.5 13.6079C29.2031 13.6079 32.25 16.6548 32.25 20.3579V22.6079H33C34.6406 22.6079 36 23.9673 36 25.6079V34.6079C36 36.2954 34.6406 37.6079 33 37.6079H18C16.3125 37.6079 15 36.2954 15 34.6079V25.6079C15 23.9673 16.3125 22.6079 18 22.6079H18.75V20.3579C18.75 16.6548 21.75 13.6079 25.5 13.6079ZM25.5 16.6079C23.3906 16.6079 21.75 18.2954 21.75 20.3579V22.6079H29.25V20.3579C29.25 18.2954 27.5625 16.6079 25.5 16.6079ZM27 28.6079C27 27.811 26.2969 27.1079 25.5 27.1079C24.6562 27.1079 24 27.811 24 28.6079V31.6079C24 32.4517 24.6562 33.1079 25.5 33.1079C26.2969 33.1079 27 32.4517 27 31.6079V28.6079Z" fill="#FCFCF9"></path>
</g>
<defs>
<clipPath id="clip0_448_4942">
<rect width="50" height="50" fill="white" transform="translate(0 0.60791)"></rect>
</clipPath>
</defs>
</svg>