<svg width="15px" height="21px" viewBox="0 0 15 21" version="1.1" xmlns="http://www.w3.org/2000/svg" xmlns:xlink="http://www.w3.org/1999/xlink">
  <title>CCEB85CF-0D7F-428E-A495-FB691F864201</title>
  <g id="Page-1" stroke="none" stroke-width="1" fill="none" fill-rule="evenodd">
    <g id="Homepage-V4---Desktop" transform="translate(-111.000000, -1281.000000)" fill="#018ABC" fill-rule="nonzero">
      <g id="App-messaging-info" transform="translate(94.000000, 827.000000)">
        <g id="info-tabs" transform="translate(-0.000000, 218.000000)">
          <g id="Complete-documentation" transform="translate(0.000000, 217.000000)">
            <g id="documentation-icon-svg" transform="translate(16.999999, 19.499996)">
              <path d="M14.2695314,4.89453435 L10.1093751,0.734378099 C9.63671923,0.263363123 9.00390685,0 8.33984435,0 L2.5,0 C1.11914098,0 0,1.11914039 0,2.5 L0.000253915787,17.5 C0.000253915787,18.8808596 1.1193943,20 2.50025392,20 L12.5,20 C13.8808596,20 15,18.8808596 15,17.5 L15,6.66015625 C15,5.99609733 14.7382808,5.36328435 14.2695308,4.89453435 L14.2695314,4.89453435 Z M8.75,1.33125424 C8.92488301,1.3924253 9.08851564,1.48148775 9.22343731,1.61637068 L13.3835936,5.77652693 C13.5195315,5.91015935 13.6093748,6.07422233 13.6679685,6.25000358 L9.375,6.25000358 C9.03124988,6.25000358 8.75,5.9687531 8.75,5.62500358 L8.75,1.33125424 Z M13.75,17.5000036 C13.75,18.1890666 13.1890631,18.7500036 12.5,18.7500036 L2.5,18.7500036 C1.81093752,18.7500036 1.25,18.1890666 1.25,17.5000036 L1.25,2.50000358 C1.25,1.8109405 1.81093752,1.25000358 2.5,1.25000358 L7.5,1.25000358 L7.5,5.62500358 C7.5,6.66015983 8.33984375,7.50000358 9.375,7.50000358 L13.75,7.50000358 L13.75,17.5000036 Z M3.75,10.6250036 C3.75,10.9687531 4.03124988,11.2500036 4.375,11.2500036 L10.625,11.2500036 C10.9687495,11.2500036 11.25,10.9687531 11.25,10.6250036 C11.25,10.2812541 10.9687495,10.0000036 10.625,10.0000036 L4.375,10.0000036 C4.03124988,10.0000036 3.75,10.2812541 3.75,10.6250036 Z M10.625,12.5000036 L4.375,12.5000036 C4.03124988,12.5000036 3.75,12.7812541 3.75,13.1250036 C3.75,13.4687531 4.03124988,13.7500036 4.375,13.7500036 L10.625,13.7500036 C10.9702349,13.7500036 11.25,13.4701598 11.25,13.1250036 C11.25,12.7798474 10.9687495,12.5000036 10.625,12.5000036 Z M10.625,15.0000036 L4.375,15.0000036 C4.03124988,15.0000036 3.75,15.2812541 3.75,15.6250036 C3.75,15.9687531 4.03124988,16.2500036 4.375,16.2500036 L10.625,16.2500036 C10.9702349,16.2500036 11.25,15.9701598 11.25,15.6250036 C11.25,15.2798474 10.9687495,15.0000036 10.625,15.0000036 Z" id="Shape"></path>
            </g>
          </g>
        </g>
      </g>
    </g>
  </g>
</svg>