<svg width="40" height="40" viewBox="0 0 40 40" fill="none" xmlns="http://www.w3.org/2000/svg">
<g id="Home-icon">
<circle id="Oval-blue-outline" cx="20" cy="19.9999" r="20" fill="#D6A92D"></circle>
<g id="Home">
<path id="Path" d="M30.8057 19.4741C30.8057 20.1452 30.2824 20.66 29.6018 20.66L28.4309 20.6943L28.4309 28.0155C28.4309 28.6893 27.9066 29.2357 27.26 29.2357H23.7475C23.1009 29.2357 22.6094 28.6893 22.6094 28.0155L22.6095 23.7448C22.6095 23.4079 22.3473 23.169 22.024 23.169H18.5106C18.1873 23.169 17.9255 23.4421 17.9255 23.7448L17.9251 28.0155C17.9251 28.6893 17.4008 29.2357 16.7542 29.2357H13.242C12.5954 29.2357 12.0711 28.6893 12.0711 28.0155L12.0714 20.6943H10.8994C10.2488 20.6943 9.72842 20.1452 9.72839 19.4741C9.72838 19.0966 9.869 18.7916 10.128 18.5552L19.4628 10.0481C19.7176 9.81555 20.0091 9.74615 20.2341 9.74615C20.5094 9.74615 20.7848 9.84671 21.0055 10.0481L30.3403 18.5552C30.6667 18.7916 30.8057 19.0966 30.8057 19.4741Z" fill="#FCFCF9"></path>
</g>
</g>
</svg>