<svg width="23px" height="21px" viewBox="0 0 23 21" version="1.1" xmlns="http://www.w3.org/2000/svg" xmlns:xlink="http://www.w3.org/1999/xlink">
  <title>FAC343CE-084E-4012-AFD3-0D4908C0B59C</title>
  <g id="Page-1" stroke="none" stroke-width="1" fill="none" fill-rule="evenodd">
    <g id="Homepage-V4---Desktop" transform="translate(-107.000000, -1350.000000)" fill="#018ABC" fill-rule="nonzero">
      <g id="App-messaging-info" transform="translate(94.000000, 827.000000)">
        <g id="info-tabs" transform="translate(-0.000000, 218.000000)">
          <g id="Transparency-between-Copy" transform="translate(0.000000, 286.000000)">
            <g id="transparency-icon-svg" transform="translate(13.249980, 19.500117)">
              <path d="M22.5000197,9.99988317 C22.5000197,9.82664108 22.4285346,9.65453148 22.2882229,9.53113317 L11.6632229,0.156133175 C11.5454108,0.052382946 11.3977152,0 11.2499422,0 C11.1021692,0 10.9531444,0.052382946 10.8359569,0.156133175 L0.210956931,9.53113317 C0.0715041161,9.65613306 0,9.82800841 0,9.99988317 C0,10.3484774 0.282851458,10.6244922 0.626953244,10.6244922 C0.773749948,10.6244922 0.920742154,10.5732036 1.03828132,10.4685152 L2.50001967,9.14441466 L2.50001967,18.1248832 C2.50001967,19.1600394 3.34103525,19.9998832 4.37501967,19.9998832 L7.50041068,19.9998832 C8.53517592,19.9998832 9.37501967,19.1600394 9.37501967,18.1248832 L9.37525392,13.7498832 L13.0900973,13.7498832 L13.1250197,18.1248832 C13.1250197,19.1588676 13.9660352,19.9998832 15.0000197,19.9998832 L18.1250197,19.9998832 C19.1590041,19.9998832 20.0000197,19.1588676 20.0000197,18.1248832 L20.0000197,9.14441466 L21.4609581,10.4686332 C21.5820509,10.5741024 21.7265826,10.6248832 21.8750197,10.6248832 C22.2148639,10.6248832 22.5000197,10.3475392 22.5000197,9.99988317 Z M18.7500197,8.12488317 L18.7500197,18.1248832 C18.7500197,18.4691024 18.4698635,18.7498832 18.1250197,18.7498832 L15.0000197,18.7498832 C14.6551758,18.7498832 14.3750197,18.4691024 14.3750197,18.1248832 L14.3750197,13.7498832 C14.3750197,13.0600393 13.8140827,12.4998832 13.1250197,12.4998832 L9.37501967,12.4998832 C8.68595719,12.4998832 8.12501967,13.0600393 8.12501967,13.7498832 L8.12501967,18.1248832 C8.12501967,18.4686327 7.84376979,18.7498832 7.50001967,18.7498832 L4.37501967,18.7498832 C4.03126955,18.7498832 3.75001967,18.4686327 3.75001967,18.1248832 L3.75001967,8.12488317 C3.75001967,8.11015666 3.74261737,8.09787512 3.74162912,8.08339894 L11.2500197,1.45847678 L18.7578326,8.08347702 C18.7578326,8.09753954 18.7500197,8.10925841 18.7500197,8.12488317 Z" id="Shape"></path>
            </g>
          </g>
        </g>
      </g>
    </g>
  </g>
</svg>