<svg width="50" height="51" viewBox="0 0 50 51" fill="none" xmlns="http://www.w3.org/2000/svg">
<circle cx="25" cy="25.6079" r="25" fill="#7FC8E5"></circle>
<path fill-rule="evenodd" clip-rule="evenodd" d="M36.5594 21.6673L34.4383 19.5462C34.1594 19.2673 33.7797 19.1079 33.3813 19.1079H31V16.8579C31 15.6157 29.9922 14.6079 28.75 14.6079H21.25C20.0078 14.6079 19 15.6157 19 16.8579V19.1079H16.6211C16.2227 19.1079 15.842 19.2661 15.5608 19.5474L13.4395 21.6673C13.1582 21.9485 13 22.3329 13 22.7313V27.3579H19V25.8579C19 25.4407 19.3328 25.1079 19.75 25.1079H21.25C21.6672 25.1079 22 25.4407 22 25.8579V27.3579H28V25.8579C28 25.4407 28.3328 25.1079 28.75 25.1079H30.25C30.6672 25.1079 31 25.4407 31 25.8579V27.3579H37V22.7313C37 22.3329 36.8406 21.9485 36.5594 21.6673ZM28.75 19.1079H21.25V16.8579H28.75V19.1079ZM30.25 31.1079C30.666 31.1079 31 30.7739 31 30.3579V28.8579H37V34.1079C37 34.9338 36.3259 35.6079 35.5 35.6079H14.5C13.6741 35.6079 13 34.9338 13 34.1079V28.8579H19V30.3579C19 30.7751 19.3328 31.1079 19.75 31.1079H21.25C21.6672 31.1079 22 30.7751 22 30.3579V28.8579H28V30.3579C28 30.7739 28.334 31.1079 28.75 31.1079H30.25Z" fill="#FCFCF9"></path>
</svg>