<svg width="15px" height="21px" viewBox="0 0 15 21" version="1.1" xmlns="http://www.w3.org/2000/svg" xmlns:xlink="http://www.w3.org/1999/xlink">
  <title>CE146209-201F-492B-9B96-179F5FCF49CF</title>
  <g id="Page-1" stroke="none" stroke-width="1" fill="none" fill-rule="evenodd">
    <g id="Homepage-V4---Desktop" transform="translate(-111.000000, -1212.000000)" fill="#018ABC" fill-rule="nonzero">
      <g id="App-messaging-info" transform="translate(94.000000, 827.000000)">
        <g id="info-tabs" transform="translate(-0.000000, 218.000000)">
          <g id="Transparency-between" transform="translate(0.000000, 148.000000)">
            <g id="accountable-icon-svg" transform="translate(17.000001, 19.500000)">
              <path d="M4.3749994,5 L10.6249994,5 C10.9687489,5 11.2499994,4.71874952 11.2499994,4.375 C11.2499994,4.03125048 10.9687489,3.75 10.6249994,3.75 L9.65312421,3.75 C9.86718714,3.3808589 9.9999994,2.95781255 9.9999994,2.5 C9.9999994,1.11914039 8.88085902,0 7.4999994,0 C6.11913979,0 4.9999994,1.11914039 4.9999994,2.5 C4.9999994,2.95781255 5.13199151,3.3808589 5.34675717,3.75 L4.3749994,3.75 C4.03124928,3.75 3.7499994,4.03125048 3.7499994,4.375 C3.7499994,4.71874952 4.03124928,5 4.3749994,5 Z M7.4999994,1.25 C8.18906188,1.25 8.7499994,1.81093693 8.7499994,2.5 C8.7499994,3.18906307 8.18906188,3.75 7.4999994,3.75 C6.81093693,3.75 6.2499994,3.18906307 6.2499994,2.5 C6.2499994,1.81093693 6.81249917,1.25 7.4999994,1.25 Z M12.5,2.5 C12.1545309,2.5 11.8749994,2.77953148 11.8749994,3.125 C11.8749994,3.47046852 12.1562499,3.75 12.5,3.75 C13.1890625,3.75 13.7499994,4.31015611 13.7499994,5 L13.7499994,17.5 C13.7499994,18.1898439 13.1890625,18.75 12.5,18.75 L2.5,18.75 C1.81093693,18.75 1.2499994,18.1898439 1.2499994,17.5 L1.2499994,5 C1.2499994,4.31015611 1.81093693,3.75 2.5,3.75 C2.84546852,3.75 3.125,3.47046852 3.125,3.125 C3.125,2.77953148 2.84531236,2.5 2.5,2.5 C1.12109363,2.5 0,3.62187505 0,5 L0,17.5 C0,18.878125 1.12109363,20 2.5,20 L12.5,20 C13.8789058,20 15,18.878125 15,17.5 L15,5 C15,3.62187505 13.8789058,2.5 12.5,2.5 L12.5,2.5 Z M2.8125,10 C2.8125,10.5175781 3.23242188,10.9375 3.75,10.9375 C4.26796913,10.9375 4.6875006,10.5175781 4.6875006,10 C4.6875006,9.48203146 4.26796913,9.0625 3.75,9.0625 C3.23242188,9.0625 2.8125,9.48046863 2.8125,10 Z M3.75,12.8125 C3.23242188,12.8125 2.8125,13.2320309 2.8125,13.75 C2.8125,14.2675781 3.23242188,14.6875 3.75,14.6875 C4.26796913,14.6875 4.6875006,14.2675781 4.6875006,13.75 C4.6875006,13.2304692 4.26953197,12.8125 3.7500006,12.8125 L3.75,12.8125 Z M11.8750006,9.375 L6.8750006,9.375 C6.53125048,9.375 6.2500006,9.65624988 6.2500006,10 C6.2500006,10.3437495 6.52953207,10.625 6.8750006,10.625 L11.8750006,10.625 C12.2187501,10.625 12.5000006,10.3437495 12.5000006,10 C12.5000006,9.65625048 12.2187501,9.375 11.8750006,9.375 Z M11.8750006,13.125 L6.8750006,13.125 C6.53125048,13.125 6.2500006,13.4062505 6.2500006,13.75 C6.2500006,14.0937495 6.52953207,14.375 6.8750006,14.375 L11.8750006,14.375 C12.2204691,14.375 12.5000006,14.0954685 12.5000006,13.75 C12.5000006,13.4045315 12.2187501,13.125 11.8750006,13.125 Z" id="Shape"></path>
            </g>
          </g>
        </g>
      </g>
    </g>
  </g>
</svg>