<svg width="50" height="51" viewBox="0 0 50 51" fill="none" xmlns="http://www.w3.org/2000/svg">
<circle cx="25" cy="25.6079" r="25" fill="#7FC8E5"></circle>
<path fill-rule="evenodd" clip-rule="evenodd" d="M25.525 13.7045L36.5125 17.9265C36.8078 18.0348 37 18.3142 37 18.6282V20.3579C37 20.7704 36.6625 21.1079 36.25 21.1079H13.75C13.3354 21.1079 13 20.7704 13 20.3579V18.6282C13 18.3001 13.2183 18.0259 13.4866 17.9265L24.4741 13.7041C24.6147 13.6499 24.8506 13.6077 25 13.6077C25.15 13.6077 25.3891 13.6499 25.525 13.7045ZM35.5 34.6079H36.25C36.6625 34.6079 37 34.9454 37 35.3579V36.8579C37 37.2704 36.6625 37.6079 36.25 37.6079H13.75C13.3375 37.6079 13 37.2704 13 36.8579V35.3579C13 34.9454 13.3375 34.6079 13.75 34.6079H14.5V33.1079C14.5 32.2796 15.1717 31.6079 16 31.6079V22.6079H19V31.6079H23.5V22.6079H26.5V31.6079H31V22.6079H34V31.6079C34.8283 31.6079 35.5 32.2796 35.5 33.1079V34.6079Z" fill="#FCFCF9"></path>
</svg>