<?xml version="1.0" encoding="utf-8"?>
<svg version="1.1" id="Layer_1" xmlns="http://www.w3.org/2000/svg" x="0px" y="0px" viewBox="0 0 30 28.1" xml:space="preserve">
<style type="text/css">
	.st0{fill:#0971CE;}
	.st1{fill:#0B1E60;}
	.st2{fill:#FAF9F3;}
	.st3{fill:#84B8E6;}
</style>
<path class="st2" d="M6.6,28.1H0.8V9.4h5.8V28.1z M3.5,7L3.5,7C1.8,7.2,0.2,5.9,0,4.1C0,4,0,3.9,0,3.8C-0.1,1.9,1.3,0.2,3.2,0
	C5.2-0.1,6.9,1.3,7,3.2C7.2,5.2,5.7,6.9,3.8,7C3.7,7,3.6,7,3.5,7z M30,28.1h-6.6v-9.7c0-2.5-1-4.3-3.3-4.3c-1.4,0-2.7,0.9-3.2,2.3
	c-0.1,0.5-0.2,1-0.1,1.5v10.1h-6.6c0,0,0-17.1,0-18.7h6.6v2.9c1.1-2.1,3.4-3.3,5.8-3.1c4.2,0,7.4,2.7,7.4,8.5L30,28.1z"/>
</svg>
