<svg width="96" height="16" viewBox="0 0 96 16" fill="none" xmlns="http://www.w3.org/2000/svg">
<path fill-rule="evenodd" clip-rule="evenodd" d="M12.7019 15.4999C12.9808 15.4999 13.0962 15.273 13.0962 15.0273C13.0962 14.9611 13.0962 14.9044 13.0865 14.8383L12.2596 10.1124L15.75 6.76642C15.875 6.64355 16 6.48286 16 6.31273C16 6.02918 15.6923 5.91576 15.4615 5.87795L10.6346 5.18797L8.47115 0.887402C8.38462 0.707817 8.22115 0.499878 8 0.499878C7.77885 0.499878 7.61538 0.707817 7.52885 0.887402L5.36538 5.18797L0.538462 5.87795C0.298077 5.91576 0 6.02918 0 6.31273C0 6.48286 0.125 6.64355 0.240385 6.76642L3.74038 10.1124L2.91346 14.8383L2.91023 14.8602C2.9018 14.9173 2.89423 14.9686 2.89423 15.0273C2.89423 15.273 3.01923 15.4999 3.29808 15.4999C3.43269 15.4999 3.55769 15.4526 3.68269 15.3865L8 13.1558L12.3173 15.3865C12.4327 15.4526 12.5673 15.4999 12.7019 15.4999ZM32.7019 15.4999C32.9808 15.4999 33.0962 15.273 33.0962 15.0273C33.0962 14.9611 33.0962 14.9044 33.0865 14.8383L32.2596 10.1124L35.75 6.76642C35.875 6.64355 36 6.48286 36 6.31273C36 6.02918 35.6923 5.91576 35.4615 5.87795L30.6346 5.18797L28.4712 0.887402C28.3846 0.707817 28.2212 0.499878 28 0.499878C27.7788 0.499878 27.6154 0.707817 27.5288 0.887402L25.3654 5.18797L20.5385 5.87795C20.2981 5.91576 20 6.02918 20 6.31273C20 6.48286 20.125 6.64355 20.2404 6.76642L23.7404 10.1124L22.9135 14.8383L22.9102 14.8603V14.8603C22.9018 14.9173 22.8942 14.9686 22.8942 15.0273C22.8942 15.273 23.0192 15.4999 23.2981 15.4999C23.4327 15.4999 23.5577 15.4526 23.6827 15.3865L28 13.1558L32.3173 15.3865C32.4327 15.4526 32.5673 15.4999 32.7019 15.4999ZM53.0962 15.0273C53.0962 15.273 52.9808 15.4999 52.7019 15.4999C52.5673 15.4999 52.4327 15.4526 52.3173 15.3865L48 13.1558L43.6827 15.3865C43.5577 15.4526 43.4327 15.4999 43.2981 15.4999C43.0192 15.4999 42.8942 15.273 42.8942 15.0273C42.8942 14.9686 42.9018 14.9174 42.9102 14.8604L42.9102 14.8603L42.9135 14.8383L43.7404 10.1124L40.2404 6.76642C40.125 6.64355 40 6.48286 40 6.31273C40 6.02918 40.2981 5.91576 40.5385 5.87795L45.3654 5.18797L47.5288 0.887402C47.6154 0.707817 47.7788 0.499878 48 0.499878C48.2212 0.499878 48.3846 0.707817 48.4712 0.887402L50.6346 5.18797L55.4615 5.87795C55.6923 5.91576 56 6.02918 56 6.31273C56 6.48286 55.875 6.64355 55.75 6.76642L52.2596 10.1124L53.0865 14.8383C53.0962 14.9044 53.0962 14.9611 53.0962 15.0273ZM72.7019 15.4999C72.9808 15.4999 73.0962 15.273 73.0962 15.0273C73.0962 14.9611 73.0962 14.9044 73.0865 14.8383L72.2596 10.1124L75.75 6.76642C75.875 6.64355 76 6.48286 76 6.31273C76 6.02918 75.6923 5.91576 75.4615 5.87795L70.6346 5.18797L68.4712 0.887402C68.3846 0.707817 68.2212 0.499878 68 0.499878C67.7788 0.499878 67.6154 0.707817 67.5288 0.887402L65.3654 5.18797L60.5385 5.87795C60.2981 5.91576 60 6.02918 60 6.31273C60 6.48286 60.125 6.64355 60.2404 6.76642L63.7404 10.1124L62.9135 14.8383L62.9102 14.8603L62.9102 14.8604C62.9018 14.9174 62.8942 14.9686 62.8942 15.0273C62.8942 15.273 63.0192 15.4999 63.2981 15.4999C63.4327 15.4999 63.5577 15.4526 63.6827 15.3865L68 13.1558L72.3173 15.3865C72.4327 15.4526 72.5673 15.4999 72.7019 15.4999ZM93.0962 15.0273C93.0962 15.273 92.9808 15.4999 92.7019 15.4999C92.5673 15.4999 92.4327 15.4526 92.3173 15.3865L88 13.1558L83.6827 15.3865C83.5577 15.4526 83.4327 15.4999 83.2981 15.4999C83.0192 15.4999 82.8942 15.273 82.8942 15.0273C82.8942 14.9686 82.9018 14.9173 82.9102 14.8602C82.9113 14.853 82.9124 14.8457 82.9135 14.8383L83.7404 10.1124L80.2404 6.76642C80.125 6.64355 80 6.48286 80 6.31273C80 6.02918 80.2981 5.91576 80.5385 5.87795L85.3654 5.18797L87.5288 0.887402C87.6154 0.707817 87.7788 0.499878 88 0.499878C88.2212 0.499878 88.3846 0.707817 88.4712 0.887402L90.6346 5.18797L95.4615 5.87795C95.6923 5.91576 96 6.02918 96 6.31273C96 6.48286 95.875 6.64355 95.75 6.76642L92.2596 10.1124L93.0865 14.8383C93.0962 14.9044 93.0962 14.9611 93.0962 15.0273Z" fill="#D6A92D"/>
</svg>
