<svg width="466" height="301" viewBox="0 0 466 301" fill="none" xmlns="http://www.w3.org/2000/svg">
<path d="M355.083 191.538L354.942 191.856L355.191 192.097C361.4 198.101 367.309 202.681 371.79 204.614L371.986 204.158L371.79 204.614C399.029 216.362 418.92 208.169 426.217 203.241C455.76 183.293 463.479 155.145 461.308 125.972C460.206 111.161 456.181 75.7448 451.131 40.9396C448.607 23.5356 445.825 6.27816 443.023 -8.17895C440.225 -22.62 437.399 -34.3129 434.776 -40.5567C434.394 -41.4654 434.817 -42.5131 435.717 -42.8962C436.613 -43.2776 437.654 -42.8537 438.036 -41.9445C440.657 -35.7054 443.508 -23.9995 446.346 -9.43256C449.181 5.11858 451.994 22.4794 454.548 39.9982C459.656 75.0385 463.722 110.685 464.841 125.711C467.11 156.21 458.958 185.436 428.188 206.211L428.188 206.211C420.553 211.369 399.45 220.424 370.401 207.897C366.01 206.002 360.118 201.618 353.826 195.69L353.346 195.237L353.047 195.828C338.77 224.057 309.921 247.223 278.636 249.913L278.676 250.407L278.636 249.913C254.229 252.013 234.54 244.851 220.983 226.552C213.852 216.923 210.766 204.937 209.801 191.546C209.1 181.813 209.522 171.351 210.222 160.571C210.439 157.224 210.684 153.845 210.929 150.449C211.474 142.919 212.025 135.304 212.302 127.759C212.952 110.056 212.094 92.6237 205.788 77.4819C199.471 62.314 187.705 49.4868 166.633 40.9686C158.623 37.7295 149.216 38.1637 141.479 39.6003C133.745 41.0363 127.584 43.4931 126.028 44.3937C110.142 53.591 101.611 66.7932 98.3748 81.108C95.1413 95.4086 97.195 110.795 102.424 124.394C103.781 127.926 105.351 131.342 107.101 134.593L107.296 134.957L107.688 134.828C117.079 131.741 128.06 129.261 137.54 129.479C146.112 129.679 153.378 132.114 157.627 137.711C160.473 141.461 162.076 146.733 161.618 154.026C161.601 154.293 161.428 154.976 161.009 155.938C160.598 156.881 159.968 158.051 159.075 159.283L159.475 159.574L159.075 159.283C157.222 161.842 154.295 164.776 150.221 166.459C146.16 168.137 140.917 168.589 134.382 166.125L134.382 166.125C123.743 162.121 113.499 152.341 105.898 139.628L105.69 139.28L105.308 139.417C102.918 140.278 100.677 141.164 98.6487 142.027C79.155 150.326 68.7604 165.464 62.6137 183.568C57.0207 200.042 54.8969 218.987 52.8013 237.68C52.5381 240.028 52.2753 242.372 52.0062 244.707C49.5319 266.18 36.7068 282.956 18.3327 295.199C-0.0472456 307.445 -23.952 315.132 -48.4866 318.41C-64.279 320.521 -80.3804 312.073 -91.4036 303.255C-95.1304 300.272 -98.2568 297.253 -100.602 294.616C-102.959 291.968 -104.497 289.74 -105.085 288.341C-105.467 287.431 -105.043 286.384 -104.148 286.003C-103.251 285.621 -102.206 286.045 -101.825 286.953C-101.237 288.353 -99.7372 290.398 -97.5861 292.736C-95.4222 295.087 -92.5615 297.774 -89.2049 300.46L-88.896 300.072L-89.2048 300.461C-78.9692 308.648 -63.9227 316.871 -48.9572 314.872C-25.5595 311.746 -2.41402 304.475 15.4897 292.808C33.3983 281.139 46.0961 265.046 48.488 244.29C48.7442 242.068 48.9951 239.839 49.2463 237.609C51.4027 218.457 53.5753 199.16 59.2619 182.405C65.7623 163.261 76.7931 147.453 97.267 138.738C99.1431 137.939 101.194 137.125 103.377 136.326L103.912 136.13L103.645 135.626C101.959 132.447 100.439 129.117 99.121 125.681C93.575 111.253 91.4876 94.9965 94.9699 79.9337C98.449 64.8847 107.492 51.0027 124.26 41.2941C125.833 40.385 132.476 37.7323 140.898 36.1829C149.317 34.6342 159.418 34.2069 167.946 37.6544C189.913 46.5346 202.204 59.8068 208.851 75.4682C215.509 91.1545 216.523 109.281 215.84 127.896C215.565 135.4 215.014 142.969 214.469 150.473C214.356 152.021 214.244 153.567 214.134 155.109C213.493 164.116 212.943 172.987 212.98 181.462C213.053 197.896 215.291 212.907 223.821 224.416C236.663 241.749 255.384 248.329 278.328 246.357C308.982 243.721 337.015 220.641 350.5 192.968L350.507 192.954L350.682 192.63L350.423 192.37C349.183 191.12 347.933 189.819 346.686 188.475C333.613 174.363 320.789 155.633 317.312 141.35C315.677 134.619 316.129 128.89 318.991 124.8C320.948 122.003 324.08 119.839 328.754 118.703C337.683 116.535 344.18 118.856 348.819 122.563C353.48 126.288 356.291 131.434 357.758 134.927C365.237 152.734 363.347 172.988 355.083 191.538ZM109.701 137.916L109.099 138.11L109.429 138.649C116.452 150.126 125.75 159.065 135.618 162.782C140.983 164.805 145.369 164.482 148.808 163.095C152.235 161.712 154.679 159.291 156.213 157.175L156.213 157.175C157.221 155.782 157.956 154.067 158.051 153.839L158.083 153.761L158.088 153.677C158.452 147.649 157.281 143.127 154.817 139.879C151.074 134.944 144.627 133.216 137.463 133.05C128.611 132.844 118.471 135.094 109.701 137.916ZM351.732 188.637L352.251 189.173L352.542 188.483C359.779 171.368 361.415 152.783 354.498 136.315C353.258 133.363 350.89 128.903 346.9 125.64C342.888 122.359 337.26 120.312 329.59 122.176C326.025 123.041 323.465 124.604 321.886 126.862C319.44 130.36 319.456 135.17 320.754 140.505C322.453 147.49 326.447 155.486 331.572 163.415C336.7 171.35 342.978 179.247 349.272 186.038L349.272 186.038C350.095 186.926 350.913 187.79 351.732 188.637Z" fill="#F6F2ED" stroke="#F6F2ED" stroke-width="0.989962"/>
</svg>
