<svg width="464" height="201" viewBox="0 0 464 201" fill="none" xmlns="http://www.w3.org/2000/svg">
<path d="M79.4405 -48.459L79.441 -48.459C80.4192 -48.3482 81.1052 -48.649 81.5525 -49.1297C82.011 -49.6223 82.2557 -50.3447 82.253 -51.1253C82.2476 -52.6954 81.2581 -54.3154 79.3508 -54.5296C23.7227 -60.7549 -18.6058 -0.269623 9.14259 49.3471L8.7905 49.544L9.1426 49.3472C17.6474 64.5559 31.5641 77.0611 47.9265 82.874C47.5114 80.7329 47.2372 78.574 47.1172 76.4149C46.5475 76.151 45.9806 75.8779 45.4168 75.5959C33.0157 69.3951 22.0286 58.9063 15.957 49.0223C-12.3694 2.91818 26.951 -54.3347 79.4405 -48.459ZM47.95 76.7931C48.0881 78.9283 48.3787 81.0632 48.809 83.1802C50.9105 83.892 53.051 84.4935 55.2244 84.9762C54.7608 83.1328 54.4239 81.1753 54.2265 79.1562C52.1111 78.5069 50.0137 77.7117 47.95 76.7931ZM56.106 85.1651C57.9803 85.552 59.8783 85.8506 61.7959 86.0555L61.796 86.0555C70.7551 87.016 82.2394 84.1957 90.191 78.3133C94.1616 75.376 97.2296 71.6916 98.6793 67.3576C100.126 63.0317 99.975 58.0189 97.4394 52.3875C93.5523 43.7552 85.6893 40.0192 77.4823 40.0923C69.2603 40.1654 60.7362 44.066 55.6205 50.6638L55.3017 50.4166L55.6205 50.6638C49.775 58.1991 47.5079 67.0243 47.9006 75.8865C49.9585 76.8198 52.047 77.6277 54.1506 78.2886C53.7593 73.226 54.2424 67.8298 55.7968 62.9125C58.0828 55.6804 62.7038 49.4401 70.313 46.8774C76.5535 44.7724 84.7203 46.214 89.4136 51.1409C93.2942 55.21 93.8158 60.2985 92.3736 64.9637C90.9356 69.6156 87.5404 73.8774 83.5267 76.3824L83.5265 76.3826C74.7047 81.8819 64.7189 82.1864 55.0627 79.4051C55.265 81.3185 55.5953 83.1725 56.0423 84.9192C56.0634 85.0013 56.0846 85.0832 56.106 85.1651ZM115.741 126.501C90.892 125.791 62.5756 111.871 55.455 85.8525C53.2699 85.3828 51.1177 84.7948 49.0042 84.0966C51.1022 93.5137 55.9422 102.525 62.3849 109.578C84.63 133.928 112.467 135.977 140.886 129.609C155.1 126.425 169.442 121.137 183.28 115.491C188.62 113.313 193.889 111.079 199.045 108.892C207.238 105.418 215.148 102.065 222.609 99.2433C247.444 89.8523 273.201 86.0086 298.311 91.8037C301.359 90.4166 304.476 89.1586 307.647 88.0282C296.233 84.4028 284.272 82.508 272.336 82.5132C247.336 82.5259 223.756 91.7883 201.057 101.647C198.359 102.819 195.646 104.015 192.919 105.218C168.5 115.986 142.89 127.28 115.741 126.501ZM387.203 85.4609C362.459 79.1294 334.77 79.7767 310.173 88.0092C313.212 89.0425 316.21 90.1984 319.155 91.4739C371.532 77.1072 432.022 98.5774 458.032 148.136C458.493 149.014 459.148 149.449 459.832 149.588C460.529 149.728 461.294 149.568 461.96 149.176C463.296 148.39 464.118 146.764 463.215 145.046L463.215 145.046C447.571 115.231 419.646 93.7654 387.203 85.4609ZM334.673 100.577C329.705 97.4361 324.489 94.6793 319.094 92.327C316.037 93.1735 313.008 94.1431 310.015 95.2374C313.057 96.3262 316.085 97.5688 319.097 98.9726L318.926 99.3382L319.097 98.9726C333.74 105.8 349.881 116.443 358.465 130.683C361.598 135.876 363.499 142.615 362.452 148.166C361.926 150.952 360.654 153.451 358.411 155.287C356.169 157.122 352.995 158.263 348.719 158.407C344.012 158.565 339.633 157.111 335.546 155.001C332.365 153.358 329.341 151.308 326.467 149.296C328.256 152.351 329.491 155.566 330.215 158.837C337.164 162.838 344.692 165.603 352.768 164.061L352.844 164.457L352.768 164.061C361.192 162.454 367.772 156.566 369.069 147.911C370.578 137.828 365.759 128.373 358.632 120.221C351.509 112.075 342.134 105.293 334.673 100.577ZM319.96 151.763C320.191 152.126 320.411 152.493 320.621 152.863C322.117 151.36 323.616 149.851 325.112 148.345C324.76 148.097 324.41 147.85 324.062 147.607C322.854 146.761 321.457 147.137 320.515 148.111C319.568 149.091 319.196 150.559 319.96 151.762L319.96 151.763ZM304.943 198.947C322.739 194.543 333.048 176.246 329.501 159.357C326.62 157.679 323.856 155.807 321.217 153.967C328.293 167.837 322.236 185.42 307.583 191.607C292.109 198.143 274.061 190.782 265.602 176.741C256.472 161.585 257.804 145.592 264.829 131.729C271.848 117.878 284.556 106.132 298.237 99.3951C301.321 97.8766 304.459 96.502 307.641 95.2696C304.571 94.2444 301.488 93.3744 298.395 92.652C296.721 93.4187 295.067 94.2248 293.436 95.0704C269.613 107.418 250.106 132.217 253.767 160.334C257.009 185.225 279.406 205.263 304.943 198.947ZM308.913 88.4382C305.751 89.5349 302.641 90.7582 299.598 92.1095C302.685 92.8631 305.76 93.7636 308.823 94.8187C311.819 93.6951 314.853 92.6964 317.915 91.821C314.963 90.572 311.958 89.4433 308.913 88.4382ZM325.443 149.156C324.118 150.49 322.792 151.826 321.467 153.157C323.973 154.908 326.57 156.674 329.254 158.273C328.483 155.141 327.226 152.069 325.443 149.156Z" fill="#F6F2ED" stroke="#F6F2ED" stroke-width="0.806808"/>
</svg>
