<svg width="671" height="277" viewBox="0 0 671 277" fill="none" xmlns="http://www.w3.org/2000/svg">
<path d="M646.178 53.1987C645.066 52.854 644.442 53.6245 643.655 53.8377C642.737 54.0843 646.105 53.3158 645.178 53.4901C643.849 53.7413 651.87 51.2309 651.514 49.9513C651.209 48.839 645.476 49.4135 646.569 48.9261C648.493 48.0559 643.298 48.5286 645.321 47.9743C648.282 47.172 645.567 57.2337 645.936 60.4135C646.172 62.423 645.835 64.4031 645.351 66.3537C644.362 70.3751 642.69 74.1282 640.629 77.7063C631.072 94.3443 617.605 106.681 599.835 114.096C589.849 118.26 579.368 120.079 568.55 118.841C554.418 117.222 543.447 110.684 536.712 97.8341C535.58 95.6759 535.515 95.6684 533.63 97.1022C522.258 105.734 509.58 111.854 496.204 116.657C486.954 119.979 477.469 122.497 467.995 125.094C451.283 129.68 434.833 135.01 419.197 142.585C418.344 142.999 417.515 143.471 416.637 143.827C415.266 144.385 415.243 145.052 416.097 146.188C418.003 148.739 419.384 151.55 420.239 154.645C421.623 159.667 421.614 164.68 419.992 169.593C415.25 183.988 405.141 192.778 390.716 196.764C386.809 197.842 382.761 197.68 378.856 196.307C371.452 193.703 368.05 187.248 370.187 179.735C371.297 175.835 373.282 172.363 375.652 169.097C381.358 161.212 388.659 155.036 396.715 149.693C399.346 147.947 402.082 146.349 404.772 144.679C405.293 144.356 406.002 144.254 406.177 143.459C405.686 142.463 404.635 142.127 403.748 141.642C392.095 135.215 379.935 134.38 367.338 138.462C355.05 142.445 344.069 148.817 333.821 156.579C323.803 164.158 314.269 172.311 304.886 180.65C287.736 195.894 269.454 209.567 249.615 221.157C231.028 232.026 211.323 239.835 190.039 243.431C180.554 245.034 170.959 245.525 161.359 245.894C156.092 246.092 150.819 246.246 145.546 246.42C144.701 246.445 143.859 246.522 143.017 246.495C141.438 246.45 140.411 245.651 140.338 244.4C140.247 242.845 141.228 242.078 142.589 241.819C143.719 241.606 144.893 241.554 146.051 241.513C156.913 241.183 167.776 240.976 178.612 239.998C190.121 238.952 201.346 236.546 212.319 232.909C238.019 224.394 260.33 209.905 281.673 193.712C292.272 185.669 302.011 176.607 312.124 167.991C322.31 159.294 332.577 150.673 344.132 143.799C354.173 137.82 364.75 133.083 376.479 131.552C388.396 130 399.344 132.851 409.23 139.521C411.015 140.727 412.198 140.766 414.001 139.834C426.509 133.378 439.638 128.437 453.117 124.425C463.639 121.288 474.243 118.445 484.766 115.311C500.841 110.524 516.05 103.913 529.784 94.095C532.789 91.9485 533.771 90.0142 532.635 86.3552C530.587 79.804 530.802 73.0561 532.276 66.3552C532.778 64.0884 533.485 61.8786 534.49 59.7795C535.267 58.1523 536.21 56.6323 537.457 55.3181C539.91 52.7249 542.771 51.0572 546.467 51.9389C550.15 52.8159 551.989 55.597 553.022 58.9858C554.52 63.9192 554.019 68.7806 552.319 73.5628C550.967 77.3656 549.006 80.8578 546.564 84.0693C545.355 85.6648 544.077 87.2166 542.732 88.7019C539.285 92.5257 539.272 92.5026 541.727 96.9239C546.456 105.444 553.756 110.588 563.073 112.987C571.549 115.171 580.064 114.738 588.451 112.575C611.581 106.61 627.839 92.2456 638.5 71.2256C640.053 68.1575 646.379 56.7365 646.178 53.1987ZM389.513 192.098C392.663 191.368 395.397 190.235 398.004 188.841C406.274 184.434 412.138 177.891 415.121 168.987C417.565 161.694 416.441 154.879 411.924 148.62C411.022 147.372 410.267 147.095 408.811 147.947C404.806 150.289 400.83 152.672 397.025 155.321C390.671 159.748 384.914 164.82 380.214 171.008C377.967 173.967 376.029 177.104 374.933 180.674C373.268 186.121 375.531 190.303 380.999 191.944C383.901 192.821 386.836 192.683 389.513 192.098ZM537.913 86.757C541.058 83.5635 543.434 80.5195 545.356 77.1293C547.288 73.7068 548.762 70.129 548.986 66.141C549.12 63.6829 548.854 61.2938 547.826 59.0526C546.561 56.278 544.375 55.773 541.964 57.6725C540.179 59.0837 539.092 61.0193 538.293 63.105C536.213 68.5203 535.667 74.1281 536.312 79.8546C536.55 82.0048 536.82 84.1847 537.913 86.757Z" fill="#F6F2ED"/>
<mask id="mask0_874_663" style="mask-type:luminance" maskUnits="userSpaceOnUse" x="0" y="93" width="193" height="184">
<path d="M0.0527344 182.708L125.53 93.4203L192.626 187.712L67.1492 276.999L0.0527344 182.708Z" fill="white"/>
</mask>
<g mask="url(#mask0_874_663)">
<path d="M184.709 185.37C174.388 187.521 146.797 195.079 128.563 216.372C131.25 205.836 140.397 188.888 171.358 183.08C172.21 182.92 172.917 182.342 173.243 181.537C173.567 180.737 173.457 179.823 172.956 179.119L128.839 117.12L134.765 115.182L184.709 185.37ZM67.4909 268.63L17.6176 198.543L21.3869 193.581L65.5043 255.58C66.0053 256.284 66.8327 256.687 67.6952 256.644C68.561 256.6 69.3405 256.121 69.7702 255.368C84.2453 230.061 101.363 225.403 112.432 225.577C88.7483 234.045 72.8353 259.062 67.4909 268.63ZM19.9802 182.86C41.3933 146.797 68.1654 154.674 72.7039 156.335L118.865 221.205C111.296 220.008 98.6256 220.085 85.5847 229.365C79.4354 233.74 73.1988 240.173 67.3845 249.478L19.9802 182.86ZM119.169 112.279L166.574 178.896C133.21 186.505 124.976 207.165 122.999 218.268L76.8438 153.406C76.8234 148.741 78.4316 120.618 119.169 112.279ZM134.96 109.781L125.758 112.791L122.352 108.004C121.779 107.199 120.79 106.799 119.82 106.981C78.77 114.675 72.7231 141.144 71.9053 150.841C62.4723 148.44 35.4777 145.49 14.7628 181.738C14.2732 182.595 14.3271 183.66 14.9 184.465L18.3071 189.253L12.4504 196.961C11.7814 197.84 11.7602 199.061 12.4033 199.965L65.7399 274.919C66.2585 275.648 67.124 276.05 68.0161 275.972C68.4778 275.937 68.9097 275.777 69.2771 275.515C69.6162 275.274 69.8985 274.945 70.0853 274.558C70.3025 274.119 91.8967 230.592 125.144 227.891C125.158 227.891 125.173 227.88 125.19 227.879C125.231 227.874 125.267 227.854 125.31 227.846C125.44 227.827 125.561 227.789 125.689 227.75C125.726 227.739 125.762 227.76 125.799 227.747C125.869 227.723 125.927 227.676 125.991 227.647C126.063 227.612 126.129 227.58 126.196 227.54C126.221 227.526 126.25 227.515 126.276 227.498C126.309 227.478 126.347 227.468 126.379 227.445C126.388 227.439 126.397 227.436 126.405 227.43C126.412 227.426 126.414 227.418 126.421 227.413C126.547 227.322 126.656 227.205 126.766 227.086C126.802 227.048 126.846 227.018 126.88 226.977C126.888 226.97 126.898 226.963 126.906 226.953C126.919 226.936 126.914 226.91 126.928 226.893C126.936 226.884 126.939 226.872 126.945 226.862C126.981 226.816 127.032 226.791 127.063 226.741C146.869 196.088 189.018 189.715 189.446 189.658C189.853 189.598 190.235 189.443 190.558 189.213C190.929 188.949 191.231 188.58 191.415 188.147C191.766 187.332 191.664 186.396 191.153 185.677L137.816 110.723C137.173 109.819 136.015 109.437 134.96 109.781Z" fill="#F6F2ED"/>
</g>
<path d="M36.2811 186.56C49.6797 163.134 66.8665 169.991 67.6386 170.317C68.4811 170.681 69.4152 170.548 70.1094 170.054C70.4756 169.793 70.7755 169.437 70.9679 168.997C71.5233 167.71 70.9312 166.22 69.6456 165.664C69.434 165.568 47.6182 156.531 31.88 184.045C31.1835 185.262 31.6077 186.808 32.8216 187.506C34.0423 188.196 35.5881 187.782 36.2811 186.56Z" fill="#F6F2ED"/>
<path d="M45.3504 199.309C58.7538 175.848 75.9841 182.756 76.7087 183.067C77.5495 183.429 78.4836 183.295 79.1778 182.801C79.544 182.541 79.8448 182.186 80.0363 181.745C80.5917 180.458 80.0005 178.969 78.7149 178.413C78.4997 178.312 56.6775 169.255 40.9493 196.794C40.2519 198.009 40.6769 199.557 41.8908 200.255C43.1116 200.945 44.6565 200.529 45.3504 199.309Z" fill="#F6F2ED"/>
<path d="M85.7822 195.814C86.6239 196.177 87.5571 196.043 88.2513 195.549C88.6175 195.288 88.9174 194.932 89.1098 194.492C89.6652 193.205 89.073 191.715 87.7883 191.16C87.5749 191.061 65.7565 182.021 50.0227 209.542C49.3253 210.757 49.7495 212.303 50.9634 213.001C52.1859 213.693 53.7325 213.28 54.4238 212.056C67.8246 188.592 85.0584 195.504 85.7822 195.814Z" fill="#F6F2ED"/>
</svg>
