<svg width="15" height="15" viewBox="0 0 15 15" fill="none" xmlns="http://www.w3.org/2000/svg">
<path d="M10.2664 9.26736L9.91249 9.64042C9.91249 9.64042 9.07016 10.5265 6.77185 8.10699C4.47353 5.68745 5.31586 4.80132 5.31586 4.80132L5.5383 4.56579C6.08818 3.98767 6.1403 3.05872 5.66041 2.38012L4.68042 0.994113C4.0862 0.154106 2.93898 0.0429287 2.25843 0.759405L1.03733 2.04412C0.700553 2.39989 0.474999 2.85942 0.502221 3.37001C0.572221 4.67697 1.13066 7.4877 4.24486 10.767C7.54806 14.244 10.6475 14.3823 11.9145 14.2572C12.3158 14.2176 12.6643 14.0019 12.945 13.7054L14.0495 12.5426C14.7961 11.7577 14.5861 10.4112 13.631 9.86195L12.1455 9.0063C11.5186 8.64641 10.7564 8.75182 10.2664 9.26736Z" fill="#4969AF"/>
</svg>
