<svg width="153" height="89" viewBox="0 0 153 89" fill="none" xmlns="http://www.w3.org/2000/svg">
<path d="M1.68898 83.9506C3.93333 88.3029 10.6529 84.762 8.4086 80.4097C9.13957 81.8269 15.7564 79.5513 17.6967 79.6005C20.2607 79.6653 22.7509 80.2107 25.201 80.9216C31.1963 82.654 36.6641 85.8305 42.5991 87.7396C51.0444 90.4623 57.8557 88.665 59.8028 79.3233C60.7394 74.8368 60.5516 70.2967 60.0732 65.7812C59.4719 60.1301 59.2372 53.9045 67.0254 54.7808C69.4932 55.058 71.9164 56.8888 74.1473 57.8612C81.3744 61.0019 89.4576 61.2679 94.3263 54.0968C100.398 45.1484 95.9179 35.6256 95.7525 25.9374C95.7078 23.3287 95.9068 20.4204 97.362 18.1403C101.059 12.3439 105.982 15.6031 110.578 17.8922C115.862 20.5255 121.214 23.0694 126.802 25.0075C134.704 27.7525 144.017 28.8568 149.758 21.4084C154.682 15.0197 153.415 6.60114 147.844 1.12887C144.361 -2.29131 138.746 2.83001 142.238 6.26135C145.533 9.49598 146.679 14.5972 142.638 17.9436C139.555 20.4919 134.698 19.4681 131.331 18.527C124.67 16.6627 118.326 13.323 112.214 10.1845C105.204 6.58549 98.2763 5.16376 92.6364 11.756C86.6768 18.7215 88.2371 27.4329 89.4688 35.7553C90.211 40.7827 91.3354 50.2273 84.7119 52.4403C79.6107 54.1437 72.587 48.0768 67.421 47.0731C60.6723 45.7587 53.9684 48.3697 52.227 55.5878C50.9997 60.6733 52.8238 66.0428 52.8998 71.1462C52.9289 73.1267 53.2329 77.1997 52.1331 79.0059C49.3344 83.6108 43.1289 79.9045 39.8607 78.5901C31.1471 75.0872 22.3843 70.6924 12.6939 72.3332C7.41608 73.2273 -1.81613 77.1549 1.68675 83.9506" fill="#E8ECF9"/>
</svg>
