<svg width="152" height="90" viewBox="0 0 152 90" fill="none" xmlns="http://www.w3.org/2000/svg">
<path d="M0.774628 84.3757C3.02121 88.7281 9.74081 85.1872 7.49425 80.8326C8.22745 82.2521 14.842 79.9765 16.7846 80.0256C19.3463 80.0882 21.8366 80.6359 24.2866 81.3445C30.2819 83.0792 35.752 86.2557 41.6847 88.1647C50.1323 90.8852 56.9436 89.088 58.8906 79.7485C59.825 75.262 59.6395 70.7219 59.1589 66.2064C58.5598 60.5553 58.3251 54.3297 66.111 55.2037C68.5811 55.4809 71.0021 57.3139 73.2352 58.2841C80.4623 61.4271 88.5455 61.6931 93.4142 54.5197C99.4856 45.5736 95.0058 36.0508 94.8382 26.3625C94.7935 23.7538 94.9946 20.8456 96.4499 18.5655C100.147 12.7691 105.07 16.0283 109.666 18.3173C114.95 20.9506 120.302 23.4945 125.888 25.4326C133.792 28.1755 143.105 29.282 148.846 21.8336C153.77 15.4448 152.503 7.02631 146.932 1.55404C143.449 -1.86836 137.834 3.25518 141.326 6.68652C144.621 9.92115 145.765 15.0223 141.724 18.3687C138.643 20.9171 133.783 19.8933 130.419 18.9522C123.755 17.0856 117.411 13.7482 111.302 10.6097C104.292 7.01066 97.3619 5.58894 91.7243 12.1811C85.7624 19.1467 87.325 27.858 88.5567 36.1804C89.2988 41.2079 90.4232 50.6524 83.7997 52.8655C78.6986 54.5689 71.6727 48.502 66.5089 47.4961C59.758 46.1816 53.054 48.7948 51.3126 56.0129C50.0876 61.0985 51.9117 66.4679 51.9877 71.5713C52.0145 73.5519 52.3186 77.6248 51.221 79.431C48.4222 84.036 42.2168 80.3274 38.9464 79.0152C30.235 75.5124 21.4722 71.1153 11.7817 72.7583C6.50395 73.6525 -2.73048 77.5801 0.774628 84.3757Z" fill="#D2E4D2"/>
</svg>
