<svg width="50" height="57" viewBox="0 0 50 57" fill="none" xmlns="http://www.w3.org/2000/svg">
<path d="M13.632 26.6H11.732V30.4H13.632V26.6ZM36.432 30.4H38.332V26.6H36.432V30.4ZM13.632 15.2H11.732V19H13.632V15.2ZM21.232 19H23.132V15.2H21.232V19ZM36.432 1.9L37.7772 0.5548L37.2186 0H36.432V1.9ZM47.832 13.3H49.732V12.5134L49.1772 11.9548L47.832 13.3ZM25.032 43.7L25.8832 45.3986L26.0352 45.3226L26.172 45.22L25.032 43.7ZM13.632 30.4H36.432V26.6H13.632V30.4ZM13.632 19H21.232V15.2H13.632V19ZM44.032 53.2H6.03203V57H44.032V53.2ZM4.13203 51.3V5.7H0.332031V51.3H4.13203ZM6.03203 3.8H36.432V0H6.03203V3.8ZM45.932 13.3V51.3H49.732V13.3H45.932ZM35.0868 3.2452L46.4868 14.6452L49.1772 11.9548L37.7772 0.5548L35.0868 3.2452ZM6.03203 53.2C5.52812 53.2 5.04485 52.9998 4.68853 52.6435C4.33221 52.2872 4.13203 51.8039 4.13203 51.3H0.332031C0.332031 52.8117 0.932565 54.2616 2.00152 55.3305C3.07048 56.3995 4.5203 57 6.03203 57V53.2ZM44.032 57C45.5438 57 46.9936 56.3995 48.0625 55.3305C49.1315 54.2616 49.732 52.8117 49.732 51.3H45.932C45.932 51.8039 45.7319 52.2872 45.3755 52.6435C45.0192 52.9998 44.5359 53.2 44.032 53.2V57ZM4.13203 5.7C4.13203 5.19609 4.33221 4.71282 4.68853 4.3565C5.04485 4.00018 5.52812 3.8 6.03203 3.8V0C4.5203 0 3.07048 0.600534 2.00152 1.66949C0.932565 2.73845 0.332031 4.18827 0.332031 5.7H4.13203ZM17.3332 44.3004C17.755 43.035 18.9558 41.8608 20.4872 41.4504C21.9198 41.0666 23.7628 41.3174 25.5868 43.1452L28.2772 40.4548C25.5412 37.7188 22.315 37.0234 19.503 37.7796C16.7936 38.5092 14.5744 40.565 13.727 43.0996L17.3332 44.3004ZM25.5868 43.1452C25.6937 43.249 25.794 43.3594 25.887 43.4758L28.889 41.1426C28.6995 40.9021 28.4951 40.6737 28.2772 40.4586L25.5868 43.1452ZM25.887 43.4758C26.1834 43.8558 26.115 43.9774 26.1264 43.8938C26.134 43.8406 26.1492 43.928 25.9212 44.1332C25.5927 44.4078 25.2201 44.625 24.8192 44.7754C24.3376 44.9692 23.8352 45.1069 23.322 45.1858C23.009 45.2454 22.6888 45.2582 22.372 45.2238C22.3074 45.2086 22.4404 45.2238 22.638 45.3644C22.8804 45.5514 23.0585 45.8092 23.1477 46.102C23.2369 46.3948 23.2327 46.7081 23.1358 46.9984C23.1143 47.0614 23.0849 47.1214 23.0484 47.177C23.0408 47.1846 23.1054 47.101 23.322 46.9224C23.7552 46.5728 24.5532 46.0636 25.8832 45.4024L24.1808 42.0014C22.7482 42.7158 21.6728 43.3694 20.9356 43.966C20.5618 44.2578 20.2294 44.5991 19.9476 44.9806C19.5893 45.4604 19.402 46.0463 19.4156 46.645C19.432 46.9954 19.5278 47.3376 19.6956 47.6456C19.8635 47.9537 20.0991 48.2196 20.3846 48.4234C20.814 48.7426 21.289 48.8794 21.6386 48.9516C22.3492 49.0922 23.1586 49.0542 23.892 48.944C25.336 48.7236 27.2056 48.1004 28.4786 46.9452C29.1398 46.341 29.7668 45.4746 29.8998 44.3384C30.0366 43.1756 29.6186 42.085 28.8852 41.1464L25.887 43.4758ZM26.172 45.22C26.78 44.7551 27.4407 44.3635 28.1404 44.0534L26.6318 40.565C25.7198 40.9602 24.8078 41.496 23.892 42.18L26.172 45.22ZM28.1404 44.0534C30.6104 42.9856 32.8182 43.548 35.0792 44.6234C35.6492 44.897 36.204 45.1934 36.7664 45.4974C37.3136 45.7938 37.8912 46.1092 38.4384 46.3904C39.4872 46.9186 40.7868 47.5 42.132 47.5V43.7C41.7748 43.7 41.1896 43.5214 40.156 43.0008C39.6696 42.75 39.1604 42.4688 38.5752 42.1534C38.0052 41.8456 37.3744 41.5074 36.7132 41.1958C34.0608 39.9304 30.5914 38.855 26.6318 40.565L28.1404 44.0534Z" fill="#182D4C"/>
</svg>
