<svg width="61" height="61" viewBox="0 0 61 61" fill="none" xmlns="http://www.w3.org/2000/svg">
<g clip-path="url(#clip0_696_2041)">
<path d="M12.9375 30.3103V18.9685C12.9712 16.739 13.4444 14.5382 14.3302 12.492C15.2159 10.4458 16.4967 8.59443 18.0991 7.04406C19.7016 5.49369 21.5942 4.27476 23.6685 3.4571C25.7429 2.63944 27.9582 2.23912 30.1875 2.27909C32.4168 2.23912 34.6321 2.63944 36.7065 3.4571C38.7808 4.27476 40.6734 5.49369 42.2759 7.04406C43.8783 8.59443 45.1591 10.4458 46.0448 12.492C46.9306 14.5382 47.4038 16.739 47.4375 18.9685V30.3103M38.8125 52.951C41.1 52.951 43.2938 52.0423 44.9113 50.4248C46.5288 48.8073 47.4375 46.6135 47.4375 44.326V34.6228M38.8125 52.951C38.8125 54.3806 38.2446 55.7518 37.2336 56.7627C36.2227 57.7737 34.8516 58.3416 33.4219 58.3416H26.9531C25.5234 58.3416 24.1523 57.7737 23.1414 56.7627C22.1304 55.7518 21.5625 54.3806 21.5625 52.951C21.5625 51.5213 22.1304 50.1502 23.1414 49.1392C24.1523 48.1283 25.5234 47.5603 26.9531 47.5603H33.4219C34.8516 47.5603 36.2227 48.1283 37.2336 49.1392C38.2446 50.1502 38.8125 51.5213 38.8125 52.951ZM6.46875 23.8416H10.7812C11.3531 23.8416 11.9016 24.0688 12.3059 24.4731C12.7103 24.8775 12.9375 25.426 12.9375 25.9978V38.9353C12.9375 39.5072 12.7103 40.0557 12.3059 40.46C11.9016 40.8644 11.3531 41.0916 10.7812 41.0916H6.46875C5.325 41.0916 4.2281 40.6372 3.41935 39.8285C2.6106 39.0197 2.15625 37.9228 2.15625 36.7791V28.1541C2.15625 27.0103 2.6106 25.9134 3.41935 25.1047C4.2281 24.2959 5.325 23.8416 6.46875 23.8416ZM53.9062 41.0916H49.5938C49.0219 41.0916 48.4734 40.8644 48.069 40.46C47.6647 40.0557 47.4375 39.5072 47.4375 38.9353V25.9978C47.4375 25.426 47.6647 24.8775 48.069 24.4731C48.4734 24.0688 49.0219 23.8416 49.5938 23.8416H53.9062C55.05 23.8416 56.1469 24.2959 56.9556 25.1047C57.7644 25.9134 58.2188 27.0103 58.2188 28.1541V36.7791C58.2188 37.9228 57.7644 39.0197 56.9556 39.8285C56.1469 40.6372 55.05 41.0916 53.9062 41.0916Z" stroke="#182D4C" stroke-width="4.3125" stroke-linecap="round" stroke-linejoin="round"/>
</g>
<defs>
<clipPath id="clip0_696_2041">
<rect width="60.375" height="60.375" fill="white" transform="translate(0 0.125)"/>
</clipPath>
</defs>
</svg>
