<svg width="140" height="635" viewBox="0 0 140 635" fill="none" xmlns="http://www.w3.org/2000/svg">
<path d="M-14.3359 8.04492L14.688 32.5611C31.3895 46.6687 35.3104 70.8467 23.9232 89.5094V89.5094C12.5359 108.172 16.4568 132.35 33.1583 146.458V146.458C49.8598 160.565 53.7807 184.743 42.3935 203.406V203.406C31.0062 222.068 34.9271 246.247 51.6286 260.354V260.354C68.3301 274.462 72.251 298.64 60.8638 317.302V317.302C49.4765 335.965 53.3974 360.143 70.0989 374.251V374.251C86.8004 388.358 90.7213 412.536 79.3341 431.199V431.199C67.9468 449.861 71.8677 474.04 88.5692 488.147V488.147C105.271 502.255 109.192 526.433 97.8044 545.095V545.095C86.4172 563.758 90.3381 587.936 107.04 602.044L136.063 626.56" stroke="#C2D1D9" stroke-opacity="0.12" stroke-width="11.9505" stroke-miterlimit="10"/>
</svg>
