<svg width="104" height="635" viewBox="0 0 104 635" fill="none" xmlns="http://www.w3.org/2000/svg">
<path d="M-50.457 8.47852L-21.4331 32.9947C-4.7316 47.1023 -0.810697 71.2803 -12.1979 89.943V89.943C-23.5851 108.606 -19.6642 132.784 -2.96277 146.891V146.891C13.7387 160.999 17.6596 185.177 6.27238 203.839V203.839C-5.11485 222.502 -1.19395 246.68 15.5075 260.788V260.788C32.209 274.895 36.1299 299.073 24.7427 317.736V317.736C13.3555 336.398 17.2763 360.577 33.9778 374.684V374.684C50.6793 388.792 54.6002 412.97 43.213 431.632V431.632C31.8258 450.295 35.7467 474.473 52.4481 488.581V488.581C69.1496 502.688 73.0705 526.866 61.6833 545.529V545.529C50.2961 564.191 54.217 588.37 70.9184 602.477L99.9424 626.993" stroke="#D7EBE1" stroke-opacity="0.12" stroke-width="11.9505" stroke-miterlimit="10"/>
</svg>
