<svg width="17" height="17" viewBox="0 0 17 17" fill="none" xmlns="http://www.w3.org/2000/svg">
<path d="M8.99981 0.0712891C9.91786 0.0737372 10.3838 0.0786335 10.7861 0.0900581L10.9445 0.0957704C11.1272 0.102299 11.3076 0.110459 11.5255 0.120252C12.3937 0.161054 12.9862 0.29815 13.506 0.499713C14.0446 0.706989 14.4983 0.987708 14.9521 1.44061C15.3672 1.84842 15.6883 2.34191 15.893 2.88665C16.0945 3.40647 16.2316 3.99892 16.2724 4.868C16.2822 5.08507 16.2904 5.26542 16.2969 5.44903L16.3018 5.60734C16.314 6.00884 16.3189 6.4748 16.3206 7.39285L16.3214 8.00162V9.07064C16.3234 9.66587 16.3171 10.2611 16.3026 10.8561L16.2977 11.0145C16.2912 11.1981 16.283 11.3784 16.2732 11.5955C16.2324 12.4646 16.0937 13.0562 15.893 13.5768C15.6883 14.1216 15.3672 14.6151 14.9521 15.0229C14.5442 15.438 14.0507 15.7591 13.506 15.9638C12.9862 16.1653 12.3937 16.3024 11.5255 16.3432L10.9445 16.3677L10.7861 16.3726C10.3838 16.384 9.91786 16.3898 8.99981 16.3914L8.39104 16.3922H7.32284C6.72734 16.3943 6.13184 16.388 5.53652 16.3734L5.3782 16.3685C5.18448 16.3612 4.99081 16.3528 4.79718 16.3432C3.92891 16.3024 3.33646 16.1653 2.81582 15.9638C2.27138 15.759 1.77817 15.4379 1.3706 15.0229C0.955193 14.6152 0.633804 14.1216 0.428888 13.5768C0.227325 13.057 0.0902291 12.4646 0.0494268 11.5955L0.0249455 11.0145L0.0208654 10.8561C0.00582243 10.2611 -0.000978679 9.66587 0.000464164 9.07064V7.39285C-0.00179456 6.79763 0.00419041 6.2024 0.0184172 5.60734L0.0241295 5.44903C0.0306579 5.26542 0.0388183 5.08507 0.0486109 4.868C0.0894131 3.99892 0.226509 3.40728 0.428072 2.88665C0.633466 2.34169 0.95542 1.84818 1.37142 1.44061C1.77875 1.02569 2.27167 0.7046 2.81582 0.499713C3.33646 0.29815 3.92809 0.161054 4.79718 0.120252C5.01425 0.110459 5.19541 0.102299 5.3782 0.0957704L5.53652 0.0908741C6.13157 0.0763752 6.7268 0.0701183 7.32202 0.072105L8.99981 0.0712891ZM8.16092 4.15152C7.07878 4.15152 6.04095 4.5814 5.27576 5.34659C4.51057 6.11178 4.08069 7.1496 4.08069 8.23174C4.08069 9.31389 4.51057 10.3517 5.27576 11.1169C6.04095 11.8821 7.07878 12.312 8.16092 12.312C9.24306 12.312 10.2809 11.8821 11.0461 11.1169C11.8113 10.3517 12.2411 9.31389 12.2411 8.23174C12.2411 7.1496 11.8113 6.11178 11.0461 5.34659C10.2809 4.5814 9.24306 4.15152 8.16092 4.15152ZM8.16092 5.78361C8.48241 5.78355 8.80077 5.84682 9.09781 5.9698C9.39485 6.09279 9.66476 6.27307 9.89213 6.50036C10.1195 6.72765 10.2999 6.9975 10.423 7.29451C10.546 7.59151 10.6094 7.90984 10.6095 8.23134C10.6095 8.55283 10.5462 8.87119 10.4233 9.16823C10.3003 9.46527 10.12 9.73518 9.89271 9.96255C9.66542 10.1899 9.39557 10.3703 9.09857 10.4934C8.80156 10.6165 8.48323 10.6798 8.16174 10.6799C7.51245 10.6799 6.88976 10.422 6.43064 9.96284C5.97153 9.50372 5.7136 8.88103 5.7136 8.23174C5.7136 7.58246 5.97153 6.95976 6.43064 6.50065C6.88976 6.04153 7.51245 5.78361 8.16174 5.78361M12.446 2.92745C12.1754 2.92745 11.916 3.03492 11.7247 3.22622C11.5334 3.41751 11.4259 3.67697 11.4259 3.9475C11.4259 4.21804 11.5334 4.4775 11.7247 4.66879C11.916 4.86009 12.1754 4.96756 12.446 4.96756C12.7165 4.96756 12.976 4.86009 13.1673 4.66879C13.3586 4.4775 13.466 4.21804 13.466 3.9475C13.466 3.67697 13.3586 3.41751 13.1673 3.22622C12.976 3.03492 12.7165 2.92745 12.446 2.92745Z" fill="#4969AF"/>
</svg>
