<svg width="19" height="19" viewBox="0 0 19 19" fill="none" xmlns="http://www.w3.org/2000/svg">
<path d="M14.1168 12.9477L13.2265 13.8282C12.5705 14.4717 11.719 15.2997 10.672 16.3122C10.3573 16.6165 9.93673 16.7866 9.499 16.7866C9.06128 16.7866 8.64068 16.6165 8.326 16.3122L5.70775 13.7652C5.37825 13.4422 5.10275 13.1697 4.88125 12.9477C3.96803 12.0344 3.34613 10.8708 3.0942 9.60411C2.84226 8.33738 2.97161 7.02439 3.46588 5.83117C3.96016 4.63795 4.79716 3.61809 5.87104 2.90056C6.94492 2.18303 8.20746 1.80005 9.499 1.80005C10.7905 1.80005 12.0531 2.18303 13.127 2.90056C14.2008 3.61809 15.0378 4.63795 15.5321 5.83117C16.0264 7.02439 16.1557 8.33738 15.9038 9.60411C15.6519 10.8708 15.03 12.0344 14.1168 12.9477ZM11.374 8.53622C11.374 8.03894 11.1765 7.56202 10.8248 7.21039C10.4732 6.85876 9.99628 6.66122 9.499 6.66122C9.00172 6.66122 8.52481 6.85876 8.17318 7.21039C7.82155 7.56202 7.624 8.03894 7.624 8.53622C7.624 9.0335 7.82155 9.51041 8.17318 9.86204C8.52481 10.2137 9.00172 10.4112 9.499 10.4112C9.99628 10.4112 10.4732 10.2137 10.8248 9.86204C11.1765 9.51041 11.374 9.0335 11.374 8.53622Z" fill="#4969AF"/>
</svg>
