<svg width="17" height="17" viewBox="0 0 17 17" fill="none" xmlns="http://www.w3.org/2000/svg">
<path d="M15.1654 5.30847V11.6185C15.1654 12.1286 14.9705 12.6195 14.6205 12.9906C14.2705 13.3618 13.792 13.5852 13.2827 13.6151L13.1654 13.6185H3.83203C3.32189 13.6185 2.83102 13.4236 2.45986 13.0736C2.08869 12.7236 1.86529 12.2451 1.83536 11.7358L1.83203 11.6185V5.30847L8.1287 9.50647L8.20603 9.55047C8.29717 9.595 8.39726 9.61815 8.4987 9.61815C8.60013 9.61815 8.70023 9.595 8.79136 9.55047L8.8687 9.50647L15.1654 5.30847Z" fill="#4969AF"/>
<path d="M13.1656 2.9519C13.8856 2.9519 14.5169 3.3319 14.8689 3.90324L8.49891 8.1499L2.12891 3.90324C2.2961 3.63179 2.52577 3.40424 2.79875 3.23956C3.07174 3.07489 3.38014 2.97786 3.69824 2.95657L3.83224 2.9519H13.1656Z" fill="#4969AF"/>
</svg>
