<svg width="185" height="250" viewBox="0 0 185 250" fill="none" xmlns="http://www.w3.org/2000/svg">
<mask id="mask0_2735_1193" style="mask-type:luminance" maskUnits="userSpaceOnUse" x="0" y="0" width="77" height="20">
<path d="M76.0078 0H0.00823975V19.5203H76.0078V0Z" fill="white"/>
</mask>
<g mask="url(#mask0_2735_1193)">
<path d="M10.4109 2.81831L72.6934 10.909L61.8658 17.6824L10.4109 2.81831ZM74.9518 9.68577L0.949326 0.0894909C0.571312 0.0424421 0.241974 0.277685 0.147873 0.607025C0.00672913 1.03046 0.241974 1.4539 0.618362 1.548L61.7717 19.2334C61.9599 19.2804 62.1951 19.2334 62.3833 19.1393L75.2811 11.0502C75.4709 10.9561 75.565 10.7208 75.6121 10.5326C75.6591 10.1092 75.3768 9.73282 74.9518 9.68577Z" fill="#D2E4D2"/>
</g>
<path d="M59.1363 39.883L62.7136 18.6219C62.8077 18.2472 62.5725 17.8708 62.1961 17.7767L1.8442 0.466062C1.42076 0.371964 1.04438 0.607207 0.903233 0.983595C0.809135 1.35998 0.99733 1.73637 1.37372 1.87752L51.7919 24.7382L57.6762 40.0241C57.8173 40.4005 58.2878 40.5887 58.6642 40.4476C58.9011 40.3535 59.0893 40.1182 59.1363 39.883ZM61.1124 19.0454L58.0996 36.9676L53.1092 23.9855C53.0622 23.7973 52.921 23.6091 52.6858 23.515L11.2588 4.74585L61.1124 19.0454ZM1.37372 1.87752C1.37372 1.87752 1.42076 1.87752 1.42076 1.92457L1.37372 1.87752Z" fill="#D2E4D2"/>
<mask id="mask1_2735_1193" style="mask-type:luminance" maskUnits="userSpaceOnUse" x="0" y="0" width="54" height="35">
<path d="M53.1641 0.415527H0.00734711V34.8875H53.1641V0.415527Z" fill="white"/>
</mask>
<g mask="url(#mask1_2735_1193)">
<path d="M52.8269 24.7849C53.1562 24.5496 53.252 24.1262 53.0151 23.7498C52.7799 23.4205 52.3094 23.3264 51.98 23.5616L38.0456 33.1092L1.51482 0.700888C1.18547 0.418597 0.713367 0.465646 0.431076 0.747937C0.195835 1.07728 0.195835 1.54776 0.525173 1.83005L37.481 34.6148C37.7633 34.85 38.1397 34.897 38.4219 34.7089L52.8269 24.7849Z" fill="#D2E4D2"/>
</g>
<path d="M57.9576 40.3535C58.287 40.5888 58.7591 40.5417 58.9943 40.2124C59.2296 39.836 59.1355 39.4126 58.8061 39.1319L44.7289 29.1592C44.3996 28.924 43.9291 28.971 43.6938 29.3004C43.4586 29.6768 43.5056 30.1002 43.882 30.3825L57.9576 40.3535Z" fill="#D2E4D2"/>
<mask id="mask2_2735_1193" style="mask-type:luminance" maskUnits="userSpaceOnUse" x="0" y="1" width="77" height="20">
<path d="M76.0078 1H0.00823975V20.5203H76.0078V1Z" fill="white"/>
</mask>
<g mask="url(#mask2_2735_1193)">
<path d="M10.4109 3.81831L72.6934 11.909L61.8658 18.6824L10.4109 3.81831ZM74.9518 10.6858L0.949326 1.08949C0.571312 1.04244 0.241974 1.27768 0.147873 1.60702C0.00672913 2.03046 0.241974 2.4539 0.618362 2.548L61.7717 20.2334C61.9599 20.2804 62.1951 20.2334 62.3833 20.1393L75.2811 12.0502C75.4709 11.9561 75.565 11.7208 75.6121 11.5326C75.6591 11.1092 75.3768 10.7328 74.9518 10.6858Z" fill="#D2E4D2"/>
</g>
<path d="M59.1363 40.883L62.7136 19.6219C62.8077 19.2472 62.5725 18.8708 62.1961 18.7767L1.8442 1.46606C1.42076 1.37196 1.04438 1.60721 0.903233 1.9836C0.809135 2.35998 0.99733 2.73637 1.37372 2.87752L51.7919 25.7382L57.6762 41.0241C57.8173 41.4005 58.2878 41.5887 58.6642 41.4476C58.9011 41.3535 59.0893 41.1182 59.1363 40.883ZM61.1124 20.0454L58.0996 37.9676L53.1092 24.9855C53.0622 24.7973 52.921 24.6091 52.6858 24.515L11.2588 5.74585L61.1124 20.0454ZM1.37372 2.87752C1.37372 2.87752 1.42076 2.87752 1.42076 2.92457L1.37372 2.87752Z" fill="#D2E4D2"/>
<mask id="mask3_2735_1193" style="mask-type:luminance" maskUnits="userSpaceOnUse" x="0" y="1" width="54" height="35">
<path d="M53.1641 1.41553H0.00734711V35.8875H53.1641V1.41553Z" fill="white"/>
</mask>
<g mask="url(#mask3_2735_1193)">
<path d="M52.8269 25.7849C53.1562 25.5496 53.252 25.1262 53.0151 24.7498C52.7799 24.4205 52.3094 24.3264 51.98 24.5616L38.0456 34.1092L1.51482 1.70089C1.18547 1.4186 0.713367 1.46565 0.431076 1.74794C0.195835 2.07728 0.195835 2.54776 0.525173 2.83005L37.481 35.6148C37.7633 35.85 38.1397 35.897 38.4219 35.7089L52.8269 25.7849Z" fill="#D2E4D2"/>
</g>
<path d="M57.9576 41.3535C58.287 41.5888 58.7591 41.5417 58.9943 41.2124C59.2296 40.836 59.1355 40.4126 58.8061 40.1319L44.7289 30.1592C44.3996 29.924 43.9291 29.971 43.6938 30.3004C43.4586 30.6768 43.5056 31.1002 43.882 31.3825L57.9576 41.3535Z" fill="#D2E4D2"/>
<mask id="mask4_2735_1193" style="mask-type:luminance" maskUnits="userSpaceOnUse" x="76" y="42" width="64" height="116">
<path d="M139.93 42H76.0013V157.189H139.93V42Z" fill="white"/>
</mask>
<g mask="url(#mask4_2735_1193)">
<path d="M78.7442 42.5912C77.8079 42.2401 76.7547 42.7082 76.3451 43.6444C75.994 44.6392 76.4621 45.6925 77.3983 46.1021H77.5154L77.5739 46.1606H77.6324L77.7494 46.2191H77.8079L77.8665 46.2776H77.925L78.042 46.3361H78.1005L78.2176 46.3946L78.2761 46.4531H78.3931L78.8612 46.6872L79.0368 46.7457L79.1558 46.8042L79.2728 46.8628L79.6239 46.9798L79.741 47.0383L79.9165 47.0968L80.092 47.2138L80.4431 47.3309L80.6187 47.4479L80.7942 47.5044C81.7305 47.914 82.8442 47.4479 83.2539 46.5117C83.6635 45.5754 83.1953 44.4636 82.2571 44.054L81.906 43.937L81.7305 43.82L81.2038 43.6444L81.0868 43.5274L80.7357 43.4104L80.6187 43.3519L80.4431 43.2934L79.975 43.0593H79.858L79.5069 42.8837H79.4484L79.3313 42.8252H79.2728L79.2143 42.7667H79.0953L79.0368 42.7082H78.9782L78.9197 42.6497H78.8027V42.5912H78.7442ZM136.123 140.523C136.181 141.517 137.059 142.337 138.114 142.278C139.168 142.22 139.928 141.342 139.87 140.289V139.938L139.811 139.469V139.001L139.753 138.475L139.577 137.07L139.519 136.544V136.485C139.402 135.432 138.466 134.73 137.469 134.847C136.416 134.964 135.713 135.9 135.83 136.953V137.012L135.889 137.48L135.947 137.889L136.006 138.358V138.826L136.064 139.235L136.123 139.703V140.523ZM133.546 126.364C133.839 127.3 134.894 127.885 135.889 127.593C136.884 127.3 137.41 126.247 137.118 125.254L137.001 124.845L136.825 124.318L136.65 123.85L136.533 123.382L136.357 122.855L136.006 121.919L135.947 121.626C135.596 120.69 134.485 120.164 133.546 120.515C132.552 120.866 132.083 121.919 132.434 122.855L132.493 123.148L132.669 123.616L132.786 124.084L132.961 124.494L133.137 124.962L133.254 125.43L133.429 125.896L133.546 126.364ZM128.161 112.793C128.57 113.729 129.682 114.08 130.621 113.67C131.557 113.202 131.908 112.091 131.44 111.154L131.323 110.862L130.621 109.457L130.384 108.989L130.15 108.521L129.858 108.114L129.741 107.762C129.214 106.885 128.102 106.534 127.225 107.06C126.286 107.528 125.935 108.638 126.462 109.574L126.579 109.867L126.813 110.277L127.047 110.745L127.283 111.154L127.751 112.091L127.985 112.5L128.161 112.793ZM120.725 100.214C121.311 101.033 122.481 101.267 123.3 100.682C124.18 100.097 124.355 98.9288 123.77 98.1096L123.71 97.9925L123.125 97.1733L122.891 96.7637L122.598 96.4126L121.72 95.1838L121.545 95.0083C120.96 94.1891 119.787 94.0135 118.968 94.6572C118.149 95.2423 117.973 96.4126 118.558 97.2318L118.734 97.4074L118.968 97.817L119.261 98.1681L119.553 98.5777L119.846 98.9288L120.08 99.3384L120.374 99.746L120.667 100.156L120.725 100.214ZM111.474 88.9248C112.235 89.6855 113.405 89.6855 114.168 88.9833C114.87 88.2226 114.87 87.0523 114.168 86.3501L114.109 86.2331L113.817 85.9405L113.466 85.6479L113.171 85.3554L112.878 85.0043L112.527 84.7117L111.942 84.1266L111.591 83.834L111.416 83.6584C110.655 82.9563 109.424 83.0148 108.78 83.7755C108.078 84.5362 108.137 85.765 108.897 86.4086L109.658 87.1693L109.951 87.4034L110.245 87.696L111.474 88.9248ZM100.233 80.3836C101.169 80.8517 102.281 80.3836 102.691 79.4474C103.1 78.5112 102.691 77.4579 101.755 76.9898L100.584 76.5217L100.233 76.4046L99.9406 76.2876L99.646 76.1706L99.3535 76.1121L99.0609 75.995L98.7683 75.9365L98.4758 75.8195L97.8906 75.7024H97.8321C96.7788 75.5269 95.8406 76.1706 95.6065 77.1653C95.431 78.2186 96.1331 79.1548 97.1299 79.3304V79.3889H97.364L98.0662 79.5644L98.2417 79.6229L98.5343 79.74L98.7683 79.7985L99.0024 79.9155L99.2364 79.974L99.4705 80.0911L99.7046 80.1496L99.9406 80.2666L100.233 80.3836ZM88.4637 82.4881C89.2829 81.8465 89.3999 80.6762 88.7563 79.857C88.1126 79.0963 86.9423 78.9208 86.1231 79.5644L85.9455 79.74L85.77 79.857L85.5944 80.0325L85.4189 80.1496L85.2434 80.3251L85.0678 80.4421L84.4241 81.0858L84.2486 81.2028L84.0731 81.3784L83.956 81.5539L83.7805 81.671L83.6635 81.8465L83.3709 82.1391L83.1953 82.3126C82.4911 83.1318 82.5517 84.3021 83.3124 84.9458C84.0731 85.6479 85.3019 85.5894 85.9455 84.8287L86.0646 84.6532L86.2986 84.4191L86.4742 84.3021L86.5912 84.1851L86.7082 84.0095L86.8253 83.8925L87.0008 83.7755L87.5274 83.2488L87.703 83.1318L87.82 83.0148L87.9956 82.8977L88.2881 82.6052L88.4637 82.4881ZM83.2539 93.0773C82.9028 92.1411 81.8475 91.6729 80.8527 92.024C79.9165 92.3751 79.4484 93.4869 79.7995 94.4231L79.9165 94.6572L79.975 94.8327L80.0335 94.9498L80.092 95.1253L80.1506 95.2423L80.2091 95.4179L80.2676 95.5349L80.3846 95.6519L80.4431 95.8275L80.5016 95.9445L80.6187 96.0615L80.6772 96.2371L80.7942 96.3541L80.8527 96.4711L80.9698 96.5882L81.0868 96.7637L81.1453 96.8808L81.4964 97.2318L81.5549 97.3489L82.3741 98.1681L82.4911 98.2266C83.2539 98.8703 84.4241 98.7532 85.0678 97.9925C85.77 97.1733 85.653 96.003 84.8338 95.3594L84.7752 95.2423L84.6582 95.1838L84.4827 95.0083L84.4241 94.8913L84.3071 94.8327L84.1316 94.6572L84.0731 94.5402L83.956 94.4231L83.8975 94.3061L83.839 94.2476V94.1891L83.7805 94.072L83.6635 93.955L83.6049 93.838V93.7795L83.5464 93.721L83.4879 93.6039V93.5454L83.4294 93.4284L83.3709 93.3699V93.3114L83.2539 93.0773ZM94.0851 97.2904C93.0319 97.4074 92.3277 98.3436 92.4447 99.3384C92.5617 100.39 93.5 101.092 94.4947 100.975H94.6703L94.9043 100.916H95.1384L95.6065 100.799H95.8406L96.0746 100.741L96.3107 100.682H96.5448L96.8373 100.624L97.5395 100.448L97.8321 100.39L98.3002 100.273H98.4172C99.412 99.98 99.9992 98.9873 99.7651 97.9925C99.4705 96.9978 98.4758 96.4126 97.481 96.6467H97.4225L96.9544 96.7637L96.7788 96.8222L96.3107 96.9393H96.0746L95.8991 96.9978L95.665 97.0563H95.431L95.2554 97.1148L95.0214 97.1733H94.7873L94.6118 97.2318H94.2022L94.0851 97.2904ZM107.376 92.6092C106.496 93.1358 106.145 94.2476 106.615 95.1253C107.142 96.0615 108.254 96.4126 109.19 95.886H109.249L109.717 95.5934L110.245 95.3009L110.713 95.0668L111.65 94.4816L112.059 94.1891L112.527 93.955C113.347 93.3699 113.641 92.2581 113.054 91.3804C112.527 90.5047 111.357 90.2706 110.479 90.7972L110.128 91.0293L109.658 91.3219L109.249 91.5559L108.839 91.8485L108.371 92.0825L107.961 92.3166L107.493 92.6092H107.376ZM117.798 83.7755C117.33 84.7117 117.622 85.8235 118.558 86.2916C119.436 86.8182 120.608 86.4671 121.077 85.5309L121.194 85.3554L121.369 85.0628L121.486 84.7117L121.662 84.4191L121.779 84.1266L121.896 83.7755L122.013 83.4829L122.13 83.1318L122.247 82.8392L122.364 82.4881L122.422 82.1956L122.539 81.8465L122.598 81.5539C122.773 80.5592 122.13 79.5644 121.135 79.3889C120.138 79.1548 119.144 79.7985 118.91 80.8517V81.0273L118.792 81.4954L118.675 81.7295L118.617 81.9635L118.558 82.1956L118.441 82.4296L118.383 82.6637L117.915 83.5999L117.798 83.7755ZM116.567 71.667C117.096 72.5447 118.266 72.7787 119.144 72.1936C119.963 71.6084 120.197 70.4967 119.67 69.6189L119.612 69.5604L119.436 69.3264L119.202 69.0338L119.027 68.7412L118.792 68.4486L118.617 68.1561L118.383 67.922L118.207 67.6294L117.973 67.3369L117.739 67.1028L117.271 66.5177L117.213 66.4591C116.508 65.6984 115.338 65.6399 114.577 66.3421C113.817 66.9858 113.758 68.1561 114.402 68.9753H114.46L114.694 69.2093L114.87 69.4434L115.046 69.736L115.28 69.97L116.157 71.1403L116.333 71.4329L116.508 71.667H116.567ZM106.379 61.78C107.259 62.3651 108.429 62.1896 109.014 61.3704C109.6 60.5512 109.424 59.3809 108.605 58.7957L108.546 58.7372L108.254 58.5032L107.903 58.2691L107.61 58.035L107.259 57.801L106.966 57.5669L106.615 57.3329L106.321 57.0988L105.97 56.8647L105.677 56.6892L105.502 56.5722C104.682 55.989 103.512 56.2211 102.925 57.0988C102.34 57.918 102.574 59.0883 103.454 59.6734L103.571 59.732L104.156 60.2001L104.507 60.3756L105.092 60.8437L105.443 61.0193L106.321 61.7215L106.379 61.78ZM94.0266 53.941C94.9043 54.4676 96.0746 54.1166 96.5448 53.2388C97.0714 52.3026 96.7203 51.1908 95.7821 50.7227L95.665 50.6057L95.3725 50.4301L95.0214 50.2546L94.7288 50.079L94.3777 49.9035L94.0851 49.728L93.734 49.6109L93.4415 49.4354L93.0904 49.2598L92.7958 49.0843L92.5032 48.9088C91.567 48.4406 90.4552 48.7917 89.9871 49.728C89.519 50.6642 89.8701 51.776 90.7478 52.2441L91.0989 52.4196L91.3914 52.5367L91.9766 52.8878L92.3277 53.0633L92.6202 53.2388L92.9148 53.3559L93.2659 53.5314L93.5585 53.707L94.0266 53.941Z" fill="#D2E4D2"/>
</g>
<mask id="mask5_2735_1193" style="mask-type:luminance" maskUnits="userSpaceOnUse" x="137" y="134" width="64" height="116">
<path d="M137 249.189H200.928V134H137V249.189Z" fill="white"/>
</mask>
<g mask="url(#mask5_2735_1193)">
<path d="M140.807 150.667C140.748 149.672 139.871 148.853 138.815 148.912C137.762 148.97 137.001 149.848 137.06 150.901V151.252L137.118 151.72V152.188L137.177 152.715L137.352 154.119L137.411 154.646V154.704C137.528 155.758 138.464 156.46 139.461 156.343C140.514 156.226 141.216 155.29 141.099 154.236V154.178L141.041 153.71L140.982 153.3L140.924 152.832V152.364L140.865 151.954L140.807 151.486V150.667ZM143.383 164.826C143.091 163.889 142.036 163.304 141.041 163.597C140.046 163.889 139.519 164.943 139.812 165.935L139.929 166.345L140.105 166.872L140.28 167.34L140.397 167.808L140.573 168.334L140.924 169.271L140.982 169.563C141.333 170.499 142.445 171.026 143.383 170.675C144.378 170.324 144.846 169.271 144.495 168.334L144.437 168.042L144.261 167.574L144.144 167.106L143.969 166.696L143.793 166.228L143.676 165.76L143.5 165.294L143.383 164.826ZM148.769 178.397C148.359 177.461 147.247 177.11 146.309 177.519C145.373 177.987 145.022 179.099 145.49 180.035L145.607 180.328L146.309 181.732L146.545 182.2L146.779 182.668L147.072 183.076L147.189 183.427C147.716 184.305 148.827 184.656 149.705 184.129C150.643 183.661 150.994 182.551 150.468 181.615L150.351 181.323L150.117 180.913L149.883 180.445L149.647 180.035L149.178 179.099L148.944 178.689L148.769 178.397ZM156.204 190.976C155.619 190.156 154.449 189.922 153.63 190.507C152.75 191.093 152.574 192.261 153.159 193.08L153.22 193.197L153.805 194.016L154.039 194.426L154.332 194.777L155.209 196.006L155.385 196.181C155.97 197.001 157.142 197.176 157.962 196.532C158.781 195.947 158.956 194.777 158.371 193.958L158.196 193.782L157.962 193.373L157.669 193.022L157.377 192.612L157.084 192.261L156.85 191.851L156.555 191.444L156.263 191.034L156.204 190.976ZM165.456 202.265C164.695 201.504 163.525 201.504 162.762 202.206C162.06 202.967 162.06 204.137 162.762 204.84L162.82 204.957L163.113 205.249L163.464 205.542L163.759 205.834L164.051 206.185L164.402 206.478L164.987 207.063L165.339 207.356L165.514 207.531C166.275 208.233 167.506 208.175 168.149 207.414C168.851 206.653 168.793 205.425 168.032 204.781L167.272 204.02L166.979 203.786L166.684 203.494L165.456 202.265ZM176.696 210.806C175.76 210.338 174.648 210.806 174.239 211.742C173.829 212.678 174.239 213.732 175.175 214.2L176.345 214.668L176.696 214.785L176.989 214.902L177.284 215.019L177.576 215.078L177.869 215.195L178.161 215.253L178.454 215.37L179.039 215.487H179.098C180.151 215.663 181.089 215.019 181.323 214.024C181.499 212.971 180.797 212.035 179.8 211.859V211.801H179.566L178.864 211.625L178.688 211.567L178.395 211.45L178.161 211.391L177.927 211.274L177.693 211.216L177.459 211.099L177.225 211.04L176.989 210.923L176.696 210.806Z" fill="#D2E4D2"/>
</g>
</svg>
