<svg width="9" height="15" viewBox="0 0 9 15" fill="none" xmlns="http://www.w3.org/2000/svg">
<path d="M7.79216 6.75831C7.97651 6.94272 8.08008 7.1928 8.08008 7.45356C8.08008 7.71431 7.97651 7.96439 7.79216 8.1488L1.89192 14.049C1.70646 14.2282 1.45806 14.3273 1.20022 14.325C0.942382 14.3228 0.69574 14.2194 0.513415 14.0371C0.33109 13.8547 0.227669 13.6081 0.225429 13.3503C0.223188 13.0924 0.322307 12.844 0.501436 12.6585L5.70643 7.45356L0.501435 2.24856C0.322306 2.0631 0.223188 1.8147 0.225428 1.55686C0.227668 1.29902 0.331089 1.05238 0.513414 0.870055C0.695739 0.68773 0.942381 0.584309 1.20022 0.582069C1.45806 0.579828 1.70646 0.678947 1.89192 0.858076L7.79216 6.75831Z" fill="#F2F6FA"/>
</svg>
