<svg width="61" height="60" viewBox="0 0 61 60" fill="none" xmlns="http://www.w3.org/2000/svg">
<g clip-path="url(#clip0_696_2081)">
<path d="M30.4986 49.2856V57.857M41.2129 44.9999V53.5713M19.7843 44.9999V53.5713M35.0586 14.5241C34.8128 13.8271 34.3568 13.2236 33.7534 12.7968C33.1501 12.37 32.4291 12.1409 31.69 12.1413H28.9257C28.1418 12.1441 27.3863 12.4356 26.8037 12.9601C26.221 13.4847 25.8521 14.2055 25.7672 14.9848C25.6824 15.7642 25.8877 16.5475 26.3438 17.1851C26.8 17.8227 27.475 18.2699 28.24 18.4413L32.4529 19.367C33.3107 19.5583 34.068 20.0589 34.58 20.7733C35.0921 21.4876 35.323 22.3656 35.2286 23.2394C35.1342 24.1133 34.7212 24.9217 34.0684 25.5102C33.4157 26.0988 32.5689 26.4262 31.69 26.4299H29.3072C28.5683 26.4296 27.8476 26.2003 27.2443 25.7736C26.6411 25.3469 26.1849 24.7437 25.9386 24.047M30.4986 12.1413V8.57129M30.4986 29.9999V26.4299M12.2843 20.357C12.0002 20.357 11.7276 20.2441 11.5267 20.0432C11.3258 19.8423 11.2129 19.5697 11.2129 19.2856C11.2129 19.0014 11.3258 18.7289 11.5267 18.528C11.7276 18.327 12.0002 18.2141 12.2843 18.2141C12.5685 18.2141 12.841 18.327 13.0419 18.528C13.2429 18.7289 13.3557 19.0014 13.3557 19.2856C13.3557 19.5697 13.2429 19.8423 13.0419 20.0432C12.841 20.2441 12.5685 20.357 12.2843 20.357ZM48.7129 20.357C48.4287 20.357 48.1562 20.2441 47.9553 20.0432C47.7543 19.8423 47.6415 19.5697 47.6415 19.2856C47.6415 19.0014 47.7543 18.7289 47.9553 18.528C48.1562 18.327 48.4287 18.2141 48.7129 18.2141C48.9971 18.2141 49.2696 18.327 49.4705 18.528C49.6714 18.7289 49.7843 19.0014 49.7843 19.2856C49.7843 19.5697 49.6714 19.8423 49.4705 20.0432C49.2696 20.2441 48.9971 20.357 48.7129 20.357Z" stroke="#182D4C" stroke-width="4.28571" stroke-linecap="round" stroke-linejoin="round"/>
<path d="M54.0711 2.14282H6.92829C5.79165 2.14282 4.70156 2.59435 3.89783 3.39808C3.09411 4.20181 2.64258 5.29189 2.64258 6.42854V32.1428C2.64258 33.2795 3.09411 34.3696 3.89783 35.1733C4.70156 35.977 5.79165 36.4285 6.92829 36.4285H54.0711C55.2078 36.4285 56.2979 35.977 57.1016 35.1733C57.9053 34.3696 58.3569 33.2795 58.3569 32.1428V6.42854C58.3569 5.29189 57.9053 4.20181 57.1016 3.39808C56.2979 2.59435 55.2078 2.14282 54.0711 2.14282Z" stroke="#182D4C" stroke-width="4.28571" stroke-linecap="round" stroke-linejoin="round"/>
</g>
<defs>
<clipPath id="clip0_696_2081">
<rect width="60" height="60" fill="white" transform="translate(0.5)"/>
</clipPath>
</defs>
</svg>
