<svg width="9" height="15" viewBox="0 0 9 15" fill="none" xmlns="http://www.w3.org/2000/svg">
<path d="M0.800614 8.38964C0.61626 8.20523 0.512695 7.95515 0.512695 7.69439C0.512695 7.43364 0.61626 7.18356 0.800614 6.99915L6.70085 1.09891C6.88632 0.919784 7.13472 0.820665 7.39255 0.822907C7.65039 0.825147 7.89703 0.928568 8.07936 1.11089C8.26169 1.29322 8.36511 1.53986 8.36735 1.7977C8.36959 2.05553 8.27047 2.30394 8.09134 2.4894L2.88635 7.69439L8.09134 12.8994C8.27047 13.0849 8.36959 13.3333 8.36735 13.5911C8.36511 13.8489 8.26168 14.0956 8.07936 14.2779C7.89703 14.4602 7.65039 14.5636 7.39255 14.5659C7.13472 14.5681 6.88632 14.469 6.70085 14.2899L0.800614 8.38964Z" fill="#F2F6FA"/>
</svg>
