<svg width="19" height="19" viewBox="0 0 19 19" fill="none" xmlns="http://www.w3.org/2000/svg">
<g clip-path="url(#clip0_696_784)">
<path d="M17.6391 18.7428C17.9651 19.0689 18.4938 19.0689 18.8199 18.7428C19.146 18.4167 19.146 17.888 18.8199 17.5619L17.6391 18.7428ZM14.4827 8.44646C14.4827 11.7376 11.8147 14.4056 8.52361 14.4056V16.0756C12.7371 16.0756 16.1527 12.6599 16.1527 8.44646H14.4827ZM8.52361 14.4056C5.23248 14.4056 2.56449 11.7376 2.56449 8.44646H0.894492C0.894492 12.6599 4.31016 16.0756 8.52361 16.0756V14.4056ZM2.56449 8.44646C2.56449 5.15533 5.23248 2.48734 8.52361 2.48734V0.817344C4.31016 0.817344 0.894492 4.23302 0.894492 8.44646H2.56449ZM8.52361 2.48734C11.8147 2.48734 14.4827 5.15533 14.4827 8.44646H16.1527C16.1527 4.23302 12.7371 0.817344 8.52361 0.817344V2.48734ZM12.7861 13.8898L17.6391 18.7428L18.8199 17.5619L13.967 12.709L12.7861 13.8898Z" fill="white"/>
</g>
<defs>
<clipPath id="clip0_696_784">
<rect width="18" height="18" fill="white" transform="translate(0.979492 0.902344)"/>
</clipPath>
</defs>
</svg>
