<svg width="387" height="762" viewBox="0 0 387 762" fill="none" xmlns="http://www.w3.org/2000/svg">
<path d="M434.669 82.4916L106.415 260.756L174.498 628.056L544.867 676.834L705.67 339.61" stroke="#FBF6F3" stroke-width="2.9" stroke-miterlimit="10"/>
<path d="M431.492 99.2772L121.734 267.552L185.988 614.154L535.424 660.116L687.204 341.883" stroke="#FBF6F3" stroke-width="2.8" stroke-miterlimit="10"/>
<path d="M428.283 116.158L137.053 274.348L197.513 600.158L526.077 643.431L668.707 344.252" stroke="#FBF6F3" stroke-width="2.6" stroke-miterlimit="10"/>
<path d="M425.106 132.944L152.404 281.05L209.003 586.256L516.634 626.713L650.209 346.62" stroke="#FBF6F3" stroke-width="2.4" stroke-miterlimit="10"/>
<path d="M421.895 149.824L167.722 287.845L220.431 572.227L507.191 609.995L631.743 348.894" stroke="#FBF6F3" stroke-width="2.3" stroke-miterlimit="10"/>
<path d="M418.687 166.705L183.042 294.641L231.955 558.23L497.844 593.309L613.246 351.262" stroke="#FBF6F3" stroke-width="2.1" stroke-miterlimit="10"/>
<path d="M415.509 183.491L198.393 301.343L243.446 544.329L488.401 576.592L594.78 353.537" stroke="#FBF6F3" stroke-width="1.9" stroke-miterlimit="10"/>
</svg>
