<svg width="296" height="590" viewBox="0 0 296 590" fill="none" xmlns="http://www.w3.org/2000/svg">
<path d="M331.961 22.2422L296.903 36.8846C276.73 45.3104 265.713 67.1868 270.954 88.4116V88.4116C276.195 109.636 265.178 131.513 245.005 139.939V139.939C224.831 148.364 213.814 170.241 219.056 191.466V191.466C224.297 212.69 213.28 234.567 193.107 242.992V242.992C172.933 251.418 161.916 273.295 167.157 294.519V294.519C172.399 315.744 161.382 337.621 141.208 346.046V346.046C121.035 354.472 110.018 376.349 115.259 397.573V397.573C120.5 418.798 109.483 440.675 89.3097 449.1V449.1C69.1363 457.526 58.1192 479.403 63.3605 500.627V500.627C68.6018 521.852 57.5848 543.729 37.4113 552.154L2.35375 566.797" stroke="#C2D1D9" stroke-opacity="0.12" stroke-width="11.9505" stroke-miterlimit="10"/>
</svg>
