<svg width="238" height="145" viewBox="0 0 238 145" fill="none" xmlns="http://www.w3.org/2000/svg">
<path d="M74.6967 33.0551C72.8581 31.8654 70.4247 32.4062 69.2891 34.2448C68.0994 36.0833 68.6402 38.5168 70.4247 39.7065C71.1277 40.085 71.8307 40.3013 72.5878 40.3013C73.8856 40.3013 75.1294 39.6524 75.8864 38.4627C77.0761 36.6241 76.5352 34.2448 74.6967 33.0551Z" fill="#E1E1E1"/>
<path d="M160.461 102.056C158.622 100.92 156.188 101.407 154.999 103.246C153.863 105.084 154.404 107.518 156.243 108.707C156.892 109.14 157.595 109.356 158.352 109.356C159.649 109.356 160.893 108.707 161.65 107.518C162.84 105.679 162.299 103.246 160.461 102.056Z" fill="#E1E1E1"/>
<path d="M184.091 115.412C182.144 114.439 179.764 115.25 178.791 117.197C177.872 119.144 178.629 121.523 180.576 122.496C181.116 122.767 181.765 122.875 182.306 122.875C183.766 122.875 185.172 122.064 185.875 120.712C186.848 118.711 186.037 116.386 184.091 115.412Z" fill="#E1E1E1"/>
<path d="M234.979 133.961C232.87 133.42 230.761 134.772 230.22 136.881C229.68 138.99 230.978 141.099 233.086 141.64C233.411 141.694 233.735 141.748 234.06 141.748C235.844 141.748 237.467 140.504 237.899 138.72C238.386 136.611 237.088 134.502 234.979 133.961Z" fill="#E1E1E1"/>
<path d="M209.02 126.066C206.965 125.309 204.694 126.39 203.991 128.445C203.234 130.446 204.261 132.717 206.316 133.474C206.749 133.654 207.199 133.744 207.668 133.744C209.29 133.744 210.804 132.717 211.399 131.149C212.102 129.094 211.075 126.823 209.02 126.066Z" fill="#E1E1E1"/>
<path d="M138.453 86.2116C136.722 84.8597 134.289 85.13 132.883 86.8604C131.531 88.5368 131.801 91.0243 133.478 92.3762C134.235 92.971 135.1 93.2414 135.965 93.2414C137.101 93.2414 138.29 92.7547 139.047 91.7814C140.399 90.0509 140.129 87.5635 138.453 86.2116Z" fill="#E1E1E1"/>
<path d="M-2.20061 0.122773C-4.30957 -0.417987 -6.4185 0.87983 -6.95926 2.98879C-7.50002 5.15183 -6.20223 7.26079 -4.09327 7.74747C-3.76881 7.85563 -3.44433 7.9097 -3.11987 7.9097C-1.33537 7.9097 0.232825 6.66596 0.719509 4.88145C1.20619 2.77249 -0.0916443 0.609457 -2.20061 0.122773Z" fill="#E1E1E1"/>
<path d="M112.659 68.0965C111.145 69.6107 111.145 72.1522 112.659 73.6664C113.47 74.4234 114.444 74.856 115.471 74.856C116.498 74.856 117.472 74.4234 118.283 73.6664C119.797 72.1522 119.797 69.6107 118.283 68.0965C116.715 66.5824 114.227 66.5824 112.659 68.0965Z" fill="#E1E1E1"/>
<path d="M50.3082 19.266C48.3615 18.2926 45.9822 19.1038 45.0629 21.0505C44.0895 22.9972 44.9005 25.3766 46.8473 26.3499C47.388 26.6203 47.983 26.7285 48.5778 26.7285C50.0379 26.7285 51.4438 25.9714 52.0927 24.5654C53.0661 22.6187 52.2549 20.2393 50.3082 19.266Z" fill="#E1E1E1"/>
<path d="M24.622 8.28869C22.5671 7.53162 20.2959 8.55906 19.5388 10.6139C18.7818 12.6688 19.8633 14.94 21.9182 15.6971C22.3508 15.8413 22.7834 15.9134 23.216 15.9134C24.8382 15.9134 26.3524 14.886 26.9472 13.3177C27.7043 11.2629 26.6228 8.99167 24.622 8.28869Z" fill="#E1E1E1"/>
<path d="M97.4624 49.3857C95.7319 48.0338 93.2444 48.3042 91.8925 49.9805C90.5406 51.711 90.811 54.1985 92.4874 55.5504C93.2445 56.1452 94.1096 56.4156 94.9748 56.4156C96.1104 56.4156 97.2461 55.9289 98.0031 54.9555C99.4091 53.2251 99.1387 50.7376 97.4624 49.3857Z" fill="#E1E1E1"/>
</svg>
