<svg width="336" height="271" viewBox="0 0 336 271" fill="none" xmlns="http://www.w3.org/2000/svg">
<ellipse cx="168" cy="130.8" rx="168" ry="130.8" fill="#FBF9F3"/>
<path d="M107.915 205.603H234.52V26.5933C234.52 15.2149 225.305 6 213.927 6H128.508C117.13 6 107.915 15.2149 107.915 26.5933V205.603Z" fill="#A3ABB4"/>
<path d="M223.862 62.331H224.263C225.224 62.331 226.026 61.6098 226.026 60.6483V36.0485C226.026 35.0869 225.224 34.2856 224.263 34.2856H223.862C222.901 34.2856 222.18 35.0869 222.18 36.0485V60.6483C222.18 61.6098 222.901 62.331 223.862 62.331Z" fill="#211513"/>
<path d="M144.936 88.854C144.776 88.854 144.696 88.6938 144.696 88.6136C144.696 87.9726 144.375 30.0389 143.013 18.5803C141.731 7.28206 129.071 7.44232 128.99 7.44232C128.83 7.52245 128.75 7.36219 128.75 7.20193C128.75 7.1218 128.83 6.96154 128.99 6.96154C129.071 6.96154 142.212 6.80129 143.494 18.5002C144.856 30.0389 145.177 87.9726 145.177 88.6136C145.177 88.6938 145.096 88.854 144.936 88.854Z" fill="#211513"/>
<path d="M225.705 84.2064H149.822C149.662 84.2064 149.582 84.1262 149.582 83.966C149.582 83.8057 149.662 83.7256 149.822 83.7256H225.705C225.865 83.7256 226.026 83.8057 226.026 83.966C226.026 84.1262 225.865 84.2064 225.705 84.2064Z" fill="#211513"/>
<path d="M229.072 11.93H140.288C140.128 11.93 140.048 11.7697 140.048 11.6896C140.048 11.5294 140.128 11.4492 140.288 11.4492H229.072C229.232 11.4492 229.312 11.5294 229.312 11.6896C229.312 11.7697 229.232 11.93 229.072 11.93Z" fill="#211513"/>
<path d="M107.273 94.5432C107.273 94.5432 107.273 87.6521 106.391 86.0495C105.51 84.527 37.1595 82.9244 32.9126 95.9054C28.6657 108.886 27.4637 218.985 40.6049 238.376C53.8263 257.847 107.193 271.149 113.282 269.867C122.017 268.104 125.623 262.896 125.623 262.896L107.273 94.5432Z" fill="#B1C097"/>
<path d="M70.573 120.906C70.4127 120.906 70.3326 120.746 70.3326 120.666C70.3326 120.132 70.3592 119.517 70.4126 118.823C70.5728 112.653 71.0537 99.832 69.1306 91.7389C68.4094 88.694 66.5665 87.4119 66.5665 87.4119C66.4864 87.3318 66.4062 87.1715 66.4863 87.0113C66.5664 86.9311 66.7267 86.851 66.8869 86.9311C66.9671 87.0113 68.8901 88.3735 69.6113 91.6588C71.5344 99.7519 71.1338 112.653 70.8934 118.823C70.8934 119.517 70.8666 120.132 70.8132 120.666C70.8132 120.746 70.7332 120.906 70.573 120.906Z" fill="#211513"/>
<path d="M93.8117 119.785C93.7316 119.785 93.5713 119.624 93.5713 119.544C93.6247 119.01 93.6513 118.396 93.6513 117.701C93.8917 111.531 94.2923 98.7104 92.4493 90.6975C91.7282 87.5724 89.8853 86.2903 89.8052 86.2903C89.7251 86.2102 89.7251 86.05 89.8052 85.8897C89.8853 85.8096 89.9654 85.7294 90.1257 85.8096C90.2058 85.8897 92.1289 87.332 92.9302 90.5372C94.7732 98.6303 94.3725 111.531 94.1321 117.701C94.1321 118.396 94.1321 119.01 94.1321 119.544C94.1321 119.704 93.972 119.785 93.8117 119.785Z" fill="#211513"/>
<path d="M50.382 231.004C50.2218 231.004 50.1418 230.924 50.1418 230.844C50.0617 230.683 50.1418 230.523 50.302 230.523L67.8503 225.235C67.9305 225.154 68.0908 225.235 68.171 225.395C68.171 225.475 68.0907 225.635 68.0105 225.715L50.4622 231.004C50.4088 231.004 50.382 231.004 50.382 231.004Z" fill="#211513"/>
<path d="M97.0157 254.882C96.9623 254.882 96.9355 254.882 96.9355 254.882C96.5349 254.802 59.5951 245.107 50.4603 231.565C42.6076 219.866 43.2487 136.771 43.4891 109.527C43.4891 104.8 43.5692 101.675 43.4891 100.793C43.3288 95.0238 39.4825 93.4212 39.4024 93.4212C39.3223 93.4212 39.2422 93.261 39.2422 93.1007C39.3223 93.0206 39.4825 92.9404 39.5626 92.9404C39.803 93.0206 43.8096 94.7033 44.05 100.793C44.05 101.675 44.0499 104.8 43.9698 109.527C43.7294 136.771 43.0884 219.705 50.861 231.244C59.9156 244.626 96.6952 254.321 97.0157 254.402C97.176 254.482 97.256 254.562 97.256 254.722C97.1758 254.802 97.0959 254.882 97.0157 254.882Z" fill="#211513"/>
<path d="M157.033 170.746C157.033 170.746 173.94 178.92 187.322 168.663C206.473 153.919 189.325 56.6418 186.921 54.9591C184.678 53.4366 183.315 56.0809 183.315 56.0809C183.315 56.0809 182.354 51.4334 179.629 51.193C176.825 50.8725 176.344 53.9975 176.344 53.9975C176.344 53.9975 174.581 50.9526 172.258 52.8757C170.415 54.3982 169.854 67.2991 169.854 67.2991C169.854 67.2991 166.649 61.9304 164.084 63.9336C161.52 65.8567 169.133 77.7159 169.133 89.6552C169.133 101.595 168.091 137.493 168.091 137.493C168.091 137.493 164.805 140.858 160.559 141.98C156.312 143.102 154.549 142.22 154.549 142.22L157.033 170.746Z" fill="#F8A98A"/>
<path d="M168.651 117.461L168.09 137.493C168.09 137.493 167.93 138.294 166.808 139.336C166.648 139.443 166.488 139.576 166.327 139.737C165.767 140.137 165.045 140.618 164.084 141.099C162.401 141.82 160.558 142.221 159.116 142.381C158.956 142.434 158.795 142.461 158.635 142.461C157.193 142.621 156.231 142.621 156.231 142.621L148.859 139.256L148.459 139.096L121.054 126.595L120.573 126.355L112.721 122.749L112.32 122.589L101.903 117.781L101.022 118.582L100.541 118.983L90.1241 128.198L89.7235 128.599L81.6303 135.73L81.2296 136.051L73.8578 142.541L73.4571 142.942L66.4859 149.192L66.005 149.512L65.2037 150.234C65.2037 150.234 63.7614 149.913 61.037 148.631C60.022 148.15 58.8201 147.482 57.4312 146.628C57.2709 146.574 57.1108 146.494 56.9505 146.387C56.8971 146.334 56.8435 146.28 56.7901 146.227C56.6298 146.174 56.4963 146.094 56.3895 145.987C51.8221 142.621 47.5752 135.249 47.5752 135.249C47.5752 135.249 48.5368 134.368 50.2195 133.006C50.9674 132.365 51.8221 131.643 52.7836 130.842C53.1576 130.468 53.5582 130.094 53.9856 129.72C54.1458 129.614 54.3062 129.507 54.4664 129.4C56.4697 127.637 58.7933 125.634 61.1972 123.47C61.3575 123.363 61.491 123.257 61.5979 123.15C64.4825 120.666 67.3673 118.021 70.0917 115.618C70.252 115.457 70.4123 115.297 70.5726 115.137C72.6559 113.294 74.659 111.451 76.2616 109.848C76.9561 109.207 77.5705 108.593 78.1047 108.005C78.2649 107.898 78.4253 107.765 78.5855 107.605C78.5855 107.551 78.6121 107.524 78.6655 107.524C78.9326 107.204 79.2265 106.91 79.547 106.643C80.9894 105.361 82.7521 103.999 84.6753 102.717C85.5834 102.129 86.5182 101.541 87.4798 100.954C87.9071 100.74 88.3346 100.5 88.7619 100.233C88.9222 100.126 89.0823 100.046 89.2426 99.9922C92.608 98.0691 96.214 96.3063 99.339 94.864C99.4993 94.7571 99.6596 94.677 99.8199 94.6236C101.903 93.662 103.826 92.8607 105.349 92.2197C106.631 91.6588 107.592 91.2581 108.233 91.0177C108.394 90.9643 108.527 90.9109 108.634 90.8575C108.688 90.8575 108.741 90.8308 108.794 90.7773C108.901 90.7773 108.955 90.7773 108.955 90.7773L139.724 91.178C139.724 91.178 140.686 91.4184 142.689 92.2197C142.849 92.2731 143.01 92.3532 143.17 92.4601C143.757 92.6737 144.452 92.9943 145.253 93.4216C146.215 93.849 147.337 94.4099 148.619 95.1044C149.527 95.6386 150.488 96.1994 151.503 96.7871C151.717 96.8939 151.904 97.0008 152.064 97.1076C152.225 97.2144 152.385 97.3213 152.545 97.4281C155.59 99.4314 158.475 102.476 160.879 105.521C161.573 106.376 162.241 107.231 162.882 108.085C162.882 108.139 162.882 108.165 162.882 108.165C162.882 108.165 162.908 108.192 162.962 108.246C163.122 108.513 163.282 108.753 163.443 108.967C163.817 109.501 164.191 110.035 164.564 110.569C165.766 112.332 166.728 113.935 167.369 115.137C168.25 116.579 168.651 117.461 168.651 117.461Z" fill="#E5704E"/>
<path d="M112.722 122.749L112.321 122.589C112.267 122.055 112.241 121.52 112.241 120.986C111.76 115.297 110.318 109.688 109.356 103.999C108.635 99.7518 108.234 95.3447 108.234 91.0177C108.395 90.9643 108.528 90.9108 108.635 90.8574C108.635 92.834 108.715 94.8105 108.875 96.787C109.356 102.636 110.638 108.246 111.68 114.015C112.241 116.9 112.641 119.864 112.722 122.749Z" fill="#FFF3EB"/>
<path d="M117.287 99.3508C119.531 108.325 120.652 117.54 120.572 126.835C120.572 127.156 121.053 127.156 121.053 126.835C121.053 119.624 120.412 112.332 119.05 105.28C118.676 103.25 118.222 101.221 117.688 99.1906C117.607 98.9502 117.207 99.0303 117.287 99.3508Z" fill="#FFF3EB"/>
<path d="M127.385 105.601C128.346 113.454 128.587 121.387 128.266 129.239C128.266 129.56 128.667 129.48 128.667 129.239C129.068 121.387 128.747 113.454 127.866 105.601C127.785 105.361 127.385 105.361 127.385 105.601Z" fill="#FFF3EB"/>
<path d="M135.637 98.3898C136.652 107.631 137.453 116.873 138.041 126.115C138.201 128.732 138.361 131.376 138.521 134.047C138.521 134.288 139.002 134.288 139.002 134.047C138.468 124.806 137.773 115.564 136.919 106.323C136.652 103.705 136.384 101.061 136.117 98.3898C136.037 98.1494 135.637 98.1494 135.637 98.3898Z" fill="#FFF3EB"/>
<path d="M148.859 139.256L148.459 139.096C148.459 138.722 148.459 138.348 148.459 137.974C148.218 129.881 146.856 121.868 145.734 113.855C144.719 106.643 143.704 99.4314 142.689 92.2197C142.85 92.2731 143.01 92.3533 143.17 92.4601C143.651 96.0926 144.158 99.7252 144.693 103.358C145.815 111.451 147.097 119.544 148.058 127.637C148.539 131.483 148.859 135.41 148.859 139.256Z" fill="#FFF3EB"/>
<path d="M159.115 140.778C159.115 141.312 159.115 141.846 159.115 142.381C158.955 142.434 158.794 142.461 158.634 142.461C158.634 141.446 158.634 140.404 158.634 139.336C158.527 137.199 158.34 135.062 158.073 132.925C157.592 128.518 156.791 124.271 155.99 119.944C155.188 115.697 154.227 111.451 153.506 107.204C152.945 103.838 152.544 100.473 152.063 97.1074C152.224 97.2143 152.384 97.3211 152.544 97.4279C153.105 101.194 153.586 105.04 154.307 108.806C155.749 117.3 157.833 125.714 158.714 134.368C158.928 136.504 159.062 138.641 159.115 140.778Z" fill="#FFF3EB"/>
<path d="M166.808 139.336C166.648 139.443 166.488 139.576 166.327 139.737C166.327 139.202 166.301 138.695 166.247 138.214C165.847 128.118 164.645 118.021 162.882 108.166C162.882 108.166 162.908 108.192 162.962 108.246C163.122 108.513 163.282 108.753 163.443 108.967C163.55 109.501 163.656 110.035 163.763 110.569C165.366 120.105 166.407 129.72 166.808 139.336Z" fill="#FFF3EB"/>
<path d="M101.021 118.582L100.54 118.983C100.219 110.917 99.8187 102.877 99.3379 94.8639C99.4981 94.7571 99.6585 94.677 99.8187 94.6235C99.9256 97.0808 100.059 99.5114 100.219 101.915C100.486 107.471 100.754 113.027 101.021 118.582Z" fill="#FFF3EB"/>
<path d="M90.125 128.198L89.7243 128.598C89.6709 128.331 89.6175 128.064 89.5641 127.797C88.4423 118.662 88.2019 109.447 88.7628 100.233C88.9231 100.126 89.0832 100.046 89.2435 99.9922C89.0832 101.808 88.9764 103.651 88.923 105.521C88.7628 113.133 89.1634 120.746 90.125 128.198Z" fill="#FFF3EB"/>
<path d="M81.6291 135.73L81.2285 136.051C80.0533 126.755 79.0117 117.407 78.1035 108.005C78.2638 107.898 78.4241 107.765 78.5844 107.604C78.7981 110.169 79.0384 112.733 79.3055 115.297C79.9999 122.135 80.7744 128.946 81.6291 135.73Z" fill="#FFF3EB"/>
<path d="M73.858 142.541L73.4574 142.941C72.8163 133.806 69.8516 124.832 70.092 115.617C70.2522 115.457 70.4126 115.296 70.5728 115.136C70.4927 117.22 70.5728 119.223 70.733 121.226C71.3741 128.358 73.2971 135.409 73.858 142.541Z" fill="#FFF3EB"/>
<path d="M66.4869 149.192L66.006 149.513C66.006 149.032 65.9526 148.524 65.8458 147.99C64.9644 139.737 61.679 131.804 61.1982 123.47C61.3585 123.364 61.4921 123.257 61.5989 123.15C61.7057 124.752 61.8929 126.382 62.16 128.038C63.3619 135.009 65.8458 142.06 66.4869 149.192Z" fill="#FFF3EB"/>
<path d="M56.9503 146.387C56.8969 146.334 56.8433 146.281 56.7899 146.227C56.6296 146.174 56.4961 146.094 56.3892 145.987C55.2674 140.645 54.4661 135.223 53.9854 129.72C54.1456 129.614 54.3059 129.507 54.4662 129.4C54.8936 135.116 55.7216 140.778 56.9503 146.387Z" fill="#FFF3EB"/>
<path d="M144.534 76.1133C144.481 76.1133 144.454 76.1133 144.454 76.1133C144.294 76.1133 144.214 75.9531 144.294 75.7928C144.294 75.7928 145.175 72.828 144.775 69.3824C144.454 65.9369 142.21 63.3727 142.21 63.3727C142.13 63.2125 142.13 63.1323 142.21 62.9721C142.291 62.8919 142.451 62.8919 142.531 63.0522C142.691 63.1323 144.935 65.6965 145.335 69.3023C145.736 72.9081 144.775 75.7928 144.775 75.9531C144.694 76.0332 144.614 76.1133 144.534 76.1133Z" fill="#4A271A"/>
<path d="M107.592 61.1294C107.592 61.1294 98.9383 63.9339 97.4158 75.713C95.8933 87.4119 98.5375 95.1845 98.5375 95.1845L101.022 94.0627C101.022 94.0627 99.5792 86.5305 99.8997 85.8895C100.22 85.2484 102.784 93.3415 102.784 93.3415L114.083 88.6139C114.083 88.6139 111.999 80.1201 112.24 79.9598C112.48 79.7996 115.765 87.8927 115.765 87.8927L117.849 85.8093C117.849 85.8093 112.961 75.1521 112.56 72.6681C112.16 70.1039 112.24 69.1424 112.24 69.1424L107.592 61.1294Z" fill="#4A271A"/>
<path d="M110.157 59.0464C110.157 59.0464 105.83 60.8894 105.349 62.1714C104.949 63.4535 106.07 67.2997 108.474 69.1427C110.397 70.6652 112.881 71.3062 112.881 71.3062L110.157 59.0464Z" fill="#211513"/>
<path d="M142.37 59.5269C142.37 59.5269 143.492 52.7159 140.047 48.7094C136.521 44.7029 131.312 45.344 131.312 45.344C131.312 45.344 130.11 43.501 126.905 43.6612C123.78 43.7414 120.014 46.7863 120.014 46.7863C120.014 46.7863 117.45 46.3055 114.886 48.8697C112.322 51.4338 108.956 56.1615 109.357 64.0142C109.838 71.8669 118.972 83.0049 118.972 83.0049L142.37 59.5269Z" fill="#4A271A"/>
<path d="M141.889 53.9976C141.889 53.9976 145.414 57.5233 145.254 61.049C145.094 64.6548 142.93 67.5395 142.93 67.5395L141.889 53.9976Z" fill="#4A271A"/>
<path d="M106.311 91.6588C106.205 91.6588 106.124 91.6054 106.071 91.4985C105.991 91.4184 102.545 83.4856 101.985 76.9951C101.504 70.4244 104.869 65.0558 104.869 64.9756C104.949 64.8955 105.109 64.8154 105.27 64.8955C105.35 64.9756 105.43 65.1359 105.35 65.216C105.27 65.2961 101.984 70.5847 102.545 76.9149C103.026 83.4054 106.472 91.178 106.552 91.2581C106.552 91.4184 106.552 91.5786 106.392 91.5786C106.338 91.6321 106.311 91.6588 106.311 91.6588Z" fill="#211513"/>
<path d="M111.12 90.5367C111.04 90.5367 110.96 90.4566 110.879 90.3765C110.879 90.2963 107.354 81.9628 105.992 76.8346C104.549 71.546 105.431 68.6613 105.431 68.5011C105.511 68.4209 105.671 68.3408 105.751 68.3408C105.911 68.4209 105.992 68.5812 105.911 68.6613C105.911 68.7415 105.11 71.6261 106.472 76.6743C107.834 81.8026 111.36 90.1361 111.36 90.2162C111.44 90.2963 111.36 90.4566 111.2 90.5367C111.2 90.5367 111.173 90.5367 111.12 90.5367Z" fill="#211513"/>
<path d="M133.395 81.8834C133.395 81.8834 131.632 85.1687 132.033 86.6911C132.754 89.3354 139.725 91.1784 139.725 91.1784C139.725 91.1784 139.164 106.724 130.75 107.605C118.09 108.807 108.875 90.7777 108.875 90.7777C108.875 90.7777 113.202 89.6559 119.132 81.9635C121.055 79.4795 121.856 74.1909 121.856 74.1909L133.395 81.8834Z" fill="#F8A98A"/>
<path d="M142.931 60.8894C142.37 58.0048 140.847 55.2804 138.523 53.3572C136.52 51.8348 133.876 50.713 130.51 51.5944C126.424 52.6361 124.18 58.9663 123.059 64.6555C122.498 64.335 121.296 63.8542 120.094 64.8158C118.331 66.178 118.972 70.1043 120.174 70.9056C120.494 71.1193 120.815 71.2796 121.135 71.3864C121.616 71.5467 122.017 72.1076 121.937 72.6685C121.857 73.63 121.857 74.1909 121.857 74.1909C121.857 74.1909 129.148 85.7296 137.802 82.6046C143.652 80.5212 143.892 66.2581 142.931 60.8894Z" fill="#F8A98A"/>
<path d="M132.834 83.3257C132.781 83.3257 132.754 83.3257 132.754 83.3257C132.674 83.3257 130.19 82.7648 126.504 80.3609C122.818 77.8769 121.777 74.6717 121.777 74.5114C121.696 74.3512 121.777 74.271 121.937 74.1909C122.097 74.1909 122.177 74.271 122.257 74.3512C122.257 74.4313 123.299 77.5564 126.825 79.8801C130.35 82.284 132.834 82.8449 132.834 82.8449C132.995 82.8449 133.075 83.0052 133.075 83.0853C133.075 83.2456 132.915 83.3257 132.834 83.3257Z" fill="#211513"/>
<path d="M137.561 71.787C137.481 71.787 137.4 71.7068 137.32 71.6267C137.32 71.4665 137.32 71.3062 137.481 71.3062C138.122 71.0658 138.843 70.8254 138.923 70.7453C139.163 70.585 139.244 70.2645 139.083 70.0241C138.976 69.757 138.843 69.4899 138.683 69.2228C137.962 67.7004 136.679 65.2164 138.042 62.1714C138.843 60.1682 142.368 60.5688 142.529 60.5688C142.689 60.649 142.769 60.7291 142.769 60.8894C142.769 61.0496 142.609 61.1297 142.449 61.1297C142.449 61.1297 139.163 60.7291 138.442 62.3317C137.24 65.2164 138.362 67.46 139.163 68.9824C139.324 69.303 139.457 69.5701 139.564 69.7837C139.724 70.2645 139.644 70.8254 139.244 71.1459C139.003 71.3062 138.042 71.6267 137.641 71.787C137.641 71.787 137.614 71.787 137.561 71.787Z" fill="#211513"/>
<path d="M137.24 74.5115C137.48 74.5916 137.721 74.5916 137.881 74.5115C138.121 74.3512 138.442 74.1108 138.762 74.1108C139.323 74.191 139.804 74.5916 140.125 74.5115C141.326 74.191 140.525 75.2327 137.721 75.7936C136.599 76.034 134.756 75.7134 134.115 75.5532C133.634 75.3929 132.913 75.0724 134.115 75.2326C135.156 75.3929 135.798 74.5115 136.278 74.3512C136.679 74.191 137.08 74.4314 137.24 74.5115Z" fill="#C64233"/>
<path d="M137.239 77.4764C136.358 77.4764 135.717 77.1558 135.717 77.1558C135.557 77.0757 135.557 76.9956 135.557 76.8353C135.637 76.6751 135.797 76.6751 135.877 76.6751C135.957 76.6751 137.239 77.236 138.361 76.6751C139.323 76.2744 139.162 74.9924 139.162 74.9924C139.162 74.8321 139.323 74.752 139.403 74.752C139.563 74.752 139.723 74.8321 139.723 74.9924C139.723 74.9924 139.804 76.5949 138.602 77.1558C138.121 77.3962 137.64 77.4764 137.239 77.4764Z" fill="#C64233"/>
<path d="M133.956 62.492C133.876 62.6522 133.636 62.7324 133.476 62.7324C132.915 62.6522 130.911 62.5721 129.629 62.8125C128.588 63.0529 128.027 63.4535 127.706 63.7741C127.626 63.8542 127.466 63.7741 127.466 63.6939C127.546 63.133 127.786 62.2516 128.347 61.9311C129.229 61.4503 133.636 60.9695 133.876 61.5304C134.036 61.851 133.956 62.2516 133.956 62.492Z" fill="#211513"/>
<path d="M137.882 61.9311C137.802 63.1331 137.722 62.8927 138.202 62.492C138.603 62.2517 140.766 61.6908 141.808 61.5305C142.609 61.4504 142.609 61.5305 142.93 61.7709C143.01 61.851 143.09 61.851 143.01 61.6907C142.93 61.1298 142.77 60.5689 142.289 60.4087C141.488 60.1683 138.282 60.6491 138.042 61.21C137.962 61.5305 137.962 61.6106 137.882 61.9311Z" fill="#211513"/>
<path d="M136.76 71.3063C136.76 71.3063 136.279 71.3064 135.878 71.4666C135.558 71.6269 135.317 71.7871 135.317 71.7871C135.317 71.7871 135.318 71.066 135.878 70.9858C136.439 70.8256 136.76 71.3063 136.76 71.3063Z" fill="#211513"/>
<path d="M130.67 66.098C130.59 66.8993 130.911 67.5404 131.392 67.5404C131.872 67.6205 132.353 66.9795 132.353 66.1782C132.433 65.457 132.033 64.7358 131.552 64.7358C131.151 64.7358 130.67 65.2967 130.67 66.098Z" fill="#211513"/>
<path d="M139.885 65.8577C139.805 66.5789 140.206 67.22 140.687 67.3001C141.167 67.3001 141.568 66.7392 141.648 65.9379C141.648 65.1366 141.328 64.4955 140.847 64.4955C140.366 64.4154 139.965 65.0565 139.885 65.8577Z" fill="#211513"/>
<path d="M122.016 69.4633C121.963 69.4633 121.91 69.4366 121.856 69.3832C121.776 69.3832 121.455 68.9825 121.375 68.1812C121.295 67.3799 122.177 66.5787 122.177 66.5787C122.337 66.4985 122.497 66.4985 122.577 66.5787C122.657 66.6588 122.657 66.819 122.497 66.8992C122.337 67.1396 121.856 67.7005 121.856 68.1812C121.936 68.7422 122.177 69.0627 122.177 69.0627C122.257 69.1428 122.257 69.3031 122.177 69.3832C122.123 69.4366 122.07 69.4633 122.016 69.4633Z" fill="#211513"/>
<path d="M124.262 64.8154C123.38 64.8154 122.579 64.4948 122.579 64.4147L122.82 64.0141C122.82 64.0141 124.582 64.8955 125.864 63.7737C126.986 62.8121 127.387 61.4499 128.188 58.5653C128.348 58.0311 128.535 57.4701 128.749 56.8825C130.672 50.4722 134.919 50.5523 135.079 50.5523V51.1132C134.919 51.1132 130.993 51.0331 129.23 56.9627C129.016 57.6037 128.829 58.1913 128.669 58.7255C127.788 61.6903 127.387 63.0525 126.185 64.1743C125.544 64.6551 124.903 64.8154 124.262 64.8154Z" fill="#4A271A"/>
<path d="M96.5352 95.5852C96.455 95.5852 96.3749 95.5853 96.2947 95.425C96.2947 95.2647 95.4133 92.0595 95.4934 83.7261C95.5736 75.4727 99.8205 69.2226 99.8205 69.2226C99.9007 69.0623 100.061 69.0624 100.221 69.1425C100.301 69.2226 100.301 69.3829 100.221 69.463C100.221 69.5431 96.1345 75.633 95.9743 83.7261C95.8942 91.9794 96.7756 95.2647 96.7756 95.2647C96.8557 95.425 96.7756 95.5852 96.6154 95.5852C96.6154 95.5852 96.5886 95.5852 96.5352 95.5852Z" fill="#4A271A"/>
<path d="M109.756 60.008C109.676 60.008 109.596 59.9278 109.515 59.7676C109.515 59.6874 108.874 57.5239 109.515 54.7194C110.076 51.9149 115.365 48.3892 115.605 48.2289C115.766 48.1488 115.926 48.1488 116.006 48.309C116.086 48.3892 116.006 48.5494 115.926 48.6295C115.846 48.7097 110.557 52.2354 109.996 54.8797C109.355 57.5239 109.996 59.6073 109.996 59.6874C110.076 59.7676 109.996 59.9278 109.836 59.9278C109.836 59.9812 109.809 60.008 109.756 60.008Z" fill="#4A271A"/>
<path d="M121.696 71.7866C121.696 71.7866 124.1 75.4726 122.337 79.1585C120.574 82.9246 118.651 82.524 118.651 82.524L119.773 76.2739L121.696 71.7866Z" fill="#4A271A"/>
<path d="M144.694 61.45C144.64 61.45 144.614 61.45 144.614 61.45C144.453 61.3699 144.453 61.2096 144.533 61.1295C144.533 61.0494 145.655 59.3667 145.335 56.9628C145.014 54.5589 141.248 52.3152 141.168 52.3152C141.088 52.2351 141.008 52.0749 141.088 51.9146C141.168 51.8345 141.328 51.7543 141.408 51.8345C141.569 51.9146 145.495 54.3185 145.815 56.8826C146.136 59.4468 145.014 61.2898 144.934 61.3699C144.881 61.4233 144.801 61.45 144.694 61.45Z" fill="#4A271A"/>
<path d="M133.876 51.2736C133.716 51.2736 133.556 51.1935 133.556 51.0332C133.556 51.0332 133.556 49.9916 133.075 48.5492C132.594 47.1069 131.232 45.9049 131.232 45.9049C131.152 45.8248 131.152 45.6645 131.232 45.5844C131.312 45.4242 131.472 45.4242 131.552 45.5043C131.633 45.5844 132.995 46.8665 133.556 48.389C134.117 49.9915 134.117 50.9531 134.117 51.0332C134.117 51.1935 133.956 51.2736 133.876 51.2736Z" fill="#211513"/>
<path d="M113.682 61.1297C111.439 61.1297 109.996 60.6489 109.836 60.6489C109.756 60.5688 109.676 60.4085 109.676 60.3284C109.756 60.1681 109.916 60.088 109.996 60.1681C110.077 60.1681 113.282 61.2098 117.689 60.1681C122.016 59.0463 125.061 56.2418 125.061 56.1617C125.221 56.0815 125.381 56.0815 125.461 56.1617C125.542 56.3219 125.542 56.4822 125.461 56.5623C125.301 56.6424 122.256 59.5271 117.769 60.6489C116.246 61.0496 114.884 61.1297 113.682 61.1297Z" fill="#211513"/>
<path d="M111.681 64.8154C109.678 64.8154 109.277 64.2545 109.197 64.1744C109.117 64.0141 109.117 63.8539 109.277 63.7738C109.357 63.7738 109.518 63.7738 109.598 63.934C109.598 63.934 110.319 64.6552 114.806 64.0141C119.614 63.293 123.781 58.6455 123.781 58.6455C123.861 58.4852 124.021 58.4852 124.181 58.5653C124.262 58.6455 124.262 58.8057 124.181 58.966C124.021 59.1262 119.854 63.7738 114.886 64.4949C113.524 64.7353 112.482 64.8154 111.681 64.8154Z" fill="#211513"/>
<path d="M141.167 55.2801C141.167 55.2801 141.14 55.2801 141.087 55.2801C140.526 55.2801 139.805 54.8794 139.725 54.8794C139.644 54.7993 139.564 54.639 139.645 54.5589C139.725 54.3986 139.885 54.3185 139.965 54.3986C139.965 54.3986 140.686 54.7993 141.087 54.7993C141.568 54.7993 142.209 54.5589 142.209 54.5589C142.369 54.4788 142.529 54.5589 142.529 54.7191C142.609 54.7993 142.529 54.9595 142.449 55.0397C142.369 55.0397 141.728 55.2801 141.167 55.2801Z" fill="#211513"/>
<path d="M124.342 51.1132C124.342 51.1132 123.14 51.0331 121.778 50.0715C120.416 49.0298 119.855 47.1067 119.855 47.0266C119.775 46.8663 119.855 46.7862 120.015 46.7061C120.175 46.7061 120.255 46.7862 120.335 46.8663C120.335 46.9464 120.816 48.7894 122.098 49.5907C123.3 50.4721 124.342 50.5523 124.422 50.5523C124.502 50.6324 124.662 50.7125 124.662 50.8728C124.582 50.9529 124.502 51.1132 124.342 51.1132Z" fill="#211513"/>
<path d="M111.52 78.9985C111.44 78.9985 111.28 78.9183 111.28 78.8382L108.796 71.7868C108.796 71.6266 108.876 71.4663 108.956 71.4663C109.116 71.3862 109.277 71.4663 109.277 71.5464L111.761 78.678C111.761 78.7581 111.761 78.9184 111.6 78.9985C111.547 78.9985 111.52 78.9985 111.52 78.9985Z" fill="#211513"/>
<path d="M112.882 74.1904C112.775 74.1904 112.695 74.1369 112.642 74.0301L111.039 70.905C110.959 70.7448 110.959 70.5845 111.119 70.5044C111.279 70.5044 111.36 70.5044 111.44 70.6647L113.042 73.7897C113.122 73.95 113.122 74.1102 112.962 74.1102C112.909 74.1636 112.882 74.1904 112.882 74.1904Z" fill="#211513"/>
<path d="M56.7103 179.962C56.7103 179.962 47.8158 224.113 71.0534 233.969C94.291 243.745 159.997 184.85 159.997 184.85C159.997 184.85 157.834 132.365 149.741 120.265C141.728 108.166 134.356 108.647 134.356 108.647L56.7103 179.962Z" fill="#FFF3EB"/>
<path d="M136.84 110.409C135.237 111.851 134.997 112.092 134.116 112.813C132.032 114.496 126.023 121.627 120.654 131.163C115.285 140.698 79.0666 203.199 53.7457 188.055C31.8703 174.913 52.6237 142.301 52.6237 142.301C52.6237 142.301 54.1462 144.064 57.8322 146.628C57.9924 146.735 58.1528 146.815 58.313 146.868C61.6785 149.112 64.0023 149.913 64.1625 149.993C64.1625 149.993 112.08 108.326 116.327 105.601C119.452 103.598 123.779 101.755 125.862 100.874C126.824 100.473 127.865 100.393 128.907 100.633C129.174 100.687 129.388 100.794 129.548 100.954C130.109 101.354 130.029 102.476 130.029 102.476C130.029 102.476 132.753 101.595 134.116 102.637C135.478 103.678 135.317 106.162 135.317 106.162C135.317 106.162 139.244 108.165 136.84 110.409Z" fill="#F8A98A"/>
<path d="M123.217 113.454C123.164 113.454 123.111 113.454 123.057 113.454C122.977 113.294 122.977 113.134 123.057 113.054C123.137 112.973 125.381 110.329 128.185 108.807C131.07 107.284 134.916 106.082 134.996 106.082C135.077 106.002 135.237 106.082 135.317 106.242C135.317 106.323 135.237 106.483 135.157 106.563C135.076 106.563 131.23 107.765 128.426 109.287C125.701 110.73 123.458 113.374 123.458 113.374C123.404 113.427 123.324 113.454 123.217 113.454Z" fill="#211513"/>
<path d="M119.534 108.807C119.481 108.807 119.427 108.78 119.374 108.727C119.214 108.566 119.294 108.406 119.374 108.326C119.374 108.326 120.976 106.884 122.98 105.521C124.502 104.56 127.226 103.278 128.909 102.637C129.951 102.316 130.992 101.996 132.114 101.996C133.343 101.996 134.198 102.289 134.679 102.877C134.759 103.037 134.759 103.117 134.598 103.278C134.518 103.358 134.358 103.278 134.278 103.198C133.797 102.637 132.835 102.557 132.114 102.476C131.073 102.557 130.111 102.797 129.07 103.117C127.387 103.678 124.742 104.96 123.3 105.922C121.217 107.284 119.694 108.727 119.694 108.727C119.641 108.78 119.587 108.807 119.534 108.807Z" fill="#211513"/>
<path d="M64.1628 149.993C64.1628 149.993 58.2332 155.682 55.3485 157.926L54.8676 158.327C53.9061 159.048 52.624 158.246 52.8644 157.045C53.3452 155.202 54.3067 152.958 56.4702 151.676C58.153 150.554 59.1946 149.352 59.5952 147.75C62.9607 149.592 64.0025 149.913 64.1628 149.993Z" fill="#211513"/>
<path d="M117.129 105.441C117.075 105.441 117.022 105.388 116.968 105.281C116.888 105.201 116.888 105.04 116.968 104.96C117.048 104.96 118.811 103.758 121.776 102.316C124.741 100.954 127.225 100.233 127.305 100.233C127.385 100.233 129.469 99.5916 131.231 100.233C132.994 100.954 133.395 102.156 133.475 102.236C133.475 102.396 133.395 102.556 133.315 102.556C133.154 102.637 132.994 102.556 132.994 102.396C132.914 102.316 132.594 101.354 131.071 100.713C129.469 100.153 127.465 100.713 127.385 100.713C127.385 100.713 124.901 101.354 122.017 102.797C119.052 104.159 117.289 105.361 117.289 105.361C117.235 105.414 117.182 105.441 117.129 105.441Z" fill="#211513"/>
<path d="M110.478 157.846C111.039 156.564 112.962 157.125 112.721 158.567C111.92 162.413 111.199 166.901 110.878 171.548C109.837 183.568 112.561 193.985 112.561 193.985L105.91 196.709C105.91 196.709 104.067 177.878 107.673 165.939C108.555 162.974 109.516 160.33 110.478 157.846Z" fill="#211513"/>
<path d="M184.918 68.1808C184.838 68.1808 184.678 68.1007 184.678 67.9404C184.678 67.9404 184.438 65.0557 184.037 62.0108C183.716 58.8857 183.075 56.1613 183.075 56.1613C182.995 56.0011 183.075 55.8408 183.236 55.8408C183.396 55.8408 183.476 55.9209 183.556 56.0011C183.556 56.0812 184.197 58.8056 184.518 61.9307C184.918 65.0557 185.159 67.8603 185.159 67.9404C185.159 68.0205 185.079 68.1808 184.918 68.1808Z" fill="#211513"/>
<path d="M177.385 68.6619C177.225 68.6619 177.145 68.5818 177.145 68.4215C177.145 68.4215 177.145 65.4567 176.985 61.3701C176.905 57.3636 176.104 54.0783 176.104 54.0783C176.104 53.9181 176.184 53.8379 176.264 53.7578C176.424 53.7578 176.584 53.8379 176.584 53.9982C176.584 53.9982 177.386 57.2835 177.546 61.3701C177.626 65.4567 177.626 68.4215 177.626 68.4215C177.626 68.5818 177.546 68.6619 177.385 68.6619Z" fill="#211513"/>
<path d="M175.863 76.8349C175.703 76.8349 175.623 76.6746 175.623 76.5945C175.623 76.5144 175.543 74.3509 174.181 71.8669C172.578 68.8219 169.774 67.5398 169.774 67.4597C169.613 67.4597 169.613 67.2995 169.613 67.1392C169.693 67.0591 169.854 66.9789 170.014 67.0591C170.094 67.0591 172.899 68.4213 174.661 71.6265C176.024 74.2707 176.104 76.4342 176.104 76.5144C176.104 76.6746 176.024 76.8349 175.863 76.8349Z" fill="#211513"/>
<path d="M166.649 147.028C166.595 147.028 166.569 147.028 166.569 147.028C166.408 146.948 166.328 146.788 166.408 146.708C166.408 146.708 166.729 145.586 167.13 143.102C167.61 140.698 167.851 137.493 167.851 137.493C167.851 137.333 167.931 137.252 168.091 137.252C168.251 137.252 168.332 137.333 168.332 137.493C168.332 137.573 168.091 140.778 167.691 143.262C167.21 145.666 166.889 146.788 166.889 146.868C166.809 146.948 166.729 147.028 166.649 147.028Z" fill="#211513"/>
<path d="M306.555 223.552C306.555 223.071 306.555 222.617 306.555 222.19C306.074 195.987 253.83 181.804 189.486 182.926C125.142 184.128 73.0574 200.154 73.5381 226.356L73.3779 232.687C73.3779 233.167 73.3779 233.648 73.3779 234.129C74.0991 254.802 126.584 271.149 191.008 270.027C255.352 268.825 306.395 250.956 306.395 229.882L306.555 223.552Z" fill="#9E5A5F"/>
<path d="M261.122 247.431C249.663 247.431 227.307 246.709 221.778 241.421C220.977 240.566 220.576 239.658 220.576 238.696C220.576 228.76 299.985 214.898 303.35 214.337C303.51 214.257 303.59 214.337 303.59 214.497C303.67 214.658 303.59 214.818 303.43 214.818C302.629 214.978 221.057 229.161 221.057 238.696C221.057 239.551 221.431 240.326 222.179 241.02C229.31 247.911 267.532 246.79 267.853 246.79C268.013 246.79 268.173 246.87 268.173 247.03C268.173 247.19 268.013 247.27 267.933 247.27C267.532 247.351 264.888 247.431 261.122 247.431Z" fill="#211513"/>
<path d="M123.859 253.841C123.778 253.841 123.618 253.761 123.618 253.6C123.618 253.52 123.778 253.36 123.859 253.36C124.099 253.36 149.981 252.078 164.965 247.11C178.827 242.462 196.216 242.703 209.277 247.751C220.735 252.158 245.015 252.799 245.255 252.799C245.415 252.799 245.495 252.879 245.495 253.04C245.495 253.2 245.415 253.28 245.255 253.28C245.015 253.28 220.575 252.639 209.036 248.152C196.135 243.184 178.908 243.023 165.125 247.591C150.061 252.639 124.179 253.841 123.939 253.841C123.885 253.841 123.859 253.841 123.859 253.841Z" fill="#211513"/>
<path d="M103.345 246.71C103.184 246.71 103.104 246.63 103.104 246.469C103.024 246.309 103.184 246.229 103.345 246.229C103.745 246.229 144.612 244.947 164.323 237.575C177.625 232.607 193.891 230.043 209.597 227.639C217.449 226.437 224.901 225.235 231.472 223.873C250.943 219.706 300.143 210.812 300.624 210.731C300.784 210.731 300.944 210.812 300.944 210.972C300.944 211.052 300.864 211.212 300.704 211.212C300.223 211.292 251.024 220.187 231.552 224.353C224.982 225.716 217.529 226.918 209.677 228.12C194.051 230.604 177.785 233.088 164.564 238.056C144.772 245.428 103.745 246.71 103.345 246.71Z" fill="#211513"/>
<path d="M84.5959 210.171C84.5158 210.171 84.4356 210.091 84.3555 210.01C84.3555 209.85 84.4356 209.77 84.5157 209.69C84.7561 209.61 109.516 201.436 123.779 201.436C125.863 201.436 128.347 201.436 130.911 201.517C145.414 201.677 167.37 201.997 179.069 196.549C192.851 190.058 220.255 189.337 220.576 189.337C220.736 189.337 220.816 189.417 220.816 189.577C220.816 189.738 220.736 189.818 220.576 189.818C220.335 189.818 192.931 190.619 179.309 196.949C167.45 202.478 146.376 202.238 130.911 201.997C128.347 201.917 125.863 201.917 123.779 201.917C109.676 201.917 84.9163 210.09 84.6759 210.171C84.6759 210.171 84.6493 210.171 84.5959 210.171Z" fill="#211513"/>
<path d="M92.2082 243.024C92.0479 243.024 91.9677 242.944 91.9677 242.864C91.9677 242.703 92.0479 242.543 92.2082 242.543C92.8492 242.463 162.802 233.488 161.921 218.424C161.868 217.195 161.28 216.1 160.158 215.139C147.978 204.962 80.7496 212.815 80.1085 212.895C79.9483 212.895 79.8682 212.815 79.7881 212.655C79.7881 212.494 79.8681 212.414 80.0283 212.334C82.8329 212.014 148.139 204.481 160.479 214.818C161.707 215.833 162.375 217.035 162.482 218.424C163.363 233.889 95.173 242.703 92.2082 243.024Z" fill="#211513"/>
<path d="M153.909 194.866C137.883 194.866 126.584 191.019 126.504 190.939C126.344 190.859 126.264 190.779 126.344 190.619C126.424 190.458 126.504 190.458 126.665 190.458C126.825 190.539 140.848 195.346 159.918 194.144C178.989 193.023 185.96 183.247 185.96 183.086C186.041 183.006 186.201 182.926 186.361 183.006C186.441 183.086 186.521 183.247 186.441 183.407C186.361 183.487 179.229 193.503 159.998 194.705C157.915 194.812 155.885 194.866 153.909 194.866Z" fill="#211513"/>
<path d="M195.416 236.132C195.416 236.132 289.088 232.927 290.61 221.148C292.213 209.289 245.818 217.062 245.818 217.062L195.416 236.132Z" fill="#211513"/>
<path d="M130.751 232.927C130.751 235.492 137.562 237.655 145.976 237.655C154.389 237.655 161.2 235.492 161.2 232.927C161.2 230.283 154.389 228.12 145.976 228.12C137.562 228.12 130.751 230.283 130.751 232.927Z" fill="#211513"/>
<path d="M180.992 259.691C140.286 259.691 114.725 253.601 99.981 248.072C81.9518 241.421 75.7818 234.209 75.7017 234.129C75.6216 233.969 75.6216 233.809 75.7017 233.729C75.862 233.648 76.0222 233.648 76.1023 233.809C76.1825 233.809 82.3525 241.02 100.221 247.671C116.808 253.761 147.017 260.732 197.098 258.889C245.016 257.126 271.699 248.232 285.641 241.181C300.786 233.488 304.632 226.116 304.632 226.036C304.712 225.956 304.872 225.876 304.953 225.956C305.113 226.036 305.193 226.196 305.113 226.277C304.953 226.597 301.106 233.809 285.882 241.581C271.859 248.713 245.096 257.607 197.098 259.37C191.489 259.584 186.12 259.691 180.992 259.691Z" fill="#211513"/>
<path d="M289.327 163.134L211.601 170.266C209.358 170.586 208.476 173.15 208.236 174.513L202.787 199.914L163.603 206.645C162.081 206.885 164.565 209.69 165.687 210.651L194.694 235.732C195.014 236.052 195.415 236.213 195.896 236.132L278.589 225.155C279.871 224.914 290.449 168.904 290.449 168.904C290.929 166.66 291.49 163.214 289.327 163.134Z" fill="#FDDFCC"/>
<path d="M194.855 232.927C194.455 232.927 193.974 232.767 193.653 232.447L166.089 208.247C165.929 208.167 165.929 208.007 166.009 207.927C166.169 207.767 166.329 207.767 166.409 207.847L193.974 232.126C194.375 232.447 194.855 232.527 195.336 232.366C195.737 232.206 196.137 231.806 196.217 231.405L202.548 199.513C202.548 199.353 202.708 199.273 202.868 199.273C202.948 199.353 203.029 199.433 203.029 199.593L196.698 231.485C196.538 232.126 196.137 232.607 195.496 232.847C195.283 232.901 195.069 232.927 194.855 232.927Z" fill="#211513"/>
<path d="M196.857 229.321C196.803 229.321 196.75 229.295 196.696 229.241L175.061 210.571C174.581 210.17 174.42 209.529 174.581 208.968C174.741 208.407 175.222 207.927 175.783 207.847L201.825 203.52C201.985 203.52 202.145 203.6 202.145 203.68C202.145 203.84 202.065 204 201.905 204L175.943 208.327C175.462 208.407 175.222 208.728 175.061 209.129C174.981 209.529 175.061 209.93 175.382 210.17L197.017 228.921C197.097 229.001 197.177 229.161 197.017 229.241C196.963 229.295 196.91 229.321 196.857 229.321Z" fill="#211513"/>
<path d="M198.862 233.568C198.701 233.568 198.621 233.408 198.621 233.328L210.08 176.596C210.641 174.032 211.682 172.67 213.285 172.429L288.286 165.378C288.447 165.378 288.527 165.458 288.607 165.618C288.607 165.779 288.446 165.859 288.366 165.939L213.365 172.99C212.003 173.151 211.041 174.352 210.561 176.756L199.102 233.408C199.102 233.488 199.022 233.568 198.862 233.568Z" fill="#211513"/>
<path d="M245.576 195.667C244.855 199.032 245.897 202.157 247.9 202.558C249.823 202.959 252.067 200.555 252.788 197.189C253.509 193.744 252.468 190.699 250.464 190.218C248.541 189.817 246.297 192.221 245.576 195.667Z" fill="#211513"/>
<path d="M200.303 211.452C200.249 211.452 200.196 211.452 200.143 211.452L191.889 205.683C191.809 205.603 191.809 205.443 191.889 205.282C191.889 205.202 192.049 205.202 192.21 205.282L200.383 211.052C200.543 211.132 200.543 211.212 200.463 211.372C200.41 211.426 200.356 211.452 200.303 211.452Z" fill="#211513"/>
<path d="M181.553 216.02C181.393 216.02 181.312 215.94 181.312 215.86C181.312 215.7 181.393 215.619 181.473 215.539L200.063 212.174C200.223 212.174 200.303 212.254 200.383 212.414C200.383 212.494 200.303 212.655 200.143 212.655L181.553 216.02Z" fill="#211513"/>
<path d="M158.072 206.885C158.072 205.122 152.223 203.68 145.011 203.68C137.72 203.68 131.87 205.122 131.87 206.885L135.636 231.405C135.877 233.167 140.043 234.69 145.412 234.69C150.701 234.69 154.947 233.248 155.188 231.485L158.072 206.885Z" fill="#FCCF61"/>
<path d="M144.691 210.01C134.434 210.01 132.11 207.526 132.03 207.445C131.95 207.365 131.95 207.205 132.11 207.045C132.19 206.965 132.351 206.965 132.431 207.125C132.431 207.125 134.755 209.449 144.771 209.449C144.878 209.449 145.011 209.449 145.171 209.449C155.188 209.369 157.672 207.125 157.672 207.125C157.752 206.965 157.912 206.965 157.992 207.125C158.152 207.205 158.152 207.365 157.992 207.445C157.912 207.526 155.508 209.929 145.171 210.01C145.011 210.01 144.851 210.01 144.691 210.01Z" fill="#211513"/>
<path fill-rule="evenodd" clip-rule="evenodd" d="M132.752 225.796C131.47 225.796 130.188 225.315 129.146 224.353C127.864 223.312 127.063 221.709 126.742 219.946C126.101 216.26 128.184 212.734 131.309 212.254C134.515 211.693 137.56 214.257 138.201 218.023C138.521 219.786 138.201 221.549 137.399 222.991C136.518 224.514 135.156 225.475 133.633 225.716C133.313 225.769 133.019 225.796 132.752 225.796ZM132.191 214.577C132.031 214.577 131.87 214.604 131.71 214.658C129.867 214.978 128.745 217.142 129.146 219.546C129.386 220.747 129.947 221.789 130.748 222.51C131.47 223.151 132.351 223.472 133.233 223.312C134.034 223.151 134.755 222.59 135.236 221.789C135.797 220.828 135.957 219.626 135.797 218.424C135.396 216.26 133.874 214.577 132.191 214.577Z" fill="#FCCF61"/>
<path d="M133.074 214.978C132.913 214.978 132.833 214.898 132.833 214.738L132.433 212.254C132.433 212.093 132.513 212.013 132.673 211.933C132.833 211.933 132.913 212.013 132.993 212.173L133.314 214.658C133.314 214.818 133.234 214.978 133.074 214.978Z" fill="#211513"/>
<path d="M134.676 225.716C134.516 225.716 134.436 225.636 134.436 225.475L134.035 222.991C134.035 222.911 134.115 222.751 134.276 222.751C134.356 222.671 134.516 222.831 134.516 222.911L134.916 225.395C134.916 225.555 134.836 225.716 134.676 225.716Z" fill="#211513"/>
<path d="M134.275 208.247C134.275 208.247 139.003 206.084 143.811 206.965C148.619 207.846 149.5 208.407 152.224 208.247C155.029 208.167 156.712 207.846 156.712 207.846L154.228 208.888L146.856 209.689L139.724 209.529L136.198 208.968L134.275 208.247Z" fill="#211513"/>
</svg>
