<svg width="337" height="284" viewBox="0 0 337 284" fill="none" xmlns="http://www.w3.org/2000/svg">
<ellipse cx="168.5" cy="146.545" rx="168" ry="130.8" fill="#FBF9F3"/>
<path d="M320.802 17.804V159.522C320.802 160.839 319.674 161.967 318.295 161.842L223.21 153.505C220.703 153.255 218.822 151.186 218.822 148.742V137.71L218.885 124.297V100.729L218.948 79.0419L219.01 15.9236C219.01 14.67 219.95 13.6672 221.079 13.7298L318.796 15.5475C319.924 15.6102 320.802 16.5504 320.802 17.804Z" fill="#B5E0ED"/>
<path d="M320.865 127.117L282.443 124.548C281.879 124.485 281.565 123.983 281.628 123.482C282.192 121.226 283.947 115.772 288.962 115.459C294.039 115.208 296.295 120.348 296.985 122.542C297.11 122.855 297.549 122.918 297.674 122.605C298.238 121.539 299.429 119.972 301.309 120.097C303.19 120.285 304.193 121.915 304.631 123.043C304.819 123.545 305.384 123.733 305.822 123.545C306.763 123.043 308.58 122.667 311.589 122.855C317.794 123.169 321.618 125.237 321.618 125.237L320.865 127.117Z" fill="#EBF0FF"/>
<path d="M231.547 56.7907L278.933 58.295C279.685 58.3577 280.249 57.6682 280.124 56.9787C279.622 54.2208 277.867 48.0782 271.536 47.5141C265.018 46.95 262.887 52.3404 262.26 54.5342C262.197 54.7849 261.821 54.8476 261.758 54.5969C261.194 53.3433 259.941 51.2749 257.559 51.0868C255.114 50.9615 253.861 52.9045 253.359 54.0955C253.234 54.3462 252.858 54.3462 252.795 54.0955C252.231 51.9017 250.037 46.5739 243.456 46.3859C235.12 46.1352 232.174 54.5342 232.174 54.5342L231.547 56.7907Z" fill="#EBF0FF"/>
<path d="M289.088 88.3186C289.088 92.7061 292.723 96.3416 297.111 96.3416C301.561 96.3416 305.197 92.7061 305.197 88.3186C305.197 83.8683 301.561 80.2329 297.111 80.2329C292.723 80.2329 289.088 83.8683 289.088 88.3186Z" fill="#FFDB84"/>
<path d="M286.956 88.3186C286.956 92.7061 290.529 96.3416 294.979 96.3416C299.429 96.3416 303.065 92.7061 303.065 88.3186C303.065 83.8683 299.429 80.2329 294.979 80.2329C290.529 80.2329 286.956 83.8683 286.956 88.3186Z" fill="#EAC772"/>
<path d="M321.052 92.5811V100.165L266.396 97.9089C265.581 97.8462 265.017 97.0314 265.33 96.2792C266.646 92.7065 270.533 84.3701 278.054 84.7462C285.638 85.1223 288.647 91.5156 289.524 94.0228C289.713 94.3988 290.151 94.4615 290.402 94.0854C291.154 92.8945 292.846 90.8261 295.604 91.0142C298.3 91.1395 300.243 93.5213 301.057 94.8376C301.245 95.151 301.747 95.0883 301.872 94.7122C302.75 92.5811 305.508 87.3787 312.152 87.2534C317.981 87.128 320.237 90.5127 321.052 92.5811Z" fill="#EBF0FF"/>
<path d="M304.067 61.9933L304.443 62.7455L305.32 62.8708C305.383 62.8708 305.383 62.9962 305.32 62.9962L304.756 63.623C304.714 63.623 304.694 63.6439 304.694 63.6856L304.882 64.5005C304.882 64.5632 304.819 64.6258 304.756 64.5632L304.004 64.1871C304.004 64.1871 303.983 64.1871 303.941 64.1871L303.189 64.5632C303.127 64.6258 303.064 64.5632 303.064 64.5005L303.252 63.6856C303.252 63.6439 303.231 63.623 303.189 63.623L302.625 62.9962C302.562 62.9962 302.562 62.8708 302.625 62.8708L303.503 62.7455C303.503 62.7455 303.524 62.7455 303.565 62.7455L303.879 61.9933C303.941 61.9306 304.004 61.9306 304.067 61.9933Z" fill="#FCCF61"/>
<path d="M262.761 39.5538L263.137 40.306C263.137 40.3478 263.137 40.3687 263.137 40.3687L264.015 40.494C264.077 40.494 264.077 40.5567 264.015 40.6194L263.451 41.1835C263.409 41.1835 263.388 41.2044 263.388 41.2462L263.576 42.061C263.576 42.1237 263.513 42.1864 263.451 42.1864L262.698 41.7476C262.657 41.7476 262.636 41.7476 262.636 41.7476L261.884 42.1864C261.821 42.1864 261.758 42.1237 261.758 42.061L261.946 41.2462C261.946 41.2044 261.925 41.1835 261.884 41.1835L261.319 40.6194C261.257 40.5567 261.257 40.494 261.319 40.494L262.197 40.3687C262.197 40.3687 262.197 40.3478 262.197 40.306L262.573 39.5538C262.636 39.4912 262.698 39.4912 262.761 39.5538Z" fill="#FCCF61"/>
<path d="M248.847 117.089L249.223 117.841C249.223 117.882 249.244 117.903 249.286 117.903L250.101 118.029C250.163 118.029 250.163 118.091 250.101 118.154L249.537 118.718C249.495 118.718 249.495 118.739 249.537 118.781L249.662 119.596C249.662 119.658 249.599 119.721 249.537 119.721L248.784 119.282C248.784 119.282 248.764 119.282 248.722 119.282L247.97 119.721C247.907 119.721 247.844 119.658 247.844 119.596L248.032 118.781C248.032 118.739 248.011 118.718 247.97 118.718L247.405 118.154C247.343 118.091 247.343 118.029 247.405 118.029L248.283 117.903C248.283 117.903 248.304 117.882 248.346 117.841L248.659 117.089C248.722 117.026 248.784 117.026 248.847 117.089Z" fill="#FCCF61"/>
<path d="M234.932 14.6699V149.556L219.012 147.864L220.391 32.5963L234.932 14.6699Z" fill="#EFB99A"/>
<path d="M254.927 59.9872L219.952 59.1097L220.015 56.7905L254.99 57.668L254.927 59.9872Z" fill="#EFB99A"/>
<path d="M320.864 150.308L232.737 143.038C228.391 144.542 224.024 146.046 219.637 147.551C219.323 149.18 219.637 150.308 219.95 150.998C221.329 154.445 226.531 156.326 232.674 155.323C257.161 157.245 281.648 159.167 306.134 161.089L320.363 162.406L321.178 156.2L320.864 150.308Z" fill="#EFB99A"/>
<path d="M256.62 156.827H254.301V15.4849H256.62V156.827Z" fill="#EFB99A"/>
<path fill-rule="evenodd" clip-rule="evenodd" d="M319.234 163.909C319.109 163.909 319.004 163.909 318.921 163.909L223.836 155.573C220.702 155.322 218.383 152.752 218.383 149.618L218.571 16.8632C218.571 15.923 218.947 15.0455 219.636 14.356C220.201 13.7919 221.015 13.4785 221.83 13.4785L319.548 15.3589C321.303 15.3589 322.744 16.8632 322.744 18.7436V160.462C322.744 161.402 322.305 162.342 321.553 163.032C320.926 163.596 320.112 163.909 319.234 163.909ZM319.109 161.59C319.422 161.59 319.736 161.528 319.986 161.277C320.237 161.089 320.362 160.775 320.362 160.462V18.7436C320.362 18.1795 319.986 17.678 319.548 17.678L221.83 15.7977C221.579 15.7977 221.391 15.923 221.266 16.0484C221.015 16.2364 220.953 16.5498 220.953 16.8632L220.702 149.618C220.702 151.562 222.144 153.129 224.024 153.254L319.109 161.59Z" fill="#EFB99A"/>
<path d="M220.766 152.44C220.641 152.44 220.578 152.314 220.578 152.252L221.017 32.5337C221.017 32.4084 221.08 32.3457 221.205 32.3457C221.33 32.3457 221.393 32.4084 221.393 32.5337L220.892 152.252C220.892 152.314 220.829 152.44 220.766 152.44Z" fill="#211513"/>
<path d="M323.435 1.38175L217.757 0.00280479C216.691 -0.0598748 216.315 0.942999 216.253 1.50711L216.19 3.13678L216.629 4.0143L216.127 30.4651C216.127 30.8411 215.939 35.7301 217.381 35.7928L322.996 38.6761C323.748 38.7388 324.375 38.112 324.375 37.2971L324.5 2.38462C324.5 1.82051 323.999 1.38175 323.435 1.38175Z" fill="#54896E"/>
<path d="M318.107 161.528C318.023 161.528 317.96 161.528 317.919 161.528L222.207 153.63C222.082 153.63 221.643 153.568 221.643 153.442C221.58 153.254 221.894 153.191 221.956 153.254L317.919 161.152C318.483 161.214 318.984 161.026 319.36 160.65C319.736 160.337 319.987 159.835 319.987 159.334L320.05 150.308C320.05 150.183 320.113 150.12 320.175 150.12C320.301 150.12 320.363 150.183 320.363 150.308L320.301 159.334C320.301 159.898 320.05 160.525 319.611 160.964C319.172 161.277 318.671 161.528 318.107 161.528Z" fill="#211513"/>
<path d="M220.957 153.129C220.894 153.129 220.831 153.066 220.769 153.003C220.706 152.941 220.706 152.753 220.831 152.69L233.806 143.727C233.869 143.664 233.994 143.727 234.057 143.852C234.12 143.915 234.119 144.04 233.994 144.103L221.019 153.066C221.019 153.108 220.999 153.129 220.957 153.129Z" fill="#211513"/>
<path d="M234.93 59.799L221.14 59.5483C221.015 59.5483 220.952 59.4856 220.952 59.3602C220.952 59.2976 221.015 59.2349 221.14 59.2349L234.93 59.4856C235.055 59.4856 235.118 59.5483 235.118 59.6736C235.118 59.7363 235.055 59.799 234.93 59.799Z" fill="#211513"/>
<path d="M235.059 57.3542L221.207 57.1661C221.081 57.1661 221.019 57.1034 221.019 56.9781C221.019 56.8945 221.081 56.8318 221.207 56.79L235.059 56.9781C235.121 56.9781 235.247 57.0408 235.247 57.1661C235.247 57.2288 235.121 57.3542 235.059 57.3542Z" fill="#211513"/>
<path d="M318.421 6.39573L217.632 4.64071C217.005 4.57803 216.441 4.26463 216.19 3.70051C215.981 3.24086 215.877 2.76032 215.877 2.25888C215.94 0.879931 216.754 0.127777 216.754 0.0650975C216.817 0.00241792 216.942 0.00241697 217.005 0.127776C217.068 0.190456 217.068 0.253136 217.005 0.378495C217.005 0.378495 216.253 1.06797 216.253 2.32156C216.211 2.73942 216.295 3.1364 216.504 3.51247C216.692 3.95123 217.13 4.26463 217.632 4.26463L318.421 6.08233C318.483 6.08233 318.546 6.14501 318.546 6.27037C318.546 6.33305 318.483 6.39573 318.421 6.39573Z" fill="#211513"/>
<path d="M83.9361 215.934C83.9361 215.934 74.4715 106.872 77.8562 102.735C81.3036 98.5982 177.266 85.1221 181.215 91.9542C185.226 98.7863 182.468 145.545 182.468 145.545L83.9361 215.934Z" fill="#FDE8DB"/>
<path d="M112.14 194.874C112.015 194.874 111.952 194.811 111.952 194.748C111.89 194.247 108.379 146.548 107.815 123.733C107.251 101.669 105.308 100.228 105.245 100.165C105.12 100.102 105.12 100.04 105.12 99.9143C105.183 99.8516 105.308 99.789 105.371 99.8516C105.622 99.9143 107.565 101.168 108.129 123.733C108.693 146.548 112.266 194.247 112.328 194.686C112.328 194.811 112.266 194.874 112.14 194.874Z" fill="#211513"/>
<path d="M135.583 191.741C135.457 191.741 135.395 191.678 135.395 191.615C135.332 191.114 131.759 143.477 131.195 120.599C130.694 98.5361 128.751 97.0945 128.688 97.0318C128.563 96.9692 128.5 96.9065 128.563 96.8438C128.563 96.7184 128.688 96.6558 128.813 96.7184C129.001 96.7811 131.007 98.0347 131.571 120.599C132.135 143.415 135.708 191.114 135.708 191.553C135.708 191.678 135.645 191.741 135.583 191.741Z" fill="#211513"/>
<path d="M171.187 189.608C171.062 189.608 170.999 189.546 170.999 189.483C170.999 188.982 167.426 141.345 166.862 118.467C166.298 96.4038 164.355 94.9622 164.292 94.8995C164.23 94.8995 164.167 94.7741 164.167 94.7115C164.23 94.5861 164.355 94.5234 164.418 94.5861C164.668 94.6488 166.612 95.9024 167.176 118.467C167.74 141.282 171.312 188.982 171.375 189.42C171.375 189.546 171.313 189.608 171.187 189.608Z" fill="#211513"/>
<path d="M82.1179 104.678C81.9925 104.678 81.9299 104.616 81.9299 104.553C81.8672 104.428 81.9298 104.365 82.0552 104.302C82.1179 104.302 92.7108 101.168 118.535 97.7835C144.359 94.3988 177.704 94.0854 178.018 94.0854C178.143 94.0854 178.206 94.1481 178.206 94.2735C178.206 94.3362 178.143 94.4615 178.018 94.4615C177.704 94.4615 144.421 94.7749 118.597 98.1596C92.7734 101.482 82.2432 104.616 82.1179 104.678Z" fill="#211513"/>
<path d="M88.3241 210.105C88.2615 210.105 88.1361 210.042 88.1361 209.98C88.1361 209.729 86.4437 188.481 84.3126 157.454C82.8083 135.203 82.4323 119.533 82.2442 111.134C82.1816 107.812 82.1189 105.806 82.0562 105.242C81.8055 103.299 79.1102 103.487 78.9849 103.55C78.8595 103.55 78.7969 103.487 78.7969 103.362C78.7969 103.299 78.8595 103.174 78.9222 103.174C78.9849 103.174 82.1188 102.923 82.4322 105.18C82.4949 105.806 82.5576 107.812 82.6203 111.134C82.8084 119.533 83.1845 135.14 84.6888 157.392C86.7572 188.418 88.5122 209.729 88.5122 209.917C88.5122 210.042 88.4495 210.105 88.3241 210.105Z" fill="#211513"/>
<path d="M138.469 115.396C138.469 115.396 122.235 115.396 110.075 117.966C105.186 118.969 101.801 120.222 99.482 121.351C96.5361 122.855 93.3394 123.732 90.0801 124.108C88.1997 124.296 86.2566 124.986 85.0657 126.804C82.2451 131.003 86.5073 163.095 93.026 179.016C99.5446 194.874 106.941 203.962 106.941 203.962L131.637 191.802L138.469 115.396Z" fill="#4F7097"/>
<path d="M295.73 184.657C294.163 187.415 290.277 188.606 285.827 191.05C284.949 191.552 284.051 192.095 283.132 192.68C282.171 193.307 281.21 194.017 280.249 194.811C279.747 195.271 279.246 195.751 278.744 196.253C277.658 197.297 276.592 198.509 275.548 199.888C274.712 201.016 273.918 202.27 273.166 203.649C273.04 203.942 272.894 204.255 272.727 204.589C272.643 204.756 272.539 204.924 272.414 205.091C272.121 205.676 271.849 206.24 271.599 206.783C267.148 215.558 264.704 220.635 258.624 225.838C255.929 228.031 252.607 230.288 248.157 232.858C247.279 233.359 246.381 233.861 245.461 234.362C242.641 235.866 240.384 237.559 238.567 239.314C238.483 239.355 238.399 239.418 238.316 239.502C237.773 240.087 237.25 240.672 236.749 241.257C236.707 241.299 236.644 241.361 236.561 241.445C234.242 244.203 232.863 247.149 232.048 250.095C231.839 250.972 231.651 251.85 231.484 252.727C231.045 255.485 230.982 258.243 231.108 260.813C231.17 263.696 231.484 266.391 231.484 268.648C231.484 273.85 228.789 280.181 221.142 282.563C220.389 282.771 219.596 282.96 218.76 283.127C216.19 283.565 213.181 283.628 209.609 283.189C208.857 283.106 208.063 282.98 207.227 282.813C206.475 282.688 205.722 282.542 204.97 282.375C203.926 282.124 202.86 281.852 201.774 281.56C201.063 281.351 200.311 281.121 199.517 280.87C198.89 280.661 198.264 280.452 197.637 280.243C196.174 279.742 194.733 279.261 193.312 278.802C192.518 278.551 191.745 278.321 190.993 278.112C190.032 277.82 189.071 277.527 188.11 277.235C187.775 277.151 187.462 277.068 187.169 276.984C186.71 276.859 186.25 276.733 185.79 276.608C179.773 275.041 174.32 273.975 169.118 273.286C168.324 273.161 167.551 273.056 166.799 272.973C164.584 272.722 162.39 272.534 160.217 272.408C157.835 272.22 155.454 272.095 153.072 272.032C151.943 271.991 150.794 271.949 149.624 271.907C146.49 271.844 143.356 271.782 140.097 271.719H139.909C139.157 271.719 138.446 271.698 137.778 271.656C137.444 271.615 137.13 271.594 136.838 271.594C136.503 271.552 136.148 271.51 135.772 271.468C135.354 271.426 134.936 271.364 134.519 271.28C129.755 270.591 126.37 269.149 123.424 267.457C122.756 267.039 122.087 266.621 121.419 266.203C120.75 265.744 120.081 265.305 119.413 264.887C118.744 264.427 118.096 263.989 117.47 263.571C116.843 263.153 116.216 262.756 115.589 262.38C114.398 261.69 113.082 261.063 111.703 260.499C111.285 260.374 110.867 260.249 110.45 260.123C110.115 259.998 109.781 259.893 109.447 259.81C108.987 259.685 108.507 259.58 108.005 259.497C107.545 259.413 107.044 259.329 106.501 259.246C105.581 259.162 104.662 259.1 103.743 259.058C103.116 259.016 102.51 258.995 101.925 258.995L101.298 258.932C100.713 258.932 100.128 258.932 99.5433 258.932C96.284 258.87 93.2127 258.87 90.5175 258.431C87.7596 258.055 85.3778 257.24 83.4347 255.485C82.8915 254.942 82.39 254.336 81.9304 253.667C80.6768 251.85 79.7992 249.342 79.2978 246.02C78.6083 240.818 77.7935 234.989 77.4174 229.222C76.6653 217.125 77.5428 205.529 83.8734 201.33C84.3749 201.037 84.9181 200.745 85.5031 200.452C92.0845 197.068 104.62 194.811 114.336 193.558C115.339 193.39 116.3 193.265 117.219 193.182C117.762 193.098 118.284 193.035 118.786 192.993C123.988 192.367 127.624 192.053 127.624 192.053L129.065 191.615L150.188 184.532L158.337 181.837L163.665 180.019L175.198 176.195L177.517 176.133H181.089L192.811 175.945L203.278 175.757L208.606 175.694L213.432 175.631L231.985 175.318C231.985 175.318 234.054 175.443 237.438 175.694L240.76 175.945C241.68 175.986 242.641 176.049 243.644 176.133C244.855 176.216 246.109 176.321 247.404 176.446C248.324 176.488 249.264 176.551 250.225 176.634C251.395 176.718 252.586 176.822 253.798 176.948C254.759 177.031 255.72 177.115 256.681 177.198C256.806 177.198 256.932 177.198 257.057 177.198C258.018 177.324 259 177.428 260.003 177.512C262.447 177.762 264.892 177.95 267.336 178.264C267.921 178.306 268.486 178.347 269.029 178.389C269.865 178.515 270.679 178.619 271.473 178.703C272.017 178.744 272.539 178.807 273.04 178.891C273.876 178.974 274.712 179.079 275.548 179.204C279.308 179.643 282.818 180.144 285.827 180.708C286.704 180.875 287.519 181.043 288.272 181.21C293.411 182.275 296.42 183.404 295.73 184.657Z" fill="#7E9ABE"/>
<path d="M248.156 232.857C247.278 233.359 246.38 233.86 245.461 234.361C242.64 235.866 240.384 237.558 238.566 239.313C238.482 239.355 238.399 239.418 238.315 239.501C237.772 240.086 237.25 240.671 236.748 241.256C236.706 241.298 236.644 241.361 236.56 241.444C234.241 244.202 232.862 247.148 232.047 250.094C231.838 250.971 231.65 251.849 231.483 252.727C231.044 255.484 230.982 258.242 231.107 260.812C230.898 260.394 230.752 259.935 230.668 259.433C229.916 254.043 222.457 251.786 219.073 248.276C214.434 243.387 212.366 235.803 216.252 229.848C217.004 228.658 218.132 228.031 219.01 227.341C220.138 226.589 223.962 223.957 228.663 224.771C231.044 225.148 232.737 226.338 233.74 226.965C235.808 228.407 236.497 229.66 237.626 230.663C239.255 232.168 242.201 233.547 248.156 232.857Z" fill="#BFCEE0"/>
<path d="M90.2041 220.383C90.0787 223.204 88.5744 225.899 86.1299 227.403C84.3122 228.469 82.2438 228.532 80.4887 229.033C79.4232 229.346 78.3576 229.409 77.4174 229.221C76.6653 217.124 77.5428 205.528 83.8734 201.329C84.3749 201.036 84.9181 200.744 85.5031 200.451C87.8849 201.329 89.7653 203.46 89.6399 206.468C89.5146 208.913 89.5146 211.357 89.6399 213.802C89.828 215.996 90.3294 218.189 90.2041 220.383Z" fill="#BFCEE0"/>
<path d="M119.162 261.313C117.951 261.689 116.76 262.066 115.59 262.442C114.399 261.689 113.082 261.063 111.703 260.499C111.286 260.373 110.868 260.248 110.45 260.122C110.116 259.997 109.781 259.893 109.447 259.809C108.987 259.684 108.507 259.579 108.005 259.496C107.546 259.412 107.044 259.349 106.501 259.308C105.582 259.182 104.662 259.099 103.743 259.057C103.116 259.015 102.51 258.994 101.925 258.994L101.299 258.932C100.714 258.932 100.129 258.932 99.5436 258.932C96.2843 258.869 93.213 258.869 90.5178 258.43C90.5595 258.263 90.6223 258.075 90.7058 257.866C90.2671 256.612 90.1417 255.171 90.3924 253.729C91.1446 250.407 91.3326 246.208 93.0249 243.262C94.9053 239.94 98.7288 238.561 102.302 239.564C108.758 241.381 114.9 246.02 120.729 249.342C125.744 252.162 124.427 259.684 119.162 261.313Z" fill="#BFCEE0"/>
<path fill-rule="evenodd" clip-rule="evenodd" d="M133.203 219.569C127.311 221.763 120.918 218.441 117.846 213.364C114.587 207.973 115.465 202.081 114.399 196.189C114.232 195.27 114.211 194.393 114.336 193.557C115.339 193.39 116.3 193.264 117.22 193.181C117.763 193.097 118.285 193.034 118.787 192.993C123.989 192.366 127.625 192.053 127.625 192.053L129.066 191.614C129.317 193.306 131.448 194.748 132.576 195.876C134.582 197.882 136.65 200.013 137.967 202.583C140.85 208.412 140.098 216.999 133.203 219.569ZM129.818 207.221C129.735 207.221 129.672 207.221 129.63 207.221C129.881 207.722 129.818 207.284 129.818 207.221Z" fill="#BFCEE0"/>
<path d="M161.785 268.835C161.471 270.088 160.907 271.217 160.218 272.408C157.836 272.22 155.454 272.094 153.072 272.032C151.944 271.99 150.795 271.948 149.625 271.906C146.491 271.844 143.357 271.781 140.097 271.718H139.909C139.157 271.718 138.447 271.697 137.778 271.655C137.444 271.614 137.131 271.593 136.838 271.593C136.504 271.551 136.149 271.509 135.772 271.467C135.961 270.214 136.587 268.96 137.59 268.145C138.718 267.268 140.724 266.14 141.351 264.761C141.978 263.444 141.1 261.501 140.661 260.185C139.094 255.484 136.023 251.598 134.331 246.96C132.701 242.196 133.579 236.68 137.653 233.484C141.414 230.475 146.804 230.412 150.816 232.92C155.391 235.803 157.146 241.569 156.206 246.709C155.955 248.151 154.952 249.78 155.078 251.159C155.203 252.789 156.833 254.544 157.71 255.735C160.406 259.684 162.975 263.883 161.785 268.835Z" fill="#BFCEE0"/>
<path fill-rule="evenodd" clip-rule="evenodd" d="M192.811 175.944C192.686 179.454 190.241 182.839 186.418 183.904C182.971 184.844 179.084 184.218 175.95 186.098C174.571 186.85 174.07 187.978 173.381 189.42C172.19 191.676 170.936 193.745 169.056 195.437C165.483 198.697 160.093 200.702 155.266 199.386C149.813 197.944 146.93 192.617 148.81 187.289C149.144 186.328 149.604 185.408 150.189 184.531L158.338 181.836L163.665 180.018L175.198 176.195L177.517 176.132H181.09L192.811 175.944ZM158.776 186.662C158.734 186.662 158.693 186.662 158.651 186.662C158.588 186.787 158.651 186.787 158.776 186.662Z" fill="#BFCEE0"/>
<path fill-rule="evenodd" clip-rule="evenodd" d="M220.451 218.002C214.747 221.073 208.73 217.751 202.775 217.939C197.448 218.064 192.747 221.073 188.046 223.204C182.279 225.899 174.131 227.905 169.179 222.452C167.612 220.76 167.048 218.817 166.86 218.127C165.669 212.925 169.367 208.286 170.621 206.782C171.749 205.278 172.815 204.275 173.316 203.962C183.721 198.32 196.445 193.933 208.479 194.372C214.308 194.56 220.2 196.753 223.522 201.768C227.032 206.97 226.406 214.805 220.451 218.002ZM212.679 209.164C212.679 209.164 212.658 209.164 212.616 209.164C212.616 209.289 212.637 209.289 212.679 209.164Z" fill="#BFCEE0"/>
<path d="M250.226 176.633C250.184 176.717 250.163 176.779 250.163 176.821C249.16 180.457 245.525 182.149 242.077 181.459C241.576 181.334 241.054 181.23 240.51 181.146C237.439 180.707 234.305 180.958 231.359 182.149C227.661 183.591 224.653 186.411 221.017 188.041C216.379 190.109 210.863 190.485 206.413 187.602C202.088 184.844 201.524 180.018 203.279 175.756L208.607 175.693L213.433 175.63L231.986 175.317C231.986 175.317 234.054 175.442 237.439 175.693L240.761 175.944C241.681 175.985 242.642 176.048 243.644 176.132C244.856 176.215 246.11 176.32 247.405 176.445C248.324 176.487 249.265 176.55 250.226 176.633Z" fill="#BFCEE0"/>
<path d="M278.744 196.252C277.658 197.297 276.592 198.509 275.548 199.888C274.712 201.016 273.918 202.27 273.166 203.648C273.041 203.941 272.894 204.254 272.727 204.589C272.644 204.756 272.539 204.923 272.414 205.09C272.121 205.675 271.85 206.239 271.599 206.782C267.149 215.558 264.704 220.635 258.624 225.837C255.177 226.15 250.852 225.962 249.097 223.393C248.408 222.452 247.969 221.7 248.031 219.569C248.157 216.059 246.527 213.991 245.085 210.919C243.393 207.284 242.641 203.335 244.208 199.512C247.217 192.241 256.43 191.238 263.263 190.737C267.149 190.423 271.599 190.799 275.109 192.68C276.676 193.494 277.929 194.748 278.744 196.252Z" fill="#BFCEE0"/>
<path d="M295.73 184.657C294.163 187.414 290.277 188.605 285.826 191.05C279.308 189.107 272.601 188.041 268.464 181.711C267.649 180.52 267.336 179.329 267.336 178.263C267.921 178.305 268.485 178.347 269.028 178.389C269.864 178.514 270.679 178.618 271.473 178.702C272.016 178.744 272.538 178.806 273.04 178.89C273.876 178.974 274.711 179.078 275.547 179.203C279.308 179.642 282.818 180.144 285.826 180.708C286.704 180.875 287.519 181.042 288.271 181.209C293.411 182.275 296.419 183.403 295.73 184.657Z" fill="#BFCEE0"/>
<path fill-rule="evenodd" clip-rule="evenodd" d="M207.227 282.812C207.102 282.875 206.412 282.687 204.97 282.374C203.926 282.123 202.86 281.851 201.774 281.559C201.064 281.35 200.311 281.12 199.517 280.869C198.891 280.66 198.264 280.451 197.637 280.242C196.174 279.741 194.733 279.26 193.312 278.801C192.518 278.55 191.745 278.32 190.993 278.111C190.032 277.819 189.071 277.526 188.11 277.234C187.775 277.15 187.462 277.067 187.17 276.983C185.352 273.41 184.85 269.524 183.409 265.575C182.155 262.003 177.642 261.313 174.947 258.931C169.306 254.042 171.249 247.398 175.511 242.384C176.326 241.507 177.58 240.942 177.58 240.942C179.648 239.751 181.528 239.375 181.967 239.313C181.967 239.313 183.91 238.749 185.791 239.313C191.244 240.88 192.685 245.643 196.321 249.279C202.965 255.985 203.654 254.544 206.663 259.433C212.555 269.148 209.734 282.311 207.227 282.812ZM199.705 274.601C199.204 274.539 200.395 275.353 199.705 274.601V274.601Z" fill="#BFCEE0"/>
<path d="M230.419 238.812C230.419 238.812 230.398 238.812 230.356 238.812C229.917 238.686 184.788 229.347 154.514 225.148C124.177 220.948 89.2645 211.358 88.8884 211.296C88.8258 211.233 88.7631 211.17 88.8258 211.045C88.8258 210.982 88.8884 210.919 89.0138 210.919C89.3898 211.045 124.24 220.635 154.577 224.834C184.851 229.034 229.98 238.373 230.481 238.436C230.544 238.498 230.607 238.561 230.607 238.686C230.544 238.749 230.482 238.812 230.419 238.812Z" fill="#211513"/>
<path d="M106.501 189.483C106.376 189.483 106.313 189.42 106.313 189.295C106.564 186.474 104.307 179.266 102.489 173.5C101.487 170.303 100.609 167.608 100.233 165.853C99.7942 163.722 99.3555 160.212 98.8541 156.513C98.1646 151.436 97.4124 145.733 96.5349 142.536C94.9679 136.957 90.3924 128.621 90.3297 128.558C90.267 128.433 90.3297 128.37 90.3923 128.308C90.455 128.245 90.5804 128.308 90.6431 128.37C90.6431 128.433 95.344 136.832 96.8483 142.411C97.7885 145.67 98.5407 151.436 99.1675 156.451C99.6689 160.149 100.17 163.659 100.609 165.79C100.985 167.482 101.863 170.24 102.803 173.437C104.746 179.517 106.877 186.474 106.689 189.358C106.689 189.42 106.626 189.483 106.501 189.483Z" fill="#211513"/>
<path d="M174.697 175.818C165.921 178.827 157.648 181.898 157.397 182.964C157.146 184.029 164.354 187.163 172.127 190.297L174.697 175.818Z" fill="#3D2952"/>
<path d="M172.816 187.665C171.688 187.226 170.81 186.85 170.246 186.599C169.369 186.223 168.867 185.972 167.614 185.346C166.861 185.032 166.297 184.719 165.859 184.531C165.671 184.468 164.542 184.029 164.605 183.653C164.605 183.591 164.668 183.465 165.106 183.215C165.483 183.027 165.671 182.901 166.047 182.776C166.235 182.713 165.859 182.776 171.124 180.394C171.938 180.018 173.067 179.516 174.32 178.89C174.279 179.057 174.216 179.224 174.132 179.391C172.294 180.185 170.434 181.042 168.554 181.961C167.342 182.546 166.151 183.131 164.981 183.716C167.614 184.928 170.225 186.119 172.816 187.289C172.816 187.414 172.816 187.539 172.816 187.665Z" fill="#694C87"/>
<path d="M174.761 173.124C174.761 173.124 174.949 179.83 172.88 186.788C170.812 193.745 168.618 194.247 168.618 194.247L169.182 174.377L174.761 173.124Z" fill="#211513"/>
<path d="M135.148 111.008C133.268 111.134 130.886 112.199 129.193 113.014C123.803 115.584 111.831 122.165 107.005 132.257C100.674 145.482 96.0358 192.993 113.774 197.569C131.45 202.082 146.117 194.247 155.08 193.683C164.106 193.119 166.989 195.312 168.619 194.247C170.248 193.181 170.813 183.529 170.06 177.198C169.308 170.867 169.935 161.403 169.935 161.403C169.935 161.403 177.457 159.648 180.152 159.836C182.534 160.024 183.975 160.525 183.975 160.525L182.659 158.833C182.659 158.833 183.599 154.571 186.733 152.314C189.804 150.058 193.252 149.87 193.252 149.87C193.252 149.87 184.038 146.234 182.722 143.476C181.405 140.718 171.063 118.217 163.04 114.142C154.955 110.068 148.123 110.256 148.123 110.256L135.148 111.008Z" fill="#F1806A"/>
<path d="M181.154 159.836C181.154 159.836 183.787 154.195 186.795 151.938C189.741 149.744 192.311 148.804 196.26 150.81C200.272 152.878 204.659 160.212 204.158 162.468C203.782 164.349 201.65 164.411 201.65 164.411C201.65 164.411 201.964 166.292 200.46 166.73C198.955 167.169 196.072 164.913 196.072 164.913C196.072 164.913 198.015 168.297 196.448 169.426C194.881 170.554 191.998 168.297 191.998 168.297L181.154 159.836Z" fill="#6A4435"/>
<path d="M201.651 164.537C201.589 164.537 201.526 164.537 201.526 164.411C201.526 164.411 200.837 161.904 199.708 160.149C198.517 158.394 197.013 157.015 197.013 157.015C196.888 156.952 196.888 156.827 196.95 156.764C197.013 156.702 197.138 156.702 197.201 156.764C197.201 156.764 198.831 158.206 199.959 159.961C201.15 161.716 201.839 164.223 201.839 164.349C201.902 164.411 201.839 164.537 201.714 164.537C201.714 164.537 201.693 164.537 201.651 164.537Z" fill="#211513"/>
<path d="M195.949 164.976C195.949 164.976 194.319 162.782 193.316 161.466C192.439 160.275 190.621 159.522 190.558 159.522C190.496 159.46 190.433 159.397 190.496 159.272C190.496 159.209 190.621 159.146 190.684 159.209C190.809 159.209 192.627 159.961 193.63 161.278C194.57 162.531 196.2 164.788 196.2 164.788L195.949 164.976Z" fill="#211513"/>
<path d="M144.99 166.104C133.081 166.104 126.5 163.847 126.437 163.847C126.375 163.785 126.312 163.722 126.375 163.597C126.375 163.534 126.5 163.471 126.563 163.534C126.625 163.534 133.144 165.79 144.99 165.79C156.837 165.79 169.749 161.278 169.874 161.215C169.999 161.215 170.062 161.278 170.125 161.34C170.125 161.466 170.125 161.528 170 161.591C169.874 161.591 156.9 166.104 144.99 166.104Z" fill="#211513"/>
<path d="M132.579 165.038C132.454 165.038 132.391 164.975 132.391 164.913C132.391 164.599 130.323 138.148 119.291 129.624C114.966 126.302 109.451 128.872 109.388 128.935C109.263 128.935 109.2 128.935 109.137 128.809C109.075 128.747 109.137 128.621 109.2 128.621C109.263 128.559 114.966 125.863 119.542 129.373C130.636 137.96 132.705 164.599 132.767 164.85C132.767 164.975 132.642 165.038 132.579 165.038Z" fill="#3D2952"/>
<path d="M153.386 193.119C153.324 193.119 153.261 193.056 153.198 192.931C153.198 192.931 152.572 188.606 152.07 180.708C151.631 172.873 152.446 165.603 152.446 165.54C152.446 165.477 152.572 165.415 152.634 165.415C152.76 165.415 152.822 165.477 152.822 165.603C152.822 165.665 151.945 172.873 152.446 180.708C152.885 188.543 153.574 192.868 153.574 192.868C153.574 192.994 153.512 193.056 153.449 193.119C153.407 193.119 153.386 193.119 153.386 193.119Z" fill="#211513"/>
<path d="M160.721 164.161C160.596 164.161 160.533 164.098 160.533 164.036C160.533 163.973 159.342 157.956 157.65 152.565C156.02 147.237 152.51 140.029 152.447 139.904C152.447 139.841 152.447 139.716 152.573 139.716C152.635 139.653 152.761 139.716 152.761 139.779C152.823 139.841 156.333 147.112 158.026 152.503C159.718 157.83 160.846 163.91 160.846 163.973C160.909 164.036 160.846 164.161 160.721 164.161Z" fill="#211513"/>
<path d="M154.641 165.038C154.516 165.038 154.453 164.976 154.453 164.913C154.39 164.788 150.943 152.377 146.681 144.48C141.855 135.516 124.68 116.023 124.492 115.772C124.43 115.71 124.43 115.584 124.555 115.522C124.618 115.459 124.743 115.522 124.806 115.584C124.931 115.772 142.105 135.328 146.994 144.354C151.256 152.252 154.767 164.725 154.767 164.85C154.829 164.913 154.767 165.038 154.641 165.038Z" fill="#211513"/>
<path d="M156.396 148.616C156.354 148.616 156.333 148.616 156.333 148.616C156.208 148.616 156.208 148.553 156.208 148.428C156.208 148.365 157.336 142.975 158.026 133.009C158.903 121.1 157.963 112.324 157.963 112.262C157.963 112.136 158.026 112.074 158.151 112.074C158.214 112.074 158.339 112.136 158.339 112.199C158.339 112.324 159.217 121.1 158.402 133.071C157.712 143.037 156.521 148.428 156.521 148.491C156.521 148.553 156.459 148.616 156.396 148.616Z" fill="#211513"/>
<path d="M179.524 159.335C179.483 159.335 179.441 159.314 179.399 159.272C179.107 159.105 178.814 158.958 178.522 158.833C177.205 158.269 176.014 157.705 175.074 154.195C174.322 151.249 174.322 147.801 175.012 143.853C175.638 140.217 171.94 133.949 171.878 133.887C171.815 133.761 171.878 133.699 171.94 133.636C172.003 133.573 172.128 133.573 172.191 133.699C172.316 133.949 176.014 140.155 175.325 143.915C174.635 147.801 174.698 151.186 175.45 154.069C176.265 157.454 177.456 157.956 178.647 158.52C178.96 158.645 179.274 158.77 179.587 158.958C179.712 159.021 179.712 159.146 179.65 159.209C179.608 159.293 179.566 159.335 179.524 159.335Z" fill="#211513"/>
<path d="M175.575 154.946H175.387V154.758C175.325 154.131 175.074 150.997 175.826 148.929C176.704 146.61 178.647 145.356 178.709 145.294C178.835 145.231 178.897 145.231 178.96 145.356C179.023 145.419 179.023 145.544 178.897 145.607C178.897 145.607 176.954 146.861 176.14 149.054C175.638 150.308 175.575 152.063 175.638 153.317C175.889 152.063 176.453 150.245 178.02 148.428C180.276 145.858 182.972 145.92 183.097 145.92C183.16 145.92 183.222 145.983 183.222 146.108C183.222 146.171 183.16 146.234 183.034 146.234C183.034 146.234 180.402 146.234 178.271 148.678C176.265 150.997 175.951 153.379 175.826 154.445C175.784 154.57 175.763 154.675 175.763 154.758L175.701 154.946H175.575Z" fill="#211513"/>
<path d="M131.387 155.448C131.387 155.448 134.333 160.4 139.41 162.343C144.549 164.223 146.367 163.346 149.814 163.534C153.199 163.722 155.769 164.913 155.769 164.913L151.256 165.602L143.923 165.978L135.649 165.54L132.578 164.976L132.139 160.463L131.387 155.448Z" fill="#211513"/>
<path d="M172.129 133.636C172.129 133.636 177.018 138.963 176.83 142.599C176.642 146.172 175.702 149.682 175.702 149.682L175.388 153.004V153.944L174.761 151.437L174.699 148.177L174.949 144.918L175.263 142.787L175.075 141.157L174.135 137.898L172.129 133.636Z" fill="#211513"/>
<path d="M163.854 166.731C163.854 167.169 164.168 167.483 164.607 167.483C165.045 167.483 165.359 167.169 165.359 166.731C165.359 166.355 165.045 165.979 164.607 165.979C164.168 165.979 163.854 166.355 163.854 166.731Z" fill="#211513"/>
<path d="M158.088 167.482C158.088 167.921 158.401 168.235 158.84 168.235C159.216 168.235 159.592 167.921 159.592 167.482C159.592 167.106 159.216 166.793 158.84 166.793C158.401 166.793 158.088 167.106 158.088 167.482Z" fill="#211513"/>
<path d="M160.783 98.8485C160.407 102.296 156.646 103.236 155.706 103.361C155.518 103.361 155.33 103.549 155.204 103.8C155.204 103.8 155.183 103.8 155.142 103.8C154.578 104.678 153.888 106.621 151.569 107.624C150.629 108 149.124 108.062 147.557 108C143.922 107.749 139.723 106.621 139.723 106.621C139.723 106.621 138.845 105.681 138.156 105.43C137.529 105.179 136.275 105.618 134.269 105.869C132.326 106.119 130.822 104.991 130.007 103.988C129.255 102.923 125.933 102.86 125.745 98.0963C125.557 93.3953 130.007 92.2671 130.634 91.3896C131.261 90.5121 133.768 84.1188 137.654 81.8623C141.54 79.5432 146.743 80.9848 146.743 80.9848C146.743 80.9848 149.689 79.9192 152.384 82.2384C154.828 84.3068 153.825 87.0647 154.954 87.7542C157.837 89.3839 157.085 91.515 157.774 92.7059C158.401 93.9595 161.159 95.3384 160.783 98.8485Z" fill="#4A271A"/>
<path d="M151.63 108.751C150.126 108.751 149.061 107.811 149.061 107.811L149.249 107.561C149.374 107.623 151.254 109.316 153.385 107.811C155.579 106.37 155.266 102.672 155.266 102.672L155.642 102.609C155.642 102.797 155.955 106.495 153.573 108.125C152.884 108.626 152.195 108.751 151.63 108.751Z" fill="#4A271A"/>
<path d="M155.956 101.355C155.663 102.358 155.413 103.173 155.204 103.8C155.204 103.8 155.183 103.8 155.141 103.8C154.577 104.678 153.887 106.621 151.568 107.623C150.628 108 149.124 108.062 147.557 108L147.933 105.994L154.514 90.9507C154.514 90.9507 156.959 97.4694 155.956 101.355Z" fill="#211513"/>
<path d="M148.812 106.057C148.812 106.057 147.683 108.439 148.059 109.504C148.435 110.632 150.692 111.51 152.196 111.949C153.011 112.199 153.638 112.952 153.638 113.829C153.826 119.596 154.265 139.59 152.447 139.653C149.501 139.778 134.521 119.846 130.634 114.644C130.196 113.954 130.384 113.077 131.136 112.701C133.204 111.698 137.091 109.567 138.908 106.746C140.099 104.866 140.475 101.23 140.475 101.23L148.812 106.057Z" fill="#6A4435"/>
<path d="M154.577 91.076C154.076 89.0703 152.885 87.2526 151.193 86.0617C149.751 85.0588 147.871 84.3693 145.551 85.1215C142.731 85.999 141.477 90.5119 140.913 94.5234C140.474 94.3354 139.659 94.0847 138.845 94.7741C137.716 95.777 138.281 98.4722 139.158 99.0363C139.409 99.1617 139.639 99.2453 139.848 99.287C140.224 99.4124 140.474 99.7258 140.474 100.102C140.474 100.791 140.474 101.23 140.474 101.23C140.474 101.23 145.99 108.877 151.882 106.37C155.831 104.677 155.455 94.7741 154.577 91.076Z" fill="#6A4435"/>
<path d="M148.874 107.247C148.749 107.247 146.806 106.997 144.173 105.43C141.541 103.863 140.475 101.543 140.413 101.418C140.35 101.355 140.413 101.23 140.475 101.23C140.601 101.167 140.726 101.23 140.726 101.293C140.726 101.293 141.792 103.612 144.362 105.116C146.931 106.621 148.874 106.871 148.874 106.871C149 106.871 149.062 106.997 149.062 107.059C149 107.185 148.937 107.247 148.874 107.247Z" fill="#211513"/>
<path d="M151.257 98.8485C151.215 98.8485 151.173 98.8276 151.132 98.7858C151.069 98.6605 151.132 98.5978 151.194 98.5351C151.633 98.3471 152.135 98.159 152.197 98.0964C152.323 97.971 152.385 97.783 152.26 97.5949C152.218 97.4278 152.135 97.2397 152.009 97.0308C151.382 96.0279 150.38 94.3356 151.194 92.1418C151.696 90.7629 154.203 90.8882 154.266 90.8882C154.391 90.8882 154.454 91.0136 154.454 91.0763C154.454 91.2016 154.328 91.2643 154.266 91.2643C154.266 91.2643 151.947 91.1389 151.508 92.2672C150.818 94.3356 151.696 95.8399 152.26 96.8428C152.427 97.0517 152.532 97.2397 152.573 97.4069C152.761 97.7203 152.699 98.0964 152.448 98.3471C152.323 98.4724 151.633 98.7232 151.32 98.8485C151.32 98.8485 151.299 98.8485 151.257 98.8485Z" fill="#211513"/>
<path d="M151.193 100.791C151.319 100.854 151.507 100.791 151.569 100.728C151.757 100.54 151.945 100.415 152.196 100.415C152.572 100.415 152.948 100.603 153.136 100.54C153.951 100.164 153.512 100.979 151.632 101.606C150.88 101.857 149.564 101.857 149.062 101.794C148.749 101.731 148.185 101.543 149.062 101.543C149.814 101.606 150.128 100.916 150.441 100.728C150.754 100.603 151.005 100.728 151.193 100.791Z" fill="#462619"/>
<path d="M151.13 102.86C150.629 102.86 150.253 102.734 150.19 102.672C150.128 102.672 150.065 102.546 150.128 102.484C150.128 102.358 150.253 102.358 150.316 102.358C150.316 102.358 151.256 102.672 152.071 102.233C152.697 101.92 152.572 101.042 152.572 101.042C152.572 100.979 152.635 100.854 152.697 100.854C152.823 100.854 152.885 100.917 152.885 100.979C152.885 101.042 153.073 102.108 152.196 102.546C151.82 102.797 151.444 102.86 151.13 102.86Z" fill="#462619"/>
<path d="M148.373 92.5181C148.31 92.7062 148.185 92.7689 148.06 92.7689C147.684 92.7062 146.305 92.7689 145.427 92.9569C144.675 93.1449 144.299 93.4583 144.111 93.7091C144.048 93.7717 143.923 93.7091 143.923 93.6464C143.986 93.2703 144.111 92.6435 144.487 92.3928C145.051 92.0167 148.06 91.5153 148.31 91.954C148.436 92.1421 148.436 92.3928 148.373 92.5181Z" fill="#211513"/>
<path d="M151.131 92.0165C151.069 92.8314 151.006 92.706 151.382 92.3926C151.57 92.2046 153.074 91.7031 153.827 91.5778C154.391 91.4524 154.391 91.5151 154.579 91.7031C154.641 91.7658 154.704 91.7658 154.704 91.6405C154.579 91.2017 154.453 90.8883 154.077 90.763C153.513 90.6376 151.319 91.0763 151.194 91.5151C151.131 91.7031 151.131 91.8285 151.131 92.0165Z" fill="#211513"/>
<path d="M150.692 98.535C150.692 98.535 150.379 98.5977 150.128 98.7231C149.877 98.8484 149.689 98.9738 149.689 98.9738C149.689 98.9738 149.689 98.4723 150.066 98.347C150.442 98.2843 150.692 98.535 150.692 98.535Z" fill="#211513"/>
<path d="M146.241 95.2133C146.241 95.7774 146.492 96.2162 146.868 96.2162C147.181 96.2162 147.432 95.7774 147.432 95.2133C147.432 94.6492 147.181 94.2104 146.868 94.2104C146.492 94.2104 146.241 94.6492 146.241 95.2133Z" fill="#211513"/>
<path d="M152.636 94.6484C152.636 95.2125 152.949 95.6513 153.263 95.6513C153.576 95.6513 153.889 95.2125 153.889 94.6484C153.889 94.0843 153.576 93.6455 153.263 93.6455C152.949 93.6455 152.636 94.0843 152.636 94.6484Z" fill="#211513"/>
<path d="M148.12 84.5576C148.12 84.5576 146.741 90.1361 143.795 92.6433C141.915 94.2103 140.912 94.5237 140.912 94.5237L140.536 88.3811L144.736 84.7457L148.12 84.5576Z" fill="#4A271A"/>
<path d="M127.624 94.9617C127.561 94.899 126.684 93.0813 127.875 91.2009C129.003 89.3832 132.513 88.631 132.701 88.5684L132.764 88.9444C132.701 88.9444 129.191 89.6966 128.125 91.3889C127.123 93.0813 127.937 94.7736 127.937 94.8363L127.624 94.9617Z" fill="#4A271A"/>
<path d="M159.59 100.603L159.465 100.29C159.527 100.227 161.596 99.0364 160.906 96.5919C160.217 94.022 157.146 93.0191 157.083 93.0191L157.208 92.6431C157.334 92.7057 160.53 93.7713 161.283 96.4665C162.035 99.2244 159.653 100.541 159.59 100.603Z" fill="#4A271A"/>
<path d="M155.705 89.1335L155.392 89.0708C155.392 89.0708 155.517 87.4411 155.079 86.1249C154.577 84.8086 152.885 83.9311 152.885 83.9311L153.01 83.6177C153.136 83.6804 154.891 84.5579 155.392 85.9995C155.893 87.4411 155.768 89.0708 155.705 89.1335Z" fill="#4A271A"/>
<path d="M131.324 106.934C130.907 106.934 130.468 106.871 130.008 106.746C127.25 106.056 126.874 100.917 126.812 100.729L127.188 100.666C127.188 100.729 127.564 105.806 130.134 106.433C132.641 107.059 133.957 105.555 134.02 105.492L134.333 105.743C134.27 105.806 133.205 106.934 131.324 106.934Z" fill="#4A271A"/>
<path d="M147.996 84.9334C147.87 84.9334 147.808 84.8081 147.87 84.7454C147.87 84.7454 148.058 83.8679 147.808 82.8023C147.557 81.7368 146.805 81.2354 146.805 81.2354C146.742 81.1727 146.742 81.0473 146.742 80.9846C146.805 80.922 146.93 80.8593 146.993 80.922C147.056 80.9846 147.87 81.5487 148.121 82.7397C148.435 83.8679 148.184 84.8081 148.184 84.8081C148.184 84.8708 148.121 84.9334 147.996 84.9334Z" fill="#211513"/>
<path d="M140.349 97.9082C140.308 97.9082 140.287 97.8873 140.287 97.8455C140.224 97.8455 139.973 97.5948 139.911 97.0307C139.785 96.4666 140.349 95.9025 140.412 95.9025C140.475 95.8398 140.6 95.8398 140.663 95.9025C140.725 95.9652 140.725 96.0278 140.663 96.1532C140.537 96.2786 140.161 96.6546 140.224 96.968C140.287 97.4068 140.475 97.5948 140.475 97.5948C140.538 97.6575 140.538 97.7829 140.475 97.8455C140.475 97.8873 140.433 97.9082 140.349 97.9082Z" fill="#211513"/>
<path d="M127.813 101.168C127.729 101.168 127.667 101.147 127.625 101.105C127.562 100.98 126.246 98.6606 126.873 96.3414C127.312 94.5864 129.756 92.9567 131.135 92.1419C131.511 91.9538 131.887 91.6404 132.075 91.2644L132.326 90.7629C133.517 88.6945 135.961 84.3696 137.967 82.7399C140.286 80.8596 144.361 81.2983 144.549 81.2983C144.611 81.2983 144.674 81.4237 144.674 81.4864C144.674 81.6117 144.548 81.6744 144.486 81.6744C144.423 81.6744 140.412 81.2356 138.218 82.9907C136.212 84.5577 133.83 88.8825 132.639 90.951L132.389 91.3897C132.138 91.8285 131.762 92.2046 131.323 92.4553C130.258 93.0821 127.688 94.7117 127.186 96.4041C126.622 98.6606 127.938 100.854 127.938 100.917C128.001 100.98 127.938 101.105 127.876 101.168C127.834 101.168 127.813 101.168 127.813 101.168Z" fill="#211513"/>
<path d="M140.159 93.8343C140.076 93.8343 140.034 93.7925 140.034 93.7089C139.971 93.6463 140.034 93.5209 140.096 93.4582C140.096 93.4582 142.416 92.4553 144.108 90.3242C145.863 88.1931 146.866 84.3697 146.866 84.307C146.929 84.2443 146.991 84.1816 147.117 84.1816C147.179 84.1816 147.242 84.307 147.242 84.3697C147.179 84.5577 146.176 88.3812 144.359 90.575C142.604 92.7687 140.347 93.7716 140.222 93.8343C140.222 93.8343 140.201 93.8343 140.159 93.8343Z" fill="#211513"/>
<path d="M129.819 102.045C129.778 102.045 129.757 102.024 129.757 101.983C129.694 101.983 127.563 100.04 128.378 97.219C129.005 94.9625 131.7 93.5209 132.828 93.0194C133.079 92.9359 133.267 92.7896 133.392 92.5807L135.523 89.196C135.586 89.1333 135.649 89.1333 135.774 89.1333C135.837 89.196 135.837 89.3213 135.837 89.384L133.706 92.7687C133.538 93.0194 133.309 93.2075 133.016 93.3328C132.139 93.7089 129.318 95.0879 128.691 97.2816C128.002 99.9142 129.945 101.669 129.945 101.732C130.007 101.795 130.07 101.92 130.007 101.983C129.966 102.024 129.903 102.045 129.819 102.045Z" fill="#211513"/>
<path d="M153.324 86.7515C153.199 86.7515 153.136 86.6889 153.136 86.6262C153.136 86.5635 152.886 84.4951 151.883 83.3042C150.943 82.1759 149 81.9879 149 81.9879C148.874 81.9252 148.812 81.8625 148.812 81.7372C148.874 81.6745 148.937 81.6118 149 81.6118C149.125 81.6118 151.068 81.7999 152.134 83.1161C153.199 84.3697 153.45 86.5008 153.45 86.5635C153.513 86.6889 153.45 86.7515 153.324 86.7515Z" fill="#211513"/>
<path d="M135.772 105.117C135.688 105.117 135.647 105.096 135.647 105.054C135.584 104.929 135.584 104.866 135.647 104.803C135.647 104.803 136.461 104.114 137.151 101.795C137.84 99.4755 136.838 97.2191 136.838 97.1564C136.775 97.0937 136.838 96.9683 136.9 96.9683C137.026 96.9057 137.088 96.9683 137.151 97.031C137.214 97.1564 138.216 99.4755 137.464 101.92C136.775 104.365 135.897 105.054 135.897 105.054C135.856 105.096 135.814 105.117 135.772 105.117Z" fill="#211513"/>
<path d="M137.464 93.5204C137.464 93.5204 137.444 93.5204 137.402 93.5204C137.339 93.5204 137.276 93.3951 137.276 93.3324C137.276 93.2697 138.342 90.0731 139.658 87.942C141.037 85.8108 144.798 83.429 144.923 83.3663C145.049 83.3037 145.111 83.3037 145.174 83.3663C145.237 83.4917 145.237 83.5544 145.111 83.6171C145.111 83.6797 141.288 86.0616 139.972 88.13C138.655 90.1984 137.653 93.3951 137.653 93.4578C137.59 93.5204 137.527 93.5204 137.464 93.5204Z" fill="#211513"/>
<path d="M155.455 102.358C155.329 102.358 155.267 102.296 155.267 102.233C155.267 102.17 155.267 102.045 155.392 102.045C155.392 102.045 158.777 101.168 159.153 98.8484C159.591 96.5293 157.147 94.2728 157.147 94.2728C157.022 94.2102 157.022 94.0848 157.084 94.0221C157.147 93.9594 157.272 93.9594 157.335 94.0221C157.46 94.0848 159.968 96.4039 159.529 98.9111C159.09 101.418 155.643 102.358 155.455 102.358Z" fill="#211513"/>
<path d="M189.489 196.817C189.489 196.817 238.943 193.181 239.131 189.044C239.319 184.845 222.647 185.346 222.647 185.346L189.489 196.817Z" fill="#211513"/>
<path d="M172.127 190.298C178.896 192.993 186.167 195.626 189.552 196.816C190.805 197.318 192.122 197.381 193.375 197.004C201.336 194.999 231.046 187.226 231.923 186.161C232.926 184.97 238.943 144.166 237.564 142.975C235.057 140.906 201.962 147.864 199.581 149.869C197.199 151.938 195.694 169.112 195.694 169.112C195.694 169.112 184.851 172.434 174.697 175.819L172.127 190.298Z" fill="#3D2952"/>
<path d="M172.817 187.29C178.459 189.483 185.98 192.179 191.809 194.184C191.935 194.184 191.997 194.31 191.935 194.372C191.935 194.435 191.872 194.498 191.747 194.498C190.054 193.934 180.151 190.549 172.817 187.666V187.29Z" fill="#694C87"/>
<path d="M174.322 178.89C182.47 175.756 193.126 172.183 194.943 171.557C195.006 171.557 195.131 171.619 195.131 171.682C195.194 171.745 195.131 171.87 195.069 171.933C187.61 174.377 179.9 177.135 174.134 179.392L174.322 178.89Z" fill="#694C87"/>
<path d="M191.745 195.939C191.682 195.939 191.557 195.814 191.62 195.751L195.694 168.799C195.694 168.736 195.819 168.673 195.882 168.673C196.007 168.673 196.07 168.736 196.07 168.861L191.933 195.814C191.933 195.876 191.87 195.939 191.745 195.939Z" fill="#694C87"/>
<path d="M216.942 165.665C216.377 167.796 217.067 169.865 218.446 170.241C219.887 170.617 221.517 169.175 222.081 167.044C222.645 164.85 222.019 162.782 220.577 162.406C219.135 162.03 217.568 163.471 216.942 165.665Z" fill="#694C87"/>
<path d="M193.814 182.337C193.773 182.337 193.752 182.337 193.752 182.337L179.649 178.138C179.586 178.075 179.523 178.012 179.523 177.887C179.586 177.824 179.649 177.762 179.774 177.762L193.877 181.961C193.94 182.024 194.002 182.087 193.94 182.212C193.94 182.275 193.877 182.337 193.814 182.337Z" fill="#694C87"/>
<path d="M174.132 188.167C174.091 188.167 174.049 188.125 174.007 188.041C173.944 187.979 173.944 187.853 174.07 187.853L188.11 180.332C188.173 180.269 188.298 180.332 188.361 180.394C188.423 180.457 188.361 180.582 188.298 180.645L174.195 188.167C174.195 188.167 174.174 188.167 174.132 188.167Z" fill="#694C87"/>
<path d="M208.356 147.3C213.413 146.088 218.51 145.043 223.65 144.166C224.946 143.957 226.241 143.748 227.536 143.539C227.724 143.476 227.599 143.163 227.411 143.226C222.647 143.978 217.821 144.855 213.057 145.921C211.47 146.255 209.882 146.61 208.294 146.986C208.043 147.049 208.168 147.362 208.356 147.3Z" fill="#211513"/>
<path d="M229.792 143.225C231.255 143.058 232.696 142.912 234.117 142.787C234.744 142.724 235.371 142.661 235.998 142.661C236.562 142.661 237.314 142.787 237.502 143.351C237.69 143.852 237.627 144.416 237.627 144.918C237.586 145.628 237.544 146.317 237.502 146.986C237.502 147.738 237.439 148.49 237.377 149.243C237.251 150.496 237.126 151.687 237.001 152.941C237.001 153.129 237.314 153.129 237.314 152.941C237.502 150.935 237.753 148.929 237.815 146.923C237.857 146.171 237.899 145.419 237.941 144.667C237.941 144.228 238.003 143.664 237.815 143.225C237.314 142.16 235.872 142.348 234.932 142.41C233.219 142.536 231.506 142.703 229.792 142.912C229.604 142.975 229.604 143.288 229.792 143.225Z" fill="#211513"/>
<path d="M36.0498 230.851C36.0498 234.236 49.7766 236.931 66.7001 236.931C83.6236 236.931 97.2878 234.236 97.2878 230.851C97.2878 227.529 89.3901 220.76 66.8882 220.948C41.7537 221.073 36.0498 227.529 36.0498 230.851Z" fill="#9E5A5F"/>
<path d="M66.7001 265.513C83.6236 265.513 97.2878 251.786 97.2878 234.863V230.851H36.0498V234.863C36.0498 251.786 49.7766 265.513 66.7001 265.513Z" fill="#9E5A5F"/>
<path d="M66.7018 237.119C66.5764 237.119 66.5138 237.056 66.5138 236.931C66.5138 236.868 66.263 234.925 66.3257 229.973C66.3257 227.842 66.075 225.586 65.6989 222.452C65.1975 218.252 64.508 212.486 64.0066 203.084C63.2544 186.787 62.0635 164.787 62.0635 164.599C62.0635 164.473 62.1262 164.411 62.1889 164.411C62.3142 164.411 62.3769 164.473 62.3769 164.536C62.3769 164.787 63.6305 186.787 64.3827 203.084C64.8214 212.486 65.5109 218.252 66.0123 222.452C66.3884 225.523 66.7018 227.78 66.6391 229.973C66.5764 234.925 66.8272 236.868 66.8272 236.868C66.8899 236.994 66.8271 237.056 66.7018 237.119Z" fill="#211513"/>
<path d="M69.8973 236.994C69.772 236.994 69.7093 236.931 69.7093 236.868C69.7093 236.868 69.6467 234.612 69.3959 226.401C69.3333 223.329 68.9572 220.822 68.5184 218.127C67.8289 213.99 67.0768 209.603 67.7663 202.771C68.8945 191.802 73.4701 184.531 73.4701 184.468C73.5328 184.343 73.6582 184.343 73.7208 184.405C73.8462 184.468 73.8462 184.531 73.7835 184.656C73.7208 184.719 69.2706 191.927 68.1423 202.771C67.4529 209.603 68.1423 213.927 68.8318 218.127C69.2706 220.634 69.7093 223.267 69.772 226.401C69.96 234.549 70.0854 236.868 70.0854 236.868C70.0854 236.931 69.96 236.994 69.8973 236.994Z" fill="#211513"/>
<path d="M73.4065 236.806C73.3438 236.806 73.2811 236.743 73.2811 236.618C73.2811 236.555 73.0304 227.592 73.0931 220.822C73.1557 213.928 76.7284 210.355 76.7911 210.292C76.8538 210.229 76.9792 210.229 77.0418 210.355C77.1045 210.418 77.1045 210.48 77.0418 210.543C76.9792 210.606 73.5318 214.116 73.4691 220.822C73.4065 227.592 73.5945 236.555 73.5945 236.618C73.5945 236.743 73.5318 236.806 73.4065 236.806Z" fill="#211513"/>
<path d="M64.4438 236.994C64.3184 236.994 64.2557 236.931 64.2557 236.868C64.2557 236.743 63.6916 227.717 61.6232 217.375C59.4921 207.033 54.4777 196.942 54.415 196.816C54.415 196.753 54.415 196.628 54.5404 196.565C54.603 196.565 54.7284 196.565 54.7284 196.691C54.7911 196.753 59.8682 206.908 61.9366 217.312C64.0677 227.717 64.5691 236.743 64.5691 236.868C64.5691 236.931 64.5064 236.994 64.4438 236.994Z" fill="#211513"/>
<path d="M67.0143 241.946C66.889 241.946 66.7845 241.946 66.7009 241.946C52.5354 241.946 45.0765 238.874 41.3157 236.367C37.1789 233.609 36.4894 230.914 36.4268 230.789C36.4268 230.663 36.4894 230.601 36.5521 230.538C36.6774 230.538 36.7401 230.601 36.8028 230.663C36.8028 230.789 39.8114 241.57 66.7009 241.632C66.7845 241.632 66.889 241.632 67.0143 241.632C92.7756 241.632 96.2857 230.475 96.2857 230.35C96.3484 230.287 96.411 230.225 96.5364 230.287C96.599 230.287 96.6618 230.35 96.6618 230.475C96.5991 230.601 93.0263 241.946 67.0143 241.946Z" fill="#211513"/>
<path d="M66.0126 253.102C46.8327 253.102 38.747 247.649 38.6843 247.586C38.6217 247.524 38.559 247.398 38.6217 247.336C38.6843 247.273 38.8096 247.21 38.8723 247.273C38.935 247.336 47.5848 253.228 68.4571 252.726C89.3294 252.225 95.0333 246.145 95.0333 246.082C95.1586 246.019 95.2212 246.019 95.2839 246.082C95.4093 246.145 95.4093 246.27 95.3467 246.333C95.0959 246.584 89.5174 252.538 68.4571 253.04C67.6214 253.081 66.8065 253.102 66.0126 253.102Z" fill="#211513"/>
<path d="M65.8227 249.529C46.5801 249.529 38.5571 244.076 38.4945 244.014C38.3691 243.951 38.3691 243.826 38.4318 243.763C38.4945 243.7 38.6199 243.7 38.6825 243.7C38.7452 243.763 47.395 249.655 68.2673 249.153C89.1395 248.652 94.7807 242.635 94.8434 242.572C94.9061 242.509 95.0314 242.447 95.0941 242.509C95.1568 242.572 95.2195 242.697 95.0941 242.76C94.9061 243.011 89.3276 249.028 68.2673 249.529C67.4315 249.529 66.6167 249.529 65.8227 249.529Z" fill="#211513"/>
<path d="M57.6743 194.56C57.6743 194.56 58.4265 182.964 52.6599 170.491C48.7111 161.904 46.2667 135.704 33.0413 139.841C19.8786 143.977 24.1408 170.93 31.0982 181.585C38.0557 192.178 48.2724 200.64 53.3495 200.452C57.361 200.326 57.6743 194.56 57.6743 194.56Z" fill="#54896E"/>
<path d="M76.2903 187.477C71.3386 189.796 69.8343 187.853 69.0822 183.591C68.3927 179.642 67.7659 173.938 68.5807 170.115C70.3357 162.155 76.5411 159.585 76.5411 148.929C76.5411 144.73 73.219 132.319 85.3789 134.012C97.476 135.704 100.046 157.454 92.2736 172.559C88.4501 179.956 80.6152 185.409 76.2903 187.477Z" fill="#54896E"/>
<path d="M59.8054 170.115C61.7484 171.556 64.5063 170.742 65.4465 168.485C67.2016 163.972 68.8312 157.767 68.9566 151.186C69.1446 145.482 70.7116 112.199 54.9791 117.903C39.2465 123.544 49.0872 152.314 54.415 162.907C56.2953 166.73 58.1757 168.861 59.8054 170.115Z" fill="#54896E"/>
<path d="M72.6545 213.614C73.1559 215.181 74.9109 215.934 76.3526 215.244C79.6746 213.74 85.9425 209.791 88.7004 207.409C92.3985 204.087 116.844 185.722 104.057 178.639C91.2076 171.619 77.9196 194.685 74.0334 204.338C72.1531 208.913 72.153 211.797 72.6545 213.614Z" fill="#54896E"/>
<path d="M54.7917 197.443C54.7499 197.443 54.7081 197.422 54.6663 197.381C54.6037 197.255 47.0821 185.91 41.7544 173.374C36.4266 160.901 35.7998 142.097 35.7998 141.909C35.7998 141.847 35.8624 141.721 35.9878 141.721C36.0505 141.721 36.1759 141.784 36.1759 141.909C36.1759 142.097 36.74 160.776 42.0678 173.249C47.3955 185.722 54.9171 197.067 54.9797 197.193C55.0424 197.255 54.9797 197.381 54.9171 197.381C54.8753 197.422 54.8335 197.443 54.7917 197.443Z" fill="#211513"/>
<path d="M61.9983 169.175C61.8729 169.175 61.8103 169.112 61.8103 169.049C61.8103 168.924 60.494 159.585 59.4284 146.359C58.4255 133.197 56.7959 121.977 56.7959 121.852C56.7959 121.789 56.8585 121.664 56.9212 121.664C57.0466 121.664 57.1093 121.726 57.1093 121.852C57.172 121.914 58.7389 133.134 59.8045 146.359C60.8073 159.522 62.1237 168.861 62.1237 168.987C62.1863 169.049 62.1236 169.175 61.9983 169.175Z" fill="#211513"/>
<path d="M72.3413 186.6C72.2995 186.6 72.2786 186.6 72.2786 186.6C72.1533 186.537 72.1533 186.412 72.1533 186.349C72.216 186.224 78.9853 174.001 82.0566 163.784C85.0026 153.944 82.182 136.268 82.1193 136.08C82.1193 136.017 82.182 135.892 82.2447 135.892C82.3701 135.892 82.4328 135.955 82.4954 136.017C82.4954 136.205 85.3787 153.944 82.37 163.847C79.2987 174.127 72.5294 186.412 72.4667 186.537C72.4249 186.579 72.3831 186.6 72.3413 186.6Z" fill="#211513"/>
<path d="M75.0361 213.238C75.0361 213.238 75.0152 213.238 74.9735 213.238C74.9108 213.175 74.848 213.113 74.9107 212.987C74.9107 212.925 78.8596 202.144 84.3754 194.81C89.8285 187.477 100.672 180.018 100.797 179.955C100.86 179.893 100.985 179.893 101.048 179.955C101.111 180.081 101.111 180.143 100.985 180.206C100.923 180.331 90.0792 187.79 84.626 195.061C79.1729 202.332 75.2868 212.987 75.2241 213.113C75.2241 213.175 75.0988 213.238 75.0361 213.238Z" fill="#211513"/>
<path d="M39.3105 234.675C39.3105 234.675 43.2593 230.037 51.4077 231.29C59.556 232.544 65.824 237.495 75.414 236.618C85.0039 235.74 89.3288 237.495 89.3288 237.495L82.246 240.191L74.4738 241.444L68.5819 241.82L60.4335 241.507L53.3508 240.629L47.4589 239L42.7579 237.057L39.3105 234.675Z" fill="#211513"/>
<path d="M145.051 67.7592L100.673 72.1468C98.5423 72.3975 96.7246 70.7051 96.7246 68.574V41.7472C96.7246 39.8668 98.1035 38.3625 99.9213 38.1745L144.361 33.7869C146.429 33.5362 148.31 35.2285 148.31 37.3596V64.1865C148.31 66.0042 146.868 67.5712 145.051 67.7592Z" fill="#EFB99A"/>
<path d="M142.229 42.8126V60.4882C142.229 61.6791 141.163 62.7447 139.784 62.8073L106.815 65.7533C105.248 65.8786 103.869 64.7504 103.869 63.3715V45.6958C103.869 44.5049 104.872 43.502 106.251 43.3767L139.283 40.4934C140.85 40.3681 142.229 41.4336 142.229 42.8126Z" fill="#FFF3EB"/>
<path d="M142.229 52.9043V60.4885C142.229 61.6794 141.163 62.745 139.784 62.8077L106.815 65.7536C105.248 65.879 103.869 64.7507 103.869 63.3718V60.99C105.311 61.4287 108.758 62.3062 112.143 61.9301C116.593 61.4914 120.918 58.5455 127.437 55.5995C132.702 53.2177 139.722 52.9043 142.229 52.9043Z" fill="#FDE8DB"/>
<path d="M169.934 161.402C169.934 161.402 176.892 158.833 181.217 159.647C185.542 160.462 193.251 168.297 192.938 169.927C192.562 171.494 191.12 171.431 191.12 171.431C191.12 171.431 191.621 172.998 190.807 173.688C189.992 174.44 188.049 174.252 188.049 174.252C188.049 174.252 188.801 176.571 186.356 176.759C183.912 176.947 181.217 173.437 178.459 173.5C175.387 173.562 169.872 175.38 169.872 175.38C169.872 175.38 169.119 171.494 169.308 166.73C169.496 161.904 169.934 161.402 169.934 161.402Z" fill="#6A4435"/>
<path d="M191.12 171.619C191.036 171.619 190.974 171.599 190.932 171.557C190.932 171.494 188.926 168.736 186.858 166.981C184.852 165.226 183.16 164.537 183.16 164.537C183.097 164.474 183.034 164.411 183.034 164.286C183.097 164.223 183.222 164.161 183.285 164.223C183.348 164.223 185.04 164.913 187.108 166.73C189.177 168.548 191.245 171.306 191.245 171.306C191.308 171.431 191.308 171.494 191.183 171.557C191.183 171.599 191.162 171.619 191.12 171.619Z" fill="#211513"/>
<path d="M188.048 174.378C188.006 174.378 187.965 174.378 187.923 174.378C187.86 174.315 186.231 172.685 184.162 171.056C182.094 169.489 180.589 168.924 180.589 168.924C180.464 168.862 180.401 168.799 180.464 168.674C180.464 168.611 180.589 168.548 180.652 168.548C180.715 168.611 182.282 169.175 184.35 170.805C186.419 172.434 188.111 174.064 188.174 174.127C188.236 174.19 188.236 174.252 188.174 174.378C188.132 174.378 188.09 174.378 188.048 174.378Z" fill="#211513"/>
<path d="M192.499 168.861C192.436 168.861 192.373 168.799 192.373 168.736C192.373 168.736 191.872 167.357 188.613 164.098C185.416 160.838 181.216 159.836 181.154 159.836C181.091 159.773 181.028 159.71 181.028 159.585C181.091 159.522 181.154 159.459 181.279 159.459C181.279 159.522 185.604 160.525 188.863 163.847C192.185 167.169 192.687 168.548 192.687 168.611C192.687 168.736 192.687 168.799 192.561 168.861C192.561 168.861 192.54 168.861 192.499 168.861Z" fill="#211513"/>
</svg>
