<svg width="436" height="762" viewBox="0 0 436 762" fill="none" xmlns="http://www.w3.org/2000/svg">
<path d="M434.798 82.4916L106.544 260.756L174.627 628.056L544.996 676.834L705.799 339.61" stroke="#F8FCF3" stroke-width="2.9" stroke-miterlimit="10"/>
<path d="M431.621 99.2772L121.863 267.552L186.117 614.154L535.553 660.116L687.333 341.883" stroke="#F8FCF3" stroke-width="2.8" stroke-miterlimit="10"/>
<path d="M428.412 116.158L137.182 274.348L197.641 600.158L526.206 643.431L668.836 344.252" stroke="#F8FCF3" stroke-width="2.6" stroke-miterlimit="10"/>
<path d="M425.235 132.944L152.533 281.05L209.132 586.256L516.763 626.713L650.338 346.62" stroke="#F8FCF3" stroke-width="2.4" stroke-miterlimit="10"/>
<path d="M422.024 149.824L167.851 287.845L220.56 572.227L507.32 609.995L631.872 348.894" stroke="#F8FCF3" stroke-width="2.3" stroke-miterlimit="10"/>
<path d="M418.815 166.705L183.171 294.641L232.084 558.23L497.973 593.309L613.375 351.262" stroke="#F8FCF3" stroke-width="2.1" stroke-miterlimit="10"/>
<path d="M415.638 183.491L198.522 301.343L243.574 544.329L488.53 576.592L594.909 353.536" stroke="#F8FCF3" stroke-width="1.9" stroke-miterlimit="10"/>
</svg>
