<svg width="510" height="360" viewBox="0 0 510 360" fill="none" xmlns="http://www.w3.org/2000/svg">
<ellipse cx="289.837" cy="189.343" rx="219.193" ry="170.657" fill="#FBF2E9"/>
<path d="M350.938 15.3428H234.719L232.412 205.265L346.225 280.873L350.938 15.3428Z" fill="#3D2952"/>
<path d="M324.066 37.7042C324.066 42.718 328.178 46.8293 333.191 46.8293C338.205 46.8293 342.317 42.718 342.317 37.7042C342.317 32.6904 338.205 28.5791 333.191 28.5791C328.178 28.5791 324.066 32.6904 324.066 37.7042Z" fill="#FCCF61"/>
<path d="M319.853 37.7042C319.853 42.718 323.864 46.8293 328.978 46.8293C333.992 46.8293 338.103 42.718 338.103 37.7042C338.103 32.6904 333.992 28.5791 328.978 28.5791C323.864 28.5791 319.853 32.6904 319.853 37.7042Z" fill="#3D2952"/>
<path d="M297.091 52.5449L297.994 51.8429C298.06 51.7092 298.094 51.5755 298.094 51.4418L297.994 50.2385C297.994 49.9377 298.395 49.6368 298.695 49.8374L299.698 50.4391C299.832 50.5728 299.966 50.6062 300.099 50.5393L301.102 50.038C301.503 49.9377 301.804 50.2385 301.704 50.6396L301.403 51.7426C301.403 51.8763 301.436 52.01 301.503 52.1437L302.305 52.9459C302.506 53.2468 302.406 53.6479 302.005 53.7482H300.801C300.667 53.815 300.567 53.8819 300.5 53.9487L299.899 54.9515C299.698 55.2523 299.197 55.2523 299.096 54.9515L298.695 53.8484C298.629 53.7147 298.528 53.6145 298.395 53.5476L297.291 53.347C296.89 53.2468 296.79 52.7454 297.091 52.5449Z" fill="#FCCF61"/>
<path d="M337.803 74.706L338.705 73.9038C338.772 73.837 338.806 73.7367 338.806 73.603L338.705 72.3997C338.705 71.9986 339.106 71.798 339.407 71.9986L340.41 72.6003C340.544 72.6671 340.677 72.6671 340.811 72.6003L341.814 72.1991C342.215 72.0989 342.516 72.3997 342.415 72.7005L342.115 73.8036C342.115 74.0041 342.148 74.1378 342.215 74.2047L343.017 75.1072C343.218 75.408 343.117 75.8091 342.716 75.8091L341.513 75.9093C341.379 75.9093 341.279 75.9762 341.212 76.1099L340.611 77.1127C340.41 77.4135 339.909 77.4135 339.808 77.0124L339.407 76.0096C339.34 75.8759 339.24 75.7756 339.106 75.7088L338.003 75.408C337.602 75.408 337.502 74.9066 337.803 74.706Z" fill="#FCCF61"/>
<path d="M296.791 89.8474L297.694 89.1455C297.761 89.0118 297.794 88.8781 297.794 88.7444L297.694 87.6414C297.694 87.2403 298.095 86.9395 298.396 87.14L299.398 87.8419C299.532 87.9088 299.666 87.9088 299.799 87.8419L300.802 87.3406C301.203 87.2403 301.504 87.5411 301.404 87.9422L301.103 89.0452C301.103 89.1789 301.136 89.3126 301.203 89.4463L302.006 90.2486C302.206 90.5494 302.006 90.9505 301.705 91.0508H300.501C300.368 91.1176 300.267 91.2179 300.201 91.3516L299.599 92.2541C299.398 92.5549 298.897 92.5549 298.797 92.2541L298.396 91.151C298.329 91.0173 298.228 90.917 298.095 90.8502L296.992 90.6497C296.591 90.5494 296.49 90.048 296.791 89.8474Z" fill="#FCCF61"/>
<path d="M284.249 215.614H280.739V5.83691H284.249V215.614Z" fill="#BEBADC"/>
<path d="M344.121 17.2468C343.921 15.4418 345.224 13.8374 347.029 13.6369C351.842 13.2358 360.566 12.7344 367.084 12.9349C376.61 13.336 382.527 10.2275 392.755 10.6286C402.983 11.0297 411.607 32.2882 418.726 75.6073C425.846 118.926 425.846 147.304 435.673 168.964C445.5 190.624 453.422 196.54 456.53 227.324C459.739 258.009 459.739 276.56 452.62 278.064C445.5 279.668 430.158 276.56 417.523 278.866C404.888 281.273 390.749 282.476 367.887 276.961C345.024 271.446 341.113 270.242 341.113 270.242C341.113 270.242 336.4 143.795 344.623 107.495C351.742 76.5097 345.926 29.9818 344.121 17.2468Z" fill="#54896E"/>
<path d="M396.267 277.964C396.167 277.964 396.067 277.864 395.966 277.763C395.966 277.463 393.66 253.998 391.053 226.021C388.446 197.944 385.839 103.785 385.738 102.782C385.738 102.682 385.838 102.582 386.039 102.481C386.139 102.481 386.24 102.682 386.24 102.782C386.34 103.685 388.947 197.944 391.554 225.921C394.161 253.998 396.468 277.463 396.568 277.663C396.568 277.864 396.468 277.964 396.267 277.964Z" fill="#211513"/>
<path d="M358.46 272.448C358.259 272.448 358.159 272.348 358.159 272.248C358.159 271.245 355.251 178.69 354.549 157.131C354.148 147.404 355.652 135.071 357.357 120.831C359.563 103.484 361.969 83.7293 361.368 64.4764C360.265 29.9815 358.46 21.2576 358.46 21.1573C358.46 21.057 358.56 20.8564 358.66 20.8564C358.761 20.8564 358.961 20.9567 358.961 21.057C358.961 21.1573 360.866 29.8813 361.869 64.4764C362.471 83.8296 360.064 103.484 357.958 120.932C356.153 135.171 354.649 147.404 355.05 157.131C355.852 178.69 358.66 271.245 358.66 272.147C358.761 272.348 358.56 272.448 358.46 272.448Z" fill="#211513"/>
<path d="M446.304 270.844C446.204 270.844 446.003 270.744 446.003 270.643C446.003 270.142 443.797 225.72 429.959 199.046C419.029 177.989 417.324 162.045 417.324 161.944C417.224 161.744 417.424 161.644 417.525 161.644C417.625 161.644 417.826 161.744 417.826 161.844C417.826 162.045 419.53 177.788 430.36 198.746C444.298 225.619 446.504 270.142 446.605 270.643C446.605 270.744 446.504 270.844 446.304 270.844Z" fill="#211513"/>
<path d="M382.527 78.4152C382.327 78.4152 382.227 78.3149 382.227 78.2147C382.227 77.9138 381.625 53.4466 379.82 35.4972C378.115 17.8487 373.703 14.4393 373.703 14.339C373.503 14.2388 373.503 14.1385 373.603 14.0382C373.703 13.8377 373.803 13.8377 374.004 13.9379C374.204 14.0382 378.617 17.4476 380.422 35.4972C382.126 53.4466 382.728 77.9139 382.728 78.1144C382.728 78.315 382.628 78.4152 382.527 78.4152Z" fill="#211513"/>
<path d="M236.524 17.6487C236.624 15.6432 235.42 13.9385 233.616 13.738C228.501 13.1363 218.273 12.3341 208.647 13.5374C195.21 15.3424 173.952 7.4206 167.033 12.3341C160.013 17.3479 157.907 93.8583 157.005 109.902C156.002 125.946 158.609 138.481 158.609 138.481L238.429 119.328C238.429 119.328 243.142 91.4517 238.429 66.2825C234.819 46.5281 235.922 25.7711 236.524 17.6487Z" fill="#54896E"/>
<path d="M207.142 60.6672C207.042 60.6672 206.942 60.5669 206.942 60.4666C206.841 60.3664 204.736 44.6231 205.137 34.1944C205.538 23.866 208.245 14.9414 208.345 14.8412C208.345 14.7409 208.446 14.6406 208.646 14.6406C208.747 14.7409 208.847 14.8412 208.747 15.0417C208.747 15.142 206.039 23.9663 205.638 34.2947C205.237 44.5228 207.443 60.2661 207.443 60.3663C207.443 60.5669 207.343 60.6672 207.243 60.6672C207.176 60.6672 207.142 60.6672 207.142 60.6672Z" fill="#211513"/>
<path d="M231.012 96.5661C230.912 96.5661 230.711 96.4658 230.711 96.2653C230.711 96.0647 229.709 68.6894 228.806 48.8348C227.803 28.9802 229.909 16.0447 230.009 15.8441C230.009 15.7438 230.11 15.6436 230.31 15.6436C230.411 15.6436 230.511 15.8441 230.511 15.9444C230.411 16.0447 228.305 28.9802 229.308 48.8348C230.31 68.6894 231.213 95.9644 231.313 96.2653C231.313 96.4658 231.112 96.5661 231.012 96.5661Z" fill="#211513"/>
<path d="M200.224 36.4003C200.123 36.4003 200.023 36.3001 200.023 36.0995C200.023 36.0995 199.522 31.2863 200.123 26.6736C200.725 21.9606 202.229 17.6488 202.229 17.6488C202.229 17.4482 202.43 17.4482 202.53 17.4482C202.63 17.4482 202.731 17.6488 202.731 17.7491C202.63 17.8493 201.226 22.0609 200.625 26.6736C200.023 31.2863 200.524 35.9992 200.524 36.0995C200.524 36.1998 200.424 36.4003 200.324 36.4003C200.324 36.4003 200.291 36.4003 200.224 36.4003Z" fill="#211513"/>
<path d="M152.695 18.8518H411.507C414.214 18.8518 416.32 16.746 416.32 14.0386V4.81324C416.32 2.10579 414.214 0 411.507 0H152.695C150.088 0 147.882 2.10579 147.882 4.81324V14.0386C147.882 16.746 150.088 18.8518 152.695 18.8518Z" fill="#EFB99A"/>
<path d="M162.419 18.5503C162.319 18.5503 162.219 18.45 162.219 18.2495V0.701206C162.219 0.500654 162.319 0.400391 162.419 0.400391C162.62 0.400391 162.72 0.500654 162.72 0.701206V18.2495C162.72 18.45 162.62 18.5503 162.419 18.5503Z" fill="#211513"/>
<path d="M184.882 18.5503C184.782 18.5503 184.682 18.45 184.682 18.2495V0.701206C184.682 0.500654 184.782 0.400391 184.882 0.400391C185.083 0.400391 185.183 0.500654 185.183 0.701206V18.2495C185.183 18.45 185.083 18.5503 184.882 18.5503Z" fill="#211513"/>
<path d="M209.351 18.5503C209.15 18.5503 209.05 18.45 209.05 18.2495V0.701206C209.05 0.500654 209.15 0.400391 209.351 0.400391C209.451 0.400391 209.551 0.500654 209.551 0.701206V18.2495C209.551 18.45 209.451 18.5503 209.351 18.5503Z" fill="#211513"/>
<path d="M236.118 18.5503C236.018 18.5503 235.817 18.45 235.817 18.2495V0.701206C235.817 0.500654 236.018 0.400391 236.118 0.400391C236.218 0.400391 236.419 0.500654 236.419 0.701206V18.2495C236.419 18.45 236.218 18.5503 236.118 18.5503Z" fill="#211513"/>
<path d="M260.19 18.5513C259.99 18.5513 259.89 18.451 259.89 18.2504V0.702182C259.89 0.501631 259.99 0.401367 260.19 0.401367C260.291 0.401367 260.391 0.501631 260.391 0.702182V18.2504C260.391 18.451 260.291 18.5513 260.19 18.5513Z" fill="#211513"/>
<path d="M282.75 18.5503C282.549 18.5503 282.449 18.45 282.449 18.2495V0.701206C282.449 0.500654 282.549 0.400391 282.75 0.400391C282.85 0.400391 283.051 0.500654 283.051 0.701206V18.2495C283.051 18.45 282.85 18.5503 282.75 18.5503Z" fill="#211513"/>
<path d="M305.212 18.5503C305.011 18.5503 304.911 18.45 304.911 18.2495V0.701206C304.911 0.500654 305.011 0.400391 305.212 0.400391C305.312 0.400391 305.413 0.500654 305.413 0.701206V18.2495C305.413 18.45 305.312 18.5503 305.212 18.5503Z" fill="#211513"/>
<path d="M329.578 18.5503C329.477 18.5503 329.377 18.45 329.377 18.2495V0.701206C329.377 0.500654 329.477 0.400391 329.578 0.400391C329.778 0.400391 329.878 0.500654 329.878 0.701206V18.2495C329.878 18.45 329.778 18.5503 329.578 18.5503Z" fill="#211513"/>
<path d="M356.452 18.5503C356.251 18.5503 356.151 18.45 356.151 18.2495V0.701206C356.151 0.500654 356.251 0.400391 356.452 0.400391C356.552 0.400391 356.653 0.500654 356.653 0.701206V18.2495C356.653 18.45 356.552 18.5503 356.452 18.5503Z" fill="#211513"/>
<path d="M380.42 18.5503C380.32 18.5503 380.22 18.45 380.22 18.2495V0.701206C380.22 0.500654 380.32 0.400391 380.42 0.400391C380.621 0.400391 380.721 0.500654 380.721 0.701206V18.2495C380.721 18.45 380.621 18.5503 380.42 18.5503Z" fill="#211513"/>
<path d="M402.684 18.5503C402.483 18.5503 402.383 18.45 402.383 18.2495V0.701206C402.383 0.500654 402.483 0.400391 402.684 0.400391C402.784 0.400391 402.884 0.500654 402.884 0.701206V18.2495C402.884 18.45 402.784 18.5503 402.684 18.5503Z" fill="#211513"/>
<path d="M140.157 102.281H2.67944C1.37585 102.281 0.373047 101.178 0.373047 99.8747C0.373047 98.5711 1.37585 97.5684 2.67944 97.5684H140.157C141.461 97.5684 142.564 98.5711 142.564 99.8747C142.564 101.178 141.461 102.281 140.157 102.281Z" fill="#EFB99A"/>
<path d="M140.157 155.026H2.67944C1.37585 155.026 0.373047 154.024 0.373047 152.72C0.373047 151.417 1.37585 150.313 2.67944 150.313H140.157C141.461 150.313 142.564 151.417 142.564 152.72C142.564 154.024 141.461 155.026 140.157 155.026Z" fill="#EFB99A"/>
<path d="M101.048 150.313H106.262C107.666 150.313 108.869 149.209 108.869 147.806V114.614C108.869 113.01 107.566 111.807 106.062 111.807H101.349C99.7444 111.807 98.541 113.01 98.541 114.614V147.806C98.541 149.209 99.644 150.313 101.048 150.313Z" fill="#BEBADC"/>
<path d="M92.7249 150.313H96.2345C97.5381 150.313 98.6413 149.21 98.6413 147.906V109.3C98.6413 107.997 97.5381 106.894 96.2345 106.894H92.7249C91.4213 106.894 90.3184 107.997 90.3184 109.3V147.906C90.3184 149.21 91.4213 150.313 92.7249 150.313Z" fill="#BEBADC"/>
<path d="M86.2081 150.314H87.8126C89.2164 150.314 90.3195 149.21 90.3195 147.807V120.832C90.3195 119.328 89.1162 118.125 87.6121 118.125H86.3084C84.9046 118.125 83.7012 119.328 83.7012 120.832V147.807C83.7012 149.21 84.8042 150.314 86.2081 150.314Z" fill="#BEBADC"/>
<path d="M92.7247 132.865H96.0339C96.7358 132.865 97.2372 132.263 97.2372 131.662V125.144C97.2372 124.542 96.7358 123.94 96.0339 123.94H92.7247C92.1231 123.94 91.5215 124.542 91.5215 125.144V131.662C91.5215 132.263 92.1231 132.865 92.7247 132.865Z" fill="#FFF3EB"/>
<path d="M98.6436 148.91C98.4431 148.91 98.3428 148.809 98.3428 148.609V113.312C98.3428 113.212 98.4431 113.111 98.6436 113.111C98.7439 113.111 98.8442 113.212 98.8442 113.312V148.609C98.8442 148.809 98.7439 148.91 98.6436 148.91Z" fill="#211513"/>
<path d="M90.3136 148.708C90.113 148.708 90.0127 148.508 90.0127 148.407V119.929C90.0127 119.829 90.113 119.729 90.3136 119.729C90.4138 119.729 90.5141 119.829 90.5141 119.929V148.407C90.5141 148.508 90.4138 148.708 90.3136 148.708Z" fill="#211513"/>
<path d="M100.544 116.822H106.961C107.363 116.822 107.763 116.521 107.763 116.12V115.819C107.763 115.418 107.363 115.017 106.961 115.017H100.544C100.143 115.017 99.8418 115.418 99.8418 115.819V116.12C99.8418 116.521 100.143 116.822 100.544 116.822Z" fill="#FFF3EB"/>
<path d="M100.544 146.904H106.961C107.363 146.904 107.763 146.502 107.763 146.101V145.801C107.763 145.399 107.363 145.099 106.961 145.099H100.544C100.143 145.099 99.8418 145.399 99.8418 145.801V146.101C99.8418 146.502 100.143 146.904 100.544 146.904Z" fill="#FFF3EB"/>
<path d="M308.916 263.726L281.741 263.927L271.012 264.829C271.012 264.829 265.095 227.527 271.613 200.051C278.031 172.676 280.538 145.2 289.863 144.398C290.666 144.298 299.49 145.401 300.493 145.401C310.119 145.501 324.559 152.52 326.564 161.645C328.67 171.773 308.916 263.726 308.916 263.726Z" fill="#EFB99A"/>
<path d="M280.938 187.416C277.428 194.736 272.213 204.363 268.102 203.26C263.891 202.056 263.891 190.124 263.891 187.316C263.891 169.567 272.113 143.295 287.957 141.289C290.464 140.988 295.177 140.988 301.594 145.2C293.873 153.222 288.759 159.439 286.954 164.654C283.745 173.378 285.049 178.592 280.938 187.416Z" fill="#211513"/>
<path d="M291.264 263.224C291.164 263.224 290.963 263.124 290.963 263.024C290.963 262.823 290.863 241.464 294.372 218.601C297.882 195.839 304.5 167.762 308.411 159.74C312.121 151.818 317.636 153.322 317.737 153.322C317.837 153.422 317.937 153.522 317.937 153.723C317.837 153.823 317.737 153.924 317.636 153.823C317.336 153.823 312.422 152.419 308.812 159.94C305.002 167.962 298.383 195.939 294.874 218.702C291.364 241.464 291.565 262.823 291.565 263.024C291.565 263.124 291.364 263.224 291.264 263.224Z" fill="#211513"/>
<path d="M461.741 332.214C461.841 333.918 461.34 335.222 461.34 335.222C458.532 341.138 442.588 339.734 422.834 339.935C389.944 340.436 318.748 341.539 271.418 342.241C226.895 342.843 151.688 343.545 119.5 343.645C114.687 343.645 109.974 342.442 105.862 339.935C86.7096 328.203 70.9662 299.323 45.5964 270.243C26.3435 247.982 10.3997 223.114 1.27461 208.273C-2.13477 202.758 1.67586 195.538 8.19378 195.337L104.96 192.53L136.948 191.627C141.36 191.527 145.571 192.931 148.981 195.738L159.911 204.663L170.34 213.287C190.662 229.866 210.985 246.444 231.307 263.023C232.176 263.425 233.079 263.725 234.015 263.926C235.017 264.193 235.987 264.327 236.923 264.327L273.924 263.826C308.085 263.425 342.246 263.023 376.406 262.622C378.512 262.622 380.618 263.324 382.423 264.528C402.378 278.466 460.437 319.779 461.741 332.214Z" fill="#FDDFCC"/>
<path d="M118.097 336.124C116.894 336.124 115.791 336.124 114.788 336.124H114.688C98.2425 330.609 8.69623 207.47 4.88575 202.256C4.78548 202.055 4.78548 201.955 4.88575 201.855C4.98603 201.755 5.18648 201.755 5.28676 201.955C6.18924 203.159 98.4429 330.007 114.788 335.623C132.737 335.723 185.883 335.021 242.138 334.219C284.555 333.617 328.475 333.016 357.956 332.815C425.141 332.213 457.33 332.013 457.631 332.013C457.731 332.013 457.932 332.113 457.932 332.213C457.932 332.414 457.731 332.514 457.631 332.514C457.33 332.514 425.141 332.715 357.956 333.316C328.475 333.617 284.555 334.219 242.138 334.72C188.992 335.422 138.553 336.124 118.097 336.124Z" fill="#211513"/>
<path d="M160.814 225.721C153.995 225.921 126.219 226.723 120.002 226.924C119.4 226.924 118.798 227.526 118.798 228.127L118.698 230.734C118.698 231.136 118.798 231.436 119.099 231.737L173.449 288.393C174.05 288.995 174.953 289.396 175.755 289.396H225.091C226.093 289.396 226.996 288.594 226.996 287.591L227.096 285.986C227.096 285.385 226.896 284.883 226.495 284.482L163.321 226.723C162.619 226.022 161.717 225.721 160.814 225.721Z" fill="#806767"/>
<path d="M225.088 285.485H178.059C177.157 285.485 176.355 285.084 175.853 284.482L121.103 228.228C121.002 228.127 121.002 228.027 121.103 227.927C121.203 227.826 121.404 227.826 121.504 227.927L176.154 284.181C176.655 284.683 177.357 284.984 178.059 284.984H225.088C225.189 284.984 225.389 285.084 225.389 285.184C225.389 285.385 225.189 285.485 225.088 285.485Z" fill="#211513"/>
<path fill-rule="evenodd" clip-rule="evenodd" d="M212.354 281.675H179.965C179.664 281.675 179.263 281.574 179.063 281.274L129.527 231.336C129.226 231.036 129.125 230.534 129.326 230.133C129.426 229.732 129.827 229.531 130.229 229.531L158.205 228.629C159.208 228.629 160.211 229.03 160.913 229.732L213.257 279.368C213.658 279.77 213.758 280.371 213.558 280.873C213.357 281.374 212.856 281.675 212.354 281.675ZM158.306 229.231C158.306 229.231 158.272 229.231 158.205 229.231L130.329 230.033C130.028 230.033 129.827 230.133 129.827 230.334C129.727 230.534 129.727 230.835 129.928 230.935L179.464 280.973C179.598 281.107 179.765 281.173 179.965 281.173H212.354C212.755 281.173 212.956 280.873 213.056 280.672C213.156 280.371 213.157 280.07 212.856 279.77L160.612 230.133C160.011 229.531 159.108 229.231 158.306 229.231Z" fill="#211513"/>
<path d="M140.056 241.665C139.955 241.665 139.755 241.565 139.755 241.364C139.755 241.264 139.855 241.164 140.056 241.063L171.342 239.76C171.542 239.76 171.643 239.86 171.643 240.061C171.643 240.161 171.542 240.361 171.442 240.361L140.056 241.665Z" fill="#211513"/>
<path d="M156.003 240.963C155.936 240.963 155.869 240.929 155.802 240.862L144.17 229.632C144.07 229.531 144.07 229.331 144.17 229.23C144.27 229.13 144.471 229.13 144.571 229.23L156.203 240.562C156.303 240.662 156.303 240.762 156.203 240.862C156.136 240.929 156.069 240.963 156.003 240.963Z" fill="#211513"/>
<path d="M69.2597 215.091C69.6608 215.091 33.8623 214.991 27.8457 214.891C27.3444 214.891 26.9434 215.292 26.9434 215.793V217.297C26.9434 217.498 27.0102 217.698 27.1439 217.899L47.7004 242.065C48.0012 242.466 48.6029 242.767 49.2045 242.767L92.3231 242.166C92.8245 242.166 93.1253 241.765 93.1253 241.363V239.759C93.1253 239.492 93.025 239.291 92.8245 239.157L69.2597 215.091Z" fill="#806767"/>
<path d="M15.9133 53.8484L17.4175 52.5448C18.4202 51.7426 19.7237 51.4418 21.0273 51.8429L59.6334 63.6754C60.937 63.9763 61.9398 64.979 62.2407 66.1823L112.579 226.924C113.181 228.83 112.178 230.835 110.373 231.537L107.465 232.74C106.262 233.242 104.858 233.141 103.755 232.339L59.8342 192.028L14.8102 57.8594C14.4091 56.4556 14.8103 54.8512 15.9133 53.8484Z" fill="#806767"/>
<path d="M106.061 230.735C105.961 230.735 105.861 230.635 105.76 230.534L57.1267 71.2966C56.7256 69.8928 55.6228 68.89 54.3192 68.4889L16.9163 56.2553C16.816 56.2553 16.7158 56.0547 16.7158 55.9545C16.8161 55.8542 16.9163 55.7539 17.1168 55.7539L54.4193 67.9875C55.9235 68.4889 57.1267 69.592 57.6281 71.0961L106.262 230.334C106.362 230.534 106.262 230.635 106.162 230.635C106.095 230.702 106.061 230.735 106.061 230.735Z" fill="#211513"/>
<path d="M62.7431 190.825L64.2472 143.796L47.7017 129.857L44.6934 222.011C44.5932 223.014 45.0946 223.916 45.7966 224.618L60.2362 236.751C60.8378 237.152 61.5398 237.353 62.2417 237.152L63.9463 236.651C64.8488 236.35 65.4506 235.548 65.5508 234.646L67.6565 183.405L62.7431 190.825Z" fill="#806767"/>
<path d="M60.4362 230.133C60.1354 230.133 59.7343 230.033 59.4335 229.732L45.1943 215.994C45.0941 215.894 45.0941 215.693 45.1943 215.593C45.2946 215.493 45.3949 215.493 45.4952 215.593L59.8347 229.331C60.1355 229.632 60.4364 229.732 60.8375 229.531C61.2386 229.431 61.439 229.03 61.439 228.629L65.2495 144.497C65.2495 144.397 65.4501 144.297 65.5504 144.297C65.6506 144.297 65.8511 144.397 65.7509 144.598L61.9403 228.729C61.9403 229.331 61.6396 229.832 61.038 230.033C60.8374 230.099 60.6368 230.133 60.4362 230.133Z" fill="#211513"/>
<path d="M50.104 240.161C49.4021 240.161 48.8007 239.86 48.2993 239.359L27.542 215.393C27.4417 215.292 27.4417 215.192 27.542 215.092C27.7426 214.992 27.843 214.992 27.9433 215.092L48.7003 238.957C49.0011 239.359 49.6027 239.559 50.104 239.659L91.9192 239.258C92.1198 239.258 92.2198 239.359 92.2198 239.459C92.2198 239.659 92.1198 239.76 91.9192 239.76L50.104 240.161Z" fill="#211513"/>
<path d="M65.7516 229.933C65.6513 229.933 65.5511 229.832 65.5511 229.732C66.1528 215.994 66.7544 201.855 67.2557 188.218C67.8574 174.58 68.4591 160.442 69.0608 146.604C69.161 144.899 68.1582 143.294 66.4535 142.693C62.2419 141.088 53.0167 137.88 49.3065 136.576C48.9054 136.476 48.5042 136.576 48.2034 136.777C47.9025 136.977 47.702 137.278 47.702 137.679L47.301 153.222C47.301 153.422 47.1004 153.523 47.0001 153.523C46.7995 153.523 46.6992 153.422 46.6992 153.222L47.2006 137.679C47.2006 137.077 47.5014 136.576 47.9025 136.275C48.4039 135.974 48.9052 135.974 49.4066 136.075C53.2171 137.378 62.4424 140.587 66.654 142.191C68.5592 142.893 69.6624 144.698 69.5621 146.704C68.9605 160.442 68.3589 174.58 67.8575 188.218C67.2558 201.855 66.6541 215.994 66.0525 229.732C66.0525 229.832 65.9522 229.933 65.7516 229.933Z" fill="#211513"/>
<path d="M154.195 296.114V301.729C154.195 302.431 153.794 303.033 153.093 303.233C153.026 303.233 152.959 303.233 152.892 303.233C152.892 303.233 152.859 303.233 152.792 303.233C145.371 304.035 110.776 307.645 104.759 304.838C97.9407 301.729 84.2031 281.273 83.4009 278.365C83.3007 277.964 83.2002 277.763 83.2002 277.161C83.3005 273.852 83.3006 269.039 83.3006 269.039L154.095 296.114H154.195Z" fill="#FFF3EB"/>
<path d="M154.193 296.114C154.294 293.807 132.734 272.749 127.019 267.535C126.217 266.733 84.6021 267.836 83.098 268.437C81.3933 269.139 102.251 298.019 106.863 298.821C110.774 299.423 142.16 297.517 151.787 296.815C152.388 296.815 152.79 297.217 152.79 297.818V301.328C152.79 301.829 152.489 302.23 151.987 302.331C145.369 302.932 113.381 305.74 105.86 303.735C99.5431 302.03 88.6131 284.782 83.2985 276.359C83.0979 275.958 82.5964 276.159 82.6967 276.56C82.6967 277.161 82.8973 277.763 83.1981 278.565C84.9028 282.476 97.9386 301.729 104.757 304.838C110.774 307.645 145.369 304.035 152.79 303.233C152.856 303.233 152.89 303.233 152.89 303.233C152.957 303.233 153.024 303.233 153.09 303.233C153.792 303.033 154.193 302.431 154.193 301.729V296.114Z" fill="#54628E"/>
<path d="M155.301 285.685V291.301C155.301 292.003 154.799 292.504 154.198 292.705C154.131 292.705 154.064 292.738 153.997 292.805C153.93 292.805 153.897 292.805 153.897 292.805C146.477 293.607 111.881 297.217 105.765 294.409C99.0461 291.201 85.3084 270.744 84.5062 267.836C84.4059 267.435 84.3057 267.235 84.3057 266.633C84.4059 263.424 84.406 258.511 84.406 258.511L155.1 285.585L155.301 285.685Z" fill="#FFF3EB"/>
<path d="M155.298 285.685C155.298 283.379 133.839 262.221 128.123 257.007C127.321 256.305 85.7066 257.307 84.2025 257.909C82.4978 258.711 103.355 287.591 107.968 288.293C111.879 288.995 143.165 287.089 152.891 286.387C153.493 286.387 153.894 286.788 153.894 287.29V290.9C153.894 291.401 153.493 291.802 152.992 291.802C146.474 292.404 114.486 295.312 106.965 293.206C100.648 291.501 89.9184 274.956 84.6037 266.533C84.4032 266.132 83.7013 266.332 83.9019 266.834C83.9687 267.168 84.1023 267.569 84.3029 268.037C86.0076 272.048 99.0433 291.201 105.762 294.409C111.879 297.217 146.474 293.607 153.894 292.805C153.894 292.805 153.928 292.805 153.994 292.805C154.061 292.738 154.128 292.705 154.195 292.705C154.797 292.504 155.298 292.003 155.298 291.301V285.685Z" fill="#E5704E"/>
<path d="M112.881 276.861L134.741 275.859C135.744 275.758 136.145 274.655 135.544 273.953L128.324 266.032C127.722 265.33 126.819 264.929 125.817 265.029L103.054 266.132C102.152 266.132 101.65 267.235 102.252 267.937L108.87 275.157C109.873 276.36 111.377 276.962 112.881 276.861Z" fill="#FFF3EB"/>
<path d="M334.691 246.779L327.872 263.324L308.92 263.424L312.229 242.467L334.691 246.779Z" fill="#F8A98A"/>
<path d="M358.455 184.507C356.85 214.991 343.815 237.954 339.703 244.572C338.5 246.478 336.595 247.982 334.489 248.684C332.483 249.285 329.676 249.586 326.266 248.684C318.144 246.478 311.827 245.174 311.726 245.174C311.225 245.174 329.776 167.059 325.665 159.539C321.152 151.416 291.571 144.096 289.265 145.4C286.858 146.703 276.229 185.51 273.923 196.841C271.516 208.072 271.014 229.03 272.318 242.667C273.421 254.099 273.822 262.522 273.822 263.524C273.822 263.625 273.923 263.825 273.923 263.825L235.417 264.427C227.394 263.725 201.824 241.865 185.179 226.924C185.045 226.79 184.878 226.623 184.677 226.422C176.254 218.902 170.338 213.286 170.338 213.286C170.672 206.668 171.039 200.05 171.441 193.432C169.335 196.139 165.524 200.451 159.909 204.663C156.199 207.47 151.586 210.178 146.272 212.183C139.352 214.79 121.604 222.111 112.779 213.888C107.565 208.974 105.359 201.354 104.958 192.529C104.055 174.48 110.573 151.416 113.782 136.275C118.495 113.713 115.186 103.184 117.893 100.175C118.094 99.9747 118.295 99.8076 118.495 99.6739C123.409 95.5626 138.951 96.3648 144.868 96.7659C146.271 96.9665 147.174 96.9665 147.174 96.9665L139.453 109.802L168.031 109.3L162.015 133.768C162.616 132.063 166.427 120.23 175.051 115.217C183.474 110.303 189.992 107.495 189.992 107.495L233.712 90.8496C233.712 90.8496 260.185 90.1477 300.897 107.495C341.609 124.843 360.26 148.207 358.455 184.507Z" fill="#E5704E"/>
<path d="M185.178 226.923C185.044 226.789 184.877 226.622 184.676 226.422C184.609 226.288 184.576 226.188 184.576 226.121C182.871 217.998 179.763 210.277 175.651 203.158C175.451 202.957 175.852 202.757 176.052 202.957C177.256 205.029 178.359 207.135 179.362 209.274C182.069 214.89 183.974 220.806 185.178 226.923Z" fill="#211513"/>
<path d="M174.848 188.418C179.861 198.445 188.285 206.167 197.109 212.885C199.616 214.79 202.223 216.695 204.83 218.601C205.131 218.801 205.432 218.3 205.131 218.099C196.106 211.682 186.981 204.963 180.162 196.039C178.291 193.565 176.653 190.958 175.249 188.217C175.148 187.916 174.647 188.117 174.848 188.418Z" fill="#211513"/>
<path d="M239.228 196.44C246.749 194.334 253.768 190.825 259.885 186.012C261.69 184.675 263.361 183.204 264.899 181.599C265.2 181.399 264.799 180.998 264.598 181.299C259.083 186.713 252.465 191.025 245.245 193.933C243.239 194.736 241.2 195.404 239.128 195.939C238.727 196.039 238.927 196.541 239.228 196.44Z" fill="#211513"/>
<path d="M328.174 163.349C327.071 163.349 326.469 162.948 326.369 162.948C326.268 162.848 326.269 162.747 326.269 162.647C326.369 162.447 326.569 162.447 326.67 162.547C326.67 162.547 328.274 163.449 330.881 162.146C333.589 160.942 336.095 156.43 336.196 156.33C336.196 156.229 336.396 156.229 336.497 156.229C336.597 156.33 336.697 156.53 336.597 156.631C336.497 156.831 333.89 161.344 331.082 162.647C329.979 163.149 328.976 163.349 328.174 163.349Z" fill="#211513"/>
<path d="M332.085 166.658C331.483 166.658 330.881 166.591 330.28 166.457C327.572 165.755 326.469 164.853 326.469 164.753C326.369 164.652 326.268 164.552 326.369 164.352C326.469 164.251 326.67 164.251 326.77 164.352C326.77 164.352 327.873 165.354 330.38 165.956C332.987 166.558 335.895 165.455 335.895 165.455C336.095 165.354 336.196 165.455 336.296 165.555C336.296 165.755 336.296 165.856 336.096 165.956C335.995 165.956 334.19 166.658 332.085 166.658Z" fill="#211513"/>
<path d="M339.002 241.063C336.294 241.063 331.682 240.862 326.668 239.759C318.846 237.954 314.735 236.45 314.635 236.35C314.535 236.35 314.434 236.149 314.535 236.049C314.535 235.949 314.735 235.848 314.835 235.949C314.936 235.949 318.947 237.453 326.768 239.258C334.59 240.963 341.509 240.461 341.509 240.461C341.709 240.461 341.81 240.561 341.81 240.762C341.81 240.862 341.709 240.963 341.609 240.963C341.609 240.963 340.606 241.063 339.002 241.063Z" fill="#211513"/>
<path d="M137.449 110.002C137.449 110.002 152.29 80.1202 155.599 77.6133C158.808 75.1064 160.814 77.112 160.814 77.112C160.814 77.112 162.217 75.4073 164.724 75.2067C167.231 74.9059 168.234 76.1092 168.234 76.1092C168.234 76.1092 169.939 73.9031 173.348 74.9059C175.855 75.6078 179.665 88.8442 178.362 92.2536C177.158 95.663 172.947 94.2591 172.947 94.2591L168.134 109.3C168.134 109.3 159.61 111.707 153.493 111.807C141.26 112.008 137.449 110.002 137.449 110.002Z" fill="#F8A98A"/>
<path d="M169.742 94.8602C169.274 94.8602 168.706 94.7599 168.037 94.5594C166.934 94.2586 166.332 93.6569 166.132 93.1555C166.032 93.0553 165.931 93.0553 165.931 93.0553C165.797 92.9884 165.697 93.0218 165.631 93.1555C164.929 94.058 163.424 95.4619 161.218 94.2586C159.514 93.3561 157.809 88.0415 156.706 84.5318C156.305 83.4288 155.904 82.1252 155.803 81.9246C155.503 81.9246 155.001 82.2255 154.801 82.426C154.7 82.5263 154.5 82.5263 154.399 82.426C154.299 82.3258 154.299 82.1252 154.399 82.0249C154.6 81.9247 155.402 81.2227 156.004 81.4233C156.204 81.5235 156.405 81.8244 157.207 84.4315C158.21 87.6404 159.915 92.955 161.519 93.7572C163.224 94.76 164.527 93.7572 165.229 92.7544C165.43 92.5539 165.63 92.4536 165.931 92.4536C166.232 92.5539 166.433 92.6541 166.533 92.8547C166.867 93.4564 167.435 93.8575 168.238 94.058C169.641 94.5594 170.644 94.2586 171.246 93.9577C171.747 93.7572 172.148 93.1555 172.148 92.5539C172.048 91.5511 171.948 87.7407 171.045 84.6321C169.842 80.4205 168.238 76.9109 168.238 76.9109C168.137 76.7103 168.137 76.61 168.338 76.5098C168.438 76.5098 168.639 76.5098 168.639 76.61C168.639 76.7103 170.343 80.22 171.547 84.4315C172.449 87.7406 172.65 91.5511 172.65 92.5539C172.65 93.3561 172.148 94.1583 171.547 94.4591C171.146 94.6597 170.544 94.8602 169.742 94.8602Z" fill="#211513"/>
<path d="M165.927 92.9551C165.727 92.9551 165.627 92.8548 165.627 92.6543C165.627 92.6543 165.426 89.7463 164.523 86.5374C163.621 83.1281 161.515 79.6184 161.515 79.6184C161.415 79.4179 161.515 79.3176 161.616 79.2173C161.716 79.117 161.916 79.2173 162.017 79.3176C162.017 79.3176 164.122 82.9275 165.025 86.4372C165.927 89.7463 166.128 92.6543 166.128 92.6543C166.128 92.7545 166.027 92.9551 165.927 92.9551Z" fill="#211513"/>
<path d="M174.851 94.6603C172.444 94.6603 172.043 93.457 172.043 93.457C172.043 93.3567 172.143 93.1562 172.243 93.1562C172.344 93.0559 172.544 93.1561 172.544 93.3567C172.544 93.3567 172.945 94.2592 175.051 94.1589C177.057 94.1589 177.458 93.0559 177.458 93.0559C177.558 92.9556 177.658 92.8553 177.859 92.9556C177.959 92.9556 178.059 93.1562 177.959 93.2564C177.959 93.3567 177.358 94.6603 175.051 94.6603C174.984 94.6603 174.918 94.6603 174.851 94.6603Z" fill="#211513"/>
<path d="M225.391 69.2903C224.99 69.5911 224.388 69.9923 223.887 70.2931L222.684 70.8947C222.282 71.0953 221.681 70.995 221.38 70.5939C220.477 69.3906 218.372 66.8837 217.569 67.0843C216.567 67.2848 219.274 71.7972 219.074 72.5994C218.873 73.3014 218.372 74.4044 216.266 75.6077C215.263 76.1091 214.361 76.7107 213.659 77.2121C212.957 77.8138 211.854 77.7135 211.252 76.9113C210.35 75.8082 209.247 74.5047 208.745 74.7052C207.943 75.006 210.751 78.1146 210.65 79.0171C210.55 80.0198 208.043 81.8248 208.043 81.8248C208.043 81.8248 202.528 91.4513 194.707 94.6601C193.503 95.128 192.233 95.4289 190.896 95.5626C188.289 95.8634 186.584 96.2645 185.582 96.465C184.077 96.7659 183.676 96.9664 183.476 96.6656C182.974 96.1642 181.57 91.351 180.969 91.7521C180.367 92.1532 181.169 96.6656 180.869 97.2673C180.568 97.8689 177.86 96.7659 177.058 97.0667C176.256 97.3675 172.546 98.27 172.546 97.7686C172.445 70.5939 165.025 57.4578 169.337 50.3382C171.643 46.4274 174.351 44.7228 176.055 44.4219C177.259 44.2214 178.462 43.6197 179.565 42.9178C182.874 40.7117 190.194 37.0015 199.319 39.8092C207.442 42.4164 217.67 59.0622 221.38 63.374C223.385 65.7807 224.589 67.0842 225.391 67.6859C225.892 68.087 225.892 68.8892 225.391 69.2903Z" fill="#4A271A"/>
<path d="M179.764 45.7254C183.106 45.458 186.482 45.2574 189.892 45.1237C190.894 45.0235 191.797 45.0235 192.699 45.0235C194.605 45.1237 196.51 45.7254 198.215 46.5276C201.423 47.9315 204.532 49.937 207.139 52.2433C209.546 54.4494 211.551 56.856 213.356 59.5634C214.76 61.6358 215.963 63.8419 216.966 66.1816C217.066 66.4825 217.467 66.1816 217.367 65.8808C215.161 60.9673 212.153 56.3546 208.242 52.6444C205.735 50.2378 202.727 48.2323 199.618 46.6279C196.911 45.224 194.003 44.4218 190.995 44.5221C187.184 44.7226 183.474 44.9232 179.764 45.224C179.463 45.224 179.463 45.7254 179.764 45.7254Z" fill="#211513"/>
<path d="M205.839 72.0983C206.508 73.1679 207.243 74.2041 208.045 75.2068C208.246 75.4074 208.547 75.1066 208.346 74.8057C207.611 73.8698 206.942 72.8671 206.34 71.7975C206.14 71.4966 205.739 71.7975 205.839 72.0983Z" fill="#211513"/>
<path d="M175.554 80.821C176.557 86.1022 177.226 91.4168 177.56 96.7648C177.56 97.0657 178.061 97.0657 178.061 96.7648C177.727 91.3499 177.025 86.0019 175.955 80.7207C175.955 80.4199 175.454 80.5202 175.554 80.821Z" fill="#211513"/>
<path d="M171.745 66.6838C171.645 66.8843 171.544 66.9846 171.444 67.0849C171.243 67.2855 171.043 67.4526 170.842 67.5863C170.508 67.9205 170.14 68.1545 169.739 68.2882C169.639 68.3885 169.539 68.589 169.639 68.6893C169.739 68.7896 169.84 68.7896 169.94 68.7896C170.408 68.5222 170.842 68.2548 171.243 67.9874C171.444 67.7868 171.645 67.5863 171.845 67.3857C171.979 67.252 172.079 67.1183 172.146 66.9846C172.246 66.8844 172.146 66.6838 172.046 66.5835C171.945 66.4833 171.845 66.5835 171.745 66.6838Z" fill="#211513"/>
<path d="M194.708 94.6599C193.505 95.1279 192.234 95.4287 190.897 95.5624C188.29 95.8632 186.586 96.2643 185.583 96.4649C185.081 95.3618 184.079 93.5569 182.775 92.4538C180.77 90.8494 178.965 88.9442 178.163 86.1365C177.26 83.2285 174.954 80.7216 173.851 77.613C172.848 74.5045 172.246 66.4824 172.246 66.4824L190.496 89.245L194.708 94.6599Z" fill="#211513"/>
<path d="M172.145 60.1645C170.54 67.5849 178.161 93.8572 189.592 93.7569C195.208 93.7569 201.425 87.239 203.832 83.4285C206.138 79.618 205.135 71.4957 205.135 71.4957C205.135 71.4957 207.943 70.4929 205.637 65.2786C203.531 60.6659 200.021 64.4764 200.021 64.4764C200.021 64.4764 193.002 55.5518 187.487 53.5463C182.072 51.5408 173.749 52.9447 172.145 60.1645Z" fill="#F8A98A"/>
<path d="M175.953 52.7451C176.054 54.149 176.154 57.8592 174.75 61.5694C174.75 61.5694 173.948 63.6752 171.942 66.4829C171.742 66.6834 171.541 66.9843 171.14 67.3854C170.94 67.4856 170.438 67.987 170.238 67.8867C169.837 67.7865 169.736 65.5804 170.939 56.8564L175.953 52.7451Z" fill="#4A271A"/>
<path d="M233.715 90.8494C233.715 90.8494 230.005 101.278 222.485 108.698C222.351 108.899 222.184 109.066 221.983 109.2C221.649 109.534 221.281 109.868 220.88 110.203C220.479 110.537 220.078 110.871 219.677 111.205C216.267 113.813 212.256 115.818 207.543 116.019C192.502 117.021 189.995 107.495 189.995 107.495C190.196 107.495 191.198 106.994 192.302 106.091C192.569 105.891 192.803 105.69 193.003 105.49C194.608 104.086 196.112 102.08 195.912 99.4731C195.611 94.5596 191.7 92.9552 191.7 92.9552L205.137 70.8945C205.137 70.8945 205.438 79.9194 213.46 85.0334C218.373 88.142 224.891 89.6461 229.203 90.2478C231.008 90.5486 232.412 90.7491 233.114 90.7491C233.381 90.816 233.548 90.8494 233.615 90.8494C233.682 90.8494 233.715 90.8494 233.715 90.8494Z" fill="#F8A98A"/>
<path d="M190.093 94.3598C189.993 94.3598 189.893 94.2595 189.893 94.059C189.893 93.9587 189.993 93.8584 190.093 93.8584C190.093 93.8584 193.803 93.3571 197.513 89.1455C201.224 84.8336 202.126 79.0176 202.227 79.0176C202.227 78.8171 202.327 78.7168 202.527 78.7168C202.627 78.8171 202.728 78.9174 202.728 79.0176C202.728 79.1179 201.725 85.0342 197.915 89.4463C194.104 93.8584 190.294 94.3598 190.193 94.3598C190.127 94.3598 190.093 94.3598 190.093 94.3598Z" fill="#211513"/>
<path d="M176.055 74.4041C176.356 75.3066 177.058 75.9082 177.559 75.7077C178.161 75.6074 178.462 74.7049 178.161 73.8025C177.86 72.9 177.158 72.2983 176.557 72.3986C175.955 72.5991 175.754 73.5016 176.055 74.4041Z" fill="#211513"/>
<path d="M187.989 71.0955C188.189 71.998 188.791 72.6999 189.393 72.4993C189.994 72.3991 190.395 71.4966 190.195 70.5941C189.894 69.5913 189.292 68.9897 188.691 69.09C188.089 69.1902 187.788 70.0927 187.989 71.0955Z" fill="#211513"/>
<path d="M188.491 63.6747C190.898 63.3739 193.906 65.5799 192.502 65.4797C191.098 65.3794 189.795 65.1788 187.89 65.6802C185.884 66.0813 184.18 67.1844 184.18 66.9838C184.079 66.683 185.082 64.0758 188.491 63.6747Z" fill="#211513"/>
<path d="M182.574 81.7252C182.073 81.7252 181.672 81.6249 181.471 81.4244C181.171 81.1236 181.07 80.3214 180.87 77.8145C180.77 74.9065 180.469 70.5946 179.366 69.4916C177.561 67.8872 172.848 69.1907 172.747 69.1907C172.647 69.1907 172.447 69.1907 172.447 68.9902C172.346 68.8899 172.447 68.6894 172.647 68.6894C172.848 68.5891 177.661 67.2855 179.667 69.0905C180.97 70.2938 181.271 74.4051 181.471 77.8145C181.471 79.2183 181.572 80.8227 181.772 81.0233C182.173 81.3241 183.878 81.0233 185.081 80.8227C185.182 80.7225 185.282 80.8227 185.382 80.923C185.382 81.1236 185.282 81.2238 185.182 81.3241C184.881 81.3241 183.577 81.7252 182.574 81.7252Z" fill="#211513"/>
<path d="M187.085 80.2201C187.085 80.2201 186.784 79.7188 186.283 79.7188C185.581 79.7188 185.28 80.2201 185.28 80.2201C185.28 80.2201 185.681 80.0196 186.283 80.1199C186.784 80.1199 187.085 80.2201 187.085 80.2201Z" fill="#211513"/>
<path d="M183.477 85.5348C183.677 84.9332 184.078 84.2312 184.279 84.2312C184.68 84.2312 185.282 84.4318 185.482 84.3315C185.683 84.131 185.883 83.5293 186.485 83.5293C186.986 83.5293 188.791 84.0307 189.393 84.0307C190.095 84.0307 190.296 84.5321 188.19 84.6323C186.786 84.7326 186.585 85.4345 185.683 85.5348C184.78 85.6351 184.48 85.6351 184.078 85.9359C183.577 86.2367 183.376 86.6378 182.975 86.7381C182.674 86.8384 183.276 86.0362 183.477 85.5348Z" fill="#9E574E"/>
<path d="M185.882 87.8408C185.38 87.8408 185.079 87.7405 185.079 87.7405C184.979 87.6403 184.879 87.4397 184.979 87.3394C184.979 87.2392 185.18 87.1389 185.28 87.2392C185.28 87.2392 185.882 87.4397 186.584 87.2392C187.386 86.9383 187.687 86.5372 187.687 86.5372C187.787 86.3367 187.987 86.3367 188.088 86.437C188.188 86.5372 188.188 86.6375 188.188 86.7378C188.088 86.8381 187.687 87.4397 186.784 87.7405C186.45 87.8074 186.149 87.8408 185.882 87.8408Z" fill="#9E574E"/>
<path d="M172.545 68.8894C172.545 68.8894 172.745 67.6861 174.45 67.1848C176.155 66.6834 177.96 67.3853 178.662 67.987C179.364 68.4883 180.066 69.7919 180.066 69.7919L177.458 68.3881L173.648 68.6889L172.545 68.8894Z" fill="#211513"/>
<path d="M204.134 68.9896C204.134 68.9896 204.101 68.9896 204.034 68.9896C203.934 68.8893 203.834 68.7891 203.934 68.6888C203.934 68.6888 204.034 68.1874 203.733 67.3852C203.432 66.6833 202.63 66.2822 202.63 66.2822C202.53 66.1819 202.43 65.9813 202.53 65.8811C202.63 65.7808 202.73 65.6805 202.931 65.7808C202.931 65.7808 203.834 66.2822 204.235 67.2849C204.536 68.1874 204.435 68.7891 204.435 68.7891C204.335 68.8893 204.235 68.9896 204.134 68.9896Z" fill="#211513"/>
<path d="M175.053 53.5469C175.053 53.5469 179.264 56.9562 185.381 60.5662C190.295 63.4742 200.021 64.4769 200.021 64.4769L196.712 54.3491L181.671 49.4355L175.053 53.5469Z" fill="#4A271A"/>
<path d="M229.705 66.0811C229.705 66.0811 229.671 66.0811 229.604 66.0811C229.604 66.0811 226.095 64.7775 222.886 62.4712C219.677 60.0645 212.157 53.6469 212.157 53.5466C212.056 53.4464 211.956 53.2458 212.056 53.1455C212.156 53.0452 212.357 53.0452 212.457 53.1455C212.558 53.2458 219.978 59.6634 223.187 61.9698C226.396 64.2761 229.805 65.5797 229.805 65.5797C229.905 65.68 230.006 65.7803 230.006 65.9808C229.939 66.0477 229.838 66.0811 229.705 66.0811Z" fill="#4A271A"/>
<path d="M171.144 97.7681C170.943 97.7681 170.843 97.5675 170.843 97.4672C170.843 97.2667 171.545 82.4259 169.941 75.3063C168.436 68.0865 168.136 58.46 168.136 58.3597C168.136 58.2594 168.236 58.1592 168.336 58.1592C168.537 58.0589 168.637 58.2594 168.637 58.3597C168.637 58.46 168.938 67.9862 170.442 75.206C172.046 82.4259 171.345 97.367 171.345 97.4672C171.345 97.6678 171.244 97.7681 171.144 97.7681Z" fill="#211513"/>
<path fill-rule="evenodd" clip-rule="evenodd" d="M196.211 65.078C195.008 65.078 193.403 64.9777 191.398 64.8774C182.674 64.0752 175.153 54.1479 174.752 53.7468C174.752 53.6465 174.752 53.446 174.852 53.3457C174.953 53.3457 175.153 53.3457 175.253 53.446C175.253 53.5463 182.975 63.5738 191.398 64.2758C198.919 64.9777 199.721 64.1755 199.821 64.0752C199.821 63.8747 199.921 63.7744 200.122 63.7744C200.222 63.7744 200.322 63.9749 200.322 64.0752C200.322 64.1755 200.322 64.2758 200.122 64.4763C199.821 64.7771 198.718 65.078 196.211 65.078Z" fill="#4A271A"/>
<path d="M175.754 54.0484C175.654 54.0484 175.554 53.9481 175.554 53.8478C175.554 53.7476 174.651 51.1404 175.153 48.3327C175.654 45.6252 177.559 44.1211 177.66 44.1211C177.76 44.0208 177.96 44.0208 178.061 44.1211C178.061 44.2214 178.06 44.4219 177.96 44.5222C177.96 44.5222 176.155 45.9261 175.654 48.433C175.153 51.0401 176.055 53.6473 176.055 53.7476C176.055 53.8479 176.055 53.9481 175.855 54.0484C175.855 54.0484 175.821 54.0484 175.754 54.0484Z" fill="#211513"/>
<path d="M176.858 51.6422C180.167 53.5474 183.777 55.0516 187.487 55.8538C190.796 56.5557 194.005 56.9568 196.913 58.6615C198.818 59.7645 200.423 61.2687 201.827 62.9734C202.027 63.1739 202.328 62.8731 202.127 62.5723C199.921 59.8648 197.013 57.6588 193.604 56.656C192 56.1546 190.395 55.8538 188.791 55.553C186.785 55.1519 184.88 54.6505 182.875 53.9486C180.869 53.2132 178.964 52.2773 177.159 51.1408C176.858 51.0406 176.658 51.4417 176.858 51.6422Z" fill="#211513"/>
<path d="M171.441 193.432C171.441 193.432 171.408 193.432 171.341 193.432C171.241 193.432 171.14 193.332 171.14 193.131C171.441 186.713 171.341 180.496 170.84 174.58C170.773 174.045 170.706 173.511 170.639 172.976C170.438 170.77 170.238 168.564 170.238 165.555C170.138 161.344 170.539 157.032 171.341 152.921C171.341 152.72 171.441 152.62 171.642 152.72C171.742 152.72 171.842 152.82 171.842 153.021C171.04 157.132 170.739 161.344 170.739 165.555C170.739 168.564 170.94 170.77 171.241 172.875C171.241 173.41 171.274 173.945 171.341 174.48C171.943 180.396 172.043 186.713 171.642 193.131C171.642 193.332 171.541 193.432 171.441 193.432Z" fill="#36160E"/>
<path d="M292.271 147.606C292.271 147.606 292.237 147.606 292.171 147.606C292.171 147.506 286.956 145.199 280.839 144.397C274.121 143.495 266.4 144.898 266.4 144.898C266.199 144.999 266.099 144.898 266.099 144.698C265.999 144.598 266.099 144.497 266.299 144.397C266.299 144.397 274.121 142.993 280.94 143.795C287.157 144.598 292.371 147.105 292.371 147.105C292.572 147.105 292.572 147.305 292.572 147.405C292.505 147.539 292.404 147.606 292.271 147.606Z" fill="#211513"/>
<path d="M271.117 153.622C271.05 153.622 270.983 153.589 270.916 153.522C270.816 153.422 270.816 153.221 270.916 153.121C271.016 153.021 274.125 150.414 281.244 149.511C287.16 148.809 292.475 149.912 292.575 149.912C292.676 149.912 292.776 150.113 292.776 150.213C292.776 150.313 292.576 150.414 292.475 150.414C292.375 150.414 287.16 149.31 281.244 150.012C274.325 150.915 271.317 153.522 271.217 153.522C271.217 153.589 271.183 153.622 271.117 153.622Z" fill="#211513"/>
<path d="M233.71 90.8497C233.71 90.8497 229.999 101.278 222.479 108.699C222.345 108.899 222.178 109.066 221.977 109.2C221.643 109.534 221.275 109.869 220.874 110.203C220.473 110.537 220.072 110.871 219.671 111.206C216.262 113.813 212.25 115.818 207.538 116.019C192.496 117.022 189.989 107.495 189.989 107.495C190.19 107.495 191.193 106.994 192.296 106.092C192.563 105.891 192.797 105.69 192.998 105.49C193.198 106.493 193.499 107.495 194.201 108.398C197.711 113.412 207.437 111.306 209.242 111.005C218.267 109 227.793 101.88 228.997 92.6547C229.13 91.7856 229.197 90.9834 229.197 90.248C231.002 90.5489 232.406 90.7494 233.108 90.7494C233.375 90.8163 233.542 90.8497 233.609 90.8497C233.676 90.8497 233.71 90.8497 233.71 90.8497Z" fill="#FFF3EB"/>
<path d="M205.931 129.556C187.18 129.556 181.966 113.311 181.865 113.111C181.865 113.01 181.965 112.81 182.066 112.81C182.166 112.71 182.367 112.81 182.367 112.91C182.467 113.111 187.982 130.458 208.538 128.954C231.903 127.149 246.744 94.1586 246.944 93.8578C246.944 93.6572 247.145 93.6572 247.245 93.6572C247.345 93.7575 247.446 93.8578 247.345 94.0583C247.245 94.3592 232.203 127.651 208.538 129.456C207.669 129.522 206.8 129.556 205.931 129.556Z" fill="#211513"/>
<path d="M145.574 124.04C144.705 124.04 143.835 124.04 142.966 124.04C125.117 123.539 117.196 117.622 117.095 117.522C116.995 117.522 116.995 117.322 116.995 117.221C117.095 117.121 117.296 117.121 117.396 117.121C117.496 117.221 125.318 123.037 142.966 123.539C160.615 123.94 165.127 119.728 165.127 119.628C165.228 119.528 165.428 119.528 165.528 119.628C165.629 119.728 165.629 119.929 165.528 120.029C165.328 120.23 161.317 124.04 145.574 124.04Z" fill="#211513"/>
<path d="M259.984 263.023C259.783 263.023 259.683 262.922 259.683 262.822C259.683 262.521 255.271 235.547 259.482 204.361C263.594 173.176 278.234 150.714 278.334 150.413C278.435 150.313 278.635 150.313 278.735 150.413C278.836 150.413 278.936 150.614 278.836 150.714C278.635 150.914 264.095 173.376 259.984 204.462C255.772 235.547 260.184 262.421 260.184 262.722C260.184 262.822 260.184 262.922 259.984 263.023Z" fill="#211513"/>
<path d="M144.266 96.7664L137.447 110.003C137.447 110.003 127.319 108.098 122.405 105.089C118.795 102.783 118.294 100.677 118.495 99.6744C123.408 95.5631 138.349 96.265 144.266 96.7664Z" fill="#211513"/>
<path d="M162.415 132.765C162.415 132.765 150.281 157.934 144.165 172.173C142.961 174.781 141.959 176.886 140.956 178.591C140.154 180.095 137.847 178.892 138.649 177.287C140.053 174.279 141.858 170.268 143.964 165.054C149.279 151.617 149.479 142.993 153.791 135.272C158.103 127.651 165.022 121.534 165.022 121.534L162.415 132.765Z" fill="#36160E"/>
<path d="M197.614 165.053C199.218 167.794 200.823 170.502 202.427 173.176L191.397 172.674C189.692 172.674 188.389 171.371 188.389 169.766V152.118C188.389 151.516 188.689 150.814 188.99 150.413C191.798 155.293 194.673 160.173 197.614 165.053Z" fill="#FFF3EB"/>
<path d="M216.162 147.706C215.16 156.43 213.355 165.054 211.349 173.577L206.937 173.377C206.803 173.176 206.67 172.976 206.536 172.775C204.53 169.499 202.525 166.19 200.519 162.848C197.845 158.302 195.205 153.723 192.598 149.11L216.162 147.706Z" fill="#FFF3EB"/>
<path d="M219.672 149.711C224.284 157.532 229.599 164.953 235.615 171.772C235.515 173.276 234.212 174.479 232.707 174.479L215.159 173.677C216.964 165.755 218.669 157.833 219.672 149.711Z" fill="#FFF3EB"/>
<path d="M235.617 149.611V166.056C230.804 160.14 226.392 153.822 222.481 147.304L232.71 146.603C234.314 146.603 235.617 148.006 235.617 149.611Z" fill="#FFF3EB"/>
<path d="M356.447 277.162L390.742 308.248C391.343 308.95 342.308 312.359 342.308 312.359C341.907 312.359 341.606 312.158 341.406 311.858L309.217 279.97C308.616 279.468 309.017 278.466 309.719 278.466C318.543 277.764 356.447 277.162 356.447 277.162Z" fill="#FFF3EB"/>
<path d="M416.813 317.272C417.716 318.275 367.277 321.183 366.776 320.481L333.685 287.49C333.083 286.688 379.31 285.585 379.31 285.585C380.012 285.585 416.813 317.272 416.813 317.272Z" fill="#FFF3EB"/>
<path d="M357.149 311.557C357.083 311.557 357.016 311.523 356.949 311.456C356.949 311.456 350.932 305.741 345.016 299.925C332.983 287.992 333.384 287.39 333.685 286.989C334.487 285.686 358.553 285.686 365.873 285.686C366.074 285.686 366.174 285.786 366.174 285.986C366.174 286.087 366.074 286.187 365.873 286.187C354.241 286.187 335.49 286.488 334.086 287.29C334.387 288.894 348.425 302.732 357.35 311.156C357.45 311.256 357.45 311.356 357.35 311.456C357.283 311.523 357.216 311.557 357.149 311.557Z" fill="#211513"/>
<path d="M120 55.2524C116.991 53.2469 114.785 58.9626 112.78 61.8706C111.777 63.475 108.969 66.7841 108.167 67.3858C108.167 67.2855 112.78 60.6673 115.287 50.8403C117.894 40.8127 109.571 42.4171 108.267 48.2331C106.964 54.4502 106.061 66.6838 105.961 67.0849C105.66 59.3637 109.07 31.2865 102.151 31.7879C96.836 32.0887 96.4349 39.3086 96.9363 46.2276C97.3374 51.5422 101.148 68.188 101.148 68.6893C100.947 68.3885 97.5379 51.6425 93.3263 47.4309C91.0199 45.2248 87.5103 46.1273 86.6078 48.7345C85.5048 52.2441 88.3124 56.556 91.7218 60.2662C92.9251 61.5698 96.8359 65.6811 97.5378 66.6838C97.1367 66.383 93.7274 63.0739 93.3263 62.7731C90.5185 60.6673 87.6105 55.6535 84.7025 58.2607C81.2931 61.1687 86.9087 65.8816 91.4211 67.3858C95.9335 68.8899 97.1368 71.5974 97.1368 71.5974L98.1396 67.8871L103.655 71.6976C103.655 71.6976 103.855 70.4943 103.855 68.7896L106.763 69.5918C106.763 69.5918 106.663 69.0905 106.663 68.188L107.666 68.6893C107.666 68.6893 107.766 68.0877 108.267 66.7841L110.173 70.6949C110.173 70.6949 110.875 67.7869 114.986 65.4805C119.097 63.2745 123.71 57.8596 120 55.2524Z" fill="#54896E"/>
<path d="M98.443 66.4825C98.3761 66.4825 98.3091 66.4157 98.2422 66.282C98.2422 66.282 96.9387 62.9729 94.3316 57.2572C91.8247 51.5414 89.4182 49.2351 89.4182 49.2351C89.2176 49.1348 89.2175 48.9343 89.3178 48.834C89.4181 48.7337 89.6185 48.7337 89.7188 48.834C89.8191 48.9343 92.3261 51.2406 94.8329 57.0566C97.3398 62.7723 98.7436 66.0814 98.7436 66.0814C98.7436 66.282 98.7437 66.3823 98.5431 66.4825C98.5431 66.4825 98.5098 66.4825 98.443 66.4825Z" fill="#211513"/>
<path d="M107.568 66.9851C107.568 66.9851 107.535 66.9851 107.468 66.9851C107.368 66.8848 107.267 66.7845 107.368 66.584C107.368 66.584 108.17 64.8793 110.075 59.3641C111.88 53.9492 112.482 47.9327 112.582 47.8324C112.582 47.7321 112.682 47.6318 112.782 47.6318C112.983 47.6318 113.083 47.7321 113.083 47.9327C113.083 47.9327 112.482 54.0495 110.576 59.5647C108.671 65.0798 107.869 66.7845 107.869 66.8848C107.802 66.9516 107.702 66.9851 107.568 66.9851Z" fill="#211513"/>
<path d="M119.201 68.9907C117.396 81.7257 115.791 90.9511 115.59 91.4525C115.49 91.7533 115.29 92.0541 115.29 92.0541C115.223 92.2547 115.123 92.4552 114.989 92.6558C112.983 96.2657 110.777 97.8701 106.165 97.8701H97.5409C91.2235 97.8701 88.9172 93.9594 86.8114 88.0431C86.6777 87.5751 86.6109 87.2743 86.6109 87.1406C86.4772 86.8732 86.3769 86.5724 86.31 86.2381C86.1763 85.837 86.076 85.4025 86.0092 84.9345C86.0092 84.9345 86.0092 84.9011 86.0092 84.8343C85.9423 84.7006 85.8755 84.5334 85.8087 84.3329C85.6749 83.7312 85.5413 83.0627 85.4076 82.3274C85.4076 82.3274 85.4076 82.2939 85.4076 82.2271C85.2739 81.6923 85.1736 81.1575 85.1068 80.6227C85.1068 80.6227 85.1068 80.5893 85.1068 80.5224C84.7057 78.4166 84.3045 76.2105 84.0036 73.9042C84.0036 73.8373 83.9704 73.7371 83.9035 73.6034C83.703 71.999 83.5023 70.3611 83.3018 68.6899C83.3018 68.5562 83.3686 68.4225 83.5023 68.2888C84.505 68.0214 85.4074 67.7874 86.2097 67.5868C86.3434 67.5868 86.4437 67.5868 86.5105 67.5868C86.8448 67.4531 87.0119 67.3863 87.0119 67.3863C87.5133 67.3863 89.519 66.8849 89.9201 66.7846C92.828 66.2833 96.0368 66.0827 98.3431 65.9824C99.4461 65.9824 100.349 65.9824 100.85 65.9824C101.051 65.9824 101.251 65.9824 101.452 65.9824C101.987 65.9824 102.488 65.9824 102.956 65.9824H103.457C104.46 66.0493 105.463 66.1161 106.466 66.183C111.68 66.6843 116.192 67.5868 118.699 68.1885C119.1 68.2888 119.301 68.5896 119.201 68.9907Z" fill="#54628E"/>
<path d="M114.989 92.6553C112.983 96.2652 110.777 97.8696 106.165 97.8696H97.5409C91.2235 97.8696 88.9172 93.9589 86.8114 88.0426C86.6777 87.5747 86.6109 87.2739 86.6109 87.1402C86.4772 86.8728 86.3769 86.5719 86.31 86.2377C86.1763 85.8366 86.076 85.402 86.0092 84.9341C86.0092 84.9341 86.0092 84.9007 86.0092 84.8338C85.9423 84.7001 85.8755 84.533 85.8087 84.3324C85.675 83.7308 85.5413 83.0623 85.4076 82.3269C85.4076 82.3269 85.4076 82.2935 85.4076 82.2266C85.2739 81.6918 85.1736 81.157 85.1068 80.6222C85.1068 80.6222 85.1068 80.5888 85.1068 80.522C84.7057 78.4162 84.3045 76.2101 84.0036 73.9037C84.0036 73.8369 83.9704 73.7366 83.9035 73.6029C83.703 71.9985 83.5023 70.3941 83.3018 68.7897V68.6894C83.3018 68.5557 83.3686 68.422 83.5023 68.2883C83.5023 68.2883 83.5358 68.2883 83.6026 68.2883C84.6722 68.0209 85.5412 67.7869 86.2097 67.5864C86.3434 67.5864 86.4437 67.5864 86.5105 67.5864C86.8448 67.4527 87.0119 67.3858 87.0119 67.3858C88.0147 67.1853 88.9841 66.9847 89.9201 66.7842C91.3239 68.89 92.9283 72.3996 93.4297 77.7142C94.4325 87.3407 101.853 93.6581 107.568 94.0592C110.677 94.36 113.284 93.4575 114.989 92.6553Z" fill="#211513"/>
<path d="M103.453 65.9818C103.319 65.9818 103.152 65.9818 102.951 65.9818C102.851 61.0683 102.751 56.1548 102.851 51.5421V50.6396C102.851 48.8346 102.851 47.0297 102.851 44.5228C102.751 41.1134 102.65 37.6038 102.35 34.1944C102.35 33.9938 102.45 33.8936 102.65 33.8936C102.751 33.8936 102.851 33.9938 102.851 34.1944C103.152 37.6038 103.252 41.1134 103.352 44.5228C103.352 47.0297 103.352 48.8346 103.352 50.6396V51.5421C103.252 56.1548 103.352 61.0683 103.453 65.9818Z" fill="#211513"/>
<path d="M33.4619 138.38C33.4619 143.896 29.7517 149.511 23.9357 150.313C21.6294 150.614 18.4205 150.413 17.1169 150.413C11.5015 150.313 6.28711 144.999 6.28711 138.38C6.28711 135.472 7.39029 132.865 9.19525 130.86C9.66321 130.325 10.0643 129.79 10.3985 129.255C12.8051 126.147 14.1087 122.336 14.1087 118.325V114.013C14.1087 112.91 15.1115 112.008 16.2146 112.008H23.6349C24.7379 112.008 25.7407 112.91 25.7407 114.013V118.526C25.7407 123.038 27.5455 127.45 30.5538 130.86C32.3588 132.965 33.4619 135.573 33.4619 138.38Z" fill="#9E5A5F"/>
<path d="M19.7236 113.411C18.2529 113.411 16.8156 113.244 15.4117 112.91C15.2112 112.91 15.1109 112.81 15.2112 112.609C15.2112 112.509 15.3113 112.408 15.5119 112.408C17.1831 112.743 18.8544 112.876 20.5256 112.81C21.7958 112.81 23.0327 112.676 24.236 112.408C24.4366 112.308 24.5367 112.408 24.5367 112.609C24.6369 112.709 24.5367 112.81 24.3362 112.91C23.066 113.177 21.7958 113.344 20.5256 113.411C20.2582 113.411 19.991 113.411 19.7236 113.411Z" fill="#211513"/>
</svg>
